M48
; DRILL file {KiCad (5.1.5)-3} date 18.07.2021 6:32:12 PM
; FORMAT={3:3/ absolute / metric / suppress leading zeros}
; #@! TF.CreationDate,2021-07-18T18:32:12+02:00
; #@! TF.GenerationSoftware,Kicad,Pcbnew,(5.1.5)-3
FMAT,2
METRIC,TZ
T1C0.200
T2C0.300
T3C1.000
T4C3.400
%
G90
G05
T1
X1400Y23100
X7050Y32440
X7250Y22870
X8300Y24300
X8674Y13876
X9200Y23850
X11176Y10160
X14400Y11050
X14650Y21550
X15222Y12926
X15222Y11910
X15222Y11148
X15396Y22404
X16238Y12926
X17254Y12926
X18270Y20800
X18524Y30452
X21860Y30500
X24450Y31240
X25320Y23000
X26175Y25925
X30170Y24850
X30670Y24350
X30770Y23650
X31330Y31550
X32011Y8735
X33170Y33360
X34030Y33360
X35980Y12070
X36380Y32040
X36960Y12010
X37180Y32030
X37410Y27430
X38000Y32000
X38090Y12000
X38890Y18580
X39780Y22010
X39890Y17810
X40360Y20150
T2
X33560Y22810
X33560Y21540
X33560Y20270
X34830Y22810
X34830Y21540
X34830Y20270
X36100Y22810
X36100Y21540
X36100Y20270
T3
X2739Y31806
X2739Y29266
X2739Y26726
X2739Y24186
X2739Y21646
X2739Y19106
X2739Y16566
X2739Y14026
X2739Y11486
X2739Y8946
X2739Y6406
X2739Y3866
X5279Y31806
X5279Y29266
X5279Y26726
X5279Y24186
X5279Y21646
X5279Y19106
X5279Y16566
X5279Y14026
X5279Y11486
X5279Y8946
X5279Y6406
X5279Y3866
X42819Y31806
X42819Y29266
X42819Y26726
X42819Y24186
X42819Y21646
X42819Y19106
X42819Y16566
X42819Y14026
X42819Y11486
X42819Y8946
X42819Y6406
X42819Y3866
X45359Y31806
X45359Y29266
X45359Y26726
X45359Y24186
X45359Y21646
X45359Y19106
X45359Y16566
X45359Y14026
X45359Y11486
X45359Y8946
X45359Y6406
X45359Y3866
T4
X24130Y17272
T0
M30
