G04 #@! TF.GenerationSoftware,KiCad,Pcbnew,(5.1.5)-3*
G04 #@! TF.CreationDate,2021-07-21T14:46:52+02:00*
G04 #@! TF.ProjectId,sDrive1,73447269-7665-4312-9e6b-696361645f70,rev?*
G04 #@! TF.SameCoordinates,Original*
G04 #@! TF.FileFunction,Legend,Top*
G04 #@! TF.FilePolarity,Positive*
%FSLAX46Y46*%
G04 Gerber Fmt 4.6, Leading zero omitted, Abs format (unit mm)*
G04 Created by KiCad (PCBNEW (5.1.5)-3) date 2021-07-21 14:46:52*
%MOMM*%
%LPD*%
G04 APERTURE LIST*
%ADD10C,0.300000*%
%ADD11C,0.120000*%
%ADD12C,0.150000*%
%ADD13C,0.127000*%
%ADD14C,0.100000*%
%ADD15C,0.075000*%
%ADD16C,0.137881*%
G04 APERTURE END LIST*
D10*
X17684285Y3386428D02*
X17684285Y4886428D01*
X18041428Y4886428D01*
X18255714Y4815000D01*
X18398571Y4672142D01*
X18470000Y4529285D01*
X18541428Y4243571D01*
X18541428Y4029285D01*
X18470000Y3743571D01*
X18398571Y3600714D01*
X18255714Y3457857D01*
X18041428Y3386428D01*
X17684285Y3386428D01*
X20041428Y3386428D02*
X19541428Y4100714D01*
X19184285Y3386428D02*
X19184285Y4886428D01*
X19755714Y4886428D01*
X19898571Y4815000D01*
X19970000Y4743571D01*
X20041428Y4600714D01*
X20041428Y4386428D01*
X19970000Y4243571D01*
X19898571Y4172142D01*
X19755714Y4100714D01*
X19184285Y4100714D01*
X20470000Y4886428D02*
X20970000Y3386428D01*
X21470000Y4886428D01*
X22184285Y4243571D02*
X22041428Y4315000D01*
X21970000Y4386428D01*
X21898571Y4529285D01*
X21898571Y4600714D01*
X21970000Y4743571D01*
X22041428Y4815000D01*
X22184285Y4886428D01*
X22470000Y4886428D01*
X22612857Y4815000D01*
X22684285Y4743571D01*
X22755714Y4600714D01*
X22755714Y4529285D01*
X22684285Y4386428D01*
X22612857Y4315000D01*
X22470000Y4243571D01*
X22184285Y4243571D01*
X22041428Y4172142D01*
X21970000Y4100714D01*
X21898571Y3957857D01*
X21898571Y3672142D01*
X21970000Y3529285D01*
X22041428Y3457857D01*
X22184285Y3386428D01*
X22470000Y3386428D01*
X22612857Y3457857D01*
X22684285Y3529285D01*
X22755714Y3672142D01*
X22755714Y3957857D01*
X22684285Y4100714D01*
X22612857Y4172142D01*
X22470000Y4243571D01*
X23255714Y4886428D02*
X24184285Y4886428D01*
X23684285Y4315000D01*
X23898571Y4315000D01*
X24041428Y4243571D01*
X24112857Y4172142D01*
X24184285Y4029285D01*
X24184285Y3672142D01*
X24112857Y3529285D01*
X24041428Y3457857D01*
X23898571Y3386428D01*
X23470000Y3386428D01*
X23327142Y3457857D01*
X23255714Y3529285D01*
X24755714Y4743571D02*
X24827142Y4815000D01*
X24970000Y4886428D01*
X25327142Y4886428D01*
X25470000Y4815000D01*
X25541428Y4743571D01*
X25612857Y4600714D01*
X25612857Y4457857D01*
X25541428Y4243571D01*
X24684285Y3386428D01*
X25612857Y3386428D01*
X26112857Y4886428D02*
X27041428Y4886428D01*
X26541428Y4315000D01*
X26755714Y4315000D01*
X26898571Y4243571D01*
X26970000Y4172142D01*
X27041428Y4029285D01*
X27041428Y3672142D01*
X26970000Y3529285D01*
X26898571Y3457857D01*
X26755714Y3386428D01*
X26327142Y3386428D01*
X26184285Y3457857D01*
X26112857Y3529285D01*
X29684285Y3529285D02*
X29612857Y3457857D01*
X29398571Y3386428D01*
X29255714Y3386428D01*
X29041428Y3457857D01*
X28898571Y3600714D01*
X28827142Y3743571D01*
X28755714Y4029285D01*
X28755714Y4243571D01*
X28827142Y4529285D01*
X28898571Y4672142D01*
X29041428Y4815000D01*
X29255714Y4886428D01*
X29398571Y4886428D01*
X29612857Y4815000D01*
X29684285Y4743571D01*
X30970000Y3386428D02*
X30970000Y4172142D01*
X30898571Y4315000D01*
X30755714Y4386428D01*
X30470000Y4386428D01*
X30327142Y4315000D01*
X30970000Y3457857D02*
X30827142Y3386428D01*
X30470000Y3386428D01*
X30327142Y3457857D01*
X30255714Y3600714D01*
X30255714Y3743571D01*
X30327142Y3886428D01*
X30470000Y3957857D01*
X30827142Y3957857D01*
X30970000Y4029285D01*
X31684285Y3386428D02*
X31684285Y4386428D01*
X31684285Y4100714D02*
X31755714Y4243571D01*
X31827142Y4315000D01*
X31970000Y4386428D01*
X32112857Y4386428D01*
X32612857Y3386428D02*
X32612857Y4386428D01*
X32612857Y4100714D02*
X32684285Y4243571D01*
X32755714Y4315000D01*
X32898571Y4386428D01*
X33041428Y4386428D01*
X33541428Y3386428D02*
X33541428Y4386428D01*
X33541428Y4886428D02*
X33470000Y4815000D01*
X33541428Y4743571D01*
X33612857Y4815000D01*
X33541428Y4886428D01*
X33541428Y4743571D01*
X34827142Y3457857D02*
X34684285Y3386428D01*
X34398571Y3386428D01*
X34255714Y3457857D01*
X34184285Y3600714D01*
X34184285Y4172142D01*
X34255714Y4315000D01*
X34398571Y4386428D01*
X34684285Y4386428D01*
X34827142Y4315000D01*
X34898571Y4172142D01*
X34898571Y4029285D01*
X34184285Y3886428D01*
X35541428Y3386428D02*
X35541428Y4386428D01*
X35541428Y4100714D02*
X35612857Y4243571D01*
X35684285Y4315000D01*
X35827142Y4386428D01*
X35970000Y4386428D01*
D11*
X33708733Y10680000D02*
X34051267Y10680000D01*
X33708733Y11700000D02*
X34051267Y11700000D01*
X35060000Y21258733D02*
X35060000Y21601267D01*
X34040000Y21258733D02*
X34040000Y21601267D01*
X34390000Y15371267D02*
X34390000Y15028733D01*
X35410000Y15371267D02*
X35410000Y15028733D01*
X20358733Y5700000D02*
X20701267Y5700000D01*
X20358733Y6720000D02*
X20701267Y6720000D01*
X20691267Y8230000D02*
X20348733Y8230000D01*
X20691267Y7210000D02*
X20348733Y7210000D01*
X24408820Y17252000D02*
G75*
G03X24408820Y17252000I-298820J0D01*
G01*
X42105000Y36340000D02*
X42105000Y33880000D01*
X43575000Y36340000D02*
X42105000Y36340000D01*
X43575000Y33880000D02*
X43575000Y36340000D01*
X5721267Y390000D02*
X5378733Y390000D01*
X5721267Y1410000D02*
X5378733Y1410000D01*
X9650000Y17951267D02*
X9650000Y17608733D01*
X10670000Y17951267D02*
X10670000Y17608733D01*
X14098000Y17931267D02*
X14098000Y17588733D01*
X15118000Y17931267D02*
X15118000Y17588733D01*
X11894000Y18052779D02*
X11894000Y17727221D01*
X12914000Y18052779D02*
X12914000Y17727221D01*
X36925333Y33147000D02*
X36925333Y34417000D01*
X38132000Y34347000D02*
X36925333Y34347000D01*
X38132000Y34227000D02*
X36925333Y34227000D01*
X38132000Y34107000D02*
X36925333Y34107000D01*
X38132000Y33987000D02*
X36925333Y33987000D01*
X38132000Y33867000D02*
X36925333Y33867000D01*
X38132000Y33747000D02*
X36925333Y33747000D01*
X38132000Y33627000D02*
X36925333Y33627000D01*
X38132000Y33507000D02*
X36925333Y33507000D01*
X38132000Y33387000D02*
X36925333Y33387000D01*
X38132000Y33267000D02*
X36925333Y33267000D01*
X34512000Y33147000D02*
X38132000Y33147000D01*
X34512000Y34417000D02*
X34512000Y33147000D01*
X38132000Y34417000D02*
X34512000Y34417000D01*
X38132000Y33147000D02*
X38132000Y34417000D01*
X39972000Y31432000D02*
X39972000Y32815000D01*
X39972000Y31432000D02*
X38589000Y31432000D01*
X32912000Y34582000D02*
X32912000Y35892000D01*
X32912000Y31672000D02*
X32912000Y32982000D01*
X39732000Y34582000D02*
X39732000Y35892000D01*
X39732000Y31672000D02*
X39732000Y32982000D01*
X39732000Y35892000D02*
X32912000Y35892000D01*
X39732000Y31672000D02*
X32912000Y31672000D01*
X10670000Y21672733D02*
X10670000Y22015267D01*
X9650000Y21672733D02*
X9650000Y22015267D01*
X12914000Y21612733D02*
X12914000Y21955267D01*
X11894000Y21612733D02*
X11894000Y21955267D01*
X15118000Y21652733D02*
X15118000Y21995267D01*
X14098000Y21652733D02*
X14098000Y21995267D01*
X7730000Y1615000D02*
X10190000Y1615000D01*
X7730000Y3085000D02*
X7730000Y1615000D01*
X10190000Y3085000D02*
X7730000Y3085000D01*
D12*
X11979000Y3748000D02*
X11979000Y6723000D01*
X14229000Y4573000D02*
X14229000Y6723000D01*
D11*
X14468733Y1680000D02*
X14811267Y1680000D01*
X14468733Y2700000D02*
X14811267Y2700000D01*
X11104000Y10869267D02*
X11104000Y10526733D01*
X12124000Y10869267D02*
X12124000Y10526733D01*
X12614000Y10869267D02*
X12614000Y10526733D01*
X13634000Y10869267D02*
X13634000Y10526733D01*
X14134000Y10869267D02*
X14134000Y10526733D01*
X15154000Y10869267D02*
X15154000Y10526733D01*
X9228733Y370000D02*
X9571267Y370000D01*
X9228733Y1390000D02*
X9571267Y1390000D01*
X10304000Y6619267D02*
X10304000Y6276733D01*
X11324000Y6619267D02*
X11324000Y6276733D01*
X10530000Y28470000D02*
X11030000Y28470000D01*
X10780000Y28220000D02*
X10780000Y28720000D01*
X13535563Y28960000D02*
X14600000Y30024437D01*
X11144437Y28960000D02*
X10080000Y30024437D01*
X11144437Y28960000D02*
X11280000Y28960000D01*
X13535563Y28960000D02*
X13400000Y28960000D01*
X14600000Y30024437D02*
X14600000Y33480000D01*
X10080000Y30024437D02*
X10080000Y33480000D01*
X10080000Y33480000D02*
X11280000Y33480000D01*
X14600000Y33480000D02*
X13400000Y33480000D01*
X15770000Y28470000D02*
X16270000Y28470000D01*
X16020000Y28220000D02*
X16020000Y28720000D01*
X18775563Y28960000D02*
X19840000Y30024437D01*
X16384437Y28960000D02*
X15320000Y30024437D01*
X16384437Y28960000D02*
X16520000Y28960000D01*
X18775563Y28960000D02*
X18640000Y28960000D01*
X19840000Y30024437D02*
X19840000Y33480000D01*
X15320000Y30024437D02*
X15320000Y33480000D01*
X15320000Y33480000D02*
X16520000Y33480000D01*
X19840000Y33480000D02*
X18640000Y33480000D01*
X20700000Y28470000D02*
X21200000Y28470000D01*
X20950000Y28220000D02*
X20950000Y28720000D01*
X23705563Y28960000D02*
X24770000Y30024437D01*
X21314437Y28960000D02*
X20250000Y30024437D01*
X21314437Y28960000D02*
X21450000Y28960000D01*
X23705563Y28960000D02*
X23570000Y28960000D01*
X24770000Y30024437D02*
X24770000Y33480000D01*
X20250000Y30024437D02*
X20250000Y33480000D01*
X20250000Y33480000D02*
X21450000Y33480000D01*
X24770000Y33480000D02*
X23570000Y33480000D01*
X39776267Y2030000D02*
X39433733Y2030000D01*
X39776267Y1010000D02*
X39433733Y1010000D01*
D13*
X24758000Y21241600D02*
X24758000Y21796000D01*
X24758000Y21796000D02*
X25312400Y21796000D01*
X24758000Y16190400D02*
X24758000Y15636000D01*
X24758000Y15636000D02*
X25312400Y15636000D01*
X30363600Y15636000D02*
X30918000Y15636000D01*
X30918000Y15636000D02*
X30918000Y16190400D01*
X30918000Y21241600D02*
X30918000Y21796000D01*
X30918000Y21796000D02*
X30363600Y21796000D01*
D14*
X25638000Y15016000D02*
G75*
G03X25638000Y15016000I-50000J0D01*
G01*
D11*
X30428000Y25900748D02*
X30428000Y26423252D01*
X29008000Y25900748D02*
X29008000Y26423252D01*
X36724000Y29075267D02*
X36724000Y28732733D01*
X37744000Y29075267D02*
X37744000Y28732733D01*
X38009000Y23669000D02*
X38009000Y26129000D01*
X36539000Y23669000D02*
X38009000Y23669000D01*
X36539000Y26129000D02*
X36539000Y23669000D01*
X9551267Y4360000D02*
X9208733Y4360000D01*
X9551267Y3340000D02*
X9208733Y3340000D01*
X27932748Y32818000D02*
X28455252Y32818000D01*
X27932748Y34238000D02*
X28455252Y34238000D01*
X34253000Y23669000D02*
X34253000Y26129000D01*
X32783000Y23669000D02*
X34253000Y23669000D01*
X32783000Y26129000D02*
X32783000Y23669000D01*
X32968000Y29075267D02*
X32968000Y28732733D01*
X33988000Y29075267D02*
X33988000Y28732733D01*
X34846000Y29075267D02*
X34846000Y28732733D01*
X35866000Y29075267D02*
X35866000Y28732733D01*
X36131000Y23669000D02*
X36131000Y26129000D01*
X34661000Y23669000D02*
X36131000Y23669000D01*
X34661000Y26129000D02*
X34661000Y23669000D01*
X28210600Y9486267D02*
X28210600Y9143733D01*
X29230600Y9486267D02*
X29230600Y9143733D01*
X26686600Y9486267D02*
X26686600Y9143733D01*
X27706600Y9486267D02*
X27706600Y9143733D01*
X22880000Y26041267D02*
X22880000Y25698733D01*
X23900000Y26041267D02*
X23900000Y25698733D01*
X25920000Y26051267D02*
X25920000Y25708733D01*
X26940000Y26051267D02*
X26940000Y25708733D01*
X24410000Y26041267D02*
X24410000Y25698733D01*
X25430000Y26041267D02*
X25430000Y25698733D01*
X38504000Y29044267D02*
X38504000Y28701733D01*
X39524000Y29044267D02*
X39524000Y28701733D01*
X28450000Y25736733D02*
X28450000Y26079267D01*
X27430000Y25736733D02*
X27430000Y26079267D01*
X39749000Y23624000D02*
X39749000Y26084000D01*
X38279000Y23624000D02*
X39749000Y23624000D01*
X38279000Y26084000D02*
X38279000Y23624000D01*
X21633452Y13953071D02*
X21633452Y14475575D01*
X20213452Y13953071D02*
X20213452Y14475575D01*
X23608452Y13953071D02*
X23608452Y14475575D01*
X22188452Y13953071D02*
X22188452Y14475575D01*
X21370000Y21908748D02*
X21370000Y22431252D01*
X19950000Y21908748D02*
X19950000Y22431252D01*
X26070000Y11128748D02*
X26070000Y11651252D01*
X24650000Y11128748D02*
X24650000Y11651252D01*
D12*
X33237142Y12262857D02*
X33189523Y12215238D01*
X33046666Y12167619D01*
X32951428Y12167619D01*
X32808571Y12215238D01*
X32713333Y12310476D01*
X32665714Y12405714D01*
X32618095Y12596190D01*
X32618095Y12739047D01*
X32665714Y12929523D01*
X32713333Y13024761D01*
X32808571Y13120000D01*
X32951428Y13167619D01*
X33046666Y13167619D01*
X33189523Y13120000D01*
X33237142Y13072380D01*
X34189523Y12167619D02*
X33618095Y12167619D01*
X33903809Y12167619D02*
X33903809Y13167619D01*
X33808571Y13024761D01*
X33713333Y12929523D01*
X33618095Y12881904D01*
X34760952Y12739047D02*
X34665714Y12786666D01*
X34618095Y12834285D01*
X34570476Y12929523D01*
X34570476Y12977142D01*
X34618095Y13072380D01*
X34665714Y13120000D01*
X34760952Y13167619D01*
X34951428Y13167619D01*
X35046666Y13120000D01*
X35094285Y13072380D01*
X35141904Y12977142D01*
X35141904Y12929523D01*
X35094285Y12834285D01*
X35046666Y12786666D01*
X34951428Y12739047D01*
X34760952Y12739047D01*
X34665714Y12691428D01*
X34618095Y12643809D01*
X34570476Y12548571D01*
X34570476Y12358095D01*
X34618095Y12262857D01*
X34665714Y12215238D01*
X34760952Y12167619D01*
X34951428Y12167619D01*
X35046666Y12215238D01*
X35094285Y12262857D01*
X35141904Y12358095D01*
X35141904Y12548571D01*
X35094285Y12643809D01*
X35046666Y12691428D01*
X34951428Y12739047D01*
X33477142Y20787142D02*
X33524761Y20739523D01*
X33572380Y20596666D01*
X33572380Y20501428D01*
X33524761Y20358571D01*
X33429523Y20263333D01*
X33334285Y20215714D01*
X33143809Y20168095D01*
X33000952Y20168095D01*
X32810476Y20215714D01*
X32715238Y20263333D01*
X32620000Y20358571D01*
X32572380Y20501428D01*
X32572380Y20596666D01*
X32620000Y20739523D01*
X32667619Y20787142D01*
X33572380Y21739523D02*
X33572380Y21168095D01*
X33572380Y21453809D02*
X32572380Y21453809D01*
X32715238Y21358571D01*
X32810476Y21263333D01*
X32858095Y21168095D01*
X32572380Y22072857D02*
X32572380Y22739523D01*
X33572380Y22310952D01*
X36687142Y14557142D02*
X36734761Y14509523D01*
X36782380Y14366666D01*
X36782380Y14271428D01*
X36734761Y14128571D01*
X36639523Y14033333D01*
X36544285Y13985714D01*
X36353809Y13938095D01*
X36210952Y13938095D01*
X36020476Y13985714D01*
X35925238Y14033333D01*
X35830000Y14128571D01*
X35782380Y14271428D01*
X35782380Y14366666D01*
X35830000Y14509523D01*
X35877619Y14557142D01*
X36782380Y15509523D02*
X36782380Y14938095D01*
X36782380Y15223809D02*
X35782380Y15223809D01*
X35925238Y15128571D01*
X36020476Y15033333D01*
X36068095Y14938095D01*
X35782380Y16366666D02*
X35782380Y16176190D01*
X35830000Y16080952D01*
X35877619Y16033333D01*
X36020476Y15938095D01*
X36210952Y15890476D01*
X36591904Y15890476D01*
X36687142Y15938095D01*
X36734761Y15985714D01*
X36782380Y16080952D01*
X36782380Y16271428D01*
X36734761Y16366666D01*
X36687142Y16414285D01*
X36591904Y16461904D01*
X36353809Y16461904D01*
X36258571Y16414285D01*
X36210952Y16366666D01*
X36163333Y16271428D01*
X36163333Y16080952D01*
X36210952Y15985714D01*
X36258571Y15938095D01*
X36353809Y15890476D01*
X19767142Y8697619D02*
X19433809Y9173809D01*
X19195714Y8697619D02*
X19195714Y9697619D01*
X19576666Y9697619D01*
X19671904Y9650000D01*
X19719523Y9602380D01*
X19767142Y9507142D01*
X19767142Y9364285D01*
X19719523Y9269047D01*
X19671904Y9221428D01*
X19576666Y9173809D01*
X19195714Y9173809D01*
X20719523Y8697619D02*
X20148095Y8697619D01*
X20433809Y8697619D02*
X20433809Y9697619D01*
X20338571Y9554761D01*
X20243333Y9459523D01*
X20148095Y9411904D01*
X21195714Y8697619D02*
X21386190Y8697619D01*
X21481428Y8745238D01*
X21529047Y8792857D01*
X21624285Y8935714D01*
X21671904Y9126190D01*
X21671904Y9507142D01*
X21624285Y9602380D01*
X21576666Y9650000D01*
X21481428Y9697619D01*
X21290952Y9697619D01*
X21195714Y9650000D01*
X21148095Y9602380D01*
X21100476Y9507142D01*
X21100476Y9269047D01*
X21148095Y9173809D01*
X21195714Y9126190D01*
X21290952Y9078571D01*
X21481428Y9078571D01*
X21576666Y9126190D01*
X21624285Y9173809D01*
X21671904Y9269047D01*
X19837142Y10097619D02*
X19503809Y10573809D01*
X19265714Y10097619D02*
X19265714Y11097619D01*
X19646666Y11097619D01*
X19741904Y11050000D01*
X19789523Y11002380D01*
X19837142Y10907142D01*
X19837142Y10764285D01*
X19789523Y10669047D01*
X19741904Y10621428D01*
X19646666Y10573809D01*
X19265714Y10573809D01*
X20789523Y10097619D02*
X20218095Y10097619D01*
X20503809Y10097619D02*
X20503809Y11097619D01*
X20408571Y10954761D01*
X20313333Y10859523D01*
X20218095Y10811904D01*
X21360952Y10669047D02*
X21265714Y10716666D01*
X21218095Y10764285D01*
X21170476Y10859523D01*
X21170476Y10907142D01*
X21218095Y11002380D01*
X21265714Y11050000D01*
X21360952Y11097619D01*
X21551428Y11097619D01*
X21646666Y11050000D01*
X21694285Y11002380D01*
X21741904Y10907142D01*
X21741904Y10859523D01*
X21694285Y10764285D01*
X21646666Y10716666D01*
X21551428Y10669047D01*
X21360952Y10669047D01*
X21265714Y10621428D01*
X21218095Y10573809D01*
X21170476Y10478571D01*
X21170476Y10288095D01*
X21218095Y10192857D01*
X21265714Y10145238D01*
X21360952Y10097619D01*
X21551428Y10097619D01*
X21646666Y10145238D01*
X21694285Y10192857D01*
X21741904Y10288095D01*
X21741904Y10478571D01*
X21694285Y10573809D01*
X21646666Y10621428D01*
X21551428Y10669047D01*
X1779058Y14981528D02*
X1921915Y14933909D01*
X1969534Y14886290D01*
X2017153Y14791052D01*
X2017153Y14648195D01*
X1969534Y14552957D01*
X1921915Y14505338D01*
X1826677Y14457719D01*
X1445724Y14457719D01*
X1445724Y15457719D01*
X1779058Y15457719D01*
X1874296Y15410100D01*
X1921915Y15362480D01*
X1969534Y15267242D01*
X1969534Y15172004D01*
X1921915Y15076766D01*
X1874296Y15029147D01*
X1779058Y14981528D01*
X1445724Y14981528D01*
X2969534Y14457719D02*
X2398105Y14457719D01*
X2683820Y14457719D02*
X2683820Y15457719D01*
X2588581Y15314861D01*
X2493343Y15219623D01*
X2398105Y15172004D01*
X26269047Y32420571D02*
X27030952Y32420571D01*
X1722380Y34957619D02*
X1150952Y34957619D01*
X1436666Y34957619D02*
X1436666Y35957619D01*
X1341428Y35814761D01*
X1246190Y35719523D01*
X1150952Y35671904D01*
X2103333Y35862380D02*
X2150952Y35910000D01*
X2246190Y35957619D01*
X2484285Y35957619D01*
X2579523Y35910000D01*
X2627142Y35862380D01*
X2674761Y35767142D01*
X2674761Y35671904D01*
X2627142Y35529047D01*
X2055714Y34957619D01*
X2674761Y34957619D01*
X3103333Y34957619D02*
X3103333Y35957619D01*
X3436666Y35243333D01*
X3769999Y35957619D01*
X3769999Y34957619D01*
X4865238Y35957619D02*
X5436666Y35957619D01*
X5150952Y34957619D02*
X5150952Y35957619D01*
X6198571Y34957619D02*
X6198571Y35481428D01*
X6150952Y35576666D01*
X6055714Y35624285D01*
X5865238Y35624285D01*
X5770000Y35576666D01*
X6198571Y35005238D02*
X6103333Y34957619D01*
X5865238Y34957619D01*
X5770000Y35005238D01*
X5722380Y35100476D01*
X5722380Y35195714D01*
X5770000Y35290952D01*
X5865238Y35338571D01*
X6103333Y35338571D01*
X6198571Y35386190D01*
X6627142Y35005238D02*
X6722380Y34957619D01*
X6912857Y34957619D01*
X7008095Y35005238D01*
X7055714Y35100476D01*
X7055714Y35148095D01*
X7008095Y35243333D01*
X6912857Y35290952D01*
X6770000Y35290952D01*
X6674761Y35338571D01*
X6627142Y35433809D01*
X6627142Y35481428D01*
X6674761Y35576666D01*
X6770000Y35624285D01*
X6912857Y35624285D01*
X7008095Y35576666D01*
X7912857Y34957619D02*
X7912857Y35481428D01*
X7865238Y35576666D01*
X7770000Y35624285D01*
X7579523Y35624285D01*
X7484285Y35576666D01*
X7912857Y35005238D02*
X7817619Y34957619D01*
X7579523Y34957619D01*
X7484285Y35005238D01*
X7436666Y35100476D01*
X7436666Y35195714D01*
X7484285Y35290952D01*
X7579523Y35338571D01*
X7817619Y35338571D01*
X7912857Y35386190D01*
X8389047Y34957619D02*
X8389047Y35624285D01*
X8389047Y35433809D02*
X8436666Y35529047D01*
X8484285Y35576666D01*
X8579523Y35624285D01*
X8674761Y35624285D01*
X9008095Y34957619D02*
X9008095Y35624285D01*
X9484285Y34957619D02*
X9484285Y35624285D01*
X9484285Y35529047D02*
X9531904Y35576666D01*
X9627142Y35624285D01*
X9770000Y35624285D01*
X9865238Y35576666D01*
X9912857Y35481428D01*
X9912857Y34957619D01*
X9912857Y35481428D02*
X9960476Y35576666D01*
X10055714Y35624285D01*
X10198571Y35624285D01*
X10293809Y35576666D01*
X10341428Y35481428D01*
X10341428Y34957619D01*
D15*
X39690476Y6308666D02*
X39928571Y6308666D01*
X39642857Y6165809D02*
X39809523Y6665809D01*
X39976190Y6165809D01*
X40071428Y6665809D02*
X40238095Y6165809D01*
X40404761Y6665809D01*
X40547619Y6189619D02*
X40619047Y6165809D01*
X40738095Y6165809D01*
X40785714Y6189619D01*
X40809523Y6213428D01*
X40833333Y6261047D01*
X40833333Y6308666D01*
X40809523Y6356285D01*
X40785714Y6380095D01*
X40738095Y6403904D01*
X40642857Y6427714D01*
X40595238Y6451523D01*
X40571428Y6475333D01*
X40547619Y6522952D01*
X40547619Y6570571D01*
X40571428Y6618190D01*
X40595238Y6642000D01*
X40642857Y6665809D01*
X40761904Y6665809D01*
X40833333Y6642000D01*
X41047619Y6427714D02*
X41214285Y6427714D01*
X41285714Y6165809D02*
X41047619Y6165809D01*
X41047619Y6665809D01*
X41285714Y6665809D01*
X41500000Y6165809D02*
X41500000Y6665809D01*
X41785714Y6165809D01*
X41785714Y6665809D01*
X40440476Y29025809D02*
X40273809Y29263904D01*
X40154761Y29025809D02*
X40154761Y29525809D01*
X40345238Y29525809D01*
X40392857Y29502000D01*
X40416666Y29478190D01*
X40440476Y29430571D01*
X40440476Y29359142D01*
X40416666Y29311523D01*
X40392857Y29287714D01*
X40345238Y29263904D01*
X40154761Y29263904D01*
X40654761Y29287714D02*
X40821428Y29287714D01*
X40892857Y29025809D02*
X40654761Y29025809D01*
X40654761Y29525809D01*
X40892857Y29525809D01*
X41083333Y29049619D02*
X41154761Y29025809D01*
X41273809Y29025809D01*
X41321428Y29049619D01*
X41345238Y29073428D01*
X41369047Y29121047D01*
X41369047Y29168666D01*
X41345238Y29216285D01*
X41321428Y29240095D01*
X41273809Y29263904D01*
X41178571Y29287714D01*
X41130952Y29311523D01*
X41107142Y29335333D01*
X41083333Y29382952D01*
X41083333Y29430571D01*
X41107142Y29478190D01*
X41130952Y29502000D01*
X41178571Y29525809D01*
X41297619Y29525809D01*
X41369047Y29502000D01*
X46910476Y3625809D02*
X46743809Y3863904D01*
X46624761Y3625809D02*
X46624761Y4125809D01*
X46815238Y4125809D01*
X46862857Y4102000D01*
X46886666Y4078190D01*
X46910476Y4030571D01*
X46910476Y3959142D01*
X46886666Y3911523D01*
X46862857Y3887714D01*
X46815238Y3863904D01*
X46624761Y3863904D01*
X47124761Y3887714D02*
X47291428Y3887714D01*
X47362857Y3625809D02*
X47124761Y3625809D01*
X47124761Y4125809D01*
X47362857Y4125809D01*
X47553333Y3649619D02*
X47624761Y3625809D01*
X47743809Y3625809D01*
X47791428Y3649619D01*
X47815238Y3673428D01*
X47839047Y3721047D01*
X47839047Y3768666D01*
X47815238Y3816285D01*
X47791428Y3840095D01*
X47743809Y3863904D01*
X47648571Y3887714D01*
X47600952Y3911523D01*
X47577142Y3935333D01*
X47553333Y3982952D01*
X47553333Y4030571D01*
X47577142Y4078190D01*
X47600952Y4102000D01*
X47648571Y4125809D01*
X47767619Y4125809D01*
X47839047Y4102000D01*
X40333333Y11507714D02*
X40404761Y11483904D01*
X40428571Y11460095D01*
X40452380Y11412476D01*
X40452380Y11341047D01*
X40428571Y11293428D01*
X40404761Y11269619D01*
X40357142Y11245809D01*
X40166666Y11245809D01*
X40166666Y11745809D01*
X40333333Y11745809D01*
X40380952Y11722000D01*
X40404761Y11698190D01*
X40428571Y11650571D01*
X40428571Y11602952D01*
X40404761Y11555333D01*
X40380952Y11531523D01*
X40333333Y11507714D01*
X40166666Y11507714D01*
X40904761Y11245809D02*
X40666666Y11245809D01*
X40666666Y11745809D01*
X41333333Y11722000D02*
X41285714Y11745809D01*
X41214285Y11745809D01*
X41142857Y11722000D01*
X41095238Y11674380D01*
X41071428Y11626761D01*
X41047619Y11531523D01*
X41047619Y11460095D01*
X41071428Y11364857D01*
X41095238Y11317238D01*
X41142857Y11269619D01*
X41214285Y11245809D01*
X41261904Y11245809D01*
X41333333Y11269619D01*
X41357142Y11293428D01*
X41357142Y11460095D01*
X41261904Y11460095D01*
X39301904Y26475809D02*
X39301904Y26975809D01*
X39420952Y26975809D01*
X39492380Y26952000D01*
X39540000Y26904380D01*
X39563809Y26856761D01*
X39587619Y26761523D01*
X39587619Y26690095D01*
X39563809Y26594857D01*
X39540000Y26547238D01*
X39492380Y26499619D01*
X39420952Y26475809D01*
X39301904Y26475809D01*
X39801904Y26475809D02*
X39801904Y26975809D01*
X40016190Y26499619D02*
X40087619Y26475809D01*
X40206666Y26475809D01*
X40254285Y26499619D01*
X40278095Y26523428D01*
X40301904Y26571047D01*
X40301904Y26618666D01*
X40278095Y26666285D01*
X40254285Y26690095D01*
X40206666Y26713904D01*
X40111428Y26737714D01*
X40063809Y26761523D01*
X40040000Y26785333D01*
X40016190Y26832952D01*
X40016190Y26880571D01*
X40040000Y26928190D01*
X40063809Y26952000D01*
X40111428Y26975809D01*
X40230476Y26975809D01*
X40301904Y26952000D01*
X40516190Y26737714D02*
X40682857Y26737714D01*
X40754285Y26475809D02*
X40516190Y26475809D01*
X40516190Y26975809D01*
X40754285Y26975809D01*
X40968571Y26475809D02*
X40968571Y26975809D01*
X41254285Y26475809D01*
X41254285Y26975809D01*
X41492380Y26475809D02*
X41492380Y26975809D01*
X41778095Y26475809D01*
X41778095Y26975809D01*
X6753809Y16365809D02*
X6753809Y16865809D01*
X6968095Y16389619D02*
X7039523Y16365809D01*
X7158571Y16365809D01*
X7206190Y16389619D01*
X7230000Y16413428D01*
X7253809Y16461047D01*
X7253809Y16508666D01*
X7230000Y16556285D01*
X7206190Y16580095D01*
X7158571Y16603904D01*
X7063333Y16627714D01*
X7015714Y16651523D01*
X6991904Y16675333D01*
X6968095Y16722952D01*
X6968095Y16770571D01*
X6991904Y16818190D01*
X7015714Y16842000D01*
X7063333Y16865809D01*
X7182380Y16865809D01*
X7253809Y16842000D01*
X7468095Y16627714D02*
X7634761Y16627714D01*
X7706190Y16365809D02*
X7468095Y16365809D01*
X7468095Y16865809D01*
X7706190Y16865809D01*
X7920476Y16365809D02*
X7920476Y16865809D01*
X8206190Y16365809D01*
X8206190Y16865809D01*
X8730000Y16413428D02*
X8706190Y16389619D01*
X8634761Y16365809D01*
X8587142Y16365809D01*
X8515714Y16389619D01*
X8468095Y16437238D01*
X8444285Y16484857D01*
X8420476Y16580095D01*
X8420476Y16651523D01*
X8444285Y16746761D01*
X8468095Y16794380D01*
X8515714Y16842000D01*
X8587142Y16865809D01*
X8634761Y16865809D01*
X8706190Y16842000D01*
X8730000Y16818190D01*
X46453809Y8808666D02*
X46691904Y8808666D01*
X46406190Y8665809D02*
X46572857Y9165809D01*
X46739523Y8665809D01*
X46906190Y8665809D02*
X46906190Y9165809D01*
X47120476Y8689619D02*
X47191904Y8665809D01*
X47310952Y8665809D01*
X47358571Y8689619D01*
X47382380Y8713428D01*
X47406190Y8761047D01*
X47406190Y8808666D01*
X47382380Y8856285D01*
X47358571Y8880095D01*
X47310952Y8903904D01*
X47215714Y8927714D01*
X47168095Y8951523D01*
X47144285Y8975333D01*
X47120476Y9022952D01*
X47120476Y9070571D01*
X47144285Y9118190D01*
X47168095Y9142000D01*
X47215714Y9165809D01*
X47334761Y9165809D01*
X47406190Y9142000D01*
X47620476Y8927714D02*
X47787142Y8927714D01*
X47858571Y8665809D02*
X47620476Y8665809D01*
X47620476Y9165809D01*
X47858571Y9165809D01*
X48072857Y8665809D02*
X48072857Y9165809D01*
X48358571Y8665809D01*
X48358571Y9165809D01*
X48596666Y8665809D02*
X48596666Y9165809D01*
X48882380Y8665809D01*
X48882380Y9165809D01*
X23102023Y894809D02*
X23102023Y1394809D01*
X23221071Y1394809D01*
X23292500Y1371000D01*
X23340119Y1323380D01*
X23363928Y1275761D01*
X23387738Y1180523D01*
X23387738Y1109095D01*
X23363928Y1013857D01*
X23340119Y966238D01*
X23292500Y918619D01*
X23221071Y894809D01*
X23102023Y894809D01*
X23792500Y918619D02*
X23744880Y894809D01*
X23649642Y894809D01*
X23602023Y918619D01*
X23578214Y966238D01*
X23578214Y1156714D01*
X23602023Y1204333D01*
X23649642Y1228142D01*
X23744880Y1228142D01*
X23792500Y1204333D01*
X23816309Y1156714D01*
X23816309Y1109095D01*
X23578214Y1061476D01*
X24006785Y918619D02*
X24054404Y894809D01*
X24149642Y894809D01*
X24197261Y918619D01*
X24221071Y966238D01*
X24221071Y990047D01*
X24197261Y1037666D01*
X24149642Y1061476D01*
X24078214Y1061476D01*
X24030595Y1085285D01*
X24006785Y1132904D01*
X24006785Y1156714D01*
X24030595Y1204333D01*
X24078214Y1228142D01*
X24149642Y1228142D01*
X24197261Y1204333D01*
X24435357Y894809D02*
X24435357Y1228142D01*
X24435357Y1394809D02*
X24411547Y1371000D01*
X24435357Y1347190D01*
X24459166Y1371000D01*
X24435357Y1394809D01*
X24435357Y1347190D01*
X24887738Y1228142D02*
X24887738Y823380D01*
X24863928Y775761D01*
X24840119Y751952D01*
X24792500Y728142D01*
X24721071Y728142D01*
X24673452Y751952D01*
X24887738Y918619D02*
X24840119Y894809D01*
X24744880Y894809D01*
X24697261Y918619D01*
X24673452Y942428D01*
X24649642Y990047D01*
X24649642Y1132904D01*
X24673452Y1180523D01*
X24697261Y1204333D01*
X24744880Y1228142D01*
X24840119Y1228142D01*
X24887738Y1204333D01*
X25125833Y1228142D02*
X25125833Y894809D01*
X25125833Y1180523D02*
X25149642Y1204333D01*
X25197261Y1228142D01*
X25268690Y1228142D01*
X25316309Y1204333D01*
X25340119Y1156714D01*
X25340119Y894809D01*
X25768690Y918619D02*
X25721071Y894809D01*
X25625833Y894809D01*
X25578214Y918619D01*
X25554404Y966238D01*
X25554404Y1156714D01*
X25578214Y1204333D01*
X25625833Y1228142D01*
X25721071Y1228142D01*
X25768690Y1204333D01*
X25792500Y1156714D01*
X25792500Y1109095D01*
X25554404Y1061476D01*
X26221071Y894809D02*
X26221071Y1394809D01*
X26221071Y918619D02*
X26173452Y894809D01*
X26078214Y894809D01*
X26030595Y918619D01*
X26006785Y942428D01*
X25982976Y990047D01*
X25982976Y1132904D01*
X26006785Y1180523D01*
X26030595Y1204333D01*
X26078214Y1228142D01*
X26173452Y1228142D01*
X26221071Y1204333D01*
X27006785Y1156714D02*
X27078214Y1132904D01*
X27102023Y1109095D01*
X27125833Y1061476D01*
X27125833Y990047D01*
X27102023Y942428D01*
X27078214Y918619D01*
X27030595Y894809D01*
X26840119Y894809D01*
X26840119Y1394809D01*
X27006785Y1394809D01*
X27054404Y1371000D01*
X27078214Y1347190D01*
X27102023Y1299571D01*
X27102023Y1251952D01*
X27078214Y1204333D01*
X27054404Y1180523D01*
X27006785Y1156714D01*
X26840119Y1156714D01*
X27292500Y1228142D02*
X27411547Y894809D01*
X27530595Y1228142D02*
X27411547Y894809D01*
X27363928Y775761D01*
X27340119Y751952D01*
X27292500Y728142D01*
X40392857Y16373428D02*
X40369047Y16349619D01*
X40297619Y16325809D01*
X40250000Y16325809D01*
X40178571Y16349619D01*
X40130952Y16397238D01*
X40107142Y16444857D01*
X40083333Y16540095D01*
X40083333Y16611523D01*
X40107142Y16706761D01*
X40130952Y16754380D01*
X40178571Y16802000D01*
X40250000Y16825809D01*
X40297619Y16825809D01*
X40369047Y16802000D01*
X40392857Y16778190D01*
X40607142Y16325809D02*
X40607142Y16825809D01*
X40607142Y16587714D02*
X40892857Y16587714D01*
X40892857Y16325809D02*
X40892857Y16825809D01*
X41392857Y16802000D02*
X41345238Y16825809D01*
X41273809Y16825809D01*
X41202380Y16802000D01*
X41154761Y16754380D01*
X41130952Y16706761D01*
X41107142Y16611523D01*
X41107142Y16540095D01*
X41130952Y16444857D01*
X41154761Y16397238D01*
X41202380Y16349619D01*
X41273809Y16325809D01*
X41321428Y16325809D01*
X41392857Y16349619D01*
X41416666Y16373428D01*
X41416666Y16540095D01*
X41321428Y16540095D01*
X46707142Y23875809D02*
X46707142Y24375809D01*
X46826190Y24375809D01*
X46897619Y24352000D01*
X46945238Y24304380D01*
X46969047Y24256761D01*
X46992857Y24161523D01*
X46992857Y24090095D01*
X46969047Y23994857D01*
X46945238Y23947238D01*
X46897619Y23899619D01*
X46826190Y23875809D01*
X46707142Y23875809D01*
X47207142Y23875809D02*
X47207142Y24375809D01*
X47207142Y24137714D02*
X47492857Y24137714D01*
X47492857Y23875809D02*
X47492857Y24375809D01*
X47992857Y24352000D02*
X47945238Y24375809D01*
X47873809Y24375809D01*
X47802380Y24352000D01*
X47754761Y24304380D01*
X47730952Y24256761D01*
X47707142Y24161523D01*
X47707142Y24090095D01*
X47730952Y23994857D01*
X47754761Y23947238D01*
X47802380Y23899619D01*
X47873809Y23875809D01*
X47921428Y23875809D01*
X47992857Y23899619D01*
X48016666Y23923428D01*
X48016666Y24090095D01*
X47921428Y24090095D01*
X99047Y24073428D02*
X75238Y24049619D01*
X3809Y24025809D01*
X-43809Y24025809D01*
X-115238Y24049619D01*
X-162857Y24097238D01*
X-186666Y24144857D01*
X-210476Y24240095D01*
X-210476Y24311523D01*
X-186666Y24406761D01*
X-162857Y24454380D01*
X-115238Y24502000D01*
X-43809Y24525809D01*
X3809Y24525809D01*
X75238Y24502000D01*
X99047Y24478190D01*
X408571Y24525809D02*
X503809Y24525809D01*
X551428Y24502000D01*
X599047Y24454380D01*
X622857Y24359142D01*
X622857Y24192476D01*
X599047Y24097238D01*
X551428Y24049619D01*
X503809Y24025809D01*
X408571Y24025809D01*
X360952Y24049619D01*
X313333Y24097238D01*
X289523Y24192476D01*
X289523Y24359142D01*
X313333Y24454380D01*
X360952Y24502000D01*
X408571Y24525809D01*
X837142Y24025809D02*
X837142Y24525809D01*
X1003809Y24168666D01*
X1170476Y24525809D01*
X1170476Y24025809D01*
X1622857Y24359142D02*
X1622857Y24025809D01*
X1503809Y24549619D02*
X1384761Y24192476D01*
X1694285Y24192476D01*
X6556190Y11255809D02*
X6556190Y11755809D01*
X6794285Y11255809D02*
X6794285Y11755809D01*
X7080000Y11255809D01*
X7080000Y11755809D01*
X7484761Y11517714D02*
X7556190Y11493904D01*
X7580000Y11470095D01*
X7603809Y11422476D01*
X7603809Y11351047D01*
X7580000Y11303428D01*
X7556190Y11279619D01*
X7508571Y11255809D01*
X7318095Y11255809D01*
X7318095Y11755809D01*
X7484761Y11755809D01*
X7532380Y11732000D01*
X7556190Y11708190D01*
X7580000Y11660571D01*
X7580000Y11612952D01*
X7556190Y11565333D01*
X7532380Y11541523D01*
X7484761Y11517714D01*
X7318095Y11517714D01*
X7818095Y11255809D02*
X7818095Y11755809D01*
X7818095Y11517714D02*
X8103809Y11517714D01*
X8103809Y11255809D02*
X8103809Y11755809D01*
X-246190Y13865809D02*
X-246190Y14365809D01*
X-31904Y13889619D02*
X39523Y13865809D01*
X158571Y13865809D01*
X206190Y13889619D01*
X230000Y13913428D01*
X253809Y13961047D01*
X253809Y14008666D01*
X230000Y14056285D01*
X206190Y14080095D01*
X158571Y14103904D01*
X63333Y14127714D01*
X15714Y14151523D01*
X-8095Y14175333D01*
X-31904Y14222952D01*
X-31904Y14270571D01*
X-8095Y14318190D01*
X15714Y14342000D01*
X63333Y14365809D01*
X182380Y14365809D01*
X253809Y14342000D01*
X468095Y14127714D02*
X634761Y14127714D01*
X706190Y13865809D02*
X468095Y13865809D01*
X468095Y14365809D01*
X706190Y14365809D01*
X920476Y13865809D02*
X920476Y14365809D01*
X1206190Y13865809D01*
X1206190Y14365809D01*
X1444285Y13865809D02*
X1444285Y14365809D01*
X1563333Y14365809D01*
X1634761Y14342000D01*
X1682380Y14294380D01*
X1706190Y14246761D01*
X1730000Y14151523D01*
X1730000Y14080095D01*
X1706190Y13984857D01*
X1682380Y13937238D01*
X1634761Y13889619D01*
X1563333Y13865809D01*
X1444285Y13865809D01*
X46690476Y16547714D02*
X46761904Y16523904D01*
X46785714Y16500095D01*
X46809523Y16452476D01*
X46809523Y16381047D01*
X46785714Y16333428D01*
X46761904Y16309619D01*
X46714285Y16285809D01*
X46523809Y16285809D01*
X46523809Y16785809D01*
X46690476Y16785809D01*
X46738095Y16762000D01*
X46761904Y16738190D01*
X46785714Y16690571D01*
X46785714Y16642952D01*
X46761904Y16595333D01*
X46738095Y16571523D01*
X46690476Y16547714D01*
X46523809Y16547714D01*
X47023809Y16285809D02*
X47023809Y16785809D01*
X47238095Y16309619D02*
X47309523Y16285809D01*
X47428571Y16285809D01*
X47476190Y16309619D01*
X47500000Y16333428D01*
X47523809Y16381047D01*
X47523809Y16428666D01*
X47500000Y16476285D01*
X47476190Y16500095D01*
X47428571Y16523904D01*
X47333333Y16547714D01*
X47285714Y16571523D01*
X47261904Y16595333D01*
X47238095Y16642952D01*
X47238095Y16690571D01*
X47261904Y16738190D01*
X47285714Y16762000D01*
X47333333Y16785809D01*
X47452380Y16785809D01*
X47523809Y16762000D01*
X47738095Y16547714D02*
X47904761Y16547714D01*
X47976190Y16285809D02*
X47738095Y16285809D01*
X47738095Y16785809D01*
X47976190Y16785809D01*
X48190476Y16285809D02*
X48190476Y16785809D01*
X48476190Y16285809D01*
X48476190Y16785809D01*
X48714285Y16285809D02*
X48714285Y16785809D01*
X48904761Y16785809D01*
X48952380Y16762000D01*
X48976190Y16738190D01*
X49000000Y16690571D01*
X49000000Y16619142D01*
X48976190Y16571523D01*
X48952380Y16547714D01*
X48904761Y16523904D01*
X48714285Y16523904D01*
X46605238Y13987714D02*
X46676666Y13963904D01*
X46700476Y13940095D01*
X46724285Y13892476D01*
X46724285Y13821047D01*
X46700476Y13773428D01*
X46676666Y13749619D01*
X46629047Y13725809D01*
X46438571Y13725809D01*
X46438571Y14225809D01*
X46605238Y14225809D01*
X46652857Y14202000D01*
X46676666Y14178190D01*
X46700476Y14130571D01*
X46700476Y14082952D01*
X46676666Y14035333D01*
X46652857Y14011523D01*
X46605238Y13987714D01*
X46438571Y13987714D01*
X46867142Y14225809D02*
X47033809Y13725809D01*
X47200476Y14225809D01*
X47343333Y13749619D02*
X47414761Y13725809D01*
X47533809Y13725809D01*
X47581428Y13749619D01*
X47605238Y13773428D01*
X47629047Y13821047D01*
X47629047Y13868666D01*
X47605238Y13916285D01*
X47581428Y13940095D01*
X47533809Y13963904D01*
X47438571Y13987714D01*
X47390952Y14011523D01*
X47367142Y14035333D01*
X47343333Y14082952D01*
X47343333Y14130571D01*
X47367142Y14178190D01*
X47390952Y14202000D01*
X47438571Y14225809D01*
X47557619Y14225809D01*
X47629047Y14202000D01*
X47843333Y13987714D02*
X48010000Y13987714D01*
X48081428Y13725809D02*
X47843333Y13725809D01*
X47843333Y14225809D01*
X48081428Y14225809D01*
X48295714Y13725809D02*
X48295714Y14225809D01*
X48581428Y13725809D01*
X48581428Y14225809D01*
X39175714Y8878666D02*
X39413809Y8878666D01*
X39128095Y8735809D02*
X39294761Y9235809D01*
X39461428Y8735809D01*
X39628095Y8735809D02*
X39628095Y9235809D01*
X39842380Y8759619D02*
X39913809Y8735809D01*
X40032857Y8735809D01*
X40080476Y8759619D01*
X40104285Y8783428D01*
X40128095Y8831047D01*
X40128095Y8878666D01*
X40104285Y8926285D01*
X40080476Y8950095D01*
X40032857Y8973904D01*
X39937619Y8997714D01*
X39890000Y9021523D01*
X39866190Y9045333D01*
X39842380Y9092952D01*
X39842380Y9140571D01*
X39866190Y9188190D01*
X39890000Y9212000D01*
X39937619Y9235809D01*
X40056666Y9235809D01*
X40128095Y9212000D01*
X40342380Y8997714D02*
X40509047Y8997714D01*
X40580476Y8735809D02*
X40342380Y8735809D01*
X40342380Y9235809D01*
X40580476Y9235809D01*
X40794761Y8735809D02*
X40794761Y9235809D01*
X41080476Y8735809D01*
X41080476Y9235809D01*
X41318571Y8735809D02*
X41318571Y9235809D01*
X41509047Y9235809D01*
X41556666Y9212000D01*
X41580476Y9188190D01*
X41604285Y9140571D01*
X41604285Y9069142D01*
X41580476Y9021523D01*
X41556666Y8997714D01*
X41509047Y8973904D01*
X41318571Y8973904D01*
X47040476Y31495809D02*
X46873809Y31733904D01*
X46754761Y31495809D02*
X46754761Y31995809D01*
X46945238Y31995809D01*
X46992857Y31972000D01*
X47016666Y31948190D01*
X47040476Y31900571D01*
X47040476Y31829142D01*
X47016666Y31781523D01*
X46992857Y31757714D01*
X46945238Y31733904D01*
X46754761Y31733904D01*
X47254761Y31757714D02*
X47421428Y31757714D01*
X47492857Y31495809D02*
X47254761Y31495809D01*
X47254761Y31995809D01*
X47492857Y31995809D01*
X47683333Y31519619D02*
X47754761Y31495809D01*
X47873809Y31495809D01*
X47921428Y31519619D01*
X47945238Y31543428D01*
X47969047Y31591047D01*
X47969047Y31638666D01*
X47945238Y31686285D01*
X47921428Y31710095D01*
X47873809Y31733904D01*
X47778571Y31757714D01*
X47730952Y31781523D01*
X47707142Y31805333D01*
X47683333Y31852952D01*
X47683333Y31900571D01*
X47707142Y31948190D01*
X47730952Y31972000D01*
X47778571Y31995809D01*
X47897619Y31995809D01*
X47969047Y31972000D01*
X46873809Y11437714D02*
X46945238Y11413904D01*
X46969047Y11390095D01*
X46992857Y11342476D01*
X46992857Y11271047D01*
X46969047Y11223428D01*
X46945238Y11199619D01*
X46897619Y11175809D01*
X46707142Y11175809D01*
X46707142Y11675809D01*
X46873809Y11675809D01*
X46921428Y11652000D01*
X46945238Y11628190D01*
X46969047Y11580571D01*
X46969047Y11532952D01*
X46945238Y11485333D01*
X46921428Y11461523D01*
X46873809Y11437714D01*
X46707142Y11437714D01*
X47207142Y11175809D02*
X47207142Y11675809D01*
X47207142Y11437714D02*
X47492857Y11437714D01*
X47492857Y11175809D02*
X47492857Y11675809D01*
X47992857Y11652000D02*
X47945238Y11675809D01*
X47873809Y11675809D01*
X47802380Y11652000D01*
X47754761Y11604380D01*
X47730952Y11556761D01*
X47707142Y11461523D01*
X47707142Y11390095D01*
X47730952Y11294857D01*
X47754761Y11247238D01*
X47802380Y11199619D01*
X47873809Y11175809D01*
X47921428Y11175809D01*
X47992857Y11199619D01*
X48016666Y11223428D01*
X48016666Y11390095D01*
X47921428Y11390095D01*
X15714Y3705809D02*
X15714Y4205809D01*
X253809Y3705809D02*
X253809Y4205809D01*
X539523Y3705809D01*
X539523Y4205809D01*
X777619Y3705809D02*
X777619Y4205809D01*
X896666Y4205809D01*
X968095Y4182000D01*
X1015714Y4134380D01*
X1039523Y4086761D01*
X1063333Y3991523D01*
X1063333Y3920095D01*
X1039523Y3824857D01*
X1015714Y3777238D01*
X968095Y3729619D01*
X896666Y3705809D01*
X777619Y3705809D01*
X1515714Y3705809D02*
X1277619Y3705809D01*
X1277619Y4205809D01*
X15714Y8785809D02*
X15714Y9285809D01*
X253809Y8785809D02*
X253809Y9285809D01*
X539523Y8785809D01*
X539523Y9285809D01*
X944285Y9047714D02*
X1015714Y9023904D01*
X1039523Y9000095D01*
X1063333Y8952476D01*
X1063333Y8881047D01*
X1039523Y8833428D01*
X1015714Y8809619D01*
X968095Y8785809D01*
X777619Y8785809D01*
X777619Y9285809D01*
X944285Y9285809D01*
X991904Y9262000D01*
X1015714Y9238190D01*
X1039523Y9190571D01*
X1039523Y9142952D01*
X1015714Y9095333D01*
X991904Y9071523D01*
X944285Y9047714D01*
X777619Y9047714D01*
X1515714Y8785809D02*
X1277619Y8785809D01*
X1277619Y9285809D01*
X6556190Y8715809D02*
X6556190Y9215809D01*
X6794285Y8715809D02*
X6794285Y9215809D01*
X7080000Y8715809D01*
X7080000Y9215809D01*
X7603809Y8763428D02*
X7580000Y8739619D01*
X7508571Y8715809D01*
X7460952Y8715809D01*
X7389523Y8739619D01*
X7341904Y8787238D01*
X7318095Y8834857D01*
X7294285Y8930095D01*
X7294285Y9001523D01*
X7318095Y9096761D01*
X7341904Y9144380D01*
X7389523Y9192000D01*
X7460952Y9215809D01*
X7508571Y9215809D01*
X7580000Y9192000D01*
X7603809Y9168190D01*
X7818095Y8715809D02*
X7818095Y9215809D01*
X7818095Y8977714D02*
X8103809Y8977714D01*
X8103809Y8715809D02*
X8103809Y9215809D01*
X46647619Y21433428D02*
X46623809Y21409619D01*
X46552380Y21385809D01*
X46504761Y21385809D01*
X46433333Y21409619D01*
X46385714Y21457238D01*
X46361904Y21504857D01*
X46338095Y21600095D01*
X46338095Y21671523D01*
X46361904Y21766761D01*
X46385714Y21814380D01*
X46433333Y21862000D01*
X46504761Y21885809D01*
X46552380Y21885809D01*
X46623809Y21862000D01*
X46647619Y21838190D01*
X46861904Y21385809D02*
X46861904Y21885809D01*
X47076190Y21409619D02*
X47147619Y21385809D01*
X47266666Y21385809D01*
X47314285Y21409619D01*
X47338095Y21433428D01*
X47361904Y21481047D01*
X47361904Y21528666D01*
X47338095Y21576285D01*
X47314285Y21600095D01*
X47266666Y21623904D01*
X47171428Y21647714D01*
X47123809Y21671523D01*
X47100000Y21695333D01*
X47076190Y21742952D01*
X47076190Y21790571D01*
X47100000Y21838190D01*
X47123809Y21862000D01*
X47171428Y21885809D01*
X47290476Y21885809D01*
X47361904Y21862000D01*
X47576190Y21647714D02*
X47742857Y21647714D01*
X47814285Y21385809D02*
X47576190Y21385809D01*
X47576190Y21885809D01*
X47814285Y21885809D01*
X48028571Y21385809D02*
X48028571Y21885809D01*
X48314285Y21385809D01*
X48314285Y21885809D01*
X48552380Y21385809D02*
X48552380Y21885809D01*
X48838095Y21385809D01*
X48838095Y21885809D01*
X23078213Y199416D02*
X23316309Y199416D01*
X23030594Y56559D02*
X23197261Y556559D01*
X23363928Y56559D01*
X23602023Y56559D02*
X23554404Y80369D01*
X23530594Y127988D01*
X23530594Y556559D01*
X23792499Y389892D02*
X23792499Y-110107D01*
X23792499Y366083D02*
X23840118Y389892D01*
X23935356Y389892D01*
X23982975Y366083D01*
X24006785Y342273D01*
X24030594Y294654D01*
X24030594Y151797D01*
X24006785Y104178D01*
X23982975Y80369D01*
X23935356Y56559D01*
X23840118Y56559D01*
X23792499Y80369D01*
X24435356Y80369D02*
X24387737Y56559D01*
X24292499Y56559D01*
X24244880Y80369D01*
X24221071Y127988D01*
X24221071Y318464D01*
X24244880Y366083D01*
X24292499Y389892D01*
X24387737Y389892D01*
X24435356Y366083D01*
X24459166Y318464D01*
X24459166Y270845D01*
X24221071Y223226D01*
X24673452Y56559D02*
X24673452Y389892D01*
X24673452Y294654D02*
X24697261Y342273D01*
X24721071Y366083D01*
X24768690Y389892D01*
X24816309Y389892D01*
X25530594Y318464D02*
X25602023Y294654D01*
X25625833Y270845D01*
X25649642Y223226D01*
X25649642Y151797D01*
X25625833Y104178D01*
X25602023Y80369D01*
X25554404Y56559D01*
X25363928Y56559D01*
X25363928Y556559D01*
X25530594Y556559D01*
X25578213Y532750D01*
X25602023Y508940D01*
X25625833Y461321D01*
X25625833Y413702D01*
X25602023Y366083D01*
X25578213Y342273D01*
X25530594Y318464D01*
X25363928Y318464D01*
X26078213Y56559D02*
X26078213Y318464D01*
X26054404Y366083D01*
X26006785Y389892D01*
X25911547Y389892D01*
X25863928Y366083D01*
X26078213Y80369D02*
X26030594Y56559D01*
X25911547Y56559D01*
X25863928Y80369D01*
X25840118Y127988D01*
X25840118Y175607D01*
X25863928Y223226D01*
X25911547Y247035D01*
X26030594Y247035D01*
X26078213Y270845D01*
X26292499Y80369D02*
X26340118Y56559D01*
X26435356Y56559D01*
X26482975Y80369D01*
X26506785Y127988D01*
X26506785Y151797D01*
X26482975Y199416D01*
X26435356Y223226D01*
X26363928Y223226D01*
X26316309Y247035D01*
X26292499Y294654D01*
X26292499Y318464D01*
X26316309Y366083D01*
X26363928Y389892D01*
X26435356Y389892D01*
X26482975Y366083D01*
X26935356Y56559D02*
X26935356Y318464D01*
X26911547Y366083D01*
X26863928Y389892D01*
X26768690Y389892D01*
X26721071Y366083D01*
X26935356Y80369D02*
X26887737Y56559D01*
X26768690Y56559D01*
X26721071Y80369D01*
X26697261Y127988D01*
X26697261Y175607D01*
X26721071Y223226D01*
X26768690Y247035D01*
X26887737Y247035D01*
X26935356Y270845D01*
X27173452Y56559D02*
X27173452Y389892D01*
X27173452Y294654D02*
X27197261Y342273D01*
X27221071Y366083D01*
X27268690Y389892D01*
X27316309Y389892D01*
X27697261Y56559D02*
X27697261Y318464D01*
X27673452Y366083D01*
X27625833Y389892D01*
X27530594Y389892D01*
X27482975Y366083D01*
X27697261Y80369D02*
X27649642Y56559D01*
X27530594Y56559D01*
X27482975Y80369D01*
X27459166Y127988D01*
X27459166Y175607D01*
X27482975Y223226D01*
X27530594Y247035D01*
X27649642Y247035D01*
X27697261Y270845D01*
X27935356Y389892D02*
X27935356Y56559D01*
X27935356Y342273D02*
X27959166Y366083D01*
X28006785Y389892D01*
X28078213Y389892D01*
X28125833Y366083D01*
X28149642Y318464D01*
X28149642Y56559D01*
X40440476Y29025809D02*
X40273809Y29263904D01*
X40154761Y29025809D02*
X40154761Y29525809D01*
X40345238Y29525809D01*
X40392857Y29502000D01*
X40416666Y29478190D01*
X40440476Y29430571D01*
X40440476Y29359142D01*
X40416666Y29311523D01*
X40392857Y29287714D01*
X40345238Y29263904D01*
X40154761Y29263904D01*
X40654761Y29287714D02*
X40821428Y29287714D01*
X40892857Y29025809D02*
X40654761Y29025809D01*
X40654761Y29525809D01*
X40892857Y29525809D01*
X41083333Y29049619D02*
X41154761Y29025809D01*
X41273809Y29025809D01*
X41321428Y29049619D01*
X41345238Y29073428D01*
X41369047Y29121047D01*
X41369047Y29168666D01*
X41345238Y29216285D01*
X41321428Y29240095D01*
X41273809Y29263904D01*
X41178571Y29287714D01*
X41130952Y29311523D01*
X41107142Y29335333D01*
X41083333Y29382952D01*
X41083333Y29430571D01*
X41107142Y29478190D01*
X41130952Y29502000D01*
X41178571Y29525809D01*
X41297619Y29525809D01*
X41369047Y29502000D01*
X6426190Y6245809D02*
X6426190Y6745809D01*
X6664285Y6245809D02*
X6664285Y6745809D01*
X6950000Y6245809D01*
X6950000Y6745809D01*
X7188095Y6245809D02*
X7188095Y6745809D01*
X7307142Y6745809D01*
X7378571Y6722000D01*
X7426190Y6674380D01*
X7450000Y6626761D01*
X7473809Y6531523D01*
X7473809Y6460095D01*
X7450000Y6364857D01*
X7426190Y6317238D01*
X7378571Y6269619D01*
X7307142Y6245809D01*
X7188095Y6245809D01*
X7688095Y6245809D02*
X7688095Y6745809D01*
X7688095Y6507714D02*
X7973809Y6507714D01*
X7973809Y6245809D02*
X7973809Y6745809D01*
X40166666Y23945809D02*
X40166666Y24445809D01*
X40285714Y24445809D01*
X40357142Y24422000D01*
X40404761Y24374380D01*
X40428571Y24326761D01*
X40452380Y24231523D01*
X40452380Y24160095D01*
X40428571Y24064857D01*
X40404761Y24017238D01*
X40357142Y23969619D01*
X40285714Y23945809D01*
X40166666Y23945809D01*
X40904761Y23945809D02*
X40666666Y23945809D01*
X40666666Y24445809D01*
X41333333Y24422000D02*
X41285714Y24445809D01*
X41214285Y24445809D01*
X41142857Y24422000D01*
X41095238Y24374380D01*
X41071428Y24326761D01*
X41047619Y24231523D01*
X41047619Y24160095D01*
X41071428Y24064857D01*
X41095238Y24017238D01*
X41142857Y23969619D01*
X41214285Y23945809D01*
X41261904Y23945809D01*
X41333333Y23969619D01*
X41357142Y23993428D01*
X41357142Y24160095D01*
X41261904Y24160095D01*
X47362380Y18743428D02*
X47338571Y18719619D01*
X47267142Y18695809D01*
X47219523Y18695809D01*
X47148095Y18719619D01*
X47100476Y18767238D01*
X47076666Y18814857D01*
X47052857Y18910095D01*
X47052857Y18981523D01*
X47076666Y19076761D01*
X47100476Y19124380D01*
X47148095Y19172000D01*
X47219523Y19195809D01*
X47267142Y19195809D01*
X47338571Y19172000D01*
X47362380Y19148190D01*
X47814761Y18695809D02*
X47576666Y18695809D01*
X47576666Y19195809D01*
X48243333Y19172000D02*
X48195714Y19195809D01*
X48124285Y19195809D01*
X48052857Y19172000D01*
X48005238Y19124380D01*
X47981428Y19076761D01*
X47957619Y18981523D01*
X47957619Y18910095D01*
X47981428Y18814857D01*
X48005238Y18767238D01*
X48052857Y18719619D01*
X48124285Y18695809D01*
X48171904Y18695809D01*
X48243333Y18719619D01*
X48267142Y18743428D01*
X48267142Y18910095D01*
X48171904Y18910095D01*
X51428Y11325809D02*
X51428Y11825809D01*
X289523Y11325809D02*
X289523Y11825809D01*
X575238Y11325809D01*
X575238Y11825809D01*
X789523Y11468666D02*
X1027619Y11468666D01*
X741904Y11325809D02*
X908571Y11825809D01*
X1075238Y11325809D01*
X1479999Y11325809D02*
X1241904Y11325809D01*
X1241904Y11825809D01*
X6591904Y13795809D02*
X6591904Y14295809D01*
X6830000Y13795809D02*
X6830000Y14295809D01*
X7115714Y13795809D01*
X7115714Y14295809D01*
X7330000Y13938666D02*
X7568095Y13938666D01*
X7282380Y13795809D02*
X7449047Y14295809D01*
X7615714Y13795809D01*
X7782380Y13795809D02*
X7782380Y14295809D01*
X7782380Y14057714D02*
X8068095Y14057714D01*
X8068095Y13795809D02*
X8068095Y14295809D01*
X-246190Y16405809D02*
X-246190Y16905809D01*
X-31904Y16429619D02*
X39523Y16405809D01*
X158571Y16405809D01*
X206190Y16429619D01*
X230000Y16453428D01*
X253809Y16501047D01*
X253809Y16548666D01*
X230000Y16596285D01*
X206190Y16620095D01*
X158571Y16643904D01*
X63333Y16667714D01*
X15714Y16691523D01*
X-8095Y16715333D01*
X-31904Y16762952D01*
X-31904Y16810571D01*
X-8095Y16858190D01*
X15714Y16882000D01*
X63333Y16905809D01*
X182380Y16905809D01*
X253809Y16882000D01*
X468095Y16667714D02*
X634761Y16667714D01*
X706190Y16405809D02*
X468095Y16405809D01*
X468095Y16905809D01*
X706190Y16905809D01*
X920476Y16405809D02*
X920476Y16905809D01*
X1206190Y16405809D01*
X1206190Y16905809D01*
X1610952Y16667714D02*
X1682380Y16643904D01*
X1706190Y16620095D01*
X1730000Y16572476D01*
X1730000Y16501047D01*
X1706190Y16453428D01*
X1682380Y16429619D01*
X1634761Y16405809D01*
X1444285Y16405809D01*
X1444285Y16905809D01*
X1610952Y16905809D01*
X1658571Y16882000D01*
X1682380Y16858190D01*
X1706190Y16810571D01*
X1706190Y16762952D01*
X1682380Y16715333D01*
X1658571Y16691523D01*
X1610952Y16667714D01*
X1444285Y16667714D01*
X6699523Y18775809D02*
X6699523Y19275809D01*
X6913809Y18799619D02*
X6985238Y18775809D01*
X7104285Y18775809D01*
X7151904Y18799619D01*
X7175714Y18823428D01*
X7199523Y18871047D01*
X7199523Y18918666D01*
X7175714Y18966285D01*
X7151904Y18990095D01*
X7104285Y19013904D01*
X7009047Y19037714D01*
X6961428Y19061523D01*
X6937619Y19085333D01*
X6913809Y19132952D01*
X6913809Y19180571D01*
X6937619Y19228190D01*
X6961428Y19252000D01*
X7009047Y19275809D01*
X7128095Y19275809D01*
X7199523Y19252000D01*
X7413809Y19037714D02*
X7580476Y19037714D01*
X7651904Y18775809D02*
X7413809Y18775809D01*
X7413809Y19275809D01*
X7651904Y19275809D01*
X7866190Y18775809D02*
X7866190Y19275809D01*
X8151904Y18775809D01*
X8151904Y19275809D01*
X8366190Y18918666D02*
X8604285Y18918666D01*
X8318571Y18775809D02*
X8485238Y19275809D01*
X8651904Y18775809D01*
X6830000Y21415809D02*
X6830000Y21915809D01*
X7163333Y21915809D02*
X7258571Y21915809D01*
X7306190Y21892000D01*
X7353809Y21844380D01*
X7377619Y21749142D01*
X7377619Y21582476D01*
X7353809Y21487238D01*
X7306190Y21439619D01*
X7258571Y21415809D01*
X7163333Y21415809D01*
X7115714Y21439619D01*
X7068095Y21487238D01*
X7044285Y21582476D01*
X7044285Y21749142D01*
X7068095Y21844380D01*
X7115714Y21892000D01*
X7163333Y21915809D01*
X7544285Y21915809D02*
X7853809Y21915809D01*
X7687142Y21725333D01*
X7758571Y21725333D01*
X7806190Y21701523D01*
X7830000Y21677714D01*
X7853809Y21630095D01*
X7853809Y21511047D01*
X7830000Y21463428D01*
X7806190Y21439619D01*
X7758571Y21415809D01*
X7615714Y21415809D01*
X7568095Y21439619D01*
X7544285Y21463428D01*
X230000Y21485809D02*
X230000Y21985809D01*
X563333Y21985809D02*
X658571Y21985809D01*
X706190Y21962000D01*
X753809Y21914380D01*
X777619Y21819142D01*
X777619Y21652476D01*
X753809Y21557238D01*
X706190Y21509619D01*
X658571Y21485809D01*
X563333Y21485809D01*
X515714Y21509619D01*
X468095Y21557238D01*
X444285Y21652476D01*
X444285Y21819142D01*
X468095Y21914380D01*
X515714Y21962000D01*
X563333Y21985809D01*
X968095Y21938190D02*
X991904Y21962000D01*
X1039523Y21985809D01*
X1158571Y21985809D01*
X1206190Y21962000D01*
X1230000Y21938190D01*
X1253809Y21890571D01*
X1253809Y21842952D01*
X1230000Y21771523D01*
X944285Y21485809D01*
X1253809Y21485809D01*
X6830000Y23955809D02*
X6830000Y24455809D01*
X7163333Y24455809D02*
X7258571Y24455809D01*
X7306190Y24432000D01*
X7353809Y24384380D01*
X7377619Y24289142D01*
X7377619Y24122476D01*
X7353809Y24027238D01*
X7306190Y23979619D01*
X7258571Y23955809D01*
X7163333Y23955809D01*
X7115714Y23979619D01*
X7068095Y24027238D01*
X7044285Y24122476D01*
X7044285Y24289142D01*
X7068095Y24384380D01*
X7115714Y24432000D01*
X7163333Y24455809D01*
X7853809Y23955809D02*
X7568095Y23955809D01*
X7710952Y23955809D02*
X7710952Y24455809D01*
X7663333Y24384380D01*
X7615714Y24336761D01*
X7568095Y24312952D01*
X6699047Y26543428D02*
X6675238Y26519619D01*
X6603809Y26495809D01*
X6556190Y26495809D01*
X6484761Y26519619D01*
X6437142Y26567238D01*
X6413333Y26614857D01*
X6389523Y26710095D01*
X6389523Y26781523D01*
X6413333Y26876761D01*
X6437142Y26924380D01*
X6484761Y26972000D01*
X6556190Y26995809D01*
X6603809Y26995809D01*
X6675238Y26972000D01*
X6699047Y26948190D01*
X7008571Y26995809D02*
X7103809Y26995809D01*
X7151428Y26972000D01*
X7199047Y26924380D01*
X7222857Y26829142D01*
X7222857Y26662476D01*
X7199047Y26567238D01*
X7151428Y26519619D01*
X7103809Y26495809D01*
X7008571Y26495809D01*
X6960952Y26519619D01*
X6913333Y26567238D01*
X6889523Y26662476D01*
X6889523Y26829142D01*
X6913333Y26924380D01*
X6960952Y26972000D01*
X7008571Y26995809D01*
X7437142Y26495809D02*
X7437142Y26995809D01*
X7603809Y26638666D01*
X7770476Y26995809D01*
X7770476Y26495809D01*
X7960952Y26995809D02*
X8270476Y26995809D01*
X8103809Y26805333D01*
X8175238Y26805333D01*
X8222857Y26781523D01*
X8246666Y26757714D01*
X8270476Y26710095D01*
X8270476Y26591047D01*
X8246666Y26543428D01*
X8222857Y26519619D01*
X8175238Y26495809D01*
X8032380Y26495809D01*
X7984761Y26519619D01*
X7960952Y26543428D01*
X99047Y26613428D02*
X75238Y26589619D01*
X3809Y26565809D01*
X-43809Y26565809D01*
X-115238Y26589619D01*
X-162857Y26637238D01*
X-186666Y26684857D01*
X-210476Y26780095D01*
X-210476Y26851523D01*
X-186666Y26946761D01*
X-162857Y26994380D01*
X-115238Y27042000D01*
X-43809Y27065809D01*
X3809Y27065809D01*
X75238Y27042000D01*
X99047Y27018190D01*
X408571Y27065809D02*
X503809Y27065809D01*
X551428Y27042000D01*
X599047Y26994380D01*
X622857Y26899142D01*
X622857Y26732476D01*
X599047Y26637238D01*
X551428Y26589619D01*
X503809Y26565809D01*
X408571Y26565809D01*
X360952Y26589619D01*
X313333Y26637238D01*
X289523Y26732476D01*
X289523Y26899142D01*
X313333Y26994380D01*
X360952Y27042000D01*
X408571Y27065809D01*
X837142Y26565809D02*
X837142Y27065809D01*
X1003809Y26708666D01*
X1170476Y27065809D01*
X1170476Y26565809D01*
X1384761Y27018190D02*
X1408571Y27042000D01*
X1456190Y27065809D01*
X1575238Y27065809D01*
X1622857Y27042000D01*
X1646666Y27018190D01*
X1670476Y26970571D01*
X1670476Y26922952D01*
X1646666Y26851523D01*
X1360952Y26565809D01*
X1670476Y26565809D01*
X46278571Y26415809D02*
X46278571Y26915809D01*
X46397619Y26915809D01*
X46469047Y26892000D01*
X46516666Y26844380D01*
X46540476Y26796761D01*
X46564285Y26701523D01*
X46564285Y26630095D01*
X46540476Y26534857D01*
X46516666Y26487238D01*
X46469047Y26439619D01*
X46397619Y26415809D01*
X46278571Y26415809D01*
X46707142Y26915809D02*
X46873809Y26415809D01*
X47040476Y26915809D01*
X47183333Y26439619D02*
X47254761Y26415809D01*
X47373809Y26415809D01*
X47421428Y26439619D01*
X47445238Y26463428D01*
X47469047Y26511047D01*
X47469047Y26558666D01*
X47445238Y26606285D01*
X47421428Y26630095D01*
X47373809Y26653904D01*
X47278571Y26677714D01*
X47230952Y26701523D01*
X47207142Y26725333D01*
X47183333Y26772952D01*
X47183333Y26820571D01*
X47207142Y26868190D01*
X47230952Y26892000D01*
X47278571Y26915809D01*
X47397619Y26915809D01*
X47469047Y26892000D01*
X47683333Y26677714D02*
X47850000Y26677714D01*
X47921428Y26415809D02*
X47683333Y26415809D01*
X47683333Y26915809D01*
X47921428Y26915809D01*
X48135714Y26415809D02*
X48135714Y26915809D01*
X48421428Y26415809D01*
X48421428Y26915809D01*
X6699047Y29083428D02*
X6675238Y29059619D01*
X6603809Y29035809D01*
X6556190Y29035809D01*
X6484761Y29059619D01*
X6437142Y29107238D01*
X6413333Y29154857D01*
X6389523Y29250095D01*
X6389523Y29321523D01*
X6413333Y29416761D01*
X6437142Y29464380D01*
X6484761Y29512000D01*
X6556190Y29535809D01*
X6603809Y29535809D01*
X6675238Y29512000D01*
X6699047Y29488190D01*
X7008571Y29535809D02*
X7103809Y29535809D01*
X7151428Y29512000D01*
X7199047Y29464380D01*
X7222857Y29369142D01*
X7222857Y29202476D01*
X7199047Y29107238D01*
X7151428Y29059619D01*
X7103809Y29035809D01*
X7008571Y29035809D01*
X6960952Y29059619D01*
X6913333Y29107238D01*
X6889523Y29202476D01*
X6889523Y29369142D01*
X6913333Y29464380D01*
X6960952Y29512000D01*
X7008571Y29535809D01*
X7437142Y29035809D02*
X7437142Y29535809D01*
X7603809Y29178666D01*
X7770476Y29535809D01*
X7770476Y29035809D01*
X8270476Y29035809D02*
X7984761Y29035809D01*
X8127619Y29035809D02*
X8127619Y29535809D01*
X8080000Y29464380D01*
X8032380Y29416761D01*
X7984761Y29392952D01*
X40119047Y3768666D02*
X40357142Y3768666D01*
X40071428Y3625809D02*
X40238095Y4125809D01*
X40404761Y3625809D01*
X40571428Y3625809D02*
X40571428Y4125809D01*
X40571428Y3887714D02*
X40857142Y3887714D01*
X40857142Y3625809D02*
X40857142Y4125809D01*
X41357142Y4102000D02*
X41309523Y4125809D01*
X41238095Y4125809D01*
X41166666Y4102000D01*
X41119047Y4054380D01*
X41095238Y4006761D01*
X41071428Y3911523D01*
X41071428Y3840095D01*
X41095238Y3744857D01*
X41119047Y3697238D01*
X41166666Y3649619D01*
X41238095Y3625809D01*
X41285714Y3625809D01*
X41357142Y3649619D01*
X41380952Y3673428D01*
X41380952Y3840095D01*
X41285714Y3840095D01*
X230000Y18945809D02*
X230000Y19445809D01*
X563333Y19445809D02*
X658571Y19445809D01*
X706190Y19422000D01*
X753809Y19374380D01*
X777619Y19279142D01*
X777619Y19112476D01*
X753809Y19017238D01*
X706190Y18969619D01*
X658571Y18945809D01*
X563333Y18945809D01*
X515714Y18969619D01*
X468095Y19017238D01*
X444285Y19112476D01*
X444285Y19279142D01*
X468095Y19374380D01*
X515714Y19422000D01*
X563333Y19445809D01*
X1206190Y19279142D02*
X1206190Y18945809D01*
X1087142Y19469619D02*
X968095Y19112476D01*
X1277619Y19112476D01*
X39964285Y18913428D02*
X39940476Y18889619D01*
X39869047Y18865809D01*
X39821428Y18865809D01*
X39750000Y18889619D01*
X39702380Y18937238D01*
X39678571Y18984857D01*
X39654761Y19080095D01*
X39654761Y19151523D01*
X39678571Y19246761D01*
X39702380Y19294380D01*
X39750000Y19342000D01*
X39821428Y19365809D01*
X39869047Y19365809D01*
X39940476Y19342000D01*
X39964285Y19318190D01*
X40107142Y19365809D02*
X40273809Y18865809D01*
X40440476Y19365809D01*
X40583333Y18889619D02*
X40654761Y18865809D01*
X40773809Y18865809D01*
X40821428Y18889619D01*
X40845238Y18913428D01*
X40869047Y18961047D01*
X40869047Y19008666D01*
X40845238Y19056285D01*
X40821428Y19080095D01*
X40773809Y19103904D01*
X40678571Y19127714D01*
X40630952Y19151523D01*
X40607142Y19175333D01*
X40583333Y19222952D01*
X40583333Y19270571D01*
X40607142Y19318190D01*
X40630952Y19342000D01*
X40678571Y19365809D01*
X40797619Y19365809D01*
X40869047Y19342000D01*
X41083333Y19127714D02*
X41250000Y19127714D01*
X41321428Y18865809D02*
X41083333Y18865809D01*
X41083333Y19365809D01*
X41321428Y19365809D01*
X41535714Y18865809D02*
X41535714Y19365809D01*
X41821428Y18865809D01*
X41821428Y19365809D01*
X15714Y6245809D02*
X15714Y6745809D01*
X253809Y6245809D02*
X253809Y6745809D01*
X539523Y6245809D01*
X539523Y6745809D01*
X1063333Y6293428D02*
X1039523Y6269619D01*
X968095Y6245809D01*
X920476Y6245809D01*
X849047Y6269619D01*
X801428Y6317238D01*
X777619Y6364857D01*
X753809Y6460095D01*
X753809Y6531523D01*
X777619Y6626761D01*
X801428Y6674380D01*
X849047Y6722000D01*
X920476Y6745809D01*
X968095Y6745809D01*
X1039523Y6722000D01*
X1063333Y6698190D01*
X1515714Y6245809D02*
X1277619Y6245809D01*
X1277619Y6745809D01*
X87142Y29367714D02*
X253809Y29367714D01*
X325238Y29105809D02*
X87142Y29105809D01*
X87142Y29605809D01*
X325238Y29605809D01*
X491904Y29605809D02*
X610952Y29105809D01*
X706190Y29462952D01*
X801428Y29105809D01*
X920476Y29605809D01*
X1110952Y29105809D02*
X1110952Y29605809D01*
X1301428Y29605809D01*
X1349047Y29582000D01*
X1372857Y29558190D01*
X1396666Y29510571D01*
X1396666Y29439142D01*
X1372857Y29391523D01*
X1349047Y29367714D01*
X1301428Y29343904D01*
X1110952Y29343904D01*
X-79523Y31907714D02*
X87142Y31907714D01*
X158571Y31645809D02*
X-79523Y31645809D01*
X-79523Y32145809D01*
X158571Y32145809D01*
X349047Y31669619D02*
X420476Y31645809D01*
X539523Y31645809D01*
X587142Y31669619D01*
X610952Y31693428D01*
X634761Y31741047D01*
X634761Y31788666D01*
X610952Y31836285D01*
X587142Y31860095D01*
X539523Y31883904D01*
X444285Y31907714D01*
X396666Y31931523D01*
X372857Y31955333D01*
X349047Y32002952D01*
X349047Y32050571D01*
X372857Y32098190D01*
X396666Y32122000D01*
X444285Y32145809D01*
X563333Y32145809D01*
X634761Y32122000D01*
X849047Y31645809D02*
X849047Y32145809D01*
X968095Y32145809D01*
X1039523Y32122000D01*
X1087142Y32074380D01*
X1110952Y32026761D01*
X1134761Y31931523D01*
X1134761Y31860095D01*
X1110952Y31764857D01*
X1087142Y31717238D01*
X1039523Y31669619D01*
X968095Y31645809D01*
X849047Y31645809D01*
X1325238Y31788666D02*
X1563333Y31788666D01*
X1277619Y31645809D02*
X1444285Y32145809D01*
X1610952Y31645809D01*
X39589523Y21523428D02*
X39565714Y21499619D01*
X39494285Y21475809D01*
X39446666Y21475809D01*
X39375238Y21499619D01*
X39327619Y21547238D01*
X39303809Y21594857D01*
X39280000Y21690095D01*
X39280000Y21761523D01*
X39303809Y21856761D01*
X39327619Y21904380D01*
X39375238Y21952000D01*
X39446666Y21975809D01*
X39494285Y21975809D01*
X39565714Y21952000D01*
X39589523Y21928190D01*
X39803809Y21475809D02*
X39803809Y21975809D01*
X40018095Y21499619D02*
X40089523Y21475809D01*
X40208571Y21475809D01*
X40256190Y21499619D01*
X40280000Y21523428D01*
X40303809Y21571047D01*
X40303809Y21618666D01*
X40280000Y21666285D01*
X40256190Y21690095D01*
X40208571Y21713904D01*
X40113333Y21737714D01*
X40065714Y21761523D01*
X40041904Y21785333D01*
X40018095Y21832952D01*
X40018095Y21880571D01*
X40041904Y21928190D01*
X40065714Y21952000D01*
X40113333Y21975809D01*
X40232380Y21975809D01*
X40303809Y21952000D01*
X40518095Y21737714D02*
X40684761Y21737714D01*
X40756190Y21475809D02*
X40518095Y21475809D01*
X40518095Y21975809D01*
X40756190Y21975809D01*
X40970476Y21475809D02*
X40970476Y21975809D01*
X41256190Y21475809D01*
X41256190Y21975809D01*
X41494285Y21475809D02*
X41494285Y21975809D01*
X41684761Y21975809D01*
X41732380Y21952000D01*
X41756190Y21928190D01*
X41780000Y21880571D01*
X41780000Y21809142D01*
X41756190Y21761523D01*
X41732380Y21737714D01*
X41684761Y21713904D01*
X41494285Y21713904D01*
X46648571Y6308666D02*
X46886666Y6308666D01*
X46600952Y6165809D02*
X46767619Y6665809D01*
X46934285Y6165809D01*
X47339047Y6165809D02*
X47100952Y6165809D01*
X47100952Y6665809D01*
X47767619Y6642000D02*
X47720000Y6665809D01*
X47648571Y6665809D01*
X47577142Y6642000D01*
X47529523Y6594380D01*
X47505714Y6546761D01*
X47481904Y6451523D01*
X47481904Y6380095D01*
X47505714Y6284857D01*
X47529523Y6237238D01*
X47577142Y6189619D01*
X47648571Y6165809D01*
X47696190Y6165809D01*
X47767619Y6189619D01*
X47791428Y6213428D01*
X47791428Y6380095D01*
X47696190Y6380095D01*
X46383809Y28955809D02*
X46383809Y29455809D01*
X46502857Y29455809D01*
X46574285Y29432000D01*
X46621904Y29384380D01*
X46645714Y29336761D01*
X46669523Y29241523D01*
X46669523Y29170095D01*
X46645714Y29074857D01*
X46621904Y29027238D01*
X46574285Y28979619D01*
X46502857Y28955809D01*
X46383809Y28955809D01*
X46883809Y28955809D02*
X46883809Y29455809D01*
X47098095Y28979619D02*
X47169523Y28955809D01*
X47288571Y28955809D01*
X47336190Y28979619D01*
X47360000Y29003428D01*
X47383809Y29051047D01*
X47383809Y29098666D01*
X47360000Y29146285D01*
X47336190Y29170095D01*
X47288571Y29193904D01*
X47193333Y29217714D01*
X47145714Y29241523D01*
X47121904Y29265333D01*
X47098095Y29312952D01*
X47098095Y29360571D01*
X47121904Y29408190D01*
X47145714Y29432000D01*
X47193333Y29455809D01*
X47312380Y29455809D01*
X47383809Y29432000D01*
X47598095Y29217714D02*
X47764761Y29217714D01*
X47836190Y28955809D02*
X47598095Y28955809D01*
X47598095Y29455809D01*
X47836190Y29455809D01*
X48050476Y28955809D02*
X48050476Y29455809D01*
X48336190Y28955809D01*
X48336190Y29455809D01*
X48574285Y28955809D02*
X48574285Y29455809D01*
X48764761Y29455809D01*
X48812380Y29432000D01*
X48836190Y29408190D01*
X48860000Y29360571D01*
X48860000Y29289142D01*
X48836190Y29241523D01*
X48812380Y29217714D01*
X48764761Y29193904D01*
X48574285Y29193904D01*
X39428571Y14077714D02*
X39500000Y14053904D01*
X39523809Y14030095D01*
X39547619Y13982476D01*
X39547619Y13911047D01*
X39523809Y13863428D01*
X39500000Y13839619D01*
X39452380Y13815809D01*
X39261904Y13815809D01*
X39261904Y14315809D01*
X39428571Y14315809D01*
X39476190Y14292000D01*
X39500000Y14268190D01*
X39523809Y14220571D01*
X39523809Y14172952D01*
X39500000Y14125333D01*
X39476190Y14101523D01*
X39428571Y14077714D01*
X39261904Y14077714D01*
X39761904Y13815809D02*
X39761904Y14315809D01*
X39976190Y13839619D02*
X40047619Y13815809D01*
X40166666Y13815809D01*
X40214285Y13839619D01*
X40238095Y13863428D01*
X40261904Y13911047D01*
X40261904Y13958666D01*
X40238095Y14006285D01*
X40214285Y14030095D01*
X40166666Y14053904D01*
X40071428Y14077714D01*
X40023809Y14101523D01*
X40000000Y14125333D01*
X39976190Y14172952D01*
X39976190Y14220571D01*
X40000000Y14268190D01*
X40023809Y14292000D01*
X40071428Y14315809D01*
X40190476Y14315809D01*
X40261904Y14292000D01*
X40476190Y14077714D02*
X40642857Y14077714D01*
X40714285Y13815809D02*
X40476190Y13815809D01*
X40476190Y14315809D01*
X40714285Y14315809D01*
X40928571Y13815809D02*
X40928571Y14315809D01*
X41214285Y13815809D01*
X41214285Y14315809D01*
X41452380Y13815809D02*
X41452380Y14315809D01*
X41738095Y13815809D01*
X41738095Y14315809D01*
X6830952Y4205809D02*
X6997619Y3705809D01*
X7164285Y4205809D01*
X7569047Y3705809D02*
X7330952Y3705809D01*
X7330952Y4205809D01*
X6532380Y31837714D02*
X6699047Y31837714D01*
X6770476Y31575809D02*
X6532380Y31575809D01*
X6532380Y32075809D01*
X6770476Y32075809D01*
X6960952Y31599619D02*
X7032380Y31575809D01*
X7151428Y31575809D01*
X7199047Y31599619D01*
X7222857Y31623428D01*
X7246666Y31671047D01*
X7246666Y31718666D01*
X7222857Y31766285D01*
X7199047Y31790095D01*
X7151428Y31813904D01*
X7056190Y31837714D01*
X7008571Y31861523D01*
X6984761Y31885333D01*
X6960952Y31932952D01*
X6960952Y31980571D01*
X6984761Y32028190D01*
X7008571Y32052000D01*
X7056190Y32075809D01*
X7175238Y32075809D01*
X7246666Y32052000D01*
X7746666Y31623428D02*
X7722857Y31599619D01*
X7651428Y31575809D01*
X7603809Y31575809D01*
X7532380Y31599619D01*
X7484761Y31647238D01*
X7460952Y31694857D01*
X7437142Y31790095D01*
X7437142Y31861523D01*
X7460952Y31956761D01*
X7484761Y32004380D01*
X7532380Y32052000D01*
X7603809Y32075809D01*
X7651428Y32075809D01*
X7722857Y32052000D01*
X7746666Y32028190D01*
X8199047Y31575809D02*
X7960952Y31575809D01*
X7960952Y32075809D01*
D12*
X12437142Y34855238D02*
X12580000Y34807619D01*
X12818095Y34807619D01*
X12913333Y34855238D01*
X12960952Y34902857D01*
X13008571Y34998095D01*
X13008571Y35093333D01*
X12960952Y35188571D01*
X12913333Y35236190D01*
X12818095Y35283809D01*
X12627619Y35331428D01*
X12532380Y35379047D01*
X12484761Y35426666D01*
X12437142Y35521904D01*
X12437142Y35617142D01*
X12484761Y35712380D01*
X12532380Y35760000D01*
X12627619Y35807619D01*
X12865714Y35807619D01*
X13008571Y35760000D01*
X13437142Y34807619D02*
X13437142Y35807619D01*
X13675238Y35807619D01*
X13818095Y35760000D01*
X13913333Y35664761D01*
X13960952Y35569523D01*
X14008571Y35379047D01*
X14008571Y35236190D01*
X13960952Y35045714D01*
X13913333Y34950476D01*
X13818095Y34855238D01*
X13675238Y34807619D01*
X13437142Y34807619D01*
X14437142Y34807619D02*
X14437142Y35474285D01*
X14437142Y35283809D02*
X14484761Y35379047D01*
X14532380Y35426666D01*
X14627619Y35474285D01*
X14722857Y35474285D01*
X15056190Y34807619D02*
X15056190Y35474285D01*
X15056190Y35807619D02*
X15008571Y35760000D01*
X15056190Y35712380D01*
X15103809Y35760000D01*
X15056190Y35807619D01*
X15056190Y35712380D01*
X15437142Y35474285D02*
X15675238Y34807619D01*
X15913333Y35474285D01*
X16675238Y34855238D02*
X16580000Y34807619D01*
X16389523Y34807619D01*
X16294285Y34855238D01*
X16246666Y34950476D01*
X16246666Y35331428D01*
X16294285Y35426666D01*
X16389523Y35474285D01*
X16580000Y35474285D01*
X16675238Y35426666D01*
X16722857Y35331428D01*
X16722857Y35236190D01*
X16246666Y35140952D01*
X18166190Y34947619D02*
X18166190Y35947619D01*
X18404285Y35947619D01*
X18547142Y35900000D01*
X18642380Y35804761D01*
X18690000Y35709523D01*
X18737619Y35519047D01*
X18737619Y35376190D01*
X18690000Y35185714D01*
X18642380Y35090476D01*
X18547142Y34995238D01*
X18404285Y34947619D01*
X18166190Y34947619D01*
X19166190Y34947619D02*
X19166190Y35614285D01*
X19166190Y35423809D02*
X19213809Y35519047D01*
X19261428Y35566666D01*
X19356666Y35614285D01*
X19451904Y35614285D01*
X19785238Y34947619D02*
X19785238Y35614285D01*
X19785238Y35947619D02*
X19737619Y35900000D01*
X19785238Y35852380D01*
X19832857Y35900000D01*
X19785238Y35947619D01*
X19785238Y35852380D01*
X20166190Y35614285D02*
X20404285Y34947619D01*
X20642380Y35614285D01*
X21404285Y34995238D02*
X21309047Y34947619D01*
X21118571Y34947619D01*
X21023333Y34995238D01*
X20975714Y35090476D01*
X20975714Y35471428D01*
X21023333Y35566666D01*
X21118571Y35614285D01*
X21309047Y35614285D01*
X21404285Y35566666D01*
X21451904Y35471428D01*
X21451904Y35376190D01*
X20975714Y35280952D01*
X22594761Y34995238D02*
X22737619Y34947619D01*
X22975714Y34947619D01*
X23070952Y34995238D01*
X23118571Y35042857D01*
X23166190Y35138095D01*
X23166190Y35233333D01*
X23118571Y35328571D01*
X23070952Y35376190D01*
X22975714Y35423809D01*
X22785238Y35471428D01*
X22690000Y35519047D01*
X22642380Y35566666D01*
X22594761Y35661904D01*
X22594761Y35757142D01*
X22642380Y35852380D01*
X22690000Y35900000D01*
X22785238Y35947619D01*
X23023333Y35947619D01*
X23166190Y35900000D01*
X23451904Y35614285D02*
X23832857Y35614285D01*
X23594761Y35947619D02*
X23594761Y35090476D01*
X23642380Y34995238D01*
X23737619Y34947619D01*
X23832857Y34947619D01*
X24594761Y34947619D02*
X24594761Y35471428D01*
X24547142Y35566666D01*
X24451904Y35614285D01*
X24261428Y35614285D01*
X24166190Y35566666D01*
X24594761Y34995238D02*
X24499523Y34947619D01*
X24261428Y34947619D01*
X24166190Y34995238D01*
X24118571Y35090476D01*
X24118571Y35185714D01*
X24166190Y35280952D01*
X24261428Y35328571D01*
X24499523Y35328571D01*
X24594761Y35376190D01*
X25499523Y35614285D02*
X25499523Y34804761D01*
X25451904Y34709523D01*
X25404285Y34661904D01*
X25309047Y34614285D01*
X25166190Y34614285D01*
X25070952Y34661904D01*
X25499523Y34995238D02*
X25404285Y34947619D01*
X25213809Y34947619D01*
X25118571Y34995238D01*
X25070952Y35042857D01*
X25023333Y35138095D01*
X25023333Y35423809D01*
X25070952Y35519047D01*
X25118571Y35566666D01*
X25213809Y35614285D01*
X25404285Y35614285D01*
X25499523Y35566666D01*
X26356666Y34995238D02*
X26261428Y34947619D01*
X26070952Y34947619D01*
X25975714Y34995238D01*
X25928095Y35090476D01*
X25928095Y35471428D01*
X25975714Y35566666D01*
X26070952Y35614285D01*
X26261428Y35614285D01*
X26356666Y35566666D01*
X26404285Y35471428D01*
X26404285Y35376190D01*
X25928095Y35280952D01*
X28166190Y35042857D02*
X28118571Y34995238D01*
X27975714Y34947619D01*
X27880476Y34947619D01*
X27737619Y34995238D01*
X27642380Y35090476D01*
X27594761Y35185714D01*
X27547142Y35376190D01*
X27547142Y35519047D01*
X27594761Y35709523D01*
X27642380Y35804761D01*
X27737619Y35900000D01*
X27880476Y35947619D01*
X27975714Y35947619D01*
X28118571Y35900000D01*
X28166190Y35852380D01*
X29023333Y34947619D02*
X29023333Y35471428D01*
X28975714Y35566666D01*
X28880476Y35614285D01*
X28690000Y35614285D01*
X28594761Y35566666D01*
X29023333Y34995238D02*
X28928095Y34947619D01*
X28690000Y34947619D01*
X28594761Y34995238D01*
X28547142Y35090476D01*
X28547142Y35185714D01*
X28594761Y35280952D01*
X28690000Y35328571D01*
X28928095Y35328571D01*
X29023333Y35376190D01*
X29499523Y34947619D02*
X29499523Y35614285D01*
X29499523Y35423809D02*
X29547142Y35519047D01*
X29594761Y35566666D01*
X29690000Y35614285D01*
X29785238Y35614285D01*
X30118571Y34947619D02*
X30118571Y35614285D01*
X30118571Y35423809D02*
X30166190Y35519047D01*
X30213809Y35566666D01*
X30309047Y35614285D01*
X30404285Y35614285D01*
X30737619Y34947619D02*
X30737619Y35614285D01*
X30737619Y35947619D02*
X30690000Y35900000D01*
X30737619Y35852380D01*
X30785238Y35900000D01*
X30737619Y35947619D01*
X30737619Y35852380D01*
X31594761Y34995238D02*
X31499523Y34947619D01*
X31309047Y34947619D01*
X31213809Y34995238D01*
X31166190Y35090476D01*
X31166190Y35471428D01*
X31213809Y35566666D01*
X31309047Y35614285D01*
X31499523Y35614285D01*
X31594761Y35566666D01*
X31642380Y35471428D01*
X31642380Y35376190D01*
X31166190Y35280952D01*
X32070952Y34947619D02*
X32070952Y35614285D01*
X32070952Y35423809D02*
X32118571Y35519047D01*
X32166190Y35566666D01*
X32261428Y35614285D01*
X32356666Y35614285D01*
X44722380Y33941904D02*
X43722380Y33941904D01*
X43722380Y34180000D01*
X43770000Y34322857D01*
X43865238Y34418095D01*
X43960476Y34465714D01*
X44150952Y34513333D01*
X44293809Y34513333D01*
X44484285Y34465714D01*
X44579523Y34418095D01*
X44674761Y34322857D01*
X44722380Y34180000D01*
X44722380Y33941904D01*
X44722380Y35465714D02*
X44722380Y34894285D01*
X44722380Y35180000D02*
X43722380Y35180000D01*
X43865238Y35084761D01*
X43960476Y34989523D01*
X44008095Y34894285D01*
X5993333Y1902857D02*
X5945714Y1855238D01*
X5802857Y1807619D01*
X5707619Y1807619D01*
X5564761Y1855238D01*
X5469523Y1950476D01*
X5421904Y2045714D01*
X5374285Y2236190D01*
X5374285Y2379047D01*
X5421904Y2569523D01*
X5469523Y2664761D01*
X5564761Y2760000D01*
X5707619Y2807619D01*
X5802857Y2807619D01*
X5945714Y2760000D01*
X5993333Y2712380D01*
X6850476Y2807619D02*
X6660000Y2807619D01*
X6564761Y2760000D01*
X6517142Y2712380D01*
X6421904Y2569523D01*
X6374285Y2379047D01*
X6374285Y1998095D01*
X6421904Y1902857D01*
X6469523Y1855238D01*
X6564761Y1807619D01*
X6755238Y1807619D01*
X6850476Y1855238D01*
X6898095Y1902857D01*
X6945714Y1998095D01*
X6945714Y2236190D01*
X6898095Y2331428D01*
X6850476Y2379047D01*
X6755238Y2426666D01*
X6564761Y2426666D01*
X6469523Y2379047D01*
X6421904Y2331428D01*
X6374285Y2236190D01*
X9207142Y17117142D02*
X9254761Y17069523D01*
X9302380Y16926666D01*
X9302380Y16831428D01*
X9254761Y16688571D01*
X9159523Y16593333D01*
X9064285Y16545714D01*
X8873809Y16498095D01*
X8730952Y16498095D01*
X8540476Y16545714D01*
X8445238Y16593333D01*
X8350000Y16688571D01*
X8302380Y16831428D01*
X8302380Y16926666D01*
X8350000Y17069523D01*
X8397619Y17117142D01*
X9302380Y18069523D02*
X9302380Y17498095D01*
X9302380Y17783809D02*
X8302380Y17783809D01*
X8445238Y17688571D01*
X8540476Y17593333D01*
X8588095Y17498095D01*
X8397619Y18450476D02*
X8350000Y18498095D01*
X8302380Y18593333D01*
X8302380Y18831428D01*
X8350000Y18926666D01*
X8397619Y18974285D01*
X8492857Y19021904D01*
X8588095Y19021904D01*
X8730952Y18974285D01*
X9302380Y18402857D01*
X9302380Y19021904D01*
X19029142Y17371142D02*
X19076761Y17323523D01*
X19124380Y17180666D01*
X19124380Y17085428D01*
X19076761Y16942571D01*
X18981523Y16847333D01*
X18886285Y16799714D01*
X18695809Y16752095D01*
X18552952Y16752095D01*
X18362476Y16799714D01*
X18267238Y16847333D01*
X18172000Y16942571D01*
X18124380Y17085428D01*
X18124380Y17180666D01*
X18172000Y17323523D01*
X18219619Y17371142D01*
X19124380Y18323523D02*
X19124380Y17752095D01*
X19124380Y18037809D02*
X18124380Y18037809D01*
X18267238Y17942571D01*
X18362476Y17847333D01*
X18410095Y17752095D01*
X18457714Y19180666D02*
X19124380Y19180666D01*
X18076761Y18942571D02*
X18791047Y18704476D01*
X18791047Y19323523D01*
X11757142Y15392857D02*
X11709523Y15345238D01*
X11566666Y15297619D01*
X11471428Y15297619D01*
X11328571Y15345238D01*
X11233333Y15440476D01*
X11185714Y15535714D01*
X11138095Y15726190D01*
X11138095Y15869047D01*
X11185714Y16059523D01*
X11233333Y16154761D01*
X11328571Y16250000D01*
X11471428Y16297619D01*
X11566666Y16297619D01*
X11709523Y16250000D01*
X11757142Y16202380D01*
X12709523Y15297619D02*
X12138095Y15297619D01*
X12423809Y15297619D02*
X12423809Y16297619D01*
X12328571Y16154761D01*
X12233333Y16059523D01*
X12138095Y16011904D01*
X13042857Y16297619D02*
X13661904Y16297619D01*
X13328571Y15916666D01*
X13471428Y15916666D01*
X13566666Y15869047D01*
X13614285Y15821428D01*
X13661904Y15726190D01*
X13661904Y15488095D01*
X13614285Y15392857D01*
X13566666Y15345238D01*
X13471428Y15297619D01*
X13185714Y15297619D01*
X13090476Y15345238D01*
X13042857Y15392857D01*
X34988666Y34647238D02*
X35131523Y34599619D01*
X35369619Y34599619D01*
X35464857Y34647238D01*
X35512476Y34694857D01*
X35560095Y34790095D01*
X35560095Y34885333D01*
X35512476Y34980571D01*
X35464857Y35028190D01*
X35369619Y35075809D01*
X35179142Y35123428D01*
X35083904Y35171047D01*
X35036285Y35218666D01*
X34988666Y35313904D01*
X34988666Y35409142D01*
X35036285Y35504380D01*
X35083904Y35552000D01*
X35179142Y35599619D01*
X35417238Y35599619D01*
X35560095Y35552000D01*
X35893428Y35599619D02*
X36131523Y34599619D01*
X36322000Y35313904D01*
X36512476Y34599619D01*
X36750571Y35599619D01*
X37655333Y34599619D02*
X37083904Y34599619D01*
X37369619Y34599619D02*
X37369619Y35599619D01*
X37274380Y35456761D01*
X37179142Y35361523D01*
X37083904Y35313904D01*
X15142380Y24473333D02*
X14666190Y24140000D01*
X15142380Y23901904D02*
X14142380Y23901904D01*
X14142380Y24282857D01*
X14190000Y24378095D01*
X14237619Y24425714D01*
X14332857Y24473333D01*
X14475714Y24473333D01*
X14570952Y24425714D01*
X14618571Y24378095D01*
X14666190Y24282857D01*
X14666190Y23901904D01*
X15142380Y24949523D02*
X15142380Y25140000D01*
X15094761Y25235238D01*
X15047142Y25282857D01*
X14904285Y25378095D01*
X14713809Y25425714D01*
X14332857Y25425714D01*
X14237619Y25378095D01*
X14190000Y25330476D01*
X14142380Y25235238D01*
X14142380Y25044761D01*
X14190000Y24949523D01*
X14237619Y24901904D01*
X14332857Y24854285D01*
X14570952Y24854285D01*
X14666190Y24901904D01*
X14713809Y24949523D01*
X14761428Y25044761D01*
X14761428Y25235238D01*
X14713809Y25330476D01*
X14666190Y25378095D01*
X14570952Y25425714D01*
X12822380Y24443333D02*
X12346190Y24110000D01*
X12822380Y23871904D02*
X11822380Y23871904D01*
X11822380Y24252857D01*
X11870000Y24348095D01*
X11917619Y24395714D01*
X12012857Y24443333D01*
X12155714Y24443333D01*
X12250952Y24395714D01*
X12298571Y24348095D01*
X12346190Y24252857D01*
X12346190Y23871904D01*
X12250952Y25014761D02*
X12203333Y24919523D01*
X12155714Y24871904D01*
X12060476Y24824285D01*
X12012857Y24824285D01*
X11917619Y24871904D01*
X11870000Y24919523D01*
X11822380Y25014761D01*
X11822380Y25205238D01*
X11870000Y25300476D01*
X11917619Y25348095D01*
X12012857Y25395714D01*
X12060476Y25395714D01*
X12155714Y25348095D01*
X12203333Y25300476D01*
X12250952Y25205238D01*
X12250952Y25014761D01*
X12298571Y24919523D01*
X12346190Y24871904D01*
X12441428Y24824285D01*
X12631904Y24824285D01*
X12727142Y24871904D01*
X12774761Y24919523D01*
X12822380Y25014761D01*
X12822380Y25205238D01*
X12774761Y25300476D01*
X12727142Y25348095D01*
X12631904Y25395714D01*
X12441428Y25395714D01*
X12346190Y25348095D01*
X12298571Y25300476D01*
X12250952Y25205238D01*
X10582380Y24413333D02*
X10106190Y24080000D01*
X10582380Y23841904D02*
X9582380Y23841904D01*
X9582380Y24222857D01*
X9630000Y24318095D01*
X9677619Y24365714D01*
X9772857Y24413333D01*
X9915714Y24413333D01*
X10010952Y24365714D01*
X10058571Y24318095D01*
X10106190Y24222857D01*
X10106190Y23841904D01*
X9582380Y24746666D02*
X9582380Y25413333D01*
X10582380Y24984761D01*
X11251904Y1777619D02*
X11251904Y2777619D01*
X11490000Y2777619D01*
X11632857Y2730000D01*
X11728095Y2634761D01*
X11775714Y2539523D01*
X11823333Y2349047D01*
X11823333Y2206190D01*
X11775714Y2015714D01*
X11728095Y1920476D01*
X11632857Y1825238D01*
X11490000Y1777619D01*
X11251904Y1777619D01*
X12204285Y2682380D02*
X12251904Y2730000D01*
X12347142Y2777619D01*
X12585238Y2777619D01*
X12680476Y2730000D01*
X12728095Y2682380D01*
X12775714Y2587142D01*
X12775714Y2491904D01*
X12728095Y2349047D01*
X12156666Y1777619D01*
X12775714Y1777619D01*
X12318095Y6147619D02*
X12318095Y5338095D01*
X12365714Y5242857D01*
X12413333Y5195238D01*
X12508571Y5147619D01*
X12699047Y5147619D01*
X12794285Y5195238D01*
X12841904Y5242857D01*
X12889523Y5338095D01*
X12889523Y6147619D01*
X13318095Y6052380D02*
X13365714Y6100000D01*
X13460952Y6147619D01*
X13699047Y6147619D01*
X13794285Y6100000D01*
X13841904Y6052380D01*
X13889523Y5957142D01*
X13889523Y5861904D01*
X13841904Y5719047D01*
X13270476Y5147619D01*
X13889523Y5147619D01*
X14467142Y87619D02*
X14133809Y563809D01*
X13895714Y87619D02*
X13895714Y1087619D01*
X14276666Y1087619D01*
X14371904Y1040000D01*
X14419523Y992380D01*
X14467142Y897142D01*
X14467142Y754285D01*
X14419523Y659047D01*
X14371904Y611428D01*
X14276666Y563809D01*
X13895714Y563809D01*
X15419523Y87619D02*
X14848095Y87619D01*
X15133809Y87619D02*
X15133809Y1087619D01*
X15038571Y944761D01*
X14943333Y849523D01*
X14848095Y801904D01*
X15752857Y1087619D02*
X16419523Y1087619D01*
X15990952Y87619D01*
X12032380Y13097142D02*
X11556190Y12763809D01*
X12032380Y12525714D02*
X11032380Y12525714D01*
X11032380Y12906666D01*
X11080000Y13001904D01*
X11127619Y13049523D01*
X11222857Y13097142D01*
X11365714Y13097142D01*
X11460952Y13049523D01*
X11508571Y13001904D01*
X11556190Y12906666D01*
X11556190Y12525714D01*
X12032380Y14049523D02*
X12032380Y13478095D01*
X12032380Y13763809D02*
X11032380Y13763809D01*
X11175238Y13668571D01*
X11270476Y13573333D01*
X11318095Y13478095D01*
X11032380Y14906666D02*
X11032380Y14716190D01*
X11080000Y14620952D01*
X11127619Y14573333D01*
X11270476Y14478095D01*
X11460952Y14430476D01*
X11841904Y14430476D01*
X11937142Y14478095D01*
X11984761Y14525714D01*
X12032380Y14620952D01*
X12032380Y14811428D01*
X11984761Y14906666D01*
X11937142Y14954285D01*
X11841904Y15001904D01*
X11603809Y15001904D01*
X11508571Y14954285D01*
X11460952Y14906666D01*
X11413333Y14811428D01*
X11413333Y14620952D01*
X11460952Y14525714D01*
X11508571Y14478095D01*
X11603809Y14430476D01*
X13622380Y13067142D02*
X13146190Y12733809D01*
X13622380Y12495714D02*
X12622380Y12495714D01*
X12622380Y12876666D01*
X12670000Y12971904D01*
X12717619Y13019523D01*
X12812857Y13067142D01*
X12955714Y13067142D01*
X13050952Y13019523D01*
X13098571Y12971904D01*
X13146190Y12876666D01*
X13146190Y12495714D01*
X13622380Y14019523D02*
X13622380Y13448095D01*
X13622380Y13733809D02*
X12622380Y13733809D01*
X12765238Y13638571D01*
X12860476Y13543333D01*
X12908095Y13448095D01*
X12622380Y14924285D02*
X12622380Y14448095D01*
X13098571Y14400476D01*
X13050952Y14448095D01*
X13003333Y14543333D01*
X13003333Y14781428D01*
X13050952Y14876666D01*
X13098571Y14924285D01*
X13193809Y14971904D01*
X13431904Y14971904D01*
X13527142Y14924285D01*
X13574761Y14876666D01*
X13622380Y14781428D01*
X13622380Y14543333D01*
X13574761Y14448095D01*
X13527142Y14400476D01*
X14972380Y13037142D02*
X14496190Y12703809D01*
X14972380Y12465714D02*
X13972380Y12465714D01*
X13972380Y12846666D01*
X14020000Y12941904D01*
X14067619Y12989523D01*
X14162857Y13037142D01*
X14305714Y13037142D01*
X14400952Y12989523D01*
X14448571Y12941904D01*
X14496190Y12846666D01*
X14496190Y12465714D01*
X14972380Y13989523D02*
X14972380Y13418095D01*
X14972380Y13703809D02*
X13972380Y13703809D01*
X14115238Y13608571D01*
X14210476Y13513333D01*
X14258095Y13418095D01*
X14305714Y14846666D02*
X14972380Y14846666D01*
X13924761Y14608571D02*
X14639047Y14370476D01*
X14639047Y14989523D01*
X11647142Y277619D02*
X11313809Y753809D01*
X11075714Y277619D02*
X11075714Y1277619D01*
X11456666Y1277619D01*
X11551904Y1230000D01*
X11599523Y1182380D01*
X11647142Y1087142D01*
X11647142Y944285D01*
X11599523Y849047D01*
X11551904Y801428D01*
X11456666Y753809D01*
X11075714Y753809D01*
X12599523Y277619D02*
X12028095Y277619D01*
X12313809Y277619D02*
X12313809Y1277619D01*
X12218571Y1134761D01*
X12123333Y1039523D01*
X12028095Y991904D01*
X12932857Y1277619D02*
X13551904Y1277619D01*
X13218571Y896666D01*
X13361428Y896666D01*
X13456666Y849047D01*
X13504285Y801428D01*
X13551904Y706190D01*
X13551904Y468095D01*
X13504285Y372857D01*
X13456666Y325238D01*
X13361428Y277619D01*
X13075714Y277619D01*
X12980476Y325238D01*
X12932857Y372857D01*
X9787142Y5737142D02*
X9834761Y5689523D01*
X9882380Y5546666D01*
X9882380Y5451428D01*
X9834761Y5308571D01*
X9739523Y5213333D01*
X9644285Y5165714D01*
X9453809Y5118095D01*
X9310952Y5118095D01*
X9120476Y5165714D01*
X9025238Y5213333D01*
X8930000Y5308571D01*
X8882380Y5451428D01*
X8882380Y5546666D01*
X8930000Y5689523D01*
X8977619Y5737142D01*
X9882380Y6689523D02*
X9882380Y6118095D01*
X9882380Y6403809D02*
X8882380Y6403809D01*
X9025238Y6308571D01*
X9120476Y6213333D01*
X9168095Y6118095D01*
X8882380Y7594285D02*
X8882380Y7118095D01*
X9358571Y7070476D01*
X9310952Y7118095D01*
X9263333Y7213333D01*
X9263333Y7451428D01*
X9310952Y7546666D01*
X9358571Y7594285D01*
X9453809Y7641904D01*
X9691904Y7641904D01*
X9787142Y7594285D01*
X9834761Y7546666D01*
X9882380Y7451428D01*
X9882380Y7213333D01*
X9834761Y7118095D01*
X9787142Y7070476D01*
X11717142Y26703333D02*
X11764761Y26655714D01*
X11812380Y26512857D01*
X11812380Y26417619D01*
X11764761Y26274761D01*
X11669523Y26179523D01*
X11574285Y26131904D01*
X11383809Y26084285D01*
X11240952Y26084285D01*
X11050476Y26131904D01*
X10955238Y26179523D01*
X10860000Y26274761D01*
X10812380Y26417619D01*
X10812380Y26512857D01*
X10860000Y26655714D01*
X10907619Y26703333D01*
X11145714Y27560476D02*
X11812380Y27560476D01*
X10764761Y27322380D02*
X11479047Y27084285D01*
X11479047Y27703333D01*
X16927142Y26763333D02*
X16974761Y26715714D01*
X17022380Y26572857D01*
X17022380Y26477619D01*
X16974761Y26334761D01*
X16879523Y26239523D01*
X16784285Y26191904D01*
X16593809Y26144285D01*
X16450952Y26144285D01*
X16260476Y26191904D01*
X16165238Y26239523D01*
X16070000Y26334761D01*
X16022380Y26477619D01*
X16022380Y26572857D01*
X16070000Y26715714D01*
X16117619Y26763333D01*
X16022380Y27096666D02*
X16022380Y27715714D01*
X16403333Y27382380D01*
X16403333Y27525238D01*
X16450952Y27620476D01*
X16498571Y27668095D01*
X16593809Y27715714D01*
X16831904Y27715714D01*
X16927142Y27668095D01*
X16974761Y27620476D01*
X17022380Y27525238D01*
X17022380Y27239523D01*
X16974761Y27144285D01*
X16927142Y27096666D01*
X22017142Y26723333D02*
X22064761Y26675714D01*
X22112380Y26532857D01*
X22112380Y26437619D01*
X22064761Y26294761D01*
X21969523Y26199523D01*
X21874285Y26151904D01*
X21683809Y26104285D01*
X21540952Y26104285D01*
X21350476Y26151904D01*
X21255238Y26199523D01*
X21160000Y26294761D01*
X21112380Y26437619D01*
X21112380Y26532857D01*
X21160000Y26675714D01*
X21207619Y26723333D01*
X21207619Y27104285D02*
X21160000Y27151904D01*
X21112380Y27247142D01*
X21112380Y27485238D01*
X21160000Y27580476D01*
X21207619Y27628095D01*
X21302857Y27675714D01*
X21398095Y27675714D01*
X21540952Y27628095D01*
X22112380Y27056666D01*
X22112380Y27675714D01*
X39113333Y2527619D02*
X38780000Y3003809D01*
X38541904Y2527619D02*
X38541904Y3527619D01*
X38922857Y3527619D01*
X39018095Y3480000D01*
X39065714Y3432380D01*
X39113333Y3337142D01*
X39113333Y3194285D01*
X39065714Y3099047D01*
X39018095Y3051428D01*
X38922857Y3003809D01*
X38541904Y3003809D01*
X40065714Y2527619D02*
X39494285Y2527619D01*
X39780000Y2527619D02*
X39780000Y3527619D01*
X39684761Y3384761D01*
X39589523Y3289523D01*
X39494285Y3241904D01*
D16*
X23811792Y22596023D02*
X23811792Y22149553D01*
X23838055Y22097027D01*
X23864318Y22070764D01*
X23916844Y22044501D01*
X24021896Y22044501D01*
X24074422Y22070764D01*
X24100685Y22097027D01*
X24126948Y22149553D01*
X24126948Y22596023D01*
X24678470Y22044501D02*
X24363314Y22044501D01*
X24520892Y22044501D02*
X24520892Y22596023D01*
X24468366Y22517235D01*
X24415840Y22464709D01*
X24363314Y22438446D01*
D12*
X30150342Y28389342D02*
X30197961Y28341723D01*
X30245580Y28198866D01*
X30245580Y28103628D01*
X30197961Y27960771D01*
X30102723Y27865533D01*
X30007485Y27817914D01*
X29817009Y27770295D01*
X29674152Y27770295D01*
X29483676Y27817914D01*
X29388438Y27865533D01*
X29293200Y27960771D01*
X29245580Y28103628D01*
X29245580Y28198866D01*
X29293200Y28341723D01*
X29340819Y28389342D01*
X30245580Y29341723D02*
X30245580Y28770295D01*
X30245580Y29056009D02*
X29245580Y29056009D01*
X29388438Y28960771D01*
X29483676Y28865533D01*
X29531295Y28770295D01*
X30245580Y30294104D02*
X30245580Y29722676D01*
X30245580Y30008390D02*
X29245580Y30008390D01*
X29388438Y29913152D01*
X29483676Y29817914D01*
X29531295Y29722676D01*
X37512380Y21547142D02*
X37036190Y21213809D01*
X37512380Y20975714D02*
X36512380Y20975714D01*
X36512380Y21356666D01*
X36560000Y21451904D01*
X36607619Y21499523D01*
X36702857Y21547142D01*
X36845714Y21547142D01*
X36940952Y21499523D01*
X36988571Y21451904D01*
X37036190Y21356666D01*
X37036190Y20975714D01*
X37512380Y22499523D02*
X37512380Y21928095D01*
X37512380Y22213809D02*
X36512380Y22213809D01*
X36655238Y22118571D01*
X36750476Y22023333D01*
X36798095Y21928095D01*
X37512380Y23451904D02*
X37512380Y22880476D01*
X37512380Y23166190D02*
X36512380Y23166190D01*
X36655238Y23070952D01*
X36750476Y22975714D01*
X36798095Y22880476D01*
X37494380Y18925904D02*
X36494380Y18925904D01*
X36494380Y19164000D01*
X36542000Y19306857D01*
X36637238Y19402095D01*
X36732476Y19449714D01*
X36922952Y19497333D01*
X37065809Y19497333D01*
X37256285Y19449714D01*
X37351523Y19402095D01*
X37446761Y19306857D01*
X37494380Y19164000D01*
X37494380Y18925904D01*
X36494380Y20402095D02*
X36494380Y19925904D01*
X36970571Y19878285D01*
X36922952Y19925904D01*
X36875333Y20021142D01*
X36875333Y20259238D01*
X36922952Y20354476D01*
X36970571Y20402095D01*
X37065809Y20449714D01*
X37303904Y20449714D01*
X37399142Y20402095D01*
X37446761Y20354476D01*
X37494380Y20259238D01*
X37494380Y20021142D01*
X37446761Y19925904D01*
X37399142Y19878285D01*
X7686666Y5731428D02*
X7353333Y5731428D01*
X7353333Y5207619D02*
X7353333Y6207619D01*
X7829523Y6207619D01*
X8162857Y6112380D02*
X8210476Y6160000D01*
X8305714Y6207619D01*
X8543809Y6207619D01*
X8639047Y6160000D01*
X8686666Y6112380D01*
X8734285Y6017142D01*
X8734285Y5921904D01*
X8686666Y5779047D01*
X8115238Y5207619D01*
X8734285Y5207619D01*
X30505666Y33579428D02*
X30172333Y33579428D01*
X30172333Y33055619D02*
X30172333Y34055619D01*
X30648523Y34055619D01*
X31553285Y33055619D02*
X30981857Y33055619D01*
X31267571Y33055619D02*
X31267571Y34055619D01*
X31172333Y33912761D01*
X31077095Y33817523D01*
X30981857Y33769904D01*
X32492380Y24481904D02*
X31492380Y24481904D01*
X31492380Y24720000D01*
X31540000Y24862857D01*
X31635238Y24958095D01*
X31730476Y25005714D01*
X31920952Y25053333D01*
X32063809Y25053333D01*
X32254285Y25005714D01*
X32349523Y24958095D01*
X32444761Y24862857D01*
X32492380Y24720000D01*
X32492380Y24481904D01*
X31492380Y25910476D02*
X31492380Y25720000D01*
X31540000Y25624761D01*
X31587619Y25577142D01*
X31730476Y25481904D01*
X31920952Y25434285D01*
X32301904Y25434285D01*
X32397142Y25481904D01*
X32444761Y25529523D01*
X32492380Y25624761D01*
X32492380Y25815238D01*
X32444761Y25910476D01*
X32397142Y25958095D01*
X32301904Y26005714D01*
X32063809Y26005714D01*
X31968571Y25958095D01*
X31920952Y25910476D01*
X31873333Y25815238D01*
X31873333Y25624761D01*
X31920952Y25529523D01*
X31968571Y25481904D01*
X32063809Y25434285D01*
X32460380Y28336142D02*
X31984190Y28002809D01*
X32460380Y27764714D02*
X31460380Y27764714D01*
X31460380Y28145666D01*
X31508000Y28240904D01*
X31555619Y28288523D01*
X31650857Y28336142D01*
X31793714Y28336142D01*
X31888952Y28288523D01*
X31936571Y28240904D01*
X31984190Y28145666D01*
X31984190Y27764714D01*
X32460380Y29288523D02*
X32460380Y28717095D01*
X32460380Y29002809D02*
X31460380Y29002809D01*
X31603238Y28907571D01*
X31698476Y28812333D01*
X31746095Y28717095D01*
X31555619Y29669476D02*
X31508000Y29717095D01*
X31460380Y29812333D01*
X31460380Y30050428D01*
X31508000Y30145666D01*
X31555619Y30193285D01*
X31650857Y30240904D01*
X31746095Y30240904D01*
X31888952Y30193285D01*
X32460380Y29621857D01*
X32460380Y30240904D01*
X36078380Y21481142D02*
X35602190Y21147809D01*
X36078380Y20909714D02*
X35078380Y20909714D01*
X35078380Y21290666D01*
X35126000Y21385904D01*
X35173619Y21433523D01*
X35268857Y21481142D01*
X35411714Y21481142D01*
X35506952Y21433523D01*
X35554571Y21385904D01*
X35602190Y21290666D01*
X35602190Y20909714D01*
X36078380Y22433523D02*
X36078380Y21862095D01*
X36078380Y22147809D02*
X35078380Y22147809D01*
X35221238Y22052571D01*
X35316476Y21957333D01*
X35364095Y21862095D01*
X35078380Y23052571D02*
X35078380Y23147809D01*
X35126000Y23243047D01*
X35173619Y23290666D01*
X35268857Y23338285D01*
X35459333Y23385904D01*
X35697428Y23385904D01*
X35887904Y23338285D01*
X35983142Y23290666D01*
X36030761Y23243047D01*
X36078380Y23147809D01*
X36078380Y23052571D01*
X36030761Y22957333D01*
X35983142Y22909714D01*
X35887904Y22862095D01*
X35697428Y22814476D01*
X35459333Y22814476D01*
X35268857Y22862095D01*
X35173619Y22909714D01*
X35126000Y22957333D01*
X35078380Y23052571D01*
X36004380Y18875904D02*
X35004380Y18875904D01*
X35004380Y19114000D01*
X35052000Y19256857D01*
X35147238Y19352095D01*
X35242476Y19399714D01*
X35432952Y19447333D01*
X35575809Y19447333D01*
X35766285Y19399714D01*
X35861523Y19352095D01*
X35956761Y19256857D01*
X36004380Y19114000D01*
X36004380Y18875904D01*
X35337714Y20304476D02*
X36004380Y20304476D01*
X34956761Y20066380D02*
X35671047Y19828285D01*
X35671047Y20447333D01*
X29047142Y6283333D02*
X29094761Y6235714D01*
X29142380Y6092857D01*
X29142380Y5997619D01*
X29094761Y5854761D01*
X28999523Y5759523D01*
X28904285Y5711904D01*
X28713809Y5664285D01*
X28570952Y5664285D01*
X28380476Y5711904D01*
X28285238Y5759523D01*
X28190000Y5854761D01*
X28142380Y5997619D01*
X28142380Y6092857D01*
X28190000Y6235714D01*
X28237619Y6283333D01*
X29142380Y7235714D02*
X29142380Y6664285D01*
X29142380Y6950000D02*
X28142380Y6950000D01*
X28285238Y6854761D01*
X28380476Y6759523D01*
X28428095Y6664285D01*
X27557142Y6133333D02*
X27604761Y6085714D01*
X27652380Y5942857D01*
X27652380Y5847619D01*
X27604761Y5704761D01*
X27509523Y5609523D01*
X27414285Y5561904D01*
X27223809Y5514285D01*
X27080952Y5514285D01*
X26890476Y5561904D01*
X26795238Y5609523D01*
X26700000Y5704761D01*
X26652380Y5847619D01*
X26652380Y5942857D01*
X26700000Y6085714D01*
X26747619Y6133333D01*
X26652380Y7038095D02*
X26652380Y6561904D01*
X27128571Y6514285D01*
X27080952Y6561904D01*
X27033333Y6657142D01*
X27033333Y6895238D01*
X27080952Y6990476D01*
X27128571Y7038095D01*
X27223809Y7085714D01*
X27461904Y7085714D01*
X27557142Y7038095D01*
X27604761Y6990476D01*
X27652380Y6895238D01*
X27652380Y6657142D01*
X27604761Y6561904D01*
X27557142Y6514285D01*
X22382380Y25803333D02*
X21906190Y25470000D01*
X22382380Y25231904D02*
X21382380Y25231904D01*
X21382380Y25612857D01*
X21430000Y25708095D01*
X21477619Y25755714D01*
X21572857Y25803333D01*
X21715714Y25803333D01*
X21810952Y25755714D01*
X21858571Y25708095D01*
X21906190Y25612857D01*
X21906190Y25231904D01*
X21477619Y26184285D02*
X21430000Y26231904D01*
X21382380Y26327142D01*
X21382380Y26565238D01*
X21430000Y26660476D01*
X21477619Y26708095D01*
X21572857Y26755714D01*
X21668095Y26755714D01*
X21810952Y26708095D01*
X22382380Y26136666D01*
X22382380Y26755714D01*
X26912380Y28353333D02*
X26436190Y28020000D01*
X26912380Y27781904D02*
X25912380Y27781904D01*
X25912380Y28162857D01*
X25960000Y28258095D01*
X26007619Y28305714D01*
X26102857Y28353333D01*
X26245714Y28353333D01*
X26340952Y28305714D01*
X26388571Y28258095D01*
X26436190Y28162857D01*
X26436190Y27781904D01*
X25912380Y29210476D02*
X25912380Y29020000D01*
X25960000Y28924761D01*
X26007619Y28877142D01*
X26150476Y28781904D01*
X26340952Y28734285D01*
X26721904Y28734285D01*
X26817142Y28781904D01*
X26864761Y28829523D01*
X26912380Y28924761D01*
X26912380Y29115238D01*
X26864761Y29210476D01*
X26817142Y29258095D01*
X26721904Y29305714D01*
X26483809Y29305714D01*
X26388571Y29258095D01*
X26340952Y29210476D01*
X26293333Y29115238D01*
X26293333Y28924761D01*
X26340952Y28829523D01*
X26388571Y28781904D01*
X26483809Y28734285D01*
X25322380Y28343333D02*
X24846190Y28010000D01*
X25322380Y27771904D02*
X24322380Y27771904D01*
X24322380Y28152857D01*
X24370000Y28248095D01*
X24417619Y28295714D01*
X24512857Y28343333D01*
X24655714Y28343333D01*
X24750952Y28295714D01*
X24798571Y28248095D01*
X24846190Y28152857D01*
X24846190Y27771904D01*
X24322380Y29248095D02*
X24322380Y28771904D01*
X24798571Y28724285D01*
X24750952Y28771904D01*
X24703333Y28867142D01*
X24703333Y29105238D01*
X24750952Y29200476D01*
X24798571Y29248095D01*
X24893809Y29295714D01*
X25131904Y29295714D01*
X25227142Y29248095D01*
X25274761Y29200476D01*
X25322380Y29105238D01*
X25322380Y28867142D01*
X25274761Y28771904D01*
X25227142Y28724285D01*
X38922380Y22453333D02*
X38446190Y22120000D01*
X38922380Y21881904D02*
X37922380Y21881904D01*
X37922380Y22262857D01*
X37970000Y22358095D01*
X38017619Y22405714D01*
X38112857Y22453333D01*
X38255714Y22453333D01*
X38350952Y22405714D01*
X38398571Y22358095D01*
X38446190Y22262857D01*
X38446190Y21881904D01*
X38255714Y23310476D02*
X38922380Y23310476D01*
X37874761Y23072380D02*
X38589047Y22834285D01*
X38589047Y23453333D01*
X28432380Y28351333D02*
X27956190Y28018000D01*
X28432380Y27779904D02*
X27432380Y27779904D01*
X27432380Y28160857D01*
X27480000Y28256095D01*
X27527619Y28303714D01*
X27622857Y28351333D01*
X27765714Y28351333D01*
X27860952Y28303714D01*
X27908571Y28256095D01*
X27956190Y28160857D01*
X27956190Y27779904D01*
X27432380Y28684666D02*
X27432380Y29303714D01*
X27813333Y28970380D01*
X27813333Y29113238D01*
X27860952Y29208476D01*
X27908571Y29256095D01*
X28003809Y29303714D01*
X28241904Y29303714D01*
X28337142Y29256095D01*
X28384761Y29208476D01*
X28432380Y29113238D01*
X28432380Y28827523D01*
X28384761Y28732285D01*
X28337142Y28684666D01*
X38806380Y19005904D02*
X37806380Y19005904D01*
X37806380Y19244000D01*
X37854000Y19386857D01*
X37949238Y19482095D01*
X38044476Y19529714D01*
X38234952Y19577333D01*
X38377809Y19577333D01*
X38568285Y19529714D01*
X38663523Y19482095D01*
X38758761Y19386857D01*
X38806380Y19244000D01*
X38806380Y19005904D01*
X37806380Y19910666D02*
X37806380Y20529714D01*
X38187333Y20196380D01*
X38187333Y20339238D01*
X38234952Y20434476D01*
X38282571Y20482095D01*
X38377809Y20529714D01*
X38615904Y20529714D01*
X38711142Y20482095D01*
X38758761Y20434476D01*
X38806380Y20339238D01*
X38806380Y20053523D01*
X38758761Y19958285D01*
X38711142Y19910666D01*
X17756594Y14170656D02*
X17804213Y14123037D01*
X17851832Y13980180D01*
X17851832Y13884942D01*
X17804213Y13742084D01*
X17708975Y13646846D01*
X17613737Y13599227D01*
X17423261Y13551608D01*
X17280404Y13551608D01*
X17089928Y13599227D01*
X16994690Y13646846D01*
X16899452Y13742084D01*
X16851832Y13884942D01*
X16851832Y13980180D01*
X16899452Y14123037D01*
X16947071Y14170656D01*
X17851832Y14646846D02*
X17851832Y14837323D01*
X17804213Y14932561D01*
X17756594Y14980180D01*
X17613737Y15075418D01*
X17423261Y15123037D01*
X17042309Y15123037D01*
X16947071Y15075418D01*
X16899452Y15027799D01*
X16851832Y14932561D01*
X16851832Y14742084D01*
X16899452Y14646846D01*
X16947071Y14599227D01*
X17042309Y14551608D01*
X17280404Y14551608D01*
X17375642Y14599227D01*
X17423261Y14646846D01*
X17470880Y14742084D01*
X17470880Y14932561D01*
X17423261Y15027799D01*
X17375642Y15075418D01*
X17280404Y15123037D01*
X19731594Y14195656D02*
X19779213Y14148037D01*
X19826832Y14005180D01*
X19826832Y13909942D01*
X19779213Y13767084D01*
X19683975Y13671846D01*
X19588737Y13624227D01*
X19398261Y13576608D01*
X19255404Y13576608D01*
X19064928Y13624227D01*
X18969690Y13671846D01*
X18874452Y13767084D01*
X18826832Y13909942D01*
X18826832Y14005180D01*
X18874452Y14148037D01*
X18922071Y14195656D01*
X19255404Y14767084D02*
X19207785Y14671846D01*
X19160166Y14624227D01*
X19064928Y14576608D01*
X19017309Y14576608D01*
X18922071Y14624227D01*
X18874452Y14671846D01*
X18826832Y14767084D01*
X18826832Y14957561D01*
X18874452Y15052799D01*
X18922071Y15100418D01*
X19017309Y15148037D01*
X19064928Y15148037D01*
X19160166Y15100418D01*
X19207785Y15052799D01*
X19255404Y14957561D01*
X19255404Y14767084D01*
X19303023Y14671846D01*
X19350642Y14624227D01*
X19445880Y14576608D01*
X19636356Y14576608D01*
X19731594Y14624227D01*
X19779213Y14671846D01*
X19826832Y14767084D01*
X19826832Y14957561D01*
X19779213Y15052799D01*
X19731594Y15100418D01*
X19636356Y15148037D01*
X19445880Y15148037D01*
X19350642Y15100418D01*
X19303023Y15052799D01*
X19255404Y14957561D01*
X19367142Y22003333D02*
X19414761Y21955714D01*
X19462380Y21812857D01*
X19462380Y21717619D01*
X19414761Y21574761D01*
X19319523Y21479523D01*
X19224285Y21431904D01*
X19033809Y21384285D01*
X18890952Y21384285D01*
X18700476Y21431904D01*
X18605238Y21479523D01*
X18510000Y21574761D01*
X18462380Y21717619D01*
X18462380Y21812857D01*
X18510000Y21955714D01*
X18557619Y22003333D01*
X18462380Y22336666D02*
X18462380Y23003333D01*
X19462380Y22574761D01*
X25731742Y7475342D02*
X25779361Y7427723D01*
X25826980Y7284866D01*
X25826980Y7189628D01*
X25779361Y7046771D01*
X25684123Y6951533D01*
X25588885Y6903914D01*
X25398409Y6856295D01*
X25255552Y6856295D01*
X25065076Y6903914D01*
X24969838Y6951533D01*
X24874600Y7046771D01*
X24826980Y7189628D01*
X24826980Y7284866D01*
X24874600Y7427723D01*
X24922219Y7475342D01*
X25826980Y8427723D02*
X25826980Y7856295D01*
X25826980Y8142009D02*
X24826980Y8142009D01*
X24969838Y8046771D01*
X25065076Y7951533D01*
X25112695Y7856295D01*
X24826980Y9046771D02*
X24826980Y9142009D01*
X24874600Y9237247D01*
X24922219Y9284866D01*
X25017457Y9332485D01*
X25207933Y9380104D01*
X25446028Y9380104D01*
X25636504Y9332485D01*
X25731742Y9284866D01*
X25779361Y9237247D01*
X25826980Y9142009D01*
X25826980Y9046771D01*
X25779361Y8951533D01*
X25731742Y8903914D01*
X25636504Y8856295D01*
X25446028Y8808676D01*
X25207933Y8808676D01*
X25017457Y8856295D01*
X24922219Y8903914D01*
X24874600Y8951533D01*
X24826980Y9046771D01*
M02*
