G04 #@! TF.GenerationSoftware,KiCad,Pcbnew,(5.1.5)-3*
G04 #@! TF.CreationDate,2021-07-29T11:54:44+02:00*
G04 #@! TF.ProjectId,sDrive1,73447269-7665-4312-9e6b-696361645f70,rev?*
G04 #@! TF.SameCoordinates,Original*
G04 #@! TF.FileFunction,Soldermask,Top*
G04 #@! TF.FilePolarity,Negative*
%FSLAX46Y46*%
G04 Gerber Fmt 4.6, Leading zero omitted, Abs format (unit mm)*
G04 Created by KiCad (PCBNEW (5.1.5)-3) date 2021-07-29 11:54:44*
%MOMM*%
%LPD*%
G04 APERTURE LIST*
%ADD10C,0.100000*%
G04 APERTURE END LIST*
D10*
G36*
X10689499Y1401555D02*
G01*
X10726995Y1390180D01*
X10761554Y1371708D01*
X10791847Y1346847D01*
X10816708Y1316554D01*
X10835180Y1281995D01*
X10846555Y1244499D01*
X10851000Y1199362D01*
X10851000Y560638D01*
X10846555Y515501D01*
X10835180Y478005D01*
X10816708Y443446D01*
X10791847Y413153D01*
X10761554Y388292D01*
X10726995Y369820D01*
X10689499Y358445D01*
X10644362Y354000D01*
X9905638Y354000D01*
X9860501Y358445D01*
X9823005Y369820D01*
X9788446Y388292D01*
X9758153Y413153D01*
X9733292Y443446D01*
X9714820Y478005D01*
X9703445Y515501D01*
X9699000Y560638D01*
X9699000Y1199362D01*
X9703445Y1244499D01*
X9714820Y1281995D01*
X9733292Y1316554D01*
X9758153Y1346847D01*
X9788446Y1371708D01*
X9823005Y1390180D01*
X9860501Y1401555D01*
X9905638Y1406000D01*
X10644362Y1406000D01*
X10689499Y1401555D01*
G37*
G36*
X8939499Y1401555D02*
G01*
X8976995Y1390180D01*
X9011554Y1371708D01*
X9041847Y1346847D01*
X9066708Y1316554D01*
X9085180Y1281995D01*
X9096555Y1244499D01*
X9101000Y1199362D01*
X9101000Y560638D01*
X9096555Y515501D01*
X9085180Y478005D01*
X9066708Y443446D01*
X9041847Y413153D01*
X9011554Y388292D01*
X8976995Y369820D01*
X8939499Y358445D01*
X8894362Y354000D01*
X8155638Y354000D01*
X8110501Y358445D01*
X8073005Y369820D01*
X8038446Y388292D01*
X8008153Y413153D01*
X7983292Y443446D01*
X7964820Y478005D01*
X7953445Y515501D01*
X7949000Y560638D01*
X7949000Y1199362D01*
X7953445Y1244499D01*
X7964820Y1281995D01*
X7983292Y1316554D01*
X8008153Y1346847D01*
X8038446Y1371708D01*
X8073005Y1390180D01*
X8110501Y1401555D01*
X8155638Y1406000D01*
X8894362Y1406000D01*
X8939499Y1401555D01*
G37*
G36*
X6839499Y1421555D02*
G01*
X6876995Y1410180D01*
X6911554Y1391708D01*
X6941847Y1366847D01*
X6966708Y1336554D01*
X6985180Y1301995D01*
X6996555Y1264499D01*
X7001000Y1219362D01*
X7001000Y580638D01*
X6996555Y535501D01*
X6985180Y498005D01*
X6966708Y463446D01*
X6941847Y433153D01*
X6911554Y408292D01*
X6876995Y389820D01*
X6839499Y378445D01*
X6794362Y374000D01*
X6055638Y374000D01*
X6010501Y378445D01*
X5973005Y389820D01*
X5938446Y408292D01*
X5908153Y433153D01*
X5883292Y463446D01*
X5864820Y498005D01*
X5853445Y535501D01*
X5849000Y580638D01*
X5849000Y1219362D01*
X5853445Y1264499D01*
X5864820Y1301995D01*
X5883292Y1336554D01*
X5908153Y1366847D01*
X5938446Y1391708D01*
X5973005Y1410180D01*
X6010501Y1421555D01*
X6055638Y1426000D01*
X6794362Y1426000D01*
X6839499Y1421555D01*
G37*
G36*
X5089499Y1421555D02*
G01*
X5126995Y1410180D01*
X5161554Y1391708D01*
X5191847Y1366847D01*
X5216708Y1336554D01*
X5235180Y1301995D01*
X5246555Y1264499D01*
X5251000Y1219362D01*
X5251000Y580638D01*
X5246555Y535501D01*
X5235180Y498005D01*
X5216708Y463446D01*
X5191847Y433153D01*
X5161554Y408292D01*
X5126995Y389820D01*
X5089499Y378445D01*
X5044362Y374000D01*
X4305638Y374000D01*
X4260501Y378445D01*
X4223005Y389820D01*
X4188446Y408292D01*
X4158153Y433153D01*
X4133292Y463446D01*
X4114820Y498005D01*
X4103445Y535501D01*
X4099000Y580638D01*
X4099000Y1219362D01*
X4103445Y1264499D01*
X4114820Y1301995D01*
X4133292Y1336554D01*
X4158153Y1366847D01*
X4188446Y1391708D01*
X4223005Y1410180D01*
X4260501Y1421555D01*
X4305638Y1426000D01*
X5044362Y1426000D01*
X5089499Y1421555D01*
G37*
G36*
X39144499Y2041555D02*
G01*
X39181995Y2030180D01*
X39216554Y2011708D01*
X39246847Y1986847D01*
X39271708Y1956554D01*
X39290180Y1921995D01*
X39301555Y1884499D01*
X39306000Y1839362D01*
X39306000Y1200638D01*
X39301555Y1155501D01*
X39290180Y1118005D01*
X39271708Y1083446D01*
X39246847Y1053153D01*
X39216554Y1028292D01*
X39181995Y1009820D01*
X39144499Y998445D01*
X39099362Y994000D01*
X38360638Y994000D01*
X38315501Y998445D01*
X38278005Y1009820D01*
X38243446Y1028292D01*
X38213153Y1053153D01*
X38188292Y1083446D01*
X38169820Y1118005D01*
X38158445Y1155501D01*
X38154000Y1200638D01*
X38154000Y1839362D01*
X38158445Y1884499D01*
X38169820Y1921995D01*
X38188292Y1956554D01*
X38213153Y1986847D01*
X38243446Y2011708D01*
X38278005Y2030180D01*
X38315501Y2041555D01*
X38360638Y2046000D01*
X39099362Y2046000D01*
X39144499Y2041555D01*
G37*
G36*
X40894499Y2041555D02*
G01*
X40931995Y2030180D01*
X40966554Y2011708D01*
X40996847Y1986847D01*
X41021708Y1956554D01*
X41040180Y1921995D01*
X41051555Y1884499D01*
X41056000Y1839362D01*
X41056000Y1200638D01*
X41051555Y1155501D01*
X41040180Y1118005D01*
X41021708Y1083446D01*
X40996847Y1053153D01*
X40966554Y1028292D01*
X40931995Y1009820D01*
X40894499Y998445D01*
X40849362Y994000D01*
X40110638Y994000D01*
X40065501Y998445D01*
X40028005Y1009820D01*
X39993446Y1028292D01*
X39963153Y1053153D01*
X39938292Y1083446D01*
X39919820Y1118005D01*
X39908445Y1155501D01*
X39904000Y1200638D01*
X39904000Y1839362D01*
X39908445Y1884499D01*
X39919820Y1921995D01*
X39938292Y1956554D01*
X39963153Y1986847D01*
X39993446Y2011708D01*
X40028005Y2030180D01*
X40065501Y2041555D01*
X40110638Y2046000D01*
X40849362Y2046000D01*
X40894499Y2041555D01*
G37*
G36*
X15929499Y2711555D02*
G01*
X15966995Y2700180D01*
X16001554Y2681708D01*
X16031847Y2656847D01*
X16056708Y2626554D01*
X16075180Y2591995D01*
X16086555Y2554499D01*
X16091000Y2509362D01*
X16091000Y1870638D01*
X16086555Y1825501D01*
X16075180Y1788005D01*
X16056708Y1753446D01*
X16031847Y1723153D01*
X16001554Y1698292D01*
X15966995Y1679820D01*
X15929499Y1668445D01*
X15884362Y1664000D01*
X15145638Y1664000D01*
X15100501Y1668445D01*
X15063005Y1679820D01*
X15028446Y1698292D01*
X14998153Y1723153D01*
X14973292Y1753446D01*
X14954820Y1788005D01*
X14943445Y1825501D01*
X14939000Y1870638D01*
X14939000Y2509362D01*
X14943445Y2554499D01*
X14954820Y2591995D01*
X14973292Y2626554D01*
X14998153Y2656847D01*
X15028446Y2681708D01*
X15063005Y2700180D01*
X15100501Y2711555D01*
X15145638Y2716000D01*
X15884362Y2716000D01*
X15929499Y2711555D01*
G37*
G36*
X14179499Y2711555D02*
G01*
X14216995Y2700180D01*
X14251554Y2681708D01*
X14281847Y2656847D01*
X14306708Y2626554D01*
X14325180Y2591995D01*
X14336555Y2554499D01*
X14341000Y2509362D01*
X14341000Y1870638D01*
X14336555Y1825501D01*
X14325180Y1788005D01*
X14306708Y1753446D01*
X14281847Y1723153D01*
X14251554Y1698292D01*
X14216995Y1679820D01*
X14179499Y1668445D01*
X14134362Y1664000D01*
X13395638Y1664000D01*
X13350501Y1668445D01*
X13313005Y1679820D01*
X13278446Y1698292D01*
X13248153Y1723153D01*
X13223292Y1753446D01*
X13204820Y1788005D01*
X13193445Y1825501D01*
X13189000Y1870638D01*
X13189000Y2509362D01*
X13193445Y2554499D01*
X13204820Y2591995D01*
X13223292Y2626554D01*
X13248153Y2656847D01*
X13278446Y2681708D01*
X13313005Y2700180D01*
X13350501Y2711555D01*
X13395638Y2716000D01*
X14134362Y2716000D01*
X14179499Y2711555D01*
G37*
G36*
X8929499Y2871555D02*
G01*
X8966995Y2860180D01*
X9001554Y2841708D01*
X9031847Y2816847D01*
X9056708Y2786554D01*
X9075180Y2751995D01*
X9086555Y2714499D01*
X9091000Y2669362D01*
X9091000Y2030638D01*
X9086555Y1985501D01*
X9075180Y1948005D01*
X9056708Y1913446D01*
X9031847Y1883153D01*
X9001554Y1858292D01*
X8966995Y1839820D01*
X8929499Y1828445D01*
X8884362Y1824000D01*
X8145638Y1824000D01*
X8100501Y1828445D01*
X8063005Y1839820D01*
X8028446Y1858292D01*
X7998153Y1883153D01*
X7973292Y1913446D01*
X7954820Y1948005D01*
X7943445Y1985501D01*
X7939000Y2030638D01*
X7939000Y2669362D01*
X7943445Y2714499D01*
X7954820Y2751995D01*
X7973292Y2786554D01*
X7998153Y2816847D01*
X8028446Y2841708D01*
X8063005Y2860180D01*
X8100501Y2871555D01*
X8145638Y2876000D01*
X8884362Y2876000D01*
X8929499Y2871555D01*
G37*
G36*
X10679499Y2871555D02*
G01*
X10716995Y2860180D01*
X10751554Y2841708D01*
X10781847Y2816847D01*
X10806708Y2786554D01*
X10825180Y2751995D01*
X10836555Y2714499D01*
X10841000Y2669362D01*
X10841000Y2030638D01*
X10836555Y1985501D01*
X10825180Y1948005D01*
X10806708Y1913446D01*
X10781847Y1883153D01*
X10751554Y1858292D01*
X10716995Y1839820D01*
X10679499Y1828445D01*
X10634362Y1824000D01*
X9895638Y1824000D01*
X9850501Y1828445D01*
X9813005Y1839820D01*
X9778446Y1858292D01*
X9748153Y1883153D01*
X9723292Y1913446D01*
X9704820Y1948005D01*
X9693445Y1985501D01*
X9689000Y2030638D01*
X9689000Y2669362D01*
X9693445Y2714499D01*
X9704820Y2751995D01*
X9723292Y2786554D01*
X9748153Y2816847D01*
X9778446Y2841708D01*
X9813005Y2860180D01*
X9850501Y2871555D01*
X9895638Y2876000D01*
X10634362Y2876000D01*
X10679499Y2871555D01*
G37*
G36*
X2852292Y4762253D02*
G01*
X3001592Y4732556D01*
X3165564Y4664636D01*
X3313134Y4566033D01*
X3438633Y4440534D01*
X3537236Y4292964D01*
X3605156Y4128992D01*
X3639780Y3954921D01*
X3639780Y3777439D01*
X3605156Y3603368D01*
X3537236Y3439396D01*
X3438633Y3291826D01*
X3313134Y3166327D01*
X3165564Y3067724D01*
X3001592Y2999804D01*
X2852292Y2970107D01*
X2827522Y2965180D01*
X2650038Y2965180D01*
X2625268Y2970107D01*
X2475968Y2999804D01*
X2311996Y3067724D01*
X2164426Y3166327D01*
X2038927Y3291826D01*
X1940324Y3439396D01*
X1872404Y3603368D01*
X1837780Y3777439D01*
X1837780Y3954921D01*
X1872404Y4128992D01*
X1940324Y4292964D01*
X2038927Y4440534D01*
X2164426Y4566033D01*
X2311996Y4664636D01*
X2475968Y4732556D01*
X2625268Y4762253D01*
X2650038Y4767180D01*
X2827522Y4767180D01*
X2852292Y4762253D01*
G37*
G36*
X5392292Y4762253D02*
G01*
X5541592Y4732556D01*
X5705564Y4664636D01*
X5853134Y4566033D01*
X5978633Y4440534D01*
X6077236Y4292964D01*
X6145156Y4128992D01*
X6179780Y3954921D01*
X6179780Y3777439D01*
X6145156Y3603368D01*
X6077236Y3439396D01*
X5978633Y3291826D01*
X5853134Y3166327D01*
X5705564Y3067724D01*
X5541592Y2999804D01*
X5392292Y2970107D01*
X5367522Y2965180D01*
X5190038Y2965180D01*
X5165268Y2970107D01*
X5015968Y2999804D01*
X4851996Y3067724D01*
X4704426Y3166327D01*
X4578927Y3291826D01*
X4480324Y3439396D01*
X4412404Y3603368D01*
X4377780Y3777439D01*
X4377780Y3954921D01*
X4412404Y4128992D01*
X4480324Y4292964D01*
X4578927Y4440534D01*
X4704426Y4566033D01*
X4851996Y4664636D01*
X5015968Y4732556D01*
X5165268Y4762253D01*
X5190038Y4767180D01*
X5367522Y4767180D01*
X5392292Y4762253D01*
G37*
G36*
X42932292Y4762253D02*
G01*
X43081592Y4732556D01*
X43245564Y4664636D01*
X43393134Y4566033D01*
X43518633Y4440534D01*
X43617236Y4292964D01*
X43685156Y4128992D01*
X43719780Y3954921D01*
X43719780Y3777439D01*
X43685156Y3603368D01*
X43617236Y3439396D01*
X43518633Y3291826D01*
X43393134Y3166327D01*
X43245564Y3067724D01*
X43081592Y2999804D01*
X42932292Y2970107D01*
X42907522Y2965180D01*
X42730038Y2965180D01*
X42705268Y2970107D01*
X42555968Y2999804D01*
X42391996Y3067724D01*
X42244426Y3166327D01*
X42118927Y3291826D01*
X42020324Y3439396D01*
X41952404Y3603368D01*
X41917780Y3777439D01*
X41917780Y3954921D01*
X41952404Y4128992D01*
X42020324Y4292964D01*
X42118927Y4440534D01*
X42244426Y4566033D01*
X42391996Y4664636D01*
X42555968Y4732556D01*
X42705268Y4762253D01*
X42730038Y4767180D01*
X42907522Y4767180D01*
X42932292Y4762253D01*
G37*
G36*
X45472292Y4762253D02*
G01*
X45621592Y4732556D01*
X45785564Y4664636D01*
X45933134Y4566033D01*
X46058633Y4440534D01*
X46157236Y4292964D01*
X46225156Y4128992D01*
X46259780Y3954921D01*
X46259780Y3777439D01*
X46225156Y3603368D01*
X46157236Y3439396D01*
X46058633Y3291826D01*
X45933134Y3166327D01*
X45785564Y3067724D01*
X45621592Y2999804D01*
X45472292Y2970107D01*
X45447522Y2965180D01*
X45270038Y2965180D01*
X45245268Y2970107D01*
X45095968Y2999804D01*
X44931996Y3067724D01*
X44784426Y3166327D01*
X44658927Y3291826D01*
X44560324Y3439396D01*
X44492404Y3603368D01*
X44457780Y3777439D01*
X44457780Y3954921D01*
X44492404Y4128992D01*
X44560324Y4292964D01*
X44658927Y4440534D01*
X44784426Y4566033D01*
X44931996Y4664636D01*
X45095968Y4732556D01*
X45245268Y4762253D01*
X45270038Y4767180D01*
X45447522Y4767180D01*
X45472292Y4762253D01*
G37*
G36*
X8919499Y4371555D02*
G01*
X8956995Y4360180D01*
X8991554Y4341708D01*
X9021847Y4316847D01*
X9046708Y4286554D01*
X9065180Y4251995D01*
X9076555Y4214499D01*
X9081000Y4169362D01*
X9081000Y3530638D01*
X9076555Y3485501D01*
X9065180Y3448005D01*
X9046708Y3413446D01*
X9021847Y3383153D01*
X8991554Y3358292D01*
X8956995Y3339820D01*
X8919499Y3328445D01*
X8874362Y3324000D01*
X8135638Y3324000D01*
X8090501Y3328445D01*
X8053005Y3339820D01*
X8018446Y3358292D01*
X7988153Y3383153D01*
X7963292Y3413446D01*
X7944820Y3448005D01*
X7933445Y3485501D01*
X7929000Y3530638D01*
X7929000Y4169362D01*
X7933445Y4214499D01*
X7944820Y4251995D01*
X7963292Y4286554D01*
X7988153Y4316847D01*
X8018446Y4341708D01*
X8053005Y4360180D01*
X8090501Y4371555D01*
X8135638Y4376000D01*
X8874362Y4376000D01*
X8919499Y4371555D01*
G37*
G36*
X10669499Y4371555D02*
G01*
X10706995Y4360180D01*
X10741554Y4341708D01*
X10771847Y4316847D01*
X10796708Y4286554D01*
X10815180Y4251995D01*
X10826555Y4214499D01*
X10831000Y4169362D01*
X10831000Y3530638D01*
X10826555Y3485501D01*
X10815180Y3448005D01*
X10796708Y3413446D01*
X10771847Y3383153D01*
X10741554Y3358292D01*
X10706995Y3339820D01*
X10669499Y3328445D01*
X10624362Y3324000D01*
X9885638Y3324000D01*
X9840501Y3328445D01*
X9803005Y3339820D01*
X9768446Y3358292D01*
X9738153Y3383153D01*
X9713292Y3413446D01*
X9694820Y3448005D01*
X9683445Y3485501D01*
X9679000Y3530638D01*
X9679000Y4169362D01*
X9683445Y4214499D01*
X9694820Y4251995D01*
X9713292Y4286554D01*
X9738153Y4316847D01*
X9768446Y4341708D01*
X9803005Y4360180D01*
X9840501Y4371555D01*
X9885638Y4376000D01*
X10624362Y4376000D01*
X10669499Y4371555D01*
G37*
G36*
X14055000Y3772000D02*
G01*
X12153000Y3772000D01*
X12153000Y4624000D01*
X14055000Y4624000D01*
X14055000Y3772000D01*
G37*
G36*
X11178499Y6144555D02*
G01*
X11215995Y6133180D01*
X11250554Y6114708D01*
X11280847Y6089847D01*
X11305708Y6059554D01*
X11324180Y6024995D01*
X11335555Y5987499D01*
X11340000Y5942362D01*
X11340000Y5203638D01*
X11335555Y5158501D01*
X11324180Y5121005D01*
X11305708Y5086446D01*
X11280847Y5056153D01*
X11250554Y5031292D01*
X11215995Y5012820D01*
X11178499Y5001445D01*
X11133362Y4997000D01*
X10494638Y4997000D01*
X10449501Y5001445D01*
X10412005Y5012820D01*
X10377446Y5031292D01*
X10347153Y5056153D01*
X10322292Y5086446D01*
X10303820Y5121005D01*
X10292445Y5158501D01*
X10288000Y5203638D01*
X10288000Y5942362D01*
X10292445Y5987499D01*
X10303820Y6024995D01*
X10322292Y6059554D01*
X10347153Y6089847D01*
X10377446Y6114708D01*
X10412005Y6133180D01*
X10449501Y6144555D01*
X10494638Y6149000D01*
X11133362Y6149000D01*
X11178499Y6144555D01*
G37*
G36*
X2852292Y7302253D02*
G01*
X3001592Y7272556D01*
X3165564Y7204636D01*
X3313134Y7106033D01*
X3438633Y6980534D01*
X3537236Y6832964D01*
X3605156Y6668992D01*
X3639780Y6494921D01*
X3639780Y6317439D01*
X3605156Y6143368D01*
X3537236Y5979396D01*
X3438633Y5831826D01*
X3313134Y5706327D01*
X3165564Y5607724D01*
X3001592Y5539804D01*
X2852292Y5510107D01*
X2827522Y5505180D01*
X2650038Y5505180D01*
X2625268Y5510107D01*
X2475968Y5539804D01*
X2311996Y5607724D01*
X2164426Y5706327D01*
X2038927Y5831826D01*
X1940324Y5979396D01*
X1872404Y6143368D01*
X1837780Y6317439D01*
X1837780Y6494921D01*
X1872404Y6668992D01*
X1940324Y6832964D01*
X2038927Y6980534D01*
X2164426Y7106033D01*
X2311996Y7204636D01*
X2475968Y7272556D01*
X2625268Y7302253D01*
X2650038Y7307180D01*
X2827522Y7307180D01*
X2852292Y7302253D01*
G37*
G36*
X42932292Y7302253D02*
G01*
X43081592Y7272556D01*
X43245564Y7204636D01*
X43393134Y7106033D01*
X43518633Y6980534D01*
X43617236Y6832964D01*
X43685156Y6668992D01*
X43719780Y6494921D01*
X43719780Y6317439D01*
X43685156Y6143368D01*
X43617236Y5979396D01*
X43518633Y5831826D01*
X43393134Y5706327D01*
X43245564Y5607724D01*
X43081592Y5539804D01*
X42932292Y5510107D01*
X42907522Y5505180D01*
X42730038Y5505180D01*
X42705268Y5510107D01*
X42555968Y5539804D01*
X42391996Y5607724D01*
X42244426Y5706327D01*
X42118927Y5831826D01*
X42020324Y5979396D01*
X41952404Y6143368D01*
X41917780Y6317439D01*
X41917780Y6494921D01*
X41952404Y6668992D01*
X42020324Y6832964D01*
X42118927Y6980534D01*
X42244426Y7106033D01*
X42391996Y7204636D01*
X42555968Y7272556D01*
X42705268Y7302253D01*
X42730038Y7307180D01*
X42907522Y7307180D01*
X42932292Y7302253D01*
G37*
G36*
X5392292Y7302253D02*
G01*
X5541592Y7272556D01*
X5705564Y7204636D01*
X5853134Y7106033D01*
X5978633Y6980534D01*
X6077236Y6832964D01*
X6145156Y6668992D01*
X6179780Y6494921D01*
X6179780Y6317439D01*
X6145156Y6143368D01*
X6077236Y5979396D01*
X5978633Y5831826D01*
X5853134Y5706327D01*
X5705564Y5607724D01*
X5541592Y5539804D01*
X5392292Y5510107D01*
X5367522Y5505180D01*
X5190038Y5505180D01*
X5165268Y5510107D01*
X5015968Y5539804D01*
X4851996Y5607724D01*
X4704426Y5706327D01*
X4578927Y5831826D01*
X4480324Y5979396D01*
X4412404Y6143368D01*
X4377780Y6317439D01*
X4377780Y6494921D01*
X4412404Y6668992D01*
X4480324Y6832964D01*
X4578927Y6980534D01*
X4704426Y7106033D01*
X4851996Y7204636D01*
X5015968Y7272556D01*
X5165268Y7302253D01*
X5190038Y7307180D01*
X5367522Y7307180D01*
X5392292Y7302253D01*
G37*
G36*
X45472292Y7302253D02*
G01*
X45621592Y7272556D01*
X45785564Y7204636D01*
X45933134Y7106033D01*
X46058633Y6980534D01*
X46157236Y6832964D01*
X46225156Y6668992D01*
X46259780Y6494921D01*
X46259780Y6317439D01*
X46225156Y6143368D01*
X46157236Y5979396D01*
X46058633Y5831826D01*
X45933134Y5706327D01*
X45785564Y5607724D01*
X45621592Y5539804D01*
X45472292Y5510107D01*
X45447522Y5505180D01*
X45270038Y5505180D01*
X45245268Y5510107D01*
X45095968Y5539804D01*
X44931996Y5607724D01*
X44784426Y5706327D01*
X44658927Y5831826D01*
X44560324Y5979396D01*
X44492404Y6143368D01*
X44457780Y6317439D01*
X44457780Y6494921D01*
X44492404Y6668992D01*
X44560324Y6832964D01*
X44658927Y6980534D01*
X44784426Y7106033D01*
X44931996Y7204636D01*
X45095968Y7272556D01*
X45245268Y7302253D01*
X45270038Y7307180D01*
X45447522Y7307180D01*
X45472292Y7302253D01*
G37*
G36*
X20069499Y6731555D02*
G01*
X20106995Y6720180D01*
X20141554Y6701708D01*
X20171847Y6676847D01*
X20196708Y6646554D01*
X20215180Y6611995D01*
X20226555Y6574499D01*
X20231000Y6529362D01*
X20231000Y5890638D01*
X20226555Y5845501D01*
X20215180Y5808005D01*
X20196708Y5773446D01*
X20171847Y5743153D01*
X20141554Y5718292D01*
X20106995Y5699820D01*
X20069499Y5688445D01*
X20024362Y5684000D01*
X19285638Y5684000D01*
X19240501Y5688445D01*
X19203005Y5699820D01*
X19168446Y5718292D01*
X19138153Y5743153D01*
X19113292Y5773446D01*
X19094820Y5808005D01*
X19083445Y5845501D01*
X19079000Y5890638D01*
X19079000Y6529362D01*
X19083445Y6574499D01*
X19094820Y6611995D01*
X19113292Y6646554D01*
X19138153Y6676847D01*
X19168446Y6701708D01*
X19203005Y6720180D01*
X19240501Y6731555D01*
X19285638Y6736000D01*
X20024362Y6736000D01*
X20069499Y6731555D01*
G37*
G36*
X21819499Y6731555D02*
G01*
X21856995Y6720180D01*
X21891554Y6701708D01*
X21921847Y6676847D01*
X21946708Y6646554D01*
X21965180Y6611995D01*
X21976555Y6574499D01*
X21981000Y6529362D01*
X21981000Y5890638D01*
X21976555Y5845501D01*
X21965180Y5808005D01*
X21946708Y5773446D01*
X21921847Y5743153D01*
X21891554Y5718292D01*
X21856995Y5699820D01*
X21819499Y5688445D01*
X21774362Y5684000D01*
X21035638Y5684000D01*
X20990501Y5688445D01*
X20953005Y5699820D01*
X20918446Y5718292D01*
X20888153Y5743153D01*
X20863292Y5773446D01*
X20844820Y5808005D01*
X20833445Y5845501D01*
X20829000Y5890638D01*
X20829000Y6529362D01*
X20833445Y6574499D01*
X20844820Y6611995D01*
X20863292Y6646554D01*
X20888153Y6676847D01*
X20918446Y6701708D01*
X20953005Y6720180D01*
X20990501Y6731555D01*
X21035638Y6736000D01*
X21774362Y6736000D01*
X21819499Y6731555D01*
G37*
G36*
X14055000Y6672000D02*
G01*
X12153000Y6672000D01*
X12153000Y7524000D01*
X14055000Y7524000D01*
X14055000Y6672000D01*
G37*
G36*
X11178499Y7894555D02*
G01*
X11215995Y7883180D01*
X11250554Y7864708D01*
X11280847Y7839847D01*
X11305708Y7809554D01*
X11324180Y7774995D01*
X11335555Y7737499D01*
X11340000Y7692362D01*
X11340000Y6953638D01*
X11335555Y6908501D01*
X11324180Y6871005D01*
X11305708Y6836446D01*
X11280847Y6806153D01*
X11250554Y6781292D01*
X11215995Y6762820D01*
X11178499Y6751445D01*
X11133362Y6747000D01*
X10494638Y6747000D01*
X10449501Y6751445D01*
X10412005Y6762820D01*
X10377446Y6781292D01*
X10347153Y6806153D01*
X10322292Y6836446D01*
X10303820Y6871005D01*
X10292445Y6908501D01*
X10288000Y6953638D01*
X10288000Y7692362D01*
X10292445Y7737499D01*
X10303820Y7774995D01*
X10322292Y7809554D01*
X10347153Y7839847D01*
X10377446Y7864708D01*
X10412005Y7883180D01*
X10449501Y7894555D01*
X10494638Y7899000D01*
X11133362Y7899000D01*
X11178499Y7894555D01*
G37*
G36*
X20059499Y8241555D02*
G01*
X20096995Y8230180D01*
X20131554Y8211708D01*
X20161847Y8186847D01*
X20186708Y8156554D01*
X20205180Y8121995D01*
X20216555Y8084499D01*
X20221000Y8039362D01*
X20221000Y7400638D01*
X20216555Y7355501D01*
X20205180Y7318005D01*
X20186708Y7283446D01*
X20161847Y7253153D01*
X20131554Y7228292D01*
X20096995Y7209820D01*
X20059499Y7198445D01*
X20014362Y7194000D01*
X19275638Y7194000D01*
X19230501Y7198445D01*
X19193005Y7209820D01*
X19158446Y7228292D01*
X19128153Y7253153D01*
X19103292Y7283446D01*
X19084820Y7318005D01*
X19073445Y7355501D01*
X19069000Y7400638D01*
X19069000Y8039362D01*
X19073445Y8084499D01*
X19084820Y8121995D01*
X19103292Y8156554D01*
X19128153Y8186847D01*
X19158446Y8211708D01*
X19193005Y8230180D01*
X19230501Y8241555D01*
X19275638Y8246000D01*
X20014362Y8246000D01*
X20059499Y8241555D01*
G37*
G36*
X21809499Y8241555D02*
G01*
X21846995Y8230180D01*
X21881554Y8211708D01*
X21911847Y8186847D01*
X21936708Y8156554D01*
X21955180Y8121995D01*
X21966555Y8084499D01*
X21971000Y8039362D01*
X21971000Y7400638D01*
X21966555Y7355501D01*
X21955180Y7318005D01*
X21936708Y7283446D01*
X21911847Y7253153D01*
X21881554Y7228292D01*
X21846995Y7209820D01*
X21809499Y7198445D01*
X21764362Y7194000D01*
X21025638Y7194000D01*
X20980501Y7198445D01*
X20943005Y7209820D01*
X20908446Y7228292D01*
X20878153Y7253153D01*
X20853292Y7283446D01*
X20834820Y7318005D01*
X20823445Y7355501D01*
X20819000Y7400638D01*
X20819000Y8039362D01*
X20823445Y8084499D01*
X20834820Y8121995D01*
X20853292Y8156554D01*
X20878153Y8186847D01*
X20908446Y8211708D01*
X20943005Y8230180D01*
X20980501Y8241555D01*
X21025638Y8246000D01*
X21764362Y8246000D01*
X21809499Y8241555D01*
G37*
G36*
X29085099Y9011555D02*
G01*
X29122595Y9000180D01*
X29157154Y8981708D01*
X29187447Y8956847D01*
X29212308Y8926554D01*
X29230780Y8891995D01*
X29242155Y8854499D01*
X29246600Y8809362D01*
X29246600Y8070638D01*
X29242155Y8025501D01*
X29230780Y7988005D01*
X29212308Y7953446D01*
X29187447Y7923153D01*
X29157154Y7898292D01*
X29122595Y7879820D01*
X29085099Y7868445D01*
X29039962Y7864000D01*
X28401238Y7864000D01*
X28356101Y7868445D01*
X28318605Y7879820D01*
X28284046Y7898292D01*
X28253753Y7923153D01*
X28228892Y7953446D01*
X28210420Y7988005D01*
X28199045Y8025501D01*
X28194600Y8070638D01*
X28194600Y8809362D01*
X28199045Y8854499D01*
X28210420Y8891995D01*
X28228892Y8926554D01*
X28253753Y8956847D01*
X28284046Y8981708D01*
X28318605Y9000180D01*
X28356101Y9011555D01*
X28401238Y9016000D01*
X29039962Y9016000D01*
X29085099Y9011555D01*
G37*
G36*
X27561099Y9011555D02*
G01*
X27598595Y9000180D01*
X27633154Y8981708D01*
X27663447Y8956847D01*
X27688308Y8926554D01*
X27706780Y8891995D01*
X27718155Y8854499D01*
X27722600Y8809362D01*
X27722600Y8070638D01*
X27718155Y8025501D01*
X27706780Y7988005D01*
X27688308Y7953446D01*
X27663447Y7923153D01*
X27633154Y7898292D01*
X27598595Y7879820D01*
X27561099Y7868445D01*
X27515962Y7864000D01*
X26877238Y7864000D01*
X26832101Y7868445D01*
X26794605Y7879820D01*
X26760046Y7898292D01*
X26729753Y7923153D01*
X26704892Y7953446D01*
X26686420Y7988005D01*
X26675045Y8025501D01*
X26670600Y8070638D01*
X26670600Y8809362D01*
X26675045Y8854499D01*
X26686420Y8891995D01*
X26704892Y8926554D01*
X26729753Y8956847D01*
X26760046Y8981708D01*
X26794605Y9000180D01*
X26832101Y9011555D01*
X26877238Y9016000D01*
X27515962Y9016000D01*
X27561099Y9011555D01*
G37*
G36*
X5392292Y9842253D02*
G01*
X5541592Y9812556D01*
X5705564Y9744636D01*
X5853134Y9646033D01*
X5978633Y9520534D01*
X6077236Y9372964D01*
X6145156Y9208992D01*
X6179780Y9034921D01*
X6179780Y8857439D01*
X6145156Y8683368D01*
X6077236Y8519396D01*
X5978633Y8371826D01*
X5853134Y8246327D01*
X5705564Y8147724D01*
X5541592Y8079804D01*
X5392292Y8050107D01*
X5367522Y8045180D01*
X5190038Y8045180D01*
X5165268Y8050107D01*
X5015968Y8079804D01*
X4851996Y8147724D01*
X4704426Y8246327D01*
X4578927Y8371826D01*
X4480324Y8519396D01*
X4412404Y8683368D01*
X4377780Y8857439D01*
X4377780Y9034921D01*
X4412404Y9208992D01*
X4480324Y9372964D01*
X4578927Y9520534D01*
X4704426Y9646033D01*
X4851996Y9744636D01*
X5015968Y9812556D01*
X5165268Y9842253D01*
X5190038Y9847180D01*
X5367522Y9847180D01*
X5392292Y9842253D01*
G37*
G36*
X2852292Y9842253D02*
G01*
X3001592Y9812556D01*
X3165564Y9744636D01*
X3313134Y9646033D01*
X3438633Y9520534D01*
X3537236Y9372964D01*
X3605156Y9208992D01*
X3639780Y9034921D01*
X3639780Y8857439D01*
X3605156Y8683368D01*
X3537236Y8519396D01*
X3438633Y8371826D01*
X3313134Y8246327D01*
X3165564Y8147724D01*
X3001592Y8079804D01*
X2852292Y8050107D01*
X2827522Y8045180D01*
X2650038Y8045180D01*
X2625268Y8050107D01*
X2475968Y8079804D01*
X2311996Y8147724D01*
X2164426Y8246327D01*
X2038927Y8371826D01*
X1940324Y8519396D01*
X1872404Y8683368D01*
X1837780Y8857439D01*
X1837780Y9034921D01*
X1872404Y9208992D01*
X1940324Y9372964D01*
X2038927Y9520534D01*
X2164426Y9646033D01*
X2311996Y9744636D01*
X2475968Y9812556D01*
X2625268Y9842253D01*
X2650038Y9847180D01*
X2827522Y9847180D01*
X2852292Y9842253D01*
G37*
G36*
X45472292Y9842253D02*
G01*
X45621592Y9812556D01*
X45785564Y9744636D01*
X45933134Y9646033D01*
X46058633Y9520534D01*
X46157236Y9372964D01*
X46225156Y9208992D01*
X46259780Y9034921D01*
X46259780Y8857439D01*
X46225156Y8683368D01*
X46157236Y8519396D01*
X46058633Y8371826D01*
X45933134Y8246327D01*
X45785564Y8147724D01*
X45621592Y8079804D01*
X45472292Y8050107D01*
X45447522Y8045180D01*
X45270038Y8045180D01*
X45245268Y8050107D01*
X45095968Y8079804D01*
X44931996Y8147724D01*
X44784426Y8246327D01*
X44658927Y8371826D01*
X44560324Y8519396D01*
X44492404Y8683368D01*
X44457780Y8857439D01*
X44457780Y9034921D01*
X44492404Y9208992D01*
X44560324Y9372964D01*
X44658927Y9520534D01*
X44784426Y9646033D01*
X44931996Y9744636D01*
X45095968Y9812556D01*
X45245268Y9842253D01*
X45270038Y9847180D01*
X45447522Y9847180D01*
X45472292Y9842253D01*
G37*
G36*
X42932292Y9842253D02*
G01*
X43081592Y9812556D01*
X43245564Y9744636D01*
X43393134Y9646033D01*
X43518633Y9520534D01*
X43617236Y9372964D01*
X43685156Y9208992D01*
X43719780Y9034921D01*
X43719780Y8857439D01*
X43685156Y8683368D01*
X43617236Y8519396D01*
X43518633Y8371826D01*
X43393134Y8246327D01*
X43245564Y8147724D01*
X43081592Y8079804D01*
X42932292Y8050107D01*
X42907522Y8045180D01*
X42730038Y8045180D01*
X42705268Y8050107D01*
X42555968Y8079804D01*
X42391996Y8147724D01*
X42244426Y8246327D01*
X42118927Y8371826D01*
X42020324Y8519396D01*
X41952404Y8683368D01*
X41917780Y8857439D01*
X41917780Y9034921D01*
X41952404Y9208992D01*
X42020324Y9372964D01*
X42118927Y9520534D01*
X42244426Y9646033D01*
X42391996Y9744636D01*
X42555968Y9812556D01*
X42705268Y9842253D01*
X42730038Y9847180D01*
X42907522Y9847180D01*
X42932292Y9842253D01*
G37*
G36*
X15008499Y10394555D02*
G01*
X15045995Y10383180D01*
X15080554Y10364708D01*
X15110847Y10339847D01*
X15135708Y10309554D01*
X15154180Y10274995D01*
X15165555Y10237499D01*
X15170000Y10192362D01*
X15170000Y9453638D01*
X15165555Y9408501D01*
X15154180Y9371005D01*
X15135708Y9336446D01*
X15110847Y9306153D01*
X15080554Y9281292D01*
X15045995Y9262820D01*
X15008499Y9251445D01*
X14963362Y9247000D01*
X14324638Y9247000D01*
X14279501Y9251445D01*
X14242005Y9262820D01*
X14207446Y9281292D01*
X14177153Y9306153D01*
X14152292Y9336446D01*
X14133820Y9371005D01*
X14122445Y9408501D01*
X14118000Y9453638D01*
X14118000Y10192362D01*
X14122445Y10237499D01*
X14133820Y10274995D01*
X14152292Y10309554D01*
X14177153Y10339847D01*
X14207446Y10364708D01*
X14242005Y10383180D01*
X14279501Y10394555D01*
X14324638Y10399000D01*
X14963362Y10399000D01*
X15008499Y10394555D01*
G37*
G36*
X13488499Y10394555D02*
G01*
X13525995Y10383180D01*
X13560554Y10364708D01*
X13590847Y10339847D01*
X13615708Y10309554D01*
X13634180Y10274995D01*
X13645555Y10237499D01*
X13650000Y10192362D01*
X13650000Y9453638D01*
X13645555Y9408501D01*
X13634180Y9371005D01*
X13615708Y9336446D01*
X13590847Y9306153D01*
X13560554Y9281292D01*
X13525995Y9262820D01*
X13488499Y9251445D01*
X13443362Y9247000D01*
X12804638Y9247000D01*
X12759501Y9251445D01*
X12722005Y9262820D01*
X12687446Y9281292D01*
X12657153Y9306153D01*
X12632292Y9336446D01*
X12613820Y9371005D01*
X12602445Y9408501D01*
X12598000Y9453638D01*
X12598000Y10192362D01*
X12602445Y10237499D01*
X12613820Y10274995D01*
X12632292Y10309554D01*
X12657153Y10339847D01*
X12687446Y10364708D01*
X12722005Y10383180D01*
X12759501Y10394555D01*
X12804638Y10399000D01*
X13443362Y10399000D01*
X13488499Y10394555D01*
G37*
G36*
X11978499Y10394555D02*
G01*
X12015995Y10383180D01*
X12050554Y10364708D01*
X12080847Y10339847D01*
X12105708Y10309554D01*
X12124180Y10274995D01*
X12135555Y10237499D01*
X12140000Y10192362D01*
X12140000Y9453638D01*
X12135555Y9408501D01*
X12124180Y9371005D01*
X12105708Y9336446D01*
X12080847Y9306153D01*
X12050554Y9281292D01*
X12015995Y9262820D01*
X11978499Y9251445D01*
X11933362Y9247000D01*
X11294638Y9247000D01*
X11249501Y9251445D01*
X11212005Y9262820D01*
X11177446Y9281292D01*
X11147153Y9306153D01*
X11122292Y9336446D01*
X11103820Y9371005D01*
X11092445Y9408501D01*
X11088000Y9453638D01*
X11088000Y10192362D01*
X11092445Y10237499D01*
X11103820Y10274995D01*
X11122292Y10309554D01*
X11147153Y10339847D01*
X11177446Y10364708D01*
X11212005Y10383180D01*
X11249501Y10394555D01*
X11294638Y10399000D01*
X11933362Y10399000D01*
X11978499Y10394555D01*
G37*
G36*
X29085099Y10761555D02*
G01*
X29122595Y10750180D01*
X29157154Y10731708D01*
X29187447Y10706847D01*
X29212308Y10676554D01*
X29230780Y10641995D01*
X29242155Y10604499D01*
X29246600Y10559362D01*
X29246600Y9820638D01*
X29242155Y9775501D01*
X29230780Y9738005D01*
X29212308Y9703446D01*
X29187447Y9673153D01*
X29157154Y9648292D01*
X29122595Y9629820D01*
X29085099Y9618445D01*
X29039962Y9614000D01*
X28401238Y9614000D01*
X28356101Y9618445D01*
X28318605Y9629820D01*
X28284046Y9648292D01*
X28253753Y9673153D01*
X28228892Y9703446D01*
X28210420Y9738005D01*
X28199045Y9775501D01*
X28194600Y9820638D01*
X28194600Y10559362D01*
X28199045Y10604499D01*
X28210420Y10641995D01*
X28228892Y10676554D01*
X28253753Y10706847D01*
X28284046Y10731708D01*
X28318605Y10750180D01*
X28356101Y10761555D01*
X28401238Y10766000D01*
X29039962Y10766000D01*
X29085099Y10761555D01*
G37*
G36*
X27561099Y10761555D02*
G01*
X27598595Y10750180D01*
X27633154Y10731708D01*
X27663447Y10706847D01*
X27688308Y10676554D01*
X27706780Y10641995D01*
X27718155Y10604499D01*
X27722600Y10559362D01*
X27722600Y9820638D01*
X27718155Y9775501D01*
X27706780Y9738005D01*
X27688308Y9703446D01*
X27663447Y9673153D01*
X27633154Y9648292D01*
X27598595Y9629820D01*
X27561099Y9618445D01*
X27515962Y9614000D01*
X26877238Y9614000D01*
X26832101Y9618445D01*
X26794605Y9629820D01*
X26760046Y9648292D01*
X26729753Y9673153D01*
X26704892Y9703446D01*
X26686420Y9738005D01*
X26675045Y9775501D01*
X26670600Y9820638D01*
X26670600Y10559362D01*
X26675045Y10604499D01*
X26686420Y10641995D01*
X26704892Y10676554D01*
X26729753Y10706847D01*
X26760046Y10731708D01*
X26794605Y10750180D01*
X26832101Y10761555D01*
X26877238Y10766000D01*
X27515962Y10766000D01*
X27561099Y10761555D01*
G37*
G36*
X25948674Y10986535D02*
G01*
X25986367Y10975101D01*
X26021103Y10956534D01*
X26051548Y10931548D01*
X26076534Y10901103D01*
X26095101Y10866367D01*
X26106535Y10828674D01*
X26111000Y10783339D01*
X26111000Y9946661D01*
X26106535Y9901326D01*
X26095101Y9863633D01*
X26076534Y9828897D01*
X26051548Y9798452D01*
X26021103Y9773466D01*
X25986367Y9754899D01*
X25948674Y9743465D01*
X25903339Y9739000D01*
X24816661Y9739000D01*
X24771326Y9743465D01*
X24733633Y9754899D01*
X24698897Y9773466D01*
X24668452Y9798452D01*
X24643466Y9828897D01*
X24624899Y9863633D01*
X24613465Y9901326D01*
X24609000Y9946661D01*
X24609000Y10783339D01*
X24613465Y10828674D01*
X24624899Y10866367D01*
X24643466Y10901103D01*
X24668452Y10931548D01*
X24698897Y10956534D01*
X24733633Y10975101D01*
X24771326Y10986535D01*
X24816661Y10991000D01*
X25903339Y10991000D01*
X25948674Y10986535D01*
G37*
G36*
X42932292Y12382253D02*
G01*
X43081592Y12352556D01*
X43245564Y12284636D01*
X43393134Y12186033D01*
X43518633Y12060534D01*
X43617236Y11912964D01*
X43685156Y11748992D01*
X43719780Y11574921D01*
X43719780Y11397439D01*
X43685156Y11223368D01*
X43617236Y11059396D01*
X43518633Y10911826D01*
X43393134Y10786327D01*
X43245564Y10687724D01*
X43081592Y10619804D01*
X42932292Y10590107D01*
X42907522Y10585180D01*
X42730038Y10585180D01*
X42705268Y10590107D01*
X42555968Y10619804D01*
X42391996Y10687724D01*
X42244426Y10786327D01*
X42118927Y10911826D01*
X42020324Y11059396D01*
X41952404Y11223368D01*
X41917780Y11397439D01*
X41917780Y11574921D01*
X41952404Y11748992D01*
X42020324Y11912964D01*
X42118927Y12060534D01*
X42244426Y12186033D01*
X42391996Y12284636D01*
X42555968Y12352556D01*
X42705268Y12382253D01*
X42730038Y12387180D01*
X42907522Y12387180D01*
X42932292Y12382253D01*
G37*
G36*
X5392292Y12382253D02*
G01*
X5541592Y12352556D01*
X5705564Y12284636D01*
X5853134Y12186033D01*
X5978633Y12060534D01*
X6077236Y11912964D01*
X6145156Y11748992D01*
X6179780Y11574921D01*
X6179780Y11397439D01*
X6145156Y11223368D01*
X6077236Y11059396D01*
X5978633Y10911826D01*
X5853134Y10786327D01*
X5705564Y10687724D01*
X5541592Y10619804D01*
X5392292Y10590107D01*
X5367522Y10585180D01*
X5190038Y10585180D01*
X5165268Y10590107D01*
X5015968Y10619804D01*
X4851996Y10687724D01*
X4704426Y10786327D01*
X4578927Y10911826D01*
X4480324Y11059396D01*
X4412404Y11223368D01*
X4377780Y11397439D01*
X4377780Y11574921D01*
X4412404Y11748992D01*
X4480324Y11912964D01*
X4578927Y12060534D01*
X4704426Y12186033D01*
X4851996Y12284636D01*
X5015968Y12352556D01*
X5165268Y12382253D01*
X5190038Y12387180D01*
X5367522Y12387180D01*
X5392292Y12382253D01*
G37*
G36*
X45472292Y12382253D02*
G01*
X45621592Y12352556D01*
X45785564Y12284636D01*
X45933134Y12186033D01*
X46058633Y12060534D01*
X46157236Y11912964D01*
X46225156Y11748992D01*
X46259780Y11574921D01*
X46259780Y11397439D01*
X46225156Y11223368D01*
X46157236Y11059396D01*
X46058633Y10911826D01*
X45933134Y10786327D01*
X45785564Y10687724D01*
X45621592Y10619804D01*
X45472292Y10590107D01*
X45447522Y10585180D01*
X45270038Y10585180D01*
X45245268Y10590107D01*
X45095968Y10619804D01*
X44931996Y10687724D01*
X44784426Y10786327D01*
X44658927Y10911826D01*
X44560324Y11059396D01*
X44492404Y11223368D01*
X44457780Y11397439D01*
X44457780Y11574921D01*
X44492404Y11748992D01*
X44560324Y11912964D01*
X44658927Y12060534D01*
X44784426Y12186033D01*
X44931996Y12284636D01*
X45095968Y12352556D01*
X45245268Y12382253D01*
X45270038Y12387180D01*
X45447522Y12387180D01*
X45472292Y12382253D01*
G37*
G36*
X2852292Y12382253D02*
G01*
X3001592Y12352556D01*
X3165564Y12284636D01*
X3313134Y12186033D01*
X3438633Y12060534D01*
X3537236Y11912964D01*
X3605156Y11748992D01*
X3639780Y11574921D01*
X3639780Y11397439D01*
X3605156Y11223368D01*
X3537236Y11059396D01*
X3438633Y10911826D01*
X3313134Y10786327D01*
X3165564Y10687724D01*
X3001592Y10619804D01*
X2852292Y10590107D01*
X2827522Y10585180D01*
X2650038Y10585180D01*
X2625268Y10590107D01*
X2475968Y10619804D01*
X2311996Y10687724D01*
X2164426Y10786327D01*
X2038927Y10911826D01*
X1940324Y11059396D01*
X1872404Y11223368D01*
X1837780Y11397439D01*
X1837780Y11574921D01*
X1872404Y11748992D01*
X1940324Y11912964D01*
X2038927Y12060534D01*
X2164426Y12186033D01*
X2311996Y12284636D01*
X2475968Y12352556D01*
X2625268Y12382253D01*
X2650038Y12387180D01*
X2827522Y12387180D01*
X2852292Y12382253D01*
G37*
G36*
X35169499Y11711555D02*
G01*
X35206995Y11700180D01*
X35241554Y11681708D01*
X35271847Y11656847D01*
X35296708Y11626554D01*
X35315180Y11591995D01*
X35326555Y11554499D01*
X35331000Y11509362D01*
X35331000Y10870638D01*
X35326555Y10825501D01*
X35315180Y10788005D01*
X35296708Y10753446D01*
X35271847Y10723153D01*
X35241554Y10698292D01*
X35206995Y10679820D01*
X35169499Y10668445D01*
X35124362Y10664000D01*
X34385638Y10664000D01*
X34340501Y10668445D01*
X34303005Y10679820D01*
X34268446Y10698292D01*
X34238153Y10723153D01*
X34213292Y10753446D01*
X34194820Y10788005D01*
X34183445Y10825501D01*
X34179000Y10870638D01*
X34179000Y11509362D01*
X34183445Y11554499D01*
X34194820Y11591995D01*
X34213292Y11626554D01*
X34238153Y11656847D01*
X34268446Y11681708D01*
X34303005Y11700180D01*
X34340501Y11711555D01*
X34385638Y11716000D01*
X35124362Y11716000D01*
X35169499Y11711555D01*
G37*
G36*
X33419499Y11711555D02*
G01*
X33456995Y11700180D01*
X33491554Y11681708D01*
X33521847Y11656847D01*
X33546708Y11626554D01*
X33565180Y11591995D01*
X33576555Y11554499D01*
X33581000Y11509362D01*
X33581000Y10870638D01*
X33576555Y10825501D01*
X33565180Y10788005D01*
X33546708Y10753446D01*
X33521847Y10723153D01*
X33491554Y10698292D01*
X33456995Y10679820D01*
X33419499Y10668445D01*
X33374362Y10664000D01*
X32635638Y10664000D01*
X32590501Y10668445D01*
X32553005Y10679820D01*
X32518446Y10698292D01*
X32488153Y10723153D01*
X32463292Y10753446D01*
X32444820Y10788005D01*
X32433445Y10825501D01*
X32429000Y10870638D01*
X32429000Y11509362D01*
X32433445Y11554499D01*
X32444820Y11591995D01*
X32463292Y11626554D01*
X32488153Y11656847D01*
X32518446Y11681708D01*
X32553005Y11700180D01*
X32590501Y11711555D01*
X32635638Y11716000D01*
X33374362Y11716000D01*
X33419499Y11711555D01*
G37*
G36*
X15008499Y12144555D02*
G01*
X15045995Y12133180D01*
X15080554Y12114708D01*
X15110847Y12089847D01*
X15135708Y12059554D01*
X15154180Y12024995D01*
X15165555Y11987499D01*
X15170000Y11942362D01*
X15170000Y11203638D01*
X15165555Y11158501D01*
X15154180Y11121005D01*
X15135708Y11086446D01*
X15110847Y11056153D01*
X15080554Y11031292D01*
X15045995Y11012820D01*
X15008499Y11001445D01*
X14963362Y10997000D01*
X14324638Y10997000D01*
X14279501Y11001445D01*
X14242005Y11012820D01*
X14207446Y11031292D01*
X14177153Y11056153D01*
X14152292Y11086446D01*
X14133820Y11121005D01*
X14122445Y11158501D01*
X14118000Y11203638D01*
X14118000Y11942362D01*
X14122445Y11987499D01*
X14133820Y12024995D01*
X14152292Y12059554D01*
X14177153Y12089847D01*
X14207446Y12114708D01*
X14242005Y12133180D01*
X14279501Y12144555D01*
X14324638Y12149000D01*
X14963362Y12149000D01*
X15008499Y12144555D01*
G37*
G36*
X13488499Y12144555D02*
G01*
X13525995Y12133180D01*
X13560554Y12114708D01*
X13590847Y12089847D01*
X13615708Y12059554D01*
X13634180Y12024995D01*
X13645555Y11987499D01*
X13650000Y11942362D01*
X13650000Y11203638D01*
X13645555Y11158501D01*
X13634180Y11121005D01*
X13615708Y11086446D01*
X13590847Y11056153D01*
X13560554Y11031292D01*
X13525995Y11012820D01*
X13488499Y11001445D01*
X13443362Y10997000D01*
X12804638Y10997000D01*
X12759501Y11001445D01*
X12722005Y11012820D01*
X12687446Y11031292D01*
X12657153Y11056153D01*
X12632292Y11086446D01*
X12613820Y11121005D01*
X12602445Y11158501D01*
X12598000Y11203638D01*
X12598000Y11942362D01*
X12602445Y11987499D01*
X12613820Y12024995D01*
X12632292Y12059554D01*
X12657153Y12089847D01*
X12687446Y12114708D01*
X12722005Y12133180D01*
X12759501Y12144555D01*
X12804638Y12149000D01*
X13443362Y12149000D01*
X13488499Y12144555D01*
G37*
G36*
X11978499Y12144555D02*
G01*
X12015995Y12133180D01*
X12050554Y12114708D01*
X12080847Y12089847D01*
X12105708Y12059554D01*
X12124180Y12024995D01*
X12135555Y11987499D01*
X12140000Y11942362D01*
X12140000Y11203638D01*
X12135555Y11158501D01*
X12124180Y11121005D01*
X12105708Y11086446D01*
X12080847Y11056153D01*
X12050554Y11031292D01*
X12015995Y11012820D01*
X11978499Y11001445D01*
X11933362Y10997000D01*
X11294638Y10997000D01*
X11249501Y11001445D01*
X11212005Y11012820D01*
X11177446Y11031292D01*
X11147153Y11056153D01*
X11122292Y11086446D01*
X11103820Y11121005D01*
X11092445Y11158501D01*
X11088000Y11203638D01*
X11088000Y11942362D01*
X11092445Y11987499D01*
X11103820Y12024995D01*
X11122292Y12059554D01*
X11147153Y12089847D01*
X11177446Y12114708D01*
X11212005Y12133180D01*
X11249501Y12144555D01*
X11294638Y12149000D01*
X11933362Y12149000D01*
X11978499Y12144555D01*
G37*
G36*
X25948674Y13036535D02*
G01*
X25986367Y13025101D01*
X26021103Y13006534D01*
X26051548Y12981548D01*
X26076534Y12951103D01*
X26095101Y12916367D01*
X26106535Y12878674D01*
X26111000Y12833339D01*
X26111000Y11996661D01*
X26106535Y11951326D01*
X26095101Y11913633D01*
X26076534Y11878897D01*
X26051548Y11848452D01*
X26021103Y11823466D01*
X25986367Y11804899D01*
X25948674Y11793465D01*
X25903339Y11789000D01*
X24816661Y11789000D01*
X24771326Y11793465D01*
X24733633Y11804899D01*
X24698897Y11823466D01*
X24668452Y11848452D01*
X24643466Y11878897D01*
X24624899Y11913633D01*
X24613465Y11951326D01*
X24609000Y11996661D01*
X24609000Y12833339D01*
X24613465Y12878674D01*
X24624899Y12916367D01*
X24643466Y12951103D01*
X24668452Y12981548D01*
X24698897Y13006534D01*
X24733633Y13025101D01*
X24771326Y13036535D01*
X24816661Y13041000D01*
X25903339Y13041000D01*
X25948674Y13036535D01*
G37*
G36*
X21512126Y13810858D02*
G01*
X21549819Y13799424D01*
X21584555Y13780857D01*
X21615000Y13755871D01*
X21639986Y13725426D01*
X21658553Y13690690D01*
X21669987Y13652997D01*
X21674452Y13607662D01*
X21674452Y12770984D01*
X21669987Y12725649D01*
X21658553Y12687956D01*
X21639986Y12653220D01*
X21615000Y12622775D01*
X21584555Y12597789D01*
X21549819Y12579222D01*
X21512126Y12567788D01*
X21466791Y12563323D01*
X20380113Y12563323D01*
X20334778Y12567788D01*
X20297085Y12579222D01*
X20262349Y12597789D01*
X20231904Y12622775D01*
X20206918Y12653220D01*
X20188351Y12687956D01*
X20176917Y12725649D01*
X20172452Y12770984D01*
X20172452Y13607662D01*
X20176917Y13652997D01*
X20188351Y13690690D01*
X20206918Y13725426D01*
X20231904Y13755871D01*
X20262349Y13780857D01*
X20297085Y13799424D01*
X20334778Y13810858D01*
X20380113Y13815323D01*
X21466791Y13815323D01*
X21512126Y13810858D01*
G37*
G36*
X23487126Y13810858D02*
G01*
X23524819Y13799424D01*
X23559555Y13780857D01*
X23590000Y13755871D01*
X23614986Y13725426D01*
X23633553Y13690690D01*
X23644987Y13652997D01*
X23649452Y13607662D01*
X23649452Y12770984D01*
X23644987Y12725649D01*
X23633553Y12687956D01*
X23614986Y12653220D01*
X23590000Y12622775D01*
X23559555Y12597789D01*
X23524819Y12579222D01*
X23487126Y12567788D01*
X23441791Y12563323D01*
X22355113Y12563323D01*
X22309778Y12567788D01*
X22272085Y12579222D01*
X22237349Y12597789D01*
X22206904Y12622775D01*
X22181918Y12653220D01*
X22163351Y12687956D01*
X22151917Y12725649D01*
X22147452Y12770984D01*
X22147452Y13607662D01*
X22151917Y13652997D01*
X22163351Y13690690D01*
X22181918Y13725426D01*
X22206904Y13755871D01*
X22237349Y13780857D01*
X22272085Y13799424D01*
X22309778Y13810858D01*
X22355113Y13815323D01*
X23441791Y13815323D01*
X23487126Y13810858D01*
G37*
G36*
X45472292Y14922253D02*
G01*
X45621592Y14892556D01*
X45785564Y14824636D01*
X45933134Y14726033D01*
X46058633Y14600534D01*
X46157236Y14452964D01*
X46225156Y14288992D01*
X46259780Y14114921D01*
X46259780Y13937439D01*
X46225156Y13763368D01*
X46157236Y13599396D01*
X46058633Y13451826D01*
X45933134Y13326327D01*
X45785564Y13227724D01*
X45621592Y13159804D01*
X45472292Y13130107D01*
X45447522Y13125180D01*
X45270038Y13125180D01*
X45245268Y13130107D01*
X45095968Y13159804D01*
X44931996Y13227724D01*
X44784426Y13326327D01*
X44658927Y13451826D01*
X44560324Y13599396D01*
X44492404Y13763368D01*
X44457780Y13937439D01*
X44457780Y14114921D01*
X44492404Y14288992D01*
X44560324Y14452964D01*
X44658927Y14600534D01*
X44784426Y14726033D01*
X44931996Y14824636D01*
X45095968Y14892556D01*
X45245268Y14922253D01*
X45270038Y14927180D01*
X45447522Y14927180D01*
X45472292Y14922253D01*
G37*
G36*
X2852292Y14922253D02*
G01*
X3001592Y14892556D01*
X3165564Y14824636D01*
X3313134Y14726033D01*
X3438633Y14600534D01*
X3537236Y14452964D01*
X3605156Y14288992D01*
X3639780Y14114921D01*
X3639780Y13937439D01*
X3605156Y13763368D01*
X3537236Y13599396D01*
X3438633Y13451826D01*
X3313134Y13326327D01*
X3165564Y13227724D01*
X3001592Y13159804D01*
X2852292Y13130107D01*
X2827522Y13125180D01*
X2650038Y13125180D01*
X2625268Y13130107D01*
X2475968Y13159804D01*
X2311996Y13227724D01*
X2164426Y13326327D01*
X2038927Y13451826D01*
X1940324Y13599396D01*
X1872404Y13763368D01*
X1837780Y13937439D01*
X1837780Y14114921D01*
X1872404Y14288992D01*
X1940324Y14452964D01*
X2038927Y14600534D01*
X2164426Y14726033D01*
X2311996Y14824636D01*
X2475968Y14892556D01*
X2625268Y14922253D01*
X2650038Y14927180D01*
X2827522Y14927180D01*
X2852292Y14922253D01*
G37*
G36*
X42932292Y14922253D02*
G01*
X43081592Y14892556D01*
X43245564Y14824636D01*
X43393134Y14726033D01*
X43518633Y14600534D01*
X43617236Y14452964D01*
X43685156Y14288992D01*
X43719780Y14114921D01*
X43719780Y13937439D01*
X43685156Y13763368D01*
X43617236Y13599396D01*
X43518633Y13451826D01*
X43393134Y13326327D01*
X43245564Y13227724D01*
X43081592Y13159804D01*
X42932292Y13130107D01*
X42907522Y13125180D01*
X42730038Y13125180D01*
X42705268Y13130107D01*
X42555968Y13159804D01*
X42391996Y13227724D01*
X42244426Y13326327D01*
X42118927Y13451826D01*
X42020324Y13599396D01*
X41952404Y13763368D01*
X41917780Y13937439D01*
X41917780Y14114921D01*
X41952404Y14288992D01*
X42020324Y14452964D01*
X42118927Y14600534D01*
X42244426Y14726033D01*
X42391996Y14824636D01*
X42555968Y14892556D01*
X42705268Y14922253D01*
X42730038Y14927180D01*
X42907522Y14927180D01*
X42932292Y14922253D01*
G37*
G36*
X5392292Y14922253D02*
G01*
X5541592Y14892556D01*
X5705564Y14824636D01*
X5853134Y14726033D01*
X5978633Y14600534D01*
X6077236Y14452964D01*
X6145156Y14288992D01*
X6179780Y14114921D01*
X6179780Y13937439D01*
X6145156Y13763368D01*
X6077236Y13599396D01*
X5978633Y13451826D01*
X5853134Y13326327D01*
X5705564Y13227724D01*
X5541592Y13159804D01*
X5392292Y13130107D01*
X5367522Y13125180D01*
X5190038Y13125180D01*
X5165268Y13130107D01*
X5015968Y13159804D01*
X4851996Y13227724D01*
X4704426Y13326327D01*
X4578927Y13451826D01*
X4480324Y13599396D01*
X4412404Y13763368D01*
X4377780Y13937439D01*
X4377780Y14114921D01*
X4412404Y14288992D01*
X4480324Y14452964D01*
X4578927Y14600534D01*
X4704426Y14726033D01*
X4851996Y14824636D01*
X5015968Y14892556D01*
X5165268Y14922253D01*
X5190038Y14927180D01*
X5367522Y14927180D01*
X5392292Y14922253D01*
G37*
G36*
X35264499Y14896555D02*
G01*
X35301995Y14885180D01*
X35336554Y14866708D01*
X35366847Y14841847D01*
X35391708Y14811554D01*
X35410180Y14776995D01*
X35421555Y14739499D01*
X35426000Y14694362D01*
X35426000Y13955638D01*
X35421555Y13910501D01*
X35410180Y13873005D01*
X35391708Y13838446D01*
X35366847Y13808153D01*
X35336554Y13783292D01*
X35301995Y13764820D01*
X35264499Y13753445D01*
X35219362Y13749000D01*
X34580638Y13749000D01*
X34535501Y13753445D01*
X34498005Y13764820D01*
X34463446Y13783292D01*
X34433153Y13808153D01*
X34408292Y13838446D01*
X34389820Y13873005D01*
X34378445Y13910501D01*
X34374000Y13955638D01*
X34374000Y14694362D01*
X34378445Y14739499D01*
X34389820Y14776995D01*
X34408292Y14811554D01*
X34433153Y14841847D01*
X34463446Y14866708D01*
X34498005Y14885180D01*
X34535501Y14896555D01*
X34580638Y14901000D01*
X35219362Y14901000D01*
X35264499Y14896555D01*
G37*
G36*
X23487126Y15860858D02*
G01*
X23524819Y15849424D01*
X23559555Y15830857D01*
X23590000Y15805871D01*
X23614986Y15775426D01*
X23633553Y15740690D01*
X23644987Y15702997D01*
X23649452Y15657662D01*
X23649452Y14820984D01*
X23644987Y14775649D01*
X23633553Y14737956D01*
X23614986Y14703220D01*
X23590000Y14672775D01*
X23559555Y14647789D01*
X23524819Y14629222D01*
X23487126Y14617788D01*
X23441791Y14613323D01*
X22355113Y14613323D01*
X22309778Y14617788D01*
X22272085Y14629222D01*
X22237349Y14647789D01*
X22206904Y14672775D01*
X22181918Y14703220D01*
X22163351Y14737956D01*
X22151917Y14775649D01*
X22147452Y14820984D01*
X22147452Y15657662D01*
X22151917Y15702997D01*
X22163351Y15740690D01*
X22181918Y15775426D01*
X22206904Y15805871D01*
X22237349Y15830857D01*
X22272085Y15849424D01*
X22309778Y15860858D01*
X22355113Y15865323D01*
X23441791Y15865323D01*
X23487126Y15860858D01*
G37*
G36*
X21512126Y15860858D02*
G01*
X21549819Y15849424D01*
X21584555Y15830857D01*
X21615000Y15805871D01*
X21639986Y15775426D01*
X21658553Y15740690D01*
X21669987Y15702997D01*
X21674452Y15657662D01*
X21674452Y14820984D01*
X21669987Y14775649D01*
X21658553Y14737956D01*
X21639986Y14703220D01*
X21615000Y14672775D01*
X21584555Y14647789D01*
X21549819Y14629222D01*
X21512126Y14617788D01*
X21466791Y14613323D01*
X20380113Y14613323D01*
X20334778Y14617788D01*
X20297085Y14629222D01*
X20262349Y14647789D01*
X20231904Y14672775D01*
X20206918Y14703220D01*
X20188351Y14737956D01*
X20176917Y14775649D01*
X20172452Y14820984D01*
X20172452Y15657662D01*
X20176917Y15702997D01*
X20188351Y15740690D01*
X20206918Y15775426D01*
X20231904Y15805871D01*
X20262349Y15830857D01*
X20297085Y15849424D01*
X20334778Y15860858D01*
X20380113Y15865323D01*
X21466791Y15865323D01*
X21512126Y15860858D01*
G37*
G36*
X30269000Y21271999D02*
G01*
X30271402Y21247613D01*
X30278515Y21224164D01*
X30290066Y21202553D01*
X30305611Y21183611D01*
X30324553Y21168066D01*
X30346164Y21156515D01*
X30369613Y21149402D01*
X30393999Y21147000D01*
X31264000Y21147000D01*
X31264000Y16285000D01*
X30393999Y16285000D01*
X30369613Y16282598D01*
X30346164Y16275485D01*
X30324553Y16263934D01*
X30305611Y16248389D01*
X30290066Y16229447D01*
X30278515Y16207836D01*
X30271402Y16184387D01*
X30269000Y16160001D01*
X30269000Y15290000D01*
X25407000Y15290000D01*
X25407000Y16160001D01*
X25404598Y16184387D01*
X25397485Y16207836D01*
X25385934Y16229447D01*
X25370389Y16248389D01*
X25351447Y16263934D01*
X25329836Y16275485D01*
X25306387Y16282598D01*
X25282001Y16285000D01*
X24412000Y16285000D01*
X24412000Y21035001D01*
X25394000Y21035001D01*
X25394000Y16396999D01*
X25396402Y16372613D01*
X25403515Y16349164D01*
X25415066Y16327553D01*
X25430611Y16308611D01*
X25449553Y16293066D01*
X25471164Y16281515D01*
X25494613Y16274402D01*
X25518999Y16272000D01*
X30157001Y16272000D01*
X30181387Y16274402D01*
X30204836Y16281515D01*
X30226447Y16293066D01*
X30245389Y16308611D01*
X30260934Y16327553D01*
X30272485Y16349164D01*
X30279598Y16372613D01*
X30282000Y16396999D01*
X30282000Y21035001D01*
X30279598Y21059387D01*
X30272485Y21082836D01*
X30260934Y21104447D01*
X30245389Y21123389D01*
X30226447Y21138934D01*
X30204836Y21150485D01*
X30181387Y21157598D01*
X30157001Y21160000D01*
X25518999Y21160000D01*
X25494613Y21157598D01*
X25471164Y21150485D01*
X25449553Y21138934D01*
X25430611Y21123389D01*
X25415066Y21104447D01*
X25403515Y21082836D01*
X25396402Y21059387D01*
X25394000Y21035001D01*
X24412000Y21035001D01*
X24412000Y21147000D01*
X25282001Y21147000D01*
X25306387Y21149402D01*
X25329836Y21156515D01*
X25351447Y21168066D01*
X25370389Y21183611D01*
X25385934Y21202553D01*
X25397485Y21224164D01*
X25404598Y21247613D01*
X25407000Y21271999D01*
X25407000Y22142000D01*
X30269000Y22142000D01*
X30269000Y21271999D01*
G37*
G36*
X29964000Y16590000D02*
G01*
X25712000Y16590000D01*
X25712000Y20842000D01*
X29964000Y20842000D01*
X29964000Y16590000D01*
G37*
G36*
X35264499Y16646555D02*
G01*
X35301995Y16635180D01*
X35336554Y16616708D01*
X35366847Y16591847D01*
X35391708Y16561554D01*
X35410180Y16526995D01*
X35421555Y16489499D01*
X35426000Y16444362D01*
X35426000Y15705638D01*
X35421555Y15660501D01*
X35410180Y15623005D01*
X35391708Y15588446D01*
X35366847Y15558153D01*
X35336554Y15533292D01*
X35301995Y15514820D01*
X35264499Y15503445D01*
X35219362Y15499000D01*
X34580638Y15499000D01*
X34535501Y15503445D01*
X34498005Y15514820D01*
X34463446Y15533292D01*
X34433153Y15558153D01*
X34408292Y15588446D01*
X34389820Y15623005D01*
X34378445Y15660501D01*
X34374000Y15705638D01*
X34374000Y16444362D01*
X34378445Y16489499D01*
X34389820Y16526995D01*
X34408292Y16561554D01*
X34433153Y16591847D01*
X34463446Y16616708D01*
X34498005Y16635180D01*
X34535501Y16646555D01*
X34580638Y16651000D01*
X35219362Y16651000D01*
X35264499Y16646555D01*
G37*
G36*
X42932292Y17462253D02*
G01*
X43081592Y17432556D01*
X43245564Y17364636D01*
X43393134Y17266033D01*
X43518633Y17140534D01*
X43617236Y16992964D01*
X43685156Y16828992D01*
X43719780Y16654921D01*
X43719780Y16477439D01*
X43685156Y16303368D01*
X43617236Y16139396D01*
X43518633Y15991826D01*
X43393134Y15866327D01*
X43245564Y15767724D01*
X43081592Y15699804D01*
X42932292Y15670107D01*
X42907522Y15665180D01*
X42730038Y15665180D01*
X42705268Y15670107D01*
X42555968Y15699804D01*
X42391996Y15767724D01*
X42244426Y15866327D01*
X42118927Y15991826D01*
X42020324Y16139396D01*
X41952404Y16303368D01*
X41917780Y16477439D01*
X41917780Y16654921D01*
X41952404Y16828992D01*
X42020324Y16992964D01*
X42118927Y17140534D01*
X42244426Y17266033D01*
X42391996Y17364636D01*
X42555968Y17432556D01*
X42705268Y17462253D01*
X42730038Y17467180D01*
X42907522Y17467180D01*
X42932292Y17462253D01*
G37*
G36*
X45472292Y17462253D02*
G01*
X45621592Y17432556D01*
X45785564Y17364636D01*
X45933134Y17266033D01*
X46058633Y17140534D01*
X46157236Y16992964D01*
X46225156Y16828992D01*
X46259780Y16654921D01*
X46259780Y16477439D01*
X46225156Y16303368D01*
X46157236Y16139396D01*
X46058633Y15991826D01*
X45933134Y15866327D01*
X45785564Y15767724D01*
X45621592Y15699804D01*
X45472292Y15670107D01*
X45447522Y15665180D01*
X45270038Y15665180D01*
X45245268Y15670107D01*
X45095968Y15699804D01*
X44931996Y15767724D01*
X44784426Y15866327D01*
X44658927Y15991826D01*
X44560324Y16139396D01*
X44492404Y16303368D01*
X44457780Y16477439D01*
X44457780Y16654921D01*
X44492404Y16828992D01*
X44560324Y16992964D01*
X44658927Y17140534D01*
X44784426Y17266033D01*
X44931996Y17364636D01*
X45095968Y17432556D01*
X45245268Y17462253D01*
X45270038Y17467180D01*
X45447522Y17467180D01*
X45472292Y17462253D01*
G37*
G36*
X2852292Y17462253D02*
G01*
X3001592Y17432556D01*
X3165564Y17364636D01*
X3313134Y17266033D01*
X3438633Y17140534D01*
X3537236Y16992964D01*
X3605156Y16828992D01*
X3639780Y16654921D01*
X3639780Y16477439D01*
X3605156Y16303368D01*
X3537236Y16139396D01*
X3438633Y15991826D01*
X3313134Y15866327D01*
X3165564Y15767724D01*
X3001592Y15699804D01*
X2852292Y15670107D01*
X2827522Y15665180D01*
X2650038Y15665180D01*
X2625268Y15670107D01*
X2475968Y15699804D01*
X2311996Y15767724D01*
X2164426Y15866327D01*
X2038927Y15991826D01*
X1940324Y16139396D01*
X1872404Y16303368D01*
X1837780Y16477439D01*
X1837780Y16654921D01*
X1872404Y16828992D01*
X1940324Y16992964D01*
X2038927Y17140534D01*
X2164426Y17266033D01*
X2311996Y17364636D01*
X2475968Y17432556D01*
X2625268Y17462253D01*
X2650038Y17467180D01*
X2827522Y17467180D01*
X2852292Y17462253D01*
G37*
G36*
X5392292Y17462253D02*
G01*
X5541592Y17432556D01*
X5705564Y17364636D01*
X5853134Y17266033D01*
X5978633Y17140534D01*
X6077236Y16992964D01*
X6145156Y16828992D01*
X6179780Y16654921D01*
X6179780Y16477439D01*
X6145156Y16303368D01*
X6077236Y16139396D01*
X5978633Y15991826D01*
X5853134Y15866327D01*
X5705564Y15767724D01*
X5541592Y15699804D01*
X5392292Y15670107D01*
X5367522Y15665180D01*
X5190038Y15665180D01*
X5165268Y15670107D01*
X5015968Y15699804D01*
X4851996Y15767724D01*
X4704426Y15866327D01*
X4578927Y15991826D01*
X4480324Y16139396D01*
X4412404Y16303368D01*
X4377780Y16477439D01*
X4377780Y16654921D01*
X4412404Y16828992D01*
X4480324Y16992964D01*
X4578927Y17140534D01*
X4704426Y17266033D01*
X4851996Y17364636D01*
X5015968Y17432556D01*
X5165268Y17462253D01*
X5190038Y17467180D01*
X5367522Y17467180D01*
X5392292Y17462253D01*
G37*
G36*
X14972499Y17456555D02*
G01*
X15009995Y17445180D01*
X15044554Y17426708D01*
X15074847Y17401847D01*
X15099708Y17371554D01*
X15118180Y17336995D01*
X15129555Y17299499D01*
X15134000Y17254362D01*
X15134000Y16515638D01*
X15129555Y16470501D01*
X15118180Y16433005D01*
X15099708Y16398446D01*
X15074847Y16368153D01*
X15044554Y16343292D01*
X15009995Y16324820D01*
X14972499Y16313445D01*
X14927362Y16309000D01*
X14288638Y16309000D01*
X14243501Y16313445D01*
X14206005Y16324820D01*
X14171446Y16343292D01*
X14141153Y16368153D01*
X14116292Y16398446D01*
X14097820Y16433005D01*
X14086445Y16470501D01*
X14082000Y16515638D01*
X14082000Y17254362D01*
X14086445Y17299499D01*
X14097820Y17336995D01*
X14116292Y17371554D01*
X14141153Y17401847D01*
X14171446Y17426708D01*
X14206005Y17445180D01*
X14243501Y17456555D01*
X14288638Y17461000D01*
X14927362Y17461000D01*
X14972499Y17456555D01*
G37*
G36*
X10524499Y17476555D02*
G01*
X10561995Y17465180D01*
X10596554Y17446708D01*
X10626847Y17421847D01*
X10651708Y17391554D01*
X10670180Y17356995D01*
X10681555Y17319499D01*
X10686000Y17274362D01*
X10686000Y16535638D01*
X10681555Y16490501D01*
X10670180Y16453005D01*
X10651708Y16418446D01*
X10626847Y16388153D01*
X10596554Y16363292D01*
X10561995Y16344820D01*
X10524499Y16333445D01*
X10479362Y16329000D01*
X9840638Y16329000D01*
X9795501Y16333445D01*
X9758005Y16344820D01*
X9723446Y16363292D01*
X9693153Y16388153D01*
X9668292Y16418446D01*
X9649820Y16453005D01*
X9638445Y16490501D01*
X9634000Y16535638D01*
X9634000Y17274362D01*
X9638445Y17319499D01*
X9649820Y17356995D01*
X9668292Y17391554D01*
X9693153Y17421847D01*
X9723446Y17446708D01*
X9758005Y17465180D01*
X9795501Y17476555D01*
X9840638Y17481000D01*
X10479362Y17481000D01*
X10524499Y17476555D01*
G37*
G36*
X12783591Y17586915D02*
G01*
X12817569Y17576607D01*
X12848890Y17559866D01*
X12876339Y17537339D01*
X12898866Y17509890D01*
X12915607Y17478569D01*
X12925915Y17444591D01*
X12930000Y17403110D01*
X12930000Y16801890D01*
X12925915Y16760409D01*
X12915607Y16726431D01*
X12898866Y16695110D01*
X12876339Y16667661D01*
X12848890Y16645134D01*
X12817569Y16628393D01*
X12783591Y16618085D01*
X12742110Y16614000D01*
X12065890Y16614000D01*
X12024409Y16618085D01*
X11990431Y16628393D01*
X11959110Y16645134D01*
X11931661Y16667661D01*
X11909134Y16695110D01*
X11892393Y16726431D01*
X11882085Y16760409D01*
X11878000Y16801890D01*
X11878000Y17403110D01*
X11882085Y17444591D01*
X11892393Y17478569D01*
X11909134Y17509890D01*
X11931661Y17537339D01*
X11959110Y17559866D01*
X11990431Y17576607D01*
X12024409Y17586915D01*
X12065890Y17591000D01*
X12742110Y17591000D01*
X12783591Y17586915D01*
G37*
G36*
X14972499Y19206555D02*
G01*
X15009995Y19195180D01*
X15044554Y19176708D01*
X15074847Y19151847D01*
X15099708Y19121554D01*
X15118180Y19086995D01*
X15129555Y19049499D01*
X15134000Y19004362D01*
X15134000Y18265638D01*
X15129555Y18220501D01*
X15118180Y18183005D01*
X15099708Y18148446D01*
X15074847Y18118153D01*
X15044554Y18093292D01*
X15009995Y18074820D01*
X14972499Y18063445D01*
X14927362Y18059000D01*
X14288638Y18059000D01*
X14243501Y18063445D01*
X14206005Y18074820D01*
X14171446Y18093292D01*
X14141153Y18118153D01*
X14116292Y18148446D01*
X14097820Y18183005D01*
X14086445Y18220501D01*
X14082000Y18265638D01*
X14082000Y19004362D01*
X14086445Y19049499D01*
X14097820Y19086995D01*
X14116292Y19121554D01*
X14141153Y19151847D01*
X14171446Y19176708D01*
X14206005Y19195180D01*
X14243501Y19206555D01*
X14288638Y19211000D01*
X14927362Y19211000D01*
X14972499Y19206555D01*
G37*
G36*
X10524499Y19226555D02*
G01*
X10561995Y19215180D01*
X10596554Y19196708D01*
X10626847Y19171847D01*
X10651708Y19141554D01*
X10670180Y19106995D01*
X10681555Y19069499D01*
X10686000Y19024362D01*
X10686000Y18285638D01*
X10681555Y18240501D01*
X10670180Y18203005D01*
X10651708Y18168446D01*
X10626847Y18138153D01*
X10596554Y18113292D01*
X10561995Y18094820D01*
X10524499Y18083445D01*
X10479362Y18079000D01*
X9840638Y18079000D01*
X9795501Y18083445D01*
X9758005Y18094820D01*
X9723446Y18113292D01*
X9693153Y18138153D01*
X9668292Y18168446D01*
X9649820Y18203005D01*
X9638445Y18240501D01*
X9634000Y18285638D01*
X9634000Y19024362D01*
X9638445Y19069499D01*
X9649820Y19106995D01*
X9668292Y19141554D01*
X9693153Y19171847D01*
X9723446Y19196708D01*
X9758005Y19215180D01*
X9795501Y19226555D01*
X9840638Y19231000D01*
X10479362Y19231000D01*
X10524499Y19226555D01*
G37*
G36*
X12783591Y19161915D02*
G01*
X12817569Y19151607D01*
X12848890Y19134866D01*
X12876339Y19112339D01*
X12898866Y19084890D01*
X12915607Y19053569D01*
X12925915Y19019591D01*
X12930000Y18978110D01*
X12930000Y18376890D01*
X12925915Y18335409D01*
X12915607Y18301431D01*
X12898866Y18270110D01*
X12876339Y18242661D01*
X12848890Y18220134D01*
X12817569Y18203393D01*
X12783591Y18193085D01*
X12742110Y18189000D01*
X12065890Y18189000D01*
X12024409Y18193085D01*
X11990431Y18203393D01*
X11959110Y18220134D01*
X11931661Y18242661D01*
X11909134Y18270110D01*
X11892393Y18301431D01*
X11882085Y18335409D01*
X11878000Y18376890D01*
X11878000Y18978110D01*
X11882085Y19019591D01*
X11892393Y19053569D01*
X11909134Y19084890D01*
X11931661Y19112339D01*
X11959110Y19134866D01*
X11990431Y19151607D01*
X12024409Y19161915D01*
X12065890Y19166000D01*
X12742110Y19166000D01*
X12783591Y19161915D01*
G37*
G36*
X2852292Y20002253D02*
G01*
X3001592Y19972556D01*
X3165564Y19904636D01*
X3313134Y19806033D01*
X3438633Y19680534D01*
X3537236Y19532964D01*
X3605156Y19368992D01*
X3632604Y19231000D01*
X3639729Y19195180D01*
X3639780Y19194921D01*
X3639780Y19017439D01*
X3605156Y18843368D01*
X3537236Y18679396D01*
X3438633Y18531826D01*
X3313134Y18406327D01*
X3165564Y18307724D01*
X3001592Y18239804D01*
X2852292Y18210107D01*
X2827522Y18205180D01*
X2650038Y18205180D01*
X2625268Y18210107D01*
X2475968Y18239804D01*
X2311996Y18307724D01*
X2164426Y18406327D01*
X2038927Y18531826D01*
X1940324Y18679396D01*
X1872404Y18843368D01*
X1837780Y19017439D01*
X1837780Y19194921D01*
X1837832Y19195180D01*
X1844956Y19231000D01*
X1872404Y19368992D01*
X1940324Y19532964D01*
X2038927Y19680534D01*
X2164426Y19806033D01*
X2311996Y19904636D01*
X2475968Y19972556D01*
X2625268Y20002253D01*
X2650038Y20007180D01*
X2827522Y20007180D01*
X2852292Y20002253D01*
G37*
G36*
X45472292Y20002253D02*
G01*
X45621592Y19972556D01*
X45785564Y19904636D01*
X45933134Y19806033D01*
X46058633Y19680534D01*
X46157236Y19532964D01*
X46225156Y19368992D01*
X46252604Y19231000D01*
X46259729Y19195180D01*
X46259780Y19194921D01*
X46259780Y19017439D01*
X46225156Y18843368D01*
X46157236Y18679396D01*
X46058633Y18531826D01*
X45933134Y18406327D01*
X45785564Y18307724D01*
X45621592Y18239804D01*
X45472292Y18210107D01*
X45447522Y18205180D01*
X45270038Y18205180D01*
X45245268Y18210107D01*
X45095968Y18239804D01*
X44931996Y18307724D01*
X44784426Y18406327D01*
X44658927Y18531826D01*
X44560324Y18679396D01*
X44492404Y18843368D01*
X44457780Y19017439D01*
X44457780Y19194921D01*
X44457832Y19195180D01*
X44464956Y19231000D01*
X44492404Y19368992D01*
X44560324Y19532964D01*
X44658927Y19680534D01*
X44784426Y19806033D01*
X44931996Y19904636D01*
X45095968Y19972556D01*
X45245268Y20002253D01*
X45270038Y20007180D01*
X45447522Y20007180D01*
X45472292Y20002253D01*
G37*
G36*
X5392292Y20002253D02*
G01*
X5541592Y19972556D01*
X5705564Y19904636D01*
X5853134Y19806033D01*
X5978633Y19680534D01*
X6077236Y19532964D01*
X6145156Y19368992D01*
X6172604Y19231000D01*
X6179729Y19195180D01*
X6179780Y19194921D01*
X6179780Y19017439D01*
X6145156Y18843368D01*
X6077236Y18679396D01*
X5978633Y18531826D01*
X5853134Y18406327D01*
X5705564Y18307724D01*
X5541592Y18239804D01*
X5392292Y18210107D01*
X5367522Y18205180D01*
X5190038Y18205180D01*
X5165268Y18210107D01*
X5015968Y18239804D01*
X4851996Y18307724D01*
X4704426Y18406327D01*
X4578927Y18531826D01*
X4480324Y18679396D01*
X4412404Y18843368D01*
X4377780Y19017439D01*
X4377780Y19194921D01*
X4377832Y19195180D01*
X4384956Y19231000D01*
X4412404Y19368992D01*
X4480324Y19532964D01*
X4578927Y19680534D01*
X4704426Y19806033D01*
X4851996Y19904636D01*
X5015968Y19972556D01*
X5165268Y20002253D01*
X5190038Y20007180D01*
X5367522Y20007180D01*
X5392292Y20002253D01*
G37*
G36*
X42932292Y20002253D02*
G01*
X43081592Y19972556D01*
X43245564Y19904636D01*
X43393134Y19806033D01*
X43518633Y19680534D01*
X43617236Y19532964D01*
X43685156Y19368992D01*
X43712604Y19231000D01*
X43719729Y19195180D01*
X43719780Y19194921D01*
X43719780Y19017439D01*
X43685156Y18843368D01*
X43617236Y18679396D01*
X43518633Y18531826D01*
X43393134Y18406327D01*
X43245564Y18307724D01*
X43081592Y18239804D01*
X42932292Y18210107D01*
X42907522Y18205180D01*
X42730038Y18205180D01*
X42705268Y18210107D01*
X42555968Y18239804D01*
X42391996Y18307724D01*
X42244426Y18406327D01*
X42118927Y18531826D01*
X42020324Y18679396D01*
X41952404Y18843368D01*
X41917780Y19017439D01*
X41917780Y19194921D01*
X41917832Y19195180D01*
X41924956Y19231000D01*
X41952404Y19368992D01*
X42020324Y19532964D01*
X42118927Y19680534D01*
X42244426Y19806033D01*
X42391996Y19904636D01*
X42555968Y19972556D01*
X42705268Y20002253D01*
X42730038Y20007180D01*
X42907522Y20007180D01*
X42932292Y20002253D01*
G37*
G36*
X34914499Y21126555D02*
G01*
X34951995Y21115180D01*
X34986554Y21096708D01*
X35016847Y21071847D01*
X35041708Y21041554D01*
X35060180Y21006995D01*
X35071555Y20969499D01*
X35076000Y20924362D01*
X35076000Y20185638D01*
X35071555Y20140501D01*
X35060180Y20103005D01*
X35041708Y20068446D01*
X35016847Y20038153D01*
X34986554Y20013292D01*
X34951995Y19994820D01*
X34914499Y19983445D01*
X34869362Y19979000D01*
X34230638Y19979000D01*
X34185501Y19983445D01*
X34148005Y19994820D01*
X34113446Y20013292D01*
X34083153Y20038153D01*
X34058292Y20068446D01*
X34039820Y20103005D01*
X34028445Y20140501D01*
X34024000Y20185638D01*
X34024000Y20924362D01*
X34028445Y20969499D01*
X34039820Y21006995D01*
X34058292Y21041554D01*
X34083153Y21071847D01*
X34113446Y21096708D01*
X34148005Y21115180D01*
X34185501Y21126555D01*
X34230638Y21131000D01*
X34869362Y21131000D01*
X34914499Y21126555D01*
G37*
G36*
X12768499Y21480555D02*
G01*
X12805995Y21469180D01*
X12840554Y21450708D01*
X12870847Y21425847D01*
X12895708Y21395554D01*
X12914180Y21360995D01*
X12925555Y21323499D01*
X12930000Y21278362D01*
X12930000Y20539638D01*
X12925555Y20494501D01*
X12914180Y20457005D01*
X12895708Y20422446D01*
X12870847Y20392153D01*
X12840554Y20367292D01*
X12805995Y20348820D01*
X12768499Y20337445D01*
X12723362Y20333000D01*
X12084638Y20333000D01*
X12039501Y20337445D01*
X12002005Y20348820D01*
X11967446Y20367292D01*
X11937153Y20392153D01*
X11912292Y20422446D01*
X11893820Y20457005D01*
X11882445Y20494501D01*
X11878000Y20539638D01*
X11878000Y21278362D01*
X11882445Y21323499D01*
X11893820Y21360995D01*
X11912292Y21395554D01*
X11937153Y21425847D01*
X11967446Y21450708D01*
X12002005Y21469180D01*
X12039501Y21480555D01*
X12084638Y21485000D01*
X12723362Y21485000D01*
X12768499Y21480555D01*
G37*
G36*
X14972499Y21520555D02*
G01*
X15009995Y21509180D01*
X15044554Y21490708D01*
X15074847Y21465847D01*
X15099708Y21435554D01*
X15118180Y21400995D01*
X15129555Y21363499D01*
X15134000Y21318362D01*
X15134000Y20579638D01*
X15129555Y20534501D01*
X15118180Y20497005D01*
X15099708Y20462446D01*
X15074847Y20432153D01*
X15044554Y20407292D01*
X15009995Y20388820D01*
X14972499Y20377445D01*
X14927362Y20373000D01*
X14288638Y20373000D01*
X14243501Y20377445D01*
X14206005Y20388820D01*
X14171446Y20407292D01*
X14141153Y20432153D01*
X14116292Y20462446D01*
X14097820Y20497005D01*
X14086445Y20534501D01*
X14082000Y20579638D01*
X14082000Y21318362D01*
X14086445Y21363499D01*
X14097820Y21400995D01*
X14116292Y21435554D01*
X14141153Y21465847D01*
X14171446Y21490708D01*
X14206005Y21509180D01*
X14243501Y21520555D01*
X14288638Y21525000D01*
X14927362Y21525000D01*
X14972499Y21520555D01*
G37*
G36*
X10524499Y21540555D02*
G01*
X10561995Y21529180D01*
X10596554Y21510708D01*
X10626847Y21485847D01*
X10651708Y21455554D01*
X10670180Y21420995D01*
X10681555Y21383499D01*
X10686000Y21338362D01*
X10686000Y20599638D01*
X10681555Y20554501D01*
X10670180Y20517005D01*
X10651708Y20482446D01*
X10626847Y20452153D01*
X10596554Y20427292D01*
X10561995Y20408820D01*
X10524499Y20397445D01*
X10479362Y20393000D01*
X9840638Y20393000D01*
X9795501Y20397445D01*
X9758005Y20408820D01*
X9723446Y20427292D01*
X9693153Y20452153D01*
X9668292Y20482446D01*
X9649820Y20517005D01*
X9638445Y20554501D01*
X9634000Y20599638D01*
X9634000Y21338362D01*
X9638445Y21383499D01*
X9649820Y21420995D01*
X9668292Y21455554D01*
X9693153Y21485847D01*
X9723446Y21510708D01*
X9758005Y21529180D01*
X9795501Y21540555D01*
X9840638Y21545000D01*
X10479362Y21545000D01*
X10524499Y21540555D01*
G37*
G36*
X21248674Y21766535D02*
G01*
X21286367Y21755101D01*
X21321103Y21736534D01*
X21351548Y21711548D01*
X21376534Y21681103D01*
X21395101Y21646367D01*
X21406535Y21608674D01*
X21411000Y21563339D01*
X21411000Y20726661D01*
X21406535Y20681326D01*
X21395101Y20643633D01*
X21376534Y20608897D01*
X21351548Y20578452D01*
X21321103Y20553466D01*
X21286367Y20534899D01*
X21248674Y20523465D01*
X21203339Y20519000D01*
X20116661Y20519000D01*
X20071326Y20523465D01*
X20033633Y20534899D01*
X19998897Y20553466D01*
X19968452Y20578452D01*
X19943466Y20608897D01*
X19924899Y20643633D01*
X19913465Y20681326D01*
X19909000Y20726661D01*
X19909000Y21563339D01*
X19913465Y21608674D01*
X19924899Y21646367D01*
X19943466Y21681103D01*
X19968452Y21711548D01*
X19998897Y21736534D01*
X20033633Y21755101D01*
X20071326Y21766535D01*
X20116661Y21771000D01*
X21203339Y21771000D01*
X21248674Y21766535D01*
G37*
G36*
X42932292Y22542253D02*
G01*
X43081592Y22512556D01*
X43245564Y22444636D01*
X43393134Y22346033D01*
X43518633Y22220534D01*
X43617236Y22072964D01*
X43685156Y21908992D01*
X43719780Y21734921D01*
X43719780Y21557439D01*
X43685156Y21383368D01*
X43617236Y21219396D01*
X43518633Y21071826D01*
X43393134Y20946327D01*
X43245564Y20847724D01*
X43081592Y20779804D01*
X42932292Y20750107D01*
X42907522Y20745180D01*
X42730038Y20745180D01*
X42705268Y20750107D01*
X42555968Y20779804D01*
X42391996Y20847724D01*
X42244426Y20946327D01*
X42118927Y21071826D01*
X42020324Y21219396D01*
X41952404Y21383368D01*
X41917780Y21557439D01*
X41917780Y21734921D01*
X41952404Y21908992D01*
X42020324Y22072964D01*
X42118927Y22220534D01*
X42244426Y22346033D01*
X42391996Y22444636D01*
X42555968Y22512556D01*
X42705268Y22542253D01*
X42730038Y22547180D01*
X42907522Y22547180D01*
X42932292Y22542253D01*
G37*
G36*
X2852292Y22542253D02*
G01*
X3001592Y22512556D01*
X3165564Y22444636D01*
X3313134Y22346033D01*
X3438633Y22220534D01*
X3537236Y22072964D01*
X3605156Y21908992D01*
X3639780Y21734921D01*
X3639780Y21557439D01*
X3605156Y21383368D01*
X3537236Y21219396D01*
X3438633Y21071826D01*
X3313134Y20946327D01*
X3165564Y20847724D01*
X3001592Y20779804D01*
X2852292Y20750107D01*
X2827522Y20745180D01*
X2650038Y20745180D01*
X2625268Y20750107D01*
X2475968Y20779804D01*
X2311996Y20847724D01*
X2164426Y20946327D01*
X2038927Y21071826D01*
X1940324Y21219396D01*
X1872404Y21383368D01*
X1837780Y21557439D01*
X1837780Y21734921D01*
X1872404Y21908992D01*
X1940324Y22072964D01*
X2038927Y22220534D01*
X2164426Y22346033D01*
X2311996Y22444636D01*
X2475968Y22512556D01*
X2625268Y22542253D01*
X2650038Y22547180D01*
X2827522Y22547180D01*
X2852292Y22542253D01*
G37*
G36*
X5392292Y22542253D02*
G01*
X5541592Y22512556D01*
X5705564Y22444636D01*
X5853134Y22346033D01*
X5978633Y22220534D01*
X6077236Y22072964D01*
X6145156Y21908992D01*
X6179780Y21734921D01*
X6179780Y21557439D01*
X6145156Y21383368D01*
X6077236Y21219396D01*
X5978633Y21071826D01*
X5853134Y20946327D01*
X5705564Y20847724D01*
X5541592Y20779804D01*
X5392292Y20750107D01*
X5367522Y20745180D01*
X5190038Y20745180D01*
X5165268Y20750107D01*
X5015968Y20779804D01*
X4851996Y20847724D01*
X4704426Y20946327D01*
X4578927Y21071826D01*
X4480324Y21219396D01*
X4412404Y21383368D01*
X4377780Y21557439D01*
X4377780Y21734921D01*
X4412404Y21908992D01*
X4480324Y22072964D01*
X4578927Y22220534D01*
X4704426Y22346033D01*
X4851996Y22444636D01*
X5015968Y22512556D01*
X5165268Y22542253D01*
X5190038Y22547180D01*
X5367522Y22547180D01*
X5392292Y22542253D01*
G37*
G36*
X45472292Y22542253D02*
G01*
X45621592Y22512556D01*
X45785564Y22444636D01*
X45933134Y22346033D01*
X46058633Y22220534D01*
X46157236Y22072964D01*
X46225156Y21908992D01*
X46259780Y21734921D01*
X46259780Y21557439D01*
X46225156Y21383368D01*
X46157236Y21219396D01*
X46058633Y21071826D01*
X45933134Y20946327D01*
X45785564Y20847724D01*
X45621592Y20779804D01*
X45472292Y20750107D01*
X45447522Y20745180D01*
X45270038Y20745180D01*
X45245268Y20750107D01*
X45095968Y20779804D01*
X44931996Y20847724D01*
X44784426Y20946327D01*
X44658927Y21071826D01*
X44560324Y21219396D01*
X44492404Y21383368D01*
X44457780Y21557439D01*
X44457780Y21734921D01*
X44492404Y21908992D01*
X44560324Y22072964D01*
X44658927Y22220534D01*
X44784426Y22346033D01*
X44931996Y22444636D01*
X45095968Y22512556D01*
X45245268Y22542253D01*
X45270038Y22547180D01*
X45447522Y22547180D01*
X45472292Y22542253D01*
G37*
G36*
X34914499Y22876555D02*
G01*
X34951995Y22865180D01*
X34986554Y22846708D01*
X35016847Y22821847D01*
X35041708Y22791554D01*
X35060180Y22756995D01*
X35071555Y22719499D01*
X35076000Y22674362D01*
X35076000Y21935638D01*
X35071555Y21890501D01*
X35060180Y21853005D01*
X35041708Y21818446D01*
X35016847Y21788153D01*
X34986554Y21763292D01*
X34951995Y21744820D01*
X34914499Y21733445D01*
X34869362Y21729000D01*
X34230638Y21729000D01*
X34185501Y21733445D01*
X34148005Y21744820D01*
X34113446Y21763292D01*
X34083153Y21788153D01*
X34058292Y21818446D01*
X34039820Y21853005D01*
X34028445Y21890501D01*
X34024000Y21935638D01*
X34024000Y22674362D01*
X34028445Y22719499D01*
X34039820Y22756995D01*
X34058292Y22791554D01*
X34083153Y22821847D01*
X34113446Y22846708D01*
X34148005Y22865180D01*
X34185501Y22876555D01*
X34230638Y22881000D01*
X34869362Y22881000D01*
X34914499Y22876555D01*
G37*
G36*
X12768499Y23230555D02*
G01*
X12805995Y23219180D01*
X12840554Y23200708D01*
X12870847Y23175847D01*
X12895708Y23145554D01*
X12914180Y23110995D01*
X12925555Y23073499D01*
X12930000Y23028362D01*
X12930000Y22289638D01*
X12925555Y22244501D01*
X12914180Y22207005D01*
X12895708Y22172446D01*
X12870847Y22142153D01*
X12840554Y22117292D01*
X12805995Y22098820D01*
X12768499Y22087445D01*
X12723362Y22083000D01*
X12084638Y22083000D01*
X12039501Y22087445D01*
X12002005Y22098820D01*
X11967446Y22117292D01*
X11937153Y22142153D01*
X11912292Y22172446D01*
X11893820Y22207005D01*
X11882445Y22244501D01*
X11878000Y22289638D01*
X11878000Y23028362D01*
X11882445Y23073499D01*
X11893820Y23110995D01*
X11912292Y23145554D01*
X11937153Y23175847D01*
X11967446Y23200708D01*
X12002005Y23219180D01*
X12039501Y23230555D01*
X12084638Y23235000D01*
X12723362Y23235000D01*
X12768499Y23230555D01*
G37*
G36*
X14972499Y23270555D02*
G01*
X15009995Y23259180D01*
X15044554Y23240708D01*
X15074847Y23215847D01*
X15099708Y23185554D01*
X15118180Y23150995D01*
X15129555Y23113499D01*
X15134000Y23068362D01*
X15134000Y22329638D01*
X15129555Y22284501D01*
X15118180Y22247005D01*
X15099708Y22212446D01*
X15074847Y22182153D01*
X15044554Y22157292D01*
X15009995Y22138820D01*
X14972499Y22127445D01*
X14927362Y22123000D01*
X14288638Y22123000D01*
X14243501Y22127445D01*
X14206005Y22138820D01*
X14171446Y22157292D01*
X14141153Y22182153D01*
X14116292Y22212446D01*
X14097820Y22247005D01*
X14086445Y22284501D01*
X14082000Y22329638D01*
X14082000Y23068362D01*
X14086445Y23113499D01*
X14097820Y23150995D01*
X14116292Y23185554D01*
X14141153Y23215847D01*
X14171446Y23240708D01*
X14206005Y23259180D01*
X14243501Y23270555D01*
X14288638Y23275000D01*
X14927362Y23275000D01*
X14972499Y23270555D01*
G37*
G36*
X10524499Y23290555D02*
G01*
X10561995Y23279180D01*
X10596554Y23260708D01*
X10626847Y23235847D01*
X10651708Y23205554D01*
X10670180Y23170995D01*
X10681555Y23133499D01*
X10686000Y23088362D01*
X10686000Y22349638D01*
X10681555Y22304501D01*
X10670180Y22267005D01*
X10651708Y22232446D01*
X10626847Y22202153D01*
X10596554Y22177292D01*
X10561995Y22158820D01*
X10524499Y22147445D01*
X10479362Y22143000D01*
X9840638Y22143000D01*
X9795501Y22147445D01*
X9758005Y22158820D01*
X9723446Y22177292D01*
X9693153Y22202153D01*
X9668292Y22232446D01*
X9649820Y22267005D01*
X9638445Y22304501D01*
X9634000Y22349638D01*
X9634000Y23088362D01*
X9638445Y23133499D01*
X9649820Y23170995D01*
X9668292Y23205554D01*
X9693153Y23235847D01*
X9723446Y23260708D01*
X9758005Y23279180D01*
X9795501Y23290555D01*
X9840638Y23295000D01*
X10479362Y23295000D01*
X10524499Y23290555D01*
G37*
G36*
X21248674Y23816535D02*
G01*
X21286367Y23805101D01*
X21321103Y23786534D01*
X21351548Y23761548D01*
X21376534Y23731103D01*
X21395101Y23696367D01*
X21406535Y23658674D01*
X21411000Y23613339D01*
X21411000Y22776661D01*
X21406535Y22731326D01*
X21395101Y22693633D01*
X21376534Y22658897D01*
X21351548Y22628452D01*
X21321103Y22603466D01*
X21286367Y22584899D01*
X21248674Y22573465D01*
X21203339Y22569000D01*
X20116661Y22569000D01*
X20071326Y22573465D01*
X20033633Y22584899D01*
X19998897Y22603466D01*
X19968452Y22628452D01*
X19943466Y22658897D01*
X19924899Y22693633D01*
X19913465Y22731326D01*
X19909000Y22776661D01*
X19909000Y23613339D01*
X19913465Y23658674D01*
X19924899Y23696367D01*
X19943466Y23731103D01*
X19968452Y23761548D01*
X19998897Y23786534D01*
X20033633Y23805101D01*
X20071326Y23816535D01*
X20116661Y23821000D01*
X21203339Y23821000D01*
X21248674Y23816535D01*
G37*
G36*
X42932292Y25082253D02*
G01*
X43081592Y25052556D01*
X43245564Y24984636D01*
X43393134Y24886033D01*
X43518633Y24760534D01*
X43617236Y24612964D01*
X43685156Y24448992D01*
X43719780Y24274921D01*
X43719780Y24097439D01*
X43685156Y23923368D01*
X43617236Y23759396D01*
X43518633Y23611826D01*
X43393134Y23486327D01*
X43245564Y23387724D01*
X43081592Y23319804D01*
X42934544Y23290555D01*
X42907522Y23285180D01*
X42730038Y23285180D01*
X42703016Y23290555D01*
X42555968Y23319804D01*
X42391996Y23387724D01*
X42244426Y23486327D01*
X42118927Y23611826D01*
X42020324Y23759396D01*
X41952404Y23923368D01*
X41917780Y24097439D01*
X41917780Y24274921D01*
X41952404Y24448992D01*
X42020324Y24612964D01*
X42118927Y24760534D01*
X42244426Y24886033D01*
X42391996Y24984636D01*
X42555968Y25052556D01*
X42705268Y25082253D01*
X42730038Y25087180D01*
X42907522Y25087180D01*
X42932292Y25082253D01*
G37*
G36*
X45472292Y25082253D02*
G01*
X45621592Y25052556D01*
X45785564Y24984636D01*
X45933134Y24886033D01*
X46058633Y24760534D01*
X46157236Y24612964D01*
X46225156Y24448992D01*
X46259780Y24274921D01*
X46259780Y24097439D01*
X46225156Y23923368D01*
X46157236Y23759396D01*
X46058633Y23611826D01*
X45933134Y23486327D01*
X45785564Y23387724D01*
X45621592Y23319804D01*
X45474544Y23290555D01*
X45447522Y23285180D01*
X45270038Y23285180D01*
X45243016Y23290555D01*
X45095968Y23319804D01*
X44931996Y23387724D01*
X44784426Y23486327D01*
X44658927Y23611826D01*
X44560324Y23759396D01*
X44492404Y23923368D01*
X44457780Y24097439D01*
X44457780Y24274921D01*
X44492404Y24448992D01*
X44560324Y24612964D01*
X44658927Y24760534D01*
X44784426Y24886033D01*
X44931996Y24984636D01*
X45095968Y25052556D01*
X45245268Y25082253D01*
X45270038Y25087180D01*
X45447522Y25087180D01*
X45472292Y25082253D01*
G37*
G36*
X2852292Y25082253D02*
G01*
X3001592Y25052556D01*
X3165564Y24984636D01*
X3313134Y24886033D01*
X3438633Y24760534D01*
X3537236Y24612964D01*
X3605156Y24448992D01*
X3639780Y24274921D01*
X3639780Y24097439D01*
X3605156Y23923368D01*
X3537236Y23759396D01*
X3438633Y23611826D01*
X3313134Y23486327D01*
X3165564Y23387724D01*
X3001592Y23319804D01*
X2854544Y23290555D01*
X2827522Y23285180D01*
X2650038Y23285180D01*
X2623016Y23290555D01*
X2475968Y23319804D01*
X2311996Y23387724D01*
X2164426Y23486327D01*
X2038927Y23611826D01*
X1940324Y23759396D01*
X1872404Y23923368D01*
X1837780Y24097439D01*
X1837780Y24274921D01*
X1872404Y24448992D01*
X1940324Y24612964D01*
X2038927Y24760534D01*
X2164426Y24886033D01*
X2311996Y24984636D01*
X2475968Y25052556D01*
X2625268Y25082253D01*
X2650038Y25087180D01*
X2827522Y25087180D01*
X2852292Y25082253D01*
G37*
G36*
X5392292Y25082253D02*
G01*
X5541592Y25052556D01*
X5705564Y24984636D01*
X5853134Y24886033D01*
X5978633Y24760534D01*
X6077236Y24612964D01*
X6145156Y24448992D01*
X6179780Y24274921D01*
X6179780Y24097439D01*
X6145156Y23923368D01*
X6077236Y23759396D01*
X5978633Y23611826D01*
X5853134Y23486327D01*
X5705564Y23387724D01*
X5541592Y23319804D01*
X5394544Y23290555D01*
X5367522Y23285180D01*
X5190038Y23285180D01*
X5163016Y23290555D01*
X5015968Y23319804D01*
X4851996Y23387724D01*
X4704426Y23486327D01*
X4578927Y23611826D01*
X4480324Y23759396D01*
X4412404Y23923368D01*
X4377780Y24097439D01*
X4377780Y24274921D01*
X4412404Y24448992D01*
X4480324Y24612964D01*
X4578927Y24760534D01*
X4704426Y24886033D01*
X4851996Y24984636D01*
X5015968Y25052556D01*
X5165268Y25082253D01*
X5190038Y25087180D01*
X5367522Y25087180D01*
X5392292Y25082253D01*
G37*
G36*
X39378499Y24980555D02*
G01*
X39415995Y24969180D01*
X39450554Y24950708D01*
X39480847Y24925847D01*
X39505708Y24895554D01*
X39524180Y24860995D01*
X39535555Y24823499D01*
X39540000Y24778362D01*
X39540000Y24039638D01*
X39535555Y23994501D01*
X39524180Y23957005D01*
X39505708Y23922446D01*
X39480847Y23892153D01*
X39450554Y23867292D01*
X39415995Y23848820D01*
X39378499Y23837445D01*
X39333362Y23833000D01*
X38694638Y23833000D01*
X38649501Y23837445D01*
X38612005Y23848820D01*
X38577446Y23867292D01*
X38547153Y23892153D01*
X38522292Y23922446D01*
X38503820Y23957005D01*
X38492445Y23994501D01*
X38488000Y24039638D01*
X38488000Y24778362D01*
X38492445Y24823499D01*
X38503820Y24860995D01*
X38522292Y24895554D01*
X38547153Y24925847D01*
X38577446Y24950708D01*
X38612005Y24969180D01*
X38649501Y24980555D01*
X38694638Y24985000D01*
X39333362Y24985000D01*
X39378499Y24980555D01*
G37*
G36*
X33882499Y25025555D02*
G01*
X33919995Y25014180D01*
X33954554Y24995708D01*
X33984847Y24970847D01*
X34009708Y24940554D01*
X34028180Y24905995D01*
X34039555Y24868499D01*
X34044000Y24823362D01*
X34044000Y24084638D01*
X34039555Y24039501D01*
X34028180Y24002005D01*
X34009708Y23967446D01*
X33984847Y23937153D01*
X33954554Y23912292D01*
X33919995Y23893820D01*
X33882499Y23882445D01*
X33837362Y23878000D01*
X33198638Y23878000D01*
X33153501Y23882445D01*
X33116005Y23893820D01*
X33081446Y23912292D01*
X33051153Y23937153D01*
X33026292Y23967446D01*
X33007820Y24002005D01*
X32996445Y24039501D01*
X32992000Y24084638D01*
X32992000Y24823362D01*
X32996445Y24868499D01*
X33007820Y24905995D01*
X33026292Y24940554D01*
X33051153Y24970847D01*
X33081446Y24995708D01*
X33116005Y25014180D01*
X33153501Y25025555D01*
X33198638Y25030000D01*
X33837362Y25030000D01*
X33882499Y25025555D01*
G37*
G36*
X35760499Y25025555D02*
G01*
X35797995Y25014180D01*
X35832554Y24995708D01*
X35862847Y24970847D01*
X35887708Y24940554D01*
X35906180Y24905995D01*
X35917555Y24868499D01*
X35922000Y24823362D01*
X35922000Y24084638D01*
X35917555Y24039501D01*
X35906180Y24002005D01*
X35887708Y23967446D01*
X35862847Y23937153D01*
X35832554Y23912292D01*
X35797995Y23893820D01*
X35760499Y23882445D01*
X35715362Y23878000D01*
X35076638Y23878000D01*
X35031501Y23882445D01*
X34994005Y23893820D01*
X34959446Y23912292D01*
X34929153Y23937153D01*
X34904292Y23967446D01*
X34885820Y24002005D01*
X34874445Y24039501D01*
X34870000Y24084638D01*
X34870000Y24823362D01*
X34874445Y24868499D01*
X34885820Y24905995D01*
X34904292Y24940554D01*
X34929153Y24970847D01*
X34959446Y24995708D01*
X34994005Y25014180D01*
X35031501Y25025555D01*
X35076638Y25030000D01*
X35715362Y25030000D01*
X35760499Y25025555D01*
G37*
G36*
X37638499Y25025555D02*
G01*
X37675995Y25014180D01*
X37710554Y24995708D01*
X37740847Y24970847D01*
X37765708Y24940554D01*
X37784180Y24905995D01*
X37795555Y24868499D01*
X37800000Y24823362D01*
X37800000Y24084638D01*
X37795555Y24039501D01*
X37784180Y24002005D01*
X37765708Y23967446D01*
X37740847Y23937153D01*
X37710554Y23912292D01*
X37675995Y23893820D01*
X37638499Y23882445D01*
X37593362Y23878000D01*
X36954638Y23878000D01*
X36909501Y23882445D01*
X36872005Y23893820D01*
X36837446Y23912292D01*
X36807153Y23937153D01*
X36782292Y23967446D01*
X36763820Y24002005D01*
X36752445Y24039501D01*
X36748000Y24084638D01*
X36748000Y24823362D01*
X36752445Y24868499D01*
X36763820Y24905995D01*
X36782292Y24940554D01*
X36807153Y24970847D01*
X36837446Y24995708D01*
X36872005Y25014180D01*
X36909501Y25025555D01*
X36954638Y25030000D01*
X37593362Y25030000D01*
X37638499Y25025555D01*
G37*
G36*
X23754499Y25566555D02*
G01*
X23791995Y25555180D01*
X23826554Y25536708D01*
X23856847Y25511847D01*
X23881708Y25481554D01*
X23900180Y25446995D01*
X23911555Y25409499D01*
X23916000Y25364362D01*
X23916000Y24625638D01*
X23911555Y24580501D01*
X23900180Y24543005D01*
X23881708Y24508446D01*
X23856847Y24478153D01*
X23826554Y24453292D01*
X23791995Y24434820D01*
X23754499Y24423445D01*
X23709362Y24419000D01*
X23070638Y24419000D01*
X23025501Y24423445D01*
X22988005Y24434820D01*
X22953446Y24453292D01*
X22923153Y24478153D01*
X22898292Y24508446D01*
X22879820Y24543005D01*
X22868445Y24580501D01*
X22864000Y24625638D01*
X22864000Y25364362D01*
X22868445Y25409499D01*
X22879820Y25446995D01*
X22898292Y25481554D01*
X22923153Y25511847D01*
X22953446Y25536708D01*
X22988005Y25555180D01*
X23025501Y25566555D01*
X23070638Y25571000D01*
X23709362Y25571000D01*
X23754499Y25566555D01*
G37*
G36*
X25284499Y25566555D02*
G01*
X25321995Y25555180D01*
X25356554Y25536708D01*
X25386847Y25511847D01*
X25411708Y25481554D01*
X25430180Y25446995D01*
X25441555Y25409499D01*
X25446000Y25364362D01*
X25446000Y24625638D01*
X25441555Y24580501D01*
X25430180Y24543005D01*
X25411708Y24508446D01*
X25386847Y24478153D01*
X25356554Y24453292D01*
X25321995Y24434820D01*
X25284499Y24423445D01*
X25239362Y24419000D01*
X24600638Y24419000D01*
X24555501Y24423445D01*
X24518005Y24434820D01*
X24483446Y24453292D01*
X24453153Y24478153D01*
X24428292Y24508446D01*
X24409820Y24543005D01*
X24398445Y24580501D01*
X24394000Y24625638D01*
X24394000Y25364362D01*
X24398445Y25409499D01*
X24409820Y25446995D01*
X24428292Y25481554D01*
X24453153Y25511847D01*
X24483446Y25536708D01*
X24518005Y25555180D01*
X24555501Y25566555D01*
X24600638Y25571000D01*
X25239362Y25571000D01*
X25284499Y25566555D01*
G37*
G36*
X26794499Y25576555D02*
G01*
X26831995Y25565180D01*
X26866554Y25546708D01*
X26896847Y25521847D01*
X26921708Y25491554D01*
X26940180Y25456995D01*
X26951555Y25419499D01*
X26956000Y25374362D01*
X26956000Y24635638D01*
X26951555Y24590501D01*
X26940180Y24553005D01*
X26921708Y24518446D01*
X26896847Y24488153D01*
X26866554Y24463292D01*
X26831995Y24444820D01*
X26794499Y24433445D01*
X26749362Y24429000D01*
X26110638Y24429000D01*
X26065501Y24433445D01*
X26028005Y24444820D01*
X25993446Y24463292D01*
X25963153Y24488153D01*
X25938292Y24518446D01*
X25919820Y24553005D01*
X25908445Y24590501D01*
X25904000Y24635638D01*
X25904000Y25374362D01*
X25908445Y25419499D01*
X25919820Y25456995D01*
X25938292Y25491554D01*
X25963153Y25521847D01*
X25993446Y25546708D01*
X26028005Y25565180D01*
X26065501Y25576555D01*
X26110638Y25581000D01*
X26749362Y25581000D01*
X26794499Y25576555D01*
G37*
G36*
X28304499Y25604555D02*
G01*
X28341995Y25593180D01*
X28376554Y25574708D01*
X28406847Y25549847D01*
X28431708Y25519554D01*
X28450180Y25484995D01*
X28461555Y25447499D01*
X28466000Y25402362D01*
X28466000Y24663638D01*
X28461555Y24618501D01*
X28450180Y24581005D01*
X28431708Y24546446D01*
X28406847Y24516153D01*
X28376554Y24491292D01*
X28341995Y24472820D01*
X28304499Y24461445D01*
X28259362Y24457000D01*
X27620638Y24457000D01*
X27575501Y24461445D01*
X27538005Y24472820D01*
X27503446Y24491292D01*
X27473153Y24516153D01*
X27448292Y24546446D01*
X27429820Y24581005D01*
X27418445Y24618501D01*
X27414000Y24663638D01*
X27414000Y25402362D01*
X27418445Y25447499D01*
X27429820Y25484995D01*
X27448292Y25519554D01*
X27473153Y25549847D01*
X27503446Y25574708D01*
X27538005Y25593180D01*
X27575501Y25604555D01*
X27620638Y25609000D01*
X28259362Y25609000D01*
X28304499Y25604555D01*
G37*
G36*
X30306674Y25758535D02*
G01*
X30344367Y25747101D01*
X30379103Y25728534D01*
X30409548Y25703548D01*
X30434534Y25673103D01*
X30453101Y25638367D01*
X30464535Y25600674D01*
X30469000Y25555339D01*
X30469000Y24718661D01*
X30464535Y24673326D01*
X30453101Y24635633D01*
X30434534Y24600897D01*
X30409548Y24570452D01*
X30379103Y24545466D01*
X30344367Y24526899D01*
X30306674Y24515465D01*
X30261339Y24511000D01*
X29174661Y24511000D01*
X29129326Y24515465D01*
X29091633Y24526899D01*
X29056897Y24545466D01*
X29026452Y24570452D01*
X29001466Y24600897D01*
X28982899Y24635633D01*
X28971465Y24673326D01*
X28967000Y24718661D01*
X28967000Y25555339D01*
X28971465Y25600674D01*
X28982899Y25638367D01*
X29001466Y25673103D01*
X29026452Y25703548D01*
X29056897Y25728534D01*
X29091633Y25747101D01*
X29129326Y25758535D01*
X29174661Y25763000D01*
X30261339Y25763000D01*
X30306674Y25758535D01*
G37*
G36*
X39378499Y26730555D02*
G01*
X39415995Y26719180D01*
X39450554Y26700708D01*
X39480847Y26675847D01*
X39505708Y26645554D01*
X39524180Y26610995D01*
X39535555Y26573499D01*
X39540000Y26528362D01*
X39540000Y25789638D01*
X39535555Y25744501D01*
X39524180Y25707005D01*
X39505708Y25672446D01*
X39480847Y25642153D01*
X39450554Y25617292D01*
X39415995Y25598820D01*
X39378499Y25587445D01*
X39333362Y25583000D01*
X38694638Y25583000D01*
X38649501Y25587445D01*
X38612005Y25598820D01*
X38577446Y25617292D01*
X38547153Y25642153D01*
X38522292Y25672446D01*
X38503820Y25707005D01*
X38492445Y25744501D01*
X38488000Y25789638D01*
X38488000Y26528362D01*
X38492445Y26573499D01*
X38503820Y26610995D01*
X38522292Y26645554D01*
X38547153Y26675847D01*
X38577446Y26700708D01*
X38612005Y26719180D01*
X38649501Y26730555D01*
X38694638Y26735000D01*
X39333362Y26735000D01*
X39378499Y26730555D01*
G37*
G36*
X35760499Y26775555D02*
G01*
X35797995Y26764180D01*
X35832554Y26745708D01*
X35862847Y26720847D01*
X35887708Y26690554D01*
X35906180Y26655995D01*
X35917555Y26618499D01*
X35922000Y26573362D01*
X35922000Y25834638D01*
X35917555Y25789501D01*
X35906180Y25752005D01*
X35887708Y25717446D01*
X35862847Y25687153D01*
X35832554Y25662292D01*
X35797995Y25643820D01*
X35760499Y25632445D01*
X35715362Y25628000D01*
X35076638Y25628000D01*
X35031501Y25632445D01*
X34994005Y25643820D01*
X34959446Y25662292D01*
X34929153Y25687153D01*
X34904292Y25717446D01*
X34885820Y25752005D01*
X34874445Y25789501D01*
X34870000Y25834638D01*
X34870000Y26573362D01*
X34874445Y26618499D01*
X34885820Y26655995D01*
X34904292Y26690554D01*
X34929153Y26720847D01*
X34959446Y26745708D01*
X34994005Y26764180D01*
X35031501Y26775555D01*
X35076638Y26780000D01*
X35715362Y26780000D01*
X35760499Y26775555D01*
G37*
G36*
X33882499Y26775555D02*
G01*
X33919995Y26764180D01*
X33954554Y26745708D01*
X33984847Y26720847D01*
X34009708Y26690554D01*
X34028180Y26655995D01*
X34039555Y26618499D01*
X34044000Y26573362D01*
X34044000Y25834638D01*
X34039555Y25789501D01*
X34028180Y25752005D01*
X34009708Y25717446D01*
X33984847Y25687153D01*
X33954554Y25662292D01*
X33919995Y25643820D01*
X33882499Y25632445D01*
X33837362Y25628000D01*
X33198638Y25628000D01*
X33153501Y25632445D01*
X33116005Y25643820D01*
X33081446Y25662292D01*
X33051153Y25687153D01*
X33026292Y25717446D01*
X33007820Y25752005D01*
X32996445Y25789501D01*
X32992000Y25834638D01*
X32992000Y26573362D01*
X32996445Y26618499D01*
X33007820Y26655995D01*
X33026292Y26690554D01*
X33051153Y26720847D01*
X33081446Y26745708D01*
X33116005Y26764180D01*
X33153501Y26775555D01*
X33198638Y26780000D01*
X33837362Y26780000D01*
X33882499Y26775555D01*
G37*
G36*
X37638499Y26775555D02*
G01*
X37675995Y26764180D01*
X37710554Y26745708D01*
X37740847Y26720847D01*
X37765708Y26690554D01*
X37784180Y26655995D01*
X37795555Y26618499D01*
X37800000Y26573362D01*
X37800000Y25834638D01*
X37795555Y25789501D01*
X37784180Y25752005D01*
X37765708Y25717446D01*
X37740847Y25687153D01*
X37710554Y25662292D01*
X37675995Y25643820D01*
X37638499Y25632445D01*
X37593362Y25628000D01*
X36954638Y25628000D01*
X36909501Y25632445D01*
X36872005Y25643820D01*
X36837446Y25662292D01*
X36807153Y25687153D01*
X36782292Y25717446D01*
X36763820Y25752005D01*
X36752445Y25789501D01*
X36748000Y25834638D01*
X36748000Y26573362D01*
X36752445Y26618499D01*
X36763820Y26655995D01*
X36782292Y26690554D01*
X36807153Y26720847D01*
X36837446Y26745708D01*
X36872005Y26764180D01*
X36909501Y26775555D01*
X36954638Y26780000D01*
X37593362Y26780000D01*
X37638499Y26775555D01*
G37*
G36*
X2852292Y27622253D02*
G01*
X3001592Y27592556D01*
X3165564Y27524636D01*
X3313134Y27426033D01*
X3438633Y27300534D01*
X3537236Y27152964D01*
X3605156Y26988992D01*
X3639780Y26814921D01*
X3639780Y26637439D01*
X3605156Y26463368D01*
X3537236Y26299396D01*
X3438633Y26151826D01*
X3313134Y26026327D01*
X3165564Y25927724D01*
X3001592Y25859804D01*
X2852292Y25830107D01*
X2827522Y25825180D01*
X2650038Y25825180D01*
X2625268Y25830107D01*
X2475968Y25859804D01*
X2311996Y25927724D01*
X2164426Y26026327D01*
X2038927Y26151826D01*
X1940324Y26299396D01*
X1872404Y26463368D01*
X1837780Y26637439D01*
X1837780Y26814921D01*
X1872404Y26988992D01*
X1940324Y27152964D01*
X2038927Y27300534D01*
X2164426Y27426033D01*
X2311996Y27524636D01*
X2475968Y27592556D01*
X2625268Y27622253D01*
X2650038Y27627180D01*
X2827522Y27627180D01*
X2852292Y27622253D01*
G37*
G36*
X42932292Y27622253D02*
G01*
X43081592Y27592556D01*
X43245564Y27524636D01*
X43393134Y27426033D01*
X43518633Y27300534D01*
X43617236Y27152964D01*
X43685156Y26988992D01*
X43719780Y26814921D01*
X43719780Y26637439D01*
X43685156Y26463368D01*
X43617236Y26299396D01*
X43518633Y26151826D01*
X43393134Y26026327D01*
X43245564Y25927724D01*
X43081592Y25859804D01*
X42932292Y25830107D01*
X42907522Y25825180D01*
X42730038Y25825180D01*
X42705268Y25830107D01*
X42555968Y25859804D01*
X42391996Y25927724D01*
X42244426Y26026327D01*
X42118927Y26151826D01*
X42020324Y26299396D01*
X41952404Y26463368D01*
X41917780Y26637439D01*
X41917780Y26814921D01*
X41952404Y26988992D01*
X42020324Y27152964D01*
X42118927Y27300534D01*
X42244426Y27426033D01*
X42391996Y27524636D01*
X42555968Y27592556D01*
X42705268Y27622253D01*
X42730038Y27627180D01*
X42907522Y27627180D01*
X42932292Y27622253D01*
G37*
G36*
X45472292Y27622253D02*
G01*
X45621592Y27592556D01*
X45785564Y27524636D01*
X45933134Y27426033D01*
X46058633Y27300534D01*
X46157236Y27152964D01*
X46225156Y26988992D01*
X46259780Y26814921D01*
X46259780Y26637439D01*
X46225156Y26463368D01*
X46157236Y26299396D01*
X46058633Y26151826D01*
X45933134Y26026327D01*
X45785564Y25927724D01*
X45621592Y25859804D01*
X45472292Y25830107D01*
X45447522Y25825180D01*
X45270038Y25825180D01*
X45245268Y25830107D01*
X45095968Y25859804D01*
X44931996Y25927724D01*
X44784426Y26026327D01*
X44658927Y26151826D01*
X44560324Y26299396D01*
X44492404Y26463368D01*
X44457780Y26637439D01*
X44457780Y26814921D01*
X44492404Y26988992D01*
X44560324Y27152964D01*
X44658927Y27300534D01*
X44784426Y27426033D01*
X44931996Y27524636D01*
X45095968Y27592556D01*
X45245268Y27622253D01*
X45270038Y27627180D01*
X45447522Y27627180D01*
X45472292Y27622253D01*
G37*
G36*
X5392292Y27622253D02*
G01*
X5541592Y27592556D01*
X5705564Y27524636D01*
X5853134Y27426033D01*
X5978633Y27300534D01*
X6077236Y27152964D01*
X6145156Y26988992D01*
X6179780Y26814921D01*
X6179780Y26637439D01*
X6145156Y26463368D01*
X6077236Y26299396D01*
X5978633Y26151826D01*
X5853134Y26026327D01*
X5705564Y25927724D01*
X5541592Y25859804D01*
X5392292Y25830107D01*
X5367522Y25825180D01*
X5190038Y25825180D01*
X5165268Y25830107D01*
X5015968Y25859804D01*
X4851996Y25927724D01*
X4704426Y26026327D01*
X4578927Y26151826D01*
X4480324Y26299396D01*
X4412404Y26463368D01*
X4377780Y26637439D01*
X4377780Y26814921D01*
X4412404Y26988992D01*
X4480324Y27152964D01*
X4578927Y27300534D01*
X4704426Y27426033D01*
X4851996Y27524636D01*
X5015968Y27592556D01*
X5165268Y27622253D01*
X5190038Y27627180D01*
X5367522Y27627180D01*
X5392292Y27622253D01*
G37*
G36*
X23754499Y27316555D02*
G01*
X23791995Y27305180D01*
X23826554Y27286708D01*
X23856847Y27261847D01*
X23881708Y27231554D01*
X23900180Y27196995D01*
X23911555Y27159499D01*
X23916000Y27114362D01*
X23916000Y26375638D01*
X23911555Y26330501D01*
X23900180Y26293005D01*
X23881708Y26258446D01*
X23856847Y26228153D01*
X23826554Y26203292D01*
X23791995Y26184820D01*
X23754499Y26173445D01*
X23709362Y26169000D01*
X23070638Y26169000D01*
X23025501Y26173445D01*
X22988005Y26184820D01*
X22953446Y26203292D01*
X22923153Y26228153D01*
X22898292Y26258446D01*
X22879820Y26293005D01*
X22868445Y26330501D01*
X22864000Y26375638D01*
X22864000Y27114362D01*
X22868445Y27159499D01*
X22879820Y27196995D01*
X22898292Y27231554D01*
X22923153Y27261847D01*
X22953446Y27286708D01*
X22988005Y27305180D01*
X23025501Y27316555D01*
X23070638Y27321000D01*
X23709362Y27321000D01*
X23754499Y27316555D01*
G37*
G36*
X25284499Y27316555D02*
G01*
X25321995Y27305180D01*
X25356554Y27286708D01*
X25386847Y27261847D01*
X25411708Y27231554D01*
X25430180Y27196995D01*
X25441555Y27159499D01*
X25446000Y27114362D01*
X25446000Y26375638D01*
X25441555Y26330501D01*
X25430180Y26293005D01*
X25411708Y26258446D01*
X25386847Y26228153D01*
X25356554Y26203292D01*
X25321995Y26184820D01*
X25284499Y26173445D01*
X25239362Y26169000D01*
X24600638Y26169000D01*
X24555501Y26173445D01*
X24518005Y26184820D01*
X24483446Y26203292D01*
X24453153Y26228153D01*
X24428292Y26258446D01*
X24409820Y26293005D01*
X24398445Y26330501D01*
X24394000Y26375638D01*
X24394000Y27114362D01*
X24398445Y27159499D01*
X24409820Y27196995D01*
X24428292Y27231554D01*
X24453153Y27261847D01*
X24483446Y27286708D01*
X24518005Y27305180D01*
X24555501Y27316555D01*
X24600638Y27321000D01*
X25239362Y27321000D01*
X25284499Y27316555D01*
G37*
G36*
X26794499Y27326555D02*
G01*
X26831995Y27315180D01*
X26866554Y27296708D01*
X26896847Y27271847D01*
X26921708Y27241554D01*
X26940180Y27206995D01*
X26951555Y27169499D01*
X26956000Y27124362D01*
X26956000Y26385638D01*
X26951555Y26340501D01*
X26940180Y26303005D01*
X26921708Y26268446D01*
X26896847Y26238153D01*
X26866554Y26213292D01*
X26831995Y26194820D01*
X26794499Y26183445D01*
X26749362Y26179000D01*
X26110638Y26179000D01*
X26065501Y26183445D01*
X26028005Y26194820D01*
X25993446Y26213292D01*
X25963153Y26238153D01*
X25938292Y26268446D01*
X25919820Y26303005D01*
X25908445Y26340501D01*
X25904000Y26385638D01*
X25904000Y27124362D01*
X25908445Y27169499D01*
X25919820Y27206995D01*
X25938292Y27241554D01*
X25963153Y27271847D01*
X25993446Y27296708D01*
X26028005Y27315180D01*
X26065501Y27326555D01*
X26110638Y27331000D01*
X26749362Y27331000D01*
X26794499Y27326555D01*
G37*
G36*
X28304499Y27354555D02*
G01*
X28341995Y27343180D01*
X28376554Y27324708D01*
X28406847Y27299847D01*
X28431708Y27269554D01*
X28450180Y27234995D01*
X28461555Y27197499D01*
X28466000Y27152362D01*
X28466000Y26413638D01*
X28461555Y26368501D01*
X28450180Y26331005D01*
X28431708Y26296446D01*
X28406847Y26266153D01*
X28376554Y26241292D01*
X28341995Y26222820D01*
X28304499Y26211445D01*
X28259362Y26207000D01*
X27620638Y26207000D01*
X27575501Y26211445D01*
X27538005Y26222820D01*
X27503446Y26241292D01*
X27473153Y26266153D01*
X27448292Y26296446D01*
X27429820Y26331005D01*
X27418445Y26368501D01*
X27414000Y26413638D01*
X27414000Y27152362D01*
X27418445Y27197499D01*
X27429820Y27234995D01*
X27448292Y27269554D01*
X27473153Y27299847D01*
X27503446Y27324708D01*
X27538005Y27343180D01*
X27575501Y27354555D01*
X27620638Y27359000D01*
X28259362Y27359000D01*
X28304499Y27354555D01*
G37*
G36*
X30306674Y27808535D02*
G01*
X30344367Y27797101D01*
X30379103Y27778534D01*
X30409548Y27753548D01*
X30434534Y27723103D01*
X30453101Y27688367D01*
X30464535Y27650674D01*
X30469000Y27605339D01*
X30469000Y26768661D01*
X30464535Y26723326D01*
X30453101Y26685633D01*
X30434534Y26650897D01*
X30409548Y26620452D01*
X30379103Y26595466D01*
X30344367Y26576899D01*
X30306674Y26565465D01*
X30261339Y26561000D01*
X29174661Y26561000D01*
X29129326Y26565465D01*
X29091633Y26576899D01*
X29056897Y26595466D01*
X29026452Y26620452D01*
X29001466Y26650897D01*
X28982899Y26685633D01*
X28971465Y26723326D01*
X28967000Y26768661D01*
X28967000Y27605339D01*
X28971465Y27650674D01*
X28982899Y27688367D01*
X29001466Y27723103D01*
X29026452Y27753548D01*
X29056897Y27778534D01*
X29091633Y27797101D01*
X29129326Y27808535D01*
X29174661Y27813000D01*
X30261339Y27813000D01*
X30306674Y27808535D01*
G37*
G36*
X39378499Y28569555D02*
G01*
X39415995Y28558180D01*
X39450554Y28539708D01*
X39480847Y28514847D01*
X39505708Y28484554D01*
X39524180Y28449995D01*
X39535555Y28412499D01*
X39540000Y28367362D01*
X39540000Y27628638D01*
X39535555Y27583501D01*
X39524180Y27546005D01*
X39505708Y27511446D01*
X39480847Y27481153D01*
X39450554Y27456292D01*
X39415995Y27437820D01*
X39378499Y27426445D01*
X39333362Y27422000D01*
X38694638Y27422000D01*
X38649501Y27426445D01*
X38612005Y27437820D01*
X38577446Y27456292D01*
X38547153Y27481153D01*
X38522292Y27511446D01*
X38503820Y27546005D01*
X38492445Y27583501D01*
X38488000Y27628638D01*
X38488000Y28367362D01*
X38492445Y28412499D01*
X38503820Y28449995D01*
X38522292Y28484554D01*
X38547153Y28514847D01*
X38577446Y28539708D01*
X38612005Y28558180D01*
X38649501Y28569555D01*
X38694638Y28574000D01*
X39333362Y28574000D01*
X39378499Y28569555D01*
G37*
G36*
X33842499Y28600555D02*
G01*
X33879995Y28589180D01*
X33914554Y28570708D01*
X33944847Y28545847D01*
X33969708Y28515554D01*
X33988180Y28480995D01*
X33999555Y28443499D01*
X34004000Y28398362D01*
X34004000Y27659638D01*
X33999555Y27614501D01*
X33988180Y27577005D01*
X33969708Y27542446D01*
X33944847Y27512153D01*
X33914554Y27487292D01*
X33879995Y27468820D01*
X33842499Y27457445D01*
X33797362Y27453000D01*
X33158638Y27453000D01*
X33113501Y27457445D01*
X33076005Y27468820D01*
X33041446Y27487292D01*
X33011153Y27512153D01*
X32986292Y27542446D01*
X32967820Y27577005D01*
X32956445Y27614501D01*
X32952000Y27659638D01*
X32952000Y28398362D01*
X32956445Y28443499D01*
X32967820Y28480995D01*
X32986292Y28515554D01*
X33011153Y28545847D01*
X33041446Y28570708D01*
X33076005Y28589180D01*
X33113501Y28600555D01*
X33158638Y28605000D01*
X33797362Y28605000D01*
X33842499Y28600555D01*
G37*
G36*
X35720499Y28600555D02*
G01*
X35757995Y28589180D01*
X35792554Y28570708D01*
X35822847Y28545847D01*
X35847708Y28515554D01*
X35866180Y28480995D01*
X35877555Y28443499D01*
X35882000Y28398362D01*
X35882000Y27659638D01*
X35877555Y27614501D01*
X35866180Y27577005D01*
X35847708Y27542446D01*
X35822847Y27512153D01*
X35792554Y27487292D01*
X35757995Y27468820D01*
X35720499Y27457445D01*
X35675362Y27453000D01*
X35036638Y27453000D01*
X34991501Y27457445D01*
X34954005Y27468820D01*
X34919446Y27487292D01*
X34889153Y27512153D01*
X34864292Y27542446D01*
X34845820Y27577005D01*
X34834445Y27614501D01*
X34830000Y27659638D01*
X34830000Y28398362D01*
X34834445Y28443499D01*
X34845820Y28480995D01*
X34864292Y28515554D01*
X34889153Y28545847D01*
X34919446Y28570708D01*
X34954005Y28589180D01*
X34991501Y28600555D01*
X35036638Y28605000D01*
X35675362Y28605000D01*
X35720499Y28600555D01*
G37*
G36*
X37598499Y28600555D02*
G01*
X37635995Y28589180D01*
X37670554Y28570708D01*
X37700847Y28545847D01*
X37725708Y28515554D01*
X37744180Y28480995D01*
X37755555Y28443499D01*
X37760000Y28398362D01*
X37760000Y27659638D01*
X37755555Y27614501D01*
X37744180Y27577005D01*
X37725708Y27542446D01*
X37700847Y27512153D01*
X37670554Y27487292D01*
X37635995Y27468820D01*
X37598499Y27457445D01*
X37553362Y27453000D01*
X36914638Y27453000D01*
X36869501Y27457445D01*
X36832005Y27468820D01*
X36797446Y27487292D01*
X36767153Y27512153D01*
X36742292Y27542446D01*
X36723820Y27577005D01*
X36712445Y27614501D01*
X36708000Y27659638D01*
X36708000Y28398362D01*
X36712445Y28443499D01*
X36723820Y28480995D01*
X36742292Y28515554D01*
X36767153Y28545847D01*
X36797446Y28570708D01*
X36832005Y28589180D01*
X36869501Y28600555D01*
X36914638Y28605000D01*
X37553362Y28605000D01*
X37598499Y28600555D01*
G37*
G36*
X18285997Y30766949D02*
G01*
X18319652Y30756739D01*
X18350665Y30740162D01*
X18377851Y30717851D01*
X18400162Y30690665D01*
X18416739Y30659652D01*
X18426949Y30625997D01*
X18431000Y30584862D01*
X18431000Y28255138D01*
X18426949Y28214003D01*
X18416739Y28180348D01*
X18400162Y28149335D01*
X18377851Y28122149D01*
X18350665Y28099838D01*
X18319652Y28083261D01*
X18285997Y28073051D01*
X18244862Y28069000D01*
X16915138Y28069000D01*
X16874003Y28073051D01*
X16840348Y28083261D01*
X16809335Y28099838D01*
X16782149Y28122149D01*
X16759838Y28149335D01*
X16743261Y28180348D01*
X16733051Y28214003D01*
X16729000Y28255138D01*
X16729000Y30584862D01*
X16733051Y30625997D01*
X16743261Y30659652D01*
X16759838Y30690665D01*
X16782149Y30717851D01*
X16809335Y30740162D01*
X16840348Y30756739D01*
X16874003Y30766949D01*
X16915138Y30771000D01*
X18244862Y30771000D01*
X18285997Y30766949D01*
G37*
G36*
X23215997Y30766949D02*
G01*
X23249652Y30756739D01*
X23280665Y30740162D01*
X23307851Y30717851D01*
X23330162Y30690665D01*
X23346739Y30659652D01*
X23356949Y30625997D01*
X23361000Y30584862D01*
X23361000Y28255138D01*
X23356949Y28214003D01*
X23346739Y28180348D01*
X23330162Y28149335D01*
X23307851Y28122149D01*
X23280665Y28099838D01*
X23249652Y28083261D01*
X23215997Y28073051D01*
X23174862Y28069000D01*
X21845138Y28069000D01*
X21804003Y28073051D01*
X21770348Y28083261D01*
X21739335Y28099838D01*
X21712149Y28122149D01*
X21689838Y28149335D01*
X21673261Y28180348D01*
X21663051Y28214003D01*
X21659000Y28255138D01*
X21659000Y30584862D01*
X21663051Y30625997D01*
X21673261Y30659652D01*
X21689838Y30690665D01*
X21712149Y30717851D01*
X21739335Y30740162D01*
X21770348Y30756739D01*
X21804003Y30766949D01*
X21845138Y30771000D01*
X23174862Y30771000D01*
X23215997Y30766949D01*
G37*
G36*
X13045997Y30766949D02*
G01*
X13079652Y30756739D01*
X13110665Y30740162D01*
X13137851Y30717851D01*
X13160162Y30690665D01*
X13176739Y30659652D01*
X13186949Y30625997D01*
X13191000Y30584862D01*
X13191000Y28255138D01*
X13186949Y28214003D01*
X13176739Y28180348D01*
X13160162Y28149335D01*
X13137851Y28122149D01*
X13110665Y28099838D01*
X13079652Y28083261D01*
X13045997Y28073051D01*
X13004862Y28069000D01*
X11675138Y28069000D01*
X11634003Y28073051D01*
X11600348Y28083261D01*
X11569335Y28099838D01*
X11542149Y28122149D01*
X11519838Y28149335D01*
X11503261Y28180348D01*
X11493051Y28214003D01*
X11489000Y28255138D01*
X11489000Y30584862D01*
X11493051Y30625997D01*
X11503261Y30659652D01*
X11519838Y30690665D01*
X11542149Y30717851D01*
X11569335Y30740162D01*
X11600348Y30756739D01*
X11634003Y30766949D01*
X11675138Y30771000D01*
X13004862Y30771000D01*
X13045997Y30766949D01*
G37*
G36*
X2851055Y30162499D02*
G01*
X3001592Y30132556D01*
X3165564Y30064636D01*
X3313134Y29966033D01*
X3438633Y29840534D01*
X3537236Y29692964D01*
X3605156Y29528992D01*
X3627891Y29414691D01*
X3637875Y29364501D01*
X3639780Y29354921D01*
X3639780Y29177439D01*
X3605156Y29003368D01*
X3537236Y28839396D01*
X3438633Y28691826D01*
X3313134Y28566327D01*
X3165564Y28467724D01*
X3001592Y28399804D01*
X2852292Y28370107D01*
X2827522Y28365180D01*
X2650038Y28365180D01*
X2625268Y28370107D01*
X2475968Y28399804D01*
X2311996Y28467724D01*
X2164426Y28566327D01*
X2038927Y28691826D01*
X1940324Y28839396D01*
X1872404Y29003368D01*
X1837780Y29177439D01*
X1837780Y29354921D01*
X1839686Y29364501D01*
X1849669Y29414691D01*
X1872404Y29528992D01*
X1940324Y29692964D01*
X2038927Y29840534D01*
X2164426Y29966033D01*
X2311996Y30064636D01*
X2475968Y30132556D01*
X2626505Y30162499D01*
X2650038Y30167180D01*
X2827522Y30167180D01*
X2851055Y30162499D01*
G37*
G36*
X5391055Y30162499D02*
G01*
X5541592Y30132556D01*
X5705564Y30064636D01*
X5853134Y29966033D01*
X5978633Y29840534D01*
X6077236Y29692964D01*
X6145156Y29528992D01*
X6167891Y29414691D01*
X6177875Y29364501D01*
X6179780Y29354921D01*
X6179780Y29177439D01*
X6145156Y29003368D01*
X6077236Y28839396D01*
X5978633Y28691826D01*
X5853134Y28566327D01*
X5705564Y28467724D01*
X5541592Y28399804D01*
X5392292Y28370107D01*
X5367522Y28365180D01*
X5190038Y28365180D01*
X5165268Y28370107D01*
X5015968Y28399804D01*
X4851996Y28467724D01*
X4704426Y28566327D01*
X4578927Y28691826D01*
X4480324Y28839396D01*
X4412404Y29003368D01*
X4377780Y29177439D01*
X4377780Y29354921D01*
X4379686Y29364501D01*
X4389669Y29414691D01*
X4412404Y29528992D01*
X4480324Y29692964D01*
X4578927Y29840534D01*
X4704426Y29966033D01*
X4851996Y30064636D01*
X5015968Y30132556D01*
X5166505Y30162499D01*
X5190038Y30167180D01*
X5367522Y30167180D01*
X5391055Y30162499D01*
G37*
G36*
X45471055Y30162499D02*
G01*
X45621592Y30132556D01*
X45785564Y30064636D01*
X45933134Y29966033D01*
X46058633Y29840534D01*
X46157236Y29692964D01*
X46225156Y29528992D01*
X46247891Y29414691D01*
X46257875Y29364501D01*
X46259780Y29354921D01*
X46259780Y29177439D01*
X46225156Y29003368D01*
X46157236Y28839396D01*
X46058633Y28691826D01*
X45933134Y28566327D01*
X45785564Y28467724D01*
X45621592Y28399804D01*
X45472292Y28370107D01*
X45447522Y28365180D01*
X45270038Y28365180D01*
X45245268Y28370107D01*
X45095968Y28399804D01*
X44931996Y28467724D01*
X44784426Y28566327D01*
X44658927Y28691826D01*
X44560324Y28839396D01*
X44492404Y29003368D01*
X44457780Y29177439D01*
X44457780Y29354921D01*
X44459686Y29364501D01*
X44469669Y29414691D01*
X44492404Y29528992D01*
X44560324Y29692964D01*
X44658927Y29840534D01*
X44784426Y29966033D01*
X44931996Y30064636D01*
X45095968Y30132556D01*
X45246505Y30162499D01*
X45270038Y30167180D01*
X45447522Y30167180D01*
X45471055Y30162499D01*
G37*
G36*
X42931055Y30162499D02*
G01*
X43081592Y30132556D01*
X43245564Y30064636D01*
X43393134Y29966033D01*
X43518633Y29840534D01*
X43617236Y29692964D01*
X43685156Y29528992D01*
X43707891Y29414691D01*
X43717875Y29364501D01*
X43719780Y29354921D01*
X43719780Y29177439D01*
X43685156Y29003368D01*
X43617236Y28839396D01*
X43518633Y28691826D01*
X43393134Y28566327D01*
X43245564Y28467724D01*
X43081592Y28399804D01*
X42932292Y28370107D01*
X42907522Y28365180D01*
X42730038Y28365180D01*
X42705268Y28370107D01*
X42555968Y28399804D01*
X42391996Y28467724D01*
X42244426Y28566327D01*
X42118927Y28691826D01*
X42020324Y28839396D01*
X41952404Y29003368D01*
X41917780Y29177439D01*
X41917780Y29354921D01*
X41919686Y29364501D01*
X41929669Y29414691D01*
X41952404Y29528992D01*
X42020324Y29692964D01*
X42118927Y29840534D01*
X42244426Y29966033D01*
X42391996Y30064636D01*
X42555968Y30132556D01*
X42706505Y30162499D01*
X42730038Y30167180D01*
X42907522Y30167180D01*
X42931055Y30162499D01*
G37*
G36*
X39378499Y30319555D02*
G01*
X39415995Y30308180D01*
X39450554Y30289708D01*
X39480847Y30264847D01*
X39505708Y30234554D01*
X39524180Y30199995D01*
X39535555Y30162499D01*
X39540000Y30117362D01*
X39540000Y29378638D01*
X39535555Y29333501D01*
X39524180Y29296005D01*
X39505708Y29261446D01*
X39480847Y29231153D01*
X39450554Y29206292D01*
X39415995Y29187820D01*
X39378499Y29176445D01*
X39333362Y29172000D01*
X38694638Y29172000D01*
X38649501Y29176445D01*
X38612005Y29187820D01*
X38577446Y29206292D01*
X38547153Y29231153D01*
X38522292Y29261446D01*
X38503820Y29296005D01*
X38492445Y29333501D01*
X38488000Y29378638D01*
X38488000Y30117362D01*
X38492445Y30162499D01*
X38503820Y30199995D01*
X38522292Y30234554D01*
X38547153Y30264847D01*
X38577446Y30289708D01*
X38612005Y30308180D01*
X38649501Y30319555D01*
X38694638Y30324000D01*
X39333362Y30324000D01*
X39378499Y30319555D01*
G37*
G36*
X37598499Y30350555D02*
G01*
X37635995Y30339180D01*
X37670554Y30320708D01*
X37700847Y30295847D01*
X37725708Y30265554D01*
X37744180Y30230995D01*
X37755555Y30193499D01*
X37760000Y30148362D01*
X37760000Y29409638D01*
X37755555Y29364501D01*
X37744180Y29327005D01*
X37725708Y29292446D01*
X37700847Y29262153D01*
X37670554Y29237292D01*
X37635995Y29218820D01*
X37598499Y29207445D01*
X37553362Y29203000D01*
X36914638Y29203000D01*
X36869501Y29207445D01*
X36832005Y29218820D01*
X36797446Y29237292D01*
X36767153Y29262153D01*
X36742292Y29292446D01*
X36723820Y29327005D01*
X36712445Y29364501D01*
X36708000Y29409638D01*
X36708000Y30148362D01*
X36712445Y30193499D01*
X36723820Y30230995D01*
X36742292Y30265554D01*
X36767153Y30295847D01*
X36797446Y30320708D01*
X36832005Y30339180D01*
X36869501Y30350555D01*
X36914638Y30355000D01*
X37553362Y30355000D01*
X37598499Y30350555D01*
G37*
G36*
X33842499Y30350555D02*
G01*
X33879995Y30339180D01*
X33914554Y30320708D01*
X33944847Y30295847D01*
X33969708Y30265554D01*
X33988180Y30230995D01*
X33999555Y30193499D01*
X34004000Y30148362D01*
X34004000Y29409638D01*
X33999555Y29364501D01*
X33988180Y29327005D01*
X33969708Y29292446D01*
X33944847Y29262153D01*
X33914554Y29237292D01*
X33879995Y29218820D01*
X33842499Y29207445D01*
X33797362Y29203000D01*
X33158638Y29203000D01*
X33113501Y29207445D01*
X33076005Y29218820D01*
X33041446Y29237292D01*
X33011153Y29262153D01*
X32986292Y29292446D01*
X32967820Y29327005D01*
X32956445Y29364501D01*
X32952000Y29409638D01*
X32952000Y30148362D01*
X32956445Y30193499D01*
X32967820Y30230995D01*
X32986292Y30265554D01*
X33011153Y30295847D01*
X33041446Y30320708D01*
X33076005Y30339180D01*
X33113501Y30350555D01*
X33158638Y30355000D01*
X33797362Y30355000D01*
X33842499Y30350555D01*
G37*
G36*
X35720499Y30350555D02*
G01*
X35757995Y30339180D01*
X35792554Y30320708D01*
X35822847Y30295847D01*
X35847708Y30265554D01*
X35866180Y30230995D01*
X35877555Y30193499D01*
X35882000Y30148362D01*
X35882000Y29409638D01*
X35877555Y29364501D01*
X35866180Y29327005D01*
X35847708Y29292446D01*
X35822847Y29262153D01*
X35792554Y29237292D01*
X35757995Y29218820D01*
X35720499Y29207445D01*
X35675362Y29203000D01*
X35036638Y29203000D01*
X34991501Y29207445D01*
X34954005Y29218820D01*
X34919446Y29237292D01*
X34889153Y29262153D01*
X34864292Y29292446D01*
X34845820Y29327005D01*
X34834445Y29364501D01*
X34830000Y29409638D01*
X34830000Y30148362D01*
X34834445Y30193499D01*
X34845820Y30230995D01*
X34864292Y30265554D01*
X34889153Y30295847D01*
X34919446Y30320708D01*
X34954005Y30339180D01*
X34991501Y30350555D01*
X35036638Y30355000D01*
X35675362Y30355000D01*
X35720499Y30350555D01*
G37*
G36*
X42932292Y32702253D02*
G01*
X43081592Y32672556D01*
X43245564Y32604636D01*
X43393134Y32506033D01*
X43518633Y32380534D01*
X43617236Y32232964D01*
X43685156Y32068992D01*
X43719780Y31894921D01*
X43719780Y31717439D01*
X43685156Y31543368D01*
X43617236Y31379396D01*
X43518633Y31231826D01*
X43393134Y31106327D01*
X43245564Y31007724D01*
X43081592Y30939804D01*
X42932292Y30910107D01*
X42907522Y30905180D01*
X42730038Y30905180D01*
X42705268Y30910107D01*
X42555968Y30939804D01*
X42391996Y31007724D01*
X42244426Y31106327D01*
X42118927Y31231826D01*
X42020324Y31379396D01*
X41952404Y31543368D01*
X41917780Y31717439D01*
X41917780Y31894921D01*
X41952404Y32068992D01*
X42020324Y32232964D01*
X42118927Y32380534D01*
X42244426Y32506033D01*
X42391996Y32604636D01*
X42555968Y32672556D01*
X42705268Y32702253D01*
X42730038Y32707180D01*
X42907522Y32707180D01*
X42932292Y32702253D01*
G37*
G36*
X5392292Y32702253D02*
G01*
X5541592Y32672556D01*
X5705564Y32604636D01*
X5853134Y32506033D01*
X5978633Y32380534D01*
X6077236Y32232964D01*
X6145156Y32068992D01*
X6179780Y31894921D01*
X6179780Y31717439D01*
X6145156Y31543368D01*
X6077236Y31379396D01*
X5978633Y31231826D01*
X5853134Y31106327D01*
X5705564Y31007724D01*
X5541592Y30939804D01*
X5392292Y30910107D01*
X5367522Y30905180D01*
X5190038Y30905180D01*
X5165268Y30910107D01*
X5015968Y30939804D01*
X4851996Y31007724D01*
X4704426Y31106327D01*
X4578927Y31231826D01*
X4480324Y31379396D01*
X4412404Y31543368D01*
X4377780Y31717439D01*
X4377780Y31894921D01*
X4412404Y32068992D01*
X4480324Y32232964D01*
X4578927Y32380534D01*
X4704426Y32506033D01*
X4851996Y32604636D01*
X5015968Y32672556D01*
X5165268Y32702253D01*
X5190038Y32707180D01*
X5367522Y32707180D01*
X5392292Y32702253D01*
G37*
G36*
X45472292Y32702253D02*
G01*
X45621592Y32672556D01*
X45785564Y32604636D01*
X45933134Y32506033D01*
X46058633Y32380534D01*
X46157236Y32232964D01*
X46225156Y32068992D01*
X46259780Y31894921D01*
X46259780Y31717439D01*
X46225156Y31543368D01*
X46157236Y31379396D01*
X46058633Y31231826D01*
X45933134Y31106327D01*
X45785564Y31007724D01*
X45621592Y30939804D01*
X45472292Y30910107D01*
X45447522Y30905180D01*
X45270038Y30905180D01*
X45245268Y30910107D01*
X45095968Y30939804D01*
X44931996Y31007724D01*
X44784426Y31106327D01*
X44658927Y31231826D01*
X44560324Y31379396D01*
X44492404Y31543368D01*
X44457780Y31717439D01*
X44457780Y31894921D01*
X44492404Y32068992D01*
X44560324Y32232964D01*
X44658927Y32380534D01*
X44784426Y32506033D01*
X44931996Y32604636D01*
X45095968Y32672556D01*
X45245268Y32702253D01*
X45270038Y32707180D01*
X45447522Y32707180D01*
X45472292Y32702253D01*
G37*
G36*
X2852292Y32702253D02*
G01*
X3001592Y32672556D01*
X3165564Y32604636D01*
X3313134Y32506033D01*
X3438633Y32380534D01*
X3537236Y32232964D01*
X3605156Y32068992D01*
X3639780Y31894921D01*
X3639780Y31717439D01*
X3605156Y31543368D01*
X3537236Y31379396D01*
X3438633Y31231826D01*
X3313134Y31106327D01*
X3165564Y31007724D01*
X3001592Y30939804D01*
X2852292Y30910107D01*
X2827522Y30905180D01*
X2650038Y30905180D01*
X2625268Y30910107D01*
X2475968Y30939804D01*
X2311996Y31007724D01*
X2164426Y31106327D01*
X2038927Y31231826D01*
X1940324Y31379396D01*
X1872404Y31543368D01*
X1837780Y31717439D01*
X1837780Y31894921D01*
X1872404Y32068992D01*
X1940324Y32232964D01*
X2038927Y32380534D01*
X2164426Y32506033D01*
X2311996Y32604636D01*
X2475968Y32672556D01*
X2625268Y32702253D01*
X2650038Y32707180D01*
X2827522Y32707180D01*
X2852292Y32702253D01*
G37*
G36*
X18285997Y34366949D02*
G01*
X18319652Y34356739D01*
X18350665Y34340162D01*
X18377851Y34317851D01*
X18400162Y34290665D01*
X18416739Y34259652D01*
X18426949Y34225997D01*
X18431000Y34184862D01*
X18431000Y31855138D01*
X18426949Y31814003D01*
X18416739Y31780348D01*
X18400162Y31749335D01*
X18377851Y31722149D01*
X18350665Y31699838D01*
X18319652Y31683261D01*
X18285997Y31673051D01*
X18244862Y31669000D01*
X16915138Y31669000D01*
X16874003Y31673051D01*
X16840348Y31683261D01*
X16809335Y31699838D01*
X16782149Y31722149D01*
X16759838Y31749335D01*
X16743261Y31780348D01*
X16733051Y31814003D01*
X16729000Y31855138D01*
X16729000Y34184862D01*
X16733051Y34225997D01*
X16743261Y34259652D01*
X16759838Y34290665D01*
X16782149Y34317851D01*
X16809335Y34340162D01*
X16840348Y34356739D01*
X16874003Y34366949D01*
X16915138Y34371000D01*
X18244862Y34371000D01*
X18285997Y34366949D01*
G37*
G36*
X13045997Y34366949D02*
G01*
X13079652Y34356739D01*
X13110665Y34340162D01*
X13137851Y34317851D01*
X13160162Y34290665D01*
X13176739Y34259652D01*
X13186949Y34225997D01*
X13191000Y34184862D01*
X13191000Y31855138D01*
X13186949Y31814003D01*
X13176739Y31780348D01*
X13160162Y31749335D01*
X13137851Y31722149D01*
X13110665Y31699838D01*
X13079652Y31683261D01*
X13045997Y31673051D01*
X13004862Y31669000D01*
X11675138Y31669000D01*
X11634003Y31673051D01*
X11600348Y31683261D01*
X11569335Y31699838D01*
X11542149Y31722149D01*
X11519838Y31749335D01*
X11503261Y31780348D01*
X11493051Y31814003D01*
X11489000Y31855138D01*
X11489000Y34184862D01*
X11493051Y34225997D01*
X11503261Y34259652D01*
X11519838Y34290665D01*
X11542149Y34317851D01*
X11569335Y34340162D01*
X11600348Y34356739D01*
X11634003Y34366949D01*
X11675138Y34371000D01*
X13004862Y34371000D01*
X13045997Y34366949D01*
G37*
G36*
X23215997Y34366949D02*
G01*
X23249652Y34356739D01*
X23280665Y34340162D01*
X23307851Y34317851D01*
X23330162Y34290665D01*
X23346739Y34259652D01*
X23356949Y34225997D01*
X23361000Y34184862D01*
X23361000Y31855138D01*
X23356949Y31814003D01*
X23346739Y31780348D01*
X23330162Y31749335D01*
X23307851Y31722149D01*
X23280665Y31699838D01*
X23249652Y31683261D01*
X23215997Y31673051D01*
X23174862Y31669000D01*
X21845138Y31669000D01*
X21804003Y31673051D01*
X21770348Y31683261D01*
X21739335Y31699838D01*
X21712149Y31722149D01*
X21689838Y31749335D01*
X21673261Y31780348D01*
X21663051Y31814003D01*
X21659000Y31855138D01*
X21659000Y34184862D01*
X21663051Y34225997D01*
X21673261Y34259652D01*
X21689838Y34290665D01*
X21712149Y34317851D01*
X21739335Y34340162D01*
X21770348Y34356739D01*
X21804003Y34366949D01*
X21845138Y34371000D01*
X23174862Y34371000D01*
X23215997Y34366949D01*
G37*
G36*
X29682674Y34274535D02*
G01*
X29720367Y34263101D01*
X29755103Y34244534D01*
X29785548Y34219548D01*
X29810534Y34189103D01*
X29829101Y34154367D01*
X29840535Y34116674D01*
X29845000Y34071339D01*
X29845000Y32984661D01*
X29840535Y32939326D01*
X29829101Y32901633D01*
X29810534Y32866897D01*
X29785548Y32836452D01*
X29755103Y32811466D01*
X29720367Y32792899D01*
X29682674Y32781465D01*
X29637339Y32777000D01*
X28800661Y32777000D01*
X28755326Y32781465D01*
X28717633Y32792899D01*
X28682897Y32811466D01*
X28652452Y32836452D01*
X28627466Y32866897D01*
X28608899Y32901633D01*
X28597465Y32939326D01*
X28593000Y32984661D01*
X28593000Y34071339D01*
X28597465Y34116674D01*
X28608899Y34154367D01*
X28627466Y34189103D01*
X28652452Y34219548D01*
X28682897Y34244534D01*
X28717633Y34263101D01*
X28755326Y34274535D01*
X28800661Y34279000D01*
X29637339Y34279000D01*
X29682674Y34274535D01*
G37*
G36*
X27632674Y34274535D02*
G01*
X27670367Y34263101D01*
X27705103Y34244534D01*
X27735548Y34219548D01*
X27760534Y34189103D01*
X27779101Y34154367D01*
X27790535Y34116674D01*
X27795000Y34071339D01*
X27795000Y32984661D01*
X27790535Y32939326D01*
X27779101Y32901633D01*
X27760534Y32866897D01*
X27735548Y32836452D01*
X27705103Y32811466D01*
X27670367Y32792899D01*
X27632674Y32781465D01*
X27587339Y32777000D01*
X26750661Y32777000D01*
X26705326Y32781465D01*
X26667633Y32792899D01*
X26632897Y32811466D01*
X26602452Y32836452D01*
X26577466Y32866897D01*
X26558899Y32901633D01*
X26547465Y32939326D01*
X26543000Y32984661D01*
X26543000Y34071339D01*
X26547465Y34116674D01*
X26558899Y34154367D01*
X26577466Y34189103D01*
X26602452Y34219548D01*
X26632897Y34244534D01*
X26667633Y34263101D01*
X26705326Y34274535D01*
X26750661Y34279000D01*
X27587339Y34279000D01*
X27632674Y34274535D01*
G37*
G36*
X40818000Y33171000D02*
G01*
X38556000Y33171000D01*
X38556000Y34393000D01*
X40818000Y34393000D01*
X40818000Y33171000D01*
G37*
G36*
X34088000Y33171000D02*
G01*
X31826000Y33171000D01*
X31826000Y34393000D01*
X34088000Y34393000D01*
X34088000Y33171000D01*
G37*
G36*
X43204499Y34376555D02*
G01*
X43241995Y34365180D01*
X43276554Y34346708D01*
X43306847Y34321847D01*
X43331708Y34291554D01*
X43350180Y34256995D01*
X43361555Y34219499D01*
X43366000Y34174362D01*
X43366000Y33435638D01*
X43361555Y33390501D01*
X43350180Y33353005D01*
X43331708Y33318446D01*
X43306847Y33288153D01*
X43276554Y33263292D01*
X43241995Y33244820D01*
X43204499Y33233445D01*
X43159362Y33229000D01*
X42520638Y33229000D01*
X42475501Y33233445D01*
X42438005Y33244820D01*
X42403446Y33263292D01*
X42373153Y33288153D01*
X42348292Y33318446D01*
X42329820Y33353005D01*
X42318445Y33390501D01*
X42314000Y33435638D01*
X42314000Y34174362D01*
X42318445Y34219499D01*
X42329820Y34256995D01*
X42348292Y34291554D01*
X42373153Y34321847D01*
X42403446Y34346708D01*
X42438005Y34365180D01*
X42475501Y34376555D01*
X42520638Y34381000D01*
X43159362Y34381000D01*
X43204499Y34376555D01*
G37*
G36*
X43204499Y36126555D02*
G01*
X43241995Y36115180D01*
X43276554Y36096708D01*
X43306847Y36071847D01*
X43331708Y36041554D01*
X43350180Y36006995D01*
X43361555Y35969499D01*
X43366000Y35924362D01*
X43366000Y35185638D01*
X43361555Y35140501D01*
X43350180Y35103005D01*
X43331708Y35068446D01*
X43306847Y35038153D01*
X43276554Y35013292D01*
X43241995Y34994820D01*
X43204499Y34983445D01*
X43159362Y34979000D01*
X42520638Y34979000D01*
X42475501Y34983445D01*
X42438005Y34994820D01*
X42403446Y35013292D01*
X42373153Y35038153D01*
X42348292Y35068446D01*
X42329820Y35103005D01*
X42318445Y35140501D01*
X42314000Y35185638D01*
X42314000Y35924362D01*
X42318445Y35969499D01*
X42329820Y36006995D01*
X42348292Y36041554D01*
X42373153Y36071847D01*
X42403446Y36096708D01*
X42438005Y36115180D01*
X42475501Y36126555D01*
X42520638Y36131000D01*
X43159362Y36131000D01*
X43204499Y36126555D01*
G37*
M02*
