G04 #@! TF.GenerationSoftware,KiCad,Pcbnew,(5.1.5)-3*
G04 #@! TF.CreationDate,2021-07-18T18:32:17+02:00*
G04 #@! TF.ProjectId,sDrive1,73447269-7665-4312-9e6b-696361645f70,rev?*
G04 #@! TF.SameCoordinates,Original*
G04 #@! TF.FileFunction,Legend,Top*
G04 #@! TF.FilePolarity,Positive*
%FSLAX46Y46*%
G04 Gerber Fmt 4.6, Leading zero omitted, Abs format (unit mm)*
G04 Created by KiCad (PCBNEW (5.1.5)-3) date 2021-07-18 18:32:17*
%MOMM*%
%LPD*%
G04 APERTURE LIST*
%ADD10C,0.120000*%
%ADD11C,0.203200*%
%ADD12C,0.200000*%
%ADD13C,0.150000*%
%ADD14C,0.127000*%
%ADD15C,0.100000*%
%ADD16C,0.075000*%
%ADD17C,0.137881*%
G04 APERTURE END LIST*
D10*
X27137521Y17338000D02*
G75*
G03X27137521Y17338000I-3003521J0D01*
G01*
D11*
X24216380Y33414666D02*
X24216380Y33898476D01*
X23732571Y33946857D01*
X23780952Y33898476D01*
X23829333Y33801714D01*
X23829333Y33559809D01*
X23780952Y33463047D01*
X23732571Y33414666D01*
X23635809Y33366285D01*
X23393904Y33366285D01*
X23297142Y33414666D01*
X23248761Y33463047D01*
X23200380Y33559809D01*
X23200380Y33801714D01*
X23248761Y33898476D01*
X23297142Y33946857D01*
X24216380Y33076000D02*
X23200380Y32737333D01*
X24216380Y32398666D01*
X23200380Y31285904D02*
X24216380Y31285904D01*
X23200380Y30802095D02*
X24216380Y30802095D01*
X23200380Y30221523D01*
X24216380Y30221523D01*
X22403580Y33838476D02*
X21387580Y33499809D01*
X22403580Y33161142D01*
X21387580Y32822476D02*
X22403580Y32822476D01*
X21677866Y32483809D01*
X22403580Y32145142D01*
X21387580Y32145142D01*
X22403580Y31467809D02*
X22403580Y31274285D01*
X22355200Y31177523D01*
X22258438Y31080761D01*
X22064914Y31032380D01*
X21726247Y31032380D01*
X21532723Y31080761D01*
X21435961Y31177523D01*
X21387580Y31274285D01*
X21387580Y31467809D01*
X21435961Y31564571D01*
X21532723Y31661333D01*
X21726247Y31709714D01*
X22064914Y31709714D01*
X22258438Y31661333D01*
X22355200Y31564571D01*
X22403580Y31467809D01*
X22403580Y30742095D02*
X22403580Y30161523D01*
X21387580Y30451809D02*
X22403580Y30451809D01*
X32143238Y25674380D02*
X32143238Y26690380D01*
X32385142Y26690380D01*
X32530285Y26642000D01*
X32627047Y26545238D01*
X32675428Y26448476D01*
X32723809Y26254952D01*
X32723809Y26109809D01*
X32675428Y25916285D01*
X32627047Y25819523D01*
X32530285Y25722761D01*
X32385142Y25674380D01*
X32143238Y25674380D01*
X33739809Y25674380D02*
X33401142Y26158190D01*
X33159238Y25674380D02*
X33159238Y26690380D01*
X33546285Y26690380D01*
X33643047Y26642000D01*
X33691428Y26593619D01*
X33739809Y26496857D01*
X33739809Y26351714D01*
X33691428Y26254952D01*
X33643047Y26206571D01*
X33546285Y26158190D01*
X33159238Y26158190D01*
X34030095Y26690380D02*
X34368761Y25674380D01*
X34707428Y26690380D01*
X35191238Y26254952D02*
X35094476Y26303333D01*
X35046095Y26351714D01*
X34997714Y26448476D01*
X34997714Y26496857D01*
X35046095Y26593619D01*
X35094476Y26642000D01*
X35191238Y26690380D01*
X35384761Y26690380D01*
X35481523Y26642000D01*
X35529904Y26593619D01*
X35578285Y26496857D01*
X35578285Y26448476D01*
X35529904Y26351714D01*
X35481523Y26303333D01*
X35384761Y26254952D01*
X35191238Y26254952D01*
X35094476Y26206571D01*
X35046095Y26158190D01*
X34997714Y26061428D01*
X34997714Y25867904D01*
X35046095Y25771142D01*
X35094476Y25722761D01*
X35191238Y25674380D01*
X35384761Y25674380D01*
X35481523Y25722761D01*
X35529904Y25771142D01*
X35578285Y25867904D01*
X35578285Y26061428D01*
X35529904Y26158190D01*
X35481523Y26206571D01*
X35384761Y26254952D01*
X35916952Y26690380D02*
X36545904Y26690380D01*
X36207238Y26303333D01*
X36352380Y26303333D01*
X36449142Y26254952D01*
X36497523Y26206571D01*
X36545904Y26109809D01*
X36545904Y25867904D01*
X36497523Y25771142D01*
X36449142Y25722761D01*
X36352380Y25674380D01*
X36062095Y25674380D01*
X35965333Y25722761D01*
X35916952Y25771142D01*
X36932952Y26593619D02*
X36981333Y26642000D01*
X37078095Y26690380D01*
X37320000Y26690380D01*
X37416761Y26642000D01*
X37465142Y26593619D01*
X37513523Y26496857D01*
X37513523Y26400095D01*
X37465142Y26254952D01*
X36884571Y25674380D01*
X37513523Y25674380D01*
X37852190Y26690380D02*
X38481142Y26690380D01*
X38142476Y26303333D01*
X38287619Y26303333D01*
X38384380Y26254952D01*
X38432761Y26206571D01*
X38481142Y26109809D01*
X38481142Y25867904D01*
X38432761Y25771142D01*
X38384380Y25722761D01*
X38287619Y25674380D01*
X37997333Y25674380D01*
X37900571Y25722761D01*
X37852190Y25771142D01*
X18492571Y33880476D02*
X18492571Y34219142D01*
X17960380Y34219142D02*
X18976380Y34219142D01*
X18976380Y33735333D01*
X17960380Y32912857D02*
X18492571Y32912857D01*
X18589333Y32961238D01*
X18637714Y33058000D01*
X18637714Y33251523D01*
X18589333Y33348285D01*
X18008761Y32912857D02*
X17960380Y33009619D01*
X17960380Y33251523D01*
X18008761Y33348285D01*
X18105523Y33396666D01*
X18202285Y33396666D01*
X18299047Y33348285D01*
X18347428Y33251523D01*
X18347428Y33009619D01*
X18395809Y32912857D01*
X18637714Y31993619D02*
X17960380Y31993619D01*
X18637714Y32429047D02*
X18105523Y32429047D01*
X18008761Y32380666D01*
X17960380Y32283904D01*
X17960380Y32138761D01*
X18008761Y32042000D01*
X18057142Y31993619D01*
X17960380Y31364666D02*
X18008761Y31461428D01*
X18105523Y31509809D01*
X18976380Y31509809D01*
X18637714Y31122761D02*
X18637714Y30735714D01*
X18976380Y30977619D02*
X18105523Y30977619D01*
X18008761Y30929238D01*
X17960380Y30832476D01*
X17960380Y30735714D01*
D12*
X20554095Y34325238D02*
X19754095Y34058571D01*
X20554095Y33791904D01*
X19754095Y33525238D02*
X20554095Y33525238D01*
X19982666Y33258571D01*
X20554095Y32991904D01*
X19754095Y32991904D01*
X20554095Y32458571D02*
X20554095Y32306190D01*
X20516000Y32230000D01*
X20439809Y32153809D01*
X20287428Y32115714D01*
X20020761Y32115714D01*
X19868380Y32153809D01*
X19792190Y32230000D01*
X19754095Y32306190D01*
X19754095Y32458571D01*
X19792190Y32534761D01*
X19868380Y32610952D01*
X20020761Y32649047D01*
X20287428Y32649047D01*
X20439809Y32610952D01*
X20516000Y32534761D01*
X20554095Y32458571D01*
X20554095Y31887142D02*
X20554095Y31430000D01*
X19754095Y31658571D02*
X20554095Y31658571D01*
X19677904Y31353809D02*
X19677904Y30744285D01*
X20173142Y30287142D02*
X20173142Y30553809D01*
X19754095Y30553809D02*
X20554095Y30553809D01*
X20554095Y30172857D01*
D10*
X27110000Y17252000D02*
G75*
G03X27110000Y17252000I-3000000J0D01*
G01*
X10441000Y10042000D02*
X10441000Y7582000D01*
X11911000Y10042000D02*
X10441000Y10042000D01*
X11911000Y7582000D02*
X11911000Y10042000D01*
D13*
X12281000Y24352000D02*
X12281000Y21377000D01*
X10031000Y23527000D02*
X10031000Y21377000D01*
D10*
X10331267Y26062000D02*
X9988733Y26062000D01*
X10331267Y25042000D02*
X9988733Y25042000D01*
X13396000Y18170733D02*
X13396000Y18513267D01*
X12376000Y18170733D02*
X12376000Y18513267D01*
X11886000Y18170733D02*
X11886000Y18513267D01*
X10866000Y18170733D02*
X10866000Y18513267D01*
X10366000Y18170733D02*
X10366000Y18513267D01*
X9346000Y18170733D02*
X9346000Y18513267D01*
X13633267Y26062000D02*
X13290733Y26062000D01*
X13633267Y25042000D02*
X13290733Y25042000D01*
X13796000Y22180733D02*
X13796000Y22523267D01*
X12776000Y22180733D02*
X12776000Y22523267D01*
X32650000Y8360000D02*
X32150000Y8360000D01*
X32400000Y8610000D02*
X32400000Y8110000D01*
X29644437Y7870000D02*
X28580000Y6805563D01*
X32035563Y7870000D02*
X33100000Y6805563D01*
X32035563Y7870000D02*
X31900000Y7870000D01*
X29644437Y7870000D02*
X29780000Y7870000D01*
X28580000Y6805563D02*
X28580000Y3350000D01*
X33100000Y6805563D02*
X33100000Y3350000D01*
X33100000Y3350000D02*
X31900000Y3350000D01*
X28580000Y3350000D02*
X29780000Y3350000D01*
X27410000Y8360000D02*
X26910000Y8360000D01*
X27160000Y8610000D02*
X27160000Y8110000D01*
X24404437Y7870000D02*
X23340000Y6805563D01*
X26795563Y7870000D02*
X27860000Y6805563D01*
X26795563Y7870000D02*
X26660000Y7870000D01*
X24404437Y7870000D02*
X24540000Y7870000D01*
X23340000Y6805563D02*
X23340000Y3350000D01*
X27860000Y6805563D02*
X27860000Y3350000D01*
X27860000Y3350000D02*
X26660000Y3350000D01*
X23340000Y3350000D02*
X24540000Y3350000D01*
X22480000Y8360000D02*
X21980000Y8360000D01*
X22230000Y8610000D02*
X22230000Y8110000D01*
X19474437Y7870000D02*
X18410000Y6805563D01*
X21865563Y7870000D02*
X22930000Y6805563D01*
X21865563Y7870000D02*
X21730000Y7870000D01*
X19474437Y7870000D02*
X19610000Y7870000D01*
X18410000Y6805563D02*
X18410000Y3350000D01*
X22930000Y6805563D02*
X22930000Y3350000D01*
X22930000Y3350000D02*
X21730000Y3350000D01*
X18410000Y3350000D02*
X19610000Y3350000D01*
X39776267Y2030000D02*
X39433733Y2030000D01*
X39776267Y1010000D02*
X39433733Y1010000D01*
D14*
X31750000Y24065600D02*
X31750000Y24620000D01*
X31750000Y24620000D02*
X32304400Y24620000D01*
X31750000Y19014400D02*
X31750000Y18460000D01*
X31750000Y18460000D02*
X32304400Y18460000D01*
X37355600Y18460000D02*
X37910000Y18460000D01*
X37910000Y18460000D02*
X37910000Y19014400D01*
X37910000Y24065600D02*
X37910000Y24620000D01*
X37910000Y24620000D02*
X37355600Y24620000D01*
D15*
X32630000Y17840000D02*
G75*
G03X32630000Y17840000I-50000J0D01*
G01*
D10*
X37960000Y29438748D02*
X37960000Y29961252D01*
X36540000Y29438748D02*
X36540000Y29961252D01*
X20560000Y24548733D02*
X20560000Y24891267D01*
X19540000Y24548733D02*
X19540000Y24891267D01*
X19275000Y29955000D02*
X19275000Y27495000D01*
X20745000Y29955000D02*
X19275000Y29955000D01*
X20745000Y27495000D02*
X20745000Y29955000D01*
X10666000Y5081267D02*
X10666000Y4738733D01*
X11686000Y5081267D02*
X11686000Y4738733D01*
X18136252Y12430000D02*
X17613748Y12430000D01*
X18136252Y11010000D02*
X17613748Y11010000D01*
X23031000Y29955000D02*
X23031000Y27495000D01*
X24501000Y29955000D02*
X23031000Y29955000D01*
X24501000Y27495000D02*
X24501000Y29955000D01*
X24316000Y24548733D02*
X24316000Y24891267D01*
X23296000Y24548733D02*
X23296000Y24891267D01*
X22438000Y24548733D02*
X22438000Y24891267D01*
X21418000Y24548733D02*
X21418000Y24891267D01*
X21153000Y29955000D02*
X21153000Y27495000D01*
X22623000Y29955000D02*
X21153000Y29955000D01*
X22623000Y27495000D02*
X22623000Y29955000D01*
X37292600Y14240267D02*
X37292600Y13897733D01*
X38312600Y14240267D02*
X38312600Y13897733D01*
X35768600Y14240267D02*
X35768600Y13897733D01*
X36788600Y14240267D02*
X36788600Y13897733D01*
X25420000Y29201267D02*
X25420000Y28858733D01*
X26440000Y29201267D02*
X26440000Y28858733D01*
X31170000Y29211267D02*
X31170000Y28868733D01*
X32190000Y29211267D02*
X32190000Y28868733D01*
X26970000Y29201267D02*
X26970000Y28858733D01*
X27990000Y29201267D02*
X27990000Y28858733D01*
X18780000Y24579733D02*
X18780000Y24922267D01*
X17760000Y24579733D02*
X17760000Y24922267D01*
X35710000Y29343733D02*
X35710000Y29686267D01*
X34690000Y29343733D02*
X34690000Y29686267D01*
X17535000Y30000000D02*
X17535000Y27540000D01*
X19005000Y30000000D02*
X17535000Y30000000D01*
X19005000Y27540000D02*
X19005000Y30000000D01*
X29463928Y14687452D02*
X28941424Y14687452D01*
X29463928Y13267452D02*
X28941424Y13267452D01*
X29438929Y16662452D02*
X28916425Y16662452D01*
X29438929Y15242452D02*
X28916425Y15242452D01*
X28046252Y25160000D02*
X27523748Y25160000D01*
X28046252Y23740000D02*
X27523748Y23740000D01*
X33737400Y14874548D02*
X33737400Y15397052D01*
X32317400Y14874548D02*
X32317400Y15397052D01*
D13*
X1779058Y14981528D02*
X1921915Y14933909D01*
X1969534Y14886290D01*
X2017153Y14791052D01*
X2017153Y14648195D01*
X1969534Y14552957D01*
X1921915Y14505338D01*
X1826677Y14457719D01*
X1445724Y14457719D01*
X1445724Y15457719D01*
X1779058Y15457719D01*
X1874296Y15410100D01*
X1921915Y15362480D01*
X1969534Y15267242D01*
X1969534Y15172004D01*
X1921915Y15076766D01*
X1874296Y15029147D01*
X1779058Y14981528D01*
X1445724Y14981528D01*
X2969534Y14457719D02*
X2398105Y14457719D01*
X2683820Y14457719D02*
X2683820Y15457719D01*
X2588581Y15314861D01*
X2493343Y15219623D01*
X2398105Y15172004D01*
X25316666Y32039619D02*
X24983333Y32515809D01*
X24745238Y32039619D02*
X24745238Y33039619D01*
X25126190Y33039619D01*
X25221428Y32992000D01*
X25269047Y32944380D01*
X25316666Y32849142D01*
X25316666Y32706285D01*
X25269047Y32611047D01*
X25221428Y32563428D01*
X25126190Y32515809D01*
X24745238Y32515809D01*
X25745238Y32563428D02*
X26078571Y32563428D01*
X26221428Y32039619D02*
X25745238Y32039619D01*
X25745238Y33039619D01*
X26221428Y33039619D01*
X26983333Y32563428D02*
X26650000Y32563428D01*
X26650000Y32039619D02*
X26650000Y33039619D01*
X27126190Y33039619D01*
X27650000Y33039619D02*
X27650000Y32801523D01*
X27411904Y32896761D02*
X27650000Y32801523D01*
X27888095Y32896761D01*
X27507142Y32611047D02*
X27650000Y32801523D01*
X27792857Y32611047D01*
X28411904Y33039619D02*
X28411904Y32801523D01*
X28173809Y32896761D02*
X28411904Y32801523D01*
X28650000Y32896761D01*
X28269047Y32611047D02*
X28411904Y32801523D01*
X28554761Y32611047D01*
X1722380Y34957619D02*
X1150952Y34957619D01*
X1436666Y34957619D02*
X1436666Y35957619D01*
X1341428Y35814761D01*
X1246190Y35719523D01*
X1150952Y35671904D01*
X2103333Y35862380D02*
X2150952Y35910000D01*
X2246190Y35957619D01*
X2484285Y35957619D01*
X2579523Y35910000D01*
X2627142Y35862380D01*
X2674761Y35767142D01*
X2674761Y35671904D01*
X2627142Y35529047D01*
X2055714Y34957619D01*
X2674761Y34957619D01*
X3103333Y34957619D02*
X3103333Y35957619D01*
X3436666Y35243333D01*
X3769999Y35957619D01*
X3769999Y34957619D01*
X4865238Y35957619D02*
X5436666Y35957619D01*
X5150952Y34957619D02*
X5150952Y35957619D01*
X6198571Y34957619D02*
X6198571Y35481428D01*
X6150952Y35576666D01*
X6055714Y35624285D01*
X5865238Y35624285D01*
X5770000Y35576666D01*
X6198571Y35005238D02*
X6103333Y34957619D01*
X5865238Y34957619D01*
X5770000Y35005238D01*
X5722380Y35100476D01*
X5722380Y35195714D01*
X5770000Y35290952D01*
X5865238Y35338571D01*
X6103333Y35338571D01*
X6198571Y35386190D01*
X6627142Y35005238D02*
X6722380Y34957619D01*
X6912857Y34957619D01*
X7008095Y35005238D01*
X7055714Y35100476D01*
X7055714Y35148095D01*
X7008095Y35243333D01*
X6912857Y35290952D01*
X6770000Y35290952D01*
X6674761Y35338571D01*
X6627142Y35433809D01*
X6627142Y35481428D01*
X6674761Y35576666D01*
X6770000Y35624285D01*
X6912857Y35624285D01*
X7008095Y35576666D01*
X7912857Y34957619D02*
X7912857Y35481428D01*
X7865238Y35576666D01*
X7770000Y35624285D01*
X7579523Y35624285D01*
X7484285Y35576666D01*
X7912857Y35005238D02*
X7817619Y34957619D01*
X7579523Y34957619D01*
X7484285Y35005238D01*
X7436666Y35100476D01*
X7436666Y35195714D01*
X7484285Y35290952D01*
X7579523Y35338571D01*
X7817619Y35338571D01*
X7912857Y35386190D01*
X8389047Y34957619D02*
X8389047Y35624285D01*
X8389047Y35433809D02*
X8436666Y35529047D01*
X8484285Y35576666D01*
X8579523Y35624285D01*
X8674761Y35624285D01*
X9008095Y34957619D02*
X9008095Y35624285D01*
X9484285Y34957619D02*
X9484285Y35624285D01*
X9484285Y35529047D02*
X9531904Y35576666D01*
X9627142Y35624285D01*
X9770000Y35624285D01*
X9865238Y35576666D01*
X9912857Y35481428D01*
X9912857Y34957619D01*
X9912857Y35481428D02*
X9960476Y35576666D01*
X10055714Y35624285D01*
X10198571Y35624285D01*
X10293809Y35576666D01*
X10341428Y35481428D01*
X10341428Y34957619D01*
D16*
X39690476Y6308666D02*
X39928571Y6308666D01*
X39642857Y6165809D02*
X39809523Y6665809D01*
X39976190Y6165809D01*
X40071428Y6665809D02*
X40238095Y6165809D01*
X40404761Y6665809D01*
X40547619Y6189619D02*
X40619047Y6165809D01*
X40738095Y6165809D01*
X40785714Y6189619D01*
X40809523Y6213428D01*
X40833333Y6261047D01*
X40833333Y6308666D01*
X40809523Y6356285D01*
X40785714Y6380095D01*
X40738095Y6403904D01*
X40642857Y6427714D01*
X40595238Y6451523D01*
X40571428Y6475333D01*
X40547619Y6522952D01*
X40547619Y6570571D01*
X40571428Y6618190D01*
X40595238Y6642000D01*
X40642857Y6665809D01*
X40761904Y6665809D01*
X40833333Y6642000D01*
X41047619Y6427714D02*
X41214285Y6427714D01*
X41285714Y6165809D02*
X41047619Y6165809D01*
X41047619Y6665809D01*
X41285714Y6665809D01*
X41500000Y6165809D02*
X41500000Y6665809D01*
X41785714Y6165809D01*
X41785714Y6665809D01*
X40440476Y29025809D02*
X40273809Y29263904D01*
X40154761Y29025809D02*
X40154761Y29525809D01*
X40345238Y29525809D01*
X40392857Y29502000D01*
X40416666Y29478190D01*
X40440476Y29430571D01*
X40440476Y29359142D01*
X40416666Y29311523D01*
X40392857Y29287714D01*
X40345238Y29263904D01*
X40154761Y29263904D01*
X40654761Y29287714D02*
X40821428Y29287714D01*
X40892857Y29025809D02*
X40654761Y29025809D01*
X40654761Y29525809D01*
X40892857Y29525809D01*
X41083333Y29049619D02*
X41154761Y29025809D01*
X41273809Y29025809D01*
X41321428Y29049619D01*
X41345238Y29073428D01*
X41369047Y29121047D01*
X41369047Y29168666D01*
X41345238Y29216285D01*
X41321428Y29240095D01*
X41273809Y29263904D01*
X41178571Y29287714D01*
X41130952Y29311523D01*
X41107142Y29335333D01*
X41083333Y29382952D01*
X41083333Y29430571D01*
X41107142Y29478190D01*
X41130952Y29502000D01*
X41178571Y29525809D01*
X41297619Y29525809D01*
X41369047Y29502000D01*
X46910476Y3625809D02*
X46743809Y3863904D01*
X46624761Y3625809D02*
X46624761Y4125809D01*
X46815238Y4125809D01*
X46862857Y4102000D01*
X46886666Y4078190D01*
X46910476Y4030571D01*
X46910476Y3959142D01*
X46886666Y3911523D01*
X46862857Y3887714D01*
X46815238Y3863904D01*
X46624761Y3863904D01*
X47124761Y3887714D02*
X47291428Y3887714D01*
X47362857Y3625809D02*
X47124761Y3625809D01*
X47124761Y4125809D01*
X47362857Y4125809D01*
X47553333Y3649619D02*
X47624761Y3625809D01*
X47743809Y3625809D01*
X47791428Y3649619D01*
X47815238Y3673428D01*
X47839047Y3721047D01*
X47839047Y3768666D01*
X47815238Y3816285D01*
X47791428Y3840095D01*
X47743809Y3863904D01*
X47648571Y3887714D01*
X47600952Y3911523D01*
X47577142Y3935333D01*
X47553333Y3982952D01*
X47553333Y4030571D01*
X47577142Y4078190D01*
X47600952Y4102000D01*
X47648571Y4125809D01*
X47767619Y4125809D01*
X47839047Y4102000D01*
X40333333Y11507714D02*
X40404761Y11483904D01*
X40428571Y11460095D01*
X40452380Y11412476D01*
X40452380Y11341047D01*
X40428571Y11293428D01*
X40404761Y11269619D01*
X40357142Y11245809D01*
X40166666Y11245809D01*
X40166666Y11745809D01*
X40333333Y11745809D01*
X40380952Y11722000D01*
X40404761Y11698190D01*
X40428571Y11650571D01*
X40428571Y11602952D01*
X40404761Y11555333D01*
X40380952Y11531523D01*
X40333333Y11507714D01*
X40166666Y11507714D01*
X40904761Y11245809D02*
X40666666Y11245809D01*
X40666666Y11745809D01*
X41333333Y11722000D02*
X41285714Y11745809D01*
X41214285Y11745809D01*
X41142857Y11722000D01*
X41095238Y11674380D01*
X41071428Y11626761D01*
X41047619Y11531523D01*
X41047619Y11460095D01*
X41071428Y11364857D01*
X41095238Y11317238D01*
X41142857Y11269619D01*
X41214285Y11245809D01*
X41261904Y11245809D01*
X41333333Y11269619D01*
X41357142Y11293428D01*
X41357142Y11460095D01*
X41261904Y11460095D01*
X39301904Y26475809D02*
X39301904Y26975809D01*
X39420952Y26975809D01*
X39492380Y26952000D01*
X39540000Y26904380D01*
X39563809Y26856761D01*
X39587619Y26761523D01*
X39587619Y26690095D01*
X39563809Y26594857D01*
X39540000Y26547238D01*
X39492380Y26499619D01*
X39420952Y26475809D01*
X39301904Y26475809D01*
X39801904Y26475809D02*
X39801904Y26975809D01*
X40016190Y26499619D02*
X40087619Y26475809D01*
X40206666Y26475809D01*
X40254285Y26499619D01*
X40278095Y26523428D01*
X40301904Y26571047D01*
X40301904Y26618666D01*
X40278095Y26666285D01*
X40254285Y26690095D01*
X40206666Y26713904D01*
X40111428Y26737714D01*
X40063809Y26761523D01*
X40040000Y26785333D01*
X40016190Y26832952D01*
X40016190Y26880571D01*
X40040000Y26928190D01*
X40063809Y26952000D01*
X40111428Y26975809D01*
X40230476Y26975809D01*
X40301904Y26952000D01*
X40516190Y26737714D02*
X40682857Y26737714D01*
X40754285Y26475809D02*
X40516190Y26475809D01*
X40516190Y26975809D01*
X40754285Y26975809D01*
X40968571Y26475809D02*
X40968571Y26975809D01*
X41254285Y26475809D01*
X41254285Y26975809D01*
X41492380Y26475809D02*
X41492380Y26975809D01*
X41778095Y26475809D01*
X41778095Y26975809D01*
X6753809Y16365809D02*
X6753809Y16865809D01*
X6968095Y16389619D02*
X7039523Y16365809D01*
X7158571Y16365809D01*
X7206190Y16389619D01*
X7230000Y16413428D01*
X7253809Y16461047D01*
X7253809Y16508666D01*
X7230000Y16556285D01*
X7206190Y16580095D01*
X7158571Y16603904D01*
X7063333Y16627714D01*
X7015714Y16651523D01*
X6991904Y16675333D01*
X6968095Y16722952D01*
X6968095Y16770571D01*
X6991904Y16818190D01*
X7015714Y16842000D01*
X7063333Y16865809D01*
X7182380Y16865809D01*
X7253809Y16842000D01*
X7468095Y16627714D02*
X7634761Y16627714D01*
X7706190Y16365809D02*
X7468095Y16365809D01*
X7468095Y16865809D01*
X7706190Y16865809D01*
X7920476Y16365809D02*
X7920476Y16865809D01*
X8206190Y16365809D01*
X8206190Y16865809D01*
X8730000Y16413428D02*
X8706190Y16389619D01*
X8634761Y16365809D01*
X8587142Y16365809D01*
X8515714Y16389619D01*
X8468095Y16437238D01*
X8444285Y16484857D01*
X8420476Y16580095D01*
X8420476Y16651523D01*
X8444285Y16746761D01*
X8468095Y16794380D01*
X8515714Y16842000D01*
X8587142Y16865809D01*
X8634761Y16865809D01*
X8706190Y16842000D01*
X8730000Y16818190D01*
X46453809Y8808666D02*
X46691904Y8808666D01*
X46406190Y8665809D02*
X46572857Y9165809D01*
X46739523Y8665809D01*
X46906190Y8665809D02*
X46906190Y9165809D01*
X47120476Y8689619D02*
X47191904Y8665809D01*
X47310952Y8665809D01*
X47358571Y8689619D01*
X47382380Y8713428D01*
X47406190Y8761047D01*
X47406190Y8808666D01*
X47382380Y8856285D01*
X47358571Y8880095D01*
X47310952Y8903904D01*
X47215714Y8927714D01*
X47168095Y8951523D01*
X47144285Y8975333D01*
X47120476Y9022952D01*
X47120476Y9070571D01*
X47144285Y9118190D01*
X47168095Y9142000D01*
X47215714Y9165809D01*
X47334761Y9165809D01*
X47406190Y9142000D01*
X47620476Y8927714D02*
X47787142Y8927714D01*
X47858571Y8665809D02*
X47620476Y8665809D01*
X47620476Y9165809D01*
X47858571Y9165809D01*
X48072857Y8665809D02*
X48072857Y9165809D01*
X48358571Y8665809D01*
X48358571Y9165809D01*
X48596666Y8665809D02*
X48596666Y9165809D01*
X48882380Y8665809D01*
X48882380Y9165809D01*
X1962023Y1734809D02*
X1962023Y2234809D01*
X2081071Y2234809D01*
X2152500Y2211000D01*
X2200119Y2163380D01*
X2223928Y2115761D01*
X2247738Y2020523D01*
X2247738Y1949095D01*
X2223928Y1853857D01*
X2200119Y1806238D01*
X2152500Y1758619D01*
X2081071Y1734809D01*
X1962023Y1734809D01*
X2652500Y1758619D02*
X2604880Y1734809D01*
X2509642Y1734809D01*
X2462023Y1758619D01*
X2438214Y1806238D01*
X2438214Y1996714D01*
X2462023Y2044333D01*
X2509642Y2068142D01*
X2604880Y2068142D01*
X2652500Y2044333D01*
X2676309Y1996714D01*
X2676309Y1949095D01*
X2438214Y1901476D01*
X2866785Y1758619D02*
X2914404Y1734809D01*
X3009642Y1734809D01*
X3057261Y1758619D01*
X3081071Y1806238D01*
X3081071Y1830047D01*
X3057261Y1877666D01*
X3009642Y1901476D01*
X2938214Y1901476D01*
X2890595Y1925285D01*
X2866785Y1972904D01*
X2866785Y1996714D01*
X2890595Y2044333D01*
X2938214Y2068142D01*
X3009642Y2068142D01*
X3057261Y2044333D01*
X3295357Y1734809D02*
X3295357Y2068142D01*
X3295357Y2234809D02*
X3271547Y2211000D01*
X3295357Y2187190D01*
X3319166Y2211000D01*
X3295357Y2234809D01*
X3295357Y2187190D01*
X3747738Y2068142D02*
X3747738Y1663380D01*
X3723928Y1615761D01*
X3700119Y1591952D01*
X3652500Y1568142D01*
X3581071Y1568142D01*
X3533452Y1591952D01*
X3747738Y1758619D02*
X3700119Y1734809D01*
X3604880Y1734809D01*
X3557261Y1758619D01*
X3533452Y1782428D01*
X3509642Y1830047D01*
X3509642Y1972904D01*
X3533452Y2020523D01*
X3557261Y2044333D01*
X3604880Y2068142D01*
X3700119Y2068142D01*
X3747738Y2044333D01*
X3985833Y2068142D02*
X3985833Y1734809D01*
X3985833Y2020523D02*
X4009642Y2044333D01*
X4057261Y2068142D01*
X4128690Y2068142D01*
X4176309Y2044333D01*
X4200119Y1996714D01*
X4200119Y1734809D01*
X4628690Y1758619D02*
X4581071Y1734809D01*
X4485833Y1734809D01*
X4438214Y1758619D01*
X4414404Y1806238D01*
X4414404Y1996714D01*
X4438214Y2044333D01*
X4485833Y2068142D01*
X4581071Y2068142D01*
X4628690Y2044333D01*
X4652500Y1996714D01*
X4652500Y1949095D01*
X4414404Y1901476D01*
X5081071Y1734809D02*
X5081071Y2234809D01*
X5081071Y1758619D02*
X5033452Y1734809D01*
X4938214Y1734809D01*
X4890595Y1758619D01*
X4866785Y1782428D01*
X4842976Y1830047D01*
X4842976Y1972904D01*
X4866785Y2020523D01*
X4890595Y2044333D01*
X4938214Y2068142D01*
X5033452Y2068142D01*
X5081071Y2044333D01*
X5866785Y1996714D02*
X5938214Y1972904D01*
X5962023Y1949095D01*
X5985833Y1901476D01*
X5985833Y1830047D01*
X5962023Y1782428D01*
X5938214Y1758619D01*
X5890595Y1734809D01*
X5700119Y1734809D01*
X5700119Y2234809D01*
X5866785Y2234809D01*
X5914404Y2211000D01*
X5938214Y2187190D01*
X5962023Y2139571D01*
X5962023Y2091952D01*
X5938214Y2044333D01*
X5914404Y2020523D01*
X5866785Y1996714D01*
X5700119Y1996714D01*
X6152500Y2068142D02*
X6271547Y1734809D01*
X6390595Y2068142D02*
X6271547Y1734809D01*
X6223928Y1615761D01*
X6200119Y1591952D01*
X6152500Y1568142D01*
X40392857Y16373428D02*
X40369047Y16349619D01*
X40297619Y16325809D01*
X40250000Y16325809D01*
X40178571Y16349619D01*
X40130952Y16397238D01*
X40107142Y16444857D01*
X40083333Y16540095D01*
X40083333Y16611523D01*
X40107142Y16706761D01*
X40130952Y16754380D01*
X40178571Y16802000D01*
X40250000Y16825809D01*
X40297619Y16825809D01*
X40369047Y16802000D01*
X40392857Y16778190D01*
X40607142Y16325809D02*
X40607142Y16825809D01*
X40607142Y16587714D02*
X40892857Y16587714D01*
X40892857Y16325809D02*
X40892857Y16825809D01*
X41392857Y16802000D02*
X41345238Y16825809D01*
X41273809Y16825809D01*
X41202380Y16802000D01*
X41154761Y16754380D01*
X41130952Y16706761D01*
X41107142Y16611523D01*
X41107142Y16540095D01*
X41130952Y16444857D01*
X41154761Y16397238D01*
X41202380Y16349619D01*
X41273809Y16325809D01*
X41321428Y16325809D01*
X41392857Y16349619D01*
X41416666Y16373428D01*
X41416666Y16540095D01*
X41321428Y16540095D01*
X46707142Y23875809D02*
X46707142Y24375809D01*
X46826190Y24375809D01*
X46897619Y24352000D01*
X46945238Y24304380D01*
X46969047Y24256761D01*
X46992857Y24161523D01*
X46992857Y24090095D01*
X46969047Y23994857D01*
X46945238Y23947238D01*
X46897619Y23899619D01*
X46826190Y23875809D01*
X46707142Y23875809D01*
X47207142Y23875809D02*
X47207142Y24375809D01*
X47207142Y24137714D02*
X47492857Y24137714D01*
X47492857Y23875809D02*
X47492857Y24375809D01*
X47992857Y24352000D02*
X47945238Y24375809D01*
X47873809Y24375809D01*
X47802380Y24352000D01*
X47754761Y24304380D01*
X47730952Y24256761D01*
X47707142Y24161523D01*
X47707142Y24090095D01*
X47730952Y23994857D01*
X47754761Y23947238D01*
X47802380Y23899619D01*
X47873809Y23875809D01*
X47921428Y23875809D01*
X47992857Y23899619D01*
X48016666Y23923428D01*
X48016666Y24090095D01*
X47921428Y24090095D01*
X99047Y24073428D02*
X75238Y24049619D01*
X3809Y24025809D01*
X-43809Y24025809D01*
X-115238Y24049619D01*
X-162857Y24097238D01*
X-186666Y24144857D01*
X-210476Y24240095D01*
X-210476Y24311523D01*
X-186666Y24406761D01*
X-162857Y24454380D01*
X-115238Y24502000D01*
X-43809Y24525809D01*
X3809Y24525809D01*
X75238Y24502000D01*
X99047Y24478190D01*
X408571Y24525809D02*
X503809Y24525809D01*
X551428Y24502000D01*
X599047Y24454380D01*
X622857Y24359142D01*
X622857Y24192476D01*
X599047Y24097238D01*
X551428Y24049619D01*
X503809Y24025809D01*
X408571Y24025809D01*
X360952Y24049619D01*
X313333Y24097238D01*
X289523Y24192476D01*
X289523Y24359142D01*
X313333Y24454380D01*
X360952Y24502000D01*
X408571Y24525809D01*
X837142Y24025809D02*
X837142Y24525809D01*
X1003809Y24168666D01*
X1170476Y24525809D01*
X1170476Y24025809D01*
X1622857Y24359142D02*
X1622857Y24025809D01*
X1503809Y24549619D02*
X1384761Y24192476D01*
X1694285Y24192476D01*
X6556190Y11255809D02*
X6556190Y11755809D01*
X6794285Y11255809D02*
X6794285Y11755809D01*
X7080000Y11255809D01*
X7080000Y11755809D01*
X7484761Y11517714D02*
X7556190Y11493904D01*
X7580000Y11470095D01*
X7603809Y11422476D01*
X7603809Y11351047D01*
X7580000Y11303428D01*
X7556190Y11279619D01*
X7508571Y11255809D01*
X7318095Y11255809D01*
X7318095Y11755809D01*
X7484761Y11755809D01*
X7532380Y11732000D01*
X7556190Y11708190D01*
X7580000Y11660571D01*
X7580000Y11612952D01*
X7556190Y11565333D01*
X7532380Y11541523D01*
X7484761Y11517714D01*
X7318095Y11517714D01*
X7818095Y11255809D02*
X7818095Y11755809D01*
X7818095Y11517714D02*
X8103809Y11517714D01*
X8103809Y11255809D02*
X8103809Y11755809D01*
X-246190Y13865809D02*
X-246190Y14365809D01*
X-31904Y13889619D02*
X39523Y13865809D01*
X158571Y13865809D01*
X206190Y13889619D01*
X230000Y13913428D01*
X253809Y13961047D01*
X253809Y14008666D01*
X230000Y14056285D01*
X206190Y14080095D01*
X158571Y14103904D01*
X63333Y14127714D01*
X15714Y14151523D01*
X-8095Y14175333D01*
X-31904Y14222952D01*
X-31904Y14270571D01*
X-8095Y14318190D01*
X15714Y14342000D01*
X63333Y14365809D01*
X182380Y14365809D01*
X253809Y14342000D01*
X468095Y14127714D02*
X634761Y14127714D01*
X706190Y13865809D02*
X468095Y13865809D01*
X468095Y14365809D01*
X706190Y14365809D01*
X920476Y13865809D02*
X920476Y14365809D01*
X1206190Y13865809D01*
X1206190Y14365809D01*
X1444285Y13865809D02*
X1444285Y14365809D01*
X1563333Y14365809D01*
X1634761Y14342000D01*
X1682380Y14294380D01*
X1706190Y14246761D01*
X1730000Y14151523D01*
X1730000Y14080095D01*
X1706190Y13984857D01*
X1682380Y13937238D01*
X1634761Y13889619D01*
X1563333Y13865809D01*
X1444285Y13865809D01*
X46690476Y16547714D02*
X46761904Y16523904D01*
X46785714Y16500095D01*
X46809523Y16452476D01*
X46809523Y16381047D01*
X46785714Y16333428D01*
X46761904Y16309619D01*
X46714285Y16285809D01*
X46523809Y16285809D01*
X46523809Y16785809D01*
X46690476Y16785809D01*
X46738095Y16762000D01*
X46761904Y16738190D01*
X46785714Y16690571D01*
X46785714Y16642952D01*
X46761904Y16595333D01*
X46738095Y16571523D01*
X46690476Y16547714D01*
X46523809Y16547714D01*
X47023809Y16285809D02*
X47023809Y16785809D01*
X47238095Y16309619D02*
X47309523Y16285809D01*
X47428571Y16285809D01*
X47476190Y16309619D01*
X47500000Y16333428D01*
X47523809Y16381047D01*
X47523809Y16428666D01*
X47500000Y16476285D01*
X47476190Y16500095D01*
X47428571Y16523904D01*
X47333333Y16547714D01*
X47285714Y16571523D01*
X47261904Y16595333D01*
X47238095Y16642952D01*
X47238095Y16690571D01*
X47261904Y16738190D01*
X47285714Y16762000D01*
X47333333Y16785809D01*
X47452380Y16785809D01*
X47523809Y16762000D01*
X47738095Y16547714D02*
X47904761Y16547714D01*
X47976190Y16285809D02*
X47738095Y16285809D01*
X47738095Y16785809D01*
X47976190Y16785809D01*
X48190476Y16285809D02*
X48190476Y16785809D01*
X48476190Y16285809D01*
X48476190Y16785809D01*
X48714285Y16285809D02*
X48714285Y16785809D01*
X48904761Y16785809D01*
X48952380Y16762000D01*
X48976190Y16738190D01*
X49000000Y16690571D01*
X49000000Y16619142D01*
X48976190Y16571523D01*
X48952380Y16547714D01*
X48904761Y16523904D01*
X48714285Y16523904D01*
X46605238Y13987714D02*
X46676666Y13963904D01*
X46700476Y13940095D01*
X46724285Y13892476D01*
X46724285Y13821047D01*
X46700476Y13773428D01*
X46676666Y13749619D01*
X46629047Y13725809D01*
X46438571Y13725809D01*
X46438571Y14225809D01*
X46605238Y14225809D01*
X46652857Y14202000D01*
X46676666Y14178190D01*
X46700476Y14130571D01*
X46700476Y14082952D01*
X46676666Y14035333D01*
X46652857Y14011523D01*
X46605238Y13987714D01*
X46438571Y13987714D01*
X46867142Y14225809D02*
X47033809Y13725809D01*
X47200476Y14225809D01*
X47343333Y13749619D02*
X47414761Y13725809D01*
X47533809Y13725809D01*
X47581428Y13749619D01*
X47605238Y13773428D01*
X47629047Y13821047D01*
X47629047Y13868666D01*
X47605238Y13916285D01*
X47581428Y13940095D01*
X47533809Y13963904D01*
X47438571Y13987714D01*
X47390952Y14011523D01*
X47367142Y14035333D01*
X47343333Y14082952D01*
X47343333Y14130571D01*
X47367142Y14178190D01*
X47390952Y14202000D01*
X47438571Y14225809D01*
X47557619Y14225809D01*
X47629047Y14202000D01*
X47843333Y13987714D02*
X48010000Y13987714D01*
X48081428Y13725809D02*
X47843333Y13725809D01*
X47843333Y14225809D01*
X48081428Y14225809D01*
X48295714Y13725809D02*
X48295714Y14225809D01*
X48581428Y13725809D01*
X48581428Y14225809D01*
X39175714Y8878666D02*
X39413809Y8878666D01*
X39128095Y8735809D02*
X39294761Y9235809D01*
X39461428Y8735809D01*
X39628095Y8735809D02*
X39628095Y9235809D01*
X39842380Y8759619D02*
X39913809Y8735809D01*
X40032857Y8735809D01*
X40080476Y8759619D01*
X40104285Y8783428D01*
X40128095Y8831047D01*
X40128095Y8878666D01*
X40104285Y8926285D01*
X40080476Y8950095D01*
X40032857Y8973904D01*
X39937619Y8997714D01*
X39890000Y9021523D01*
X39866190Y9045333D01*
X39842380Y9092952D01*
X39842380Y9140571D01*
X39866190Y9188190D01*
X39890000Y9212000D01*
X39937619Y9235809D01*
X40056666Y9235809D01*
X40128095Y9212000D01*
X40342380Y8997714D02*
X40509047Y8997714D01*
X40580476Y8735809D02*
X40342380Y8735809D01*
X40342380Y9235809D01*
X40580476Y9235809D01*
X40794761Y8735809D02*
X40794761Y9235809D01*
X41080476Y8735809D01*
X41080476Y9235809D01*
X41318571Y8735809D02*
X41318571Y9235809D01*
X41509047Y9235809D01*
X41556666Y9212000D01*
X41580476Y9188190D01*
X41604285Y9140571D01*
X41604285Y9069142D01*
X41580476Y9021523D01*
X41556666Y8997714D01*
X41509047Y8973904D01*
X41318571Y8973904D01*
X47040476Y31495809D02*
X46873809Y31733904D01*
X46754761Y31495809D02*
X46754761Y31995809D01*
X46945238Y31995809D01*
X46992857Y31972000D01*
X47016666Y31948190D01*
X47040476Y31900571D01*
X47040476Y31829142D01*
X47016666Y31781523D01*
X46992857Y31757714D01*
X46945238Y31733904D01*
X46754761Y31733904D01*
X47254761Y31757714D02*
X47421428Y31757714D01*
X47492857Y31495809D02*
X47254761Y31495809D01*
X47254761Y31995809D01*
X47492857Y31995809D01*
X47683333Y31519619D02*
X47754761Y31495809D01*
X47873809Y31495809D01*
X47921428Y31519619D01*
X47945238Y31543428D01*
X47969047Y31591047D01*
X47969047Y31638666D01*
X47945238Y31686285D01*
X47921428Y31710095D01*
X47873809Y31733904D01*
X47778571Y31757714D01*
X47730952Y31781523D01*
X47707142Y31805333D01*
X47683333Y31852952D01*
X47683333Y31900571D01*
X47707142Y31948190D01*
X47730952Y31972000D01*
X47778571Y31995809D01*
X47897619Y31995809D01*
X47969047Y31972000D01*
X46873809Y11437714D02*
X46945238Y11413904D01*
X46969047Y11390095D01*
X46992857Y11342476D01*
X46992857Y11271047D01*
X46969047Y11223428D01*
X46945238Y11199619D01*
X46897619Y11175809D01*
X46707142Y11175809D01*
X46707142Y11675809D01*
X46873809Y11675809D01*
X46921428Y11652000D01*
X46945238Y11628190D01*
X46969047Y11580571D01*
X46969047Y11532952D01*
X46945238Y11485333D01*
X46921428Y11461523D01*
X46873809Y11437714D01*
X46707142Y11437714D01*
X47207142Y11175809D02*
X47207142Y11675809D01*
X47207142Y11437714D02*
X47492857Y11437714D01*
X47492857Y11175809D02*
X47492857Y11675809D01*
X47992857Y11652000D02*
X47945238Y11675809D01*
X47873809Y11675809D01*
X47802380Y11652000D01*
X47754761Y11604380D01*
X47730952Y11556761D01*
X47707142Y11461523D01*
X47707142Y11390095D01*
X47730952Y11294857D01*
X47754761Y11247238D01*
X47802380Y11199619D01*
X47873809Y11175809D01*
X47921428Y11175809D01*
X47992857Y11199619D01*
X48016666Y11223428D01*
X48016666Y11390095D01*
X47921428Y11390095D01*
X15714Y3705809D02*
X15714Y4205809D01*
X253809Y3705809D02*
X253809Y4205809D01*
X539523Y3705809D01*
X539523Y4205809D01*
X777619Y3705809D02*
X777619Y4205809D01*
X896666Y4205809D01*
X968095Y4182000D01*
X1015714Y4134380D01*
X1039523Y4086761D01*
X1063333Y3991523D01*
X1063333Y3920095D01*
X1039523Y3824857D01*
X1015714Y3777238D01*
X968095Y3729619D01*
X896666Y3705809D01*
X777619Y3705809D01*
X1515714Y3705809D02*
X1277619Y3705809D01*
X1277619Y4205809D01*
X15714Y8785809D02*
X15714Y9285809D01*
X253809Y8785809D02*
X253809Y9285809D01*
X539523Y8785809D01*
X539523Y9285809D01*
X944285Y9047714D02*
X1015714Y9023904D01*
X1039523Y9000095D01*
X1063333Y8952476D01*
X1063333Y8881047D01*
X1039523Y8833428D01*
X1015714Y8809619D01*
X968095Y8785809D01*
X777619Y8785809D01*
X777619Y9285809D01*
X944285Y9285809D01*
X991904Y9262000D01*
X1015714Y9238190D01*
X1039523Y9190571D01*
X1039523Y9142952D01*
X1015714Y9095333D01*
X991904Y9071523D01*
X944285Y9047714D01*
X777619Y9047714D01*
X1515714Y8785809D02*
X1277619Y8785809D01*
X1277619Y9285809D01*
X6556190Y8715809D02*
X6556190Y9215809D01*
X6794285Y8715809D02*
X6794285Y9215809D01*
X7080000Y8715809D01*
X7080000Y9215809D01*
X7603809Y8763428D02*
X7580000Y8739619D01*
X7508571Y8715809D01*
X7460952Y8715809D01*
X7389523Y8739619D01*
X7341904Y8787238D01*
X7318095Y8834857D01*
X7294285Y8930095D01*
X7294285Y9001523D01*
X7318095Y9096761D01*
X7341904Y9144380D01*
X7389523Y9192000D01*
X7460952Y9215809D01*
X7508571Y9215809D01*
X7580000Y9192000D01*
X7603809Y9168190D01*
X7818095Y8715809D02*
X7818095Y9215809D01*
X7818095Y8977714D02*
X8103809Y8977714D01*
X8103809Y8715809D02*
X8103809Y9215809D01*
X46647619Y21433428D02*
X46623809Y21409619D01*
X46552380Y21385809D01*
X46504761Y21385809D01*
X46433333Y21409619D01*
X46385714Y21457238D01*
X46361904Y21504857D01*
X46338095Y21600095D01*
X46338095Y21671523D01*
X46361904Y21766761D01*
X46385714Y21814380D01*
X46433333Y21862000D01*
X46504761Y21885809D01*
X46552380Y21885809D01*
X46623809Y21862000D01*
X46647619Y21838190D01*
X46861904Y21385809D02*
X46861904Y21885809D01*
X47076190Y21409619D02*
X47147619Y21385809D01*
X47266666Y21385809D01*
X47314285Y21409619D01*
X47338095Y21433428D01*
X47361904Y21481047D01*
X47361904Y21528666D01*
X47338095Y21576285D01*
X47314285Y21600095D01*
X47266666Y21623904D01*
X47171428Y21647714D01*
X47123809Y21671523D01*
X47100000Y21695333D01*
X47076190Y21742952D01*
X47076190Y21790571D01*
X47100000Y21838190D01*
X47123809Y21862000D01*
X47171428Y21885809D01*
X47290476Y21885809D01*
X47361904Y21862000D01*
X47576190Y21647714D02*
X47742857Y21647714D01*
X47814285Y21385809D02*
X47576190Y21385809D01*
X47576190Y21885809D01*
X47814285Y21885809D01*
X48028571Y21385809D02*
X48028571Y21885809D01*
X48314285Y21385809D01*
X48314285Y21885809D01*
X48552380Y21385809D02*
X48552380Y21885809D01*
X48838095Y21385809D01*
X48838095Y21885809D01*
X1938213Y1039416D02*
X2176309Y1039416D01*
X1890594Y896559D02*
X2057261Y1396559D01*
X2223928Y896559D01*
X2462023Y896559D02*
X2414404Y920369D01*
X2390594Y967988D01*
X2390594Y1396559D01*
X2652499Y1229892D02*
X2652499Y729892D01*
X2652499Y1206083D02*
X2700118Y1229892D01*
X2795356Y1229892D01*
X2842975Y1206083D01*
X2866785Y1182273D01*
X2890594Y1134654D01*
X2890594Y991797D01*
X2866785Y944178D01*
X2842975Y920369D01*
X2795356Y896559D01*
X2700118Y896559D01*
X2652499Y920369D01*
X3295356Y920369D02*
X3247737Y896559D01*
X3152499Y896559D01*
X3104880Y920369D01*
X3081071Y967988D01*
X3081071Y1158464D01*
X3104880Y1206083D01*
X3152499Y1229892D01*
X3247737Y1229892D01*
X3295356Y1206083D01*
X3319166Y1158464D01*
X3319166Y1110845D01*
X3081071Y1063226D01*
X3533452Y896559D02*
X3533452Y1229892D01*
X3533452Y1134654D02*
X3557261Y1182273D01*
X3581071Y1206083D01*
X3628690Y1229892D01*
X3676309Y1229892D01*
X4390594Y1158464D02*
X4462023Y1134654D01*
X4485833Y1110845D01*
X4509642Y1063226D01*
X4509642Y991797D01*
X4485833Y944178D01*
X4462023Y920369D01*
X4414404Y896559D01*
X4223928Y896559D01*
X4223928Y1396559D01*
X4390594Y1396559D01*
X4438213Y1372750D01*
X4462023Y1348940D01*
X4485833Y1301321D01*
X4485833Y1253702D01*
X4462023Y1206083D01*
X4438213Y1182273D01*
X4390594Y1158464D01*
X4223928Y1158464D01*
X4938213Y896559D02*
X4938213Y1158464D01*
X4914404Y1206083D01*
X4866785Y1229892D01*
X4771547Y1229892D01*
X4723928Y1206083D01*
X4938213Y920369D02*
X4890594Y896559D01*
X4771547Y896559D01*
X4723928Y920369D01*
X4700118Y967988D01*
X4700118Y1015607D01*
X4723928Y1063226D01*
X4771547Y1087035D01*
X4890594Y1087035D01*
X4938213Y1110845D01*
X5152499Y920369D02*
X5200118Y896559D01*
X5295356Y896559D01*
X5342975Y920369D01*
X5366785Y967988D01*
X5366785Y991797D01*
X5342975Y1039416D01*
X5295356Y1063226D01*
X5223928Y1063226D01*
X5176309Y1087035D01*
X5152499Y1134654D01*
X5152499Y1158464D01*
X5176309Y1206083D01*
X5223928Y1229892D01*
X5295356Y1229892D01*
X5342975Y1206083D01*
X5795356Y896559D02*
X5795356Y1158464D01*
X5771547Y1206083D01*
X5723928Y1229892D01*
X5628690Y1229892D01*
X5581071Y1206083D01*
X5795356Y920369D02*
X5747737Y896559D01*
X5628690Y896559D01*
X5581071Y920369D01*
X5557261Y967988D01*
X5557261Y1015607D01*
X5581071Y1063226D01*
X5628690Y1087035D01*
X5747737Y1087035D01*
X5795356Y1110845D01*
X6033452Y896559D02*
X6033452Y1229892D01*
X6033452Y1134654D02*
X6057261Y1182273D01*
X6081071Y1206083D01*
X6128690Y1229892D01*
X6176309Y1229892D01*
X6557261Y896559D02*
X6557261Y1158464D01*
X6533452Y1206083D01*
X6485833Y1229892D01*
X6390594Y1229892D01*
X6342975Y1206083D01*
X6557261Y920369D02*
X6509642Y896559D01*
X6390594Y896559D01*
X6342975Y920369D01*
X6319166Y967988D01*
X6319166Y1015607D01*
X6342975Y1063226D01*
X6390594Y1087035D01*
X6509642Y1087035D01*
X6557261Y1110845D01*
X6795356Y1229892D02*
X6795356Y896559D01*
X6795356Y1182273D02*
X6819166Y1206083D01*
X6866785Y1229892D01*
X6938213Y1229892D01*
X6985833Y1206083D01*
X7009642Y1158464D01*
X7009642Y896559D01*
X40440476Y29025809D02*
X40273809Y29263904D01*
X40154761Y29025809D02*
X40154761Y29525809D01*
X40345238Y29525809D01*
X40392857Y29502000D01*
X40416666Y29478190D01*
X40440476Y29430571D01*
X40440476Y29359142D01*
X40416666Y29311523D01*
X40392857Y29287714D01*
X40345238Y29263904D01*
X40154761Y29263904D01*
X40654761Y29287714D02*
X40821428Y29287714D01*
X40892857Y29025809D02*
X40654761Y29025809D01*
X40654761Y29525809D01*
X40892857Y29525809D01*
X41083333Y29049619D02*
X41154761Y29025809D01*
X41273809Y29025809D01*
X41321428Y29049619D01*
X41345238Y29073428D01*
X41369047Y29121047D01*
X41369047Y29168666D01*
X41345238Y29216285D01*
X41321428Y29240095D01*
X41273809Y29263904D01*
X41178571Y29287714D01*
X41130952Y29311523D01*
X41107142Y29335333D01*
X41083333Y29382952D01*
X41083333Y29430571D01*
X41107142Y29478190D01*
X41130952Y29502000D01*
X41178571Y29525809D01*
X41297619Y29525809D01*
X41369047Y29502000D01*
X6426190Y6245809D02*
X6426190Y6745809D01*
X6664285Y6245809D02*
X6664285Y6745809D01*
X6950000Y6245809D01*
X6950000Y6745809D01*
X7188095Y6245809D02*
X7188095Y6745809D01*
X7307142Y6745809D01*
X7378571Y6722000D01*
X7426190Y6674380D01*
X7450000Y6626761D01*
X7473809Y6531523D01*
X7473809Y6460095D01*
X7450000Y6364857D01*
X7426190Y6317238D01*
X7378571Y6269619D01*
X7307142Y6245809D01*
X7188095Y6245809D01*
X7688095Y6245809D02*
X7688095Y6745809D01*
X7688095Y6507714D02*
X7973809Y6507714D01*
X7973809Y6245809D02*
X7973809Y6745809D01*
X40166666Y23945809D02*
X40166666Y24445809D01*
X40285714Y24445809D01*
X40357142Y24422000D01*
X40404761Y24374380D01*
X40428571Y24326761D01*
X40452380Y24231523D01*
X40452380Y24160095D01*
X40428571Y24064857D01*
X40404761Y24017238D01*
X40357142Y23969619D01*
X40285714Y23945809D01*
X40166666Y23945809D01*
X40904761Y23945809D02*
X40666666Y23945809D01*
X40666666Y24445809D01*
X41333333Y24422000D02*
X41285714Y24445809D01*
X41214285Y24445809D01*
X41142857Y24422000D01*
X41095238Y24374380D01*
X41071428Y24326761D01*
X41047619Y24231523D01*
X41047619Y24160095D01*
X41071428Y24064857D01*
X41095238Y24017238D01*
X41142857Y23969619D01*
X41214285Y23945809D01*
X41261904Y23945809D01*
X41333333Y23969619D01*
X41357142Y23993428D01*
X41357142Y24160095D01*
X41261904Y24160095D01*
X47362380Y18743428D02*
X47338571Y18719619D01*
X47267142Y18695809D01*
X47219523Y18695809D01*
X47148095Y18719619D01*
X47100476Y18767238D01*
X47076666Y18814857D01*
X47052857Y18910095D01*
X47052857Y18981523D01*
X47076666Y19076761D01*
X47100476Y19124380D01*
X47148095Y19172000D01*
X47219523Y19195809D01*
X47267142Y19195809D01*
X47338571Y19172000D01*
X47362380Y19148190D01*
X47814761Y18695809D02*
X47576666Y18695809D01*
X47576666Y19195809D01*
X48243333Y19172000D02*
X48195714Y19195809D01*
X48124285Y19195809D01*
X48052857Y19172000D01*
X48005238Y19124380D01*
X47981428Y19076761D01*
X47957619Y18981523D01*
X47957619Y18910095D01*
X47981428Y18814857D01*
X48005238Y18767238D01*
X48052857Y18719619D01*
X48124285Y18695809D01*
X48171904Y18695809D01*
X48243333Y18719619D01*
X48267142Y18743428D01*
X48267142Y18910095D01*
X48171904Y18910095D01*
X51428Y11325809D02*
X51428Y11825809D01*
X289523Y11325809D02*
X289523Y11825809D01*
X575238Y11325809D01*
X575238Y11825809D01*
X789523Y11468666D02*
X1027619Y11468666D01*
X741904Y11325809D02*
X908571Y11825809D01*
X1075238Y11325809D01*
X1479999Y11325809D02*
X1241904Y11325809D01*
X1241904Y11825809D01*
X6591904Y13795809D02*
X6591904Y14295809D01*
X6830000Y13795809D02*
X6830000Y14295809D01*
X7115714Y13795809D01*
X7115714Y14295809D01*
X7330000Y13938666D02*
X7568095Y13938666D01*
X7282380Y13795809D02*
X7449047Y14295809D01*
X7615714Y13795809D01*
X7782380Y13795809D02*
X7782380Y14295809D01*
X7782380Y14057714D02*
X8068095Y14057714D01*
X8068095Y13795809D02*
X8068095Y14295809D01*
X-246190Y16405809D02*
X-246190Y16905809D01*
X-31904Y16429619D02*
X39523Y16405809D01*
X158571Y16405809D01*
X206190Y16429619D01*
X230000Y16453428D01*
X253809Y16501047D01*
X253809Y16548666D01*
X230000Y16596285D01*
X206190Y16620095D01*
X158571Y16643904D01*
X63333Y16667714D01*
X15714Y16691523D01*
X-8095Y16715333D01*
X-31904Y16762952D01*
X-31904Y16810571D01*
X-8095Y16858190D01*
X15714Y16882000D01*
X63333Y16905809D01*
X182380Y16905809D01*
X253809Y16882000D01*
X468095Y16667714D02*
X634761Y16667714D01*
X706190Y16405809D02*
X468095Y16405809D01*
X468095Y16905809D01*
X706190Y16905809D01*
X920476Y16405809D02*
X920476Y16905809D01*
X1206190Y16405809D01*
X1206190Y16905809D01*
X1610952Y16667714D02*
X1682380Y16643904D01*
X1706190Y16620095D01*
X1730000Y16572476D01*
X1730000Y16501047D01*
X1706190Y16453428D01*
X1682380Y16429619D01*
X1634761Y16405809D01*
X1444285Y16405809D01*
X1444285Y16905809D01*
X1610952Y16905809D01*
X1658571Y16882000D01*
X1682380Y16858190D01*
X1706190Y16810571D01*
X1706190Y16762952D01*
X1682380Y16715333D01*
X1658571Y16691523D01*
X1610952Y16667714D01*
X1444285Y16667714D01*
X6699523Y18775809D02*
X6699523Y19275809D01*
X6913809Y18799619D02*
X6985238Y18775809D01*
X7104285Y18775809D01*
X7151904Y18799619D01*
X7175714Y18823428D01*
X7199523Y18871047D01*
X7199523Y18918666D01*
X7175714Y18966285D01*
X7151904Y18990095D01*
X7104285Y19013904D01*
X7009047Y19037714D01*
X6961428Y19061523D01*
X6937619Y19085333D01*
X6913809Y19132952D01*
X6913809Y19180571D01*
X6937619Y19228190D01*
X6961428Y19252000D01*
X7009047Y19275809D01*
X7128095Y19275809D01*
X7199523Y19252000D01*
X7413809Y19037714D02*
X7580476Y19037714D01*
X7651904Y18775809D02*
X7413809Y18775809D01*
X7413809Y19275809D01*
X7651904Y19275809D01*
X7866190Y18775809D02*
X7866190Y19275809D01*
X8151904Y18775809D01*
X8151904Y19275809D01*
X8366190Y18918666D02*
X8604285Y18918666D01*
X8318571Y18775809D02*
X8485238Y19275809D01*
X8651904Y18775809D01*
X6830000Y21415809D02*
X6830000Y21915809D01*
X7163333Y21915809D02*
X7258571Y21915809D01*
X7306190Y21892000D01*
X7353809Y21844380D01*
X7377619Y21749142D01*
X7377619Y21582476D01*
X7353809Y21487238D01*
X7306190Y21439619D01*
X7258571Y21415809D01*
X7163333Y21415809D01*
X7115714Y21439619D01*
X7068095Y21487238D01*
X7044285Y21582476D01*
X7044285Y21749142D01*
X7068095Y21844380D01*
X7115714Y21892000D01*
X7163333Y21915809D01*
X7544285Y21915809D02*
X7853809Y21915809D01*
X7687142Y21725333D01*
X7758571Y21725333D01*
X7806190Y21701523D01*
X7830000Y21677714D01*
X7853809Y21630095D01*
X7853809Y21511047D01*
X7830000Y21463428D01*
X7806190Y21439619D01*
X7758571Y21415809D01*
X7615714Y21415809D01*
X7568095Y21439619D01*
X7544285Y21463428D01*
X230000Y21485809D02*
X230000Y21985809D01*
X563333Y21985809D02*
X658571Y21985809D01*
X706190Y21962000D01*
X753809Y21914380D01*
X777619Y21819142D01*
X777619Y21652476D01*
X753809Y21557238D01*
X706190Y21509619D01*
X658571Y21485809D01*
X563333Y21485809D01*
X515714Y21509619D01*
X468095Y21557238D01*
X444285Y21652476D01*
X444285Y21819142D01*
X468095Y21914380D01*
X515714Y21962000D01*
X563333Y21985809D01*
X968095Y21938190D02*
X991904Y21962000D01*
X1039523Y21985809D01*
X1158571Y21985809D01*
X1206190Y21962000D01*
X1230000Y21938190D01*
X1253809Y21890571D01*
X1253809Y21842952D01*
X1230000Y21771523D01*
X944285Y21485809D01*
X1253809Y21485809D01*
X6830000Y23955809D02*
X6830000Y24455809D01*
X7163333Y24455809D02*
X7258571Y24455809D01*
X7306190Y24432000D01*
X7353809Y24384380D01*
X7377619Y24289142D01*
X7377619Y24122476D01*
X7353809Y24027238D01*
X7306190Y23979619D01*
X7258571Y23955809D01*
X7163333Y23955809D01*
X7115714Y23979619D01*
X7068095Y24027238D01*
X7044285Y24122476D01*
X7044285Y24289142D01*
X7068095Y24384380D01*
X7115714Y24432000D01*
X7163333Y24455809D01*
X7853809Y23955809D02*
X7568095Y23955809D01*
X7710952Y23955809D02*
X7710952Y24455809D01*
X7663333Y24384380D01*
X7615714Y24336761D01*
X7568095Y24312952D01*
X6699047Y26543428D02*
X6675238Y26519619D01*
X6603809Y26495809D01*
X6556190Y26495809D01*
X6484761Y26519619D01*
X6437142Y26567238D01*
X6413333Y26614857D01*
X6389523Y26710095D01*
X6389523Y26781523D01*
X6413333Y26876761D01*
X6437142Y26924380D01*
X6484761Y26972000D01*
X6556190Y26995809D01*
X6603809Y26995809D01*
X6675238Y26972000D01*
X6699047Y26948190D01*
X7008571Y26995809D02*
X7103809Y26995809D01*
X7151428Y26972000D01*
X7199047Y26924380D01*
X7222857Y26829142D01*
X7222857Y26662476D01*
X7199047Y26567238D01*
X7151428Y26519619D01*
X7103809Y26495809D01*
X7008571Y26495809D01*
X6960952Y26519619D01*
X6913333Y26567238D01*
X6889523Y26662476D01*
X6889523Y26829142D01*
X6913333Y26924380D01*
X6960952Y26972000D01*
X7008571Y26995809D01*
X7437142Y26495809D02*
X7437142Y26995809D01*
X7603809Y26638666D01*
X7770476Y26995809D01*
X7770476Y26495809D01*
X7960952Y26995809D02*
X8270476Y26995809D01*
X8103809Y26805333D01*
X8175238Y26805333D01*
X8222857Y26781523D01*
X8246666Y26757714D01*
X8270476Y26710095D01*
X8270476Y26591047D01*
X8246666Y26543428D01*
X8222857Y26519619D01*
X8175238Y26495809D01*
X8032380Y26495809D01*
X7984761Y26519619D01*
X7960952Y26543428D01*
X99047Y26613428D02*
X75238Y26589619D01*
X3809Y26565809D01*
X-43809Y26565809D01*
X-115238Y26589619D01*
X-162857Y26637238D01*
X-186666Y26684857D01*
X-210476Y26780095D01*
X-210476Y26851523D01*
X-186666Y26946761D01*
X-162857Y26994380D01*
X-115238Y27042000D01*
X-43809Y27065809D01*
X3809Y27065809D01*
X75238Y27042000D01*
X99047Y27018190D01*
X408571Y27065809D02*
X503809Y27065809D01*
X551428Y27042000D01*
X599047Y26994380D01*
X622857Y26899142D01*
X622857Y26732476D01*
X599047Y26637238D01*
X551428Y26589619D01*
X503809Y26565809D01*
X408571Y26565809D01*
X360952Y26589619D01*
X313333Y26637238D01*
X289523Y26732476D01*
X289523Y26899142D01*
X313333Y26994380D01*
X360952Y27042000D01*
X408571Y27065809D01*
X837142Y26565809D02*
X837142Y27065809D01*
X1003809Y26708666D01*
X1170476Y27065809D01*
X1170476Y26565809D01*
X1384761Y27018190D02*
X1408571Y27042000D01*
X1456190Y27065809D01*
X1575238Y27065809D01*
X1622857Y27042000D01*
X1646666Y27018190D01*
X1670476Y26970571D01*
X1670476Y26922952D01*
X1646666Y26851523D01*
X1360952Y26565809D01*
X1670476Y26565809D01*
X46278571Y26415809D02*
X46278571Y26915809D01*
X46397619Y26915809D01*
X46469047Y26892000D01*
X46516666Y26844380D01*
X46540476Y26796761D01*
X46564285Y26701523D01*
X46564285Y26630095D01*
X46540476Y26534857D01*
X46516666Y26487238D01*
X46469047Y26439619D01*
X46397619Y26415809D01*
X46278571Y26415809D01*
X46707142Y26915809D02*
X46873809Y26415809D01*
X47040476Y26915809D01*
X47183333Y26439619D02*
X47254761Y26415809D01*
X47373809Y26415809D01*
X47421428Y26439619D01*
X47445238Y26463428D01*
X47469047Y26511047D01*
X47469047Y26558666D01*
X47445238Y26606285D01*
X47421428Y26630095D01*
X47373809Y26653904D01*
X47278571Y26677714D01*
X47230952Y26701523D01*
X47207142Y26725333D01*
X47183333Y26772952D01*
X47183333Y26820571D01*
X47207142Y26868190D01*
X47230952Y26892000D01*
X47278571Y26915809D01*
X47397619Y26915809D01*
X47469047Y26892000D01*
X47683333Y26677714D02*
X47850000Y26677714D01*
X47921428Y26415809D02*
X47683333Y26415809D01*
X47683333Y26915809D01*
X47921428Y26915809D01*
X48135714Y26415809D02*
X48135714Y26915809D01*
X48421428Y26415809D01*
X48421428Y26915809D01*
X6699047Y29083428D02*
X6675238Y29059619D01*
X6603809Y29035809D01*
X6556190Y29035809D01*
X6484761Y29059619D01*
X6437142Y29107238D01*
X6413333Y29154857D01*
X6389523Y29250095D01*
X6389523Y29321523D01*
X6413333Y29416761D01*
X6437142Y29464380D01*
X6484761Y29512000D01*
X6556190Y29535809D01*
X6603809Y29535809D01*
X6675238Y29512000D01*
X6699047Y29488190D01*
X7008571Y29535809D02*
X7103809Y29535809D01*
X7151428Y29512000D01*
X7199047Y29464380D01*
X7222857Y29369142D01*
X7222857Y29202476D01*
X7199047Y29107238D01*
X7151428Y29059619D01*
X7103809Y29035809D01*
X7008571Y29035809D01*
X6960952Y29059619D01*
X6913333Y29107238D01*
X6889523Y29202476D01*
X6889523Y29369142D01*
X6913333Y29464380D01*
X6960952Y29512000D01*
X7008571Y29535809D01*
X7437142Y29035809D02*
X7437142Y29535809D01*
X7603809Y29178666D01*
X7770476Y29535809D01*
X7770476Y29035809D01*
X8270476Y29035809D02*
X7984761Y29035809D01*
X8127619Y29035809D02*
X8127619Y29535809D01*
X8080000Y29464380D01*
X8032380Y29416761D01*
X7984761Y29392952D01*
X40119047Y3768666D02*
X40357142Y3768666D01*
X40071428Y3625809D02*
X40238095Y4125809D01*
X40404761Y3625809D01*
X40571428Y3625809D02*
X40571428Y4125809D01*
X40571428Y3887714D02*
X40857142Y3887714D01*
X40857142Y3625809D02*
X40857142Y4125809D01*
X41357142Y4102000D02*
X41309523Y4125809D01*
X41238095Y4125809D01*
X41166666Y4102000D01*
X41119047Y4054380D01*
X41095238Y4006761D01*
X41071428Y3911523D01*
X41071428Y3840095D01*
X41095238Y3744857D01*
X41119047Y3697238D01*
X41166666Y3649619D01*
X41238095Y3625809D01*
X41285714Y3625809D01*
X41357142Y3649619D01*
X41380952Y3673428D01*
X41380952Y3840095D01*
X41285714Y3840095D01*
X230000Y18945809D02*
X230000Y19445809D01*
X563333Y19445809D02*
X658571Y19445809D01*
X706190Y19422000D01*
X753809Y19374380D01*
X777619Y19279142D01*
X777619Y19112476D01*
X753809Y19017238D01*
X706190Y18969619D01*
X658571Y18945809D01*
X563333Y18945809D01*
X515714Y18969619D01*
X468095Y19017238D01*
X444285Y19112476D01*
X444285Y19279142D01*
X468095Y19374380D01*
X515714Y19422000D01*
X563333Y19445809D01*
X1206190Y19279142D02*
X1206190Y18945809D01*
X1087142Y19469619D02*
X968095Y19112476D01*
X1277619Y19112476D01*
X39964285Y18913428D02*
X39940476Y18889619D01*
X39869047Y18865809D01*
X39821428Y18865809D01*
X39750000Y18889619D01*
X39702380Y18937238D01*
X39678571Y18984857D01*
X39654761Y19080095D01*
X39654761Y19151523D01*
X39678571Y19246761D01*
X39702380Y19294380D01*
X39750000Y19342000D01*
X39821428Y19365809D01*
X39869047Y19365809D01*
X39940476Y19342000D01*
X39964285Y19318190D01*
X40107142Y19365809D02*
X40273809Y18865809D01*
X40440476Y19365809D01*
X40583333Y18889619D02*
X40654761Y18865809D01*
X40773809Y18865809D01*
X40821428Y18889619D01*
X40845238Y18913428D01*
X40869047Y18961047D01*
X40869047Y19008666D01*
X40845238Y19056285D01*
X40821428Y19080095D01*
X40773809Y19103904D01*
X40678571Y19127714D01*
X40630952Y19151523D01*
X40607142Y19175333D01*
X40583333Y19222952D01*
X40583333Y19270571D01*
X40607142Y19318190D01*
X40630952Y19342000D01*
X40678571Y19365809D01*
X40797619Y19365809D01*
X40869047Y19342000D01*
X41083333Y19127714D02*
X41250000Y19127714D01*
X41321428Y18865809D02*
X41083333Y18865809D01*
X41083333Y19365809D01*
X41321428Y19365809D01*
X41535714Y18865809D02*
X41535714Y19365809D01*
X41821428Y18865809D01*
X41821428Y19365809D01*
X15714Y6245809D02*
X15714Y6745809D01*
X253809Y6245809D02*
X253809Y6745809D01*
X539523Y6245809D01*
X539523Y6745809D01*
X1063333Y6293428D02*
X1039523Y6269619D01*
X968095Y6245809D01*
X920476Y6245809D01*
X849047Y6269619D01*
X801428Y6317238D01*
X777619Y6364857D01*
X753809Y6460095D01*
X753809Y6531523D01*
X777619Y6626761D01*
X801428Y6674380D01*
X849047Y6722000D01*
X920476Y6745809D01*
X968095Y6745809D01*
X1039523Y6722000D01*
X1063333Y6698190D01*
X1515714Y6245809D02*
X1277619Y6245809D01*
X1277619Y6745809D01*
X87142Y29367714D02*
X253809Y29367714D01*
X325238Y29105809D02*
X87142Y29105809D01*
X87142Y29605809D01*
X325238Y29605809D01*
X491904Y29605809D02*
X610952Y29105809D01*
X706190Y29462952D01*
X801428Y29105809D01*
X920476Y29605809D01*
X1110952Y29105809D02*
X1110952Y29605809D01*
X1301428Y29605809D01*
X1349047Y29582000D01*
X1372857Y29558190D01*
X1396666Y29510571D01*
X1396666Y29439142D01*
X1372857Y29391523D01*
X1349047Y29367714D01*
X1301428Y29343904D01*
X1110952Y29343904D01*
X-79523Y31907714D02*
X87142Y31907714D01*
X158571Y31645809D02*
X-79523Y31645809D01*
X-79523Y32145809D01*
X158571Y32145809D01*
X349047Y31669619D02*
X420476Y31645809D01*
X539523Y31645809D01*
X587142Y31669619D01*
X610952Y31693428D01*
X634761Y31741047D01*
X634761Y31788666D01*
X610952Y31836285D01*
X587142Y31860095D01*
X539523Y31883904D01*
X444285Y31907714D01*
X396666Y31931523D01*
X372857Y31955333D01*
X349047Y32002952D01*
X349047Y32050571D01*
X372857Y32098190D01*
X396666Y32122000D01*
X444285Y32145809D01*
X563333Y32145809D01*
X634761Y32122000D01*
X849047Y31645809D02*
X849047Y32145809D01*
X968095Y32145809D01*
X1039523Y32122000D01*
X1087142Y32074380D01*
X1110952Y32026761D01*
X1134761Y31931523D01*
X1134761Y31860095D01*
X1110952Y31764857D01*
X1087142Y31717238D01*
X1039523Y31669619D01*
X968095Y31645809D01*
X849047Y31645809D01*
X1325238Y31788666D02*
X1563333Y31788666D01*
X1277619Y31645809D02*
X1444285Y32145809D01*
X1610952Y31645809D01*
X39589523Y21523428D02*
X39565714Y21499619D01*
X39494285Y21475809D01*
X39446666Y21475809D01*
X39375238Y21499619D01*
X39327619Y21547238D01*
X39303809Y21594857D01*
X39280000Y21690095D01*
X39280000Y21761523D01*
X39303809Y21856761D01*
X39327619Y21904380D01*
X39375238Y21952000D01*
X39446666Y21975809D01*
X39494285Y21975809D01*
X39565714Y21952000D01*
X39589523Y21928190D01*
X39803809Y21475809D02*
X39803809Y21975809D01*
X40018095Y21499619D02*
X40089523Y21475809D01*
X40208571Y21475809D01*
X40256190Y21499619D01*
X40280000Y21523428D01*
X40303809Y21571047D01*
X40303809Y21618666D01*
X40280000Y21666285D01*
X40256190Y21690095D01*
X40208571Y21713904D01*
X40113333Y21737714D01*
X40065714Y21761523D01*
X40041904Y21785333D01*
X40018095Y21832952D01*
X40018095Y21880571D01*
X40041904Y21928190D01*
X40065714Y21952000D01*
X40113333Y21975809D01*
X40232380Y21975809D01*
X40303809Y21952000D01*
X40518095Y21737714D02*
X40684761Y21737714D01*
X40756190Y21475809D02*
X40518095Y21475809D01*
X40518095Y21975809D01*
X40756190Y21975809D01*
X40970476Y21475809D02*
X40970476Y21975809D01*
X41256190Y21475809D01*
X41256190Y21975809D01*
X41494285Y21475809D02*
X41494285Y21975809D01*
X41684761Y21975809D01*
X41732380Y21952000D01*
X41756190Y21928190D01*
X41780000Y21880571D01*
X41780000Y21809142D01*
X41756190Y21761523D01*
X41732380Y21737714D01*
X41684761Y21713904D01*
X41494285Y21713904D01*
X46648571Y6308666D02*
X46886666Y6308666D01*
X46600952Y6165809D02*
X46767619Y6665809D01*
X46934285Y6165809D01*
X47339047Y6165809D02*
X47100952Y6165809D01*
X47100952Y6665809D01*
X47767619Y6642000D02*
X47720000Y6665809D01*
X47648571Y6665809D01*
X47577142Y6642000D01*
X47529523Y6594380D01*
X47505714Y6546761D01*
X47481904Y6451523D01*
X47481904Y6380095D01*
X47505714Y6284857D01*
X47529523Y6237238D01*
X47577142Y6189619D01*
X47648571Y6165809D01*
X47696190Y6165809D01*
X47767619Y6189619D01*
X47791428Y6213428D01*
X47791428Y6380095D01*
X47696190Y6380095D01*
X46383809Y28955809D02*
X46383809Y29455809D01*
X46502857Y29455809D01*
X46574285Y29432000D01*
X46621904Y29384380D01*
X46645714Y29336761D01*
X46669523Y29241523D01*
X46669523Y29170095D01*
X46645714Y29074857D01*
X46621904Y29027238D01*
X46574285Y28979619D01*
X46502857Y28955809D01*
X46383809Y28955809D01*
X46883809Y28955809D02*
X46883809Y29455809D01*
X47098095Y28979619D02*
X47169523Y28955809D01*
X47288571Y28955809D01*
X47336190Y28979619D01*
X47360000Y29003428D01*
X47383809Y29051047D01*
X47383809Y29098666D01*
X47360000Y29146285D01*
X47336190Y29170095D01*
X47288571Y29193904D01*
X47193333Y29217714D01*
X47145714Y29241523D01*
X47121904Y29265333D01*
X47098095Y29312952D01*
X47098095Y29360571D01*
X47121904Y29408190D01*
X47145714Y29432000D01*
X47193333Y29455809D01*
X47312380Y29455809D01*
X47383809Y29432000D01*
X47598095Y29217714D02*
X47764761Y29217714D01*
X47836190Y28955809D02*
X47598095Y28955809D01*
X47598095Y29455809D01*
X47836190Y29455809D01*
X48050476Y28955809D02*
X48050476Y29455809D01*
X48336190Y28955809D01*
X48336190Y29455809D01*
X48574285Y28955809D02*
X48574285Y29455809D01*
X48764761Y29455809D01*
X48812380Y29432000D01*
X48836190Y29408190D01*
X48860000Y29360571D01*
X48860000Y29289142D01*
X48836190Y29241523D01*
X48812380Y29217714D01*
X48764761Y29193904D01*
X48574285Y29193904D01*
X39428571Y14077714D02*
X39500000Y14053904D01*
X39523809Y14030095D01*
X39547619Y13982476D01*
X39547619Y13911047D01*
X39523809Y13863428D01*
X39500000Y13839619D01*
X39452380Y13815809D01*
X39261904Y13815809D01*
X39261904Y14315809D01*
X39428571Y14315809D01*
X39476190Y14292000D01*
X39500000Y14268190D01*
X39523809Y14220571D01*
X39523809Y14172952D01*
X39500000Y14125333D01*
X39476190Y14101523D01*
X39428571Y14077714D01*
X39261904Y14077714D01*
X39761904Y13815809D02*
X39761904Y14315809D01*
X39976190Y13839619D02*
X40047619Y13815809D01*
X40166666Y13815809D01*
X40214285Y13839619D01*
X40238095Y13863428D01*
X40261904Y13911047D01*
X40261904Y13958666D01*
X40238095Y14006285D01*
X40214285Y14030095D01*
X40166666Y14053904D01*
X40071428Y14077714D01*
X40023809Y14101523D01*
X40000000Y14125333D01*
X39976190Y14172952D01*
X39976190Y14220571D01*
X40000000Y14268190D01*
X40023809Y14292000D01*
X40071428Y14315809D01*
X40190476Y14315809D01*
X40261904Y14292000D01*
X40476190Y14077714D02*
X40642857Y14077714D01*
X40714285Y13815809D02*
X40476190Y13815809D01*
X40476190Y14315809D01*
X40714285Y14315809D01*
X40928571Y13815809D02*
X40928571Y14315809D01*
X41214285Y13815809D01*
X41214285Y14315809D01*
X41452380Y13815809D02*
X41452380Y14315809D01*
X41738095Y13815809D01*
X41738095Y14315809D01*
X6830952Y4205809D02*
X6997619Y3705809D01*
X7164285Y4205809D01*
X7569047Y3705809D02*
X7330952Y3705809D01*
X7330952Y4205809D01*
X6532380Y31837714D02*
X6699047Y31837714D01*
X6770476Y31575809D02*
X6532380Y31575809D01*
X6532380Y32075809D01*
X6770476Y32075809D01*
X6960952Y31599619D02*
X7032380Y31575809D01*
X7151428Y31575809D01*
X7199047Y31599619D01*
X7222857Y31623428D01*
X7246666Y31671047D01*
X7246666Y31718666D01*
X7222857Y31766285D01*
X7199047Y31790095D01*
X7151428Y31813904D01*
X7056190Y31837714D01*
X7008571Y31861523D01*
X6984761Y31885333D01*
X6960952Y31932952D01*
X6960952Y31980571D01*
X6984761Y32028190D01*
X7008571Y32052000D01*
X7056190Y32075809D01*
X7175238Y32075809D01*
X7246666Y32052000D01*
X7746666Y31623428D02*
X7722857Y31599619D01*
X7651428Y31575809D01*
X7603809Y31575809D01*
X7532380Y31599619D01*
X7484761Y31647238D01*
X7460952Y31694857D01*
X7437142Y31790095D01*
X7437142Y31861523D01*
X7460952Y31956761D01*
X7484761Y32004380D01*
X7532380Y32052000D01*
X7603809Y32075809D01*
X7651428Y32075809D01*
X7722857Y32052000D01*
X7746666Y32028190D01*
X8199047Y31575809D02*
X7960952Y31575809D01*
X7960952Y32075809D01*
D13*
X12437142Y34855238D02*
X12580000Y34807619D01*
X12818095Y34807619D01*
X12913333Y34855238D01*
X12960952Y34902857D01*
X13008571Y34998095D01*
X13008571Y35093333D01*
X12960952Y35188571D01*
X12913333Y35236190D01*
X12818095Y35283809D01*
X12627619Y35331428D01*
X12532380Y35379047D01*
X12484761Y35426666D01*
X12437142Y35521904D01*
X12437142Y35617142D01*
X12484761Y35712380D01*
X12532380Y35760000D01*
X12627619Y35807619D01*
X12865714Y35807619D01*
X13008571Y35760000D01*
X13437142Y34807619D02*
X13437142Y35807619D01*
X13675238Y35807619D01*
X13818095Y35760000D01*
X13913333Y35664761D01*
X13960952Y35569523D01*
X14008571Y35379047D01*
X14008571Y35236190D01*
X13960952Y35045714D01*
X13913333Y34950476D01*
X13818095Y34855238D01*
X13675238Y34807619D01*
X13437142Y34807619D01*
X14437142Y34807619D02*
X14437142Y35474285D01*
X14437142Y35283809D02*
X14484761Y35379047D01*
X14532380Y35426666D01*
X14627619Y35474285D01*
X14722857Y35474285D01*
X15056190Y34807619D02*
X15056190Y35474285D01*
X15056190Y35807619D02*
X15008571Y35760000D01*
X15056190Y35712380D01*
X15103809Y35760000D01*
X15056190Y35807619D01*
X15056190Y35712380D01*
X15437142Y35474285D02*
X15675238Y34807619D01*
X15913333Y35474285D01*
X16675238Y34855238D02*
X16580000Y34807619D01*
X16389523Y34807619D01*
X16294285Y34855238D01*
X16246666Y34950476D01*
X16246666Y35331428D01*
X16294285Y35426666D01*
X16389523Y35474285D01*
X16580000Y35474285D01*
X16675238Y35426666D01*
X16722857Y35331428D01*
X16722857Y35236190D01*
X16246666Y35140952D01*
X18166190Y34947619D02*
X18166190Y35947619D01*
X18404285Y35947619D01*
X18547142Y35900000D01*
X18642380Y35804761D01*
X18690000Y35709523D01*
X18737619Y35519047D01*
X18737619Y35376190D01*
X18690000Y35185714D01*
X18642380Y35090476D01*
X18547142Y34995238D01*
X18404285Y34947619D01*
X18166190Y34947619D01*
X19166190Y34947619D02*
X19166190Y35614285D01*
X19166190Y35423809D02*
X19213809Y35519047D01*
X19261428Y35566666D01*
X19356666Y35614285D01*
X19451904Y35614285D01*
X19785238Y34947619D02*
X19785238Y35614285D01*
X19785238Y35947619D02*
X19737619Y35900000D01*
X19785238Y35852380D01*
X19832857Y35900000D01*
X19785238Y35947619D01*
X19785238Y35852380D01*
X20166190Y35614285D02*
X20404285Y34947619D01*
X20642380Y35614285D01*
X21404285Y34995238D02*
X21309047Y34947619D01*
X21118571Y34947619D01*
X21023333Y34995238D01*
X20975714Y35090476D01*
X20975714Y35471428D01*
X21023333Y35566666D01*
X21118571Y35614285D01*
X21309047Y35614285D01*
X21404285Y35566666D01*
X21451904Y35471428D01*
X21451904Y35376190D01*
X20975714Y35280952D01*
X22594761Y34995238D02*
X22737619Y34947619D01*
X22975714Y34947619D01*
X23070952Y34995238D01*
X23118571Y35042857D01*
X23166190Y35138095D01*
X23166190Y35233333D01*
X23118571Y35328571D01*
X23070952Y35376190D01*
X22975714Y35423809D01*
X22785238Y35471428D01*
X22690000Y35519047D01*
X22642380Y35566666D01*
X22594761Y35661904D01*
X22594761Y35757142D01*
X22642380Y35852380D01*
X22690000Y35900000D01*
X22785238Y35947619D01*
X23023333Y35947619D01*
X23166190Y35900000D01*
X23451904Y35614285D02*
X23832857Y35614285D01*
X23594761Y35947619D02*
X23594761Y35090476D01*
X23642380Y34995238D01*
X23737619Y34947619D01*
X23832857Y34947619D01*
X24594761Y34947619D02*
X24594761Y35471428D01*
X24547142Y35566666D01*
X24451904Y35614285D01*
X24261428Y35614285D01*
X24166190Y35566666D01*
X24594761Y34995238D02*
X24499523Y34947619D01*
X24261428Y34947619D01*
X24166190Y34995238D01*
X24118571Y35090476D01*
X24118571Y35185714D01*
X24166190Y35280952D01*
X24261428Y35328571D01*
X24499523Y35328571D01*
X24594761Y35376190D01*
X25499523Y35614285D02*
X25499523Y34804761D01*
X25451904Y34709523D01*
X25404285Y34661904D01*
X25309047Y34614285D01*
X25166190Y34614285D01*
X25070952Y34661904D01*
X25499523Y34995238D02*
X25404285Y34947619D01*
X25213809Y34947619D01*
X25118571Y34995238D01*
X25070952Y35042857D01*
X25023333Y35138095D01*
X25023333Y35423809D01*
X25070952Y35519047D01*
X25118571Y35566666D01*
X25213809Y35614285D01*
X25404285Y35614285D01*
X25499523Y35566666D01*
X26356666Y34995238D02*
X26261428Y34947619D01*
X26070952Y34947619D01*
X25975714Y34995238D01*
X25928095Y35090476D01*
X25928095Y35471428D01*
X25975714Y35566666D01*
X26070952Y35614285D01*
X26261428Y35614285D01*
X26356666Y35566666D01*
X26404285Y35471428D01*
X26404285Y35376190D01*
X25928095Y35280952D01*
X28166190Y35042857D02*
X28118571Y34995238D01*
X27975714Y34947619D01*
X27880476Y34947619D01*
X27737619Y34995238D01*
X27642380Y35090476D01*
X27594761Y35185714D01*
X27547142Y35376190D01*
X27547142Y35519047D01*
X27594761Y35709523D01*
X27642380Y35804761D01*
X27737619Y35900000D01*
X27880476Y35947619D01*
X27975714Y35947619D01*
X28118571Y35900000D01*
X28166190Y35852380D01*
X29023333Y34947619D02*
X29023333Y35471428D01*
X28975714Y35566666D01*
X28880476Y35614285D01*
X28690000Y35614285D01*
X28594761Y35566666D01*
X29023333Y34995238D02*
X28928095Y34947619D01*
X28690000Y34947619D01*
X28594761Y34995238D01*
X28547142Y35090476D01*
X28547142Y35185714D01*
X28594761Y35280952D01*
X28690000Y35328571D01*
X28928095Y35328571D01*
X29023333Y35376190D01*
X29499523Y34947619D02*
X29499523Y35614285D01*
X29499523Y35423809D02*
X29547142Y35519047D01*
X29594761Y35566666D01*
X29690000Y35614285D01*
X29785238Y35614285D01*
X30118571Y34947619D02*
X30118571Y35614285D01*
X30118571Y35423809D02*
X30166190Y35519047D01*
X30213809Y35566666D01*
X30309047Y35614285D01*
X30404285Y35614285D01*
X30737619Y34947619D02*
X30737619Y35614285D01*
X30737619Y35947619D02*
X30690000Y35900000D01*
X30737619Y35852380D01*
X30785238Y35900000D01*
X30737619Y35947619D01*
X30737619Y35852380D01*
X31594761Y34995238D02*
X31499523Y34947619D01*
X31309047Y34947619D01*
X31213809Y34995238D01*
X31166190Y35090476D01*
X31166190Y35471428D01*
X31213809Y35566666D01*
X31309047Y35614285D01*
X31499523Y35614285D01*
X31594761Y35566666D01*
X31642380Y35471428D01*
X31642380Y35376190D01*
X31166190Y35280952D01*
X32070952Y34947619D02*
X32070952Y35614285D01*
X32070952Y35423809D02*
X32118571Y35519047D01*
X32166190Y35566666D01*
X32261428Y35614285D01*
X32356666Y35614285D01*
X13058380Y7643904D02*
X12058380Y7643904D01*
X12058380Y7882000D01*
X12106000Y8024857D01*
X12201238Y8120095D01*
X12296476Y8167714D01*
X12486952Y8215333D01*
X12629809Y8215333D01*
X12820285Y8167714D01*
X12915523Y8120095D01*
X13010761Y8024857D01*
X13058380Y7882000D01*
X13058380Y7643904D01*
X12058380Y9120095D02*
X12058380Y8643904D01*
X12534571Y8596285D01*
X12486952Y8643904D01*
X12439333Y8739142D01*
X12439333Y8977238D01*
X12486952Y9072476D01*
X12534571Y9120095D01*
X12629809Y9167714D01*
X12867904Y9167714D01*
X12963142Y9120095D01*
X13010761Y9072476D01*
X13058380Y8977238D01*
X13058380Y8739142D01*
X13010761Y8643904D01*
X12963142Y8596285D01*
X8596380Y21690095D02*
X9405904Y21690095D01*
X9501142Y21737714D01*
X9548761Y21785333D01*
X9596380Y21880571D01*
X9596380Y22071047D01*
X9548761Y22166285D01*
X9501142Y22213904D01*
X9405904Y22261523D01*
X8596380Y22261523D01*
X8596380Y22642476D02*
X8596380Y23261523D01*
X8977333Y22928190D01*
X8977333Y23071047D01*
X9024952Y23166285D01*
X9072571Y23213904D01*
X9167809Y23261523D01*
X9405904Y23261523D01*
X9501142Y23213904D01*
X9548761Y23166285D01*
X9596380Y23071047D01*
X9596380Y22785333D01*
X9548761Y22690095D01*
X9501142Y22642476D01*
X9517142Y26471619D02*
X9183809Y26947809D01*
X8945714Y26471619D02*
X8945714Y27471619D01*
X9326666Y27471619D01*
X9421904Y27424000D01*
X9469523Y27376380D01*
X9517142Y27281142D01*
X9517142Y27138285D01*
X9469523Y27043047D01*
X9421904Y26995428D01*
X9326666Y26947809D01*
X8945714Y26947809D01*
X10469523Y26471619D02*
X9898095Y26471619D01*
X10183809Y26471619D02*
X10183809Y27471619D01*
X10088571Y27328761D01*
X9993333Y27233523D01*
X9898095Y27185904D01*
X10945714Y26471619D02*
X11136190Y26471619D01*
X11231428Y26519238D01*
X11279047Y26566857D01*
X11374285Y26709714D01*
X11421904Y26900190D01*
X11421904Y27281142D01*
X11374285Y27376380D01*
X11326666Y27424000D01*
X11231428Y27471619D01*
X11040952Y27471619D01*
X10945714Y27424000D01*
X10898095Y27376380D01*
X10850476Y27281142D01*
X10850476Y27043047D01*
X10898095Y26947809D01*
X10945714Y26900190D01*
X11040952Y26852571D01*
X11231428Y26852571D01*
X11326666Y26900190D01*
X11374285Y26947809D01*
X11421904Y27043047D01*
X13312380Y14427142D02*
X12836190Y14093809D01*
X13312380Y13855714D02*
X12312380Y13855714D01*
X12312380Y14236666D01*
X12360000Y14331904D01*
X12407619Y14379523D01*
X12502857Y14427142D01*
X12645714Y14427142D01*
X12740952Y14379523D01*
X12788571Y14331904D01*
X12836190Y14236666D01*
X12836190Y13855714D01*
X13312380Y15379523D02*
X13312380Y14808095D01*
X13312380Y15093809D02*
X12312380Y15093809D01*
X12455238Y14998571D01*
X12550476Y14903333D01*
X12598095Y14808095D01*
X12740952Y15950952D02*
X12693333Y15855714D01*
X12645714Y15808095D01*
X12550476Y15760476D01*
X12502857Y15760476D01*
X12407619Y15808095D01*
X12360000Y15855714D01*
X12312380Y15950952D01*
X12312380Y16141428D01*
X12360000Y16236666D01*
X12407619Y16284285D01*
X12502857Y16331904D01*
X12550476Y16331904D01*
X12645714Y16284285D01*
X12693333Y16236666D01*
X12740952Y16141428D01*
X12740952Y15950952D01*
X12788571Y15855714D01*
X12836190Y15808095D01*
X12931428Y15760476D01*
X13121904Y15760476D01*
X13217142Y15808095D01*
X13264761Y15855714D01*
X13312380Y15950952D01*
X13312380Y16141428D01*
X13264761Y16236666D01*
X13217142Y16284285D01*
X13121904Y16331904D01*
X12931428Y16331904D01*
X12836190Y16284285D01*
X12788571Y16236666D01*
X12740952Y16141428D01*
X11742380Y14487142D02*
X11266190Y14153809D01*
X11742380Y13915714D02*
X10742380Y13915714D01*
X10742380Y14296666D01*
X10790000Y14391904D01*
X10837619Y14439523D01*
X10932857Y14487142D01*
X11075714Y14487142D01*
X11170952Y14439523D01*
X11218571Y14391904D01*
X11266190Y14296666D01*
X11266190Y13915714D01*
X11742380Y15439523D02*
X11742380Y14868095D01*
X11742380Y15153809D02*
X10742380Y15153809D01*
X10885238Y15058571D01*
X10980476Y14963333D01*
X11028095Y14868095D01*
X10742380Y15772857D02*
X10742380Y16439523D01*
X11742380Y16010952D01*
X10372380Y14547142D02*
X9896190Y14213809D01*
X10372380Y13975714D02*
X9372380Y13975714D01*
X9372380Y14356666D01*
X9420000Y14451904D01*
X9467619Y14499523D01*
X9562857Y14547142D01*
X9705714Y14547142D01*
X9800952Y14499523D01*
X9848571Y14451904D01*
X9896190Y14356666D01*
X9896190Y13975714D01*
X10372380Y15499523D02*
X10372380Y14928095D01*
X10372380Y15213809D02*
X9372380Y15213809D01*
X9515238Y15118571D01*
X9610476Y15023333D01*
X9658095Y14928095D01*
X9372380Y16356666D02*
X9372380Y16166190D01*
X9420000Y16070952D01*
X9467619Y16023333D01*
X9610476Y15928095D01*
X9800952Y15880476D01*
X10181904Y15880476D01*
X10277142Y15928095D01*
X10324761Y15975714D01*
X10372380Y16070952D01*
X10372380Y16261428D01*
X10324761Y16356666D01*
X10277142Y16404285D01*
X10181904Y16451904D01*
X9943809Y16451904D01*
X9848571Y16404285D01*
X9800952Y16356666D01*
X9753333Y16261428D01*
X9753333Y16070952D01*
X9800952Y15975714D01*
X9848571Y15928095D01*
X9943809Y15880476D01*
X13039142Y26479619D02*
X12705809Y26955809D01*
X12467714Y26479619D02*
X12467714Y27479619D01*
X12848666Y27479619D01*
X12943904Y27432000D01*
X12991523Y27384380D01*
X13039142Y27289142D01*
X13039142Y27146285D01*
X12991523Y27051047D01*
X12943904Y27003428D01*
X12848666Y26955809D01*
X12467714Y26955809D01*
X13991523Y26479619D02*
X13420095Y26479619D01*
X13705809Y26479619D02*
X13705809Y27479619D01*
X13610571Y27336761D01*
X13515333Y27241523D01*
X13420095Y27193904D01*
X14896285Y27479619D02*
X14420095Y27479619D01*
X14372476Y27003428D01*
X14420095Y27051047D01*
X14515333Y27098666D01*
X14753428Y27098666D01*
X14848666Y27051047D01*
X14896285Y27003428D01*
X14943904Y26908190D01*
X14943904Y26670095D01*
X14896285Y26574857D01*
X14848666Y26527238D01*
X14753428Y26479619D01*
X14515333Y26479619D01*
X14420095Y26527238D01*
X14372476Y26574857D01*
X16423142Y24679142D02*
X16470761Y24631523D01*
X16518380Y24488666D01*
X16518380Y24393428D01*
X16470761Y24250571D01*
X16375523Y24155333D01*
X16280285Y24107714D01*
X16089809Y24060095D01*
X15946952Y24060095D01*
X15756476Y24107714D01*
X15661238Y24155333D01*
X15566000Y24250571D01*
X15518380Y24393428D01*
X15518380Y24488666D01*
X15566000Y24631523D01*
X15613619Y24679142D01*
X16518380Y25631523D02*
X16518380Y25060095D01*
X16518380Y25345809D02*
X15518380Y25345809D01*
X15661238Y25250571D01*
X15756476Y25155333D01*
X15804095Y25060095D01*
X15613619Y26012476D02*
X15566000Y26060095D01*
X15518380Y26155333D01*
X15518380Y26393428D01*
X15566000Y26488666D01*
X15613619Y26536285D01*
X15708857Y26583904D01*
X15804095Y26583904D01*
X15946952Y26536285D01*
X16518380Y25964857D01*
X16518380Y26583904D01*
X31247142Y1223333D02*
X31294761Y1175714D01*
X31342380Y1032857D01*
X31342380Y937619D01*
X31294761Y794761D01*
X31199523Y699523D01*
X31104285Y651904D01*
X30913809Y604285D01*
X30770952Y604285D01*
X30580476Y651904D01*
X30485238Y699523D01*
X30390000Y794761D01*
X30342380Y937619D01*
X30342380Y1032857D01*
X30390000Y1175714D01*
X30437619Y1223333D01*
X30342380Y2080476D02*
X30342380Y1890000D01*
X30390000Y1794761D01*
X30437619Y1747142D01*
X30580476Y1651904D01*
X30770952Y1604285D01*
X31151904Y1604285D01*
X31247142Y1651904D01*
X31294761Y1699523D01*
X31342380Y1794761D01*
X31342380Y1985238D01*
X31294761Y2080476D01*
X31247142Y2128095D01*
X31151904Y2175714D01*
X30913809Y2175714D01*
X30818571Y2128095D01*
X30770952Y2080476D01*
X30723333Y1985238D01*
X30723333Y1794761D01*
X30770952Y1699523D01*
X30818571Y1651904D01*
X30913809Y1604285D01*
X26037142Y1163333D02*
X26084761Y1115714D01*
X26132380Y972857D01*
X26132380Y877619D01*
X26084761Y734761D01*
X25989523Y639523D01*
X25894285Y591904D01*
X25703809Y544285D01*
X25560952Y544285D01*
X25370476Y591904D01*
X25275238Y639523D01*
X25180000Y734761D01*
X25132380Y877619D01*
X25132380Y972857D01*
X25180000Y1115714D01*
X25227619Y1163333D01*
X25227619Y1544285D02*
X25180000Y1591904D01*
X25132380Y1687142D01*
X25132380Y1925238D01*
X25180000Y2020476D01*
X25227619Y2068095D01*
X25322857Y2115714D01*
X25418095Y2115714D01*
X25560952Y2068095D01*
X26132380Y1496666D01*
X26132380Y2115714D01*
X20947142Y1203333D02*
X20994761Y1155714D01*
X21042380Y1012857D01*
X21042380Y917619D01*
X20994761Y774761D01*
X20899523Y679523D01*
X20804285Y631904D01*
X20613809Y584285D01*
X20470952Y584285D01*
X20280476Y631904D01*
X20185238Y679523D01*
X20090000Y774761D01*
X20042380Y917619D01*
X20042380Y1012857D01*
X20090000Y1155714D01*
X20137619Y1203333D01*
X21042380Y2155714D02*
X21042380Y1584285D01*
X21042380Y1870000D02*
X20042380Y1870000D01*
X20185238Y1774761D01*
X20280476Y1679523D01*
X20328095Y1584285D01*
X38637142Y2527619D02*
X38303809Y3003809D01*
X38065714Y2527619D02*
X38065714Y3527619D01*
X38446666Y3527619D01*
X38541904Y3480000D01*
X38589523Y3432380D01*
X38637142Y3337142D01*
X38637142Y3194285D01*
X38589523Y3099047D01*
X38541904Y3051428D01*
X38446666Y3003809D01*
X38065714Y3003809D01*
X39589523Y2527619D02*
X39018095Y2527619D01*
X39303809Y2527619D02*
X39303809Y3527619D01*
X39208571Y3384761D01*
X39113333Y3289523D01*
X39018095Y3241904D01*
X39922857Y3527619D02*
X40541904Y3527619D01*
X40208571Y3146666D01*
X40351428Y3146666D01*
X40446666Y3099047D01*
X40494285Y3051428D01*
X40541904Y2956190D01*
X40541904Y2718095D01*
X40494285Y2622857D01*
X40446666Y2575238D01*
X40351428Y2527619D01*
X40065714Y2527619D01*
X39970476Y2575238D01*
X39922857Y2622857D01*
D17*
X30803792Y25420023D02*
X30803792Y24973553D01*
X30830055Y24921027D01*
X30856318Y24894764D01*
X30908844Y24868501D01*
X31013896Y24868501D01*
X31066422Y24894764D01*
X31092685Y24921027D01*
X31118948Y24973553D01*
X31118948Y25420023D01*
X31670470Y24868501D02*
X31355314Y24868501D01*
X31512892Y24868501D02*
X31512892Y25420023D01*
X31460366Y25341235D01*
X31407840Y25288709D01*
X31355314Y25262446D01*
D13*
X37682342Y32403533D02*
X37729961Y32355914D01*
X37777580Y32213057D01*
X37777580Y32117819D01*
X37729961Y31974961D01*
X37634723Y31879723D01*
X37539485Y31832104D01*
X37349009Y31784485D01*
X37206152Y31784485D01*
X37015676Y31832104D01*
X36920438Y31879723D01*
X36825200Y31974961D01*
X36777580Y32117819D01*
X36777580Y32213057D01*
X36825200Y32355914D01*
X36872819Y32403533D01*
X36777580Y32736866D02*
X36777580Y33403533D01*
X37777580Y32974961D01*
X20572380Y21923333D02*
X20096190Y21590000D01*
X20572380Y21351904D02*
X19572380Y21351904D01*
X19572380Y21732857D01*
X19620000Y21828095D01*
X19667619Y21875714D01*
X19762857Y21923333D01*
X19905714Y21923333D01*
X20000952Y21875714D01*
X20048571Y21828095D01*
X20096190Y21732857D01*
X20096190Y21351904D01*
X19572380Y22256666D02*
X19572380Y22923333D01*
X20572380Y22494761D01*
X14274380Y28001904D02*
X13274380Y28001904D01*
X13274380Y28240000D01*
X13322000Y28382857D01*
X13417238Y28478095D01*
X13512476Y28525714D01*
X13702952Y28573333D01*
X13845809Y28573333D01*
X14036285Y28525714D01*
X14131523Y28478095D01*
X14226761Y28382857D01*
X14274380Y28240000D01*
X14274380Y28001904D01*
X13607714Y29430476D02*
X14274380Y29430476D01*
X13226761Y29192380D02*
X13941047Y28954285D01*
X13941047Y29573333D01*
X12534571Y4576666D02*
X12534571Y4243333D01*
X13058380Y4243333D02*
X12058380Y4243333D01*
X12058380Y4719523D01*
X12153619Y5052857D02*
X12106000Y5100476D01*
X12058380Y5195714D01*
X12058380Y5433809D01*
X12106000Y5529047D01*
X12153619Y5576666D01*
X12248857Y5624285D01*
X12344095Y5624285D01*
X12486952Y5576666D01*
X13058380Y5005238D01*
X13058380Y5624285D01*
X14896666Y11811428D02*
X14563333Y11811428D01*
X14563333Y11287619D02*
X14563333Y12287619D01*
X15039523Y12287619D01*
X15944285Y11287619D02*
X15372857Y11287619D01*
X15658571Y11287619D02*
X15658571Y12287619D01*
X15563333Y12144761D01*
X15468095Y12049523D01*
X15372857Y12001904D01*
X17264380Y28011904D02*
X16264380Y28011904D01*
X16264380Y28250000D01*
X16312000Y28392857D01*
X16407238Y28488095D01*
X16502476Y28535714D01*
X16692952Y28583333D01*
X16835809Y28583333D01*
X17026285Y28535714D01*
X17121523Y28488095D01*
X17216761Y28392857D01*
X17264380Y28250000D01*
X17264380Y28011904D01*
X16264380Y28916666D02*
X16264380Y29535714D01*
X16645333Y29202380D01*
X16645333Y29345238D01*
X16692952Y29440476D01*
X16740571Y29488095D01*
X16835809Y29535714D01*
X17073904Y29535714D01*
X17169142Y29488095D01*
X17216761Y29440476D01*
X17264380Y29345238D01*
X17264380Y29059523D01*
X17216761Y28964285D01*
X17169142Y28916666D01*
X25728380Y24478333D02*
X25252190Y24145000D01*
X25728380Y23906904D02*
X24728380Y23906904D01*
X24728380Y24287857D01*
X24776000Y24383095D01*
X24823619Y24430714D01*
X24918857Y24478333D01*
X25061714Y24478333D01*
X25156952Y24430714D01*
X25204571Y24383095D01*
X25252190Y24287857D01*
X25252190Y23906904D01*
X25061714Y25335476D02*
X25728380Y25335476D01*
X24680761Y25097380D02*
X25395047Y24859285D01*
X25395047Y25478333D01*
X22412380Y21883333D02*
X21936190Y21550000D01*
X22412380Y21311904D02*
X21412380Y21311904D01*
X21412380Y21692857D01*
X21460000Y21788095D01*
X21507619Y21835714D01*
X21602857Y21883333D01*
X21745714Y21883333D01*
X21840952Y21835714D01*
X21888571Y21788095D01*
X21936190Y21692857D01*
X21936190Y21311904D01*
X22412380Y22835714D02*
X22412380Y22264285D01*
X22412380Y22550000D02*
X21412380Y22550000D01*
X21555238Y22454761D01*
X21650476Y22359523D01*
X21698095Y22264285D01*
X15764380Y28051904D02*
X14764380Y28051904D01*
X14764380Y28290000D01*
X14812000Y28432857D01*
X14907238Y28528095D01*
X15002476Y28575714D01*
X15192952Y28623333D01*
X15335809Y28623333D01*
X15526285Y28575714D01*
X15621523Y28528095D01*
X15716761Y28432857D01*
X15764380Y28290000D01*
X15764380Y28051904D01*
X15764380Y29575714D02*
X15764380Y29004285D01*
X15764380Y29290000D02*
X14764380Y29290000D01*
X14907238Y29194761D01*
X15002476Y29099523D01*
X15050095Y29004285D01*
X38108942Y16632833D02*
X38156561Y16585214D01*
X38204180Y16442357D01*
X38204180Y16347119D01*
X38156561Y16204261D01*
X38061323Y16109023D01*
X37966085Y16061404D01*
X37775609Y16013785D01*
X37632752Y16013785D01*
X37442276Y16061404D01*
X37347038Y16109023D01*
X37251800Y16204261D01*
X37204180Y16347119D01*
X37204180Y16442357D01*
X37251800Y16585214D01*
X37299419Y16632833D01*
X37204180Y16966166D02*
X37204180Y17585214D01*
X37585133Y17251880D01*
X37585133Y17394738D01*
X37632752Y17489976D01*
X37680371Y17537595D01*
X37775609Y17585214D01*
X38013704Y17585214D01*
X38108942Y17537595D01*
X38156561Y17489976D01*
X38204180Y17394738D01*
X38204180Y17109023D01*
X38156561Y17013785D01*
X38108942Y16966166D01*
X36673842Y16582033D02*
X36721461Y16534414D01*
X36769080Y16391557D01*
X36769080Y16296319D01*
X36721461Y16153461D01*
X36626223Y16058223D01*
X36530985Y16010604D01*
X36340509Y15962985D01*
X36197652Y15962985D01*
X36007176Y16010604D01*
X35911938Y16058223D01*
X35816700Y16153461D01*
X35769080Y16296319D01*
X35769080Y16391557D01*
X35816700Y16534414D01*
X35864319Y16582033D01*
X35769080Y17486795D02*
X35769080Y17010604D01*
X36245271Y16962985D01*
X36197652Y17010604D01*
X36150033Y17105842D01*
X36150033Y17343938D01*
X36197652Y17439176D01*
X36245271Y17486795D01*
X36340509Y17534414D01*
X36578604Y17534414D01*
X36673842Y17486795D01*
X36721461Y17439176D01*
X36769080Y17343938D01*
X36769080Y17105842D01*
X36721461Y17010604D01*
X36673842Y16962985D01*
X26412380Y31477142D02*
X25936190Y31143809D01*
X26412380Y30905714D02*
X25412380Y30905714D01*
X25412380Y31286666D01*
X25460000Y31381904D01*
X25507619Y31429523D01*
X25602857Y31477142D01*
X25745714Y31477142D01*
X25840952Y31429523D01*
X25888571Y31381904D01*
X25936190Y31286666D01*
X25936190Y30905714D01*
X26412380Y32429523D02*
X26412380Y31858095D01*
X26412380Y32143809D02*
X25412380Y32143809D01*
X25555238Y32048571D01*
X25650476Y31953333D01*
X25698095Y31858095D01*
X26412380Y33381904D02*
X26412380Y32810476D01*
X26412380Y33096190D02*
X25412380Y33096190D01*
X25555238Y33000952D01*
X25650476Y32905714D01*
X25698095Y32810476D01*
X30792380Y29193333D02*
X30316190Y28860000D01*
X30792380Y28621904D02*
X29792380Y28621904D01*
X29792380Y29002857D01*
X29840000Y29098095D01*
X29887619Y29145714D01*
X29982857Y29193333D01*
X30125714Y29193333D01*
X30220952Y29145714D01*
X30268571Y29098095D01*
X30316190Y29002857D01*
X30316190Y28621904D01*
X29792380Y30050476D02*
X29792380Y29860000D01*
X29840000Y29764761D01*
X29887619Y29717142D01*
X30030476Y29621904D01*
X30220952Y29574285D01*
X30601904Y29574285D01*
X30697142Y29621904D01*
X30744761Y29669523D01*
X30792380Y29764761D01*
X30792380Y29955238D01*
X30744761Y30050476D01*
X30697142Y30098095D01*
X30601904Y30145714D01*
X30363809Y30145714D01*
X30268571Y30098095D01*
X30220952Y30050476D01*
X30173333Y29955238D01*
X30173333Y29764761D01*
X30220952Y29669523D01*
X30268571Y29621904D01*
X30363809Y29574285D01*
X27962380Y31473333D02*
X27486190Y31140000D01*
X27962380Y30901904D02*
X26962380Y30901904D01*
X26962380Y31282857D01*
X27010000Y31378095D01*
X27057619Y31425714D01*
X27152857Y31473333D01*
X27295714Y31473333D01*
X27390952Y31425714D01*
X27438571Y31378095D01*
X27486190Y31282857D01*
X27486190Y30901904D01*
X26962380Y32378095D02*
X26962380Y31901904D01*
X27438571Y31854285D01*
X27390952Y31901904D01*
X27343333Y31997142D01*
X27343333Y32235238D01*
X27390952Y32330476D01*
X27438571Y32378095D01*
X27533809Y32425714D01*
X27771904Y32425714D01*
X27867142Y32378095D01*
X27914761Y32330476D01*
X27962380Y32235238D01*
X27962380Y31997142D01*
X27914761Y31901904D01*
X27867142Y31854285D01*
X18647380Y22009333D02*
X18171190Y21676000D01*
X18647380Y21437904D02*
X17647380Y21437904D01*
X17647380Y21818857D01*
X17695000Y21914095D01*
X17742619Y21961714D01*
X17837857Y22009333D01*
X17980714Y22009333D01*
X18075952Y21961714D01*
X18123571Y21914095D01*
X18171190Y21818857D01*
X18171190Y21437904D01*
X17647380Y22342666D02*
X17647380Y22961714D01*
X18028333Y22628380D01*
X18028333Y22771238D01*
X18075952Y22866476D01*
X18123571Y22914095D01*
X18218809Y22961714D01*
X18456904Y22961714D01*
X18552142Y22914095D01*
X18599761Y22866476D01*
X18647380Y22771238D01*
X18647380Y22485523D01*
X18599761Y22390285D01*
X18552142Y22342666D01*
X35692380Y31958333D02*
X35216190Y31625000D01*
X35692380Y31386904D02*
X34692380Y31386904D01*
X34692380Y31767857D01*
X34740000Y31863095D01*
X34787619Y31910714D01*
X34882857Y31958333D01*
X35025714Y31958333D01*
X35120952Y31910714D01*
X35168571Y31863095D01*
X35216190Y31767857D01*
X35216190Y31386904D01*
X34787619Y32339285D02*
X34740000Y32386904D01*
X34692380Y32482142D01*
X34692380Y32720238D01*
X34740000Y32815476D01*
X34787619Y32863095D01*
X34882857Y32910714D01*
X34978095Y32910714D01*
X35120952Y32863095D01*
X35692380Y32291666D01*
X35692380Y32910714D01*
X12962380Y27921904D02*
X11962380Y27921904D01*
X11962380Y28160000D01*
X12010000Y28302857D01*
X12105238Y28398095D01*
X12200476Y28445714D01*
X12390952Y28493333D01*
X12533809Y28493333D01*
X12724285Y28445714D01*
X12819523Y28398095D01*
X12914761Y28302857D01*
X12962380Y28160000D01*
X12962380Y27921904D01*
X12057619Y28874285D02*
X12010000Y28921904D01*
X11962380Y29017142D01*
X11962380Y29255238D01*
X12010000Y29350476D01*
X12057619Y29398095D01*
X12152857Y29445714D01*
X12248095Y29445714D01*
X12390952Y29398095D01*
X12962380Y28826666D01*
X12962380Y29445714D01*
X28636818Y17176309D02*
X28589199Y17128690D01*
X28446342Y17081071D01*
X28351104Y17081071D01*
X28208247Y17128690D01*
X28113009Y17223928D01*
X28065390Y17319166D01*
X28017771Y17509642D01*
X28017771Y17652499D01*
X28065390Y17842975D01*
X28113009Y17938213D01*
X28208247Y18033452D01*
X28351104Y18081071D01*
X28446342Y18081071D01*
X28589199Y18033452D01*
X28636818Y17985832D01*
X29589199Y17081071D02*
X29017771Y17081071D01*
X29303485Y17081071D02*
X29303485Y18081071D01*
X29208247Y17938213D01*
X29113009Y17842975D01*
X29017771Y17795356D01*
X30541580Y17081071D02*
X29970152Y17081071D01*
X30255866Y17081071D02*
X30255866Y18081071D01*
X30160628Y17938213D01*
X30065390Y17842975D01*
X29970152Y17795356D01*
X28586819Y19151309D02*
X28539200Y19103690D01*
X28396343Y19056071D01*
X28301105Y19056071D01*
X28158248Y19103690D01*
X28063010Y19198928D01*
X28015391Y19294166D01*
X27967772Y19484642D01*
X27967772Y19627499D01*
X28015391Y19817975D01*
X28063010Y19913213D01*
X28158248Y20008452D01*
X28301105Y20056071D01*
X28396343Y20056071D01*
X28539200Y20008452D01*
X28586819Y19960832D01*
X29539200Y19056071D02*
X28967772Y19056071D01*
X29253486Y19056071D02*
X29253486Y20056071D01*
X29158248Y19913213D01*
X29063010Y19817975D01*
X28967772Y19770356D01*
X30158248Y20056071D02*
X30253486Y20056071D01*
X30348724Y20008452D01*
X30396343Y19960832D01*
X30443962Y19865594D01*
X30491581Y19675118D01*
X30491581Y19437023D01*
X30443962Y19246547D01*
X30396343Y19151309D01*
X30348724Y19103690D01*
X30253486Y19056071D01*
X30158248Y19056071D01*
X30063010Y19103690D01*
X30015391Y19151309D01*
X29967772Y19246547D01*
X29920153Y19437023D01*
X29920153Y19675118D01*
X29967772Y19865594D01*
X30015391Y19960832D01*
X30063010Y20008452D01*
X30158248Y20056071D01*
X27618333Y22442857D02*
X27570714Y22395238D01*
X27427857Y22347619D01*
X27332619Y22347619D01*
X27189761Y22395238D01*
X27094523Y22490476D01*
X27046904Y22585714D01*
X26999285Y22776190D01*
X26999285Y22919047D01*
X27046904Y23109523D01*
X27094523Y23204761D01*
X27189761Y23300000D01*
X27332619Y23347619D01*
X27427857Y23347619D01*
X27570714Y23300000D01*
X27618333Y23252380D01*
X28094523Y22347619D02*
X28285000Y22347619D01*
X28380238Y22395238D01*
X28427857Y22442857D01*
X28523095Y22585714D01*
X28570714Y22776190D01*
X28570714Y23157142D01*
X28523095Y23252380D01*
X28475476Y23300000D01*
X28380238Y23347619D01*
X28189761Y23347619D01*
X28094523Y23300000D01*
X28046904Y23252380D01*
X27999285Y23157142D01*
X27999285Y22919047D01*
X28046904Y22823809D01*
X28094523Y22776190D01*
X28189761Y22728571D01*
X28380238Y22728571D01*
X28475476Y22776190D01*
X28523095Y22823809D01*
X28570714Y22919047D01*
X35027142Y13933333D02*
X35074761Y13885714D01*
X35122380Y13742857D01*
X35122380Y13647619D01*
X35074761Y13504761D01*
X34979523Y13409523D01*
X34884285Y13361904D01*
X34693809Y13314285D01*
X34550952Y13314285D01*
X34360476Y13361904D01*
X34265238Y13409523D01*
X34170000Y13504761D01*
X34122380Y13647619D01*
X34122380Y13742857D01*
X34170000Y13885714D01*
X34217619Y13933333D01*
X34550952Y14504761D02*
X34503333Y14409523D01*
X34455714Y14361904D01*
X34360476Y14314285D01*
X34312857Y14314285D01*
X34217619Y14361904D01*
X34170000Y14409523D01*
X34122380Y14504761D01*
X34122380Y14695238D01*
X34170000Y14790476D01*
X34217619Y14838095D01*
X34312857Y14885714D01*
X34360476Y14885714D01*
X34455714Y14838095D01*
X34503333Y14790476D01*
X34550952Y14695238D01*
X34550952Y14504761D01*
X34598571Y14409523D01*
X34646190Y14361904D01*
X34741428Y14314285D01*
X34931904Y14314285D01*
X35027142Y14361904D01*
X35074761Y14409523D01*
X35122380Y14504761D01*
X35122380Y14695238D01*
X35074761Y14790476D01*
X35027142Y14838095D01*
X34931904Y14885714D01*
X34741428Y14885714D01*
X34646190Y14838095D01*
X34598571Y14790476D01*
X34550952Y14695238D01*
M02*
