M48
; DRILL file {KiCad (5.1.5)-3} date 29.07.2021 11:54:47 AM
; FORMAT={3:3/ absolute / metric / suppress leading zeros}
; #@! TF.CreationDate,2021-07-29T11:54:47+02:00
; #@! TF.GenerationSoftware,Kicad,Pcbnew,(5.1.5)-3
FMAT,2
METRIC,TZ
T1C0.200
T2C0.300
T3C1.000
%
G90
G05
T1
X6930Y2340
X10190Y8510
X10310Y11140
X10500Y23710
X11614Y8841
X12370Y23820
X13114Y8544
X14644Y8584
X14660Y23910
X16140Y8420
X18640Y24850
X20530Y18230
X20790Y24310
X21100Y19170
X21450Y25370
X21920Y17140
X22620Y17410
X22750Y18350
X23650Y16870
X24290Y23070
X24770Y22390
X25390Y23360
X25880Y28230
X25890Y23850
X26600Y24030
X27330Y23980
X27840Y28060
X30960Y23540
X31480Y22960
X31590Y22000
X32280Y16680
X32490Y17430
X40860Y29630
X41160Y17230
T2
X26568Y19986
X26568Y18716
X26568Y17446
X27838Y19986
X27838Y18716
X27838Y17446
X29108Y19986
X29108Y18716
X29108Y17446
T3
X2739Y31806
X2739Y29266
X2739Y26726
X2739Y24186
X2739Y21646
X2739Y19106
X2739Y16566
X2739Y14026
X2739Y11486
X2739Y8946
X2739Y6406
X2739Y3866
X5279Y31806
X5279Y29266
X5279Y26726
X5279Y24186
X5279Y21646
X5279Y19106
X5279Y16566
X5279Y14026
X5279Y11486
X5279Y8946
X5279Y6406
X5279Y3866
X42819Y31806
X42819Y29266
X42819Y26726
X42819Y24186
X42819Y21646
X42819Y19106
X42819Y16566
X42819Y14026
X42819Y11486
X42819Y8946
X42819Y6406
X42819Y3866
X45359Y31806
X45359Y29266
X45359Y26726
X45359Y24186
X45359Y21646
X45359Y19106
X45359Y16566
X45359Y14026
X45359Y11486
X45359Y8946
X45359Y6406
X45359Y3866
T0
M30
