G04 #@! TF.GenerationSoftware,KiCad,Pcbnew,(5.1.5)-3*
G04 #@! TF.CreationDate,2021-07-29T11:54:45+02:00*
G04 #@! TF.ProjectId,sDrive1,73447269-7665-4312-9e6b-696361645f70,rev?*
G04 #@! TF.SameCoordinates,Original*
G04 #@! TF.FileFunction,Soldermask,Bot*
G04 #@! TF.FilePolarity,Negative*
%FSLAX46Y46*%
G04 Gerber Fmt 4.6, Leading zero omitted, Abs format (unit mm)*
G04 Created by KiCad (PCBNEW (5.1.5)-3) date 2021-07-29 11:54:45*
%MOMM*%
%LPD*%
G04 APERTURE LIST*
%ADD10C,0.100000*%
G04 APERTURE END LIST*
D10*
G36*
X45472292Y4762253D02*
G01*
X45621592Y4732556D01*
X45785564Y4664636D01*
X45933134Y4566033D01*
X46058633Y4440534D01*
X46157236Y4292964D01*
X46225156Y4128992D01*
X46259780Y3954921D01*
X46259780Y3777439D01*
X46225156Y3603368D01*
X46157236Y3439396D01*
X46058633Y3291826D01*
X45933134Y3166327D01*
X45785564Y3067724D01*
X45621592Y2999804D01*
X45472292Y2970107D01*
X45447522Y2965180D01*
X45270038Y2965180D01*
X45245268Y2970107D01*
X45095968Y2999804D01*
X44931996Y3067724D01*
X44784426Y3166327D01*
X44658927Y3291826D01*
X44560324Y3439396D01*
X44492404Y3603368D01*
X44457780Y3777439D01*
X44457780Y3954921D01*
X44492404Y4128992D01*
X44560324Y4292964D01*
X44658927Y4440534D01*
X44784426Y4566033D01*
X44931996Y4664636D01*
X45095968Y4732556D01*
X45245268Y4762253D01*
X45270038Y4767180D01*
X45447522Y4767180D01*
X45472292Y4762253D01*
G37*
G36*
X42932292Y4762253D02*
G01*
X43081592Y4732556D01*
X43245564Y4664636D01*
X43393134Y4566033D01*
X43518633Y4440534D01*
X43617236Y4292964D01*
X43685156Y4128992D01*
X43719780Y3954921D01*
X43719780Y3777439D01*
X43685156Y3603368D01*
X43617236Y3439396D01*
X43518633Y3291826D01*
X43393134Y3166327D01*
X43245564Y3067724D01*
X43081592Y2999804D01*
X42932292Y2970107D01*
X42907522Y2965180D01*
X42730038Y2965180D01*
X42705268Y2970107D01*
X42555968Y2999804D01*
X42391996Y3067724D01*
X42244426Y3166327D01*
X42118927Y3291826D01*
X42020324Y3439396D01*
X41952404Y3603368D01*
X41917780Y3777439D01*
X41917780Y3954921D01*
X41952404Y4128992D01*
X42020324Y4292964D01*
X42118927Y4440534D01*
X42244426Y4566033D01*
X42391996Y4664636D01*
X42555968Y4732556D01*
X42705268Y4762253D01*
X42730038Y4767180D01*
X42907522Y4767180D01*
X42932292Y4762253D01*
G37*
G36*
X2852292Y4762253D02*
G01*
X3001592Y4732556D01*
X3165564Y4664636D01*
X3313134Y4566033D01*
X3438633Y4440534D01*
X3537236Y4292964D01*
X3605156Y4128992D01*
X3639780Y3954921D01*
X3639780Y3777439D01*
X3605156Y3603368D01*
X3537236Y3439396D01*
X3438633Y3291826D01*
X3313134Y3166327D01*
X3165564Y3067724D01*
X3001592Y2999804D01*
X2852292Y2970107D01*
X2827522Y2965180D01*
X2650038Y2965180D01*
X2625268Y2970107D01*
X2475968Y2999804D01*
X2311996Y3067724D01*
X2164426Y3166327D01*
X2038927Y3291826D01*
X1940324Y3439396D01*
X1872404Y3603368D01*
X1837780Y3777439D01*
X1837780Y3954921D01*
X1872404Y4128992D01*
X1940324Y4292964D01*
X2038927Y4440534D01*
X2164426Y4566033D01*
X2311996Y4664636D01*
X2475968Y4732556D01*
X2625268Y4762253D01*
X2650038Y4767180D01*
X2827522Y4767180D01*
X2852292Y4762253D01*
G37*
G36*
X5392292Y4762253D02*
G01*
X5541592Y4732556D01*
X5705564Y4664636D01*
X5853134Y4566033D01*
X5978633Y4440534D01*
X6077236Y4292964D01*
X6145156Y4128992D01*
X6179780Y3954921D01*
X6179780Y3777439D01*
X6145156Y3603368D01*
X6077236Y3439396D01*
X5978633Y3291826D01*
X5853134Y3166327D01*
X5705564Y3067724D01*
X5541592Y2999804D01*
X5392292Y2970107D01*
X5367522Y2965180D01*
X5190038Y2965180D01*
X5165268Y2970107D01*
X5015968Y2999804D01*
X4851996Y3067724D01*
X4704426Y3166327D01*
X4578927Y3291826D01*
X4480324Y3439396D01*
X4412404Y3603368D01*
X4377780Y3777439D01*
X4377780Y3954921D01*
X4412404Y4128992D01*
X4480324Y4292964D01*
X4578927Y4440534D01*
X4704426Y4566033D01*
X4851996Y4664636D01*
X5015968Y4732556D01*
X5165268Y4762253D01*
X5190038Y4767180D01*
X5367522Y4767180D01*
X5392292Y4762253D01*
G37*
G36*
X5392292Y7302253D02*
G01*
X5541592Y7272556D01*
X5705564Y7204636D01*
X5853134Y7106033D01*
X5978633Y6980534D01*
X6077236Y6832964D01*
X6145156Y6668992D01*
X6179780Y6494921D01*
X6179780Y6317439D01*
X6145156Y6143368D01*
X6077236Y5979396D01*
X5978633Y5831826D01*
X5853134Y5706327D01*
X5705564Y5607724D01*
X5541592Y5539804D01*
X5392292Y5510107D01*
X5367522Y5505180D01*
X5190038Y5505180D01*
X5165268Y5510107D01*
X5015968Y5539804D01*
X4851996Y5607724D01*
X4704426Y5706327D01*
X4578927Y5831826D01*
X4480324Y5979396D01*
X4412404Y6143368D01*
X4377780Y6317439D01*
X4377780Y6494921D01*
X4412404Y6668992D01*
X4480324Y6832964D01*
X4578927Y6980534D01*
X4704426Y7106033D01*
X4851996Y7204636D01*
X5015968Y7272556D01*
X5165268Y7302253D01*
X5190038Y7307180D01*
X5367522Y7307180D01*
X5392292Y7302253D01*
G37*
G36*
X2852292Y7302253D02*
G01*
X3001592Y7272556D01*
X3165564Y7204636D01*
X3313134Y7106033D01*
X3438633Y6980534D01*
X3537236Y6832964D01*
X3605156Y6668992D01*
X3639780Y6494921D01*
X3639780Y6317439D01*
X3605156Y6143368D01*
X3537236Y5979396D01*
X3438633Y5831826D01*
X3313134Y5706327D01*
X3165564Y5607724D01*
X3001592Y5539804D01*
X2852292Y5510107D01*
X2827522Y5505180D01*
X2650038Y5505180D01*
X2625268Y5510107D01*
X2475968Y5539804D01*
X2311996Y5607724D01*
X2164426Y5706327D01*
X2038927Y5831826D01*
X1940324Y5979396D01*
X1872404Y6143368D01*
X1837780Y6317439D01*
X1837780Y6494921D01*
X1872404Y6668992D01*
X1940324Y6832964D01*
X2038927Y6980534D01*
X2164426Y7106033D01*
X2311996Y7204636D01*
X2475968Y7272556D01*
X2625268Y7302253D01*
X2650038Y7307180D01*
X2827522Y7307180D01*
X2852292Y7302253D01*
G37*
G36*
X42932292Y7302253D02*
G01*
X43081592Y7272556D01*
X43245564Y7204636D01*
X43393134Y7106033D01*
X43518633Y6980534D01*
X43617236Y6832964D01*
X43685156Y6668992D01*
X43719780Y6494921D01*
X43719780Y6317439D01*
X43685156Y6143368D01*
X43617236Y5979396D01*
X43518633Y5831826D01*
X43393134Y5706327D01*
X43245564Y5607724D01*
X43081592Y5539804D01*
X42932292Y5510107D01*
X42907522Y5505180D01*
X42730038Y5505180D01*
X42705268Y5510107D01*
X42555968Y5539804D01*
X42391996Y5607724D01*
X42244426Y5706327D01*
X42118927Y5831826D01*
X42020324Y5979396D01*
X41952404Y6143368D01*
X41917780Y6317439D01*
X41917780Y6494921D01*
X41952404Y6668992D01*
X42020324Y6832964D01*
X42118927Y6980534D01*
X42244426Y7106033D01*
X42391996Y7204636D01*
X42555968Y7272556D01*
X42705268Y7302253D01*
X42730038Y7307180D01*
X42907522Y7307180D01*
X42932292Y7302253D01*
G37*
G36*
X45472292Y7302253D02*
G01*
X45621592Y7272556D01*
X45785564Y7204636D01*
X45933134Y7106033D01*
X46058633Y6980534D01*
X46157236Y6832964D01*
X46225156Y6668992D01*
X46259780Y6494921D01*
X46259780Y6317439D01*
X46225156Y6143368D01*
X46157236Y5979396D01*
X46058633Y5831826D01*
X45933134Y5706327D01*
X45785564Y5607724D01*
X45621592Y5539804D01*
X45472292Y5510107D01*
X45447522Y5505180D01*
X45270038Y5505180D01*
X45245268Y5510107D01*
X45095968Y5539804D01*
X44931996Y5607724D01*
X44784426Y5706327D01*
X44658927Y5831826D01*
X44560324Y5979396D01*
X44492404Y6143368D01*
X44457780Y6317439D01*
X44457780Y6494921D01*
X44492404Y6668992D01*
X44560324Y6832964D01*
X44658927Y6980534D01*
X44784426Y7106033D01*
X44931996Y7204636D01*
X45095968Y7272556D01*
X45245268Y7302253D01*
X45270038Y7307180D01*
X45447522Y7307180D01*
X45472292Y7302253D01*
G37*
G36*
X2852292Y9842253D02*
G01*
X3001592Y9812556D01*
X3165564Y9744636D01*
X3313134Y9646033D01*
X3438633Y9520534D01*
X3537236Y9372964D01*
X3605156Y9208992D01*
X3639780Y9034921D01*
X3639780Y8857439D01*
X3605156Y8683368D01*
X3537236Y8519396D01*
X3438633Y8371826D01*
X3313134Y8246327D01*
X3165564Y8147724D01*
X3001592Y8079804D01*
X2852292Y8050107D01*
X2827522Y8045180D01*
X2650038Y8045180D01*
X2625268Y8050107D01*
X2475968Y8079804D01*
X2311996Y8147724D01*
X2164426Y8246327D01*
X2038927Y8371826D01*
X1940324Y8519396D01*
X1872404Y8683368D01*
X1837780Y8857439D01*
X1837780Y9034921D01*
X1872404Y9208992D01*
X1940324Y9372964D01*
X2038927Y9520534D01*
X2164426Y9646033D01*
X2311996Y9744636D01*
X2475968Y9812556D01*
X2625268Y9842253D01*
X2650038Y9847180D01*
X2827522Y9847180D01*
X2852292Y9842253D01*
G37*
G36*
X5392292Y9842253D02*
G01*
X5541592Y9812556D01*
X5705564Y9744636D01*
X5853134Y9646033D01*
X5978633Y9520534D01*
X6077236Y9372964D01*
X6145156Y9208992D01*
X6179780Y9034921D01*
X6179780Y8857439D01*
X6145156Y8683368D01*
X6077236Y8519396D01*
X5978633Y8371826D01*
X5853134Y8246327D01*
X5705564Y8147724D01*
X5541592Y8079804D01*
X5392292Y8050107D01*
X5367522Y8045180D01*
X5190038Y8045180D01*
X5165268Y8050107D01*
X5015968Y8079804D01*
X4851996Y8147724D01*
X4704426Y8246327D01*
X4578927Y8371826D01*
X4480324Y8519396D01*
X4412404Y8683368D01*
X4377780Y8857439D01*
X4377780Y9034921D01*
X4412404Y9208992D01*
X4480324Y9372964D01*
X4578927Y9520534D01*
X4704426Y9646033D01*
X4851996Y9744636D01*
X5015968Y9812556D01*
X5165268Y9842253D01*
X5190038Y9847180D01*
X5367522Y9847180D01*
X5392292Y9842253D01*
G37*
G36*
X45472292Y9842253D02*
G01*
X45621592Y9812556D01*
X45785564Y9744636D01*
X45933134Y9646033D01*
X46058633Y9520534D01*
X46157236Y9372964D01*
X46225156Y9208992D01*
X46259780Y9034921D01*
X46259780Y8857439D01*
X46225156Y8683368D01*
X46157236Y8519396D01*
X46058633Y8371826D01*
X45933134Y8246327D01*
X45785564Y8147724D01*
X45621592Y8079804D01*
X45472292Y8050107D01*
X45447522Y8045180D01*
X45270038Y8045180D01*
X45245268Y8050107D01*
X45095968Y8079804D01*
X44931996Y8147724D01*
X44784426Y8246327D01*
X44658927Y8371826D01*
X44560324Y8519396D01*
X44492404Y8683368D01*
X44457780Y8857439D01*
X44457780Y9034921D01*
X44492404Y9208992D01*
X44560324Y9372964D01*
X44658927Y9520534D01*
X44784426Y9646033D01*
X44931996Y9744636D01*
X45095968Y9812556D01*
X45245268Y9842253D01*
X45270038Y9847180D01*
X45447522Y9847180D01*
X45472292Y9842253D01*
G37*
G36*
X42932292Y9842253D02*
G01*
X43081592Y9812556D01*
X43245564Y9744636D01*
X43393134Y9646033D01*
X43518633Y9520534D01*
X43617236Y9372964D01*
X43685156Y9208992D01*
X43719780Y9034921D01*
X43719780Y8857439D01*
X43685156Y8683368D01*
X43617236Y8519396D01*
X43518633Y8371826D01*
X43393134Y8246327D01*
X43245564Y8147724D01*
X43081592Y8079804D01*
X42932292Y8050107D01*
X42907522Y8045180D01*
X42730038Y8045180D01*
X42705268Y8050107D01*
X42555968Y8079804D01*
X42391996Y8147724D01*
X42244426Y8246327D01*
X42118927Y8371826D01*
X42020324Y8519396D01*
X41952404Y8683368D01*
X41917780Y8857439D01*
X41917780Y9034921D01*
X41952404Y9208992D01*
X42020324Y9372964D01*
X42118927Y9520534D01*
X42244426Y9646033D01*
X42391996Y9744636D01*
X42555968Y9812556D01*
X42705268Y9842253D01*
X42730038Y9847180D01*
X42907522Y9847180D01*
X42932292Y9842253D01*
G37*
G36*
X5392292Y12382253D02*
G01*
X5541592Y12352556D01*
X5705564Y12284636D01*
X5853134Y12186033D01*
X5978633Y12060534D01*
X6077236Y11912964D01*
X6145156Y11748992D01*
X6179780Y11574921D01*
X6179780Y11397439D01*
X6145156Y11223368D01*
X6077236Y11059396D01*
X5978633Y10911826D01*
X5853134Y10786327D01*
X5705564Y10687724D01*
X5541592Y10619804D01*
X5392292Y10590107D01*
X5367522Y10585180D01*
X5190038Y10585180D01*
X5165268Y10590107D01*
X5015968Y10619804D01*
X4851996Y10687724D01*
X4704426Y10786327D01*
X4578927Y10911826D01*
X4480324Y11059396D01*
X4412404Y11223368D01*
X4377780Y11397439D01*
X4377780Y11574921D01*
X4412404Y11748992D01*
X4480324Y11912964D01*
X4578927Y12060534D01*
X4704426Y12186033D01*
X4851996Y12284636D01*
X5015968Y12352556D01*
X5165268Y12382253D01*
X5190038Y12387180D01*
X5367522Y12387180D01*
X5392292Y12382253D01*
G37*
G36*
X45472292Y12382253D02*
G01*
X45621592Y12352556D01*
X45785564Y12284636D01*
X45933134Y12186033D01*
X46058633Y12060534D01*
X46157236Y11912964D01*
X46225156Y11748992D01*
X46259780Y11574921D01*
X46259780Y11397439D01*
X46225156Y11223368D01*
X46157236Y11059396D01*
X46058633Y10911826D01*
X45933134Y10786327D01*
X45785564Y10687724D01*
X45621592Y10619804D01*
X45472292Y10590107D01*
X45447522Y10585180D01*
X45270038Y10585180D01*
X45245268Y10590107D01*
X45095968Y10619804D01*
X44931996Y10687724D01*
X44784426Y10786327D01*
X44658927Y10911826D01*
X44560324Y11059396D01*
X44492404Y11223368D01*
X44457780Y11397439D01*
X44457780Y11574921D01*
X44492404Y11748992D01*
X44560324Y11912964D01*
X44658927Y12060534D01*
X44784426Y12186033D01*
X44931996Y12284636D01*
X45095968Y12352556D01*
X45245268Y12382253D01*
X45270038Y12387180D01*
X45447522Y12387180D01*
X45472292Y12382253D01*
G37*
G36*
X2852292Y12382253D02*
G01*
X3001592Y12352556D01*
X3165564Y12284636D01*
X3313134Y12186033D01*
X3438633Y12060534D01*
X3537236Y11912964D01*
X3605156Y11748992D01*
X3639780Y11574921D01*
X3639780Y11397439D01*
X3605156Y11223368D01*
X3537236Y11059396D01*
X3438633Y10911826D01*
X3313134Y10786327D01*
X3165564Y10687724D01*
X3001592Y10619804D01*
X2852292Y10590107D01*
X2827522Y10585180D01*
X2650038Y10585180D01*
X2625268Y10590107D01*
X2475968Y10619804D01*
X2311996Y10687724D01*
X2164426Y10786327D01*
X2038927Y10911826D01*
X1940324Y11059396D01*
X1872404Y11223368D01*
X1837780Y11397439D01*
X1837780Y11574921D01*
X1872404Y11748992D01*
X1940324Y11912964D01*
X2038927Y12060534D01*
X2164426Y12186033D01*
X2311996Y12284636D01*
X2475968Y12352556D01*
X2625268Y12382253D01*
X2650038Y12387180D01*
X2827522Y12387180D01*
X2852292Y12382253D01*
G37*
G36*
X42932292Y12382253D02*
G01*
X43081592Y12352556D01*
X43245564Y12284636D01*
X43393134Y12186033D01*
X43518633Y12060534D01*
X43617236Y11912964D01*
X43685156Y11748992D01*
X43719780Y11574921D01*
X43719780Y11397439D01*
X43685156Y11223368D01*
X43617236Y11059396D01*
X43518633Y10911826D01*
X43393134Y10786327D01*
X43245564Y10687724D01*
X43081592Y10619804D01*
X42932292Y10590107D01*
X42907522Y10585180D01*
X42730038Y10585180D01*
X42705268Y10590107D01*
X42555968Y10619804D01*
X42391996Y10687724D01*
X42244426Y10786327D01*
X42118927Y10911826D01*
X42020324Y11059396D01*
X41952404Y11223368D01*
X41917780Y11397439D01*
X41917780Y11574921D01*
X41952404Y11748992D01*
X42020324Y11912964D01*
X42118927Y12060534D01*
X42244426Y12186033D01*
X42391996Y12284636D01*
X42555968Y12352556D01*
X42705268Y12382253D01*
X42730038Y12387180D01*
X42907522Y12387180D01*
X42932292Y12382253D01*
G37*
G36*
X2852292Y14922253D02*
G01*
X3001592Y14892556D01*
X3165564Y14824636D01*
X3313134Y14726033D01*
X3438633Y14600534D01*
X3537236Y14452964D01*
X3605156Y14288992D01*
X3639780Y14114921D01*
X3639780Y13937439D01*
X3605156Y13763368D01*
X3537236Y13599396D01*
X3438633Y13451826D01*
X3313134Y13326327D01*
X3165564Y13227724D01*
X3001592Y13159804D01*
X2852292Y13130107D01*
X2827522Y13125180D01*
X2650038Y13125180D01*
X2625268Y13130107D01*
X2475968Y13159804D01*
X2311996Y13227724D01*
X2164426Y13326327D01*
X2038927Y13451826D01*
X1940324Y13599396D01*
X1872404Y13763368D01*
X1837780Y13937439D01*
X1837780Y14114921D01*
X1872404Y14288992D01*
X1940324Y14452964D01*
X2038927Y14600534D01*
X2164426Y14726033D01*
X2311996Y14824636D01*
X2475968Y14892556D01*
X2625268Y14922253D01*
X2650038Y14927180D01*
X2827522Y14927180D01*
X2852292Y14922253D01*
G37*
G36*
X42932292Y14922253D02*
G01*
X43081592Y14892556D01*
X43245564Y14824636D01*
X43393134Y14726033D01*
X43518633Y14600534D01*
X43617236Y14452964D01*
X43685156Y14288992D01*
X43719780Y14114921D01*
X43719780Y13937439D01*
X43685156Y13763368D01*
X43617236Y13599396D01*
X43518633Y13451826D01*
X43393134Y13326327D01*
X43245564Y13227724D01*
X43081592Y13159804D01*
X42932292Y13130107D01*
X42907522Y13125180D01*
X42730038Y13125180D01*
X42705268Y13130107D01*
X42555968Y13159804D01*
X42391996Y13227724D01*
X42244426Y13326327D01*
X42118927Y13451826D01*
X42020324Y13599396D01*
X41952404Y13763368D01*
X41917780Y13937439D01*
X41917780Y14114921D01*
X41952404Y14288992D01*
X42020324Y14452964D01*
X42118927Y14600534D01*
X42244426Y14726033D01*
X42391996Y14824636D01*
X42555968Y14892556D01*
X42705268Y14922253D01*
X42730038Y14927180D01*
X42907522Y14927180D01*
X42932292Y14922253D01*
G37*
G36*
X5392292Y14922253D02*
G01*
X5541592Y14892556D01*
X5705564Y14824636D01*
X5853134Y14726033D01*
X5978633Y14600534D01*
X6077236Y14452964D01*
X6145156Y14288992D01*
X6179780Y14114921D01*
X6179780Y13937439D01*
X6145156Y13763368D01*
X6077236Y13599396D01*
X5978633Y13451826D01*
X5853134Y13326327D01*
X5705564Y13227724D01*
X5541592Y13159804D01*
X5392292Y13130107D01*
X5367522Y13125180D01*
X5190038Y13125180D01*
X5165268Y13130107D01*
X5015968Y13159804D01*
X4851996Y13227724D01*
X4704426Y13326327D01*
X4578927Y13451826D01*
X4480324Y13599396D01*
X4412404Y13763368D01*
X4377780Y13937439D01*
X4377780Y14114921D01*
X4412404Y14288992D01*
X4480324Y14452964D01*
X4578927Y14600534D01*
X4704426Y14726033D01*
X4851996Y14824636D01*
X5015968Y14892556D01*
X5165268Y14922253D01*
X5190038Y14927180D01*
X5367522Y14927180D01*
X5392292Y14922253D01*
G37*
G36*
X45472292Y14922253D02*
G01*
X45621592Y14892556D01*
X45785564Y14824636D01*
X45933134Y14726033D01*
X46058633Y14600534D01*
X46157236Y14452964D01*
X46225156Y14288992D01*
X46259780Y14114921D01*
X46259780Y13937439D01*
X46225156Y13763368D01*
X46157236Y13599396D01*
X46058633Y13451826D01*
X45933134Y13326327D01*
X45785564Y13227724D01*
X45621592Y13159804D01*
X45472292Y13130107D01*
X45447522Y13125180D01*
X45270038Y13125180D01*
X45245268Y13130107D01*
X45095968Y13159804D01*
X44931996Y13227724D01*
X44784426Y13326327D01*
X44658927Y13451826D01*
X44560324Y13599396D01*
X44492404Y13763368D01*
X44457780Y13937439D01*
X44457780Y14114921D01*
X44492404Y14288992D01*
X44560324Y14452964D01*
X44658927Y14600534D01*
X44784426Y14726033D01*
X44931996Y14824636D01*
X45095968Y14892556D01*
X45245268Y14922253D01*
X45270038Y14927180D01*
X45447522Y14927180D01*
X45472292Y14922253D01*
G37*
G36*
X42932292Y17462253D02*
G01*
X43081592Y17432556D01*
X43245564Y17364636D01*
X43393134Y17266033D01*
X43518633Y17140534D01*
X43617236Y16992964D01*
X43685156Y16828992D01*
X43719780Y16654921D01*
X43719780Y16477439D01*
X43685156Y16303368D01*
X43617236Y16139396D01*
X43518633Y15991826D01*
X43393134Y15866327D01*
X43245564Y15767724D01*
X43081592Y15699804D01*
X42932292Y15670107D01*
X42907522Y15665180D01*
X42730038Y15665180D01*
X42705268Y15670107D01*
X42555968Y15699804D01*
X42391996Y15767724D01*
X42244426Y15866327D01*
X42118927Y15991826D01*
X42020324Y16139396D01*
X41952404Y16303368D01*
X41917780Y16477439D01*
X41917780Y16654921D01*
X41952404Y16828992D01*
X42020324Y16992964D01*
X42118927Y17140534D01*
X42244426Y17266033D01*
X42391996Y17364636D01*
X42555968Y17432556D01*
X42705268Y17462253D01*
X42730038Y17467180D01*
X42907522Y17467180D01*
X42932292Y17462253D01*
G37*
G36*
X45472292Y17462253D02*
G01*
X45621592Y17432556D01*
X45785564Y17364636D01*
X45933134Y17266033D01*
X46058633Y17140534D01*
X46157236Y16992964D01*
X46225156Y16828992D01*
X46259780Y16654921D01*
X46259780Y16477439D01*
X46225156Y16303368D01*
X46157236Y16139396D01*
X46058633Y15991826D01*
X45933134Y15866327D01*
X45785564Y15767724D01*
X45621592Y15699804D01*
X45472292Y15670107D01*
X45447522Y15665180D01*
X45270038Y15665180D01*
X45245268Y15670107D01*
X45095968Y15699804D01*
X44931996Y15767724D01*
X44784426Y15866327D01*
X44658927Y15991826D01*
X44560324Y16139396D01*
X44492404Y16303368D01*
X44457780Y16477439D01*
X44457780Y16654921D01*
X44492404Y16828992D01*
X44560324Y16992964D01*
X44658927Y17140534D01*
X44784426Y17266033D01*
X44931996Y17364636D01*
X45095968Y17432556D01*
X45245268Y17462253D01*
X45270038Y17467180D01*
X45447522Y17467180D01*
X45472292Y17462253D01*
G37*
G36*
X2852292Y17462253D02*
G01*
X3001592Y17432556D01*
X3165564Y17364636D01*
X3313134Y17266033D01*
X3438633Y17140534D01*
X3537236Y16992964D01*
X3605156Y16828992D01*
X3639780Y16654921D01*
X3639780Y16477439D01*
X3605156Y16303368D01*
X3537236Y16139396D01*
X3438633Y15991826D01*
X3313134Y15866327D01*
X3165564Y15767724D01*
X3001592Y15699804D01*
X2852292Y15670107D01*
X2827522Y15665180D01*
X2650038Y15665180D01*
X2625268Y15670107D01*
X2475968Y15699804D01*
X2311996Y15767724D01*
X2164426Y15866327D01*
X2038927Y15991826D01*
X1940324Y16139396D01*
X1872404Y16303368D01*
X1837780Y16477439D01*
X1837780Y16654921D01*
X1872404Y16828992D01*
X1940324Y16992964D01*
X2038927Y17140534D01*
X2164426Y17266033D01*
X2311996Y17364636D01*
X2475968Y17432556D01*
X2625268Y17462253D01*
X2650038Y17467180D01*
X2827522Y17467180D01*
X2852292Y17462253D01*
G37*
G36*
X5392292Y17462253D02*
G01*
X5541592Y17432556D01*
X5705564Y17364636D01*
X5853134Y17266033D01*
X5978633Y17140534D01*
X6077236Y16992964D01*
X6145156Y16828992D01*
X6179780Y16654921D01*
X6179780Y16477439D01*
X6145156Y16303368D01*
X6077236Y16139396D01*
X5978633Y15991826D01*
X5853134Y15866327D01*
X5705564Y15767724D01*
X5541592Y15699804D01*
X5392292Y15670107D01*
X5367522Y15665180D01*
X5190038Y15665180D01*
X5165268Y15670107D01*
X5015968Y15699804D01*
X4851996Y15767724D01*
X4704426Y15866327D01*
X4578927Y15991826D01*
X4480324Y16139396D01*
X4412404Y16303368D01*
X4377780Y16477439D01*
X4377780Y16654921D01*
X4412404Y16828992D01*
X4480324Y16992964D01*
X4578927Y17140534D01*
X4704426Y17266033D01*
X4851996Y17364636D01*
X5015968Y17432556D01*
X5165268Y17462253D01*
X5190038Y17467180D01*
X5367522Y17467180D01*
X5392292Y17462253D01*
G37*
G36*
X29181214Y17687354D02*
G01*
X29181217Y17687353D01*
X29181216Y17687353D01*
X29226894Y17668433D01*
X29267998Y17640968D01*
X29268000Y17640966D01*
X29268003Y17640964D01*
X29302964Y17606003D01*
X29302966Y17606000D01*
X29302968Y17605998D01*
X29330433Y17564894D01*
X29330433Y17564893D01*
X29349354Y17519214D01*
X29359000Y17470721D01*
X29359000Y17421279D01*
X29349354Y17372786D01*
X29349353Y17372784D01*
X29330433Y17327106D01*
X29302968Y17286002D01*
X29302966Y17286000D01*
X29302964Y17285997D01*
X29268003Y17251036D01*
X29268000Y17251034D01*
X29267998Y17251032D01*
X29226894Y17223567D01*
X29194594Y17210188D01*
X29181214Y17204646D01*
X29132721Y17195000D01*
X29083279Y17195000D01*
X29034786Y17204646D01*
X29021406Y17210188D01*
X28989106Y17223567D01*
X28948002Y17251032D01*
X28948000Y17251034D01*
X28947997Y17251036D01*
X28913036Y17285997D01*
X28913034Y17286000D01*
X28913032Y17286002D01*
X28885567Y17327106D01*
X28866647Y17372784D01*
X28866646Y17372786D01*
X28857000Y17421279D01*
X28857000Y17470721D01*
X28866646Y17519214D01*
X28885567Y17564893D01*
X28885567Y17564894D01*
X28913032Y17605998D01*
X28913034Y17606000D01*
X28913036Y17606003D01*
X28947997Y17640964D01*
X28948000Y17640966D01*
X28948002Y17640968D01*
X28989106Y17668433D01*
X29034784Y17687353D01*
X29034783Y17687353D01*
X29034786Y17687354D01*
X29083279Y17697000D01*
X29132721Y17697000D01*
X29181214Y17687354D01*
G37*
G36*
X27911214Y17687354D02*
G01*
X27911217Y17687353D01*
X27911216Y17687353D01*
X27956894Y17668433D01*
X27997998Y17640968D01*
X27998000Y17640966D01*
X27998003Y17640964D01*
X28032964Y17606003D01*
X28032966Y17606000D01*
X28032968Y17605998D01*
X28060433Y17564894D01*
X28060433Y17564893D01*
X28079354Y17519214D01*
X28089000Y17470721D01*
X28089000Y17421279D01*
X28079354Y17372786D01*
X28079353Y17372784D01*
X28060433Y17327106D01*
X28032968Y17286002D01*
X28032966Y17286000D01*
X28032964Y17285997D01*
X27998003Y17251036D01*
X27998000Y17251034D01*
X27997998Y17251032D01*
X27956894Y17223567D01*
X27924594Y17210188D01*
X27911214Y17204646D01*
X27862721Y17195000D01*
X27813279Y17195000D01*
X27764786Y17204646D01*
X27751406Y17210188D01*
X27719106Y17223567D01*
X27678002Y17251032D01*
X27678000Y17251034D01*
X27677997Y17251036D01*
X27643036Y17285997D01*
X27643034Y17286000D01*
X27643032Y17286002D01*
X27615567Y17327106D01*
X27596647Y17372784D01*
X27596646Y17372786D01*
X27587000Y17421279D01*
X27587000Y17470721D01*
X27596646Y17519214D01*
X27615567Y17564893D01*
X27615567Y17564894D01*
X27643032Y17605998D01*
X27643034Y17606000D01*
X27643036Y17606003D01*
X27677997Y17640964D01*
X27678000Y17640966D01*
X27678002Y17640968D01*
X27719106Y17668433D01*
X27764784Y17687353D01*
X27764783Y17687353D01*
X27764786Y17687354D01*
X27813279Y17697000D01*
X27862721Y17697000D01*
X27911214Y17687354D01*
G37*
G36*
X26641214Y17687354D02*
G01*
X26641217Y17687353D01*
X26641216Y17687353D01*
X26686894Y17668433D01*
X26727998Y17640968D01*
X26728000Y17640966D01*
X26728003Y17640964D01*
X26762964Y17606003D01*
X26762966Y17606000D01*
X26762968Y17605998D01*
X26790433Y17564894D01*
X26790433Y17564893D01*
X26809354Y17519214D01*
X26819000Y17470721D01*
X26819000Y17421279D01*
X26809354Y17372786D01*
X26809353Y17372784D01*
X26790433Y17327106D01*
X26762968Y17286002D01*
X26762966Y17286000D01*
X26762964Y17285997D01*
X26728003Y17251036D01*
X26728000Y17251034D01*
X26727998Y17251032D01*
X26686894Y17223567D01*
X26654594Y17210188D01*
X26641214Y17204646D01*
X26592721Y17195000D01*
X26543279Y17195000D01*
X26494786Y17204646D01*
X26481406Y17210188D01*
X26449106Y17223567D01*
X26408002Y17251032D01*
X26408000Y17251034D01*
X26407997Y17251036D01*
X26373036Y17285997D01*
X26373034Y17286000D01*
X26373032Y17286002D01*
X26345567Y17327106D01*
X26326647Y17372784D01*
X26326646Y17372786D01*
X26317000Y17421279D01*
X26317000Y17470721D01*
X26326646Y17519214D01*
X26345567Y17564893D01*
X26345567Y17564894D01*
X26373032Y17605998D01*
X26373034Y17606000D01*
X26373036Y17606003D01*
X26407997Y17640964D01*
X26408000Y17640966D01*
X26408002Y17640968D01*
X26449106Y17668433D01*
X26494784Y17687353D01*
X26494783Y17687353D01*
X26494786Y17687354D01*
X26543279Y17697000D01*
X26592721Y17697000D01*
X26641214Y17687354D01*
G37*
G36*
X5392292Y20002253D02*
G01*
X5541592Y19972556D01*
X5705564Y19904636D01*
X5853134Y19806033D01*
X5978633Y19680534D01*
X6077236Y19532964D01*
X6145156Y19368992D01*
X6179780Y19194921D01*
X6179780Y19017439D01*
X6145156Y18843368D01*
X6077236Y18679396D01*
X5978633Y18531826D01*
X5853134Y18406327D01*
X5705564Y18307724D01*
X5541592Y18239804D01*
X5392292Y18210107D01*
X5367522Y18205180D01*
X5190038Y18205180D01*
X5165268Y18210107D01*
X5015968Y18239804D01*
X4851996Y18307724D01*
X4704426Y18406327D01*
X4578927Y18531826D01*
X4480324Y18679396D01*
X4412404Y18843368D01*
X4377780Y19017439D01*
X4377780Y19194921D01*
X4412404Y19368992D01*
X4480324Y19532964D01*
X4578927Y19680534D01*
X4704426Y19806033D01*
X4851996Y19904636D01*
X5015968Y19972556D01*
X5165268Y20002253D01*
X5190038Y20007180D01*
X5367522Y20007180D01*
X5392292Y20002253D01*
G37*
G36*
X45472292Y20002253D02*
G01*
X45621592Y19972556D01*
X45785564Y19904636D01*
X45933134Y19806033D01*
X46058633Y19680534D01*
X46157236Y19532964D01*
X46225156Y19368992D01*
X46259780Y19194921D01*
X46259780Y19017439D01*
X46225156Y18843368D01*
X46157236Y18679396D01*
X46058633Y18531826D01*
X45933134Y18406327D01*
X45785564Y18307724D01*
X45621592Y18239804D01*
X45472292Y18210107D01*
X45447522Y18205180D01*
X45270038Y18205180D01*
X45245268Y18210107D01*
X45095968Y18239804D01*
X44931996Y18307724D01*
X44784426Y18406327D01*
X44658927Y18531826D01*
X44560324Y18679396D01*
X44492404Y18843368D01*
X44457780Y19017439D01*
X44457780Y19194921D01*
X44492404Y19368992D01*
X44560324Y19532964D01*
X44658927Y19680534D01*
X44784426Y19806033D01*
X44931996Y19904636D01*
X45095968Y19972556D01*
X45245268Y20002253D01*
X45270038Y20007180D01*
X45447522Y20007180D01*
X45472292Y20002253D01*
G37*
G36*
X2852292Y20002253D02*
G01*
X3001592Y19972556D01*
X3165564Y19904636D01*
X3313134Y19806033D01*
X3438633Y19680534D01*
X3537236Y19532964D01*
X3605156Y19368992D01*
X3639780Y19194921D01*
X3639780Y19017439D01*
X3605156Y18843368D01*
X3537236Y18679396D01*
X3438633Y18531826D01*
X3313134Y18406327D01*
X3165564Y18307724D01*
X3001592Y18239804D01*
X2852292Y18210107D01*
X2827522Y18205180D01*
X2650038Y18205180D01*
X2625268Y18210107D01*
X2475968Y18239804D01*
X2311996Y18307724D01*
X2164426Y18406327D01*
X2038927Y18531826D01*
X1940324Y18679396D01*
X1872404Y18843368D01*
X1837780Y19017439D01*
X1837780Y19194921D01*
X1872404Y19368992D01*
X1940324Y19532964D01*
X2038927Y19680534D01*
X2164426Y19806033D01*
X2311996Y19904636D01*
X2475968Y19972556D01*
X2625268Y20002253D01*
X2650038Y20007180D01*
X2827522Y20007180D01*
X2852292Y20002253D01*
G37*
G36*
X42932292Y20002253D02*
G01*
X43081592Y19972556D01*
X43245564Y19904636D01*
X43393134Y19806033D01*
X43518633Y19680534D01*
X43617236Y19532964D01*
X43685156Y19368992D01*
X43719780Y19194921D01*
X43719780Y19017439D01*
X43685156Y18843368D01*
X43617236Y18679396D01*
X43518633Y18531826D01*
X43393134Y18406327D01*
X43245564Y18307724D01*
X43081592Y18239804D01*
X42932292Y18210107D01*
X42907522Y18205180D01*
X42730038Y18205180D01*
X42705268Y18210107D01*
X42555968Y18239804D01*
X42391996Y18307724D01*
X42244426Y18406327D01*
X42118927Y18531826D01*
X42020324Y18679396D01*
X41952404Y18843368D01*
X41917780Y19017439D01*
X41917780Y19194921D01*
X41952404Y19368992D01*
X42020324Y19532964D01*
X42118927Y19680534D01*
X42244426Y19806033D01*
X42391996Y19904636D01*
X42555968Y19972556D01*
X42705268Y20002253D01*
X42730038Y20007180D01*
X42907522Y20007180D01*
X42932292Y20002253D01*
G37*
G36*
X29181214Y18957354D02*
G01*
X29181217Y18957353D01*
X29181216Y18957353D01*
X29226894Y18938433D01*
X29267998Y18910968D01*
X29268000Y18910966D01*
X29268003Y18910964D01*
X29302964Y18876003D01*
X29302966Y18876000D01*
X29302968Y18875998D01*
X29330433Y18834894D01*
X29330433Y18834893D01*
X29349354Y18789214D01*
X29359000Y18740721D01*
X29359000Y18691279D01*
X29349354Y18642786D01*
X29349353Y18642784D01*
X29330433Y18597106D01*
X29302968Y18556002D01*
X29302966Y18556000D01*
X29302964Y18555997D01*
X29268003Y18521036D01*
X29268000Y18521034D01*
X29267998Y18521032D01*
X29226894Y18493567D01*
X29194594Y18480188D01*
X29181214Y18474646D01*
X29132721Y18465000D01*
X29083279Y18465000D01*
X29034786Y18474646D01*
X29021406Y18480188D01*
X28989106Y18493567D01*
X28948002Y18521032D01*
X28948000Y18521034D01*
X28947997Y18521036D01*
X28913036Y18555997D01*
X28913034Y18556000D01*
X28913032Y18556002D01*
X28885567Y18597106D01*
X28866647Y18642784D01*
X28866646Y18642786D01*
X28857000Y18691279D01*
X28857000Y18740721D01*
X28866646Y18789214D01*
X28885567Y18834893D01*
X28885567Y18834894D01*
X28913032Y18875998D01*
X28913034Y18876000D01*
X28913036Y18876003D01*
X28947997Y18910964D01*
X28948000Y18910966D01*
X28948002Y18910968D01*
X28989106Y18938433D01*
X29034784Y18957353D01*
X29034783Y18957353D01*
X29034786Y18957354D01*
X29083279Y18967000D01*
X29132721Y18967000D01*
X29181214Y18957354D01*
G37*
G36*
X27911214Y18957354D02*
G01*
X27911217Y18957353D01*
X27911216Y18957353D01*
X27956894Y18938433D01*
X27997998Y18910968D01*
X27998000Y18910966D01*
X27998003Y18910964D01*
X28032964Y18876003D01*
X28032966Y18876000D01*
X28032968Y18875998D01*
X28060433Y18834894D01*
X28060433Y18834893D01*
X28079354Y18789214D01*
X28089000Y18740721D01*
X28089000Y18691279D01*
X28079354Y18642786D01*
X28079353Y18642784D01*
X28060433Y18597106D01*
X28032968Y18556002D01*
X28032966Y18556000D01*
X28032964Y18555997D01*
X27998003Y18521036D01*
X27998000Y18521034D01*
X27997998Y18521032D01*
X27956894Y18493567D01*
X27924594Y18480188D01*
X27911214Y18474646D01*
X27862721Y18465000D01*
X27813279Y18465000D01*
X27764786Y18474646D01*
X27751406Y18480188D01*
X27719106Y18493567D01*
X27678002Y18521032D01*
X27678000Y18521034D01*
X27677997Y18521036D01*
X27643036Y18555997D01*
X27643034Y18556000D01*
X27643032Y18556002D01*
X27615567Y18597106D01*
X27596647Y18642784D01*
X27596646Y18642786D01*
X27587000Y18691279D01*
X27587000Y18740721D01*
X27596646Y18789214D01*
X27615567Y18834893D01*
X27615567Y18834894D01*
X27643032Y18875998D01*
X27643034Y18876000D01*
X27643036Y18876003D01*
X27677997Y18910964D01*
X27678000Y18910966D01*
X27678002Y18910968D01*
X27719106Y18938433D01*
X27764784Y18957353D01*
X27764783Y18957353D01*
X27764786Y18957354D01*
X27813279Y18967000D01*
X27862721Y18967000D01*
X27911214Y18957354D01*
G37*
G36*
X26641214Y18957354D02*
G01*
X26641217Y18957353D01*
X26641216Y18957353D01*
X26686894Y18938433D01*
X26727998Y18910968D01*
X26728000Y18910966D01*
X26728003Y18910964D01*
X26762964Y18876003D01*
X26762966Y18876000D01*
X26762968Y18875998D01*
X26790433Y18834894D01*
X26790433Y18834893D01*
X26809354Y18789214D01*
X26819000Y18740721D01*
X26819000Y18691279D01*
X26809354Y18642786D01*
X26809353Y18642784D01*
X26790433Y18597106D01*
X26762968Y18556002D01*
X26762966Y18556000D01*
X26762964Y18555997D01*
X26728003Y18521036D01*
X26728000Y18521034D01*
X26727998Y18521032D01*
X26686894Y18493567D01*
X26654594Y18480188D01*
X26641214Y18474646D01*
X26592721Y18465000D01*
X26543279Y18465000D01*
X26494786Y18474646D01*
X26481406Y18480188D01*
X26449106Y18493567D01*
X26408002Y18521032D01*
X26408000Y18521034D01*
X26407997Y18521036D01*
X26373036Y18555997D01*
X26373034Y18556000D01*
X26373032Y18556002D01*
X26345567Y18597106D01*
X26326647Y18642784D01*
X26326646Y18642786D01*
X26317000Y18691279D01*
X26317000Y18740721D01*
X26326646Y18789214D01*
X26345567Y18834893D01*
X26345567Y18834894D01*
X26373032Y18875998D01*
X26373034Y18876000D01*
X26373036Y18876003D01*
X26407997Y18910964D01*
X26408000Y18910966D01*
X26408002Y18910968D01*
X26449106Y18938433D01*
X26494784Y18957353D01*
X26494783Y18957353D01*
X26494786Y18957354D01*
X26543279Y18967000D01*
X26592721Y18967000D01*
X26641214Y18957354D01*
G37*
G36*
X29181214Y20227354D02*
G01*
X29181217Y20227353D01*
X29181216Y20227353D01*
X29226894Y20208433D01*
X29267998Y20180968D01*
X29268000Y20180966D01*
X29268003Y20180964D01*
X29302964Y20146003D01*
X29302966Y20146000D01*
X29302968Y20145998D01*
X29330433Y20104894D01*
X29330433Y20104893D01*
X29349354Y20059214D01*
X29359000Y20010721D01*
X29359000Y19961279D01*
X29349354Y19912786D01*
X29349353Y19912784D01*
X29330433Y19867106D01*
X29302968Y19826002D01*
X29302966Y19826000D01*
X29302964Y19825997D01*
X29268003Y19791036D01*
X29268000Y19791034D01*
X29267998Y19791032D01*
X29226894Y19763567D01*
X29194594Y19750188D01*
X29181214Y19744646D01*
X29132721Y19735000D01*
X29083279Y19735000D01*
X29034786Y19744646D01*
X29021406Y19750188D01*
X28989106Y19763567D01*
X28948002Y19791032D01*
X28948000Y19791034D01*
X28947997Y19791036D01*
X28913036Y19825997D01*
X28913034Y19826000D01*
X28913032Y19826002D01*
X28885567Y19867106D01*
X28866647Y19912784D01*
X28866646Y19912786D01*
X28857000Y19961279D01*
X28857000Y20010721D01*
X28866646Y20059214D01*
X28885567Y20104893D01*
X28885567Y20104894D01*
X28913032Y20145998D01*
X28913034Y20146000D01*
X28913036Y20146003D01*
X28947997Y20180964D01*
X28948000Y20180966D01*
X28948002Y20180968D01*
X28989106Y20208433D01*
X29034784Y20227353D01*
X29034783Y20227353D01*
X29034786Y20227354D01*
X29083279Y20237000D01*
X29132721Y20237000D01*
X29181214Y20227354D01*
G37*
G36*
X26641214Y20227354D02*
G01*
X26641217Y20227353D01*
X26641216Y20227353D01*
X26686894Y20208433D01*
X26727998Y20180968D01*
X26728000Y20180966D01*
X26728003Y20180964D01*
X26762964Y20146003D01*
X26762966Y20146000D01*
X26762968Y20145998D01*
X26790433Y20104894D01*
X26790433Y20104893D01*
X26809354Y20059214D01*
X26819000Y20010721D01*
X26819000Y19961279D01*
X26809354Y19912786D01*
X26809353Y19912784D01*
X26790433Y19867106D01*
X26762968Y19826002D01*
X26762966Y19826000D01*
X26762964Y19825997D01*
X26728003Y19791036D01*
X26728000Y19791034D01*
X26727998Y19791032D01*
X26686894Y19763567D01*
X26654594Y19750188D01*
X26641214Y19744646D01*
X26592721Y19735000D01*
X26543279Y19735000D01*
X26494786Y19744646D01*
X26481406Y19750188D01*
X26449106Y19763567D01*
X26408002Y19791032D01*
X26408000Y19791034D01*
X26407997Y19791036D01*
X26373036Y19825997D01*
X26373034Y19826000D01*
X26373032Y19826002D01*
X26345567Y19867106D01*
X26326647Y19912784D01*
X26326646Y19912786D01*
X26317000Y19961279D01*
X26317000Y20010721D01*
X26326646Y20059214D01*
X26345567Y20104893D01*
X26345567Y20104894D01*
X26373032Y20145998D01*
X26373034Y20146000D01*
X26373036Y20146003D01*
X26407997Y20180964D01*
X26408000Y20180966D01*
X26408002Y20180968D01*
X26449106Y20208433D01*
X26494784Y20227353D01*
X26494783Y20227353D01*
X26494786Y20227354D01*
X26543279Y20237000D01*
X26592721Y20237000D01*
X26641214Y20227354D01*
G37*
G36*
X27911214Y20227354D02*
G01*
X27911217Y20227353D01*
X27911216Y20227353D01*
X27956894Y20208433D01*
X27997998Y20180968D01*
X27998000Y20180966D01*
X27998003Y20180964D01*
X28032964Y20146003D01*
X28032966Y20146000D01*
X28032968Y20145998D01*
X28060433Y20104894D01*
X28060433Y20104893D01*
X28079354Y20059214D01*
X28089000Y20010721D01*
X28089000Y19961279D01*
X28079354Y19912786D01*
X28079353Y19912784D01*
X28060433Y19867106D01*
X28032968Y19826002D01*
X28032966Y19826000D01*
X28032964Y19825997D01*
X27998003Y19791036D01*
X27998000Y19791034D01*
X27997998Y19791032D01*
X27956894Y19763567D01*
X27924594Y19750188D01*
X27911214Y19744646D01*
X27862721Y19735000D01*
X27813279Y19735000D01*
X27764786Y19744646D01*
X27751406Y19750188D01*
X27719106Y19763567D01*
X27678002Y19791032D01*
X27678000Y19791034D01*
X27677997Y19791036D01*
X27643036Y19825997D01*
X27643034Y19826000D01*
X27643032Y19826002D01*
X27615567Y19867106D01*
X27596647Y19912784D01*
X27596646Y19912786D01*
X27587000Y19961279D01*
X27587000Y20010721D01*
X27596646Y20059214D01*
X27615567Y20104893D01*
X27615567Y20104894D01*
X27643032Y20145998D01*
X27643034Y20146000D01*
X27643036Y20146003D01*
X27677997Y20180964D01*
X27678000Y20180966D01*
X27678002Y20180968D01*
X27719106Y20208433D01*
X27764784Y20227353D01*
X27764783Y20227353D01*
X27764786Y20227354D01*
X27813279Y20237000D01*
X27862721Y20237000D01*
X27911214Y20227354D01*
G37*
G36*
X5392292Y22542253D02*
G01*
X5541592Y22512556D01*
X5705564Y22444636D01*
X5853134Y22346033D01*
X5978633Y22220534D01*
X6077236Y22072964D01*
X6145156Y21908992D01*
X6179780Y21734921D01*
X6179780Y21557439D01*
X6145156Y21383368D01*
X6077236Y21219396D01*
X5978633Y21071826D01*
X5853134Y20946327D01*
X5705564Y20847724D01*
X5541592Y20779804D01*
X5392292Y20750107D01*
X5367522Y20745180D01*
X5190038Y20745180D01*
X5165268Y20750107D01*
X5015968Y20779804D01*
X4851996Y20847724D01*
X4704426Y20946327D01*
X4578927Y21071826D01*
X4480324Y21219396D01*
X4412404Y21383368D01*
X4377780Y21557439D01*
X4377780Y21734921D01*
X4412404Y21908992D01*
X4480324Y22072964D01*
X4578927Y22220534D01*
X4704426Y22346033D01*
X4851996Y22444636D01*
X5015968Y22512556D01*
X5165268Y22542253D01*
X5190038Y22547180D01*
X5367522Y22547180D01*
X5392292Y22542253D01*
G37*
G36*
X42932292Y22542253D02*
G01*
X43081592Y22512556D01*
X43245564Y22444636D01*
X43393134Y22346033D01*
X43518633Y22220534D01*
X43617236Y22072964D01*
X43685156Y21908992D01*
X43719780Y21734921D01*
X43719780Y21557439D01*
X43685156Y21383368D01*
X43617236Y21219396D01*
X43518633Y21071826D01*
X43393134Y20946327D01*
X43245564Y20847724D01*
X43081592Y20779804D01*
X42932292Y20750107D01*
X42907522Y20745180D01*
X42730038Y20745180D01*
X42705268Y20750107D01*
X42555968Y20779804D01*
X42391996Y20847724D01*
X42244426Y20946327D01*
X42118927Y21071826D01*
X42020324Y21219396D01*
X41952404Y21383368D01*
X41917780Y21557439D01*
X41917780Y21734921D01*
X41952404Y21908992D01*
X42020324Y22072964D01*
X42118927Y22220534D01*
X42244426Y22346033D01*
X42391996Y22444636D01*
X42555968Y22512556D01*
X42705268Y22542253D01*
X42730038Y22547180D01*
X42907522Y22547180D01*
X42932292Y22542253D01*
G37*
G36*
X45472292Y22542253D02*
G01*
X45621592Y22512556D01*
X45785564Y22444636D01*
X45933134Y22346033D01*
X46058633Y22220534D01*
X46157236Y22072964D01*
X46225156Y21908992D01*
X46259780Y21734921D01*
X46259780Y21557439D01*
X46225156Y21383368D01*
X46157236Y21219396D01*
X46058633Y21071826D01*
X45933134Y20946327D01*
X45785564Y20847724D01*
X45621592Y20779804D01*
X45472292Y20750107D01*
X45447522Y20745180D01*
X45270038Y20745180D01*
X45245268Y20750107D01*
X45095968Y20779804D01*
X44931996Y20847724D01*
X44784426Y20946327D01*
X44658927Y21071826D01*
X44560324Y21219396D01*
X44492404Y21383368D01*
X44457780Y21557439D01*
X44457780Y21734921D01*
X44492404Y21908992D01*
X44560324Y22072964D01*
X44658927Y22220534D01*
X44784426Y22346033D01*
X44931996Y22444636D01*
X45095968Y22512556D01*
X45245268Y22542253D01*
X45270038Y22547180D01*
X45447522Y22547180D01*
X45472292Y22542253D01*
G37*
G36*
X2852292Y22542253D02*
G01*
X3001592Y22512556D01*
X3165564Y22444636D01*
X3313134Y22346033D01*
X3438633Y22220534D01*
X3537236Y22072964D01*
X3605156Y21908992D01*
X3639780Y21734921D01*
X3639780Y21557439D01*
X3605156Y21383368D01*
X3537236Y21219396D01*
X3438633Y21071826D01*
X3313134Y20946327D01*
X3165564Y20847724D01*
X3001592Y20779804D01*
X2852292Y20750107D01*
X2827522Y20745180D01*
X2650038Y20745180D01*
X2625268Y20750107D01*
X2475968Y20779804D01*
X2311996Y20847724D01*
X2164426Y20946327D01*
X2038927Y21071826D01*
X1940324Y21219396D01*
X1872404Y21383368D01*
X1837780Y21557439D01*
X1837780Y21734921D01*
X1872404Y21908992D01*
X1940324Y22072964D01*
X2038927Y22220534D01*
X2164426Y22346033D01*
X2311996Y22444636D01*
X2475968Y22512556D01*
X2625268Y22542253D01*
X2650038Y22547180D01*
X2827522Y22547180D01*
X2852292Y22542253D01*
G37*
G36*
X42932292Y25082253D02*
G01*
X43081592Y25052556D01*
X43245564Y24984636D01*
X43393134Y24886033D01*
X43518633Y24760534D01*
X43617236Y24612964D01*
X43685156Y24448992D01*
X43719780Y24274921D01*
X43719780Y24097439D01*
X43685156Y23923368D01*
X43617236Y23759396D01*
X43518633Y23611826D01*
X43393134Y23486327D01*
X43245564Y23387724D01*
X43081592Y23319804D01*
X42932292Y23290107D01*
X42907522Y23285180D01*
X42730038Y23285180D01*
X42705268Y23290107D01*
X42555968Y23319804D01*
X42391996Y23387724D01*
X42244426Y23486327D01*
X42118927Y23611826D01*
X42020324Y23759396D01*
X41952404Y23923368D01*
X41917780Y24097439D01*
X41917780Y24274921D01*
X41952404Y24448992D01*
X42020324Y24612964D01*
X42118927Y24760534D01*
X42244426Y24886033D01*
X42391996Y24984636D01*
X42555968Y25052556D01*
X42705268Y25082253D01*
X42730038Y25087180D01*
X42907522Y25087180D01*
X42932292Y25082253D01*
G37*
G36*
X45472292Y25082253D02*
G01*
X45621592Y25052556D01*
X45785564Y24984636D01*
X45933134Y24886033D01*
X46058633Y24760534D01*
X46157236Y24612964D01*
X46225156Y24448992D01*
X46259780Y24274921D01*
X46259780Y24097439D01*
X46225156Y23923368D01*
X46157236Y23759396D01*
X46058633Y23611826D01*
X45933134Y23486327D01*
X45785564Y23387724D01*
X45621592Y23319804D01*
X45472292Y23290107D01*
X45447522Y23285180D01*
X45270038Y23285180D01*
X45245268Y23290107D01*
X45095968Y23319804D01*
X44931996Y23387724D01*
X44784426Y23486327D01*
X44658927Y23611826D01*
X44560324Y23759396D01*
X44492404Y23923368D01*
X44457780Y24097439D01*
X44457780Y24274921D01*
X44492404Y24448992D01*
X44560324Y24612964D01*
X44658927Y24760534D01*
X44784426Y24886033D01*
X44931996Y24984636D01*
X45095968Y25052556D01*
X45245268Y25082253D01*
X45270038Y25087180D01*
X45447522Y25087180D01*
X45472292Y25082253D01*
G37*
G36*
X5392292Y25082253D02*
G01*
X5541592Y25052556D01*
X5705564Y24984636D01*
X5853134Y24886033D01*
X5978633Y24760534D01*
X6077236Y24612964D01*
X6145156Y24448992D01*
X6179780Y24274921D01*
X6179780Y24097439D01*
X6145156Y23923368D01*
X6077236Y23759396D01*
X5978633Y23611826D01*
X5853134Y23486327D01*
X5705564Y23387724D01*
X5541592Y23319804D01*
X5392292Y23290107D01*
X5367522Y23285180D01*
X5190038Y23285180D01*
X5165268Y23290107D01*
X5015968Y23319804D01*
X4851996Y23387724D01*
X4704426Y23486327D01*
X4578927Y23611826D01*
X4480324Y23759396D01*
X4412404Y23923368D01*
X4377780Y24097439D01*
X4377780Y24274921D01*
X4412404Y24448992D01*
X4480324Y24612964D01*
X4578927Y24760534D01*
X4704426Y24886033D01*
X4851996Y24984636D01*
X5015968Y25052556D01*
X5165268Y25082253D01*
X5190038Y25087180D01*
X5367522Y25087180D01*
X5392292Y25082253D01*
G37*
G36*
X2852292Y25082253D02*
G01*
X3001592Y25052556D01*
X3165564Y24984636D01*
X3313134Y24886033D01*
X3438633Y24760534D01*
X3537236Y24612964D01*
X3605156Y24448992D01*
X3639780Y24274921D01*
X3639780Y24097439D01*
X3605156Y23923368D01*
X3537236Y23759396D01*
X3438633Y23611826D01*
X3313134Y23486327D01*
X3165564Y23387724D01*
X3001592Y23319804D01*
X2852292Y23290107D01*
X2827522Y23285180D01*
X2650038Y23285180D01*
X2625268Y23290107D01*
X2475968Y23319804D01*
X2311996Y23387724D01*
X2164426Y23486327D01*
X2038927Y23611826D01*
X1940324Y23759396D01*
X1872404Y23923368D01*
X1837780Y24097439D01*
X1837780Y24274921D01*
X1872404Y24448992D01*
X1940324Y24612964D01*
X2038927Y24760534D01*
X2164426Y24886033D01*
X2311996Y24984636D01*
X2475968Y25052556D01*
X2625268Y25082253D01*
X2650038Y25087180D01*
X2827522Y25087180D01*
X2852292Y25082253D01*
G37*
G36*
X42932292Y27622253D02*
G01*
X43081592Y27592556D01*
X43245564Y27524636D01*
X43393134Y27426033D01*
X43518633Y27300534D01*
X43617236Y27152964D01*
X43685156Y26988992D01*
X43719780Y26814921D01*
X43719780Y26637439D01*
X43685156Y26463368D01*
X43617236Y26299396D01*
X43518633Y26151826D01*
X43393134Y26026327D01*
X43245564Y25927724D01*
X43081592Y25859804D01*
X42932292Y25830107D01*
X42907522Y25825180D01*
X42730038Y25825180D01*
X42705268Y25830107D01*
X42555968Y25859804D01*
X42391996Y25927724D01*
X42244426Y26026327D01*
X42118927Y26151826D01*
X42020324Y26299396D01*
X41952404Y26463368D01*
X41917780Y26637439D01*
X41917780Y26814921D01*
X41952404Y26988992D01*
X42020324Y27152964D01*
X42118927Y27300534D01*
X42244426Y27426033D01*
X42391996Y27524636D01*
X42555968Y27592556D01*
X42705268Y27622253D01*
X42730038Y27627180D01*
X42907522Y27627180D01*
X42932292Y27622253D01*
G37*
G36*
X2852292Y27622253D02*
G01*
X3001592Y27592556D01*
X3165564Y27524636D01*
X3313134Y27426033D01*
X3438633Y27300534D01*
X3537236Y27152964D01*
X3605156Y26988992D01*
X3639780Y26814921D01*
X3639780Y26637439D01*
X3605156Y26463368D01*
X3537236Y26299396D01*
X3438633Y26151826D01*
X3313134Y26026327D01*
X3165564Y25927724D01*
X3001592Y25859804D01*
X2852292Y25830107D01*
X2827522Y25825180D01*
X2650038Y25825180D01*
X2625268Y25830107D01*
X2475968Y25859804D01*
X2311996Y25927724D01*
X2164426Y26026327D01*
X2038927Y26151826D01*
X1940324Y26299396D01*
X1872404Y26463368D01*
X1837780Y26637439D01*
X1837780Y26814921D01*
X1872404Y26988992D01*
X1940324Y27152964D01*
X2038927Y27300534D01*
X2164426Y27426033D01*
X2311996Y27524636D01*
X2475968Y27592556D01*
X2625268Y27622253D01*
X2650038Y27627180D01*
X2827522Y27627180D01*
X2852292Y27622253D01*
G37*
G36*
X45472292Y27622253D02*
G01*
X45621592Y27592556D01*
X45785564Y27524636D01*
X45933134Y27426033D01*
X46058633Y27300534D01*
X46157236Y27152964D01*
X46225156Y26988992D01*
X46259780Y26814921D01*
X46259780Y26637439D01*
X46225156Y26463368D01*
X46157236Y26299396D01*
X46058633Y26151826D01*
X45933134Y26026327D01*
X45785564Y25927724D01*
X45621592Y25859804D01*
X45472292Y25830107D01*
X45447522Y25825180D01*
X45270038Y25825180D01*
X45245268Y25830107D01*
X45095968Y25859804D01*
X44931996Y25927724D01*
X44784426Y26026327D01*
X44658927Y26151826D01*
X44560324Y26299396D01*
X44492404Y26463368D01*
X44457780Y26637439D01*
X44457780Y26814921D01*
X44492404Y26988992D01*
X44560324Y27152964D01*
X44658927Y27300534D01*
X44784426Y27426033D01*
X44931996Y27524636D01*
X45095968Y27592556D01*
X45245268Y27622253D01*
X45270038Y27627180D01*
X45447522Y27627180D01*
X45472292Y27622253D01*
G37*
G36*
X5392292Y27622253D02*
G01*
X5541592Y27592556D01*
X5705564Y27524636D01*
X5853134Y27426033D01*
X5978633Y27300534D01*
X6077236Y27152964D01*
X6145156Y26988992D01*
X6179780Y26814921D01*
X6179780Y26637439D01*
X6145156Y26463368D01*
X6077236Y26299396D01*
X5978633Y26151826D01*
X5853134Y26026327D01*
X5705564Y25927724D01*
X5541592Y25859804D01*
X5392292Y25830107D01*
X5367522Y25825180D01*
X5190038Y25825180D01*
X5165268Y25830107D01*
X5015968Y25859804D01*
X4851996Y25927724D01*
X4704426Y26026327D01*
X4578927Y26151826D01*
X4480324Y26299396D01*
X4412404Y26463368D01*
X4377780Y26637439D01*
X4377780Y26814921D01*
X4412404Y26988992D01*
X4480324Y27152964D01*
X4578927Y27300534D01*
X4704426Y27426033D01*
X4851996Y27524636D01*
X5015968Y27592556D01*
X5165268Y27622253D01*
X5190038Y27627180D01*
X5367522Y27627180D01*
X5392292Y27622253D01*
G37*
G36*
X2852292Y30162253D02*
G01*
X3001592Y30132556D01*
X3165564Y30064636D01*
X3313134Y29966033D01*
X3438633Y29840534D01*
X3537236Y29692964D01*
X3605156Y29528992D01*
X3639780Y29354921D01*
X3639780Y29177439D01*
X3605156Y29003368D01*
X3537236Y28839396D01*
X3438633Y28691826D01*
X3313134Y28566327D01*
X3165564Y28467724D01*
X3001592Y28399804D01*
X2852292Y28370107D01*
X2827522Y28365180D01*
X2650038Y28365180D01*
X2625268Y28370107D01*
X2475968Y28399804D01*
X2311996Y28467724D01*
X2164426Y28566327D01*
X2038927Y28691826D01*
X1940324Y28839396D01*
X1872404Y29003368D01*
X1837780Y29177439D01*
X1837780Y29354921D01*
X1872404Y29528992D01*
X1940324Y29692964D01*
X2038927Y29840534D01*
X2164426Y29966033D01*
X2311996Y30064636D01*
X2475968Y30132556D01*
X2625268Y30162253D01*
X2650038Y30167180D01*
X2827522Y30167180D01*
X2852292Y30162253D01*
G37*
G36*
X5392292Y30162253D02*
G01*
X5541592Y30132556D01*
X5705564Y30064636D01*
X5853134Y29966033D01*
X5978633Y29840534D01*
X6077236Y29692964D01*
X6145156Y29528992D01*
X6179780Y29354921D01*
X6179780Y29177439D01*
X6145156Y29003368D01*
X6077236Y28839396D01*
X5978633Y28691826D01*
X5853134Y28566327D01*
X5705564Y28467724D01*
X5541592Y28399804D01*
X5392292Y28370107D01*
X5367522Y28365180D01*
X5190038Y28365180D01*
X5165268Y28370107D01*
X5015968Y28399804D01*
X4851996Y28467724D01*
X4704426Y28566327D01*
X4578927Y28691826D01*
X4480324Y28839396D01*
X4412404Y29003368D01*
X4377780Y29177439D01*
X4377780Y29354921D01*
X4412404Y29528992D01*
X4480324Y29692964D01*
X4578927Y29840534D01*
X4704426Y29966033D01*
X4851996Y30064636D01*
X5015968Y30132556D01*
X5165268Y30162253D01*
X5190038Y30167180D01*
X5367522Y30167180D01*
X5392292Y30162253D01*
G37*
G36*
X45472292Y30162253D02*
G01*
X45621592Y30132556D01*
X45785564Y30064636D01*
X45933134Y29966033D01*
X46058633Y29840534D01*
X46157236Y29692964D01*
X46225156Y29528992D01*
X46259780Y29354921D01*
X46259780Y29177439D01*
X46225156Y29003368D01*
X46157236Y28839396D01*
X46058633Y28691826D01*
X45933134Y28566327D01*
X45785564Y28467724D01*
X45621592Y28399804D01*
X45472292Y28370107D01*
X45447522Y28365180D01*
X45270038Y28365180D01*
X45245268Y28370107D01*
X45095968Y28399804D01*
X44931996Y28467724D01*
X44784426Y28566327D01*
X44658927Y28691826D01*
X44560324Y28839396D01*
X44492404Y29003368D01*
X44457780Y29177439D01*
X44457780Y29354921D01*
X44492404Y29528992D01*
X44560324Y29692964D01*
X44658927Y29840534D01*
X44784426Y29966033D01*
X44931996Y30064636D01*
X45095968Y30132556D01*
X45245268Y30162253D01*
X45270038Y30167180D01*
X45447522Y30167180D01*
X45472292Y30162253D01*
G37*
G36*
X42932292Y30162253D02*
G01*
X43081592Y30132556D01*
X43245564Y30064636D01*
X43393134Y29966033D01*
X43518633Y29840534D01*
X43617236Y29692964D01*
X43685156Y29528992D01*
X43719780Y29354921D01*
X43719780Y29177439D01*
X43685156Y29003368D01*
X43617236Y28839396D01*
X43518633Y28691826D01*
X43393134Y28566327D01*
X43245564Y28467724D01*
X43081592Y28399804D01*
X42932292Y28370107D01*
X42907522Y28365180D01*
X42730038Y28365180D01*
X42705268Y28370107D01*
X42555968Y28399804D01*
X42391996Y28467724D01*
X42244426Y28566327D01*
X42118927Y28691826D01*
X42020324Y28839396D01*
X41952404Y29003368D01*
X41917780Y29177439D01*
X41917780Y29354921D01*
X41952404Y29528992D01*
X42020324Y29692964D01*
X42118927Y29840534D01*
X42244426Y29966033D01*
X42391996Y30064636D01*
X42555968Y30132556D01*
X42705268Y30162253D01*
X42730038Y30167180D01*
X42907522Y30167180D01*
X42932292Y30162253D01*
G37*
G36*
X42932292Y32702253D02*
G01*
X43081592Y32672556D01*
X43245564Y32604636D01*
X43393134Y32506033D01*
X43518633Y32380534D01*
X43617236Y32232964D01*
X43685156Y32068992D01*
X43719780Y31894921D01*
X43719780Y31717439D01*
X43685156Y31543368D01*
X43617236Y31379396D01*
X43518633Y31231826D01*
X43393134Y31106327D01*
X43245564Y31007724D01*
X43081592Y30939804D01*
X42932292Y30910107D01*
X42907522Y30905180D01*
X42730038Y30905180D01*
X42705268Y30910107D01*
X42555968Y30939804D01*
X42391996Y31007724D01*
X42244426Y31106327D01*
X42118927Y31231826D01*
X42020324Y31379396D01*
X41952404Y31543368D01*
X41917780Y31717439D01*
X41917780Y31894921D01*
X41952404Y32068992D01*
X42020324Y32232964D01*
X42118927Y32380534D01*
X42244426Y32506033D01*
X42391996Y32604636D01*
X42555968Y32672556D01*
X42705268Y32702253D01*
X42730038Y32707180D01*
X42907522Y32707180D01*
X42932292Y32702253D01*
G37*
G36*
X5392292Y32702253D02*
G01*
X5541592Y32672556D01*
X5705564Y32604636D01*
X5853134Y32506033D01*
X5978633Y32380534D01*
X6077236Y32232964D01*
X6145156Y32068992D01*
X6179780Y31894921D01*
X6179780Y31717439D01*
X6145156Y31543368D01*
X6077236Y31379396D01*
X5978633Y31231826D01*
X5853134Y31106327D01*
X5705564Y31007724D01*
X5541592Y30939804D01*
X5392292Y30910107D01*
X5367522Y30905180D01*
X5190038Y30905180D01*
X5165268Y30910107D01*
X5015968Y30939804D01*
X4851996Y31007724D01*
X4704426Y31106327D01*
X4578927Y31231826D01*
X4480324Y31379396D01*
X4412404Y31543368D01*
X4377780Y31717439D01*
X4377780Y31894921D01*
X4412404Y32068992D01*
X4480324Y32232964D01*
X4578927Y32380534D01*
X4704426Y32506033D01*
X4851996Y32604636D01*
X5015968Y32672556D01*
X5165268Y32702253D01*
X5190038Y32707180D01*
X5367522Y32707180D01*
X5392292Y32702253D01*
G37*
G36*
X2852292Y32702253D02*
G01*
X3001592Y32672556D01*
X3165564Y32604636D01*
X3313134Y32506033D01*
X3438633Y32380534D01*
X3537236Y32232964D01*
X3605156Y32068992D01*
X3639780Y31894921D01*
X3639780Y31717439D01*
X3605156Y31543368D01*
X3537236Y31379396D01*
X3438633Y31231826D01*
X3313134Y31106327D01*
X3165564Y31007724D01*
X3001592Y30939804D01*
X2852292Y30910107D01*
X2827522Y30905180D01*
X2650038Y30905180D01*
X2625268Y30910107D01*
X2475968Y30939804D01*
X2311996Y31007724D01*
X2164426Y31106327D01*
X2038927Y31231826D01*
X1940324Y31379396D01*
X1872404Y31543368D01*
X1837780Y31717439D01*
X1837780Y31894921D01*
X1872404Y32068992D01*
X1940324Y32232964D01*
X2038927Y32380534D01*
X2164426Y32506033D01*
X2311996Y32604636D01*
X2475968Y32672556D01*
X2625268Y32702253D01*
X2650038Y32707180D01*
X2827522Y32707180D01*
X2852292Y32702253D01*
G37*
G36*
X45472292Y32702253D02*
G01*
X45621592Y32672556D01*
X45785564Y32604636D01*
X45933134Y32506033D01*
X46058633Y32380534D01*
X46157236Y32232964D01*
X46225156Y32068992D01*
X46259780Y31894921D01*
X46259780Y31717439D01*
X46225156Y31543368D01*
X46157236Y31379396D01*
X46058633Y31231826D01*
X45933134Y31106327D01*
X45785564Y31007724D01*
X45621592Y30939804D01*
X45472292Y30910107D01*
X45447522Y30905180D01*
X45270038Y30905180D01*
X45245268Y30910107D01*
X45095968Y30939804D01*
X44931996Y31007724D01*
X44784426Y31106327D01*
X44658927Y31231826D01*
X44560324Y31379396D01*
X44492404Y31543368D01*
X44457780Y31717439D01*
X44457780Y31894921D01*
X44492404Y32068992D01*
X44560324Y32232964D01*
X44658927Y32380534D01*
X44784426Y32506033D01*
X44931996Y32604636D01*
X45095968Y32672556D01*
X45245268Y32702253D01*
X45270038Y32707180D01*
X45447522Y32707180D01*
X45472292Y32702253D01*
G37*
M02*
