G04 #@! TF.GenerationSoftware,KiCad,Pcbnew,(5.1.5)-3*
G04 #@! TF.CreationDate,2021-07-21T14:46:52+02:00*
G04 #@! TF.ProjectId,sDrive1,73447269-7665-4312-9e6b-696361645f70,rev?*
G04 #@! TF.SameCoordinates,Original*
G04 #@! TF.FileFunction,Copper,L2,Bot*
G04 #@! TF.FilePolarity,Positive*
%FSLAX46Y46*%
G04 Gerber Fmt 4.6, Leading zero omitted, Abs format (unit mm)*
G04 Created by KiCad (PCBNEW (5.1.5)-3) date 2021-07-21 14:46:52*
%MOMM*%
%LPD*%
G04 APERTURE LIST*
%ADD10C,1.700000*%
%ADD11C,0.400000*%
%ADD12C,0.203200*%
%ADD13C,0.381000*%
%ADD14C,0.127000*%
G04 APERTURE END LIST*
D10*
X45358780Y31806180D03*
X2738780Y16566180D03*
X42818780Y26726180D03*
X45358780Y16566180D03*
X5278780Y19106180D03*
X2738780Y26726180D03*
X5278780Y24186180D03*
X42818780Y8946180D03*
X2738780Y6406180D03*
X45358780Y8946180D03*
X42818780Y14026180D03*
X42818780Y16566180D03*
X2738780Y24186180D03*
X5278780Y26726180D03*
X2738780Y8946180D03*
X5278780Y8946180D03*
X45358780Y24186180D03*
X42818780Y21646180D03*
X45358780Y21646180D03*
X5278780Y16566180D03*
X45358780Y26726180D03*
X42818780Y24186180D03*
X45358780Y14026180D03*
X5278780Y11486180D03*
X42818780Y6406180D03*
X2738780Y31806180D03*
X5278780Y31806180D03*
X45358780Y11486180D03*
X2738780Y14026180D03*
X42818780Y29266180D03*
X2738780Y3866180D03*
X45358780Y29266180D03*
X5278780Y29266180D03*
X2738780Y19106180D03*
X42818780Y19106180D03*
X5278780Y14026180D03*
X45358780Y19106180D03*
X2738780Y21646180D03*
X2738780Y29266180D03*
X42818780Y11486180D03*
X45358780Y6406180D03*
X2738780Y11486180D03*
X42818780Y31806180D03*
X42818780Y3866180D03*
X45358780Y3866180D03*
X5278780Y21646180D03*
X5278780Y3866180D03*
X5278780Y6406180D03*
D11*
X29108000Y19986000D03*
X29108000Y18716000D03*
X29108000Y17446000D03*
X27838000Y19986000D03*
X27838000Y18716000D03*
X27838000Y17446000D03*
X26568000Y19986000D03*
X26568000Y18716000D03*
X26568000Y17446000D03*
X20790000Y24310000D03*
X27330000Y23980000D03*
X27840000Y28060000D03*
X18640000Y24850000D03*
X25880000Y28230000D03*
X21450000Y25370000D03*
X26600000Y24030000D03*
X32280000Y16680000D03*
X32490000Y17430000D03*
X41160000Y17230000D03*
X31590000Y22000000D03*
X10500000Y23710000D03*
X31480000Y22960000D03*
X12370000Y23820000D03*
X30960000Y23540000D03*
X14660000Y23910000D03*
X25890000Y23850000D03*
X25390000Y23360000D03*
X24290000Y23070000D03*
X24770000Y22390000D03*
X21100000Y19170000D03*
X20530000Y18230000D03*
X22750000Y18350000D03*
X22620000Y17410000D03*
X21920000Y17140000D03*
X23650000Y16870000D03*
X14644000Y8584000D03*
X13114000Y8544000D03*
X10310000Y11140000D03*
X6930000Y2340000D03*
X10190000Y8510000D03*
X16140000Y8420000D03*
X40860000Y29630000D03*
X11614000Y8841450D03*
D12*
X26742842Y24850000D02*
X18640000Y24850000D01*
X27330000Y24262842D02*
X26742842Y24850000D01*
X27330000Y23980000D02*
X27330000Y24262842D01*
X27670000Y28230000D02*
X27840000Y28060000D01*
X25880000Y28230000D02*
X27670000Y28230000D01*
X17943590Y24850000D02*
X18640000Y24850000D01*
X8482600Y24850000D02*
X8482600Y24872600D01*
X17560000Y25233590D02*
X17943590Y24850000D01*
X5278780Y21646180D02*
X8482600Y24850000D01*
X8482600Y24872600D02*
X8843590Y25233590D01*
X8843590Y25233590D02*
X17560000Y25233590D01*
X6480861Y24186180D02*
X7934681Y25640000D01*
X5278780Y24186180D02*
X6480861Y24186180D01*
X7934681Y25640000D02*
X19050000Y25640000D01*
X19050000Y25640000D02*
X20870000Y25640000D01*
X20870000Y25640000D02*
X21180000Y25640000D01*
X21180000Y25640000D02*
X21450000Y25370000D01*
X21450000Y25370000D02*
X21450000Y25370000D01*
X29286409Y25038341D02*
X27192160Y27132590D01*
X29286410Y22851660D02*
X29286409Y25038341D01*
X28328341Y21893591D02*
X29286410Y22851660D01*
X26225199Y24354801D02*
X25637695Y24354801D01*
X26109304Y21893590D02*
X28328341Y21893591D01*
X7412370Y27132590D02*
X5278780Y29266180D01*
X24885199Y23117695D02*
X26109304Y21893590D01*
X27192160Y27132590D02*
X7412370Y27132590D01*
X24885199Y23602305D02*
X24885199Y23117695D01*
X26430000Y24150000D02*
X26225199Y24354801D01*
X25634801Y24354801D02*
X25240000Y23960000D01*
X26600000Y24030000D02*
X26275199Y24354801D01*
X26275199Y24354801D02*
X25634801Y24354801D01*
X25637695Y24354801D02*
X25240000Y23960000D01*
X25240000Y23960000D02*
X24885199Y23602305D01*
X37473820Y11486180D02*
X42818780Y11486180D01*
X32280000Y16680000D02*
X37473820Y11486180D01*
X44508781Y14876179D02*
X45358780Y14026180D01*
X32490000Y17430000D02*
X39890000Y17430000D01*
X41908621Y15411379D02*
X44028621Y15411379D01*
X39890000Y17430000D02*
X41908621Y15411379D01*
X44028621Y15411379D02*
X44560000Y14880000D01*
X44560000Y14880000D02*
X44508781Y14876179D01*
X41773494Y17230000D02*
X42483494Y17940000D01*
X41160000Y17230000D02*
X41773494Y17230000D01*
X42483494Y17940000D02*
X46140000Y17940000D01*
X46140000Y17940000D02*
X46790000Y17290000D01*
X46790000Y12917400D02*
X45358780Y11486180D01*
X46790000Y17290000D02*
X46790000Y12917400D01*
X14348046Y20674362D02*
X29684362Y20674362D01*
X10500000Y23710000D02*
X11312408Y23710000D01*
X11312408Y23710000D02*
X14348046Y20674362D01*
X31010000Y22000000D02*
X31590000Y22000000D01*
X29684362Y20674362D02*
X31010000Y22000000D01*
X24049728Y21080772D02*
X29150772Y21080772D01*
X22623319Y22507181D02*
X24049728Y21080772D01*
X29150772Y21080772D02*
X31030000Y22960000D01*
X12370000Y23820000D02*
X12370000Y23227158D01*
X18829999Y22507181D02*
X22623319Y22507181D01*
X13477158Y22120000D02*
X14330000Y22120000D01*
X31030000Y22960000D02*
X31480000Y22960000D01*
X12370000Y23227158D02*
X13477158Y22120000D01*
X14330000Y22120000D02*
X18426408Y22103590D01*
X18426408Y22103590D02*
X18829999Y22507181D01*
X24218068Y21487182D02*
X22791660Y22913590D01*
X28496680Y21487182D02*
X24218068Y21487182D01*
X30960000Y23540000D02*
X30549500Y23540000D01*
X30549500Y23540000D02*
X28496680Y21487182D01*
X22791660Y22913590D02*
X18661659Y22913591D01*
X18661659Y22913591D02*
X18258068Y22510000D01*
X18258068Y22510000D02*
X16000000Y22510000D01*
X16000000Y22510000D02*
X15560000Y22510000D01*
X15560000Y22510000D02*
X14660000Y23410000D01*
X14660000Y23410000D02*
X14660000Y23410000D01*
X14660000Y23410000D02*
X14660000Y23520000D01*
X14660000Y23520000D02*
X14660000Y23560000D01*
X14660000Y23520000D02*
X14660000Y23910000D01*
X7766341Y26046410D02*
X26343590Y26046410D01*
X7291310Y25571379D02*
X7766341Y26046410D01*
X2738780Y26726180D02*
X3893581Y25571379D01*
X3893581Y25571379D02*
X7291310Y25571379D01*
X26343590Y26046410D02*
X28110000Y24280000D01*
X28110000Y23210000D02*
X27606410Y22706410D01*
X28110000Y24280000D02*
X28110000Y23210000D01*
X27606410Y22706410D02*
X26618340Y22706410D01*
X25890000Y23434750D02*
X25890000Y23850000D01*
X26618340Y22706410D02*
X25890000Y23434750D01*
X5278780Y26726180D02*
X27023820Y26726180D01*
X27023820Y26726180D02*
X28880000Y24870000D01*
X28880000Y24870000D02*
X28880000Y23020000D01*
X28880000Y23020000D02*
X28160000Y22300000D01*
X26450000Y22300000D02*
X25390000Y23360000D01*
X28160000Y22300000D02*
X26450000Y22300000D01*
X18299304Y24443590D02*
X18982894Y23760000D01*
X17775250Y24443590D02*
X18299304Y24443590D01*
X17408840Y24810000D02*
X17775250Y24443590D01*
X2738780Y24186180D02*
X4123979Y22800981D01*
X4123979Y22800981D02*
X4123979Y20876021D01*
X23600000Y23760000D02*
X24290000Y23070000D01*
X8803590Y24463590D02*
X9167180Y24827180D01*
X16160000Y24810000D02*
X17408840Y24810000D01*
X4123979Y20876021D02*
X4530000Y20470000D01*
X7010000Y22650000D02*
X8803590Y24443590D01*
X4530000Y20470000D02*
X5970000Y20470000D01*
X5970000Y20470000D02*
X7010000Y21510000D01*
X18982894Y23760000D02*
X23600000Y23760000D01*
X7010000Y21510000D02*
X7010000Y22650000D01*
X8803590Y24443590D02*
X8803590Y24463590D01*
X9167180Y24827180D02*
X16142820Y24827180D01*
X16142820Y24827180D02*
X16160000Y24810000D01*
X1260000Y20167400D02*
X2738780Y21646180D01*
X2260000Y17830000D02*
X1260000Y18830000D01*
X6350000Y17800000D02*
X2260000Y17830000D01*
X7030000Y18480000D02*
X6350000Y17800000D01*
X1260000Y18830000D02*
X1260000Y20167400D01*
X7030000Y19730000D02*
X7030000Y18480000D01*
X18112820Y24037180D02*
X18830000Y23320000D01*
X22960000Y23320000D02*
X23900000Y22380000D01*
X18830000Y23320000D02*
X22960000Y23320000D01*
X24770000Y22390000D02*
X23900000Y22380000D01*
X7030000Y20955250D02*
X7416410Y21341660D01*
X7030000Y19730000D02*
X7030000Y20955250D01*
X7416410Y21341660D02*
X7416410Y22481660D01*
X7416410Y22481660D02*
X8971930Y24037180D01*
X9225249Y24275249D02*
X9370770Y24420770D01*
X8971930Y24037180D02*
X9209999Y24275249D01*
X9209999Y24275249D02*
X9225249Y24275249D01*
X15974480Y24420770D02*
X15991660Y24403590D01*
X9370770Y24420770D02*
X15974480Y24420770D01*
X17606910Y24037180D02*
X17992820Y24037180D01*
X17240500Y24403590D02*
X17606910Y24037180D01*
X15991660Y24403590D02*
X17240500Y24403590D01*
X17992820Y24037180D02*
X18112820Y24037180D01*
X5278780Y14026180D02*
X16026180Y14026180D01*
X16026180Y14026180D02*
X16026180Y14096180D01*
X20722894Y19170000D02*
X18700000Y17147106D01*
X21100000Y19170000D02*
X20722894Y19170000D01*
X18700000Y17147106D02*
X18700000Y16760000D01*
X16026180Y14096180D02*
X18700000Y16760000D01*
X8461379Y12871379D02*
X9209770Y13619770D01*
X2738780Y11486180D02*
X4123979Y12871379D01*
X4123979Y12871379D02*
X8461379Y12871379D01*
X9209770Y13619770D02*
X16194521Y13619771D01*
X20140001Y17580001D02*
X20340000Y17780000D01*
X20140001Y17565251D02*
X20140001Y17580001D01*
X16194521Y13619771D02*
X20140001Y17565251D01*
X20530000Y17947158D02*
X20530000Y18230000D01*
X20362842Y17780000D02*
X20530000Y17947158D01*
X20340000Y17780000D02*
X20362842Y17780000D01*
X21580000Y18350000D02*
X22750000Y18350000D01*
X16443362Y13213362D02*
X21580000Y18350000D01*
X9643362Y13213362D02*
X16443362Y13213362D01*
X5278780Y11486180D02*
X7916180Y11486180D01*
X7916180Y11486180D02*
X9643362Y13213362D01*
X4123979Y10331379D02*
X7336129Y10331379D01*
X2738780Y8946180D02*
X4123979Y10331379D01*
X7336129Y10331379D02*
X9811702Y12806952D01*
X9811702Y12806952D02*
X16611703Y12806953D01*
X16611703Y12806953D02*
X21464750Y17660000D01*
X22087158Y17660000D02*
X21464750Y17660000D01*
X22337158Y17410000D02*
X22087158Y17660000D01*
X22620000Y17410000D02*
X22337158Y17410000D01*
X5278780Y8946180D02*
X6525680Y8946180D01*
X9980044Y12400544D02*
X16780044Y12400544D01*
X6525680Y8946180D02*
X9980044Y12400544D01*
X16780044Y12400544D02*
X21519500Y17140000D01*
X21519500Y17140000D02*
X21920000Y17140000D01*
X2738780Y6406180D02*
X4112600Y7780000D01*
X5960000Y7780000D02*
X10174134Y11994134D01*
X4112600Y7780000D02*
X5960000Y7780000D01*
X16948385Y11994135D02*
X21344250Y16390000D01*
X10174134Y11994134D02*
X16948385Y11994135D01*
X21344250Y16390000D02*
X23090000Y16390000D01*
X23090000Y16390000D02*
X23650000Y16870000D01*
X23650000Y16870000D02*
X23660000Y16960000D01*
X2484001Y1885999D02*
X100000Y4270000D01*
X14644000Y8584000D02*
X7945999Y1885999D01*
X7945999Y1885999D02*
X2484001Y1885999D01*
X100000Y29167400D02*
X2738780Y31806180D01*
X100000Y4270000D02*
X100000Y29167400D01*
X13114000Y8544000D02*
X13114000Y9546000D01*
X12270000Y10390000D02*
X10062908Y10390000D01*
X13114000Y9546000D02*
X12270000Y10390000D01*
X6382781Y3336259D02*
X5526522Y2480000D01*
X6382781Y5091413D02*
X6382781Y3336259D01*
X6738391Y5447023D02*
X6382781Y5091413D01*
X10062908Y10390000D02*
X6738391Y7065483D01*
X6738391Y7065483D02*
X6738391Y5447023D01*
X2491038Y2480000D02*
X540000Y4431038D01*
X5526522Y2480000D02*
X2491038Y2480000D01*
X548780Y8528780D02*
X548780Y29028780D01*
X540000Y4431038D02*
X540000Y8520000D01*
X540000Y8520000D02*
X548780Y8528780D01*
X548780Y29028780D02*
X2070000Y30550000D01*
X4022600Y30550000D02*
X5278780Y31806180D01*
X2070000Y30550000D02*
X4022600Y30550000D01*
X10310000Y11140000D02*
X6382781Y7212781D01*
X6382781Y5876259D02*
X5616522Y5110000D01*
X6382781Y7212781D02*
X6382781Y5876259D01*
X5616522Y5110000D02*
X2140000Y5110000D01*
X904390Y27431790D02*
X1888781Y28416181D01*
X904390Y6345610D02*
X904390Y27431790D01*
X1888781Y28416181D02*
X2738780Y29266180D01*
X2140000Y5110000D02*
X904390Y6345610D01*
D13*
X6930000Y2340000D02*
X6930000Y5010000D01*
X9250000Y7330000D02*
X9250000Y7570000D01*
X6930000Y5010000D02*
X9250000Y7330000D01*
X9250000Y7570000D02*
X10190000Y8510000D01*
X10190000Y8510000D02*
X10190000Y8510000D01*
X16140000Y8420000D02*
X17330000Y9610000D01*
X17330000Y9610000D02*
X17740000Y10020000D01*
X17740000Y10020000D02*
X17740000Y12157118D01*
X21528372Y15945490D02*
X23385490Y15945490D01*
X17740000Y12157118D02*
X21528372Y15945490D01*
X23528984Y15945490D02*
X23574474Y15900000D01*
X23385490Y15945490D02*
X23528984Y15945490D01*
X23574474Y15900000D02*
X28990000Y15900000D01*
X28990000Y15900000D02*
X32380000Y19290000D01*
X32380000Y19290000D02*
X37730000Y19290000D01*
X37730000Y19290000D02*
X40860000Y22420000D01*
X40860000Y22420000D02*
X40860000Y29630000D01*
X40860000Y29630000D02*
X40860000Y29630000D01*
D14*
G36*
X47080645Y36420456D02*
G01*
X47600696Y36263444D01*
X48080349Y36008408D01*
X48501325Y35665067D01*
X48847600Y35246492D01*
X49105976Y34768636D01*
X49266616Y34249693D01*
X49324466Y33699275D01*
X49324501Y33689249D01*
X49324500Y2700545D01*
X49270456Y2149355D01*
X49113444Y1629304D01*
X48858409Y1149654D01*
X48515070Y728677D01*
X48096492Y382400D01*
X47618640Y124027D01*
X47099694Y-36616D01*
X46549283Y-94466D01*
X46539536Y-94500D01*
X2550545Y-94500D01*
X1999355Y-40456D01*
X1479304Y116556D01*
X999654Y371591D01*
X578677Y714930D01*
X232400Y1133508D01*
X-25973Y1611360D01*
X-186616Y2130306D01*
X-244466Y2680717D01*
X-244500Y2690464D01*
X-244500Y29167400D01*
X-219036Y29167400D01*
X-217499Y29151794D01*
X-217500Y4285596D01*
X-219036Y4270000D01*
X-217500Y4254405D01*
X-212906Y4207760D01*
X-194751Y4147911D01*
X-165269Y4092754D01*
X-125593Y4044407D01*
X-113470Y4034458D01*
X2248464Y1672523D01*
X2258408Y1660406D01*
X2273574Y1647960D01*
X2306754Y1620730D01*
X2361911Y1591248D01*
X2421760Y1573093D01*
X2484001Y1566962D01*
X2499604Y1568499D01*
X7930403Y1568499D01*
X7945999Y1566963D01*
X7961595Y1568499D01*
X8008240Y1573093D01*
X8068089Y1591248D01*
X8123246Y1620730D01*
X8171592Y1660406D01*
X8181541Y1672529D01*
X10480174Y3971162D01*
X41752880Y3971162D01*
X41752880Y3761198D01*
X41793842Y3555269D01*
X41874192Y3361287D01*
X41990842Y3186709D01*
X42139309Y3038242D01*
X42313887Y2921592D01*
X42507869Y2841242D01*
X42713798Y2800280D01*
X42923762Y2800280D01*
X43129691Y2841242D01*
X43323673Y2921592D01*
X43498251Y3038242D01*
X43646718Y3186709D01*
X43763368Y3361287D01*
X43843718Y3555269D01*
X43884680Y3761198D01*
X43884680Y3971162D01*
X44292880Y3971162D01*
X44292880Y3761198D01*
X44333842Y3555269D01*
X44414192Y3361287D01*
X44530842Y3186709D01*
X44679309Y3038242D01*
X44853887Y2921592D01*
X45047869Y2841242D01*
X45253798Y2800280D01*
X45463762Y2800280D01*
X45669691Y2841242D01*
X45863673Y2921592D01*
X46038251Y3038242D01*
X46186718Y3186709D01*
X46303368Y3361287D01*
X46383718Y3555269D01*
X46424680Y3761198D01*
X46424680Y3971162D01*
X46383718Y4177091D01*
X46303368Y4371073D01*
X46186718Y4545651D01*
X46038251Y4694118D01*
X45863673Y4810768D01*
X45669691Y4891118D01*
X45463762Y4932080D01*
X45253798Y4932080D01*
X45047869Y4891118D01*
X44853887Y4810768D01*
X44679309Y4694118D01*
X44530842Y4545651D01*
X44414192Y4371073D01*
X44333842Y4177091D01*
X44292880Y3971162D01*
X43884680Y3971162D01*
X43843718Y4177091D01*
X43763368Y4371073D01*
X43646718Y4545651D01*
X43498251Y4694118D01*
X43323673Y4810768D01*
X43129691Y4891118D01*
X42923762Y4932080D01*
X42713798Y4932080D01*
X42507869Y4891118D01*
X42313887Y4810768D01*
X42139309Y4694118D01*
X41990842Y4545651D01*
X41874192Y4371073D01*
X41793842Y4177091D01*
X41752880Y3971162D01*
X10480174Y3971162D01*
X13020174Y6511162D01*
X41752880Y6511162D01*
X41752880Y6301198D01*
X41793842Y6095269D01*
X41874192Y5901287D01*
X41990842Y5726709D01*
X42139309Y5578242D01*
X42313887Y5461592D01*
X42507869Y5381242D01*
X42713798Y5340280D01*
X42923762Y5340280D01*
X43129691Y5381242D01*
X43323673Y5461592D01*
X43498251Y5578242D01*
X43646718Y5726709D01*
X43763368Y5901287D01*
X43843718Y6095269D01*
X43884680Y6301198D01*
X43884680Y6511162D01*
X44292880Y6511162D01*
X44292880Y6301198D01*
X44333842Y6095269D01*
X44414192Y5901287D01*
X44530842Y5726709D01*
X44679309Y5578242D01*
X44853887Y5461592D01*
X45047869Y5381242D01*
X45253798Y5340280D01*
X45463762Y5340280D01*
X45669691Y5381242D01*
X45863673Y5461592D01*
X46038251Y5578242D01*
X46186718Y5726709D01*
X46303368Y5901287D01*
X46383718Y6095269D01*
X46424680Y6301198D01*
X46424680Y6511162D01*
X46383718Y6717091D01*
X46303368Y6911073D01*
X46186718Y7085651D01*
X46038251Y7234118D01*
X45863673Y7350768D01*
X45669691Y7431118D01*
X45463762Y7472080D01*
X45253798Y7472080D01*
X45047869Y7431118D01*
X44853887Y7350768D01*
X44679309Y7234118D01*
X44530842Y7085651D01*
X44414192Y6911073D01*
X44333842Y6717091D01*
X44292880Y6511162D01*
X43884680Y6511162D01*
X43843718Y6717091D01*
X43763368Y6911073D01*
X43646718Y7085651D01*
X43498251Y7234118D01*
X43323673Y7350768D01*
X43129691Y7431118D01*
X42923762Y7472080D01*
X42713798Y7472080D01*
X42507869Y7431118D01*
X42313887Y7350768D01*
X42139309Y7234118D01*
X41990842Y7085651D01*
X41874192Y6911073D01*
X41793842Y6717091D01*
X41752880Y6511162D01*
X13020174Y6511162D01*
X14677113Y8168100D01*
X14684963Y8168100D01*
X14765313Y8184083D01*
X14841002Y8215435D01*
X14909121Y8260950D01*
X14967050Y8318879D01*
X15012565Y8386998D01*
X15043917Y8462687D01*
X15059900Y8543037D01*
X15059900Y8624963D01*
X15043917Y8705313D01*
X15012565Y8781002D01*
X14967050Y8849121D01*
X14909121Y8907050D01*
X14841002Y8952565D01*
X14765313Y8983917D01*
X14684963Y8999900D01*
X14603037Y8999900D01*
X14522687Y8983917D01*
X14446998Y8952565D01*
X14378879Y8907050D01*
X14320950Y8849121D01*
X14275435Y8781002D01*
X14244083Y8705313D01*
X14228100Y8624963D01*
X14228100Y8617113D01*
X7814487Y2203499D01*
X7323626Y2203499D01*
X7329917Y2218687D01*
X7345900Y2299037D01*
X7345900Y2380963D01*
X7336400Y2428722D01*
X7336400Y4841664D01*
X9523255Y7028519D01*
X9538758Y7041242D01*
X9589544Y7103124D01*
X9627281Y7173725D01*
X9650519Y7250332D01*
X9656400Y7310040D01*
X9656400Y7310046D01*
X9658365Y7329999D01*
X9656400Y7349952D01*
X9656400Y7401664D01*
X10414636Y8159899D01*
X10455121Y8186950D01*
X10513050Y8244879D01*
X10558565Y8312998D01*
X10589917Y8388687D01*
X10605900Y8469037D01*
X10605900Y8550963D01*
X10589917Y8631313D01*
X10558565Y8707002D01*
X10513050Y8775121D01*
X10455121Y8833050D01*
X10387002Y8878565D01*
X10377713Y8882413D01*
X11198100Y8882413D01*
X11198100Y8800487D01*
X11214083Y8720137D01*
X11245435Y8644448D01*
X11290950Y8576329D01*
X11348879Y8518400D01*
X11416998Y8472885D01*
X11492687Y8441533D01*
X11573037Y8425550D01*
X11654963Y8425550D01*
X11735313Y8441533D01*
X11811002Y8472885D01*
X11879121Y8518400D01*
X11937050Y8576329D01*
X11982565Y8644448D01*
X12013917Y8720137D01*
X12029900Y8800487D01*
X12029900Y8882413D01*
X12013917Y8962763D01*
X11982565Y9038452D01*
X11937050Y9106571D01*
X11879121Y9164500D01*
X11811002Y9210015D01*
X11735313Y9241367D01*
X11654963Y9257350D01*
X11573037Y9257350D01*
X11492687Y9241367D01*
X11416998Y9210015D01*
X11348879Y9164500D01*
X11290950Y9106571D01*
X11245435Y9038452D01*
X11214083Y8962763D01*
X11198100Y8882413D01*
X10377713Y8882413D01*
X10311313Y8909917D01*
X10230963Y8925900D01*
X10149037Y8925900D01*
X10068687Y8909917D01*
X9992998Y8878565D01*
X9924879Y8833050D01*
X9866950Y8775121D01*
X9839899Y8734636D01*
X8976741Y7871477D01*
X8961243Y7858758D01*
X8948522Y7843258D01*
X8948518Y7843254D01*
X8937348Y7829643D01*
X8910456Y7796876D01*
X8872719Y7726275D01*
X8849481Y7649668D01*
X8843600Y7589960D01*
X8843600Y7589953D01*
X8841635Y7570000D01*
X8843600Y7550047D01*
X8843600Y7498336D01*
X7055891Y5710627D01*
X7055891Y6933971D01*
X10194421Y10072500D01*
X12138488Y10072500D01*
X12796501Y9414486D01*
X12796500Y8814671D01*
X12790950Y8809121D01*
X12745435Y8741002D01*
X12714083Y8665313D01*
X12698100Y8584963D01*
X12698100Y8503037D01*
X12714083Y8422687D01*
X12745435Y8346998D01*
X12790950Y8278879D01*
X12848879Y8220950D01*
X12916998Y8175435D01*
X12992687Y8144083D01*
X13073037Y8128100D01*
X13154963Y8128100D01*
X13235313Y8144083D01*
X13311002Y8175435D01*
X13379121Y8220950D01*
X13437050Y8278879D01*
X13482565Y8346998D01*
X13513917Y8422687D01*
X13529900Y8503037D01*
X13529900Y8584963D01*
X13513917Y8665313D01*
X13482565Y8741002D01*
X13437050Y8809121D01*
X13431500Y8814671D01*
X13431500Y9530408D01*
X13433036Y9546001D01*
X13431500Y9561596D01*
X13426906Y9608241D01*
X13408751Y9668090D01*
X13379269Y9723247D01*
X13339593Y9771593D01*
X13327476Y9781537D01*
X12505542Y10603470D01*
X12495593Y10615593D01*
X12447247Y10655269D01*
X12392090Y10684751D01*
X12332241Y10702906D01*
X12285596Y10707500D01*
X12270000Y10709036D01*
X12254404Y10707500D01*
X10326513Y10707500D01*
X10343113Y10724100D01*
X10350963Y10724100D01*
X10431313Y10740083D01*
X10507002Y10771435D01*
X10575121Y10816950D01*
X10633050Y10874879D01*
X10678565Y10942998D01*
X10709917Y11018687D01*
X10725900Y11099037D01*
X10725900Y11180963D01*
X10709917Y11261313D01*
X10678565Y11337002D01*
X10633050Y11405121D01*
X10575121Y11463050D01*
X10507002Y11508565D01*
X10431313Y11539917D01*
X10350963Y11555900D01*
X10269037Y11555900D01*
X10188687Y11539917D01*
X10154959Y11525946D01*
X10305647Y11676634D01*
X16932779Y11676636D01*
X16948385Y11675099D01*
X17010625Y11681229D01*
X17070474Y11699384D01*
X17096149Y11713108D01*
X17125632Y11728867D01*
X17173978Y11768543D01*
X17183922Y11780660D01*
X17333601Y11930339D01*
X17333600Y10188337D01*
X17056745Y9911481D01*
X15915366Y8770102D01*
X15874879Y8743050D01*
X15816950Y8685121D01*
X15771435Y8617002D01*
X15740083Y8541313D01*
X15724100Y8460963D01*
X15724100Y8379037D01*
X15740083Y8298687D01*
X15771435Y8222998D01*
X15816950Y8154879D01*
X15874879Y8096950D01*
X15942998Y8051435D01*
X16018687Y8020083D01*
X16099037Y8004100D01*
X16180963Y8004100D01*
X16261313Y8020083D01*
X16337002Y8051435D01*
X16405121Y8096950D01*
X16463050Y8154879D01*
X16490102Y8195366D01*
X17345898Y9051162D01*
X41752880Y9051162D01*
X41752880Y8841198D01*
X41793842Y8635269D01*
X41874192Y8441287D01*
X41990842Y8266709D01*
X42139309Y8118242D01*
X42313887Y8001592D01*
X42507869Y7921242D01*
X42713798Y7880280D01*
X42923762Y7880280D01*
X43129691Y7921242D01*
X43323673Y8001592D01*
X43498251Y8118242D01*
X43646718Y8266709D01*
X43763368Y8441287D01*
X43843718Y8635269D01*
X43884680Y8841198D01*
X43884680Y9051162D01*
X44292880Y9051162D01*
X44292880Y8841198D01*
X44333842Y8635269D01*
X44414192Y8441287D01*
X44530842Y8266709D01*
X44679309Y8118242D01*
X44853887Y8001592D01*
X45047869Y7921242D01*
X45253798Y7880280D01*
X45463762Y7880280D01*
X45669691Y7921242D01*
X45863673Y8001592D01*
X46038251Y8118242D01*
X46186718Y8266709D01*
X46303368Y8441287D01*
X46383718Y8635269D01*
X46424680Y8841198D01*
X46424680Y9051162D01*
X46383718Y9257091D01*
X46303368Y9451073D01*
X46186718Y9625651D01*
X46038251Y9774118D01*
X45863673Y9890768D01*
X45669691Y9971118D01*
X45463762Y10012080D01*
X45253798Y10012080D01*
X45047869Y9971118D01*
X44853887Y9890768D01*
X44679309Y9774118D01*
X44530842Y9625651D01*
X44414192Y9451073D01*
X44333842Y9257091D01*
X44292880Y9051162D01*
X43884680Y9051162D01*
X43843718Y9257091D01*
X43763368Y9451073D01*
X43646718Y9625651D01*
X43498251Y9774118D01*
X43323673Y9890768D01*
X43129691Y9971118D01*
X42923762Y10012080D01*
X42713798Y10012080D01*
X42507869Y9971118D01*
X42313887Y9890768D01*
X42139309Y9774118D01*
X41990842Y9625651D01*
X41874192Y9451073D01*
X41793842Y9257091D01*
X41752880Y9051162D01*
X17345898Y9051162D01*
X17631481Y9336745D01*
X18013260Y9718523D01*
X18028758Y9731242D01*
X18041477Y9746740D01*
X18041482Y9746745D01*
X18063946Y9774118D01*
X18079544Y9793124D01*
X18117281Y9863725D01*
X18140519Y9940332D01*
X18146400Y10000040D01*
X18146400Y10000047D01*
X18148365Y10020000D01*
X18146400Y10039953D01*
X18146400Y11988782D01*
X21696709Y15539090D01*
X23387571Y15539090D01*
X23418199Y15522719D01*
X23494806Y15499481D01*
X23554514Y15493600D01*
X23554521Y15493600D01*
X23574474Y15491635D01*
X23594427Y15493600D01*
X28970047Y15493600D01*
X28990000Y15491635D01*
X29009953Y15493600D01*
X29009960Y15493600D01*
X29069668Y15499481D01*
X29146275Y15522719D01*
X29216876Y15560456D01*
X29278758Y15611242D01*
X29291482Y15626746D01*
X30385699Y16720963D01*
X31864100Y16720963D01*
X31864100Y16639037D01*
X31880083Y16558687D01*
X31911435Y16482998D01*
X31956950Y16414879D01*
X32014879Y16356950D01*
X32082998Y16311435D01*
X32158687Y16280083D01*
X32239037Y16264100D01*
X32246888Y16264100D01*
X37238283Y11272704D01*
X37248227Y11260587D01*
X37296572Y11220912D01*
X37296573Y11220911D01*
X37351730Y11191429D01*
X37411579Y11173274D01*
X37473820Y11167144D01*
X37489416Y11168680D01*
X41796571Y11168680D01*
X41874192Y10981287D01*
X41990842Y10806709D01*
X42139309Y10658242D01*
X42313887Y10541592D01*
X42507869Y10461242D01*
X42713798Y10420280D01*
X42923762Y10420280D01*
X43129691Y10461242D01*
X43323673Y10541592D01*
X43498251Y10658242D01*
X43646718Y10806709D01*
X43763368Y10981287D01*
X43843718Y11175269D01*
X43884680Y11381198D01*
X43884680Y11591162D01*
X43843718Y11797091D01*
X43763368Y11991073D01*
X43646718Y12165651D01*
X43498251Y12314118D01*
X43323673Y12430768D01*
X43129691Y12511118D01*
X42923762Y12552080D01*
X42713798Y12552080D01*
X42507869Y12511118D01*
X42313887Y12430768D01*
X42139309Y12314118D01*
X41990842Y12165651D01*
X41874192Y11991073D01*
X41796571Y11803680D01*
X37605333Y11803680D01*
X35277851Y14131162D01*
X41752880Y14131162D01*
X41752880Y13921198D01*
X41793842Y13715269D01*
X41874192Y13521287D01*
X41990842Y13346709D01*
X42139309Y13198242D01*
X42313887Y13081592D01*
X42507869Y13001242D01*
X42713798Y12960280D01*
X42923762Y12960280D01*
X43129691Y13001242D01*
X43323673Y13081592D01*
X43498251Y13198242D01*
X43646718Y13346709D01*
X43763368Y13521287D01*
X43843718Y13715269D01*
X43884680Y13921198D01*
X43884680Y14131162D01*
X43843718Y14337091D01*
X43763368Y14531073D01*
X43646718Y14705651D01*
X43498251Y14854118D01*
X43323673Y14970768D01*
X43129691Y15051118D01*
X42923762Y15092080D01*
X42713798Y15092080D01*
X42507869Y15051118D01*
X42313887Y14970768D01*
X42139309Y14854118D01*
X41990842Y14705651D01*
X41874192Y14531073D01*
X41793842Y14337091D01*
X41752880Y14131162D01*
X35277851Y14131162D01*
X32695900Y16713112D01*
X32695900Y16720963D01*
X32679917Y16801313D01*
X32648565Y16877002D01*
X32603050Y16945121D01*
X32545121Y17003050D01*
X32528583Y17014100D01*
X32530963Y17014100D01*
X32611313Y17030083D01*
X32687002Y17061435D01*
X32755121Y17106950D01*
X32760671Y17112500D01*
X39758488Y17112500D01*
X41673084Y15197903D01*
X41683028Y15185786D01*
X41731374Y15146110D01*
X41786531Y15116628D01*
X41846380Y15098473D01*
X41893025Y15093879D01*
X41893027Y15093879D01*
X41908620Y15092343D01*
X41924213Y15093879D01*
X43897109Y15093879D01*
X44202141Y14788846D01*
X44208385Y14772699D01*
X44214030Y14754090D01*
X44219639Y14743597D01*
X44223930Y14732500D01*
X44234349Y14716076D01*
X44243513Y14698933D01*
X44251058Y14689739D01*
X44257434Y14679689D01*
X44270854Y14665617D01*
X44273247Y14662701D01*
X44281619Y14654329D01*
X44300597Y14634429D01*
X44303702Y14632246D01*
X44411463Y14524485D01*
X44333842Y14337091D01*
X44292880Y14131162D01*
X44292880Y13921198D01*
X44333842Y13715269D01*
X44414192Y13521287D01*
X44530842Y13346709D01*
X44679309Y13198242D01*
X44853887Y13081592D01*
X45047869Y13001242D01*
X45253798Y12960280D01*
X45463762Y12960280D01*
X45669691Y13001242D01*
X45863673Y13081592D01*
X46038251Y13198242D01*
X46186718Y13346709D01*
X46303368Y13521287D01*
X46383718Y13715269D01*
X46424680Y13921198D01*
X46424680Y14131162D01*
X46383718Y14337091D01*
X46303368Y14531073D01*
X46186718Y14705651D01*
X46038251Y14854118D01*
X45863673Y14970768D01*
X45669691Y15051118D01*
X45463762Y15092080D01*
X45253798Y15092080D01*
X45047869Y15051118D01*
X44863734Y14974847D01*
X44860395Y14983481D01*
X44854750Y15002091D01*
X44849141Y15012584D01*
X44844851Y15023679D01*
X44834436Y15040095D01*
X44825268Y15057248D01*
X44817718Y15066448D01*
X44811347Y15076490D01*
X44797934Y15090555D01*
X44795534Y15093479D01*
X44787141Y15101872D01*
X44768184Y15121750D01*
X44765082Y15123930D01*
X44264163Y15624849D01*
X44254214Y15636972D01*
X44205868Y15676648D01*
X44150711Y15706130D01*
X44090862Y15724285D01*
X44044217Y15728879D01*
X44028621Y15730415D01*
X44013025Y15728879D01*
X43484238Y15728879D01*
X43498251Y15738242D01*
X43646718Y15886709D01*
X43763368Y16061287D01*
X43843718Y16255269D01*
X43884680Y16461198D01*
X43884680Y16671162D01*
X43843718Y16877091D01*
X43763368Y17071073D01*
X43646718Y17245651D01*
X43498251Y17394118D01*
X43323673Y17510768D01*
X43129691Y17591118D01*
X42971924Y17622500D01*
X45205636Y17622500D01*
X45047869Y17591118D01*
X44853887Y17510768D01*
X44679309Y17394118D01*
X44530842Y17245651D01*
X44414192Y17071073D01*
X44333842Y16877091D01*
X44292880Y16671162D01*
X44292880Y16461198D01*
X44333842Y16255269D01*
X44414192Y16061287D01*
X44530842Y15886709D01*
X44679309Y15738242D01*
X44853887Y15621592D01*
X45047869Y15541242D01*
X45253798Y15500280D01*
X45463762Y15500280D01*
X45669691Y15541242D01*
X45863673Y15621592D01*
X46038251Y15738242D01*
X46186718Y15886709D01*
X46303368Y16061287D01*
X46383718Y16255269D01*
X46424680Y16461198D01*
X46424680Y16671162D01*
X46383718Y16877091D01*
X46303368Y17071073D01*
X46186718Y17245651D01*
X46038251Y17394118D01*
X45863673Y17510768D01*
X45669691Y17591118D01*
X45511924Y17622500D01*
X46008488Y17622500D01*
X46472500Y17158487D01*
X46472501Y13048914D01*
X45857085Y12433497D01*
X45669691Y12511118D01*
X45463762Y12552080D01*
X45253798Y12552080D01*
X45047869Y12511118D01*
X44853887Y12430768D01*
X44679309Y12314118D01*
X44530842Y12165651D01*
X44414192Y11991073D01*
X44333842Y11797091D01*
X44292880Y11591162D01*
X44292880Y11381198D01*
X44333842Y11175269D01*
X44414192Y10981287D01*
X44530842Y10806709D01*
X44679309Y10658242D01*
X44853887Y10541592D01*
X45047869Y10461242D01*
X45253798Y10420280D01*
X45463762Y10420280D01*
X45669691Y10461242D01*
X45863673Y10541592D01*
X46038251Y10658242D01*
X46186718Y10806709D01*
X46303368Y10981287D01*
X46383718Y11175269D01*
X46424680Y11381198D01*
X46424680Y11591162D01*
X46383718Y11797091D01*
X46306097Y11984485D01*
X47003476Y12681863D01*
X47015593Y12691807D01*
X47055269Y12740153D01*
X47084751Y12795310D01*
X47102906Y12855159D01*
X47107500Y12901804D01*
X47109036Y12917400D01*
X47107500Y12932996D01*
X47107500Y17274404D01*
X47109036Y17290000D01*
X47106353Y17317247D01*
X47102906Y17352241D01*
X47084751Y17412090D01*
X47055269Y17467247D01*
X47015593Y17515593D01*
X47003477Y17525536D01*
X46375542Y18153470D01*
X46365593Y18165593D01*
X46317247Y18205269D01*
X46262090Y18234751D01*
X46202241Y18252906D01*
X46155596Y18257500D01*
X46140000Y18259036D01*
X46124404Y18257500D01*
X46007209Y18257500D01*
X46038251Y18278242D01*
X46186718Y18426709D01*
X46303368Y18601287D01*
X46383718Y18795269D01*
X46424680Y19001198D01*
X46424680Y19211162D01*
X46383718Y19417091D01*
X46303368Y19611073D01*
X46186718Y19785651D01*
X46038251Y19934118D01*
X45863673Y20050768D01*
X45669691Y20131118D01*
X45463762Y20172080D01*
X45253798Y20172080D01*
X45047869Y20131118D01*
X44853887Y20050768D01*
X44679309Y19934118D01*
X44530842Y19785651D01*
X44414192Y19611073D01*
X44333842Y19417091D01*
X44292880Y19211162D01*
X44292880Y19001198D01*
X44333842Y18795269D01*
X44414192Y18601287D01*
X44530842Y18426709D01*
X44679309Y18278242D01*
X44710351Y18257500D01*
X43467209Y18257500D01*
X43498251Y18278242D01*
X43646718Y18426709D01*
X43763368Y18601287D01*
X43843718Y18795269D01*
X43884680Y19001198D01*
X43884680Y19211162D01*
X43843718Y19417091D01*
X43763368Y19611073D01*
X43646718Y19785651D01*
X43498251Y19934118D01*
X43323673Y20050768D01*
X43129691Y20131118D01*
X42923762Y20172080D01*
X42713798Y20172080D01*
X42507869Y20131118D01*
X42313887Y20050768D01*
X42139309Y19934118D01*
X41990842Y19785651D01*
X41874192Y19611073D01*
X41793842Y19417091D01*
X41752880Y19211162D01*
X41752880Y19001198D01*
X41793842Y18795269D01*
X41874192Y18601287D01*
X41990842Y18426709D01*
X42139309Y18278242D01*
X42280340Y18184008D01*
X42257901Y18165593D01*
X42247957Y18153476D01*
X41641982Y17547500D01*
X41430671Y17547500D01*
X41425121Y17553050D01*
X41357002Y17598565D01*
X41281313Y17629917D01*
X41200963Y17645900D01*
X41119037Y17645900D01*
X41038687Y17629917D01*
X40962998Y17598565D01*
X40894879Y17553050D01*
X40836950Y17495121D01*
X40791435Y17427002D01*
X40760083Y17351313D01*
X40744100Y17270963D01*
X40744100Y17189037D01*
X40760083Y17108687D01*
X40791435Y17032998D01*
X40836950Y16964879D01*
X40894879Y16906950D01*
X40962998Y16861435D01*
X41038687Y16830083D01*
X41119037Y16814100D01*
X41200963Y16814100D01*
X41281313Y16830083D01*
X41357002Y16861435D01*
X41425121Y16906950D01*
X41430671Y16912500D01*
X41757898Y16912500D01*
X41773494Y16910964D01*
X41789090Y16912500D01*
X41809335Y16914494D01*
X41793842Y16877091D01*
X41752880Y16671162D01*
X41752880Y16461198D01*
X41793842Y16255269D01*
X41874192Y16061287D01*
X41990842Y15886709D01*
X42139309Y15738242D01*
X42153322Y15728879D01*
X42040134Y15728879D01*
X40125542Y17643470D01*
X40115593Y17655593D01*
X40067247Y17695269D01*
X40012090Y17724751D01*
X39952241Y17742906D01*
X39905596Y17747500D01*
X39890000Y17749036D01*
X39874404Y17747500D01*
X32760671Y17747500D01*
X32755121Y17753050D01*
X32687002Y17798565D01*
X32611313Y17829917D01*
X32530963Y17845900D01*
X32449037Y17845900D01*
X32368687Y17829917D01*
X32292998Y17798565D01*
X32224879Y17753050D01*
X32166950Y17695121D01*
X32121435Y17627002D01*
X32090083Y17551313D01*
X32074100Y17470963D01*
X32074100Y17389037D01*
X32090083Y17308687D01*
X32121435Y17232998D01*
X32166950Y17164879D01*
X32224879Y17106950D01*
X32241417Y17095900D01*
X32239037Y17095900D01*
X32158687Y17079917D01*
X32082998Y17048565D01*
X32014879Y17003050D01*
X31956950Y16945121D01*
X31911435Y16877002D01*
X31880083Y16801313D01*
X31864100Y16720963D01*
X30385699Y16720963D01*
X32548337Y18883600D01*
X37710047Y18883600D01*
X37730000Y18881635D01*
X37749953Y18883600D01*
X37749960Y18883600D01*
X37809668Y18889481D01*
X37886275Y18912719D01*
X37956876Y18950456D01*
X38018758Y19001242D01*
X38031482Y19016746D01*
X40765898Y21751162D01*
X41752880Y21751162D01*
X41752880Y21541198D01*
X41793842Y21335269D01*
X41874192Y21141287D01*
X41990842Y20966709D01*
X42139309Y20818242D01*
X42313887Y20701592D01*
X42507869Y20621242D01*
X42713798Y20580280D01*
X42923762Y20580280D01*
X43129691Y20621242D01*
X43323673Y20701592D01*
X43498251Y20818242D01*
X43646718Y20966709D01*
X43763368Y21141287D01*
X43843718Y21335269D01*
X43884680Y21541198D01*
X43884680Y21751162D01*
X44292880Y21751162D01*
X44292880Y21541198D01*
X44333842Y21335269D01*
X44414192Y21141287D01*
X44530842Y20966709D01*
X44679309Y20818242D01*
X44853887Y20701592D01*
X45047869Y20621242D01*
X45253798Y20580280D01*
X45463762Y20580280D01*
X45669691Y20621242D01*
X45863673Y20701592D01*
X46038251Y20818242D01*
X46186718Y20966709D01*
X46303368Y21141287D01*
X46383718Y21335269D01*
X46424680Y21541198D01*
X46424680Y21751162D01*
X46383718Y21957091D01*
X46303368Y22151073D01*
X46186718Y22325651D01*
X46038251Y22474118D01*
X45863673Y22590768D01*
X45669691Y22671118D01*
X45463762Y22712080D01*
X45253798Y22712080D01*
X45047869Y22671118D01*
X44853887Y22590768D01*
X44679309Y22474118D01*
X44530842Y22325651D01*
X44414192Y22151073D01*
X44333842Y21957091D01*
X44292880Y21751162D01*
X43884680Y21751162D01*
X43843718Y21957091D01*
X43763368Y22151073D01*
X43646718Y22325651D01*
X43498251Y22474118D01*
X43323673Y22590768D01*
X43129691Y22671118D01*
X42923762Y22712080D01*
X42713798Y22712080D01*
X42507869Y22671118D01*
X42313887Y22590768D01*
X42139309Y22474118D01*
X41990842Y22325651D01*
X41874192Y22151073D01*
X41793842Y21957091D01*
X41752880Y21751162D01*
X40765898Y21751162D01*
X41133255Y22118519D01*
X41148758Y22131242D01*
X41199544Y22193124D01*
X41237281Y22263725D01*
X41257677Y22330964D01*
X41260519Y22340331D01*
X41262677Y22362242D01*
X41266400Y22400040D01*
X41266400Y22400046D01*
X41268365Y22419999D01*
X41266400Y22439952D01*
X41266400Y24291162D01*
X41752880Y24291162D01*
X41752880Y24081198D01*
X41793842Y23875269D01*
X41874192Y23681287D01*
X41990842Y23506709D01*
X42139309Y23358242D01*
X42313887Y23241592D01*
X42507869Y23161242D01*
X42713798Y23120280D01*
X42923762Y23120280D01*
X43129691Y23161242D01*
X43323673Y23241592D01*
X43498251Y23358242D01*
X43646718Y23506709D01*
X43763368Y23681287D01*
X43843718Y23875269D01*
X43884680Y24081198D01*
X43884680Y24291162D01*
X44292880Y24291162D01*
X44292880Y24081198D01*
X44333842Y23875269D01*
X44414192Y23681287D01*
X44530842Y23506709D01*
X44679309Y23358242D01*
X44853887Y23241592D01*
X45047869Y23161242D01*
X45253798Y23120280D01*
X45463762Y23120280D01*
X45669691Y23161242D01*
X45863673Y23241592D01*
X46038251Y23358242D01*
X46186718Y23506709D01*
X46303368Y23681287D01*
X46383718Y23875269D01*
X46424680Y24081198D01*
X46424680Y24291162D01*
X46383718Y24497091D01*
X46303368Y24691073D01*
X46186718Y24865651D01*
X46038251Y25014118D01*
X45863673Y25130768D01*
X45669691Y25211118D01*
X45463762Y25252080D01*
X45253798Y25252080D01*
X45047869Y25211118D01*
X44853887Y25130768D01*
X44679309Y25014118D01*
X44530842Y24865651D01*
X44414192Y24691073D01*
X44333842Y24497091D01*
X44292880Y24291162D01*
X43884680Y24291162D01*
X43843718Y24497091D01*
X43763368Y24691073D01*
X43646718Y24865651D01*
X43498251Y25014118D01*
X43323673Y25130768D01*
X43129691Y25211118D01*
X42923762Y25252080D01*
X42713798Y25252080D01*
X42507869Y25211118D01*
X42313887Y25130768D01*
X42139309Y25014118D01*
X41990842Y24865651D01*
X41874192Y24691073D01*
X41793842Y24497091D01*
X41752880Y24291162D01*
X41266400Y24291162D01*
X41266400Y26831162D01*
X41752880Y26831162D01*
X41752880Y26621198D01*
X41793842Y26415269D01*
X41874192Y26221287D01*
X41990842Y26046709D01*
X42139309Y25898242D01*
X42313887Y25781592D01*
X42507869Y25701242D01*
X42713798Y25660280D01*
X42923762Y25660280D01*
X43129691Y25701242D01*
X43323673Y25781592D01*
X43498251Y25898242D01*
X43646718Y26046709D01*
X43763368Y26221287D01*
X43843718Y26415269D01*
X43884680Y26621198D01*
X43884680Y26831162D01*
X44292880Y26831162D01*
X44292880Y26621198D01*
X44333842Y26415269D01*
X44414192Y26221287D01*
X44530842Y26046709D01*
X44679309Y25898242D01*
X44853887Y25781592D01*
X45047869Y25701242D01*
X45253798Y25660280D01*
X45463762Y25660280D01*
X45669691Y25701242D01*
X45863673Y25781592D01*
X46038251Y25898242D01*
X46186718Y26046709D01*
X46303368Y26221287D01*
X46383718Y26415269D01*
X46424680Y26621198D01*
X46424680Y26831162D01*
X46383718Y27037091D01*
X46303368Y27231073D01*
X46186718Y27405651D01*
X46038251Y27554118D01*
X45863673Y27670768D01*
X45669691Y27751118D01*
X45463762Y27792080D01*
X45253798Y27792080D01*
X45047869Y27751118D01*
X44853887Y27670768D01*
X44679309Y27554118D01*
X44530842Y27405651D01*
X44414192Y27231073D01*
X44333842Y27037091D01*
X44292880Y26831162D01*
X43884680Y26831162D01*
X43843718Y27037091D01*
X43763368Y27231073D01*
X43646718Y27405651D01*
X43498251Y27554118D01*
X43323673Y27670768D01*
X43129691Y27751118D01*
X42923762Y27792080D01*
X42713798Y27792080D01*
X42507869Y27751118D01*
X42313887Y27670768D01*
X42139309Y27554118D01*
X41990842Y27405651D01*
X41874192Y27231073D01*
X41793842Y27037091D01*
X41752880Y26831162D01*
X41266400Y26831162D01*
X41266400Y29371162D01*
X41752880Y29371162D01*
X41752880Y29161198D01*
X41793842Y28955269D01*
X41874192Y28761287D01*
X41990842Y28586709D01*
X42139309Y28438242D01*
X42313887Y28321592D01*
X42507869Y28241242D01*
X42713798Y28200280D01*
X42923762Y28200280D01*
X43129691Y28241242D01*
X43323673Y28321592D01*
X43498251Y28438242D01*
X43646718Y28586709D01*
X43763368Y28761287D01*
X43843718Y28955269D01*
X43884680Y29161198D01*
X43884680Y29371162D01*
X44292880Y29371162D01*
X44292880Y29161198D01*
X44333842Y28955269D01*
X44414192Y28761287D01*
X44530842Y28586709D01*
X44679309Y28438242D01*
X44853887Y28321592D01*
X45047869Y28241242D01*
X45253798Y28200280D01*
X45463762Y28200280D01*
X45669691Y28241242D01*
X45863673Y28321592D01*
X46038251Y28438242D01*
X46186718Y28586709D01*
X46303368Y28761287D01*
X46383718Y28955269D01*
X46424680Y29161198D01*
X46424680Y29371162D01*
X46383718Y29577091D01*
X46303368Y29771073D01*
X46186718Y29945651D01*
X46038251Y30094118D01*
X45863673Y30210768D01*
X45669691Y30291118D01*
X45463762Y30332080D01*
X45253798Y30332080D01*
X45047869Y30291118D01*
X44853887Y30210768D01*
X44679309Y30094118D01*
X44530842Y29945651D01*
X44414192Y29771073D01*
X44333842Y29577091D01*
X44292880Y29371162D01*
X43884680Y29371162D01*
X43843718Y29577091D01*
X43763368Y29771073D01*
X43646718Y29945651D01*
X43498251Y30094118D01*
X43323673Y30210768D01*
X43129691Y30291118D01*
X42923762Y30332080D01*
X42713798Y30332080D01*
X42507869Y30291118D01*
X42313887Y30210768D01*
X42139309Y30094118D01*
X41990842Y29945651D01*
X41874192Y29771073D01*
X41793842Y29577091D01*
X41752880Y29371162D01*
X41266400Y29371162D01*
X41266400Y29541278D01*
X41275900Y29589037D01*
X41275900Y29670963D01*
X41259917Y29751313D01*
X41228565Y29827002D01*
X41183050Y29895121D01*
X41125121Y29953050D01*
X41057002Y29998565D01*
X40981313Y30029917D01*
X40900963Y30045900D01*
X40819037Y30045900D01*
X40738687Y30029917D01*
X40662998Y29998565D01*
X40594879Y29953050D01*
X40536950Y29895121D01*
X40491435Y29827002D01*
X40460083Y29751313D01*
X40444100Y29670963D01*
X40444100Y29589037D01*
X40453601Y29541273D01*
X40453600Y22588336D01*
X37561664Y19696400D01*
X32399953Y19696400D01*
X32380000Y19698365D01*
X32360047Y19696400D01*
X32360040Y19696400D01*
X32307604Y19691235D01*
X32300331Y19690519D01*
X32225304Y19667760D01*
X32223725Y19667281D01*
X32153124Y19629544D01*
X32130617Y19611073D01*
X32106745Y19591482D01*
X32106740Y19591477D01*
X32091242Y19578758D01*
X32078523Y19563260D01*
X28821664Y16306400D01*
X23715887Y16306400D01*
X23685259Y16322771D01*
X23608652Y16346009D01*
X23548944Y16351890D01*
X23548937Y16351890D01*
X23535005Y16353262D01*
X23652650Y16454100D01*
X23690963Y16454100D01*
X23771313Y16470083D01*
X23847002Y16501435D01*
X23915121Y16546950D01*
X23973050Y16604879D01*
X24018565Y16672998D01*
X24049917Y16748687D01*
X24065900Y16829037D01*
X24065900Y16910963D01*
X24049917Y16991313D01*
X24018565Y17067002D01*
X23973050Y17135121D01*
X23915121Y17193050D01*
X23847002Y17238565D01*
X23771313Y17269917D01*
X23690963Y17285900D01*
X23609037Y17285900D01*
X23528687Y17269917D01*
X23452998Y17238565D01*
X23384879Y17193050D01*
X23326950Y17135121D01*
X23281435Y17067002D01*
X23250083Y16991313D01*
X23239070Y16935946D01*
X22972550Y16707500D01*
X21536013Y16707500D01*
X21650171Y16821658D01*
X21654879Y16816950D01*
X21722998Y16771435D01*
X21798687Y16740083D01*
X21879037Y16724100D01*
X21960963Y16724100D01*
X22041313Y16740083D01*
X22117002Y16771435D01*
X22185121Y16816950D01*
X22243050Y16874879D01*
X22288565Y16942998D01*
X22319917Y17018687D01*
X22334349Y17091241D01*
X22337157Y17090964D01*
X22349636Y17092193D01*
X22354879Y17086950D01*
X22422998Y17041435D01*
X22498687Y17010083D01*
X22579037Y16994100D01*
X22660963Y16994100D01*
X22741313Y17010083D01*
X22817002Y17041435D01*
X22885121Y17086950D01*
X22943050Y17144879D01*
X22988565Y17212998D01*
X23019917Y17288687D01*
X23035900Y17369037D01*
X23035900Y17450963D01*
X23019917Y17531313D01*
X22988565Y17607002D01*
X22943050Y17675121D01*
X22885121Y17733050D01*
X22817002Y17778565D01*
X22741313Y17809917D01*
X22660963Y17825900D01*
X22579037Y17825900D01*
X22498687Y17809917D01*
X22422998Y17778565D01*
X22419765Y17776405D01*
X22322699Y17873471D01*
X22312751Y17885593D01*
X22264405Y17925269D01*
X22209248Y17954751D01*
X22149399Y17972906D01*
X22102754Y17977500D01*
X22087158Y17979036D01*
X22071562Y17977500D01*
X21656513Y17977500D01*
X21711513Y18032500D01*
X22479329Y18032500D01*
X22484879Y18026950D01*
X22552998Y17981435D01*
X22628687Y17950083D01*
X22709037Y17934100D01*
X22790963Y17934100D01*
X22871313Y17950083D01*
X22947002Y17981435D01*
X23015121Y18026950D01*
X23073050Y18084879D01*
X23118565Y18152998D01*
X23149917Y18228687D01*
X23165900Y18309037D01*
X23165900Y18390963D01*
X23149917Y18471313D01*
X23118565Y18547002D01*
X23073050Y18615121D01*
X23015121Y18673050D01*
X22947002Y18718565D01*
X22871313Y18749917D01*
X22790963Y18765900D01*
X22709037Y18765900D01*
X22628687Y18749917D01*
X22552998Y18718565D01*
X22484879Y18673050D01*
X22479329Y18667500D01*
X21595592Y18667500D01*
X21579999Y18669036D01*
X21564406Y18667500D01*
X21564404Y18667500D01*
X21517759Y18662906D01*
X21457910Y18644751D01*
X21402753Y18615269D01*
X21354407Y18575593D01*
X21344463Y18563476D01*
X20939910Y18158923D01*
X20945900Y18189037D01*
X20945900Y18270963D01*
X20929917Y18351313D01*
X20898565Y18427002D01*
X20853050Y18495121D01*
X20795121Y18553050D01*
X20727002Y18598565D01*
X20651313Y18629917D01*
X20635057Y18633151D01*
X20843258Y18841351D01*
X20902998Y18801435D01*
X20978687Y18770083D01*
X21059037Y18754100D01*
X21140963Y18754100D01*
X21221313Y18770083D01*
X21297002Y18801435D01*
X21365121Y18846950D01*
X21423050Y18904879D01*
X21468565Y18972998D01*
X21499917Y19048687D01*
X21515900Y19129037D01*
X21515900Y19210963D01*
X21499917Y19291313D01*
X21468565Y19367002D01*
X21423050Y19435121D01*
X21365121Y19493050D01*
X21297002Y19538565D01*
X21221313Y19569917D01*
X21140963Y19585900D01*
X21059037Y19585900D01*
X20978687Y19569917D01*
X20902998Y19538565D01*
X20834879Y19493050D01*
X20829329Y19487500D01*
X20738486Y19487500D01*
X20722893Y19489036D01*
X20707300Y19487500D01*
X20707298Y19487500D01*
X20660653Y19482906D01*
X20600804Y19464751D01*
X20545647Y19435269D01*
X20497301Y19395593D01*
X20487357Y19383476D01*
X18486530Y17382648D01*
X18474407Y17372699D01*
X18434731Y17324352D01*
X18414178Y17285900D01*
X18405249Y17269195D01*
X18387094Y17209346D01*
X18380964Y17147106D01*
X18382500Y17131510D01*
X18382500Y16891861D01*
X15824753Y14343680D01*
X6300989Y14343680D01*
X6223368Y14531073D01*
X6106718Y14705651D01*
X5958251Y14854118D01*
X5783673Y14970768D01*
X5589691Y15051118D01*
X5383762Y15092080D01*
X5173798Y15092080D01*
X4967869Y15051118D01*
X4773887Y14970768D01*
X4599309Y14854118D01*
X4450842Y14705651D01*
X4334192Y14531073D01*
X4253842Y14337091D01*
X4212880Y14131162D01*
X4212880Y13921198D01*
X4253842Y13715269D01*
X4334192Y13521287D01*
X4450842Y13346709D01*
X4599309Y13198242D01*
X4613322Y13188879D01*
X4139571Y13188879D01*
X4123978Y13190415D01*
X4108385Y13188879D01*
X4108383Y13188879D01*
X4061738Y13184285D01*
X4001889Y13166130D01*
X3946732Y13136648D01*
X3898386Y13096972D01*
X3888444Y13084857D01*
X3237085Y12433497D01*
X3049691Y12511118D01*
X2843762Y12552080D01*
X2633798Y12552080D01*
X2427869Y12511118D01*
X2233887Y12430768D01*
X2059309Y12314118D01*
X1910842Y12165651D01*
X1794192Y11991073D01*
X1713842Y11797091D01*
X1672880Y11591162D01*
X1672880Y11381198D01*
X1713842Y11175269D01*
X1794192Y10981287D01*
X1910842Y10806709D01*
X2059309Y10658242D01*
X2233887Y10541592D01*
X2427869Y10461242D01*
X2633798Y10420280D01*
X2843762Y10420280D01*
X3049691Y10461242D01*
X3243673Y10541592D01*
X3418251Y10658242D01*
X3566718Y10806709D01*
X3683368Y10981287D01*
X3763718Y11175269D01*
X3804680Y11381198D01*
X3804680Y11591162D01*
X3763718Y11797091D01*
X3686097Y11984485D01*
X4255492Y12553879D01*
X8445783Y12553879D01*
X8461379Y12552343D01*
X8476975Y12553879D01*
X8523620Y12558473D01*
X8546358Y12565371D01*
X7784668Y11803680D01*
X6300989Y11803680D01*
X6223368Y11991073D01*
X6106718Y12165651D01*
X5958251Y12314118D01*
X5783673Y12430768D01*
X5589691Y12511118D01*
X5383762Y12552080D01*
X5173798Y12552080D01*
X4967869Y12511118D01*
X4773887Y12430768D01*
X4599309Y12314118D01*
X4450842Y12165651D01*
X4334192Y11991073D01*
X4253842Y11797091D01*
X4212880Y11591162D01*
X4212880Y11381198D01*
X4253842Y11175269D01*
X4334192Y10981287D01*
X4450842Y10806709D01*
X4599309Y10658242D01*
X4613322Y10648879D01*
X4139571Y10648879D01*
X4123978Y10650415D01*
X4108385Y10648879D01*
X4108383Y10648879D01*
X4061738Y10644285D01*
X4001889Y10626130D01*
X3946732Y10596648D01*
X3898386Y10556972D01*
X3888444Y10544857D01*
X3237085Y9893497D01*
X3049691Y9971118D01*
X2843762Y10012080D01*
X2633798Y10012080D01*
X2427869Y9971118D01*
X2233887Y9890768D01*
X2059309Y9774118D01*
X1910842Y9625651D01*
X1794192Y9451073D01*
X1713842Y9257091D01*
X1672880Y9051162D01*
X1672880Y8841198D01*
X1713842Y8635269D01*
X1794192Y8441287D01*
X1910842Y8266709D01*
X2059309Y8118242D01*
X2233887Y8001592D01*
X2427869Y7921242D01*
X2633798Y7880280D01*
X2843762Y7880280D01*
X3049691Y7921242D01*
X3243673Y8001592D01*
X3418251Y8118242D01*
X3566718Y8266709D01*
X3683368Y8441287D01*
X3763718Y8635269D01*
X3804680Y8841198D01*
X3804680Y9051162D01*
X3763718Y9257091D01*
X3686097Y9444485D01*
X4255492Y10013879D01*
X7144367Y10013879D01*
X6394168Y9263680D01*
X6300989Y9263680D01*
X6223368Y9451073D01*
X6106718Y9625651D01*
X5958251Y9774118D01*
X5783673Y9890768D01*
X5589691Y9971118D01*
X5383762Y10012080D01*
X5173798Y10012080D01*
X4967869Y9971118D01*
X4773887Y9890768D01*
X4599309Y9774118D01*
X4450842Y9625651D01*
X4334192Y9451073D01*
X4253842Y9257091D01*
X4212880Y9051162D01*
X4212880Y8841198D01*
X4253842Y8635269D01*
X4334192Y8441287D01*
X4450842Y8266709D01*
X4599309Y8118242D01*
X4630351Y8097500D01*
X4128196Y8097500D01*
X4112600Y8099036D01*
X4097004Y8097500D01*
X4050359Y8092906D01*
X3990510Y8074751D01*
X3935353Y8045269D01*
X3887007Y8005593D01*
X3877065Y7993478D01*
X3237085Y7353497D01*
X3049691Y7431118D01*
X2843762Y7472080D01*
X2633798Y7472080D01*
X2427869Y7431118D01*
X2233887Y7350768D01*
X2059309Y7234118D01*
X1910842Y7085651D01*
X1794192Y6911073D01*
X1713842Y6717091D01*
X1672880Y6511162D01*
X1672880Y6301198D01*
X1713842Y6095269D01*
X1791693Y5907319D01*
X1221890Y6477122D01*
X1221890Y14131162D01*
X1672880Y14131162D01*
X1672880Y13921198D01*
X1713842Y13715269D01*
X1794192Y13521287D01*
X1910842Y13346709D01*
X2059309Y13198242D01*
X2233887Y13081592D01*
X2427869Y13001242D01*
X2633798Y12960280D01*
X2843762Y12960280D01*
X3049691Y13001242D01*
X3243673Y13081592D01*
X3418251Y13198242D01*
X3566718Y13346709D01*
X3683368Y13521287D01*
X3763718Y13715269D01*
X3804680Y13921198D01*
X3804680Y14131162D01*
X3763718Y14337091D01*
X3683368Y14531073D01*
X3566718Y14705651D01*
X3418251Y14854118D01*
X3243673Y14970768D01*
X3049691Y15051118D01*
X2843762Y15092080D01*
X2633798Y15092080D01*
X2427869Y15051118D01*
X2233887Y14970768D01*
X2059309Y14854118D01*
X1910842Y14705651D01*
X1794192Y14531073D01*
X1713842Y14337091D01*
X1672880Y14131162D01*
X1221890Y14131162D01*
X1221890Y18419098D01*
X2023642Y17617345D01*
X2032759Y17606068D01*
X2045693Y17595294D01*
X2046521Y17594466D01*
X2057745Y17585254D01*
X2080813Y17566039D01*
X2081840Y17565480D01*
X2082753Y17564731D01*
X2109421Y17550477D01*
X2135752Y17536153D01*
X2136870Y17535805D01*
X2137910Y17535249D01*
X2166779Y17526492D01*
X2195466Y17517559D01*
X2196634Y17517435D01*
X2197759Y17517094D01*
X2227734Y17514142D01*
X2239121Y17512936D01*
X2233887Y17510768D01*
X2059309Y17394118D01*
X1910842Y17245651D01*
X1794192Y17071073D01*
X1713842Y16877091D01*
X1672880Y16671162D01*
X1672880Y16461198D01*
X1713842Y16255269D01*
X1794192Y16061287D01*
X1910842Y15886709D01*
X2059309Y15738242D01*
X2233887Y15621592D01*
X2427869Y15541242D01*
X2633798Y15500280D01*
X2843762Y15500280D01*
X3049691Y15541242D01*
X3243673Y15621592D01*
X3418251Y15738242D01*
X3566718Y15886709D01*
X3683368Y16061287D01*
X3763718Y16255269D01*
X3804680Y16461198D01*
X3804680Y16671162D01*
X3763718Y16877091D01*
X3683368Y17071073D01*
X3566718Y17245651D01*
X3418251Y17394118D01*
X3251983Y17505216D01*
X4749143Y17494234D01*
X4599309Y17394118D01*
X4450842Y17245651D01*
X4334192Y17071073D01*
X4253842Y16877091D01*
X4212880Y16671162D01*
X4212880Y16461198D01*
X4253842Y16255269D01*
X4334192Y16061287D01*
X4450842Y15886709D01*
X4599309Y15738242D01*
X4773887Y15621592D01*
X4967869Y15541242D01*
X5173798Y15500280D01*
X5383762Y15500280D01*
X5589691Y15541242D01*
X5783673Y15621592D01*
X5958251Y15738242D01*
X6106718Y15886709D01*
X6223368Y16061287D01*
X6303718Y16255269D01*
X6344680Y16461198D01*
X6344680Y16671162D01*
X6303718Y16877091D01*
X6223368Y17071073D01*
X6106718Y17245651D01*
X5958251Y17394118D01*
X5820174Y17486378D01*
X6333234Y17482615D01*
X6350000Y17480964D01*
X6380039Y17483922D01*
X6409944Y17486646D01*
X6411071Y17486979D01*
X6412240Y17487094D01*
X6441076Y17495841D01*
X6469924Y17504362D01*
X6470962Y17504907D01*
X6472089Y17505249D01*
X6498651Y17519447D01*
X6525296Y17533439D01*
X6526211Y17534179D01*
X6527246Y17534732D01*
X6550480Y17553799D01*
X6573932Y17572759D01*
X6584711Y17585699D01*
X7243476Y18244463D01*
X7255593Y18254407D01*
X7295269Y18302753D01*
X7324751Y18357910D01*
X7342906Y18417759D01*
X7347500Y18464404D01*
X7347500Y18464406D01*
X7349036Y18479999D01*
X7347500Y18495592D01*
X7347500Y20823738D01*
X7629887Y21106124D01*
X7642003Y21116067D01*
X7681679Y21164413D01*
X7711161Y21219570D01*
X7729316Y21279419D01*
X7733910Y21326064D01*
X7733910Y21326066D01*
X7735446Y21341659D01*
X7733910Y21357252D01*
X7733910Y22350148D01*
X9207464Y23823701D01*
X9207468Y23823706D01*
X9383692Y23999929D01*
X9402496Y24009980D01*
X9450842Y24049656D01*
X9460791Y24061779D01*
X9502282Y24103270D01*
X10362640Y24103270D01*
X10302998Y24078565D01*
X10234879Y24033050D01*
X10176950Y23975121D01*
X10131435Y23907002D01*
X10100083Y23831313D01*
X10084100Y23750963D01*
X10084100Y23669037D01*
X10100083Y23588687D01*
X10131435Y23512998D01*
X10176950Y23444879D01*
X10234879Y23386950D01*
X10302998Y23341435D01*
X10378687Y23310083D01*
X10459037Y23294100D01*
X10540963Y23294100D01*
X10621313Y23310083D01*
X10697002Y23341435D01*
X10765121Y23386950D01*
X10770671Y23392500D01*
X11180896Y23392500D01*
X14112509Y20460886D01*
X14122453Y20448769D01*
X14170799Y20409093D01*
X14225956Y20379611D01*
X14285805Y20361456D01*
X14332450Y20356862D01*
X14332452Y20356862D01*
X14348045Y20355326D01*
X14363638Y20356862D01*
X29668766Y20356862D01*
X29684362Y20355326D01*
X29699958Y20356862D01*
X29746603Y20361456D01*
X29806452Y20379611D01*
X29861609Y20409093D01*
X29909955Y20448769D01*
X29919904Y20460892D01*
X31141513Y21682500D01*
X31319329Y21682500D01*
X31324879Y21676950D01*
X31392998Y21631435D01*
X31468687Y21600083D01*
X31549037Y21584100D01*
X31630963Y21584100D01*
X31711313Y21600083D01*
X31787002Y21631435D01*
X31855121Y21676950D01*
X31913050Y21734879D01*
X31958565Y21802998D01*
X31989917Y21878687D01*
X32005900Y21959037D01*
X32005900Y22040963D01*
X31989917Y22121313D01*
X31958565Y22197002D01*
X31913050Y22265121D01*
X31855121Y22323050D01*
X31787002Y22368565D01*
X31711313Y22399917D01*
X31630963Y22415900D01*
X31549037Y22415900D01*
X31468687Y22399917D01*
X31392998Y22368565D01*
X31324879Y22323050D01*
X31319329Y22317500D01*
X31025592Y22317500D01*
X31009999Y22319036D01*
X30994406Y22317500D01*
X30994404Y22317500D01*
X30947759Y22312906D01*
X30887910Y22294751D01*
X30832753Y22265269D01*
X30784407Y22225593D01*
X30774463Y22213476D01*
X29552850Y20991862D01*
X29510874Y20991862D01*
X31161513Y22642500D01*
X31209329Y22642500D01*
X31214879Y22636950D01*
X31282998Y22591435D01*
X31358687Y22560083D01*
X31439037Y22544100D01*
X31520963Y22544100D01*
X31601313Y22560083D01*
X31677002Y22591435D01*
X31745121Y22636950D01*
X31803050Y22694879D01*
X31848565Y22762998D01*
X31879917Y22838687D01*
X31895900Y22919037D01*
X31895900Y23000963D01*
X31879917Y23081313D01*
X31848565Y23157002D01*
X31803050Y23225121D01*
X31745121Y23283050D01*
X31677002Y23328565D01*
X31601313Y23359917D01*
X31520963Y23375900D01*
X31439037Y23375900D01*
X31358687Y23359917D01*
X31330786Y23348360D01*
X31359917Y23418687D01*
X31375900Y23499037D01*
X31375900Y23580963D01*
X31359917Y23661313D01*
X31328565Y23737002D01*
X31283050Y23805121D01*
X31225121Y23863050D01*
X31157002Y23908565D01*
X31081313Y23939917D01*
X31000963Y23955900D01*
X30919037Y23955900D01*
X30838687Y23939917D01*
X30762998Y23908565D01*
X30694879Y23863050D01*
X30689329Y23857500D01*
X30565092Y23857500D01*
X30549499Y23859036D01*
X30533906Y23857500D01*
X30533904Y23857500D01*
X30487259Y23852906D01*
X30427410Y23834751D01*
X30372253Y23805269D01*
X30323907Y23765593D01*
X30313963Y23753476D01*
X29603910Y23043423D01*
X29603908Y25022739D01*
X29605445Y25038342D01*
X29599314Y25100583D01*
X29581159Y25160432D01*
X29551677Y25215589D01*
X29521943Y25251820D01*
X29521941Y25251822D01*
X29512001Y25263934D01*
X29499889Y25273874D01*
X27427702Y27346060D01*
X27417753Y27358183D01*
X27369407Y27397859D01*
X27314250Y27427341D01*
X27254401Y27445496D01*
X27207756Y27450090D01*
X27192160Y27451626D01*
X27176564Y27450090D01*
X7543883Y27450090D01*
X6723010Y28270963D01*
X25464100Y28270963D01*
X25464100Y28189037D01*
X25480083Y28108687D01*
X25511435Y28032998D01*
X25556950Y27964879D01*
X25614879Y27906950D01*
X25682998Y27861435D01*
X25758687Y27830083D01*
X25839037Y27814100D01*
X25920963Y27814100D01*
X26001313Y27830083D01*
X26077002Y27861435D01*
X26145121Y27906950D01*
X26150671Y27912500D01*
X27450930Y27912500D01*
X27471435Y27862998D01*
X27516950Y27794879D01*
X27574879Y27736950D01*
X27642998Y27691435D01*
X27718687Y27660083D01*
X27799037Y27644100D01*
X27880963Y27644100D01*
X27961313Y27660083D01*
X28037002Y27691435D01*
X28105121Y27736950D01*
X28163050Y27794879D01*
X28208565Y27862998D01*
X28239917Y27938687D01*
X28255900Y28019037D01*
X28255900Y28100963D01*
X28239917Y28181313D01*
X28208565Y28257002D01*
X28163050Y28325121D01*
X28105121Y28383050D01*
X28037002Y28428565D01*
X27961313Y28459917D01*
X27880963Y28475900D01*
X27870849Y28475900D01*
X27847247Y28495269D01*
X27792090Y28524751D01*
X27732241Y28542906D01*
X27685596Y28547500D01*
X27670000Y28549036D01*
X27654404Y28547500D01*
X26150671Y28547500D01*
X26145121Y28553050D01*
X26077002Y28598565D01*
X26001313Y28629917D01*
X25920963Y28645900D01*
X25839037Y28645900D01*
X25758687Y28629917D01*
X25682998Y28598565D01*
X25614879Y28553050D01*
X25556950Y28495121D01*
X25511435Y28427002D01*
X25480083Y28351313D01*
X25464100Y28270963D01*
X6723010Y28270963D01*
X6226097Y28767875D01*
X6303718Y28955269D01*
X6344680Y29161198D01*
X6344680Y29371162D01*
X6303718Y29577091D01*
X6223368Y29771073D01*
X6106718Y29945651D01*
X5958251Y30094118D01*
X5783673Y30210768D01*
X5589691Y30291118D01*
X5383762Y30332080D01*
X5173798Y30332080D01*
X4967869Y30291118D01*
X4773887Y30210768D01*
X4599309Y30094118D01*
X4450842Y29945651D01*
X4334192Y29771073D01*
X4253842Y29577091D01*
X4212880Y29371162D01*
X4212880Y29161198D01*
X4253842Y28955269D01*
X4334192Y28761287D01*
X4450842Y28586709D01*
X4599309Y28438242D01*
X4773887Y28321592D01*
X4967869Y28241242D01*
X5173798Y28200280D01*
X5383762Y28200280D01*
X5589691Y28241242D01*
X5777085Y28318863D01*
X7052267Y27043680D01*
X6300989Y27043680D01*
X6223368Y27231073D01*
X6106718Y27405651D01*
X5958251Y27554118D01*
X5783673Y27670768D01*
X5589691Y27751118D01*
X5383762Y27792080D01*
X5173798Y27792080D01*
X4967869Y27751118D01*
X4773887Y27670768D01*
X4599309Y27554118D01*
X4450842Y27405651D01*
X4334192Y27231073D01*
X4253842Y27037091D01*
X4212880Y26831162D01*
X4212880Y26621198D01*
X4253842Y26415269D01*
X4334192Y26221287D01*
X4450842Y26046709D01*
X4599309Y25898242D01*
X4613322Y25888879D01*
X4025094Y25888879D01*
X3686097Y26227876D01*
X3763718Y26415269D01*
X3804680Y26621198D01*
X3804680Y26831162D01*
X3763718Y27037091D01*
X3683368Y27231073D01*
X3566718Y27405651D01*
X3418251Y27554118D01*
X3243673Y27670768D01*
X3049691Y27751118D01*
X2843762Y27792080D01*
X2633798Y27792080D01*
X2427869Y27751118D01*
X2233887Y27670768D01*
X2059309Y27554118D01*
X1910842Y27405651D01*
X1794192Y27231073D01*
X1713842Y27037091D01*
X1672880Y26831162D01*
X1672880Y26621198D01*
X1713842Y26415269D01*
X1794192Y26221287D01*
X1910842Y26046709D01*
X2059309Y25898242D01*
X2233887Y25781592D01*
X2427869Y25701242D01*
X2633798Y25660280D01*
X2843762Y25660280D01*
X3049691Y25701242D01*
X3237084Y25778863D01*
X3658044Y25357903D01*
X3667988Y25345786D01*
X3716334Y25306110D01*
X3771491Y25276628D01*
X3831340Y25258473D01*
X3877985Y25253879D01*
X3877987Y25253879D01*
X3893580Y25252343D01*
X3909173Y25253879D01*
X7099547Y25253879D01*
X6349349Y24503680D01*
X6300989Y24503680D01*
X6223368Y24691073D01*
X6106718Y24865651D01*
X5958251Y25014118D01*
X5783673Y25130768D01*
X5589691Y25211118D01*
X5383762Y25252080D01*
X5173798Y25252080D01*
X4967869Y25211118D01*
X4773887Y25130768D01*
X4599309Y25014118D01*
X4450842Y24865651D01*
X4334192Y24691073D01*
X4253842Y24497091D01*
X4212880Y24291162D01*
X4212880Y24081198D01*
X4253842Y23875269D01*
X4334192Y23681287D01*
X4450842Y23506709D01*
X4599309Y23358242D01*
X4773887Y23241592D01*
X4967869Y23161242D01*
X5173798Y23120280D01*
X5383762Y23120280D01*
X5589691Y23161242D01*
X5783673Y23241592D01*
X5958251Y23358242D01*
X6106718Y23506709D01*
X6223368Y23681287D01*
X6300989Y23868680D01*
X6465265Y23868680D01*
X6480861Y23867144D01*
X6496457Y23868680D01*
X6543102Y23873274D01*
X6602951Y23891429D01*
X6658108Y23920911D01*
X6706454Y23960587D01*
X6716403Y23972710D01*
X8066194Y25322500D01*
X8483487Y25322500D01*
X8269125Y25108137D01*
X8257008Y25098193D01*
X8217331Y25049847D01*
X8198840Y25015253D01*
X5777085Y22593497D01*
X5589691Y22671118D01*
X5383762Y22712080D01*
X5173798Y22712080D01*
X4967869Y22671118D01*
X4773887Y22590768D01*
X4599309Y22474118D01*
X4450842Y22325651D01*
X4441479Y22311638D01*
X4441479Y22785389D01*
X4443015Y22800982D01*
X4441091Y22820519D01*
X4436885Y22863222D01*
X4418730Y22923071D01*
X4389248Y22978228D01*
X4349572Y23026574D01*
X4337456Y23036517D01*
X3686097Y23687875D01*
X3763718Y23875269D01*
X3804680Y24081198D01*
X3804680Y24291162D01*
X3763718Y24497091D01*
X3683368Y24691073D01*
X3566718Y24865651D01*
X3418251Y25014118D01*
X3243673Y25130768D01*
X3049691Y25211118D01*
X2843762Y25252080D01*
X2633798Y25252080D01*
X2427869Y25211118D01*
X2233887Y25130768D01*
X2059309Y25014118D01*
X1910842Y24865651D01*
X1794192Y24691073D01*
X1713842Y24497091D01*
X1672880Y24291162D01*
X1672880Y24081198D01*
X1713842Y23875269D01*
X1794192Y23681287D01*
X1910842Y23506709D01*
X2059309Y23358242D01*
X2233887Y23241592D01*
X2427869Y23161242D01*
X2633798Y23120280D01*
X2843762Y23120280D01*
X3049691Y23161242D01*
X3237085Y23238863D01*
X3806479Y22669468D01*
X3806480Y20891627D01*
X3804943Y20876021D01*
X3811073Y20813781D01*
X3829228Y20753932D01*
X3839204Y20735269D01*
X3858711Y20698774D01*
X3898387Y20650428D01*
X3910504Y20640484D01*
X4294463Y20256524D01*
X4304407Y20244407D01*
X4352753Y20204731D01*
X4407910Y20175249D01*
X4467759Y20157094D01*
X4514404Y20152500D01*
X4514406Y20152500D01*
X4529999Y20150964D01*
X4545592Y20152500D01*
X5075363Y20152500D01*
X4967869Y20131118D01*
X4773887Y20050768D01*
X4599309Y19934118D01*
X4450842Y19785651D01*
X4334192Y19611073D01*
X4253842Y19417091D01*
X4212880Y19211162D01*
X4212880Y19001198D01*
X4253842Y18795269D01*
X4334192Y18601287D01*
X4450842Y18426709D01*
X4599309Y18278242D01*
X4773887Y18161592D01*
X4853820Y18128483D01*
X3193147Y18140663D01*
X3243673Y18161592D01*
X3418251Y18278242D01*
X3566718Y18426709D01*
X3683368Y18601287D01*
X3763718Y18795269D01*
X3804680Y19001198D01*
X3804680Y19211162D01*
X3763718Y19417091D01*
X3683368Y19611073D01*
X3566718Y19785651D01*
X3418251Y19934118D01*
X3243673Y20050768D01*
X3049691Y20131118D01*
X2843762Y20172080D01*
X2633798Y20172080D01*
X2427869Y20131118D01*
X2233887Y20050768D01*
X2059309Y19934118D01*
X1910842Y19785651D01*
X1794192Y19611073D01*
X1713842Y19417091D01*
X1672880Y19211162D01*
X1672880Y19001198D01*
X1706417Y18832595D01*
X1577500Y18961512D01*
X1577500Y20035888D01*
X2240475Y20698863D01*
X2427869Y20621242D01*
X2633798Y20580280D01*
X2843762Y20580280D01*
X3049691Y20621242D01*
X3243673Y20701592D01*
X3418251Y20818242D01*
X3566718Y20966709D01*
X3683368Y21141287D01*
X3763718Y21335269D01*
X3804680Y21541198D01*
X3804680Y21751162D01*
X3763718Y21957091D01*
X3683368Y22151073D01*
X3566718Y22325651D01*
X3418251Y22474118D01*
X3243673Y22590768D01*
X3049691Y22671118D01*
X2843762Y22712080D01*
X2633798Y22712080D01*
X2427869Y22671118D01*
X2233887Y22590768D01*
X2059309Y22474118D01*
X1910842Y22325651D01*
X1794192Y22151073D01*
X1713842Y21957091D01*
X1672880Y21751162D01*
X1672880Y21541198D01*
X1713842Y21335269D01*
X1791463Y21147875D01*
X1221890Y20578302D01*
X1221890Y27300278D01*
X2124315Y28202702D01*
X2124319Y28202707D01*
X2240475Y28318863D01*
X2427869Y28241242D01*
X2633798Y28200280D01*
X2843762Y28200280D01*
X3049691Y28241242D01*
X3243673Y28321592D01*
X3418251Y28438242D01*
X3566718Y28586709D01*
X3683368Y28761287D01*
X3763718Y28955269D01*
X3804680Y29161198D01*
X3804680Y29371162D01*
X3763718Y29577091D01*
X3683368Y29771073D01*
X3566718Y29945651D01*
X3418251Y30094118D01*
X3243673Y30210768D01*
X3191207Y30232500D01*
X4007004Y30232500D01*
X4022600Y30230964D01*
X4038196Y30232500D01*
X4084841Y30237094D01*
X4144690Y30255249D01*
X4199847Y30284731D01*
X4248193Y30324407D01*
X4258142Y30336530D01*
X4780475Y30858863D01*
X4967869Y30781242D01*
X5173798Y30740280D01*
X5383762Y30740280D01*
X5589691Y30781242D01*
X5783673Y30861592D01*
X5958251Y30978242D01*
X6106718Y31126709D01*
X6223368Y31301287D01*
X6303718Y31495269D01*
X6344680Y31701198D01*
X6344680Y31911162D01*
X41752880Y31911162D01*
X41752880Y31701198D01*
X41793842Y31495269D01*
X41874192Y31301287D01*
X41990842Y31126709D01*
X42139309Y30978242D01*
X42313887Y30861592D01*
X42507869Y30781242D01*
X42713798Y30740280D01*
X42923762Y30740280D01*
X43129691Y30781242D01*
X43323673Y30861592D01*
X43498251Y30978242D01*
X43646718Y31126709D01*
X43763368Y31301287D01*
X43843718Y31495269D01*
X43884680Y31701198D01*
X43884680Y31911162D01*
X43843718Y32117091D01*
X43763368Y32311073D01*
X43646718Y32485651D01*
X43498251Y32634118D01*
X43323673Y32750768D01*
X43129691Y32831118D01*
X42923762Y32872080D01*
X42713798Y32872080D01*
X42507869Y32831118D01*
X42313887Y32750768D01*
X42139309Y32634118D01*
X41990842Y32485651D01*
X41874192Y32311073D01*
X41793842Y32117091D01*
X41752880Y31911162D01*
X6344680Y31911162D01*
X6303718Y32117091D01*
X6223368Y32311073D01*
X6106718Y32485651D01*
X5958251Y32634118D01*
X5783673Y32750768D01*
X5589691Y32831118D01*
X5383762Y32872080D01*
X5173798Y32872080D01*
X4967869Y32831118D01*
X4773887Y32750768D01*
X4599309Y32634118D01*
X4450842Y32485651D01*
X4334192Y32311073D01*
X4253842Y32117091D01*
X4212880Y31911162D01*
X4212880Y31701198D01*
X4253842Y31495269D01*
X4331463Y31307875D01*
X3891088Y30867500D01*
X3252515Y30867500D01*
X3418251Y30978242D01*
X3566718Y31126709D01*
X3683368Y31301287D01*
X3763718Y31495269D01*
X3804680Y31701198D01*
X3804680Y31911162D01*
X3763718Y32117091D01*
X3683368Y32311073D01*
X3566718Y32485651D01*
X3418251Y32634118D01*
X3243673Y32750768D01*
X3049691Y32831118D01*
X2843762Y32872080D01*
X2633798Y32872080D01*
X2427869Y32831118D01*
X2233887Y32750768D01*
X2059309Y32634118D01*
X1910842Y32485651D01*
X1794192Y32311073D01*
X1713842Y32117091D01*
X1672880Y31911162D01*
X1672880Y31701198D01*
X1713842Y31495269D01*
X1791463Y31307876D01*
X-113475Y29402937D01*
X-125592Y29392993D01*
X-165268Y29344647D01*
X-176555Y29323531D01*
X-194751Y29289489D01*
X-212906Y29229640D01*
X-219036Y29167400D01*
X-244500Y29167400D01*
X-244500Y33679465D01*
X-190456Y34230645D01*
X-33444Y34750696D01*
X221592Y35230349D01*
X564933Y35651325D01*
X983508Y35997600D01*
X1461364Y36255976D01*
X1980307Y36416616D01*
X2530725Y36474466D01*
X2540464Y36474500D01*
X46529465Y36474500D01*
X47080645Y36420456D01*
G37*
X47080645Y36420456D02*
X47600696Y36263444D01*
X48080349Y36008408D01*
X48501325Y35665067D01*
X48847600Y35246492D01*
X49105976Y34768636D01*
X49266616Y34249693D01*
X49324466Y33699275D01*
X49324501Y33689249D01*
X49324500Y2700545D01*
X49270456Y2149355D01*
X49113444Y1629304D01*
X48858409Y1149654D01*
X48515070Y728677D01*
X48096492Y382400D01*
X47618640Y124027D01*
X47099694Y-36616D01*
X46549283Y-94466D01*
X46539536Y-94500D01*
X2550545Y-94500D01*
X1999355Y-40456D01*
X1479304Y116556D01*
X999654Y371591D01*
X578677Y714930D01*
X232400Y1133508D01*
X-25973Y1611360D01*
X-186616Y2130306D01*
X-244466Y2680717D01*
X-244500Y2690464D01*
X-244500Y29167400D01*
X-219036Y29167400D01*
X-217499Y29151794D01*
X-217500Y4285596D01*
X-219036Y4270000D01*
X-217500Y4254405D01*
X-212906Y4207760D01*
X-194751Y4147911D01*
X-165269Y4092754D01*
X-125593Y4044407D01*
X-113470Y4034458D01*
X2248464Y1672523D01*
X2258408Y1660406D01*
X2273574Y1647960D01*
X2306754Y1620730D01*
X2361911Y1591248D01*
X2421760Y1573093D01*
X2484001Y1566962D01*
X2499604Y1568499D01*
X7930403Y1568499D01*
X7945999Y1566963D01*
X7961595Y1568499D01*
X8008240Y1573093D01*
X8068089Y1591248D01*
X8123246Y1620730D01*
X8171592Y1660406D01*
X8181541Y1672529D01*
X10480174Y3971162D01*
X41752880Y3971162D01*
X41752880Y3761198D01*
X41793842Y3555269D01*
X41874192Y3361287D01*
X41990842Y3186709D01*
X42139309Y3038242D01*
X42313887Y2921592D01*
X42507869Y2841242D01*
X42713798Y2800280D01*
X42923762Y2800280D01*
X43129691Y2841242D01*
X43323673Y2921592D01*
X43498251Y3038242D01*
X43646718Y3186709D01*
X43763368Y3361287D01*
X43843718Y3555269D01*
X43884680Y3761198D01*
X43884680Y3971162D01*
X44292880Y3971162D01*
X44292880Y3761198D01*
X44333842Y3555269D01*
X44414192Y3361287D01*
X44530842Y3186709D01*
X44679309Y3038242D01*
X44853887Y2921592D01*
X45047869Y2841242D01*
X45253798Y2800280D01*
X45463762Y2800280D01*
X45669691Y2841242D01*
X45863673Y2921592D01*
X46038251Y3038242D01*
X46186718Y3186709D01*
X46303368Y3361287D01*
X46383718Y3555269D01*
X46424680Y3761198D01*
X46424680Y3971162D01*
X46383718Y4177091D01*
X46303368Y4371073D01*
X46186718Y4545651D01*
X46038251Y4694118D01*
X45863673Y4810768D01*
X45669691Y4891118D01*
X45463762Y4932080D01*
X45253798Y4932080D01*
X45047869Y4891118D01*
X44853887Y4810768D01*
X44679309Y4694118D01*
X44530842Y4545651D01*
X44414192Y4371073D01*
X44333842Y4177091D01*
X44292880Y3971162D01*
X43884680Y3971162D01*
X43843718Y4177091D01*
X43763368Y4371073D01*
X43646718Y4545651D01*
X43498251Y4694118D01*
X43323673Y4810768D01*
X43129691Y4891118D01*
X42923762Y4932080D01*
X42713798Y4932080D01*
X42507869Y4891118D01*
X42313887Y4810768D01*
X42139309Y4694118D01*
X41990842Y4545651D01*
X41874192Y4371073D01*
X41793842Y4177091D01*
X41752880Y3971162D01*
X10480174Y3971162D01*
X13020174Y6511162D01*
X41752880Y6511162D01*
X41752880Y6301198D01*
X41793842Y6095269D01*
X41874192Y5901287D01*
X41990842Y5726709D01*
X42139309Y5578242D01*
X42313887Y5461592D01*
X42507869Y5381242D01*
X42713798Y5340280D01*
X42923762Y5340280D01*
X43129691Y5381242D01*
X43323673Y5461592D01*
X43498251Y5578242D01*
X43646718Y5726709D01*
X43763368Y5901287D01*
X43843718Y6095269D01*
X43884680Y6301198D01*
X43884680Y6511162D01*
X44292880Y6511162D01*
X44292880Y6301198D01*
X44333842Y6095269D01*
X44414192Y5901287D01*
X44530842Y5726709D01*
X44679309Y5578242D01*
X44853887Y5461592D01*
X45047869Y5381242D01*
X45253798Y5340280D01*
X45463762Y5340280D01*
X45669691Y5381242D01*
X45863673Y5461592D01*
X46038251Y5578242D01*
X46186718Y5726709D01*
X46303368Y5901287D01*
X46383718Y6095269D01*
X46424680Y6301198D01*
X46424680Y6511162D01*
X46383718Y6717091D01*
X46303368Y6911073D01*
X46186718Y7085651D01*
X46038251Y7234118D01*
X45863673Y7350768D01*
X45669691Y7431118D01*
X45463762Y7472080D01*
X45253798Y7472080D01*
X45047869Y7431118D01*
X44853887Y7350768D01*
X44679309Y7234118D01*
X44530842Y7085651D01*
X44414192Y6911073D01*
X44333842Y6717091D01*
X44292880Y6511162D01*
X43884680Y6511162D01*
X43843718Y6717091D01*
X43763368Y6911073D01*
X43646718Y7085651D01*
X43498251Y7234118D01*
X43323673Y7350768D01*
X43129691Y7431118D01*
X42923762Y7472080D01*
X42713798Y7472080D01*
X42507869Y7431118D01*
X42313887Y7350768D01*
X42139309Y7234118D01*
X41990842Y7085651D01*
X41874192Y6911073D01*
X41793842Y6717091D01*
X41752880Y6511162D01*
X13020174Y6511162D01*
X14677113Y8168100D01*
X14684963Y8168100D01*
X14765313Y8184083D01*
X14841002Y8215435D01*
X14909121Y8260950D01*
X14967050Y8318879D01*
X15012565Y8386998D01*
X15043917Y8462687D01*
X15059900Y8543037D01*
X15059900Y8624963D01*
X15043917Y8705313D01*
X15012565Y8781002D01*
X14967050Y8849121D01*
X14909121Y8907050D01*
X14841002Y8952565D01*
X14765313Y8983917D01*
X14684963Y8999900D01*
X14603037Y8999900D01*
X14522687Y8983917D01*
X14446998Y8952565D01*
X14378879Y8907050D01*
X14320950Y8849121D01*
X14275435Y8781002D01*
X14244083Y8705313D01*
X14228100Y8624963D01*
X14228100Y8617113D01*
X7814487Y2203499D01*
X7323626Y2203499D01*
X7329917Y2218687D01*
X7345900Y2299037D01*
X7345900Y2380963D01*
X7336400Y2428722D01*
X7336400Y4841664D01*
X9523255Y7028519D01*
X9538758Y7041242D01*
X9589544Y7103124D01*
X9627281Y7173725D01*
X9650519Y7250332D01*
X9656400Y7310040D01*
X9656400Y7310046D01*
X9658365Y7329999D01*
X9656400Y7349952D01*
X9656400Y7401664D01*
X10414636Y8159899D01*
X10455121Y8186950D01*
X10513050Y8244879D01*
X10558565Y8312998D01*
X10589917Y8388687D01*
X10605900Y8469037D01*
X10605900Y8550963D01*
X10589917Y8631313D01*
X10558565Y8707002D01*
X10513050Y8775121D01*
X10455121Y8833050D01*
X10387002Y8878565D01*
X10377713Y8882413D01*
X11198100Y8882413D01*
X11198100Y8800487D01*
X11214083Y8720137D01*
X11245435Y8644448D01*
X11290950Y8576329D01*
X11348879Y8518400D01*
X11416998Y8472885D01*
X11492687Y8441533D01*
X11573037Y8425550D01*
X11654963Y8425550D01*
X11735313Y8441533D01*
X11811002Y8472885D01*
X11879121Y8518400D01*
X11937050Y8576329D01*
X11982565Y8644448D01*
X12013917Y8720137D01*
X12029900Y8800487D01*
X12029900Y8882413D01*
X12013917Y8962763D01*
X11982565Y9038452D01*
X11937050Y9106571D01*
X11879121Y9164500D01*
X11811002Y9210015D01*
X11735313Y9241367D01*
X11654963Y9257350D01*
X11573037Y9257350D01*
X11492687Y9241367D01*
X11416998Y9210015D01*
X11348879Y9164500D01*
X11290950Y9106571D01*
X11245435Y9038452D01*
X11214083Y8962763D01*
X11198100Y8882413D01*
X10377713Y8882413D01*
X10311313Y8909917D01*
X10230963Y8925900D01*
X10149037Y8925900D01*
X10068687Y8909917D01*
X9992998Y8878565D01*
X9924879Y8833050D01*
X9866950Y8775121D01*
X9839899Y8734636D01*
X8976741Y7871477D01*
X8961243Y7858758D01*
X8948522Y7843258D01*
X8948518Y7843254D01*
X8937348Y7829643D01*
X8910456Y7796876D01*
X8872719Y7726275D01*
X8849481Y7649668D01*
X8843600Y7589960D01*
X8843600Y7589953D01*
X8841635Y7570000D01*
X8843600Y7550047D01*
X8843600Y7498336D01*
X7055891Y5710627D01*
X7055891Y6933971D01*
X10194421Y10072500D01*
X12138488Y10072500D01*
X12796501Y9414486D01*
X12796500Y8814671D01*
X12790950Y8809121D01*
X12745435Y8741002D01*
X12714083Y8665313D01*
X12698100Y8584963D01*
X12698100Y8503037D01*
X12714083Y8422687D01*
X12745435Y8346998D01*
X12790950Y8278879D01*
X12848879Y8220950D01*
X12916998Y8175435D01*
X12992687Y8144083D01*
X13073037Y8128100D01*
X13154963Y8128100D01*
X13235313Y8144083D01*
X13311002Y8175435D01*
X13379121Y8220950D01*
X13437050Y8278879D01*
X13482565Y8346998D01*
X13513917Y8422687D01*
X13529900Y8503037D01*
X13529900Y8584963D01*
X13513917Y8665313D01*
X13482565Y8741002D01*
X13437050Y8809121D01*
X13431500Y8814671D01*
X13431500Y9530408D01*
X13433036Y9546001D01*
X13431500Y9561596D01*
X13426906Y9608241D01*
X13408751Y9668090D01*
X13379269Y9723247D01*
X13339593Y9771593D01*
X13327476Y9781537D01*
X12505542Y10603470D01*
X12495593Y10615593D01*
X12447247Y10655269D01*
X12392090Y10684751D01*
X12332241Y10702906D01*
X12285596Y10707500D01*
X12270000Y10709036D01*
X12254404Y10707500D01*
X10326513Y10707500D01*
X10343113Y10724100D01*
X10350963Y10724100D01*
X10431313Y10740083D01*
X10507002Y10771435D01*
X10575121Y10816950D01*
X10633050Y10874879D01*
X10678565Y10942998D01*
X10709917Y11018687D01*
X10725900Y11099037D01*
X10725900Y11180963D01*
X10709917Y11261313D01*
X10678565Y11337002D01*
X10633050Y11405121D01*
X10575121Y11463050D01*
X10507002Y11508565D01*
X10431313Y11539917D01*
X10350963Y11555900D01*
X10269037Y11555900D01*
X10188687Y11539917D01*
X10154959Y11525946D01*
X10305647Y11676634D01*
X16932779Y11676636D01*
X16948385Y11675099D01*
X17010625Y11681229D01*
X17070474Y11699384D01*
X17096149Y11713108D01*
X17125632Y11728867D01*
X17173978Y11768543D01*
X17183922Y11780660D01*
X17333601Y11930339D01*
X17333600Y10188337D01*
X17056745Y9911481D01*
X15915366Y8770102D01*
X15874879Y8743050D01*
X15816950Y8685121D01*
X15771435Y8617002D01*
X15740083Y8541313D01*
X15724100Y8460963D01*
X15724100Y8379037D01*
X15740083Y8298687D01*
X15771435Y8222998D01*
X15816950Y8154879D01*
X15874879Y8096950D01*
X15942998Y8051435D01*
X16018687Y8020083D01*
X16099037Y8004100D01*
X16180963Y8004100D01*
X16261313Y8020083D01*
X16337002Y8051435D01*
X16405121Y8096950D01*
X16463050Y8154879D01*
X16490102Y8195366D01*
X17345898Y9051162D01*
X41752880Y9051162D01*
X41752880Y8841198D01*
X41793842Y8635269D01*
X41874192Y8441287D01*
X41990842Y8266709D01*
X42139309Y8118242D01*
X42313887Y8001592D01*
X42507869Y7921242D01*
X42713798Y7880280D01*
X42923762Y7880280D01*
X43129691Y7921242D01*
X43323673Y8001592D01*
X43498251Y8118242D01*
X43646718Y8266709D01*
X43763368Y8441287D01*
X43843718Y8635269D01*
X43884680Y8841198D01*
X43884680Y9051162D01*
X44292880Y9051162D01*
X44292880Y8841198D01*
X44333842Y8635269D01*
X44414192Y8441287D01*
X44530842Y8266709D01*
X44679309Y8118242D01*
X44853887Y8001592D01*
X45047869Y7921242D01*
X45253798Y7880280D01*
X45463762Y7880280D01*
X45669691Y7921242D01*
X45863673Y8001592D01*
X46038251Y8118242D01*
X46186718Y8266709D01*
X46303368Y8441287D01*
X46383718Y8635269D01*
X46424680Y8841198D01*
X46424680Y9051162D01*
X46383718Y9257091D01*
X46303368Y9451073D01*
X46186718Y9625651D01*
X46038251Y9774118D01*
X45863673Y9890768D01*
X45669691Y9971118D01*
X45463762Y10012080D01*
X45253798Y10012080D01*
X45047869Y9971118D01*
X44853887Y9890768D01*
X44679309Y9774118D01*
X44530842Y9625651D01*
X44414192Y9451073D01*
X44333842Y9257091D01*
X44292880Y9051162D01*
X43884680Y9051162D01*
X43843718Y9257091D01*
X43763368Y9451073D01*
X43646718Y9625651D01*
X43498251Y9774118D01*
X43323673Y9890768D01*
X43129691Y9971118D01*
X42923762Y10012080D01*
X42713798Y10012080D01*
X42507869Y9971118D01*
X42313887Y9890768D01*
X42139309Y9774118D01*
X41990842Y9625651D01*
X41874192Y9451073D01*
X41793842Y9257091D01*
X41752880Y9051162D01*
X17345898Y9051162D01*
X17631481Y9336745D01*
X18013260Y9718523D01*
X18028758Y9731242D01*
X18041477Y9746740D01*
X18041482Y9746745D01*
X18063946Y9774118D01*
X18079544Y9793124D01*
X18117281Y9863725D01*
X18140519Y9940332D01*
X18146400Y10000040D01*
X18146400Y10000047D01*
X18148365Y10020000D01*
X18146400Y10039953D01*
X18146400Y11988782D01*
X21696709Y15539090D01*
X23387571Y15539090D01*
X23418199Y15522719D01*
X23494806Y15499481D01*
X23554514Y15493600D01*
X23554521Y15493600D01*
X23574474Y15491635D01*
X23594427Y15493600D01*
X28970047Y15493600D01*
X28990000Y15491635D01*
X29009953Y15493600D01*
X29009960Y15493600D01*
X29069668Y15499481D01*
X29146275Y15522719D01*
X29216876Y15560456D01*
X29278758Y15611242D01*
X29291482Y15626746D01*
X30385699Y16720963D01*
X31864100Y16720963D01*
X31864100Y16639037D01*
X31880083Y16558687D01*
X31911435Y16482998D01*
X31956950Y16414879D01*
X32014879Y16356950D01*
X32082998Y16311435D01*
X32158687Y16280083D01*
X32239037Y16264100D01*
X32246888Y16264100D01*
X37238283Y11272704D01*
X37248227Y11260587D01*
X37296572Y11220912D01*
X37296573Y11220911D01*
X37351730Y11191429D01*
X37411579Y11173274D01*
X37473820Y11167144D01*
X37489416Y11168680D01*
X41796571Y11168680D01*
X41874192Y10981287D01*
X41990842Y10806709D01*
X42139309Y10658242D01*
X42313887Y10541592D01*
X42507869Y10461242D01*
X42713798Y10420280D01*
X42923762Y10420280D01*
X43129691Y10461242D01*
X43323673Y10541592D01*
X43498251Y10658242D01*
X43646718Y10806709D01*
X43763368Y10981287D01*
X43843718Y11175269D01*
X43884680Y11381198D01*
X43884680Y11591162D01*
X43843718Y11797091D01*
X43763368Y11991073D01*
X43646718Y12165651D01*
X43498251Y12314118D01*
X43323673Y12430768D01*
X43129691Y12511118D01*
X42923762Y12552080D01*
X42713798Y12552080D01*
X42507869Y12511118D01*
X42313887Y12430768D01*
X42139309Y12314118D01*
X41990842Y12165651D01*
X41874192Y11991073D01*
X41796571Y11803680D01*
X37605333Y11803680D01*
X35277851Y14131162D01*
X41752880Y14131162D01*
X41752880Y13921198D01*
X41793842Y13715269D01*
X41874192Y13521287D01*
X41990842Y13346709D01*
X42139309Y13198242D01*
X42313887Y13081592D01*
X42507869Y13001242D01*
X42713798Y12960280D01*
X42923762Y12960280D01*
X43129691Y13001242D01*
X43323673Y13081592D01*
X43498251Y13198242D01*
X43646718Y13346709D01*
X43763368Y13521287D01*
X43843718Y13715269D01*
X43884680Y13921198D01*
X43884680Y14131162D01*
X43843718Y14337091D01*
X43763368Y14531073D01*
X43646718Y14705651D01*
X43498251Y14854118D01*
X43323673Y14970768D01*
X43129691Y15051118D01*
X42923762Y15092080D01*
X42713798Y15092080D01*
X42507869Y15051118D01*
X42313887Y14970768D01*
X42139309Y14854118D01*
X41990842Y14705651D01*
X41874192Y14531073D01*
X41793842Y14337091D01*
X41752880Y14131162D01*
X35277851Y14131162D01*
X32695900Y16713112D01*
X32695900Y16720963D01*
X32679917Y16801313D01*
X32648565Y16877002D01*
X32603050Y16945121D01*
X32545121Y17003050D01*
X32528583Y17014100D01*
X32530963Y17014100D01*
X32611313Y17030083D01*
X32687002Y17061435D01*
X32755121Y17106950D01*
X32760671Y17112500D01*
X39758488Y17112500D01*
X41673084Y15197903D01*
X41683028Y15185786D01*
X41731374Y15146110D01*
X41786531Y15116628D01*
X41846380Y15098473D01*
X41893025Y15093879D01*
X41893027Y15093879D01*
X41908620Y15092343D01*
X41924213Y15093879D01*
X43897109Y15093879D01*
X44202141Y14788846D01*
X44208385Y14772699D01*
X44214030Y14754090D01*
X44219639Y14743597D01*
X44223930Y14732500D01*
X44234349Y14716076D01*
X44243513Y14698933D01*
X44251058Y14689739D01*
X44257434Y14679689D01*
X44270854Y14665617D01*
X44273247Y14662701D01*
X44281619Y14654329D01*
X44300597Y14634429D01*
X44303702Y14632246D01*
X44411463Y14524485D01*
X44333842Y14337091D01*
X44292880Y14131162D01*
X44292880Y13921198D01*
X44333842Y13715269D01*
X44414192Y13521287D01*
X44530842Y13346709D01*
X44679309Y13198242D01*
X44853887Y13081592D01*
X45047869Y13001242D01*
X45253798Y12960280D01*
X45463762Y12960280D01*
X45669691Y13001242D01*
X45863673Y13081592D01*
X46038251Y13198242D01*
X46186718Y13346709D01*
X46303368Y13521287D01*
X46383718Y13715269D01*
X46424680Y13921198D01*
X46424680Y14131162D01*
X46383718Y14337091D01*
X46303368Y14531073D01*
X46186718Y14705651D01*
X46038251Y14854118D01*
X45863673Y14970768D01*
X45669691Y15051118D01*
X45463762Y15092080D01*
X45253798Y15092080D01*
X45047869Y15051118D01*
X44863734Y14974847D01*
X44860395Y14983481D01*
X44854750Y15002091D01*
X44849141Y15012584D01*
X44844851Y15023679D01*
X44834436Y15040095D01*
X44825268Y15057248D01*
X44817718Y15066448D01*
X44811347Y15076490D01*
X44797934Y15090555D01*
X44795534Y15093479D01*
X44787141Y15101872D01*
X44768184Y15121750D01*
X44765082Y15123930D01*
X44264163Y15624849D01*
X44254214Y15636972D01*
X44205868Y15676648D01*
X44150711Y15706130D01*
X44090862Y15724285D01*
X44044217Y15728879D01*
X44028621Y15730415D01*
X44013025Y15728879D01*
X43484238Y15728879D01*
X43498251Y15738242D01*
X43646718Y15886709D01*
X43763368Y16061287D01*
X43843718Y16255269D01*
X43884680Y16461198D01*
X43884680Y16671162D01*
X43843718Y16877091D01*
X43763368Y17071073D01*
X43646718Y17245651D01*
X43498251Y17394118D01*
X43323673Y17510768D01*
X43129691Y17591118D01*
X42971924Y17622500D01*
X45205636Y17622500D01*
X45047869Y17591118D01*
X44853887Y17510768D01*
X44679309Y17394118D01*
X44530842Y17245651D01*
X44414192Y17071073D01*
X44333842Y16877091D01*
X44292880Y16671162D01*
X44292880Y16461198D01*
X44333842Y16255269D01*
X44414192Y16061287D01*
X44530842Y15886709D01*
X44679309Y15738242D01*
X44853887Y15621592D01*
X45047869Y15541242D01*
X45253798Y15500280D01*
X45463762Y15500280D01*
X45669691Y15541242D01*
X45863673Y15621592D01*
X46038251Y15738242D01*
X46186718Y15886709D01*
X46303368Y16061287D01*
X46383718Y16255269D01*
X46424680Y16461198D01*
X46424680Y16671162D01*
X46383718Y16877091D01*
X46303368Y17071073D01*
X46186718Y17245651D01*
X46038251Y17394118D01*
X45863673Y17510768D01*
X45669691Y17591118D01*
X45511924Y17622500D01*
X46008488Y17622500D01*
X46472500Y17158487D01*
X46472501Y13048914D01*
X45857085Y12433497D01*
X45669691Y12511118D01*
X45463762Y12552080D01*
X45253798Y12552080D01*
X45047869Y12511118D01*
X44853887Y12430768D01*
X44679309Y12314118D01*
X44530842Y12165651D01*
X44414192Y11991073D01*
X44333842Y11797091D01*
X44292880Y11591162D01*
X44292880Y11381198D01*
X44333842Y11175269D01*
X44414192Y10981287D01*
X44530842Y10806709D01*
X44679309Y10658242D01*
X44853887Y10541592D01*
X45047869Y10461242D01*
X45253798Y10420280D01*
X45463762Y10420280D01*
X45669691Y10461242D01*
X45863673Y10541592D01*
X46038251Y10658242D01*
X46186718Y10806709D01*
X46303368Y10981287D01*
X46383718Y11175269D01*
X46424680Y11381198D01*
X46424680Y11591162D01*
X46383718Y11797091D01*
X46306097Y11984485D01*
X47003476Y12681863D01*
X47015593Y12691807D01*
X47055269Y12740153D01*
X47084751Y12795310D01*
X47102906Y12855159D01*
X47107500Y12901804D01*
X47109036Y12917400D01*
X47107500Y12932996D01*
X47107500Y17274404D01*
X47109036Y17290000D01*
X47106353Y17317247D01*
X47102906Y17352241D01*
X47084751Y17412090D01*
X47055269Y17467247D01*
X47015593Y17515593D01*
X47003477Y17525536D01*
X46375542Y18153470D01*
X46365593Y18165593D01*
X46317247Y18205269D01*
X46262090Y18234751D01*
X46202241Y18252906D01*
X46155596Y18257500D01*
X46140000Y18259036D01*
X46124404Y18257500D01*
X46007209Y18257500D01*
X46038251Y18278242D01*
X46186718Y18426709D01*
X46303368Y18601287D01*
X46383718Y18795269D01*
X46424680Y19001198D01*
X46424680Y19211162D01*
X46383718Y19417091D01*
X46303368Y19611073D01*
X46186718Y19785651D01*
X46038251Y19934118D01*
X45863673Y20050768D01*
X45669691Y20131118D01*
X45463762Y20172080D01*
X45253798Y20172080D01*
X45047869Y20131118D01*
X44853887Y20050768D01*
X44679309Y19934118D01*
X44530842Y19785651D01*
X44414192Y19611073D01*
X44333842Y19417091D01*
X44292880Y19211162D01*
X44292880Y19001198D01*
X44333842Y18795269D01*
X44414192Y18601287D01*
X44530842Y18426709D01*
X44679309Y18278242D01*
X44710351Y18257500D01*
X43467209Y18257500D01*
X43498251Y18278242D01*
X43646718Y18426709D01*
X43763368Y18601287D01*
X43843718Y18795269D01*
X43884680Y19001198D01*
X43884680Y19211162D01*
X43843718Y19417091D01*
X43763368Y19611073D01*
X43646718Y19785651D01*
X43498251Y19934118D01*
X43323673Y20050768D01*
X43129691Y20131118D01*
X42923762Y20172080D01*
X42713798Y20172080D01*
X42507869Y20131118D01*
X42313887Y20050768D01*
X42139309Y19934118D01*
X41990842Y19785651D01*
X41874192Y19611073D01*
X41793842Y19417091D01*
X41752880Y19211162D01*
X41752880Y19001198D01*
X41793842Y18795269D01*
X41874192Y18601287D01*
X41990842Y18426709D01*
X42139309Y18278242D01*
X42280340Y18184008D01*
X42257901Y18165593D01*
X42247957Y18153476D01*
X41641982Y17547500D01*
X41430671Y17547500D01*
X41425121Y17553050D01*
X41357002Y17598565D01*
X41281313Y17629917D01*
X41200963Y17645900D01*
X41119037Y17645900D01*
X41038687Y17629917D01*
X40962998Y17598565D01*
X40894879Y17553050D01*
X40836950Y17495121D01*
X40791435Y17427002D01*
X40760083Y17351313D01*
X40744100Y17270963D01*
X40744100Y17189037D01*
X40760083Y17108687D01*
X40791435Y17032998D01*
X40836950Y16964879D01*
X40894879Y16906950D01*
X40962998Y16861435D01*
X41038687Y16830083D01*
X41119037Y16814100D01*
X41200963Y16814100D01*
X41281313Y16830083D01*
X41357002Y16861435D01*
X41425121Y16906950D01*
X41430671Y16912500D01*
X41757898Y16912500D01*
X41773494Y16910964D01*
X41789090Y16912500D01*
X41809335Y16914494D01*
X41793842Y16877091D01*
X41752880Y16671162D01*
X41752880Y16461198D01*
X41793842Y16255269D01*
X41874192Y16061287D01*
X41990842Y15886709D01*
X42139309Y15738242D01*
X42153322Y15728879D01*
X42040134Y15728879D01*
X40125542Y17643470D01*
X40115593Y17655593D01*
X40067247Y17695269D01*
X40012090Y17724751D01*
X39952241Y17742906D01*
X39905596Y17747500D01*
X39890000Y17749036D01*
X39874404Y17747500D01*
X32760671Y17747500D01*
X32755121Y17753050D01*
X32687002Y17798565D01*
X32611313Y17829917D01*
X32530963Y17845900D01*
X32449037Y17845900D01*
X32368687Y17829917D01*
X32292998Y17798565D01*
X32224879Y17753050D01*
X32166950Y17695121D01*
X32121435Y17627002D01*
X32090083Y17551313D01*
X32074100Y17470963D01*
X32074100Y17389037D01*
X32090083Y17308687D01*
X32121435Y17232998D01*
X32166950Y17164879D01*
X32224879Y17106950D01*
X32241417Y17095900D01*
X32239037Y17095900D01*
X32158687Y17079917D01*
X32082998Y17048565D01*
X32014879Y17003050D01*
X31956950Y16945121D01*
X31911435Y16877002D01*
X31880083Y16801313D01*
X31864100Y16720963D01*
X30385699Y16720963D01*
X32548337Y18883600D01*
X37710047Y18883600D01*
X37730000Y18881635D01*
X37749953Y18883600D01*
X37749960Y18883600D01*
X37809668Y18889481D01*
X37886275Y18912719D01*
X37956876Y18950456D01*
X38018758Y19001242D01*
X38031482Y19016746D01*
X40765898Y21751162D01*
X41752880Y21751162D01*
X41752880Y21541198D01*
X41793842Y21335269D01*
X41874192Y21141287D01*
X41990842Y20966709D01*
X42139309Y20818242D01*
X42313887Y20701592D01*
X42507869Y20621242D01*
X42713798Y20580280D01*
X42923762Y20580280D01*
X43129691Y20621242D01*
X43323673Y20701592D01*
X43498251Y20818242D01*
X43646718Y20966709D01*
X43763368Y21141287D01*
X43843718Y21335269D01*
X43884680Y21541198D01*
X43884680Y21751162D01*
X44292880Y21751162D01*
X44292880Y21541198D01*
X44333842Y21335269D01*
X44414192Y21141287D01*
X44530842Y20966709D01*
X44679309Y20818242D01*
X44853887Y20701592D01*
X45047869Y20621242D01*
X45253798Y20580280D01*
X45463762Y20580280D01*
X45669691Y20621242D01*
X45863673Y20701592D01*
X46038251Y20818242D01*
X46186718Y20966709D01*
X46303368Y21141287D01*
X46383718Y21335269D01*
X46424680Y21541198D01*
X46424680Y21751162D01*
X46383718Y21957091D01*
X46303368Y22151073D01*
X46186718Y22325651D01*
X46038251Y22474118D01*
X45863673Y22590768D01*
X45669691Y22671118D01*
X45463762Y22712080D01*
X45253798Y22712080D01*
X45047869Y22671118D01*
X44853887Y22590768D01*
X44679309Y22474118D01*
X44530842Y22325651D01*
X44414192Y22151073D01*
X44333842Y21957091D01*
X44292880Y21751162D01*
X43884680Y21751162D01*
X43843718Y21957091D01*
X43763368Y22151073D01*
X43646718Y22325651D01*
X43498251Y22474118D01*
X43323673Y22590768D01*
X43129691Y22671118D01*
X42923762Y22712080D01*
X42713798Y22712080D01*
X42507869Y22671118D01*
X42313887Y22590768D01*
X42139309Y22474118D01*
X41990842Y22325651D01*
X41874192Y22151073D01*
X41793842Y21957091D01*
X41752880Y21751162D01*
X40765898Y21751162D01*
X41133255Y22118519D01*
X41148758Y22131242D01*
X41199544Y22193124D01*
X41237281Y22263725D01*
X41257677Y22330964D01*
X41260519Y22340331D01*
X41262677Y22362242D01*
X41266400Y22400040D01*
X41266400Y22400046D01*
X41268365Y22419999D01*
X41266400Y22439952D01*
X41266400Y24291162D01*
X41752880Y24291162D01*
X41752880Y24081198D01*
X41793842Y23875269D01*
X41874192Y23681287D01*
X41990842Y23506709D01*
X42139309Y23358242D01*
X42313887Y23241592D01*
X42507869Y23161242D01*
X42713798Y23120280D01*
X42923762Y23120280D01*
X43129691Y23161242D01*
X43323673Y23241592D01*
X43498251Y23358242D01*
X43646718Y23506709D01*
X43763368Y23681287D01*
X43843718Y23875269D01*
X43884680Y24081198D01*
X43884680Y24291162D01*
X44292880Y24291162D01*
X44292880Y24081198D01*
X44333842Y23875269D01*
X44414192Y23681287D01*
X44530842Y23506709D01*
X44679309Y23358242D01*
X44853887Y23241592D01*
X45047869Y23161242D01*
X45253798Y23120280D01*
X45463762Y23120280D01*
X45669691Y23161242D01*
X45863673Y23241592D01*
X46038251Y23358242D01*
X46186718Y23506709D01*
X46303368Y23681287D01*
X46383718Y23875269D01*
X46424680Y24081198D01*
X46424680Y24291162D01*
X46383718Y24497091D01*
X46303368Y24691073D01*
X46186718Y24865651D01*
X46038251Y25014118D01*
X45863673Y25130768D01*
X45669691Y25211118D01*
X45463762Y25252080D01*
X45253798Y25252080D01*
X45047869Y25211118D01*
X44853887Y25130768D01*
X44679309Y25014118D01*
X44530842Y24865651D01*
X44414192Y24691073D01*
X44333842Y24497091D01*
X44292880Y24291162D01*
X43884680Y24291162D01*
X43843718Y24497091D01*
X43763368Y24691073D01*
X43646718Y24865651D01*
X43498251Y25014118D01*
X43323673Y25130768D01*
X43129691Y25211118D01*
X42923762Y25252080D01*
X42713798Y25252080D01*
X42507869Y25211118D01*
X42313887Y25130768D01*
X42139309Y25014118D01*
X41990842Y24865651D01*
X41874192Y24691073D01*
X41793842Y24497091D01*
X41752880Y24291162D01*
X41266400Y24291162D01*
X41266400Y26831162D01*
X41752880Y26831162D01*
X41752880Y26621198D01*
X41793842Y26415269D01*
X41874192Y26221287D01*
X41990842Y26046709D01*
X42139309Y25898242D01*
X42313887Y25781592D01*
X42507869Y25701242D01*
X42713798Y25660280D01*
X42923762Y25660280D01*
X43129691Y25701242D01*
X43323673Y25781592D01*
X43498251Y25898242D01*
X43646718Y26046709D01*
X43763368Y26221287D01*
X43843718Y26415269D01*
X43884680Y26621198D01*
X43884680Y26831162D01*
X44292880Y26831162D01*
X44292880Y26621198D01*
X44333842Y26415269D01*
X44414192Y26221287D01*
X44530842Y26046709D01*
X44679309Y25898242D01*
X44853887Y25781592D01*
X45047869Y25701242D01*
X45253798Y25660280D01*
X45463762Y25660280D01*
X45669691Y25701242D01*
X45863673Y25781592D01*
X46038251Y25898242D01*
X46186718Y26046709D01*
X46303368Y26221287D01*
X46383718Y26415269D01*
X46424680Y26621198D01*
X46424680Y26831162D01*
X46383718Y27037091D01*
X46303368Y27231073D01*
X46186718Y27405651D01*
X46038251Y27554118D01*
X45863673Y27670768D01*
X45669691Y27751118D01*
X45463762Y27792080D01*
X45253798Y27792080D01*
X45047869Y27751118D01*
X44853887Y27670768D01*
X44679309Y27554118D01*
X44530842Y27405651D01*
X44414192Y27231073D01*
X44333842Y27037091D01*
X44292880Y26831162D01*
X43884680Y26831162D01*
X43843718Y27037091D01*
X43763368Y27231073D01*
X43646718Y27405651D01*
X43498251Y27554118D01*
X43323673Y27670768D01*
X43129691Y27751118D01*
X42923762Y27792080D01*
X42713798Y27792080D01*
X42507869Y27751118D01*
X42313887Y27670768D01*
X42139309Y27554118D01*
X41990842Y27405651D01*
X41874192Y27231073D01*
X41793842Y27037091D01*
X41752880Y26831162D01*
X41266400Y26831162D01*
X41266400Y29371162D01*
X41752880Y29371162D01*
X41752880Y29161198D01*
X41793842Y28955269D01*
X41874192Y28761287D01*
X41990842Y28586709D01*
X42139309Y28438242D01*
X42313887Y28321592D01*
X42507869Y28241242D01*
X42713798Y28200280D01*
X42923762Y28200280D01*
X43129691Y28241242D01*
X43323673Y28321592D01*
X43498251Y28438242D01*
X43646718Y28586709D01*
X43763368Y28761287D01*
X43843718Y28955269D01*
X43884680Y29161198D01*
X43884680Y29371162D01*
X44292880Y29371162D01*
X44292880Y29161198D01*
X44333842Y28955269D01*
X44414192Y28761287D01*
X44530842Y28586709D01*
X44679309Y28438242D01*
X44853887Y28321592D01*
X45047869Y28241242D01*
X45253798Y28200280D01*
X45463762Y28200280D01*
X45669691Y28241242D01*
X45863673Y28321592D01*
X46038251Y28438242D01*
X46186718Y28586709D01*
X46303368Y28761287D01*
X46383718Y28955269D01*
X46424680Y29161198D01*
X46424680Y29371162D01*
X46383718Y29577091D01*
X46303368Y29771073D01*
X46186718Y29945651D01*
X46038251Y30094118D01*
X45863673Y30210768D01*
X45669691Y30291118D01*
X45463762Y30332080D01*
X45253798Y30332080D01*
X45047869Y30291118D01*
X44853887Y30210768D01*
X44679309Y30094118D01*
X44530842Y29945651D01*
X44414192Y29771073D01*
X44333842Y29577091D01*
X44292880Y29371162D01*
X43884680Y29371162D01*
X43843718Y29577091D01*
X43763368Y29771073D01*
X43646718Y29945651D01*
X43498251Y30094118D01*
X43323673Y30210768D01*
X43129691Y30291118D01*
X42923762Y30332080D01*
X42713798Y30332080D01*
X42507869Y30291118D01*
X42313887Y30210768D01*
X42139309Y30094118D01*
X41990842Y29945651D01*
X41874192Y29771073D01*
X41793842Y29577091D01*
X41752880Y29371162D01*
X41266400Y29371162D01*
X41266400Y29541278D01*
X41275900Y29589037D01*
X41275900Y29670963D01*
X41259917Y29751313D01*
X41228565Y29827002D01*
X41183050Y29895121D01*
X41125121Y29953050D01*
X41057002Y29998565D01*
X40981313Y30029917D01*
X40900963Y30045900D01*
X40819037Y30045900D01*
X40738687Y30029917D01*
X40662998Y29998565D01*
X40594879Y29953050D01*
X40536950Y29895121D01*
X40491435Y29827002D01*
X40460083Y29751313D01*
X40444100Y29670963D01*
X40444100Y29589037D01*
X40453601Y29541273D01*
X40453600Y22588336D01*
X37561664Y19696400D01*
X32399953Y19696400D01*
X32380000Y19698365D01*
X32360047Y19696400D01*
X32360040Y19696400D01*
X32307604Y19691235D01*
X32300331Y19690519D01*
X32225304Y19667760D01*
X32223725Y19667281D01*
X32153124Y19629544D01*
X32130617Y19611073D01*
X32106745Y19591482D01*
X32106740Y19591477D01*
X32091242Y19578758D01*
X32078523Y19563260D01*
X28821664Y16306400D01*
X23715887Y16306400D01*
X23685259Y16322771D01*
X23608652Y16346009D01*
X23548944Y16351890D01*
X23548937Y16351890D01*
X23535005Y16353262D01*
X23652650Y16454100D01*
X23690963Y16454100D01*
X23771313Y16470083D01*
X23847002Y16501435D01*
X23915121Y16546950D01*
X23973050Y16604879D01*
X24018565Y16672998D01*
X24049917Y16748687D01*
X24065900Y16829037D01*
X24065900Y16910963D01*
X24049917Y16991313D01*
X24018565Y17067002D01*
X23973050Y17135121D01*
X23915121Y17193050D01*
X23847002Y17238565D01*
X23771313Y17269917D01*
X23690963Y17285900D01*
X23609037Y17285900D01*
X23528687Y17269917D01*
X23452998Y17238565D01*
X23384879Y17193050D01*
X23326950Y17135121D01*
X23281435Y17067002D01*
X23250083Y16991313D01*
X23239070Y16935946D01*
X22972550Y16707500D01*
X21536013Y16707500D01*
X21650171Y16821658D01*
X21654879Y16816950D01*
X21722998Y16771435D01*
X21798687Y16740083D01*
X21879037Y16724100D01*
X21960963Y16724100D01*
X22041313Y16740083D01*
X22117002Y16771435D01*
X22185121Y16816950D01*
X22243050Y16874879D01*
X22288565Y16942998D01*
X22319917Y17018687D01*
X22334349Y17091241D01*
X22337157Y17090964D01*
X22349636Y17092193D01*
X22354879Y17086950D01*
X22422998Y17041435D01*
X22498687Y17010083D01*
X22579037Y16994100D01*
X22660963Y16994100D01*
X22741313Y17010083D01*
X22817002Y17041435D01*
X22885121Y17086950D01*
X22943050Y17144879D01*
X22988565Y17212998D01*
X23019917Y17288687D01*
X23035900Y17369037D01*
X23035900Y17450963D01*
X23019917Y17531313D01*
X22988565Y17607002D01*
X22943050Y17675121D01*
X22885121Y17733050D01*
X22817002Y17778565D01*
X22741313Y17809917D01*
X22660963Y17825900D01*
X22579037Y17825900D01*
X22498687Y17809917D01*
X22422998Y17778565D01*
X22419765Y17776405D01*
X22322699Y17873471D01*
X22312751Y17885593D01*
X22264405Y17925269D01*
X22209248Y17954751D01*
X22149399Y17972906D01*
X22102754Y17977500D01*
X22087158Y17979036D01*
X22071562Y17977500D01*
X21656513Y17977500D01*
X21711513Y18032500D01*
X22479329Y18032500D01*
X22484879Y18026950D01*
X22552998Y17981435D01*
X22628687Y17950083D01*
X22709037Y17934100D01*
X22790963Y17934100D01*
X22871313Y17950083D01*
X22947002Y17981435D01*
X23015121Y18026950D01*
X23073050Y18084879D01*
X23118565Y18152998D01*
X23149917Y18228687D01*
X23165900Y18309037D01*
X23165900Y18390963D01*
X23149917Y18471313D01*
X23118565Y18547002D01*
X23073050Y18615121D01*
X23015121Y18673050D01*
X22947002Y18718565D01*
X22871313Y18749917D01*
X22790963Y18765900D01*
X22709037Y18765900D01*
X22628687Y18749917D01*
X22552998Y18718565D01*
X22484879Y18673050D01*
X22479329Y18667500D01*
X21595592Y18667500D01*
X21579999Y18669036D01*
X21564406Y18667500D01*
X21564404Y18667500D01*
X21517759Y18662906D01*
X21457910Y18644751D01*
X21402753Y18615269D01*
X21354407Y18575593D01*
X21344463Y18563476D01*
X20939910Y18158923D01*
X20945900Y18189037D01*
X20945900Y18270963D01*
X20929917Y18351313D01*
X20898565Y18427002D01*
X20853050Y18495121D01*
X20795121Y18553050D01*
X20727002Y18598565D01*
X20651313Y18629917D01*
X20635057Y18633151D01*
X20843258Y18841351D01*
X20902998Y18801435D01*
X20978687Y18770083D01*
X21059037Y18754100D01*
X21140963Y18754100D01*
X21221313Y18770083D01*
X21297002Y18801435D01*
X21365121Y18846950D01*
X21423050Y18904879D01*
X21468565Y18972998D01*
X21499917Y19048687D01*
X21515900Y19129037D01*
X21515900Y19210963D01*
X21499917Y19291313D01*
X21468565Y19367002D01*
X21423050Y19435121D01*
X21365121Y19493050D01*
X21297002Y19538565D01*
X21221313Y19569917D01*
X21140963Y19585900D01*
X21059037Y19585900D01*
X20978687Y19569917D01*
X20902998Y19538565D01*
X20834879Y19493050D01*
X20829329Y19487500D01*
X20738486Y19487500D01*
X20722893Y19489036D01*
X20707300Y19487500D01*
X20707298Y19487500D01*
X20660653Y19482906D01*
X20600804Y19464751D01*
X20545647Y19435269D01*
X20497301Y19395593D01*
X20487357Y19383476D01*
X18486530Y17382648D01*
X18474407Y17372699D01*
X18434731Y17324352D01*
X18414178Y17285900D01*
X18405249Y17269195D01*
X18387094Y17209346D01*
X18380964Y17147106D01*
X18382500Y17131510D01*
X18382500Y16891861D01*
X15824753Y14343680D01*
X6300989Y14343680D01*
X6223368Y14531073D01*
X6106718Y14705651D01*
X5958251Y14854118D01*
X5783673Y14970768D01*
X5589691Y15051118D01*
X5383762Y15092080D01*
X5173798Y15092080D01*
X4967869Y15051118D01*
X4773887Y14970768D01*
X4599309Y14854118D01*
X4450842Y14705651D01*
X4334192Y14531073D01*
X4253842Y14337091D01*
X4212880Y14131162D01*
X4212880Y13921198D01*
X4253842Y13715269D01*
X4334192Y13521287D01*
X4450842Y13346709D01*
X4599309Y13198242D01*
X4613322Y13188879D01*
X4139571Y13188879D01*
X4123978Y13190415D01*
X4108385Y13188879D01*
X4108383Y13188879D01*
X4061738Y13184285D01*
X4001889Y13166130D01*
X3946732Y13136648D01*
X3898386Y13096972D01*
X3888444Y13084857D01*
X3237085Y12433497D01*
X3049691Y12511118D01*
X2843762Y12552080D01*
X2633798Y12552080D01*
X2427869Y12511118D01*
X2233887Y12430768D01*
X2059309Y12314118D01*
X1910842Y12165651D01*
X1794192Y11991073D01*
X1713842Y11797091D01*
X1672880Y11591162D01*
X1672880Y11381198D01*
X1713842Y11175269D01*
X1794192Y10981287D01*
X1910842Y10806709D01*
X2059309Y10658242D01*
X2233887Y10541592D01*
X2427869Y10461242D01*
X2633798Y10420280D01*
X2843762Y10420280D01*
X3049691Y10461242D01*
X3243673Y10541592D01*
X3418251Y10658242D01*
X3566718Y10806709D01*
X3683368Y10981287D01*
X3763718Y11175269D01*
X3804680Y11381198D01*
X3804680Y11591162D01*
X3763718Y11797091D01*
X3686097Y11984485D01*
X4255492Y12553879D01*
X8445783Y12553879D01*
X8461379Y12552343D01*
X8476975Y12553879D01*
X8523620Y12558473D01*
X8546358Y12565371D01*
X7784668Y11803680D01*
X6300989Y11803680D01*
X6223368Y11991073D01*
X6106718Y12165651D01*
X5958251Y12314118D01*
X5783673Y12430768D01*
X5589691Y12511118D01*
X5383762Y12552080D01*
X5173798Y12552080D01*
X4967869Y12511118D01*
X4773887Y12430768D01*
X4599309Y12314118D01*
X4450842Y12165651D01*
X4334192Y11991073D01*
X4253842Y11797091D01*
X4212880Y11591162D01*
X4212880Y11381198D01*
X4253842Y11175269D01*
X4334192Y10981287D01*
X4450842Y10806709D01*
X4599309Y10658242D01*
X4613322Y10648879D01*
X4139571Y10648879D01*
X4123978Y10650415D01*
X4108385Y10648879D01*
X4108383Y10648879D01*
X4061738Y10644285D01*
X4001889Y10626130D01*
X3946732Y10596648D01*
X3898386Y10556972D01*
X3888444Y10544857D01*
X3237085Y9893497D01*
X3049691Y9971118D01*
X2843762Y10012080D01*
X2633798Y10012080D01*
X2427869Y9971118D01*
X2233887Y9890768D01*
X2059309Y9774118D01*
X1910842Y9625651D01*
X1794192Y9451073D01*
X1713842Y9257091D01*
X1672880Y9051162D01*
X1672880Y8841198D01*
X1713842Y8635269D01*
X1794192Y8441287D01*
X1910842Y8266709D01*
X2059309Y8118242D01*
X2233887Y8001592D01*
X2427869Y7921242D01*
X2633798Y7880280D01*
X2843762Y7880280D01*
X3049691Y7921242D01*
X3243673Y8001592D01*
X3418251Y8118242D01*
X3566718Y8266709D01*
X3683368Y8441287D01*
X3763718Y8635269D01*
X3804680Y8841198D01*
X3804680Y9051162D01*
X3763718Y9257091D01*
X3686097Y9444485D01*
X4255492Y10013879D01*
X7144367Y10013879D01*
X6394168Y9263680D01*
X6300989Y9263680D01*
X6223368Y9451073D01*
X6106718Y9625651D01*
X5958251Y9774118D01*
X5783673Y9890768D01*
X5589691Y9971118D01*
X5383762Y10012080D01*
X5173798Y10012080D01*
X4967869Y9971118D01*
X4773887Y9890768D01*
X4599309Y9774118D01*
X4450842Y9625651D01*
X4334192Y9451073D01*
X4253842Y9257091D01*
X4212880Y9051162D01*
X4212880Y8841198D01*
X4253842Y8635269D01*
X4334192Y8441287D01*
X4450842Y8266709D01*
X4599309Y8118242D01*
X4630351Y8097500D01*
X4128196Y8097500D01*
X4112600Y8099036D01*
X4097004Y8097500D01*
X4050359Y8092906D01*
X3990510Y8074751D01*
X3935353Y8045269D01*
X3887007Y8005593D01*
X3877065Y7993478D01*
X3237085Y7353497D01*
X3049691Y7431118D01*
X2843762Y7472080D01*
X2633798Y7472080D01*
X2427869Y7431118D01*
X2233887Y7350768D01*
X2059309Y7234118D01*
X1910842Y7085651D01*
X1794192Y6911073D01*
X1713842Y6717091D01*
X1672880Y6511162D01*
X1672880Y6301198D01*
X1713842Y6095269D01*
X1791693Y5907319D01*
X1221890Y6477122D01*
X1221890Y14131162D01*
X1672880Y14131162D01*
X1672880Y13921198D01*
X1713842Y13715269D01*
X1794192Y13521287D01*
X1910842Y13346709D01*
X2059309Y13198242D01*
X2233887Y13081592D01*
X2427869Y13001242D01*
X2633798Y12960280D01*
X2843762Y12960280D01*
X3049691Y13001242D01*
X3243673Y13081592D01*
X3418251Y13198242D01*
X3566718Y13346709D01*
X3683368Y13521287D01*
X3763718Y13715269D01*
X3804680Y13921198D01*
X3804680Y14131162D01*
X3763718Y14337091D01*
X3683368Y14531073D01*
X3566718Y14705651D01*
X3418251Y14854118D01*
X3243673Y14970768D01*
X3049691Y15051118D01*
X2843762Y15092080D01*
X2633798Y15092080D01*
X2427869Y15051118D01*
X2233887Y14970768D01*
X2059309Y14854118D01*
X1910842Y14705651D01*
X1794192Y14531073D01*
X1713842Y14337091D01*
X1672880Y14131162D01*
X1221890Y14131162D01*
X1221890Y18419098D01*
X2023642Y17617345D01*
X2032759Y17606068D01*
X2045693Y17595294D01*
X2046521Y17594466D01*
X2057745Y17585254D01*
X2080813Y17566039D01*
X2081840Y17565480D01*
X2082753Y17564731D01*
X2109421Y17550477D01*
X2135752Y17536153D01*
X2136870Y17535805D01*
X2137910Y17535249D01*
X2166779Y17526492D01*
X2195466Y17517559D01*
X2196634Y17517435D01*
X2197759Y17517094D01*
X2227734Y17514142D01*
X2239121Y17512936D01*
X2233887Y17510768D01*
X2059309Y17394118D01*
X1910842Y17245651D01*
X1794192Y17071073D01*
X1713842Y16877091D01*
X1672880Y16671162D01*
X1672880Y16461198D01*
X1713842Y16255269D01*
X1794192Y16061287D01*
X1910842Y15886709D01*
X2059309Y15738242D01*
X2233887Y15621592D01*
X2427869Y15541242D01*
X2633798Y15500280D01*
X2843762Y15500280D01*
X3049691Y15541242D01*
X3243673Y15621592D01*
X3418251Y15738242D01*
X3566718Y15886709D01*
X3683368Y16061287D01*
X3763718Y16255269D01*
X3804680Y16461198D01*
X3804680Y16671162D01*
X3763718Y16877091D01*
X3683368Y17071073D01*
X3566718Y17245651D01*
X3418251Y17394118D01*
X3251983Y17505216D01*
X4749143Y17494234D01*
X4599309Y17394118D01*
X4450842Y17245651D01*
X4334192Y17071073D01*
X4253842Y16877091D01*
X4212880Y16671162D01*
X4212880Y16461198D01*
X4253842Y16255269D01*
X4334192Y16061287D01*
X4450842Y15886709D01*
X4599309Y15738242D01*
X4773887Y15621592D01*
X4967869Y15541242D01*
X5173798Y15500280D01*
X5383762Y15500280D01*
X5589691Y15541242D01*
X5783673Y15621592D01*
X5958251Y15738242D01*
X6106718Y15886709D01*
X6223368Y16061287D01*
X6303718Y16255269D01*
X6344680Y16461198D01*
X6344680Y16671162D01*
X6303718Y16877091D01*
X6223368Y17071073D01*
X6106718Y17245651D01*
X5958251Y17394118D01*
X5820174Y17486378D01*
X6333234Y17482615D01*
X6350000Y17480964D01*
X6380039Y17483922D01*
X6409944Y17486646D01*
X6411071Y17486979D01*
X6412240Y17487094D01*
X6441076Y17495841D01*
X6469924Y17504362D01*
X6470962Y17504907D01*
X6472089Y17505249D01*
X6498651Y17519447D01*
X6525296Y17533439D01*
X6526211Y17534179D01*
X6527246Y17534732D01*
X6550480Y17553799D01*
X6573932Y17572759D01*
X6584711Y17585699D01*
X7243476Y18244463D01*
X7255593Y18254407D01*
X7295269Y18302753D01*
X7324751Y18357910D01*
X7342906Y18417759D01*
X7347500Y18464404D01*
X7347500Y18464406D01*
X7349036Y18479999D01*
X7347500Y18495592D01*
X7347500Y20823738D01*
X7629887Y21106124D01*
X7642003Y21116067D01*
X7681679Y21164413D01*
X7711161Y21219570D01*
X7729316Y21279419D01*
X7733910Y21326064D01*
X7733910Y21326066D01*
X7735446Y21341659D01*
X7733910Y21357252D01*
X7733910Y22350148D01*
X9207464Y23823701D01*
X9207468Y23823706D01*
X9383692Y23999929D01*
X9402496Y24009980D01*
X9450842Y24049656D01*
X9460791Y24061779D01*
X9502282Y24103270D01*
X10362640Y24103270D01*
X10302998Y24078565D01*
X10234879Y24033050D01*
X10176950Y23975121D01*
X10131435Y23907002D01*
X10100083Y23831313D01*
X10084100Y23750963D01*
X10084100Y23669037D01*
X10100083Y23588687D01*
X10131435Y23512998D01*
X10176950Y23444879D01*
X10234879Y23386950D01*
X10302998Y23341435D01*
X10378687Y23310083D01*
X10459037Y23294100D01*
X10540963Y23294100D01*
X10621313Y23310083D01*
X10697002Y23341435D01*
X10765121Y23386950D01*
X10770671Y23392500D01*
X11180896Y23392500D01*
X14112509Y20460886D01*
X14122453Y20448769D01*
X14170799Y20409093D01*
X14225956Y20379611D01*
X14285805Y20361456D01*
X14332450Y20356862D01*
X14332452Y20356862D01*
X14348045Y20355326D01*
X14363638Y20356862D01*
X29668766Y20356862D01*
X29684362Y20355326D01*
X29699958Y20356862D01*
X29746603Y20361456D01*
X29806452Y20379611D01*
X29861609Y20409093D01*
X29909955Y20448769D01*
X29919904Y20460892D01*
X31141513Y21682500D01*
X31319329Y21682500D01*
X31324879Y21676950D01*
X31392998Y21631435D01*
X31468687Y21600083D01*
X31549037Y21584100D01*
X31630963Y21584100D01*
X31711313Y21600083D01*
X31787002Y21631435D01*
X31855121Y21676950D01*
X31913050Y21734879D01*
X31958565Y21802998D01*
X31989917Y21878687D01*
X32005900Y21959037D01*
X32005900Y22040963D01*
X31989917Y22121313D01*
X31958565Y22197002D01*
X31913050Y22265121D01*
X31855121Y22323050D01*
X31787002Y22368565D01*
X31711313Y22399917D01*
X31630963Y22415900D01*
X31549037Y22415900D01*
X31468687Y22399917D01*
X31392998Y22368565D01*
X31324879Y22323050D01*
X31319329Y22317500D01*
X31025592Y22317500D01*
X31009999Y22319036D01*
X30994406Y22317500D01*
X30994404Y22317500D01*
X30947759Y22312906D01*
X30887910Y22294751D01*
X30832753Y22265269D01*
X30784407Y22225593D01*
X30774463Y22213476D01*
X29552850Y20991862D01*
X29510874Y20991862D01*
X31161513Y22642500D01*
X31209329Y22642500D01*
X31214879Y22636950D01*
X31282998Y22591435D01*
X31358687Y22560083D01*
X31439037Y22544100D01*
X31520963Y22544100D01*
X31601313Y22560083D01*
X31677002Y22591435D01*
X31745121Y22636950D01*
X31803050Y22694879D01*
X31848565Y22762998D01*
X31879917Y22838687D01*
X31895900Y22919037D01*
X31895900Y23000963D01*
X31879917Y23081313D01*
X31848565Y23157002D01*
X31803050Y23225121D01*
X31745121Y23283050D01*
X31677002Y23328565D01*
X31601313Y23359917D01*
X31520963Y23375900D01*
X31439037Y23375900D01*
X31358687Y23359917D01*
X31330786Y23348360D01*
X31359917Y23418687D01*
X31375900Y23499037D01*
X31375900Y23580963D01*
X31359917Y23661313D01*
X31328565Y23737002D01*
X31283050Y23805121D01*
X31225121Y23863050D01*
X31157002Y23908565D01*
X31081313Y23939917D01*
X31000963Y23955900D01*
X30919037Y23955900D01*
X30838687Y23939917D01*
X30762998Y23908565D01*
X30694879Y23863050D01*
X30689329Y23857500D01*
X30565092Y23857500D01*
X30549499Y23859036D01*
X30533906Y23857500D01*
X30533904Y23857500D01*
X30487259Y23852906D01*
X30427410Y23834751D01*
X30372253Y23805269D01*
X30323907Y23765593D01*
X30313963Y23753476D01*
X29603910Y23043423D01*
X29603908Y25022739D01*
X29605445Y25038342D01*
X29599314Y25100583D01*
X29581159Y25160432D01*
X29551677Y25215589D01*
X29521943Y25251820D01*
X29521941Y25251822D01*
X29512001Y25263934D01*
X29499889Y25273874D01*
X27427702Y27346060D01*
X27417753Y27358183D01*
X27369407Y27397859D01*
X27314250Y27427341D01*
X27254401Y27445496D01*
X27207756Y27450090D01*
X27192160Y27451626D01*
X27176564Y27450090D01*
X7543883Y27450090D01*
X6723010Y28270963D01*
X25464100Y28270963D01*
X25464100Y28189037D01*
X25480083Y28108687D01*
X25511435Y28032998D01*
X25556950Y27964879D01*
X25614879Y27906950D01*
X25682998Y27861435D01*
X25758687Y27830083D01*
X25839037Y27814100D01*
X25920963Y27814100D01*
X26001313Y27830083D01*
X26077002Y27861435D01*
X26145121Y27906950D01*
X26150671Y27912500D01*
X27450930Y27912500D01*
X27471435Y27862998D01*
X27516950Y27794879D01*
X27574879Y27736950D01*
X27642998Y27691435D01*
X27718687Y27660083D01*
X27799037Y27644100D01*
X27880963Y27644100D01*
X27961313Y27660083D01*
X28037002Y27691435D01*
X28105121Y27736950D01*
X28163050Y27794879D01*
X28208565Y27862998D01*
X28239917Y27938687D01*
X28255900Y28019037D01*
X28255900Y28100963D01*
X28239917Y28181313D01*
X28208565Y28257002D01*
X28163050Y28325121D01*
X28105121Y28383050D01*
X28037002Y28428565D01*
X27961313Y28459917D01*
X27880963Y28475900D01*
X27870849Y28475900D01*
X27847247Y28495269D01*
X27792090Y28524751D01*
X27732241Y28542906D01*
X27685596Y28547500D01*
X27670000Y28549036D01*
X27654404Y28547500D01*
X26150671Y28547500D01*
X26145121Y28553050D01*
X26077002Y28598565D01*
X26001313Y28629917D01*
X25920963Y28645900D01*
X25839037Y28645900D01*
X25758687Y28629917D01*
X25682998Y28598565D01*
X25614879Y28553050D01*
X25556950Y28495121D01*
X25511435Y28427002D01*
X25480083Y28351313D01*
X25464100Y28270963D01*
X6723010Y28270963D01*
X6226097Y28767875D01*
X6303718Y28955269D01*
X6344680Y29161198D01*
X6344680Y29371162D01*
X6303718Y29577091D01*
X6223368Y29771073D01*
X6106718Y29945651D01*
X5958251Y30094118D01*
X5783673Y30210768D01*
X5589691Y30291118D01*
X5383762Y30332080D01*
X5173798Y30332080D01*
X4967869Y30291118D01*
X4773887Y30210768D01*
X4599309Y30094118D01*
X4450842Y29945651D01*
X4334192Y29771073D01*
X4253842Y29577091D01*
X4212880Y29371162D01*
X4212880Y29161198D01*
X4253842Y28955269D01*
X4334192Y28761287D01*
X4450842Y28586709D01*
X4599309Y28438242D01*
X4773887Y28321592D01*
X4967869Y28241242D01*
X5173798Y28200280D01*
X5383762Y28200280D01*
X5589691Y28241242D01*
X5777085Y28318863D01*
X7052267Y27043680D01*
X6300989Y27043680D01*
X6223368Y27231073D01*
X6106718Y27405651D01*
X5958251Y27554118D01*
X5783673Y27670768D01*
X5589691Y27751118D01*
X5383762Y27792080D01*
X5173798Y27792080D01*
X4967869Y27751118D01*
X4773887Y27670768D01*
X4599309Y27554118D01*
X4450842Y27405651D01*
X4334192Y27231073D01*
X4253842Y27037091D01*
X4212880Y26831162D01*
X4212880Y26621198D01*
X4253842Y26415269D01*
X4334192Y26221287D01*
X4450842Y26046709D01*
X4599309Y25898242D01*
X4613322Y25888879D01*
X4025094Y25888879D01*
X3686097Y26227876D01*
X3763718Y26415269D01*
X3804680Y26621198D01*
X3804680Y26831162D01*
X3763718Y27037091D01*
X3683368Y27231073D01*
X3566718Y27405651D01*
X3418251Y27554118D01*
X3243673Y27670768D01*
X3049691Y27751118D01*
X2843762Y27792080D01*
X2633798Y27792080D01*
X2427869Y27751118D01*
X2233887Y27670768D01*
X2059309Y27554118D01*
X1910842Y27405651D01*
X1794192Y27231073D01*
X1713842Y27037091D01*
X1672880Y26831162D01*
X1672880Y26621198D01*
X1713842Y26415269D01*
X1794192Y26221287D01*
X1910842Y26046709D01*
X2059309Y25898242D01*
X2233887Y25781592D01*
X2427869Y25701242D01*
X2633798Y25660280D01*
X2843762Y25660280D01*
X3049691Y25701242D01*
X3237084Y25778863D01*
X3658044Y25357903D01*
X3667988Y25345786D01*
X3716334Y25306110D01*
X3771491Y25276628D01*
X3831340Y25258473D01*
X3877985Y25253879D01*
X3877987Y25253879D01*
X3893580Y25252343D01*
X3909173Y25253879D01*
X7099547Y25253879D01*
X6349349Y24503680D01*
X6300989Y24503680D01*
X6223368Y24691073D01*
X6106718Y24865651D01*
X5958251Y25014118D01*
X5783673Y25130768D01*
X5589691Y25211118D01*
X5383762Y25252080D01*
X5173798Y25252080D01*
X4967869Y25211118D01*
X4773887Y25130768D01*
X4599309Y25014118D01*
X4450842Y24865651D01*
X4334192Y24691073D01*
X4253842Y24497091D01*
X4212880Y24291162D01*
X4212880Y24081198D01*
X4253842Y23875269D01*
X4334192Y23681287D01*
X4450842Y23506709D01*
X4599309Y23358242D01*
X4773887Y23241592D01*
X4967869Y23161242D01*
X5173798Y23120280D01*
X5383762Y23120280D01*
X5589691Y23161242D01*
X5783673Y23241592D01*
X5958251Y23358242D01*
X6106718Y23506709D01*
X6223368Y23681287D01*
X6300989Y23868680D01*
X6465265Y23868680D01*
X6480861Y23867144D01*
X6496457Y23868680D01*
X6543102Y23873274D01*
X6602951Y23891429D01*
X6658108Y23920911D01*
X6706454Y23960587D01*
X6716403Y23972710D01*
X8066194Y25322500D01*
X8483487Y25322500D01*
X8269125Y25108137D01*
X8257008Y25098193D01*
X8217331Y25049847D01*
X8198840Y25015253D01*
X5777085Y22593497D01*
X5589691Y22671118D01*
X5383762Y22712080D01*
X5173798Y22712080D01*
X4967869Y22671118D01*
X4773887Y22590768D01*
X4599309Y22474118D01*
X4450842Y22325651D01*
X4441479Y22311638D01*
X4441479Y22785389D01*
X4443015Y22800982D01*
X4441091Y22820519D01*
X4436885Y22863222D01*
X4418730Y22923071D01*
X4389248Y22978228D01*
X4349572Y23026574D01*
X4337456Y23036517D01*
X3686097Y23687875D01*
X3763718Y23875269D01*
X3804680Y24081198D01*
X3804680Y24291162D01*
X3763718Y24497091D01*
X3683368Y24691073D01*
X3566718Y24865651D01*
X3418251Y25014118D01*
X3243673Y25130768D01*
X3049691Y25211118D01*
X2843762Y25252080D01*
X2633798Y25252080D01*
X2427869Y25211118D01*
X2233887Y25130768D01*
X2059309Y25014118D01*
X1910842Y24865651D01*
X1794192Y24691073D01*
X1713842Y24497091D01*
X1672880Y24291162D01*
X1672880Y24081198D01*
X1713842Y23875269D01*
X1794192Y23681287D01*
X1910842Y23506709D01*
X2059309Y23358242D01*
X2233887Y23241592D01*
X2427869Y23161242D01*
X2633798Y23120280D01*
X2843762Y23120280D01*
X3049691Y23161242D01*
X3237085Y23238863D01*
X3806479Y22669468D01*
X3806480Y20891627D01*
X3804943Y20876021D01*
X3811073Y20813781D01*
X3829228Y20753932D01*
X3839204Y20735269D01*
X3858711Y20698774D01*
X3898387Y20650428D01*
X3910504Y20640484D01*
X4294463Y20256524D01*
X4304407Y20244407D01*
X4352753Y20204731D01*
X4407910Y20175249D01*
X4467759Y20157094D01*
X4514404Y20152500D01*
X4514406Y20152500D01*
X4529999Y20150964D01*
X4545592Y20152500D01*
X5075363Y20152500D01*
X4967869Y20131118D01*
X4773887Y20050768D01*
X4599309Y19934118D01*
X4450842Y19785651D01*
X4334192Y19611073D01*
X4253842Y19417091D01*
X4212880Y19211162D01*
X4212880Y19001198D01*
X4253842Y18795269D01*
X4334192Y18601287D01*
X4450842Y18426709D01*
X4599309Y18278242D01*
X4773887Y18161592D01*
X4853820Y18128483D01*
X3193147Y18140663D01*
X3243673Y18161592D01*
X3418251Y18278242D01*
X3566718Y18426709D01*
X3683368Y18601287D01*
X3763718Y18795269D01*
X3804680Y19001198D01*
X3804680Y19211162D01*
X3763718Y19417091D01*
X3683368Y19611073D01*
X3566718Y19785651D01*
X3418251Y19934118D01*
X3243673Y20050768D01*
X3049691Y20131118D01*
X2843762Y20172080D01*
X2633798Y20172080D01*
X2427869Y20131118D01*
X2233887Y20050768D01*
X2059309Y19934118D01*
X1910842Y19785651D01*
X1794192Y19611073D01*
X1713842Y19417091D01*
X1672880Y19211162D01*
X1672880Y19001198D01*
X1706417Y18832595D01*
X1577500Y18961512D01*
X1577500Y20035888D01*
X2240475Y20698863D01*
X2427869Y20621242D01*
X2633798Y20580280D01*
X2843762Y20580280D01*
X3049691Y20621242D01*
X3243673Y20701592D01*
X3418251Y20818242D01*
X3566718Y20966709D01*
X3683368Y21141287D01*
X3763718Y21335269D01*
X3804680Y21541198D01*
X3804680Y21751162D01*
X3763718Y21957091D01*
X3683368Y22151073D01*
X3566718Y22325651D01*
X3418251Y22474118D01*
X3243673Y22590768D01*
X3049691Y22671118D01*
X2843762Y22712080D01*
X2633798Y22712080D01*
X2427869Y22671118D01*
X2233887Y22590768D01*
X2059309Y22474118D01*
X1910842Y22325651D01*
X1794192Y22151073D01*
X1713842Y21957091D01*
X1672880Y21751162D01*
X1672880Y21541198D01*
X1713842Y21335269D01*
X1791463Y21147875D01*
X1221890Y20578302D01*
X1221890Y27300278D01*
X2124315Y28202702D01*
X2124319Y28202707D01*
X2240475Y28318863D01*
X2427869Y28241242D01*
X2633798Y28200280D01*
X2843762Y28200280D01*
X3049691Y28241242D01*
X3243673Y28321592D01*
X3418251Y28438242D01*
X3566718Y28586709D01*
X3683368Y28761287D01*
X3763718Y28955269D01*
X3804680Y29161198D01*
X3804680Y29371162D01*
X3763718Y29577091D01*
X3683368Y29771073D01*
X3566718Y29945651D01*
X3418251Y30094118D01*
X3243673Y30210768D01*
X3191207Y30232500D01*
X4007004Y30232500D01*
X4022600Y30230964D01*
X4038196Y30232500D01*
X4084841Y30237094D01*
X4144690Y30255249D01*
X4199847Y30284731D01*
X4248193Y30324407D01*
X4258142Y30336530D01*
X4780475Y30858863D01*
X4967869Y30781242D01*
X5173798Y30740280D01*
X5383762Y30740280D01*
X5589691Y30781242D01*
X5783673Y30861592D01*
X5958251Y30978242D01*
X6106718Y31126709D01*
X6223368Y31301287D01*
X6303718Y31495269D01*
X6344680Y31701198D01*
X6344680Y31911162D01*
X41752880Y31911162D01*
X41752880Y31701198D01*
X41793842Y31495269D01*
X41874192Y31301287D01*
X41990842Y31126709D01*
X42139309Y30978242D01*
X42313887Y30861592D01*
X42507869Y30781242D01*
X42713798Y30740280D01*
X42923762Y30740280D01*
X43129691Y30781242D01*
X43323673Y30861592D01*
X43498251Y30978242D01*
X43646718Y31126709D01*
X43763368Y31301287D01*
X43843718Y31495269D01*
X43884680Y31701198D01*
X43884680Y31911162D01*
X43843718Y32117091D01*
X43763368Y32311073D01*
X43646718Y32485651D01*
X43498251Y32634118D01*
X43323673Y32750768D01*
X43129691Y32831118D01*
X42923762Y32872080D01*
X42713798Y32872080D01*
X42507869Y32831118D01*
X42313887Y32750768D01*
X42139309Y32634118D01*
X41990842Y32485651D01*
X41874192Y32311073D01*
X41793842Y32117091D01*
X41752880Y31911162D01*
X6344680Y31911162D01*
X6303718Y32117091D01*
X6223368Y32311073D01*
X6106718Y32485651D01*
X5958251Y32634118D01*
X5783673Y32750768D01*
X5589691Y32831118D01*
X5383762Y32872080D01*
X5173798Y32872080D01*
X4967869Y32831118D01*
X4773887Y32750768D01*
X4599309Y32634118D01*
X4450842Y32485651D01*
X4334192Y32311073D01*
X4253842Y32117091D01*
X4212880Y31911162D01*
X4212880Y31701198D01*
X4253842Y31495269D01*
X4331463Y31307875D01*
X3891088Y30867500D01*
X3252515Y30867500D01*
X3418251Y30978242D01*
X3566718Y31126709D01*
X3683368Y31301287D01*
X3763718Y31495269D01*
X3804680Y31701198D01*
X3804680Y31911162D01*
X3763718Y32117091D01*
X3683368Y32311073D01*
X3566718Y32485651D01*
X3418251Y32634118D01*
X3243673Y32750768D01*
X3049691Y32831118D01*
X2843762Y32872080D01*
X2633798Y32872080D01*
X2427869Y32831118D01*
X2233887Y32750768D01*
X2059309Y32634118D01*
X1910842Y32485651D01*
X1794192Y32311073D01*
X1713842Y32117091D01*
X1672880Y31911162D01*
X1672880Y31701198D01*
X1713842Y31495269D01*
X1791463Y31307876D01*
X-113475Y29402937D01*
X-125592Y29392993D01*
X-165268Y29344647D01*
X-176555Y29323531D01*
X-194751Y29289489D01*
X-212906Y29229640D01*
X-219036Y29167400D01*
X-244500Y29167400D01*
X-244500Y33679465D01*
X-190456Y34230645D01*
X-33444Y34750696D01*
X221592Y35230349D01*
X564933Y35651325D01*
X983508Y35997600D01*
X1461364Y36255976D01*
X1980307Y36416616D01*
X2530725Y36474466D01*
X2540464Y36474500D01*
X46529465Y36474500D01*
X47080645Y36420456D01*
G36*
X25026070Y24195082D02*
G01*
X25025566Y24194665D01*
X25015406Y24184422D01*
X25005247Y24174337D01*
X25004875Y24173887D01*
X25004466Y24173478D01*
X25004061Y24172984D01*
X24671232Y23837439D01*
X24659606Y23827898D01*
X24649245Y23815273D01*
X24648800Y23814824D01*
X24639504Y23803403D01*
X24619930Y23779551D01*
X24619623Y23778977D01*
X24619213Y23778473D01*
X24604916Y23751462D01*
X24590448Y23724394D01*
X24590259Y23723770D01*
X24589955Y23723196D01*
X24581200Y23693909D01*
X24572293Y23664545D01*
X24572229Y23663897D01*
X24572043Y23663274D01*
X24569158Y23632711D01*
X24567699Y23617900D01*
X24567699Y23617259D01*
X24566165Y23601010D01*
X24567699Y23586060D01*
X24567699Y23380472D01*
X24555121Y23393050D01*
X24487002Y23438565D01*
X24411313Y23469917D01*
X24330963Y23485900D01*
X24323113Y23485900D01*
X23835542Y23973470D01*
X23825593Y23985593D01*
X23777247Y24025269D01*
X23722090Y24054751D01*
X23662241Y24072906D01*
X23615596Y24077500D01*
X23600000Y24079036D01*
X23584404Y24077500D01*
X19114407Y24077500D01*
X18745057Y24446849D01*
X18761313Y24450083D01*
X18837002Y24481435D01*
X18905121Y24526950D01*
X18910671Y24532500D01*
X25363487Y24532500D01*
X25026070Y24195082D01*
G37*
X25026070Y24195082D02*
X25025566Y24194665D01*
X25015406Y24184422D01*
X25005247Y24174337D01*
X25004875Y24173887D01*
X25004466Y24173478D01*
X25004061Y24172984D01*
X24671232Y23837439D01*
X24659606Y23827898D01*
X24649245Y23815273D01*
X24648800Y23814824D01*
X24639504Y23803403D01*
X24619930Y23779551D01*
X24619623Y23778977D01*
X24619213Y23778473D01*
X24604916Y23751462D01*
X24590448Y23724394D01*
X24590259Y23723770D01*
X24589955Y23723196D01*
X24581200Y23693909D01*
X24572293Y23664545D01*
X24572229Y23663897D01*
X24572043Y23663274D01*
X24569158Y23632711D01*
X24567699Y23617900D01*
X24567699Y23617259D01*
X24566165Y23601010D01*
X24567699Y23586060D01*
X24567699Y23380472D01*
X24555121Y23393050D01*
X24487002Y23438565D01*
X24411313Y23469917D01*
X24330963Y23485900D01*
X24323113Y23485900D01*
X23835542Y23973470D01*
X23825593Y23985593D01*
X23777247Y24025269D01*
X23722090Y24054751D01*
X23662241Y24072906D01*
X23615596Y24077500D01*
X23600000Y24079036D01*
X23584404Y24077500D01*
X19114407Y24077500D01*
X18745057Y24446849D01*
X18761313Y24450083D01*
X18837002Y24481435D01*
X18905121Y24526950D01*
X18910671Y24532500D01*
X25363487Y24532500D01*
X25026070Y24195082D01*
M02*
