G04 #@! TF.GenerationSoftware,KiCad,Pcbnew,(5.1.5)-3*
G04 #@! TF.CreationDate,2021-07-21T14:46:52+02:00*
G04 #@! TF.ProjectId,sDrive1,73447269-7665-4312-9e6b-696361645f70,rev?*
G04 #@! TF.SameCoordinates,Original*
G04 #@! TF.FileFunction,Paste,Top*
G04 #@! TF.FilePolarity,Positive*
%FSLAX46Y46*%
G04 Gerber Fmt 4.6, Leading zero omitted, Abs format (unit mm)*
G04 Created by KiCad (PCBNEW (5.1.5)-3) date 2021-07-21 14:46:52*
%MOMM*%
%LPD*%
G04 APERTURE LIST*
%ADD10C,0.100000*%
%ADD11R,2.160000X1.120000*%
%ADD12R,0.300000X0.750000*%
%ADD13R,0.260000X0.880000*%
%ADD14R,0.880000X0.260000*%
%ADD15R,4.150000X4.150000*%
G04 APERTURE END LIST*
D10*
G36*
X35065779Y11663856D02*
G01*
X35088834Y11660437D01*
X35111443Y11654773D01*
X35133387Y11646921D01*
X35154457Y11636956D01*
X35174448Y11624974D01*
X35193168Y11611090D01*
X35210438Y11595438D01*
X35226090Y11578168D01*
X35239974Y11559448D01*
X35251956Y11539457D01*
X35261921Y11518387D01*
X35269773Y11496443D01*
X35275437Y11473834D01*
X35278856Y11450779D01*
X35280000Y11427500D01*
X35280000Y10952500D01*
X35278856Y10929221D01*
X35275437Y10906166D01*
X35269773Y10883557D01*
X35261921Y10861613D01*
X35251956Y10840543D01*
X35239974Y10820552D01*
X35226090Y10801832D01*
X35210438Y10784562D01*
X35193168Y10768910D01*
X35174448Y10755026D01*
X35154457Y10743044D01*
X35133387Y10733079D01*
X35111443Y10725227D01*
X35088834Y10719563D01*
X35065779Y10716144D01*
X35042500Y10715000D01*
X34467500Y10715000D01*
X34444221Y10716144D01*
X34421166Y10719563D01*
X34398557Y10725227D01*
X34376613Y10733079D01*
X34355543Y10743044D01*
X34335552Y10755026D01*
X34316832Y10768910D01*
X34299562Y10784562D01*
X34283910Y10801832D01*
X34270026Y10820552D01*
X34258044Y10840543D01*
X34248079Y10861613D01*
X34240227Y10883557D01*
X34234563Y10906166D01*
X34231144Y10929221D01*
X34230000Y10952500D01*
X34230000Y11427500D01*
X34231144Y11450779D01*
X34234563Y11473834D01*
X34240227Y11496443D01*
X34248079Y11518387D01*
X34258044Y11539457D01*
X34270026Y11559448D01*
X34283910Y11578168D01*
X34299562Y11595438D01*
X34316832Y11611090D01*
X34335552Y11624974D01*
X34355543Y11636956D01*
X34376613Y11646921D01*
X34398557Y11654773D01*
X34421166Y11660437D01*
X34444221Y11663856D01*
X34467500Y11665000D01*
X35042500Y11665000D01*
X35065779Y11663856D01*
G37*
G36*
X33315779Y11663856D02*
G01*
X33338834Y11660437D01*
X33361443Y11654773D01*
X33383387Y11646921D01*
X33404457Y11636956D01*
X33424448Y11624974D01*
X33443168Y11611090D01*
X33460438Y11595438D01*
X33476090Y11578168D01*
X33489974Y11559448D01*
X33501956Y11539457D01*
X33511921Y11518387D01*
X33519773Y11496443D01*
X33525437Y11473834D01*
X33528856Y11450779D01*
X33530000Y11427500D01*
X33530000Y10952500D01*
X33528856Y10929221D01*
X33525437Y10906166D01*
X33519773Y10883557D01*
X33511921Y10861613D01*
X33501956Y10840543D01*
X33489974Y10820552D01*
X33476090Y10801832D01*
X33460438Y10784562D01*
X33443168Y10768910D01*
X33424448Y10755026D01*
X33404457Y10743044D01*
X33383387Y10733079D01*
X33361443Y10725227D01*
X33338834Y10719563D01*
X33315779Y10716144D01*
X33292500Y10715000D01*
X32717500Y10715000D01*
X32694221Y10716144D01*
X32671166Y10719563D01*
X32648557Y10725227D01*
X32626613Y10733079D01*
X32605543Y10743044D01*
X32585552Y10755026D01*
X32566832Y10768910D01*
X32549562Y10784562D01*
X32533910Y10801832D01*
X32520026Y10820552D01*
X32508044Y10840543D01*
X32498079Y10861613D01*
X32490227Y10883557D01*
X32484563Y10906166D01*
X32481144Y10929221D01*
X32480000Y10952500D01*
X32480000Y11427500D01*
X32481144Y11450779D01*
X32484563Y11473834D01*
X32490227Y11496443D01*
X32498079Y11518387D01*
X32508044Y11539457D01*
X32520026Y11559448D01*
X32533910Y11578168D01*
X32549562Y11595438D01*
X32566832Y11611090D01*
X32585552Y11624974D01*
X32605543Y11636956D01*
X32626613Y11646921D01*
X32648557Y11654773D01*
X32671166Y11660437D01*
X32694221Y11663856D01*
X32717500Y11665000D01*
X33292500Y11665000D01*
X33315779Y11663856D01*
G37*
G36*
X34810779Y22828856D02*
G01*
X34833834Y22825437D01*
X34856443Y22819773D01*
X34878387Y22811921D01*
X34899457Y22801956D01*
X34919448Y22789974D01*
X34938168Y22776090D01*
X34955438Y22760438D01*
X34971090Y22743168D01*
X34984974Y22724448D01*
X34996956Y22704457D01*
X35006921Y22683387D01*
X35014773Y22661443D01*
X35020437Y22638834D01*
X35023856Y22615779D01*
X35025000Y22592500D01*
X35025000Y22017500D01*
X35023856Y21994221D01*
X35020437Y21971166D01*
X35014773Y21948557D01*
X35006921Y21926613D01*
X34996956Y21905543D01*
X34984974Y21885552D01*
X34971090Y21866832D01*
X34955438Y21849562D01*
X34938168Y21833910D01*
X34919448Y21820026D01*
X34899457Y21808044D01*
X34878387Y21798079D01*
X34856443Y21790227D01*
X34833834Y21784563D01*
X34810779Y21781144D01*
X34787500Y21780000D01*
X34312500Y21780000D01*
X34289221Y21781144D01*
X34266166Y21784563D01*
X34243557Y21790227D01*
X34221613Y21798079D01*
X34200543Y21808044D01*
X34180552Y21820026D01*
X34161832Y21833910D01*
X34144562Y21849562D01*
X34128910Y21866832D01*
X34115026Y21885552D01*
X34103044Y21905543D01*
X34093079Y21926613D01*
X34085227Y21948557D01*
X34079563Y21971166D01*
X34076144Y21994221D01*
X34075000Y22017500D01*
X34075000Y22592500D01*
X34076144Y22615779D01*
X34079563Y22638834D01*
X34085227Y22661443D01*
X34093079Y22683387D01*
X34103044Y22704457D01*
X34115026Y22724448D01*
X34128910Y22743168D01*
X34144562Y22760438D01*
X34161832Y22776090D01*
X34180552Y22789974D01*
X34200543Y22801956D01*
X34221613Y22811921D01*
X34243557Y22819773D01*
X34266166Y22825437D01*
X34289221Y22828856D01*
X34312500Y22830000D01*
X34787500Y22830000D01*
X34810779Y22828856D01*
G37*
G36*
X34810779Y21078856D02*
G01*
X34833834Y21075437D01*
X34856443Y21069773D01*
X34878387Y21061921D01*
X34899457Y21051956D01*
X34919448Y21039974D01*
X34938168Y21026090D01*
X34955438Y21010438D01*
X34971090Y20993168D01*
X34984974Y20974448D01*
X34996956Y20954457D01*
X35006921Y20933387D01*
X35014773Y20911443D01*
X35020437Y20888834D01*
X35023856Y20865779D01*
X35025000Y20842500D01*
X35025000Y20267500D01*
X35023856Y20244221D01*
X35020437Y20221166D01*
X35014773Y20198557D01*
X35006921Y20176613D01*
X34996956Y20155543D01*
X34984974Y20135552D01*
X34971090Y20116832D01*
X34955438Y20099562D01*
X34938168Y20083910D01*
X34919448Y20070026D01*
X34899457Y20058044D01*
X34878387Y20048079D01*
X34856443Y20040227D01*
X34833834Y20034563D01*
X34810779Y20031144D01*
X34787500Y20030000D01*
X34312500Y20030000D01*
X34289221Y20031144D01*
X34266166Y20034563D01*
X34243557Y20040227D01*
X34221613Y20048079D01*
X34200543Y20058044D01*
X34180552Y20070026D01*
X34161832Y20083910D01*
X34144562Y20099562D01*
X34128910Y20116832D01*
X34115026Y20135552D01*
X34103044Y20155543D01*
X34093079Y20176613D01*
X34085227Y20198557D01*
X34079563Y20221166D01*
X34076144Y20244221D01*
X34075000Y20267500D01*
X34075000Y20842500D01*
X34076144Y20865779D01*
X34079563Y20888834D01*
X34085227Y20911443D01*
X34093079Y20933387D01*
X34103044Y20954457D01*
X34115026Y20974448D01*
X34128910Y20993168D01*
X34144562Y21010438D01*
X34161832Y21026090D01*
X34180552Y21039974D01*
X34200543Y21051956D01*
X34221613Y21061921D01*
X34243557Y21069773D01*
X34266166Y21075437D01*
X34289221Y21078856D01*
X34312500Y21080000D01*
X34787500Y21080000D01*
X34810779Y21078856D01*
G37*
G36*
X35160779Y14848856D02*
G01*
X35183834Y14845437D01*
X35206443Y14839773D01*
X35228387Y14831921D01*
X35249457Y14821956D01*
X35269448Y14809974D01*
X35288168Y14796090D01*
X35305438Y14780438D01*
X35321090Y14763168D01*
X35334974Y14744448D01*
X35346956Y14724457D01*
X35356921Y14703387D01*
X35364773Y14681443D01*
X35370437Y14658834D01*
X35373856Y14635779D01*
X35375000Y14612500D01*
X35375000Y14037500D01*
X35373856Y14014221D01*
X35370437Y13991166D01*
X35364773Y13968557D01*
X35356921Y13946613D01*
X35346956Y13925543D01*
X35334974Y13905552D01*
X35321090Y13886832D01*
X35305438Y13869562D01*
X35288168Y13853910D01*
X35269448Y13840026D01*
X35249457Y13828044D01*
X35228387Y13818079D01*
X35206443Y13810227D01*
X35183834Y13804563D01*
X35160779Y13801144D01*
X35137500Y13800000D01*
X34662500Y13800000D01*
X34639221Y13801144D01*
X34616166Y13804563D01*
X34593557Y13810227D01*
X34571613Y13818079D01*
X34550543Y13828044D01*
X34530552Y13840026D01*
X34511832Y13853910D01*
X34494562Y13869562D01*
X34478910Y13886832D01*
X34465026Y13905552D01*
X34453044Y13925543D01*
X34443079Y13946613D01*
X34435227Y13968557D01*
X34429563Y13991166D01*
X34426144Y14014221D01*
X34425000Y14037500D01*
X34425000Y14612500D01*
X34426144Y14635779D01*
X34429563Y14658834D01*
X34435227Y14681443D01*
X34443079Y14703387D01*
X34453044Y14724457D01*
X34465026Y14744448D01*
X34478910Y14763168D01*
X34494562Y14780438D01*
X34511832Y14796090D01*
X34530552Y14809974D01*
X34550543Y14821956D01*
X34571613Y14831921D01*
X34593557Y14839773D01*
X34616166Y14845437D01*
X34639221Y14848856D01*
X34662500Y14850000D01*
X35137500Y14850000D01*
X35160779Y14848856D01*
G37*
G36*
X35160779Y16598856D02*
G01*
X35183834Y16595437D01*
X35206443Y16589773D01*
X35228387Y16581921D01*
X35249457Y16571956D01*
X35269448Y16559974D01*
X35288168Y16546090D01*
X35305438Y16530438D01*
X35321090Y16513168D01*
X35334974Y16494448D01*
X35346956Y16474457D01*
X35356921Y16453387D01*
X35364773Y16431443D01*
X35370437Y16408834D01*
X35373856Y16385779D01*
X35375000Y16362500D01*
X35375000Y15787500D01*
X35373856Y15764221D01*
X35370437Y15741166D01*
X35364773Y15718557D01*
X35356921Y15696613D01*
X35346956Y15675543D01*
X35334974Y15655552D01*
X35321090Y15636832D01*
X35305438Y15619562D01*
X35288168Y15603910D01*
X35269448Y15590026D01*
X35249457Y15578044D01*
X35228387Y15568079D01*
X35206443Y15560227D01*
X35183834Y15554563D01*
X35160779Y15551144D01*
X35137500Y15550000D01*
X34662500Y15550000D01*
X34639221Y15551144D01*
X34616166Y15554563D01*
X34593557Y15560227D01*
X34571613Y15568079D01*
X34550543Y15578044D01*
X34530552Y15590026D01*
X34511832Y15603910D01*
X34494562Y15619562D01*
X34478910Y15636832D01*
X34465026Y15655552D01*
X34453044Y15675543D01*
X34443079Y15696613D01*
X34435227Y15718557D01*
X34429563Y15741166D01*
X34426144Y15764221D01*
X34425000Y15787500D01*
X34425000Y16362500D01*
X34426144Y16385779D01*
X34429563Y16408834D01*
X34435227Y16431443D01*
X34443079Y16453387D01*
X34453044Y16474457D01*
X34465026Y16494448D01*
X34478910Y16513168D01*
X34494562Y16530438D01*
X34511832Y16546090D01*
X34530552Y16559974D01*
X34550543Y16571956D01*
X34571613Y16581921D01*
X34593557Y16589773D01*
X34616166Y16595437D01*
X34639221Y16598856D01*
X34662500Y16600000D01*
X35137500Y16600000D01*
X35160779Y16598856D01*
G37*
G36*
X21715779Y6683856D02*
G01*
X21738834Y6680437D01*
X21761443Y6674773D01*
X21783387Y6666921D01*
X21804457Y6656956D01*
X21824448Y6644974D01*
X21843168Y6631090D01*
X21860438Y6615438D01*
X21876090Y6598168D01*
X21889974Y6579448D01*
X21901956Y6559457D01*
X21911921Y6538387D01*
X21919773Y6516443D01*
X21925437Y6493834D01*
X21928856Y6470779D01*
X21930000Y6447500D01*
X21930000Y5972500D01*
X21928856Y5949221D01*
X21925437Y5926166D01*
X21919773Y5903557D01*
X21911921Y5881613D01*
X21901956Y5860543D01*
X21889974Y5840552D01*
X21876090Y5821832D01*
X21860438Y5804562D01*
X21843168Y5788910D01*
X21824448Y5775026D01*
X21804457Y5763044D01*
X21783387Y5753079D01*
X21761443Y5745227D01*
X21738834Y5739563D01*
X21715779Y5736144D01*
X21692500Y5735000D01*
X21117500Y5735000D01*
X21094221Y5736144D01*
X21071166Y5739563D01*
X21048557Y5745227D01*
X21026613Y5753079D01*
X21005543Y5763044D01*
X20985552Y5775026D01*
X20966832Y5788910D01*
X20949562Y5804562D01*
X20933910Y5821832D01*
X20920026Y5840552D01*
X20908044Y5860543D01*
X20898079Y5881613D01*
X20890227Y5903557D01*
X20884563Y5926166D01*
X20881144Y5949221D01*
X20880000Y5972500D01*
X20880000Y6447500D01*
X20881144Y6470779D01*
X20884563Y6493834D01*
X20890227Y6516443D01*
X20898079Y6538387D01*
X20908044Y6559457D01*
X20920026Y6579448D01*
X20933910Y6598168D01*
X20949562Y6615438D01*
X20966832Y6631090D01*
X20985552Y6644974D01*
X21005543Y6656956D01*
X21026613Y6666921D01*
X21048557Y6674773D01*
X21071166Y6680437D01*
X21094221Y6683856D01*
X21117500Y6685000D01*
X21692500Y6685000D01*
X21715779Y6683856D01*
G37*
G36*
X19965779Y6683856D02*
G01*
X19988834Y6680437D01*
X20011443Y6674773D01*
X20033387Y6666921D01*
X20054457Y6656956D01*
X20074448Y6644974D01*
X20093168Y6631090D01*
X20110438Y6615438D01*
X20126090Y6598168D01*
X20139974Y6579448D01*
X20151956Y6559457D01*
X20161921Y6538387D01*
X20169773Y6516443D01*
X20175437Y6493834D01*
X20178856Y6470779D01*
X20180000Y6447500D01*
X20180000Y5972500D01*
X20178856Y5949221D01*
X20175437Y5926166D01*
X20169773Y5903557D01*
X20161921Y5881613D01*
X20151956Y5860543D01*
X20139974Y5840552D01*
X20126090Y5821832D01*
X20110438Y5804562D01*
X20093168Y5788910D01*
X20074448Y5775026D01*
X20054457Y5763044D01*
X20033387Y5753079D01*
X20011443Y5745227D01*
X19988834Y5739563D01*
X19965779Y5736144D01*
X19942500Y5735000D01*
X19367500Y5735000D01*
X19344221Y5736144D01*
X19321166Y5739563D01*
X19298557Y5745227D01*
X19276613Y5753079D01*
X19255543Y5763044D01*
X19235552Y5775026D01*
X19216832Y5788910D01*
X19199562Y5804562D01*
X19183910Y5821832D01*
X19170026Y5840552D01*
X19158044Y5860543D01*
X19148079Y5881613D01*
X19140227Y5903557D01*
X19134563Y5926166D01*
X19131144Y5949221D01*
X19130000Y5972500D01*
X19130000Y6447500D01*
X19131144Y6470779D01*
X19134563Y6493834D01*
X19140227Y6516443D01*
X19148079Y6538387D01*
X19158044Y6559457D01*
X19170026Y6579448D01*
X19183910Y6598168D01*
X19199562Y6615438D01*
X19216832Y6631090D01*
X19235552Y6644974D01*
X19255543Y6656956D01*
X19276613Y6666921D01*
X19298557Y6674773D01*
X19321166Y6680437D01*
X19344221Y6683856D01*
X19367500Y6685000D01*
X19942500Y6685000D01*
X19965779Y6683856D01*
G37*
G36*
X19955779Y8193856D02*
G01*
X19978834Y8190437D01*
X20001443Y8184773D01*
X20023387Y8176921D01*
X20044457Y8166956D01*
X20064448Y8154974D01*
X20083168Y8141090D01*
X20100438Y8125438D01*
X20116090Y8108168D01*
X20129974Y8089448D01*
X20141956Y8069457D01*
X20151921Y8048387D01*
X20159773Y8026443D01*
X20165437Y8003834D01*
X20168856Y7980779D01*
X20170000Y7957500D01*
X20170000Y7482500D01*
X20168856Y7459221D01*
X20165437Y7436166D01*
X20159773Y7413557D01*
X20151921Y7391613D01*
X20141956Y7370543D01*
X20129974Y7350552D01*
X20116090Y7331832D01*
X20100438Y7314562D01*
X20083168Y7298910D01*
X20064448Y7285026D01*
X20044457Y7273044D01*
X20023387Y7263079D01*
X20001443Y7255227D01*
X19978834Y7249563D01*
X19955779Y7246144D01*
X19932500Y7245000D01*
X19357500Y7245000D01*
X19334221Y7246144D01*
X19311166Y7249563D01*
X19288557Y7255227D01*
X19266613Y7263079D01*
X19245543Y7273044D01*
X19225552Y7285026D01*
X19206832Y7298910D01*
X19189562Y7314562D01*
X19173910Y7331832D01*
X19160026Y7350552D01*
X19148044Y7370543D01*
X19138079Y7391613D01*
X19130227Y7413557D01*
X19124563Y7436166D01*
X19121144Y7459221D01*
X19120000Y7482500D01*
X19120000Y7957500D01*
X19121144Y7980779D01*
X19124563Y8003834D01*
X19130227Y8026443D01*
X19138079Y8048387D01*
X19148044Y8069457D01*
X19160026Y8089448D01*
X19173910Y8108168D01*
X19189562Y8125438D01*
X19206832Y8141090D01*
X19225552Y8154974D01*
X19245543Y8166956D01*
X19266613Y8176921D01*
X19288557Y8184773D01*
X19311166Y8190437D01*
X19334221Y8193856D01*
X19357500Y8195000D01*
X19932500Y8195000D01*
X19955779Y8193856D01*
G37*
G36*
X21705779Y8193856D02*
G01*
X21728834Y8190437D01*
X21751443Y8184773D01*
X21773387Y8176921D01*
X21794457Y8166956D01*
X21814448Y8154974D01*
X21833168Y8141090D01*
X21850438Y8125438D01*
X21866090Y8108168D01*
X21879974Y8089448D01*
X21891956Y8069457D01*
X21901921Y8048387D01*
X21909773Y8026443D01*
X21915437Y8003834D01*
X21918856Y7980779D01*
X21920000Y7957500D01*
X21920000Y7482500D01*
X21918856Y7459221D01*
X21915437Y7436166D01*
X21909773Y7413557D01*
X21901921Y7391613D01*
X21891956Y7370543D01*
X21879974Y7350552D01*
X21866090Y7331832D01*
X21850438Y7314562D01*
X21833168Y7298910D01*
X21814448Y7285026D01*
X21794457Y7273044D01*
X21773387Y7263079D01*
X21751443Y7255227D01*
X21728834Y7249563D01*
X21705779Y7246144D01*
X21682500Y7245000D01*
X21107500Y7245000D01*
X21084221Y7246144D01*
X21061166Y7249563D01*
X21038557Y7255227D01*
X21016613Y7263079D01*
X20995543Y7273044D01*
X20975552Y7285026D01*
X20956832Y7298910D01*
X20939562Y7314562D01*
X20923910Y7331832D01*
X20910026Y7350552D01*
X20898044Y7370543D01*
X20888079Y7391613D01*
X20880227Y7413557D01*
X20874563Y7436166D01*
X20871144Y7459221D01*
X20870000Y7482500D01*
X20870000Y7957500D01*
X20871144Y7980779D01*
X20874563Y8003834D01*
X20880227Y8026443D01*
X20888079Y8048387D01*
X20898044Y8069457D01*
X20910026Y8089448D01*
X20923910Y8108168D01*
X20939562Y8125438D01*
X20956832Y8141090D01*
X20975552Y8154974D01*
X20995543Y8166956D01*
X21016613Y8176921D01*
X21038557Y8184773D01*
X21061166Y8190437D01*
X21084221Y8193856D01*
X21107500Y8195000D01*
X21682500Y8195000D01*
X21705779Y8193856D01*
G37*
G36*
X43100779Y34328856D02*
G01*
X43123834Y34325437D01*
X43146443Y34319773D01*
X43168387Y34311921D01*
X43189457Y34301956D01*
X43209448Y34289974D01*
X43228168Y34276090D01*
X43245438Y34260438D01*
X43261090Y34243168D01*
X43274974Y34224448D01*
X43286956Y34204457D01*
X43296921Y34183387D01*
X43304773Y34161443D01*
X43310437Y34138834D01*
X43313856Y34115779D01*
X43315000Y34092500D01*
X43315000Y33517500D01*
X43313856Y33494221D01*
X43310437Y33471166D01*
X43304773Y33448557D01*
X43296921Y33426613D01*
X43286956Y33405543D01*
X43274974Y33385552D01*
X43261090Y33366832D01*
X43245438Y33349562D01*
X43228168Y33333910D01*
X43209448Y33320026D01*
X43189457Y33308044D01*
X43168387Y33298079D01*
X43146443Y33290227D01*
X43123834Y33284563D01*
X43100779Y33281144D01*
X43077500Y33280000D01*
X42602500Y33280000D01*
X42579221Y33281144D01*
X42556166Y33284563D01*
X42533557Y33290227D01*
X42511613Y33298079D01*
X42490543Y33308044D01*
X42470552Y33320026D01*
X42451832Y33333910D01*
X42434562Y33349562D01*
X42418910Y33366832D01*
X42405026Y33385552D01*
X42393044Y33405543D01*
X42383079Y33426613D01*
X42375227Y33448557D01*
X42369563Y33471166D01*
X42366144Y33494221D01*
X42365000Y33517500D01*
X42365000Y34092500D01*
X42366144Y34115779D01*
X42369563Y34138834D01*
X42375227Y34161443D01*
X42383079Y34183387D01*
X42393044Y34204457D01*
X42405026Y34224448D01*
X42418910Y34243168D01*
X42434562Y34260438D01*
X42451832Y34276090D01*
X42470552Y34289974D01*
X42490543Y34301956D01*
X42511613Y34311921D01*
X42533557Y34319773D01*
X42556166Y34325437D01*
X42579221Y34328856D01*
X42602500Y34330000D01*
X43077500Y34330000D01*
X43100779Y34328856D01*
G37*
G36*
X43100779Y36078856D02*
G01*
X43123834Y36075437D01*
X43146443Y36069773D01*
X43168387Y36061921D01*
X43189457Y36051956D01*
X43209448Y36039974D01*
X43228168Y36026090D01*
X43245438Y36010438D01*
X43261090Y35993168D01*
X43274974Y35974448D01*
X43286956Y35954457D01*
X43296921Y35933387D01*
X43304773Y35911443D01*
X43310437Y35888834D01*
X43313856Y35865779D01*
X43315000Y35842500D01*
X43315000Y35267500D01*
X43313856Y35244221D01*
X43310437Y35221166D01*
X43304773Y35198557D01*
X43296921Y35176613D01*
X43286956Y35155543D01*
X43274974Y35135552D01*
X43261090Y35116832D01*
X43245438Y35099562D01*
X43228168Y35083910D01*
X43209448Y35070026D01*
X43189457Y35058044D01*
X43168387Y35048079D01*
X43146443Y35040227D01*
X43123834Y35034563D01*
X43100779Y35031144D01*
X43077500Y35030000D01*
X42602500Y35030000D01*
X42579221Y35031144D01*
X42556166Y35034563D01*
X42533557Y35040227D01*
X42511613Y35048079D01*
X42490543Y35058044D01*
X42470552Y35070026D01*
X42451832Y35083910D01*
X42434562Y35099562D01*
X42418910Y35116832D01*
X42405026Y35135552D01*
X42393044Y35155543D01*
X42383079Y35176613D01*
X42375227Y35198557D01*
X42369563Y35221166D01*
X42366144Y35244221D01*
X42365000Y35267500D01*
X42365000Y35842500D01*
X42366144Y35865779D01*
X42369563Y35888834D01*
X42375227Y35911443D01*
X42383079Y35933387D01*
X42393044Y35954457D01*
X42405026Y35974448D01*
X42418910Y35993168D01*
X42434562Y36010438D01*
X42451832Y36026090D01*
X42470552Y36039974D01*
X42490543Y36051956D01*
X42511613Y36061921D01*
X42533557Y36069773D01*
X42556166Y36075437D01*
X42579221Y36078856D01*
X42602500Y36080000D01*
X43077500Y36080000D01*
X43100779Y36078856D01*
G37*
G36*
X6735779Y1373856D02*
G01*
X6758834Y1370437D01*
X6781443Y1364773D01*
X6803387Y1356921D01*
X6824457Y1346956D01*
X6844448Y1334974D01*
X6863168Y1321090D01*
X6880438Y1305438D01*
X6896090Y1288168D01*
X6909974Y1269448D01*
X6921956Y1249457D01*
X6931921Y1228387D01*
X6939773Y1206443D01*
X6945437Y1183834D01*
X6948856Y1160779D01*
X6950000Y1137500D01*
X6950000Y662500D01*
X6948856Y639221D01*
X6945437Y616166D01*
X6939773Y593557D01*
X6931921Y571613D01*
X6921956Y550543D01*
X6909974Y530552D01*
X6896090Y511832D01*
X6880438Y494562D01*
X6863168Y478910D01*
X6844448Y465026D01*
X6824457Y453044D01*
X6803387Y443079D01*
X6781443Y435227D01*
X6758834Y429563D01*
X6735779Y426144D01*
X6712500Y425000D01*
X6137500Y425000D01*
X6114221Y426144D01*
X6091166Y429563D01*
X6068557Y435227D01*
X6046613Y443079D01*
X6025543Y453044D01*
X6005552Y465026D01*
X5986832Y478910D01*
X5969562Y494562D01*
X5953910Y511832D01*
X5940026Y530552D01*
X5928044Y550543D01*
X5918079Y571613D01*
X5910227Y593557D01*
X5904563Y616166D01*
X5901144Y639221D01*
X5900000Y662500D01*
X5900000Y1137500D01*
X5901144Y1160779D01*
X5904563Y1183834D01*
X5910227Y1206443D01*
X5918079Y1228387D01*
X5928044Y1249457D01*
X5940026Y1269448D01*
X5953910Y1288168D01*
X5969562Y1305438D01*
X5986832Y1321090D01*
X6005552Y1334974D01*
X6025543Y1346956D01*
X6046613Y1356921D01*
X6068557Y1364773D01*
X6091166Y1370437D01*
X6114221Y1373856D01*
X6137500Y1375000D01*
X6712500Y1375000D01*
X6735779Y1373856D01*
G37*
G36*
X4985779Y1373856D02*
G01*
X5008834Y1370437D01*
X5031443Y1364773D01*
X5053387Y1356921D01*
X5074457Y1346956D01*
X5094448Y1334974D01*
X5113168Y1321090D01*
X5130438Y1305438D01*
X5146090Y1288168D01*
X5159974Y1269448D01*
X5171956Y1249457D01*
X5181921Y1228387D01*
X5189773Y1206443D01*
X5195437Y1183834D01*
X5198856Y1160779D01*
X5200000Y1137500D01*
X5200000Y662500D01*
X5198856Y639221D01*
X5195437Y616166D01*
X5189773Y593557D01*
X5181921Y571613D01*
X5171956Y550543D01*
X5159974Y530552D01*
X5146090Y511832D01*
X5130438Y494562D01*
X5113168Y478910D01*
X5094448Y465026D01*
X5074457Y453044D01*
X5053387Y443079D01*
X5031443Y435227D01*
X5008834Y429563D01*
X4985779Y426144D01*
X4962500Y425000D01*
X4387500Y425000D01*
X4364221Y426144D01*
X4341166Y429563D01*
X4318557Y435227D01*
X4296613Y443079D01*
X4275543Y453044D01*
X4255552Y465026D01*
X4236832Y478910D01*
X4219562Y494562D01*
X4203910Y511832D01*
X4190026Y530552D01*
X4178044Y550543D01*
X4168079Y571613D01*
X4160227Y593557D01*
X4154563Y616166D01*
X4151144Y639221D01*
X4150000Y662500D01*
X4150000Y1137500D01*
X4151144Y1160779D01*
X4154563Y1183834D01*
X4160227Y1206443D01*
X4168079Y1228387D01*
X4178044Y1249457D01*
X4190026Y1269448D01*
X4203910Y1288168D01*
X4219562Y1305438D01*
X4236832Y1321090D01*
X4255552Y1334974D01*
X4275543Y1346956D01*
X4296613Y1356921D01*
X4318557Y1364773D01*
X4341166Y1370437D01*
X4364221Y1373856D01*
X4387500Y1375000D01*
X4962500Y1375000D01*
X4985779Y1373856D01*
G37*
G36*
X10420779Y17428856D02*
G01*
X10443834Y17425437D01*
X10466443Y17419773D01*
X10488387Y17411921D01*
X10509457Y17401956D01*
X10529448Y17389974D01*
X10548168Y17376090D01*
X10565438Y17360438D01*
X10581090Y17343168D01*
X10594974Y17324448D01*
X10606956Y17304457D01*
X10616921Y17283387D01*
X10624773Y17261443D01*
X10630437Y17238834D01*
X10633856Y17215779D01*
X10635000Y17192500D01*
X10635000Y16617500D01*
X10633856Y16594221D01*
X10630437Y16571166D01*
X10624773Y16548557D01*
X10616921Y16526613D01*
X10606956Y16505543D01*
X10594974Y16485552D01*
X10581090Y16466832D01*
X10565438Y16449562D01*
X10548168Y16433910D01*
X10529448Y16420026D01*
X10509457Y16408044D01*
X10488387Y16398079D01*
X10466443Y16390227D01*
X10443834Y16384563D01*
X10420779Y16381144D01*
X10397500Y16380000D01*
X9922500Y16380000D01*
X9899221Y16381144D01*
X9876166Y16384563D01*
X9853557Y16390227D01*
X9831613Y16398079D01*
X9810543Y16408044D01*
X9790552Y16420026D01*
X9771832Y16433910D01*
X9754562Y16449562D01*
X9738910Y16466832D01*
X9725026Y16485552D01*
X9713044Y16505543D01*
X9703079Y16526613D01*
X9695227Y16548557D01*
X9689563Y16571166D01*
X9686144Y16594221D01*
X9685000Y16617500D01*
X9685000Y17192500D01*
X9686144Y17215779D01*
X9689563Y17238834D01*
X9695227Y17261443D01*
X9703079Y17283387D01*
X9713044Y17304457D01*
X9725026Y17324448D01*
X9738910Y17343168D01*
X9754562Y17360438D01*
X9771832Y17376090D01*
X9790552Y17389974D01*
X9810543Y17401956D01*
X9831613Y17411921D01*
X9853557Y17419773D01*
X9876166Y17425437D01*
X9899221Y17428856D01*
X9922500Y17430000D01*
X10397500Y17430000D01*
X10420779Y17428856D01*
G37*
G36*
X10420779Y19178856D02*
G01*
X10443834Y19175437D01*
X10466443Y19169773D01*
X10488387Y19161921D01*
X10509457Y19151956D01*
X10529448Y19139974D01*
X10548168Y19126090D01*
X10565438Y19110438D01*
X10581090Y19093168D01*
X10594974Y19074448D01*
X10606956Y19054457D01*
X10616921Y19033387D01*
X10624773Y19011443D01*
X10630437Y18988834D01*
X10633856Y18965779D01*
X10635000Y18942500D01*
X10635000Y18367500D01*
X10633856Y18344221D01*
X10630437Y18321166D01*
X10624773Y18298557D01*
X10616921Y18276613D01*
X10606956Y18255543D01*
X10594974Y18235552D01*
X10581090Y18216832D01*
X10565438Y18199562D01*
X10548168Y18183910D01*
X10529448Y18170026D01*
X10509457Y18158044D01*
X10488387Y18148079D01*
X10466443Y18140227D01*
X10443834Y18134563D01*
X10420779Y18131144D01*
X10397500Y18130000D01*
X9922500Y18130000D01*
X9899221Y18131144D01*
X9876166Y18134563D01*
X9853557Y18140227D01*
X9831613Y18148079D01*
X9810543Y18158044D01*
X9790552Y18170026D01*
X9771832Y18183910D01*
X9754562Y18199562D01*
X9738910Y18216832D01*
X9725026Y18235552D01*
X9713044Y18255543D01*
X9703079Y18276613D01*
X9695227Y18298557D01*
X9689563Y18321166D01*
X9686144Y18344221D01*
X9685000Y18367500D01*
X9685000Y18942500D01*
X9686144Y18965779D01*
X9689563Y18988834D01*
X9695227Y19011443D01*
X9703079Y19033387D01*
X9713044Y19054457D01*
X9725026Y19074448D01*
X9738910Y19093168D01*
X9754562Y19110438D01*
X9771832Y19126090D01*
X9790552Y19139974D01*
X9810543Y19151956D01*
X9831613Y19161921D01*
X9853557Y19169773D01*
X9876166Y19175437D01*
X9899221Y19178856D01*
X9922500Y19180000D01*
X10397500Y19180000D01*
X10420779Y19178856D01*
G37*
G36*
X14868779Y17408856D02*
G01*
X14891834Y17405437D01*
X14914443Y17399773D01*
X14936387Y17391921D01*
X14957457Y17381956D01*
X14977448Y17369974D01*
X14996168Y17356090D01*
X15013438Y17340438D01*
X15029090Y17323168D01*
X15042974Y17304448D01*
X15054956Y17284457D01*
X15064921Y17263387D01*
X15072773Y17241443D01*
X15078437Y17218834D01*
X15081856Y17195779D01*
X15083000Y17172500D01*
X15083000Y16597500D01*
X15081856Y16574221D01*
X15078437Y16551166D01*
X15072773Y16528557D01*
X15064921Y16506613D01*
X15054956Y16485543D01*
X15042974Y16465552D01*
X15029090Y16446832D01*
X15013438Y16429562D01*
X14996168Y16413910D01*
X14977448Y16400026D01*
X14957457Y16388044D01*
X14936387Y16378079D01*
X14914443Y16370227D01*
X14891834Y16364563D01*
X14868779Y16361144D01*
X14845500Y16360000D01*
X14370500Y16360000D01*
X14347221Y16361144D01*
X14324166Y16364563D01*
X14301557Y16370227D01*
X14279613Y16378079D01*
X14258543Y16388044D01*
X14238552Y16400026D01*
X14219832Y16413910D01*
X14202562Y16429562D01*
X14186910Y16446832D01*
X14173026Y16465552D01*
X14161044Y16485543D01*
X14151079Y16506613D01*
X14143227Y16528557D01*
X14137563Y16551166D01*
X14134144Y16574221D01*
X14133000Y16597500D01*
X14133000Y17172500D01*
X14134144Y17195779D01*
X14137563Y17218834D01*
X14143227Y17241443D01*
X14151079Y17263387D01*
X14161044Y17284457D01*
X14173026Y17304448D01*
X14186910Y17323168D01*
X14202562Y17340438D01*
X14219832Y17356090D01*
X14238552Y17369974D01*
X14258543Y17381956D01*
X14279613Y17391921D01*
X14301557Y17399773D01*
X14324166Y17405437D01*
X14347221Y17408856D01*
X14370500Y17410000D01*
X14845500Y17410000D01*
X14868779Y17408856D01*
G37*
G36*
X14868779Y19158856D02*
G01*
X14891834Y19155437D01*
X14914443Y19149773D01*
X14936387Y19141921D01*
X14957457Y19131956D01*
X14977448Y19119974D01*
X14996168Y19106090D01*
X15013438Y19090438D01*
X15029090Y19073168D01*
X15042974Y19054448D01*
X15054956Y19034457D01*
X15064921Y19013387D01*
X15072773Y18991443D01*
X15078437Y18968834D01*
X15081856Y18945779D01*
X15083000Y18922500D01*
X15083000Y18347500D01*
X15081856Y18324221D01*
X15078437Y18301166D01*
X15072773Y18278557D01*
X15064921Y18256613D01*
X15054956Y18235543D01*
X15042974Y18215552D01*
X15029090Y18196832D01*
X15013438Y18179562D01*
X14996168Y18163910D01*
X14977448Y18150026D01*
X14957457Y18138044D01*
X14936387Y18128079D01*
X14914443Y18120227D01*
X14891834Y18114563D01*
X14868779Y18111144D01*
X14845500Y18110000D01*
X14370500Y18110000D01*
X14347221Y18111144D01*
X14324166Y18114563D01*
X14301557Y18120227D01*
X14279613Y18128079D01*
X14258543Y18138044D01*
X14238552Y18150026D01*
X14219832Y18163910D01*
X14202562Y18179562D01*
X14186910Y18196832D01*
X14173026Y18215552D01*
X14161044Y18235543D01*
X14151079Y18256613D01*
X14143227Y18278557D01*
X14137563Y18301166D01*
X14134144Y18324221D01*
X14133000Y18347500D01*
X14133000Y18922500D01*
X14134144Y18945779D01*
X14137563Y18968834D01*
X14143227Y18991443D01*
X14151079Y19013387D01*
X14161044Y19034457D01*
X14173026Y19054448D01*
X14186910Y19073168D01*
X14202562Y19090438D01*
X14219832Y19106090D01*
X14238552Y19119974D01*
X14258543Y19131956D01*
X14279613Y19141921D01*
X14301557Y19149773D01*
X14324166Y19155437D01*
X14347221Y19158856D01*
X14370500Y19160000D01*
X14845500Y19160000D01*
X14868779Y19158856D01*
G37*
G36*
X12681691Y17538947D02*
G01*
X12702926Y17535797D01*
X12723750Y17530581D01*
X12743962Y17523349D01*
X12763368Y17514170D01*
X12781781Y17503134D01*
X12799024Y17490346D01*
X12814930Y17475930D01*
X12829346Y17460024D01*
X12842134Y17442781D01*
X12853170Y17424368D01*
X12862349Y17404962D01*
X12869581Y17384750D01*
X12874797Y17363926D01*
X12877947Y17342691D01*
X12879000Y17321250D01*
X12879000Y16883750D01*
X12877947Y16862309D01*
X12874797Y16841074D01*
X12869581Y16820250D01*
X12862349Y16800038D01*
X12853170Y16780632D01*
X12842134Y16762219D01*
X12829346Y16744976D01*
X12814930Y16729070D01*
X12799024Y16714654D01*
X12781781Y16701866D01*
X12763368Y16690830D01*
X12743962Y16681651D01*
X12723750Y16674419D01*
X12702926Y16669203D01*
X12681691Y16666053D01*
X12660250Y16665000D01*
X12147750Y16665000D01*
X12126309Y16666053D01*
X12105074Y16669203D01*
X12084250Y16674419D01*
X12064038Y16681651D01*
X12044632Y16690830D01*
X12026219Y16701866D01*
X12008976Y16714654D01*
X11993070Y16729070D01*
X11978654Y16744976D01*
X11965866Y16762219D01*
X11954830Y16780632D01*
X11945651Y16800038D01*
X11938419Y16820250D01*
X11933203Y16841074D01*
X11930053Y16862309D01*
X11929000Y16883750D01*
X11929000Y17321250D01*
X11930053Y17342691D01*
X11933203Y17363926D01*
X11938419Y17384750D01*
X11945651Y17404962D01*
X11954830Y17424368D01*
X11965866Y17442781D01*
X11978654Y17460024D01*
X11993070Y17475930D01*
X12008976Y17490346D01*
X12026219Y17503134D01*
X12044632Y17514170D01*
X12064038Y17523349D01*
X12084250Y17530581D01*
X12105074Y17535797D01*
X12126309Y17538947D01*
X12147750Y17540000D01*
X12660250Y17540000D01*
X12681691Y17538947D01*
G37*
G36*
X12681691Y19113947D02*
G01*
X12702926Y19110797D01*
X12723750Y19105581D01*
X12743962Y19098349D01*
X12763368Y19089170D01*
X12781781Y19078134D01*
X12799024Y19065346D01*
X12814930Y19050930D01*
X12829346Y19035024D01*
X12842134Y19017781D01*
X12853170Y18999368D01*
X12862349Y18979962D01*
X12869581Y18959750D01*
X12874797Y18938926D01*
X12877947Y18917691D01*
X12879000Y18896250D01*
X12879000Y18458750D01*
X12877947Y18437309D01*
X12874797Y18416074D01*
X12869581Y18395250D01*
X12862349Y18375038D01*
X12853170Y18355632D01*
X12842134Y18337219D01*
X12829346Y18319976D01*
X12814930Y18304070D01*
X12799024Y18289654D01*
X12781781Y18276866D01*
X12763368Y18265830D01*
X12743962Y18256651D01*
X12723750Y18249419D01*
X12702926Y18244203D01*
X12681691Y18241053D01*
X12660250Y18240000D01*
X12147750Y18240000D01*
X12126309Y18241053D01*
X12105074Y18244203D01*
X12084250Y18249419D01*
X12064038Y18256651D01*
X12044632Y18265830D01*
X12026219Y18276866D01*
X12008976Y18289654D01*
X11993070Y18304070D01*
X11978654Y18319976D01*
X11965866Y18337219D01*
X11954830Y18355632D01*
X11945651Y18375038D01*
X11938419Y18395250D01*
X11933203Y18416074D01*
X11930053Y18437309D01*
X11929000Y18458750D01*
X11929000Y18896250D01*
X11930053Y18917691D01*
X11933203Y18938926D01*
X11938419Y18959750D01*
X11945651Y18979962D01*
X11954830Y18999368D01*
X11965866Y19017781D01*
X11978654Y19035024D01*
X11993070Y19050930D01*
X12008976Y19065346D01*
X12026219Y19078134D01*
X12044632Y19089170D01*
X12064038Y19098349D01*
X12084250Y19105581D01*
X12105074Y19110797D01*
X12126309Y19113947D01*
X12147750Y19115000D01*
X12660250Y19115000D01*
X12681691Y19113947D01*
G37*
D11*
X32957000Y33782000D03*
X39687000Y33782000D03*
D10*
G36*
X10420779Y23242856D02*
G01*
X10443834Y23239437D01*
X10466443Y23233773D01*
X10488387Y23225921D01*
X10509457Y23215956D01*
X10529448Y23203974D01*
X10548168Y23190090D01*
X10565438Y23174438D01*
X10581090Y23157168D01*
X10594974Y23138448D01*
X10606956Y23118457D01*
X10616921Y23097387D01*
X10624773Y23075443D01*
X10630437Y23052834D01*
X10633856Y23029779D01*
X10635000Y23006500D01*
X10635000Y22431500D01*
X10633856Y22408221D01*
X10630437Y22385166D01*
X10624773Y22362557D01*
X10616921Y22340613D01*
X10606956Y22319543D01*
X10594974Y22299552D01*
X10581090Y22280832D01*
X10565438Y22263562D01*
X10548168Y22247910D01*
X10529448Y22234026D01*
X10509457Y22222044D01*
X10488387Y22212079D01*
X10466443Y22204227D01*
X10443834Y22198563D01*
X10420779Y22195144D01*
X10397500Y22194000D01*
X9922500Y22194000D01*
X9899221Y22195144D01*
X9876166Y22198563D01*
X9853557Y22204227D01*
X9831613Y22212079D01*
X9810543Y22222044D01*
X9790552Y22234026D01*
X9771832Y22247910D01*
X9754562Y22263562D01*
X9738910Y22280832D01*
X9725026Y22299552D01*
X9713044Y22319543D01*
X9703079Y22340613D01*
X9695227Y22362557D01*
X9689563Y22385166D01*
X9686144Y22408221D01*
X9685000Y22431500D01*
X9685000Y23006500D01*
X9686144Y23029779D01*
X9689563Y23052834D01*
X9695227Y23075443D01*
X9703079Y23097387D01*
X9713044Y23118457D01*
X9725026Y23138448D01*
X9738910Y23157168D01*
X9754562Y23174438D01*
X9771832Y23190090D01*
X9790552Y23203974D01*
X9810543Y23215956D01*
X9831613Y23225921D01*
X9853557Y23233773D01*
X9876166Y23239437D01*
X9899221Y23242856D01*
X9922500Y23244000D01*
X10397500Y23244000D01*
X10420779Y23242856D01*
G37*
G36*
X10420779Y21492856D02*
G01*
X10443834Y21489437D01*
X10466443Y21483773D01*
X10488387Y21475921D01*
X10509457Y21465956D01*
X10529448Y21453974D01*
X10548168Y21440090D01*
X10565438Y21424438D01*
X10581090Y21407168D01*
X10594974Y21388448D01*
X10606956Y21368457D01*
X10616921Y21347387D01*
X10624773Y21325443D01*
X10630437Y21302834D01*
X10633856Y21279779D01*
X10635000Y21256500D01*
X10635000Y20681500D01*
X10633856Y20658221D01*
X10630437Y20635166D01*
X10624773Y20612557D01*
X10616921Y20590613D01*
X10606956Y20569543D01*
X10594974Y20549552D01*
X10581090Y20530832D01*
X10565438Y20513562D01*
X10548168Y20497910D01*
X10529448Y20484026D01*
X10509457Y20472044D01*
X10488387Y20462079D01*
X10466443Y20454227D01*
X10443834Y20448563D01*
X10420779Y20445144D01*
X10397500Y20444000D01*
X9922500Y20444000D01*
X9899221Y20445144D01*
X9876166Y20448563D01*
X9853557Y20454227D01*
X9831613Y20462079D01*
X9810543Y20472044D01*
X9790552Y20484026D01*
X9771832Y20497910D01*
X9754562Y20513562D01*
X9738910Y20530832D01*
X9725026Y20549552D01*
X9713044Y20569543D01*
X9703079Y20590613D01*
X9695227Y20612557D01*
X9689563Y20635166D01*
X9686144Y20658221D01*
X9685000Y20681500D01*
X9685000Y21256500D01*
X9686144Y21279779D01*
X9689563Y21302834D01*
X9695227Y21325443D01*
X9703079Y21347387D01*
X9713044Y21368457D01*
X9725026Y21388448D01*
X9738910Y21407168D01*
X9754562Y21424438D01*
X9771832Y21440090D01*
X9790552Y21453974D01*
X9810543Y21465956D01*
X9831613Y21475921D01*
X9853557Y21483773D01*
X9876166Y21489437D01*
X9899221Y21492856D01*
X9922500Y21494000D01*
X10397500Y21494000D01*
X10420779Y21492856D01*
G37*
G36*
X12664779Y23182856D02*
G01*
X12687834Y23179437D01*
X12710443Y23173773D01*
X12732387Y23165921D01*
X12753457Y23155956D01*
X12773448Y23143974D01*
X12792168Y23130090D01*
X12809438Y23114438D01*
X12825090Y23097168D01*
X12838974Y23078448D01*
X12850956Y23058457D01*
X12860921Y23037387D01*
X12868773Y23015443D01*
X12874437Y22992834D01*
X12877856Y22969779D01*
X12879000Y22946500D01*
X12879000Y22371500D01*
X12877856Y22348221D01*
X12874437Y22325166D01*
X12868773Y22302557D01*
X12860921Y22280613D01*
X12850956Y22259543D01*
X12838974Y22239552D01*
X12825090Y22220832D01*
X12809438Y22203562D01*
X12792168Y22187910D01*
X12773448Y22174026D01*
X12753457Y22162044D01*
X12732387Y22152079D01*
X12710443Y22144227D01*
X12687834Y22138563D01*
X12664779Y22135144D01*
X12641500Y22134000D01*
X12166500Y22134000D01*
X12143221Y22135144D01*
X12120166Y22138563D01*
X12097557Y22144227D01*
X12075613Y22152079D01*
X12054543Y22162044D01*
X12034552Y22174026D01*
X12015832Y22187910D01*
X11998562Y22203562D01*
X11982910Y22220832D01*
X11969026Y22239552D01*
X11957044Y22259543D01*
X11947079Y22280613D01*
X11939227Y22302557D01*
X11933563Y22325166D01*
X11930144Y22348221D01*
X11929000Y22371500D01*
X11929000Y22946500D01*
X11930144Y22969779D01*
X11933563Y22992834D01*
X11939227Y23015443D01*
X11947079Y23037387D01*
X11957044Y23058457D01*
X11969026Y23078448D01*
X11982910Y23097168D01*
X11998562Y23114438D01*
X12015832Y23130090D01*
X12034552Y23143974D01*
X12054543Y23155956D01*
X12075613Y23165921D01*
X12097557Y23173773D01*
X12120166Y23179437D01*
X12143221Y23182856D01*
X12166500Y23184000D01*
X12641500Y23184000D01*
X12664779Y23182856D01*
G37*
G36*
X12664779Y21432856D02*
G01*
X12687834Y21429437D01*
X12710443Y21423773D01*
X12732387Y21415921D01*
X12753457Y21405956D01*
X12773448Y21393974D01*
X12792168Y21380090D01*
X12809438Y21364438D01*
X12825090Y21347168D01*
X12838974Y21328448D01*
X12850956Y21308457D01*
X12860921Y21287387D01*
X12868773Y21265443D01*
X12874437Y21242834D01*
X12877856Y21219779D01*
X12879000Y21196500D01*
X12879000Y20621500D01*
X12877856Y20598221D01*
X12874437Y20575166D01*
X12868773Y20552557D01*
X12860921Y20530613D01*
X12850956Y20509543D01*
X12838974Y20489552D01*
X12825090Y20470832D01*
X12809438Y20453562D01*
X12792168Y20437910D01*
X12773448Y20424026D01*
X12753457Y20412044D01*
X12732387Y20402079D01*
X12710443Y20394227D01*
X12687834Y20388563D01*
X12664779Y20385144D01*
X12641500Y20384000D01*
X12166500Y20384000D01*
X12143221Y20385144D01*
X12120166Y20388563D01*
X12097557Y20394227D01*
X12075613Y20402079D01*
X12054543Y20412044D01*
X12034552Y20424026D01*
X12015832Y20437910D01*
X11998562Y20453562D01*
X11982910Y20470832D01*
X11969026Y20489552D01*
X11957044Y20509543D01*
X11947079Y20530613D01*
X11939227Y20552557D01*
X11933563Y20575166D01*
X11930144Y20598221D01*
X11929000Y20621500D01*
X11929000Y21196500D01*
X11930144Y21219779D01*
X11933563Y21242834D01*
X11939227Y21265443D01*
X11947079Y21287387D01*
X11957044Y21308457D01*
X11969026Y21328448D01*
X11982910Y21347168D01*
X11998562Y21364438D01*
X12015832Y21380090D01*
X12034552Y21393974D01*
X12054543Y21405956D01*
X12075613Y21415921D01*
X12097557Y21423773D01*
X12120166Y21429437D01*
X12143221Y21432856D01*
X12166500Y21434000D01*
X12641500Y21434000D01*
X12664779Y21432856D01*
G37*
G36*
X14868779Y23222856D02*
G01*
X14891834Y23219437D01*
X14914443Y23213773D01*
X14936387Y23205921D01*
X14957457Y23195956D01*
X14977448Y23183974D01*
X14996168Y23170090D01*
X15013438Y23154438D01*
X15029090Y23137168D01*
X15042974Y23118448D01*
X15054956Y23098457D01*
X15064921Y23077387D01*
X15072773Y23055443D01*
X15078437Y23032834D01*
X15081856Y23009779D01*
X15083000Y22986500D01*
X15083000Y22411500D01*
X15081856Y22388221D01*
X15078437Y22365166D01*
X15072773Y22342557D01*
X15064921Y22320613D01*
X15054956Y22299543D01*
X15042974Y22279552D01*
X15029090Y22260832D01*
X15013438Y22243562D01*
X14996168Y22227910D01*
X14977448Y22214026D01*
X14957457Y22202044D01*
X14936387Y22192079D01*
X14914443Y22184227D01*
X14891834Y22178563D01*
X14868779Y22175144D01*
X14845500Y22174000D01*
X14370500Y22174000D01*
X14347221Y22175144D01*
X14324166Y22178563D01*
X14301557Y22184227D01*
X14279613Y22192079D01*
X14258543Y22202044D01*
X14238552Y22214026D01*
X14219832Y22227910D01*
X14202562Y22243562D01*
X14186910Y22260832D01*
X14173026Y22279552D01*
X14161044Y22299543D01*
X14151079Y22320613D01*
X14143227Y22342557D01*
X14137563Y22365166D01*
X14134144Y22388221D01*
X14133000Y22411500D01*
X14133000Y22986500D01*
X14134144Y23009779D01*
X14137563Y23032834D01*
X14143227Y23055443D01*
X14151079Y23077387D01*
X14161044Y23098457D01*
X14173026Y23118448D01*
X14186910Y23137168D01*
X14202562Y23154438D01*
X14219832Y23170090D01*
X14238552Y23183974D01*
X14258543Y23195956D01*
X14279613Y23205921D01*
X14301557Y23213773D01*
X14324166Y23219437D01*
X14347221Y23222856D01*
X14370500Y23224000D01*
X14845500Y23224000D01*
X14868779Y23222856D01*
G37*
G36*
X14868779Y21472856D02*
G01*
X14891834Y21469437D01*
X14914443Y21463773D01*
X14936387Y21455921D01*
X14957457Y21445956D01*
X14977448Y21433974D01*
X14996168Y21420090D01*
X15013438Y21404438D01*
X15029090Y21387168D01*
X15042974Y21368448D01*
X15054956Y21348457D01*
X15064921Y21327387D01*
X15072773Y21305443D01*
X15078437Y21282834D01*
X15081856Y21259779D01*
X15083000Y21236500D01*
X15083000Y20661500D01*
X15081856Y20638221D01*
X15078437Y20615166D01*
X15072773Y20592557D01*
X15064921Y20570613D01*
X15054956Y20549543D01*
X15042974Y20529552D01*
X15029090Y20510832D01*
X15013438Y20493562D01*
X14996168Y20477910D01*
X14977448Y20464026D01*
X14957457Y20452044D01*
X14936387Y20442079D01*
X14914443Y20434227D01*
X14891834Y20428563D01*
X14868779Y20425144D01*
X14845500Y20424000D01*
X14370500Y20424000D01*
X14347221Y20425144D01*
X14324166Y20428563D01*
X14301557Y20434227D01*
X14279613Y20442079D01*
X14258543Y20452044D01*
X14238552Y20464026D01*
X14219832Y20477910D01*
X14202562Y20493562D01*
X14186910Y20510832D01*
X14173026Y20529552D01*
X14161044Y20549543D01*
X14151079Y20570613D01*
X14143227Y20592557D01*
X14137563Y20615166D01*
X14134144Y20638221D01*
X14133000Y20661500D01*
X14133000Y21236500D01*
X14134144Y21259779D01*
X14137563Y21282834D01*
X14143227Y21305443D01*
X14151079Y21327387D01*
X14161044Y21348457D01*
X14173026Y21368448D01*
X14186910Y21387168D01*
X14202562Y21404438D01*
X14219832Y21420090D01*
X14238552Y21433974D01*
X14258543Y21445956D01*
X14279613Y21455921D01*
X14301557Y21463773D01*
X14324166Y21469437D01*
X14347221Y21472856D01*
X14370500Y21474000D01*
X14845500Y21474000D01*
X14868779Y21472856D01*
G37*
G36*
X10575779Y2823856D02*
G01*
X10598834Y2820437D01*
X10621443Y2814773D01*
X10643387Y2806921D01*
X10664457Y2796956D01*
X10684448Y2784974D01*
X10703168Y2771090D01*
X10720438Y2755438D01*
X10736090Y2738168D01*
X10749974Y2719448D01*
X10761956Y2699457D01*
X10771921Y2678387D01*
X10779773Y2656443D01*
X10785437Y2633834D01*
X10788856Y2610779D01*
X10790000Y2587500D01*
X10790000Y2112500D01*
X10788856Y2089221D01*
X10785437Y2066166D01*
X10779773Y2043557D01*
X10771921Y2021613D01*
X10761956Y2000543D01*
X10749974Y1980552D01*
X10736090Y1961832D01*
X10720438Y1944562D01*
X10703168Y1928910D01*
X10684448Y1915026D01*
X10664457Y1903044D01*
X10643387Y1893079D01*
X10621443Y1885227D01*
X10598834Y1879563D01*
X10575779Y1876144D01*
X10552500Y1875000D01*
X9977500Y1875000D01*
X9954221Y1876144D01*
X9931166Y1879563D01*
X9908557Y1885227D01*
X9886613Y1893079D01*
X9865543Y1903044D01*
X9845552Y1915026D01*
X9826832Y1928910D01*
X9809562Y1944562D01*
X9793910Y1961832D01*
X9780026Y1980552D01*
X9768044Y2000543D01*
X9758079Y2021613D01*
X9750227Y2043557D01*
X9744563Y2066166D01*
X9741144Y2089221D01*
X9740000Y2112500D01*
X9740000Y2587500D01*
X9741144Y2610779D01*
X9744563Y2633834D01*
X9750227Y2656443D01*
X9758079Y2678387D01*
X9768044Y2699457D01*
X9780026Y2719448D01*
X9793910Y2738168D01*
X9809562Y2755438D01*
X9826832Y2771090D01*
X9845552Y2784974D01*
X9865543Y2796956D01*
X9886613Y2806921D01*
X9908557Y2814773D01*
X9931166Y2820437D01*
X9954221Y2823856D01*
X9977500Y2825000D01*
X10552500Y2825000D01*
X10575779Y2823856D01*
G37*
G36*
X8825779Y2823856D02*
G01*
X8848834Y2820437D01*
X8871443Y2814773D01*
X8893387Y2806921D01*
X8914457Y2796956D01*
X8934448Y2784974D01*
X8953168Y2771090D01*
X8970438Y2755438D01*
X8986090Y2738168D01*
X8999974Y2719448D01*
X9011956Y2699457D01*
X9021921Y2678387D01*
X9029773Y2656443D01*
X9035437Y2633834D01*
X9038856Y2610779D01*
X9040000Y2587500D01*
X9040000Y2112500D01*
X9038856Y2089221D01*
X9035437Y2066166D01*
X9029773Y2043557D01*
X9021921Y2021613D01*
X9011956Y2000543D01*
X8999974Y1980552D01*
X8986090Y1961832D01*
X8970438Y1944562D01*
X8953168Y1928910D01*
X8934448Y1915026D01*
X8914457Y1903044D01*
X8893387Y1893079D01*
X8871443Y1885227D01*
X8848834Y1879563D01*
X8825779Y1876144D01*
X8802500Y1875000D01*
X8227500Y1875000D01*
X8204221Y1876144D01*
X8181166Y1879563D01*
X8158557Y1885227D01*
X8136613Y1893079D01*
X8115543Y1903044D01*
X8095552Y1915026D01*
X8076832Y1928910D01*
X8059562Y1944562D01*
X8043910Y1961832D01*
X8030026Y1980552D01*
X8018044Y2000543D01*
X8008079Y2021613D01*
X8000227Y2043557D01*
X7994563Y2066166D01*
X7991144Y2089221D01*
X7990000Y2112500D01*
X7990000Y2587500D01*
X7991144Y2610779D01*
X7994563Y2633834D01*
X8000227Y2656443D01*
X8008079Y2678387D01*
X8018044Y2699457D01*
X8030026Y2719448D01*
X8043910Y2738168D01*
X8059562Y2755438D01*
X8076832Y2771090D01*
X8095552Y2784974D01*
X8115543Y2796956D01*
X8136613Y2806921D01*
X8158557Y2814773D01*
X8181166Y2820437D01*
X8204221Y2823856D01*
X8227500Y2825000D01*
X8802500Y2825000D01*
X8825779Y2823856D01*
G37*
D12*
X12354000Y7098000D03*
X12854000Y7098000D03*
X13354000Y7098000D03*
X13854000Y7098000D03*
X13854000Y4198000D03*
X13354000Y4198000D03*
X12854000Y4198000D03*
X12354000Y4198000D03*
D10*
G36*
X15825779Y2663856D02*
G01*
X15848834Y2660437D01*
X15871443Y2654773D01*
X15893387Y2646921D01*
X15914457Y2636956D01*
X15934448Y2624974D01*
X15953168Y2611090D01*
X15970438Y2595438D01*
X15986090Y2578168D01*
X15999974Y2559448D01*
X16011956Y2539457D01*
X16021921Y2518387D01*
X16029773Y2496443D01*
X16035437Y2473834D01*
X16038856Y2450779D01*
X16040000Y2427500D01*
X16040000Y1952500D01*
X16038856Y1929221D01*
X16035437Y1906166D01*
X16029773Y1883557D01*
X16021921Y1861613D01*
X16011956Y1840543D01*
X15999974Y1820552D01*
X15986090Y1801832D01*
X15970438Y1784562D01*
X15953168Y1768910D01*
X15934448Y1755026D01*
X15914457Y1743044D01*
X15893387Y1733079D01*
X15871443Y1725227D01*
X15848834Y1719563D01*
X15825779Y1716144D01*
X15802500Y1715000D01*
X15227500Y1715000D01*
X15204221Y1716144D01*
X15181166Y1719563D01*
X15158557Y1725227D01*
X15136613Y1733079D01*
X15115543Y1743044D01*
X15095552Y1755026D01*
X15076832Y1768910D01*
X15059562Y1784562D01*
X15043910Y1801832D01*
X15030026Y1820552D01*
X15018044Y1840543D01*
X15008079Y1861613D01*
X15000227Y1883557D01*
X14994563Y1906166D01*
X14991144Y1929221D01*
X14990000Y1952500D01*
X14990000Y2427500D01*
X14991144Y2450779D01*
X14994563Y2473834D01*
X15000227Y2496443D01*
X15008079Y2518387D01*
X15018044Y2539457D01*
X15030026Y2559448D01*
X15043910Y2578168D01*
X15059562Y2595438D01*
X15076832Y2611090D01*
X15095552Y2624974D01*
X15115543Y2636956D01*
X15136613Y2646921D01*
X15158557Y2654773D01*
X15181166Y2660437D01*
X15204221Y2663856D01*
X15227500Y2665000D01*
X15802500Y2665000D01*
X15825779Y2663856D01*
G37*
G36*
X14075779Y2663856D02*
G01*
X14098834Y2660437D01*
X14121443Y2654773D01*
X14143387Y2646921D01*
X14164457Y2636956D01*
X14184448Y2624974D01*
X14203168Y2611090D01*
X14220438Y2595438D01*
X14236090Y2578168D01*
X14249974Y2559448D01*
X14261956Y2539457D01*
X14271921Y2518387D01*
X14279773Y2496443D01*
X14285437Y2473834D01*
X14288856Y2450779D01*
X14290000Y2427500D01*
X14290000Y1952500D01*
X14288856Y1929221D01*
X14285437Y1906166D01*
X14279773Y1883557D01*
X14271921Y1861613D01*
X14261956Y1840543D01*
X14249974Y1820552D01*
X14236090Y1801832D01*
X14220438Y1784562D01*
X14203168Y1768910D01*
X14184448Y1755026D01*
X14164457Y1743044D01*
X14143387Y1733079D01*
X14121443Y1725227D01*
X14098834Y1719563D01*
X14075779Y1716144D01*
X14052500Y1715000D01*
X13477500Y1715000D01*
X13454221Y1716144D01*
X13431166Y1719563D01*
X13408557Y1725227D01*
X13386613Y1733079D01*
X13365543Y1743044D01*
X13345552Y1755026D01*
X13326832Y1768910D01*
X13309562Y1784562D01*
X13293910Y1801832D01*
X13280026Y1820552D01*
X13268044Y1840543D01*
X13258079Y1861613D01*
X13250227Y1883557D01*
X13244563Y1906166D01*
X13241144Y1929221D01*
X13240000Y1952500D01*
X13240000Y2427500D01*
X13241144Y2450779D01*
X13244563Y2473834D01*
X13250227Y2496443D01*
X13258079Y2518387D01*
X13268044Y2539457D01*
X13280026Y2559448D01*
X13293910Y2578168D01*
X13309562Y2595438D01*
X13326832Y2611090D01*
X13345552Y2624974D01*
X13365543Y2636956D01*
X13386613Y2646921D01*
X13408557Y2654773D01*
X13431166Y2660437D01*
X13454221Y2663856D01*
X13477500Y2665000D01*
X14052500Y2665000D01*
X14075779Y2663856D01*
G37*
G36*
X11874779Y10346856D02*
G01*
X11897834Y10343437D01*
X11920443Y10337773D01*
X11942387Y10329921D01*
X11963457Y10319956D01*
X11983448Y10307974D01*
X12002168Y10294090D01*
X12019438Y10278438D01*
X12035090Y10261168D01*
X12048974Y10242448D01*
X12060956Y10222457D01*
X12070921Y10201387D01*
X12078773Y10179443D01*
X12084437Y10156834D01*
X12087856Y10133779D01*
X12089000Y10110500D01*
X12089000Y9535500D01*
X12087856Y9512221D01*
X12084437Y9489166D01*
X12078773Y9466557D01*
X12070921Y9444613D01*
X12060956Y9423543D01*
X12048974Y9403552D01*
X12035090Y9384832D01*
X12019438Y9367562D01*
X12002168Y9351910D01*
X11983448Y9338026D01*
X11963457Y9326044D01*
X11942387Y9316079D01*
X11920443Y9308227D01*
X11897834Y9302563D01*
X11874779Y9299144D01*
X11851500Y9298000D01*
X11376500Y9298000D01*
X11353221Y9299144D01*
X11330166Y9302563D01*
X11307557Y9308227D01*
X11285613Y9316079D01*
X11264543Y9326044D01*
X11244552Y9338026D01*
X11225832Y9351910D01*
X11208562Y9367562D01*
X11192910Y9384832D01*
X11179026Y9403552D01*
X11167044Y9423543D01*
X11157079Y9444613D01*
X11149227Y9466557D01*
X11143563Y9489166D01*
X11140144Y9512221D01*
X11139000Y9535500D01*
X11139000Y10110500D01*
X11140144Y10133779D01*
X11143563Y10156834D01*
X11149227Y10179443D01*
X11157079Y10201387D01*
X11167044Y10222457D01*
X11179026Y10242448D01*
X11192910Y10261168D01*
X11208562Y10278438D01*
X11225832Y10294090D01*
X11244552Y10307974D01*
X11264543Y10319956D01*
X11285613Y10329921D01*
X11307557Y10337773D01*
X11330166Y10343437D01*
X11353221Y10346856D01*
X11376500Y10348000D01*
X11851500Y10348000D01*
X11874779Y10346856D01*
G37*
G36*
X11874779Y12096856D02*
G01*
X11897834Y12093437D01*
X11920443Y12087773D01*
X11942387Y12079921D01*
X11963457Y12069956D01*
X11983448Y12057974D01*
X12002168Y12044090D01*
X12019438Y12028438D01*
X12035090Y12011168D01*
X12048974Y11992448D01*
X12060956Y11972457D01*
X12070921Y11951387D01*
X12078773Y11929443D01*
X12084437Y11906834D01*
X12087856Y11883779D01*
X12089000Y11860500D01*
X12089000Y11285500D01*
X12087856Y11262221D01*
X12084437Y11239166D01*
X12078773Y11216557D01*
X12070921Y11194613D01*
X12060956Y11173543D01*
X12048974Y11153552D01*
X12035090Y11134832D01*
X12019438Y11117562D01*
X12002168Y11101910D01*
X11983448Y11088026D01*
X11963457Y11076044D01*
X11942387Y11066079D01*
X11920443Y11058227D01*
X11897834Y11052563D01*
X11874779Y11049144D01*
X11851500Y11048000D01*
X11376500Y11048000D01*
X11353221Y11049144D01*
X11330166Y11052563D01*
X11307557Y11058227D01*
X11285613Y11066079D01*
X11264543Y11076044D01*
X11244552Y11088026D01*
X11225832Y11101910D01*
X11208562Y11117562D01*
X11192910Y11134832D01*
X11179026Y11153552D01*
X11167044Y11173543D01*
X11157079Y11194613D01*
X11149227Y11216557D01*
X11143563Y11239166D01*
X11140144Y11262221D01*
X11139000Y11285500D01*
X11139000Y11860500D01*
X11140144Y11883779D01*
X11143563Y11906834D01*
X11149227Y11929443D01*
X11157079Y11951387D01*
X11167044Y11972457D01*
X11179026Y11992448D01*
X11192910Y12011168D01*
X11208562Y12028438D01*
X11225832Y12044090D01*
X11244552Y12057974D01*
X11264543Y12069956D01*
X11285613Y12079921D01*
X11307557Y12087773D01*
X11330166Y12093437D01*
X11353221Y12096856D01*
X11376500Y12098000D01*
X11851500Y12098000D01*
X11874779Y12096856D01*
G37*
G36*
X13384779Y10346856D02*
G01*
X13407834Y10343437D01*
X13430443Y10337773D01*
X13452387Y10329921D01*
X13473457Y10319956D01*
X13493448Y10307974D01*
X13512168Y10294090D01*
X13529438Y10278438D01*
X13545090Y10261168D01*
X13558974Y10242448D01*
X13570956Y10222457D01*
X13580921Y10201387D01*
X13588773Y10179443D01*
X13594437Y10156834D01*
X13597856Y10133779D01*
X13599000Y10110500D01*
X13599000Y9535500D01*
X13597856Y9512221D01*
X13594437Y9489166D01*
X13588773Y9466557D01*
X13580921Y9444613D01*
X13570956Y9423543D01*
X13558974Y9403552D01*
X13545090Y9384832D01*
X13529438Y9367562D01*
X13512168Y9351910D01*
X13493448Y9338026D01*
X13473457Y9326044D01*
X13452387Y9316079D01*
X13430443Y9308227D01*
X13407834Y9302563D01*
X13384779Y9299144D01*
X13361500Y9298000D01*
X12886500Y9298000D01*
X12863221Y9299144D01*
X12840166Y9302563D01*
X12817557Y9308227D01*
X12795613Y9316079D01*
X12774543Y9326044D01*
X12754552Y9338026D01*
X12735832Y9351910D01*
X12718562Y9367562D01*
X12702910Y9384832D01*
X12689026Y9403552D01*
X12677044Y9423543D01*
X12667079Y9444613D01*
X12659227Y9466557D01*
X12653563Y9489166D01*
X12650144Y9512221D01*
X12649000Y9535500D01*
X12649000Y10110500D01*
X12650144Y10133779D01*
X12653563Y10156834D01*
X12659227Y10179443D01*
X12667079Y10201387D01*
X12677044Y10222457D01*
X12689026Y10242448D01*
X12702910Y10261168D01*
X12718562Y10278438D01*
X12735832Y10294090D01*
X12754552Y10307974D01*
X12774543Y10319956D01*
X12795613Y10329921D01*
X12817557Y10337773D01*
X12840166Y10343437D01*
X12863221Y10346856D01*
X12886500Y10348000D01*
X13361500Y10348000D01*
X13384779Y10346856D01*
G37*
G36*
X13384779Y12096856D02*
G01*
X13407834Y12093437D01*
X13430443Y12087773D01*
X13452387Y12079921D01*
X13473457Y12069956D01*
X13493448Y12057974D01*
X13512168Y12044090D01*
X13529438Y12028438D01*
X13545090Y12011168D01*
X13558974Y11992448D01*
X13570956Y11972457D01*
X13580921Y11951387D01*
X13588773Y11929443D01*
X13594437Y11906834D01*
X13597856Y11883779D01*
X13599000Y11860500D01*
X13599000Y11285500D01*
X13597856Y11262221D01*
X13594437Y11239166D01*
X13588773Y11216557D01*
X13580921Y11194613D01*
X13570956Y11173543D01*
X13558974Y11153552D01*
X13545090Y11134832D01*
X13529438Y11117562D01*
X13512168Y11101910D01*
X13493448Y11088026D01*
X13473457Y11076044D01*
X13452387Y11066079D01*
X13430443Y11058227D01*
X13407834Y11052563D01*
X13384779Y11049144D01*
X13361500Y11048000D01*
X12886500Y11048000D01*
X12863221Y11049144D01*
X12840166Y11052563D01*
X12817557Y11058227D01*
X12795613Y11066079D01*
X12774543Y11076044D01*
X12754552Y11088026D01*
X12735832Y11101910D01*
X12718562Y11117562D01*
X12702910Y11134832D01*
X12689026Y11153552D01*
X12677044Y11173543D01*
X12667079Y11194613D01*
X12659227Y11216557D01*
X12653563Y11239166D01*
X12650144Y11262221D01*
X12649000Y11285500D01*
X12649000Y11860500D01*
X12650144Y11883779D01*
X12653563Y11906834D01*
X12659227Y11929443D01*
X12667079Y11951387D01*
X12677044Y11972457D01*
X12689026Y11992448D01*
X12702910Y12011168D01*
X12718562Y12028438D01*
X12735832Y12044090D01*
X12754552Y12057974D01*
X12774543Y12069956D01*
X12795613Y12079921D01*
X12817557Y12087773D01*
X12840166Y12093437D01*
X12863221Y12096856D01*
X12886500Y12098000D01*
X13361500Y12098000D01*
X13384779Y12096856D01*
G37*
G36*
X14904779Y10346856D02*
G01*
X14927834Y10343437D01*
X14950443Y10337773D01*
X14972387Y10329921D01*
X14993457Y10319956D01*
X15013448Y10307974D01*
X15032168Y10294090D01*
X15049438Y10278438D01*
X15065090Y10261168D01*
X15078974Y10242448D01*
X15090956Y10222457D01*
X15100921Y10201387D01*
X15108773Y10179443D01*
X15114437Y10156834D01*
X15117856Y10133779D01*
X15119000Y10110500D01*
X15119000Y9535500D01*
X15117856Y9512221D01*
X15114437Y9489166D01*
X15108773Y9466557D01*
X15100921Y9444613D01*
X15090956Y9423543D01*
X15078974Y9403552D01*
X15065090Y9384832D01*
X15049438Y9367562D01*
X15032168Y9351910D01*
X15013448Y9338026D01*
X14993457Y9326044D01*
X14972387Y9316079D01*
X14950443Y9308227D01*
X14927834Y9302563D01*
X14904779Y9299144D01*
X14881500Y9298000D01*
X14406500Y9298000D01*
X14383221Y9299144D01*
X14360166Y9302563D01*
X14337557Y9308227D01*
X14315613Y9316079D01*
X14294543Y9326044D01*
X14274552Y9338026D01*
X14255832Y9351910D01*
X14238562Y9367562D01*
X14222910Y9384832D01*
X14209026Y9403552D01*
X14197044Y9423543D01*
X14187079Y9444613D01*
X14179227Y9466557D01*
X14173563Y9489166D01*
X14170144Y9512221D01*
X14169000Y9535500D01*
X14169000Y10110500D01*
X14170144Y10133779D01*
X14173563Y10156834D01*
X14179227Y10179443D01*
X14187079Y10201387D01*
X14197044Y10222457D01*
X14209026Y10242448D01*
X14222910Y10261168D01*
X14238562Y10278438D01*
X14255832Y10294090D01*
X14274552Y10307974D01*
X14294543Y10319956D01*
X14315613Y10329921D01*
X14337557Y10337773D01*
X14360166Y10343437D01*
X14383221Y10346856D01*
X14406500Y10348000D01*
X14881500Y10348000D01*
X14904779Y10346856D01*
G37*
G36*
X14904779Y12096856D02*
G01*
X14927834Y12093437D01*
X14950443Y12087773D01*
X14972387Y12079921D01*
X14993457Y12069956D01*
X15013448Y12057974D01*
X15032168Y12044090D01*
X15049438Y12028438D01*
X15065090Y12011168D01*
X15078974Y11992448D01*
X15090956Y11972457D01*
X15100921Y11951387D01*
X15108773Y11929443D01*
X15114437Y11906834D01*
X15117856Y11883779D01*
X15119000Y11860500D01*
X15119000Y11285500D01*
X15117856Y11262221D01*
X15114437Y11239166D01*
X15108773Y11216557D01*
X15100921Y11194613D01*
X15090956Y11173543D01*
X15078974Y11153552D01*
X15065090Y11134832D01*
X15049438Y11117562D01*
X15032168Y11101910D01*
X15013448Y11088026D01*
X14993457Y11076044D01*
X14972387Y11066079D01*
X14950443Y11058227D01*
X14927834Y11052563D01*
X14904779Y11049144D01*
X14881500Y11048000D01*
X14406500Y11048000D01*
X14383221Y11049144D01*
X14360166Y11052563D01*
X14337557Y11058227D01*
X14315613Y11066079D01*
X14294543Y11076044D01*
X14274552Y11088026D01*
X14255832Y11101910D01*
X14238562Y11117562D01*
X14222910Y11134832D01*
X14209026Y11153552D01*
X14197044Y11173543D01*
X14187079Y11194613D01*
X14179227Y11216557D01*
X14173563Y11239166D01*
X14170144Y11262221D01*
X14169000Y11285500D01*
X14169000Y11860500D01*
X14170144Y11883779D01*
X14173563Y11906834D01*
X14179227Y11929443D01*
X14187079Y11951387D01*
X14197044Y11972457D01*
X14209026Y11992448D01*
X14222910Y12011168D01*
X14238562Y12028438D01*
X14255832Y12044090D01*
X14274552Y12057974D01*
X14294543Y12069956D01*
X14315613Y12079921D01*
X14337557Y12087773D01*
X14360166Y12093437D01*
X14383221Y12096856D01*
X14406500Y12098000D01*
X14881500Y12098000D01*
X14904779Y12096856D01*
G37*
G36*
X10585779Y1353856D02*
G01*
X10608834Y1350437D01*
X10631443Y1344773D01*
X10653387Y1336921D01*
X10674457Y1326956D01*
X10694448Y1314974D01*
X10713168Y1301090D01*
X10730438Y1285438D01*
X10746090Y1268168D01*
X10759974Y1249448D01*
X10771956Y1229457D01*
X10781921Y1208387D01*
X10789773Y1186443D01*
X10795437Y1163834D01*
X10798856Y1140779D01*
X10800000Y1117500D01*
X10800000Y642500D01*
X10798856Y619221D01*
X10795437Y596166D01*
X10789773Y573557D01*
X10781921Y551613D01*
X10771956Y530543D01*
X10759974Y510552D01*
X10746090Y491832D01*
X10730438Y474562D01*
X10713168Y458910D01*
X10694448Y445026D01*
X10674457Y433044D01*
X10653387Y423079D01*
X10631443Y415227D01*
X10608834Y409563D01*
X10585779Y406144D01*
X10562500Y405000D01*
X9987500Y405000D01*
X9964221Y406144D01*
X9941166Y409563D01*
X9918557Y415227D01*
X9896613Y423079D01*
X9875543Y433044D01*
X9855552Y445026D01*
X9836832Y458910D01*
X9819562Y474562D01*
X9803910Y491832D01*
X9790026Y510552D01*
X9778044Y530543D01*
X9768079Y551613D01*
X9760227Y573557D01*
X9754563Y596166D01*
X9751144Y619221D01*
X9750000Y642500D01*
X9750000Y1117500D01*
X9751144Y1140779D01*
X9754563Y1163834D01*
X9760227Y1186443D01*
X9768079Y1208387D01*
X9778044Y1229457D01*
X9790026Y1249448D01*
X9803910Y1268168D01*
X9819562Y1285438D01*
X9836832Y1301090D01*
X9855552Y1314974D01*
X9875543Y1326956D01*
X9896613Y1336921D01*
X9918557Y1344773D01*
X9941166Y1350437D01*
X9964221Y1353856D01*
X9987500Y1355000D01*
X10562500Y1355000D01*
X10585779Y1353856D01*
G37*
G36*
X8835779Y1353856D02*
G01*
X8858834Y1350437D01*
X8881443Y1344773D01*
X8903387Y1336921D01*
X8924457Y1326956D01*
X8944448Y1314974D01*
X8963168Y1301090D01*
X8980438Y1285438D01*
X8996090Y1268168D01*
X9009974Y1249448D01*
X9021956Y1229457D01*
X9031921Y1208387D01*
X9039773Y1186443D01*
X9045437Y1163834D01*
X9048856Y1140779D01*
X9050000Y1117500D01*
X9050000Y642500D01*
X9048856Y619221D01*
X9045437Y596166D01*
X9039773Y573557D01*
X9031921Y551613D01*
X9021956Y530543D01*
X9009974Y510552D01*
X8996090Y491832D01*
X8980438Y474562D01*
X8963168Y458910D01*
X8944448Y445026D01*
X8924457Y433044D01*
X8903387Y423079D01*
X8881443Y415227D01*
X8858834Y409563D01*
X8835779Y406144D01*
X8812500Y405000D01*
X8237500Y405000D01*
X8214221Y406144D01*
X8191166Y409563D01*
X8168557Y415227D01*
X8146613Y423079D01*
X8125543Y433044D01*
X8105552Y445026D01*
X8086832Y458910D01*
X8069562Y474562D01*
X8053910Y491832D01*
X8040026Y510552D01*
X8028044Y530543D01*
X8018079Y551613D01*
X8010227Y573557D01*
X8004563Y596166D01*
X8001144Y619221D01*
X8000000Y642500D01*
X8000000Y1117500D01*
X8001144Y1140779D01*
X8004563Y1163834D01*
X8010227Y1186443D01*
X8018079Y1208387D01*
X8028044Y1229457D01*
X8040026Y1249448D01*
X8053910Y1268168D01*
X8069562Y1285438D01*
X8086832Y1301090D01*
X8105552Y1314974D01*
X8125543Y1326956D01*
X8146613Y1336921D01*
X8168557Y1344773D01*
X8191166Y1350437D01*
X8214221Y1353856D01*
X8237500Y1355000D01*
X8812500Y1355000D01*
X8835779Y1353856D01*
G37*
G36*
X11074779Y6096856D02*
G01*
X11097834Y6093437D01*
X11120443Y6087773D01*
X11142387Y6079921D01*
X11163457Y6069956D01*
X11183448Y6057974D01*
X11202168Y6044090D01*
X11219438Y6028438D01*
X11235090Y6011168D01*
X11248974Y5992448D01*
X11260956Y5972457D01*
X11270921Y5951387D01*
X11278773Y5929443D01*
X11284437Y5906834D01*
X11287856Y5883779D01*
X11289000Y5860500D01*
X11289000Y5285500D01*
X11287856Y5262221D01*
X11284437Y5239166D01*
X11278773Y5216557D01*
X11270921Y5194613D01*
X11260956Y5173543D01*
X11248974Y5153552D01*
X11235090Y5134832D01*
X11219438Y5117562D01*
X11202168Y5101910D01*
X11183448Y5088026D01*
X11163457Y5076044D01*
X11142387Y5066079D01*
X11120443Y5058227D01*
X11097834Y5052563D01*
X11074779Y5049144D01*
X11051500Y5048000D01*
X10576500Y5048000D01*
X10553221Y5049144D01*
X10530166Y5052563D01*
X10507557Y5058227D01*
X10485613Y5066079D01*
X10464543Y5076044D01*
X10444552Y5088026D01*
X10425832Y5101910D01*
X10408562Y5117562D01*
X10392910Y5134832D01*
X10379026Y5153552D01*
X10367044Y5173543D01*
X10357079Y5194613D01*
X10349227Y5216557D01*
X10343563Y5239166D01*
X10340144Y5262221D01*
X10339000Y5285500D01*
X10339000Y5860500D01*
X10340144Y5883779D01*
X10343563Y5906834D01*
X10349227Y5929443D01*
X10357079Y5951387D01*
X10367044Y5972457D01*
X10379026Y5992448D01*
X10392910Y6011168D01*
X10408562Y6028438D01*
X10425832Y6044090D01*
X10444552Y6057974D01*
X10464543Y6069956D01*
X10485613Y6079921D01*
X10507557Y6087773D01*
X10530166Y6093437D01*
X10553221Y6096856D01*
X10576500Y6098000D01*
X11051500Y6098000D01*
X11074779Y6096856D01*
G37*
G36*
X11074779Y7846856D02*
G01*
X11097834Y7843437D01*
X11120443Y7837773D01*
X11142387Y7829921D01*
X11163457Y7819956D01*
X11183448Y7807974D01*
X11202168Y7794090D01*
X11219438Y7778438D01*
X11235090Y7761168D01*
X11248974Y7742448D01*
X11260956Y7722457D01*
X11270921Y7701387D01*
X11278773Y7679443D01*
X11284437Y7656834D01*
X11287856Y7633779D01*
X11289000Y7610500D01*
X11289000Y7035500D01*
X11287856Y7012221D01*
X11284437Y6989166D01*
X11278773Y6966557D01*
X11270921Y6944613D01*
X11260956Y6923543D01*
X11248974Y6903552D01*
X11235090Y6884832D01*
X11219438Y6867562D01*
X11202168Y6851910D01*
X11183448Y6838026D01*
X11163457Y6826044D01*
X11142387Y6816079D01*
X11120443Y6808227D01*
X11097834Y6802563D01*
X11074779Y6799144D01*
X11051500Y6798000D01*
X10576500Y6798000D01*
X10553221Y6799144D01*
X10530166Y6802563D01*
X10507557Y6808227D01*
X10485613Y6816079D01*
X10464543Y6826044D01*
X10444552Y6838026D01*
X10425832Y6851910D01*
X10408562Y6867562D01*
X10392910Y6884832D01*
X10379026Y6903552D01*
X10367044Y6923543D01*
X10357079Y6944613D01*
X10349227Y6966557D01*
X10343563Y6989166D01*
X10340144Y7012221D01*
X10339000Y7035500D01*
X10339000Y7610500D01*
X10340144Y7633779D01*
X10343563Y7656834D01*
X10349227Y7679443D01*
X10357079Y7701387D01*
X10367044Y7722457D01*
X10379026Y7742448D01*
X10392910Y7761168D01*
X10408562Y7778438D01*
X10425832Y7794090D01*
X10444552Y7807974D01*
X10464543Y7819956D01*
X10485613Y7829921D01*
X10507557Y7837773D01*
X10530166Y7843437D01*
X10553221Y7846856D01*
X10576500Y7848000D01*
X11051500Y7848000D01*
X11074779Y7846856D01*
G37*
G36*
X12914504Y34318796D02*
G01*
X12938773Y34315196D01*
X12962571Y34309235D01*
X12985671Y34300970D01*
X13007849Y34290480D01*
X13028893Y34277867D01*
X13048598Y34263253D01*
X13066777Y34246777D01*
X13083253Y34228598D01*
X13097867Y34208893D01*
X13110480Y34187849D01*
X13120970Y34165671D01*
X13129235Y34142571D01*
X13135196Y34118773D01*
X13138796Y34094504D01*
X13140000Y34070000D01*
X13140000Y31970000D01*
X13138796Y31945496D01*
X13135196Y31921227D01*
X13129235Y31897429D01*
X13120970Y31874329D01*
X13110480Y31852151D01*
X13097867Y31831107D01*
X13083253Y31811402D01*
X13066777Y31793223D01*
X13048598Y31776747D01*
X13028893Y31762133D01*
X13007849Y31749520D01*
X12985671Y31739030D01*
X12962571Y31730765D01*
X12938773Y31724804D01*
X12914504Y31721204D01*
X12890000Y31720000D01*
X11790000Y31720000D01*
X11765496Y31721204D01*
X11741227Y31724804D01*
X11717429Y31730765D01*
X11694329Y31739030D01*
X11672151Y31749520D01*
X11651107Y31762133D01*
X11631402Y31776747D01*
X11613223Y31793223D01*
X11596747Y31811402D01*
X11582133Y31831107D01*
X11569520Y31852151D01*
X11559030Y31874329D01*
X11550765Y31897429D01*
X11544804Y31921227D01*
X11541204Y31945496D01*
X11540000Y31970000D01*
X11540000Y34070000D01*
X11541204Y34094504D01*
X11544804Y34118773D01*
X11550765Y34142571D01*
X11559030Y34165671D01*
X11569520Y34187849D01*
X11582133Y34208893D01*
X11596747Y34228598D01*
X11613223Y34246777D01*
X11631402Y34263253D01*
X11651107Y34277867D01*
X11672151Y34290480D01*
X11694329Y34300970D01*
X11717429Y34309235D01*
X11741227Y34315196D01*
X11765496Y34318796D01*
X11790000Y34320000D01*
X12890000Y34320000D01*
X12914504Y34318796D01*
G37*
G36*
X12914504Y30718796D02*
G01*
X12938773Y30715196D01*
X12962571Y30709235D01*
X12985671Y30700970D01*
X13007849Y30690480D01*
X13028893Y30677867D01*
X13048598Y30663253D01*
X13066777Y30646777D01*
X13083253Y30628598D01*
X13097867Y30608893D01*
X13110480Y30587849D01*
X13120970Y30565671D01*
X13129235Y30542571D01*
X13135196Y30518773D01*
X13138796Y30494504D01*
X13140000Y30470000D01*
X13140000Y28370000D01*
X13138796Y28345496D01*
X13135196Y28321227D01*
X13129235Y28297429D01*
X13120970Y28274329D01*
X13110480Y28252151D01*
X13097867Y28231107D01*
X13083253Y28211402D01*
X13066777Y28193223D01*
X13048598Y28176747D01*
X13028893Y28162133D01*
X13007849Y28149520D01*
X12985671Y28139030D01*
X12962571Y28130765D01*
X12938773Y28124804D01*
X12914504Y28121204D01*
X12890000Y28120000D01*
X11790000Y28120000D01*
X11765496Y28121204D01*
X11741227Y28124804D01*
X11717429Y28130765D01*
X11694329Y28139030D01*
X11672151Y28149520D01*
X11651107Y28162133D01*
X11631402Y28176747D01*
X11613223Y28193223D01*
X11596747Y28211402D01*
X11582133Y28231107D01*
X11569520Y28252151D01*
X11559030Y28274329D01*
X11550765Y28297429D01*
X11544804Y28321227D01*
X11541204Y28345496D01*
X11540000Y28370000D01*
X11540000Y30470000D01*
X11541204Y30494504D01*
X11544804Y30518773D01*
X11550765Y30542571D01*
X11559030Y30565671D01*
X11569520Y30587849D01*
X11582133Y30608893D01*
X11596747Y30628598D01*
X11613223Y30646777D01*
X11631402Y30663253D01*
X11651107Y30677867D01*
X11672151Y30690480D01*
X11694329Y30700970D01*
X11717429Y30709235D01*
X11741227Y30715196D01*
X11765496Y30718796D01*
X11790000Y30720000D01*
X12890000Y30720000D01*
X12914504Y30718796D01*
G37*
G36*
X18154504Y34318796D02*
G01*
X18178773Y34315196D01*
X18202571Y34309235D01*
X18225671Y34300970D01*
X18247849Y34290480D01*
X18268893Y34277867D01*
X18288598Y34263253D01*
X18306777Y34246777D01*
X18323253Y34228598D01*
X18337867Y34208893D01*
X18350480Y34187849D01*
X18360970Y34165671D01*
X18369235Y34142571D01*
X18375196Y34118773D01*
X18378796Y34094504D01*
X18380000Y34070000D01*
X18380000Y31970000D01*
X18378796Y31945496D01*
X18375196Y31921227D01*
X18369235Y31897429D01*
X18360970Y31874329D01*
X18350480Y31852151D01*
X18337867Y31831107D01*
X18323253Y31811402D01*
X18306777Y31793223D01*
X18288598Y31776747D01*
X18268893Y31762133D01*
X18247849Y31749520D01*
X18225671Y31739030D01*
X18202571Y31730765D01*
X18178773Y31724804D01*
X18154504Y31721204D01*
X18130000Y31720000D01*
X17030000Y31720000D01*
X17005496Y31721204D01*
X16981227Y31724804D01*
X16957429Y31730765D01*
X16934329Y31739030D01*
X16912151Y31749520D01*
X16891107Y31762133D01*
X16871402Y31776747D01*
X16853223Y31793223D01*
X16836747Y31811402D01*
X16822133Y31831107D01*
X16809520Y31852151D01*
X16799030Y31874329D01*
X16790765Y31897429D01*
X16784804Y31921227D01*
X16781204Y31945496D01*
X16780000Y31970000D01*
X16780000Y34070000D01*
X16781204Y34094504D01*
X16784804Y34118773D01*
X16790765Y34142571D01*
X16799030Y34165671D01*
X16809520Y34187849D01*
X16822133Y34208893D01*
X16836747Y34228598D01*
X16853223Y34246777D01*
X16871402Y34263253D01*
X16891107Y34277867D01*
X16912151Y34290480D01*
X16934329Y34300970D01*
X16957429Y34309235D01*
X16981227Y34315196D01*
X17005496Y34318796D01*
X17030000Y34320000D01*
X18130000Y34320000D01*
X18154504Y34318796D01*
G37*
G36*
X18154504Y30718796D02*
G01*
X18178773Y30715196D01*
X18202571Y30709235D01*
X18225671Y30700970D01*
X18247849Y30690480D01*
X18268893Y30677867D01*
X18288598Y30663253D01*
X18306777Y30646777D01*
X18323253Y30628598D01*
X18337867Y30608893D01*
X18350480Y30587849D01*
X18360970Y30565671D01*
X18369235Y30542571D01*
X18375196Y30518773D01*
X18378796Y30494504D01*
X18380000Y30470000D01*
X18380000Y28370000D01*
X18378796Y28345496D01*
X18375196Y28321227D01*
X18369235Y28297429D01*
X18360970Y28274329D01*
X18350480Y28252151D01*
X18337867Y28231107D01*
X18323253Y28211402D01*
X18306777Y28193223D01*
X18288598Y28176747D01*
X18268893Y28162133D01*
X18247849Y28149520D01*
X18225671Y28139030D01*
X18202571Y28130765D01*
X18178773Y28124804D01*
X18154504Y28121204D01*
X18130000Y28120000D01*
X17030000Y28120000D01*
X17005496Y28121204D01*
X16981227Y28124804D01*
X16957429Y28130765D01*
X16934329Y28139030D01*
X16912151Y28149520D01*
X16891107Y28162133D01*
X16871402Y28176747D01*
X16853223Y28193223D01*
X16836747Y28211402D01*
X16822133Y28231107D01*
X16809520Y28252151D01*
X16799030Y28274329D01*
X16790765Y28297429D01*
X16784804Y28321227D01*
X16781204Y28345496D01*
X16780000Y28370000D01*
X16780000Y30470000D01*
X16781204Y30494504D01*
X16784804Y30518773D01*
X16790765Y30542571D01*
X16799030Y30565671D01*
X16809520Y30587849D01*
X16822133Y30608893D01*
X16836747Y30628598D01*
X16853223Y30646777D01*
X16871402Y30663253D01*
X16891107Y30677867D01*
X16912151Y30690480D01*
X16934329Y30700970D01*
X16957429Y30709235D01*
X16981227Y30715196D01*
X17005496Y30718796D01*
X17030000Y30720000D01*
X18130000Y30720000D01*
X18154504Y30718796D01*
G37*
G36*
X23084504Y34318796D02*
G01*
X23108773Y34315196D01*
X23132571Y34309235D01*
X23155671Y34300970D01*
X23177849Y34290480D01*
X23198893Y34277867D01*
X23218598Y34263253D01*
X23236777Y34246777D01*
X23253253Y34228598D01*
X23267867Y34208893D01*
X23280480Y34187849D01*
X23290970Y34165671D01*
X23299235Y34142571D01*
X23305196Y34118773D01*
X23308796Y34094504D01*
X23310000Y34070000D01*
X23310000Y31970000D01*
X23308796Y31945496D01*
X23305196Y31921227D01*
X23299235Y31897429D01*
X23290970Y31874329D01*
X23280480Y31852151D01*
X23267867Y31831107D01*
X23253253Y31811402D01*
X23236777Y31793223D01*
X23218598Y31776747D01*
X23198893Y31762133D01*
X23177849Y31749520D01*
X23155671Y31739030D01*
X23132571Y31730765D01*
X23108773Y31724804D01*
X23084504Y31721204D01*
X23060000Y31720000D01*
X21960000Y31720000D01*
X21935496Y31721204D01*
X21911227Y31724804D01*
X21887429Y31730765D01*
X21864329Y31739030D01*
X21842151Y31749520D01*
X21821107Y31762133D01*
X21801402Y31776747D01*
X21783223Y31793223D01*
X21766747Y31811402D01*
X21752133Y31831107D01*
X21739520Y31852151D01*
X21729030Y31874329D01*
X21720765Y31897429D01*
X21714804Y31921227D01*
X21711204Y31945496D01*
X21710000Y31970000D01*
X21710000Y34070000D01*
X21711204Y34094504D01*
X21714804Y34118773D01*
X21720765Y34142571D01*
X21729030Y34165671D01*
X21739520Y34187849D01*
X21752133Y34208893D01*
X21766747Y34228598D01*
X21783223Y34246777D01*
X21801402Y34263253D01*
X21821107Y34277867D01*
X21842151Y34290480D01*
X21864329Y34300970D01*
X21887429Y34309235D01*
X21911227Y34315196D01*
X21935496Y34318796D01*
X21960000Y34320000D01*
X23060000Y34320000D01*
X23084504Y34318796D01*
G37*
G36*
X23084504Y30718796D02*
G01*
X23108773Y30715196D01*
X23132571Y30709235D01*
X23155671Y30700970D01*
X23177849Y30690480D01*
X23198893Y30677867D01*
X23218598Y30663253D01*
X23236777Y30646777D01*
X23253253Y30628598D01*
X23267867Y30608893D01*
X23280480Y30587849D01*
X23290970Y30565671D01*
X23299235Y30542571D01*
X23305196Y30518773D01*
X23308796Y30494504D01*
X23310000Y30470000D01*
X23310000Y28370000D01*
X23308796Y28345496D01*
X23305196Y28321227D01*
X23299235Y28297429D01*
X23290970Y28274329D01*
X23280480Y28252151D01*
X23267867Y28231107D01*
X23253253Y28211402D01*
X23236777Y28193223D01*
X23218598Y28176747D01*
X23198893Y28162133D01*
X23177849Y28149520D01*
X23155671Y28139030D01*
X23132571Y28130765D01*
X23108773Y28124804D01*
X23084504Y28121204D01*
X23060000Y28120000D01*
X21960000Y28120000D01*
X21935496Y28121204D01*
X21911227Y28124804D01*
X21887429Y28130765D01*
X21864329Y28139030D01*
X21842151Y28149520D01*
X21821107Y28162133D01*
X21801402Y28176747D01*
X21783223Y28193223D01*
X21766747Y28211402D01*
X21752133Y28231107D01*
X21739520Y28252151D01*
X21729030Y28274329D01*
X21720765Y28297429D01*
X21714804Y28321227D01*
X21711204Y28345496D01*
X21710000Y28370000D01*
X21710000Y30470000D01*
X21711204Y30494504D01*
X21714804Y30518773D01*
X21720765Y30542571D01*
X21729030Y30565671D01*
X21739520Y30587849D01*
X21752133Y30608893D01*
X21766747Y30628598D01*
X21783223Y30646777D01*
X21801402Y30663253D01*
X21821107Y30677867D01*
X21842151Y30690480D01*
X21864329Y30700970D01*
X21887429Y30709235D01*
X21911227Y30715196D01*
X21935496Y30718796D01*
X21960000Y30720000D01*
X23060000Y30720000D01*
X23084504Y30718796D01*
G37*
G36*
X39040779Y1993856D02*
G01*
X39063834Y1990437D01*
X39086443Y1984773D01*
X39108387Y1976921D01*
X39129457Y1966956D01*
X39149448Y1954974D01*
X39168168Y1941090D01*
X39185438Y1925438D01*
X39201090Y1908168D01*
X39214974Y1889448D01*
X39226956Y1869457D01*
X39236921Y1848387D01*
X39244773Y1826443D01*
X39250437Y1803834D01*
X39253856Y1780779D01*
X39255000Y1757500D01*
X39255000Y1282500D01*
X39253856Y1259221D01*
X39250437Y1236166D01*
X39244773Y1213557D01*
X39236921Y1191613D01*
X39226956Y1170543D01*
X39214974Y1150552D01*
X39201090Y1131832D01*
X39185438Y1114562D01*
X39168168Y1098910D01*
X39149448Y1085026D01*
X39129457Y1073044D01*
X39108387Y1063079D01*
X39086443Y1055227D01*
X39063834Y1049563D01*
X39040779Y1046144D01*
X39017500Y1045000D01*
X38442500Y1045000D01*
X38419221Y1046144D01*
X38396166Y1049563D01*
X38373557Y1055227D01*
X38351613Y1063079D01*
X38330543Y1073044D01*
X38310552Y1085026D01*
X38291832Y1098910D01*
X38274562Y1114562D01*
X38258910Y1131832D01*
X38245026Y1150552D01*
X38233044Y1170543D01*
X38223079Y1191613D01*
X38215227Y1213557D01*
X38209563Y1236166D01*
X38206144Y1259221D01*
X38205000Y1282500D01*
X38205000Y1757500D01*
X38206144Y1780779D01*
X38209563Y1803834D01*
X38215227Y1826443D01*
X38223079Y1848387D01*
X38233044Y1869457D01*
X38245026Y1889448D01*
X38258910Y1908168D01*
X38274562Y1925438D01*
X38291832Y1941090D01*
X38310552Y1954974D01*
X38330543Y1966956D01*
X38351613Y1976921D01*
X38373557Y1984773D01*
X38396166Y1990437D01*
X38419221Y1993856D01*
X38442500Y1995000D01*
X39017500Y1995000D01*
X39040779Y1993856D01*
G37*
G36*
X40790779Y1993856D02*
G01*
X40813834Y1990437D01*
X40836443Y1984773D01*
X40858387Y1976921D01*
X40879457Y1966956D01*
X40899448Y1954974D01*
X40918168Y1941090D01*
X40935438Y1925438D01*
X40951090Y1908168D01*
X40964974Y1889448D01*
X40976956Y1869457D01*
X40986921Y1848387D01*
X40994773Y1826443D01*
X41000437Y1803834D01*
X41003856Y1780779D01*
X41005000Y1757500D01*
X41005000Y1282500D01*
X41003856Y1259221D01*
X41000437Y1236166D01*
X40994773Y1213557D01*
X40986921Y1191613D01*
X40976956Y1170543D01*
X40964974Y1150552D01*
X40951090Y1131832D01*
X40935438Y1114562D01*
X40918168Y1098910D01*
X40899448Y1085026D01*
X40879457Y1073044D01*
X40858387Y1063079D01*
X40836443Y1055227D01*
X40813834Y1049563D01*
X40790779Y1046144D01*
X40767500Y1045000D01*
X40192500Y1045000D01*
X40169221Y1046144D01*
X40146166Y1049563D01*
X40123557Y1055227D01*
X40101613Y1063079D01*
X40080543Y1073044D01*
X40060552Y1085026D01*
X40041832Y1098910D01*
X40024562Y1114562D01*
X40008910Y1131832D01*
X39995026Y1150552D01*
X39983044Y1170543D01*
X39973079Y1191613D01*
X39965227Y1213557D01*
X39959563Y1236166D01*
X39956144Y1259221D01*
X39955000Y1282500D01*
X39955000Y1757500D01*
X39956144Y1780779D01*
X39959563Y1803834D01*
X39965227Y1826443D01*
X39973079Y1848387D01*
X39983044Y1869457D01*
X39995026Y1889448D01*
X40008910Y1908168D01*
X40024562Y1925438D01*
X40041832Y1941090D01*
X40060552Y1954974D01*
X40080543Y1966956D01*
X40101613Y1976921D01*
X40123557Y1984773D01*
X40146166Y1990437D01*
X40169221Y1993856D01*
X40192500Y1995000D01*
X40767500Y1995000D01*
X40790779Y1993856D01*
G37*
D13*
X25588000Y15781000D03*
X26088000Y15781000D03*
X26588000Y15781000D03*
X27088000Y15781000D03*
X27588000Y15781000D03*
X28088000Y15781000D03*
X28588000Y15781000D03*
X29088000Y15781000D03*
X29588000Y15781000D03*
X30088000Y15781000D03*
D14*
X30773000Y16466000D03*
X30773000Y16966000D03*
X30773000Y17466000D03*
X30773000Y17966000D03*
X30773000Y18466000D03*
X30773000Y18966000D03*
X30773000Y19466000D03*
X30773000Y19966000D03*
X30773000Y20466000D03*
X30773000Y20966000D03*
D13*
X30088000Y21651000D03*
X29588000Y21651000D03*
X29088000Y21651000D03*
X28588000Y21651000D03*
X28088000Y21651000D03*
X27588000Y21651000D03*
X27088000Y21651000D03*
X26588000Y21651000D03*
X26088000Y21651000D03*
X25588000Y21651000D03*
D14*
X24903000Y20966000D03*
X24903000Y20466000D03*
X24903000Y19966000D03*
X24903000Y19466000D03*
X24903000Y18966000D03*
X24903000Y18466000D03*
X24903000Y17966000D03*
X24903000Y17466000D03*
X24903000Y16966000D03*
X24903000Y16466000D03*
D15*
X27838000Y18716000D03*
D10*
G36*
X30192505Y27760796D02*
G01*
X30216773Y27757196D01*
X30240572Y27751235D01*
X30263671Y27742970D01*
X30285850Y27732480D01*
X30306893Y27719868D01*
X30326599Y27705253D01*
X30344777Y27688777D01*
X30361253Y27670599D01*
X30375868Y27650893D01*
X30388480Y27629850D01*
X30398970Y27607671D01*
X30407235Y27584572D01*
X30413196Y27560773D01*
X30416796Y27536505D01*
X30418000Y27512001D01*
X30418000Y26861999D01*
X30416796Y26837495D01*
X30413196Y26813227D01*
X30407235Y26789428D01*
X30398970Y26766329D01*
X30388480Y26744150D01*
X30375868Y26723107D01*
X30361253Y26703401D01*
X30344777Y26685223D01*
X30326599Y26668747D01*
X30306893Y26654132D01*
X30285850Y26641520D01*
X30263671Y26631030D01*
X30240572Y26622765D01*
X30216773Y26616804D01*
X30192505Y26613204D01*
X30168001Y26612000D01*
X29267999Y26612000D01*
X29243495Y26613204D01*
X29219227Y26616804D01*
X29195428Y26622765D01*
X29172329Y26631030D01*
X29150150Y26641520D01*
X29129107Y26654132D01*
X29109401Y26668747D01*
X29091223Y26685223D01*
X29074747Y26703401D01*
X29060132Y26723107D01*
X29047520Y26744150D01*
X29037030Y26766329D01*
X29028765Y26789428D01*
X29022804Y26813227D01*
X29019204Y26837495D01*
X29018000Y26861999D01*
X29018000Y27512001D01*
X29019204Y27536505D01*
X29022804Y27560773D01*
X29028765Y27584572D01*
X29037030Y27607671D01*
X29047520Y27629850D01*
X29060132Y27650893D01*
X29074747Y27670599D01*
X29091223Y27688777D01*
X29109401Y27705253D01*
X29129107Y27719868D01*
X29150150Y27732480D01*
X29172329Y27742970D01*
X29195428Y27751235D01*
X29219227Y27757196D01*
X29243495Y27760796D01*
X29267999Y27762000D01*
X30168001Y27762000D01*
X30192505Y27760796D01*
G37*
G36*
X30192505Y25710796D02*
G01*
X30216773Y25707196D01*
X30240572Y25701235D01*
X30263671Y25692970D01*
X30285850Y25682480D01*
X30306893Y25669868D01*
X30326599Y25655253D01*
X30344777Y25638777D01*
X30361253Y25620599D01*
X30375868Y25600893D01*
X30388480Y25579850D01*
X30398970Y25557671D01*
X30407235Y25534572D01*
X30413196Y25510773D01*
X30416796Y25486505D01*
X30418000Y25462001D01*
X30418000Y24811999D01*
X30416796Y24787495D01*
X30413196Y24763227D01*
X30407235Y24739428D01*
X30398970Y24716329D01*
X30388480Y24694150D01*
X30375868Y24673107D01*
X30361253Y24653401D01*
X30344777Y24635223D01*
X30326599Y24618747D01*
X30306893Y24604132D01*
X30285850Y24591520D01*
X30263671Y24581030D01*
X30240572Y24572765D01*
X30216773Y24566804D01*
X30192505Y24563204D01*
X30168001Y24562000D01*
X29267999Y24562000D01*
X29243495Y24563204D01*
X29219227Y24566804D01*
X29195428Y24572765D01*
X29172329Y24581030D01*
X29150150Y24591520D01*
X29129107Y24604132D01*
X29109401Y24618747D01*
X29091223Y24635223D01*
X29074747Y24653401D01*
X29060132Y24673107D01*
X29047520Y24694150D01*
X29037030Y24716329D01*
X29028765Y24739428D01*
X29022804Y24763227D01*
X29019204Y24787495D01*
X29018000Y24811999D01*
X29018000Y25462001D01*
X29019204Y25486505D01*
X29022804Y25510773D01*
X29028765Y25534572D01*
X29037030Y25557671D01*
X29047520Y25579850D01*
X29060132Y25600893D01*
X29074747Y25620599D01*
X29091223Y25638777D01*
X29109401Y25655253D01*
X29129107Y25669868D01*
X29150150Y25682480D01*
X29172329Y25692970D01*
X29195428Y25701235D01*
X29219227Y25707196D01*
X29243495Y25710796D01*
X29267999Y25712000D01*
X30168001Y25712000D01*
X30192505Y25710796D01*
G37*
G36*
X37494779Y28552856D02*
G01*
X37517834Y28549437D01*
X37540443Y28543773D01*
X37562387Y28535921D01*
X37583457Y28525956D01*
X37603448Y28513974D01*
X37622168Y28500090D01*
X37639438Y28484438D01*
X37655090Y28467168D01*
X37668974Y28448448D01*
X37680956Y28428457D01*
X37690921Y28407387D01*
X37698773Y28385443D01*
X37704437Y28362834D01*
X37707856Y28339779D01*
X37709000Y28316500D01*
X37709000Y27741500D01*
X37707856Y27718221D01*
X37704437Y27695166D01*
X37698773Y27672557D01*
X37690921Y27650613D01*
X37680956Y27629543D01*
X37668974Y27609552D01*
X37655090Y27590832D01*
X37639438Y27573562D01*
X37622168Y27557910D01*
X37603448Y27544026D01*
X37583457Y27532044D01*
X37562387Y27522079D01*
X37540443Y27514227D01*
X37517834Y27508563D01*
X37494779Y27505144D01*
X37471500Y27504000D01*
X36996500Y27504000D01*
X36973221Y27505144D01*
X36950166Y27508563D01*
X36927557Y27514227D01*
X36905613Y27522079D01*
X36884543Y27532044D01*
X36864552Y27544026D01*
X36845832Y27557910D01*
X36828562Y27573562D01*
X36812910Y27590832D01*
X36799026Y27609552D01*
X36787044Y27629543D01*
X36777079Y27650613D01*
X36769227Y27672557D01*
X36763563Y27695166D01*
X36760144Y27718221D01*
X36759000Y27741500D01*
X36759000Y28316500D01*
X36760144Y28339779D01*
X36763563Y28362834D01*
X36769227Y28385443D01*
X36777079Y28407387D01*
X36787044Y28428457D01*
X36799026Y28448448D01*
X36812910Y28467168D01*
X36828562Y28484438D01*
X36845832Y28500090D01*
X36864552Y28513974D01*
X36884543Y28525956D01*
X36905613Y28535921D01*
X36927557Y28543773D01*
X36950166Y28549437D01*
X36973221Y28552856D01*
X36996500Y28554000D01*
X37471500Y28554000D01*
X37494779Y28552856D01*
G37*
G36*
X37494779Y30302856D02*
G01*
X37517834Y30299437D01*
X37540443Y30293773D01*
X37562387Y30285921D01*
X37583457Y30275956D01*
X37603448Y30263974D01*
X37622168Y30250090D01*
X37639438Y30234438D01*
X37655090Y30217168D01*
X37668974Y30198448D01*
X37680956Y30178457D01*
X37690921Y30157387D01*
X37698773Y30135443D01*
X37704437Y30112834D01*
X37707856Y30089779D01*
X37709000Y30066500D01*
X37709000Y29491500D01*
X37707856Y29468221D01*
X37704437Y29445166D01*
X37698773Y29422557D01*
X37690921Y29400613D01*
X37680956Y29379543D01*
X37668974Y29359552D01*
X37655090Y29340832D01*
X37639438Y29323562D01*
X37622168Y29307910D01*
X37603448Y29294026D01*
X37583457Y29282044D01*
X37562387Y29272079D01*
X37540443Y29264227D01*
X37517834Y29258563D01*
X37494779Y29255144D01*
X37471500Y29254000D01*
X36996500Y29254000D01*
X36973221Y29255144D01*
X36950166Y29258563D01*
X36927557Y29264227D01*
X36905613Y29272079D01*
X36884543Y29282044D01*
X36864552Y29294026D01*
X36845832Y29307910D01*
X36828562Y29323562D01*
X36812910Y29340832D01*
X36799026Y29359552D01*
X36787044Y29379543D01*
X36777079Y29400613D01*
X36769227Y29422557D01*
X36763563Y29445166D01*
X36760144Y29468221D01*
X36759000Y29491500D01*
X36759000Y30066500D01*
X36760144Y30089779D01*
X36763563Y30112834D01*
X36769227Y30135443D01*
X36777079Y30157387D01*
X36787044Y30178457D01*
X36799026Y30198448D01*
X36812910Y30217168D01*
X36828562Y30234438D01*
X36845832Y30250090D01*
X36864552Y30263974D01*
X36884543Y30275956D01*
X36905613Y30285921D01*
X36927557Y30293773D01*
X36950166Y30299437D01*
X36973221Y30302856D01*
X36996500Y30304000D01*
X37471500Y30304000D01*
X37494779Y30302856D01*
G37*
G36*
X37534779Y26727856D02*
G01*
X37557834Y26724437D01*
X37580443Y26718773D01*
X37602387Y26710921D01*
X37623457Y26700956D01*
X37643448Y26688974D01*
X37662168Y26675090D01*
X37679438Y26659438D01*
X37695090Y26642168D01*
X37708974Y26623448D01*
X37720956Y26603457D01*
X37730921Y26582387D01*
X37738773Y26560443D01*
X37744437Y26537834D01*
X37747856Y26514779D01*
X37749000Y26491500D01*
X37749000Y25916500D01*
X37747856Y25893221D01*
X37744437Y25870166D01*
X37738773Y25847557D01*
X37730921Y25825613D01*
X37720956Y25804543D01*
X37708974Y25784552D01*
X37695090Y25765832D01*
X37679438Y25748562D01*
X37662168Y25732910D01*
X37643448Y25719026D01*
X37623457Y25707044D01*
X37602387Y25697079D01*
X37580443Y25689227D01*
X37557834Y25683563D01*
X37534779Y25680144D01*
X37511500Y25679000D01*
X37036500Y25679000D01*
X37013221Y25680144D01*
X36990166Y25683563D01*
X36967557Y25689227D01*
X36945613Y25697079D01*
X36924543Y25707044D01*
X36904552Y25719026D01*
X36885832Y25732910D01*
X36868562Y25748562D01*
X36852910Y25765832D01*
X36839026Y25784552D01*
X36827044Y25804543D01*
X36817079Y25825613D01*
X36809227Y25847557D01*
X36803563Y25870166D01*
X36800144Y25893221D01*
X36799000Y25916500D01*
X36799000Y26491500D01*
X36800144Y26514779D01*
X36803563Y26537834D01*
X36809227Y26560443D01*
X36817079Y26582387D01*
X36827044Y26603457D01*
X36839026Y26623448D01*
X36852910Y26642168D01*
X36868562Y26659438D01*
X36885832Y26675090D01*
X36904552Y26688974D01*
X36924543Y26700956D01*
X36945613Y26710921D01*
X36967557Y26718773D01*
X36990166Y26724437D01*
X37013221Y26727856D01*
X37036500Y26729000D01*
X37511500Y26729000D01*
X37534779Y26727856D01*
G37*
G36*
X37534779Y24977856D02*
G01*
X37557834Y24974437D01*
X37580443Y24968773D01*
X37602387Y24960921D01*
X37623457Y24950956D01*
X37643448Y24938974D01*
X37662168Y24925090D01*
X37679438Y24909438D01*
X37695090Y24892168D01*
X37708974Y24873448D01*
X37720956Y24853457D01*
X37730921Y24832387D01*
X37738773Y24810443D01*
X37744437Y24787834D01*
X37747856Y24764779D01*
X37749000Y24741500D01*
X37749000Y24166500D01*
X37747856Y24143221D01*
X37744437Y24120166D01*
X37738773Y24097557D01*
X37730921Y24075613D01*
X37720956Y24054543D01*
X37708974Y24034552D01*
X37695090Y24015832D01*
X37679438Y23998562D01*
X37662168Y23982910D01*
X37643448Y23969026D01*
X37623457Y23957044D01*
X37602387Y23947079D01*
X37580443Y23939227D01*
X37557834Y23933563D01*
X37534779Y23930144D01*
X37511500Y23929000D01*
X37036500Y23929000D01*
X37013221Y23930144D01*
X36990166Y23933563D01*
X36967557Y23939227D01*
X36945613Y23947079D01*
X36924543Y23957044D01*
X36904552Y23969026D01*
X36885832Y23982910D01*
X36868562Y23998562D01*
X36852910Y24015832D01*
X36839026Y24034552D01*
X36827044Y24054543D01*
X36817079Y24075613D01*
X36809227Y24097557D01*
X36803563Y24120166D01*
X36800144Y24143221D01*
X36799000Y24166500D01*
X36799000Y24741500D01*
X36800144Y24764779D01*
X36803563Y24787834D01*
X36809227Y24810443D01*
X36817079Y24832387D01*
X36827044Y24853457D01*
X36839026Y24873448D01*
X36852910Y24892168D01*
X36868562Y24909438D01*
X36885832Y24925090D01*
X36904552Y24938974D01*
X36924543Y24950956D01*
X36945613Y24960921D01*
X36967557Y24968773D01*
X36990166Y24974437D01*
X37013221Y24977856D01*
X37036500Y24979000D01*
X37511500Y24979000D01*
X37534779Y24977856D01*
G37*
G36*
X8815779Y4323856D02*
G01*
X8838834Y4320437D01*
X8861443Y4314773D01*
X8883387Y4306921D01*
X8904457Y4296956D01*
X8924448Y4284974D01*
X8943168Y4271090D01*
X8960438Y4255438D01*
X8976090Y4238168D01*
X8989974Y4219448D01*
X9001956Y4199457D01*
X9011921Y4178387D01*
X9019773Y4156443D01*
X9025437Y4133834D01*
X9028856Y4110779D01*
X9030000Y4087500D01*
X9030000Y3612500D01*
X9028856Y3589221D01*
X9025437Y3566166D01*
X9019773Y3543557D01*
X9011921Y3521613D01*
X9001956Y3500543D01*
X8989974Y3480552D01*
X8976090Y3461832D01*
X8960438Y3444562D01*
X8943168Y3428910D01*
X8924448Y3415026D01*
X8904457Y3403044D01*
X8883387Y3393079D01*
X8861443Y3385227D01*
X8838834Y3379563D01*
X8815779Y3376144D01*
X8792500Y3375000D01*
X8217500Y3375000D01*
X8194221Y3376144D01*
X8171166Y3379563D01*
X8148557Y3385227D01*
X8126613Y3393079D01*
X8105543Y3403044D01*
X8085552Y3415026D01*
X8066832Y3428910D01*
X8049562Y3444562D01*
X8033910Y3461832D01*
X8020026Y3480552D01*
X8008044Y3500543D01*
X7998079Y3521613D01*
X7990227Y3543557D01*
X7984563Y3566166D01*
X7981144Y3589221D01*
X7980000Y3612500D01*
X7980000Y4087500D01*
X7981144Y4110779D01*
X7984563Y4133834D01*
X7990227Y4156443D01*
X7998079Y4178387D01*
X8008044Y4199457D01*
X8020026Y4219448D01*
X8033910Y4238168D01*
X8049562Y4255438D01*
X8066832Y4271090D01*
X8085552Y4284974D01*
X8105543Y4296956D01*
X8126613Y4306921D01*
X8148557Y4314773D01*
X8171166Y4320437D01*
X8194221Y4323856D01*
X8217500Y4325000D01*
X8792500Y4325000D01*
X8815779Y4323856D01*
G37*
G36*
X10565779Y4323856D02*
G01*
X10588834Y4320437D01*
X10611443Y4314773D01*
X10633387Y4306921D01*
X10654457Y4296956D01*
X10674448Y4284974D01*
X10693168Y4271090D01*
X10710438Y4255438D01*
X10726090Y4238168D01*
X10739974Y4219448D01*
X10751956Y4199457D01*
X10761921Y4178387D01*
X10769773Y4156443D01*
X10775437Y4133834D01*
X10778856Y4110779D01*
X10780000Y4087500D01*
X10780000Y3612500D01*
X10778856Y3589221D01*
X10775437Y3566166D01*
X10769773Y3543557D01*
X10761921Y3521613D01*
X10751956Y3500543D01*
X10739974Y3480552D01*
X10726090Y3461832D01*
X10710438Y3444562D01*
X10693168Y3428910D01*
X10674448Y3415026D01*
X10654457Y3403044D01*
X10633387Y3393079D01*
X10611443Y3385227D01*
X10588834Y3379563D01*
X10565779Y3376144D01*
X10542500Y3375000D01*
X9967500Y3375000D01*
X9944221Y3376144D01*
X9921166Y3379563D01*
X9898557Y3385227D01*
X9876613Y3393079D01*
X9855543Y3403044D01*
X9835552Y3415026D01*
X9816832Y3428910D01*
X9799562Y3444562D01*
X9783910Y3461832D01*
X9770026Y3480552D01*
X9758044Y3500543D01*
X9748079Y3521613D01*
X9740227Y3543557D01*
X9734563Y3566166D01*
X9731144Y3589221D01*
X9730000Y3612500D01*
X9730000Y4087500D01*
X9731144Y4110779D01*
X9734563Y4133834D01*
X9740227Y4156443D01*
X9748079Y4178387D01*
X9758044Y4199457D01*
X9770026Y4219448D01*
X9783910Y4238168D01*
X9799562Y4255438D01*
X9816832Y4271090D01*
X9835552Y4284974D01*
X9855543Y4296956D01*
X9876613Y4306921D01*
X9898557Y4314773D01*
X9921166Y4320437D01*
X9944221Y4323856D01*
X9967500Y4325000D01*
X10542500Y4325000D01*
X10565779Y4323856D01*
G37*
G36*
X29568505Y34226796D02*
G01*
X29592773Y34223196D01*
X29616572Y34217235D01*
X29639671Y34208970D01*
X29661850Y34198480D01*
X29682893Y34185868D01*
X29702599Y34171253D01*
X29720777Y34154777D01*
X29737253Y34136599D01*
X29751868Y34116893D01*
X29764480Y34095850D01*
X29774970Y34073671D01*
X29783235Y34050572D01*
X29789196Y34026773D01*
X29792796Y34002505D01*
X29794000Y33978001D01*
X29794000Y33077999D01*
X29792796Y33053495D01*
X29789196Y33029227D01*
X29783235Y33005428D01*
X29774970Y32982329D01*
X29764480Y32960150D01*
X29751868Y32939107D01*
X29737253Y32919401D01*
X29720777Y32901223D01*
X29702599Y32884747D01*
X29682893Y32870132D01*
X29661850Y32857520D01*
X29639671Y32847030D01*
X29616572Y32838765D01*
X29592773Y32832804D01*
X29568505Y32829204D01*
X29544001Y32828000D01*
X28893999Y32828000D01*
X28869495Y32829204D01*
X28845227Y32832804D01*
X28821428Y32838765D01*
X28798329Y32847030D01*
X28776150Y32857520D01*
X28755107Y32870132D01*
X28735401Y32884747D01*
X28717223Y32901223D01*
X28700747Y32919401D01*
X28686132Y32939107D01*
X28673520Y32960150D01*
X28663030Y32982329D01*
X28654765Y33005428D01*
X28648804Y33029227D01*
X28645204Y33053495D01*
X28644000Y33077999D01*
X28644000Y33978001D01*
X28645204Y34002505D01*
X28648804Y34026773D01*
X28654765Y34050572D01*
X28663030Y34073671D01*
X28673520Y34095850D01*
X28686132Y34116893D01*
X28700747Y34136599D01*
X28717223Y34154777D01*
X28735401Y34171253D01*
X28755107Y34185868D01*
X28776150Y34198480D01*
X28798329Y34208970D01*
X28821428Y34217235D01*
X28845227Y34223196D01*
X28869495Y34226796D01*
X28893999Y34228000D01*
X29544001Y34228000D01*
X29568505Y34226796D01*
G37*
G36*
X27518505Y34226796D02*
G01*
X27542773Y34223196D01*
X27566572Y34217235D01*
X27589671Y34208970D01*
X27611850Y34198480D01*
X27632893Y34185868D01*
X27652599Y34171253D01*
X27670777Y34154777D01*
X27687253Y34136599D01*
X27701868Y34116893D01*
X27714480Y34095850D01*
X27724970Y34073671D01*
X27733235Y34050572D01*
X27739196Y34026773D01*
X27742796Y34002505D01*
X27744000Y33978001D01*
X27744000Y33077999D01*
X27742796Y33053495D01*
X27739196Y33029227D01*
X27733235Y33005428D01*
X27724970Y32982329D01*
X27714480Y32960150D01*
X27701868Y32939107D01*
X27687253Y32919401D01*
X27670777Y32901223D01*
X27652599Y32884747D01*
X27632893Y32870132D01*
X27611850Y32857520D01*
X27589671Y32847030D01*
X27566572Y32838765D01*
X27542773Y32832804D01*
X27518505Y32829204D01*
X27494001Y32828000D01*
X26843999Y32828000D01*
X26819495Y32829204D01*
X26795227Y32832804D01*
X26771428Y32838765D01*
X26748329Y32847030D01*
X26726150Y32857520D01*
X26705107Y32870132D01*
X26685401Y32884747D01*
X26667223Y32901223D01*
X26650747Y32919401D01*
X26636132Y32939107D01*
X26623520Y32960150D01*
X26613030Y32982329D01*
X26604765Y33005428D01*
X26598804Y33029227D01*
X26595204Y33053495D01*
X26594000Y33077999D01*
X26594000Y33978001D01*
X26595204Y34002505D01*
X26598804Y34026773D01*
X26604765Y34050572D01*
X26613030Y34073671D01*
X26623520Y34095850D01*
X26636132Y34116893D01*
X26650747Y34136599D01*
X26667223Y34154777D01*
X26685401Y34171253D01*
X26705107Y34185868D01*
X26726150Y34198480D01*
X26748329Y34208970D01*
X26771428Y34217235D01*
X26795227Y34223196D01*
X26819495Y34226796D01*
X26843999Y34228000D01*
X27494001Y34228000D01*
X27518505Y34226796D01*
G37*
G36*
X33778779Y26727856D02*
G01*
X33801834Y26724437D01*
X33824443Y26718773D01*
X33846387Y26710921D01*
X33867457Y26700956D01*
X33887448Y26688974D01*
X33906168Y26675090D01*
X33923438Y26659438D01*
X33939090Y26642168D01*
X33952974Y26623448D01*
X33964956Y26603457D01*
X33974921Y26582387D01*
X33982773Y26560443D01*
X33988437Y26537834D01*
X33991856Y26514779D01*
X33993000Y26491500D01*
X33993000Y25916500D01*
X33991856Y25893221D01*
X33988437Y25870166D01*
X33982773Y25847557D01*
X33974921Y25825613D01*
X33964956Y25804543D01*
X33952974Y25784552D01*
X33939090Y25765832D01*
X33923438Y25748562D01*
X33906168Y25732910D01*
X33887448Y25719026D01*
X33867457Y25707044D01*
X33846387Y25697079D01*
X33824443Y25689227D01*
X33801834Y25683563D01*
X33778779Y25680144D01*
X33755500Y25679000D01*
X33280500Y25679000D01*
X33257221Y25680144D01*
X33234166Y25683563D01*
X33211557Y25689227D01*
X33189613Y25697079D01*
X33168543Y25707044D01*
X33148552Y25719026D01*
X33129832Y25732910D01*
X33112562Y25748562D01*
X33096910Y25765832D01*
X33083026Y25784552D01*
X33071044Y25804543D01*
X33061079Y25825613D01*
X33053227Y25847557D01*
X33047563Y25870166D01*
X33044144Y25893221D01*
X33043000Y25916500D01*
X33043000Y26491500D01*
X33044144Y26514779D01*
X33047563Y26537834D01*
X33053227Y26560443D01*
X33061079Y26582387D01*
X33071044Y26603457D01*
X33083026Y26623448D01*
X33096910Y26642168D01*
X33112562Y26659438D01*
X33129832Y26675090D01*
X33148552Y26688974D01*
X33168543Y26700956D01*
X33189613Y26710921D01*
X33211557Y26718773D01*
X33234166Y26724437D01*
X33257221Y26727856D01*
X33280500Y26729000D01*
X33755500Y26729000D01*
X33778779Y26727856D01*
G37*
G36*
X33778779Y24977856D02*
G01*
X33801834Y24974437D01*
X33824443Y24968773D01*
X33846387Y24960921D01*
X33867457Y24950956D01*
X33887448Y24938974D01*
X33906168Y24925090D01*
X33923438Y24909438D01*
X33939090Y24892168D01*
X33952974Y24873448D01*
X33964956Y24853457D01*
X33974921Y24832387D01*
X33982773Y24810443D01*
X33988437Y24787834D01*
X33991856Y24764779D01*
X33993000Y24741500D01*
X33993000Y24166500D01*
X33991856Y24143221D01*
X33988437Y24120166D01*
X33982773Y24097557D01*
X33974921Y24075613D01*
X33964956Y24054543D01*
X33952974Y24034552D01*
X33939090Y24015832D01*
X33923438Y23998562D01*
X33906168Y23982910D01*
X33887448Y23969026D01*
X33867457Y23957044D01*
X33846387Y23947079D01*
X33824443Y23939227D01*
X33801834Y23933563D01*
X33778779Y23930144D01*
X33755500Y23929000D01*
X33280500Y23929000D01*
X33257221Y23930144D01*
X33234166Y23933563D01*
X33211557Y23939227D01*
X33189613Y23947079D01*
X33168543Y23957044D01*
X33148552Y23969026D01*
X33129832Y23982910D01*
X33112562Y23998562D01*
X33096910Y24015832D01*
X33083026Y24034552D01*
X33071044Y24054543D01*
X33061079Y24075613D01*
X33053227Y24097557D01*
X33047563Y24120166D01*
X33044144Y24143221D01*
X33043000Y24166500D01*
X33043000Y24741500D01*
X33044144Y24764779D01*
X33047563Y24787834D01*
X33053227Y24810443D01*
X33061079Y24832387D01*
X33071044Y24853457D01*
X33083026Y24873448D01*
X33096910Y24892168D01*
X33112562Y24909438D01*
X33129832Y24925090D01*
X33148552Y24938974D01*
X33168543Y24950956D01*
X33189613Y24960921D01*
X33211557Y24968773D01*
X33234166Y24974437D01*
X33257221Y24977856D01*
X33280500Y24979000D01*
X33755500Y24979000D01*
X33778779Y24977856D01*
G37*
G36*
X33738779Y28552856D02*
G01*
X33761834Y28549437D01*
X33784443Y28543773D01*
X33806387Y28535921D01*
X33827457Y28525956D01*
X33847448Y28513974D01*
X33866168Y28500090D01*
X33883438Y28484438D01*
X33899090Y28467168D01*
X33912974Y28448448D01*
X33924956Y28428457D01*
X33934921Y28407387D01*
X33942773Y28385443D01*
X33948437Y28362834D01*
X33951856Y28339779D01*
X33953000Y28316500D01*
X33953000Y27741500D01*
X33951856Y27718221D01*
X33948437Y27695166D01*
X33942773Y27672557D01*
X33934921Y27650613D01*
X33924956Y27629543D01*
X33912974Y27609552D01*
X33899090Y27590832D01*
X33883438Y27573562D01*
X33866168Y27557910D01*
X33847448Y27544026D01*
X33827457Y27532044D01*
X33806387Y27522079D01*
X33784443Y27514227D01*
X33761834Y27508563D01*
X33738779Y27505144D01*
X33715500Y27504000D01*
X33240500Y27504000D01*
X33217221Y27505144D01*
X33194166Y27508563D01*
X33171557Y27514227D01*
X33149613Y27522079D01*
X33128543Y27532044D01*
X33108552Y27544026D01*
X33089832Y27557910D01*
X33072562Y27573562D01*
X33056910Y27590832D01*
X33043026Y27609552D01*
X33031044Y27629543D01*
X33021079Y27650613D01*
X33013227Y27672557D01*
X33007563Y27695166D01*
X33004144Y27718221D01*
X33003000Y27741500D01*
X33003000Y28316500D01*
X33004144Y28339779D01*
X33007563Y28362834D01*
X33013227Y28385443D01*
X33021079Y28407387D01*
X33031044Y28428457D01*
X33043026Y28448448D01*
X33056910Y28467168D01*
X33072562Y28484438D01*
X33089832Y28500090D01*
X33108552Y28513974D01*
X33128543Y28525956D01*
X33149613Y28535921D01*
X33171557Y28543773D01*
X33194166Y28549437D01*
X33217221Y28552856D01*
X33240500Y28554000D01*
X33715500Y28554000D01*
X33738779Y28552856D01*
G37*
G36*
X33738779Y30302856D02*
G01*
X33761834Y30299437D01*
X33784443Y30293773D01*
X33806387Y30285921D01*
X33827457Y30275956D01*
X33847448Y30263974D01*
X33866168Y30250090D01*
X33883438Y30234438D01*
X33899090Y30217168D01*
X33912974Y30198448D01*
X33924956Y30178457D01*
X33934921Y30157387D01*
X33942773Y30135443D01*
X33948437Y30112834D01*
X33951856Y30089779D01*
X33953000Y30066500D01*
X33953000Y29491500D01*
X33951856Y29468221D01*
X33948437Y29445166D01*
X33942773Y29422557D01*
X33934921Y29400613D01*
X33924956Y29379543D01*
X33912974Y29359552D01*
X33899090Y29340832D01*
X33883438Y29323562D01*
X33866168Y29307910D01*
X33847448Y29294026D01*
X33827457Y29282044D01*
X33806387Y29272079D01*
X33784443Y29264227D01*
X33761834Y29258563D01*
X33738779Y29255144D01*
X33715500Y29254000D01*
X33240500Y29254000D01*
X33217221Y29255144D01*
X33194166Y29258563D01*
X33171557Y29264227D01*
X33149613Y29272079D01*
X33128543Y29282044D01*
X33108552Y29294026D01*
X33089832Y29307910D01*
X33072562Y29323562D01*
X33056910Y29340832D01*
X33043026Y29359552D01*
X33031044Y29379543D01*
X33021079Y29400613D01*
X33013227Y29422557D01*
X33007563Y29445166D01*
X33004144Y29468221D01*
X33003000Y29491500D01*
X33003000Y30066500D01*
X33004144Y30089779D01*
X33007563Y30112834D01*
X33013227Y30135443D01*
X33021079Y30157387D01*
X33031044Y30178457D01*
X33043026Y30198448D01*
X33056910Y30217168D01*
X33072562Y30234438D01*
X33089832Y30250090D01*
X33108552Y30263974D01*
X33128543Y30275956D01*
X33149613Y30285921D01*
X33171557Y30293773D01*
X33194166Y30299437D01*
X33217221Y30302856D01*
X33240500Y30304000D01*
X33715500Y30304000D01*
X33738779Y30302856D01*
G37*
G36*
X35616779Y28552856D02*
G01*
X35639834Y28549437D01*
X35662443Y28543773D01*
X35684387Y28535921D01*
X35705457Y28525956D01*
X35725448Y28513974D01*
X35744168Y28500090D01*
X35761438Y28484438D01*
X35777090Y28467168D01*
X35790974Y28448448D01*
X35802956Y28428457D01*
X35812921Y28407387D01*
X35820773Y28385443D01*
X35826437Y28362834D01*
X35829856Y28339779D01*
X35831000Y28316500D01*
X35831000Y27741500D01*
X35829856Y27718221D01*
X35826437Y27695166D01*
X35820773Y27672557D01*
X35812921Y27650613D01*
X35802956Y27629543D01*
X35790974Y27609552D01*
X35777090Y27590832D01*
X35761438Y27573562D01*
X35744168Y27557910D01*
X35725448Y27544026D01*
X35705457Y27532044D01*
X35684387Y27522079D01*
X35662443Y27514227D01*
X35639834Y27508563D01*
X35616779Y27505144D01*
X35593500Y27504000D01*
X35118500Y27504000D01*
X35095221Y27505144D01*
X35072166Y27508563D01*
X35049557Y27514227D01*
X35027613Y27522079D01*
X35006543Y27532044D01*
X34986552Y27544026D01*
X34967832Y27557910D01*
X34950562Y27573562D01*
X34934910Y27590832D01*
X34921026Y27609552D01*
X34909044Y27629543D01*
X34899079Y27650613D01*
X34891227Y27672557D01*
X34885563Y27695166D01*
X34882144Y27718221D01*
X34881000Y27741500D01*
X34881000Y28316500D01*
X34882144Y28339779D01*
X34885563Y28362834D01*
X34891227Y28385443D01*
X34899079Y28407387D01*
X34909044Y28428457D01*
X34921026Y28448448D01*
X34934910Y28467168D01*
X34950562Y28484438D01*
X34967832Y28500090D01*
X34986552Y28513974D01*
X35006543Y28525956D01*
X35027613Y28535921D01*
X35049557Y28543773D01*
X35072166Y28549437D01*
X35095221Y28552856D01*
X35118500Y28554000D01*
X35593500Y28554000D01*
X35616779Y28552856D01*
G37*
G36*
X35616779Y30302856D02*
G01*
X35639834Y30299437D01*
X35662443Y30293773D01*
X35684387Y30285921D01*
X35705457Y30275956D01*
X35725448Y30263974D01*
X35744168Y30250090D01*
X35761438Y30234438D01*
X35777090Y30217168D01*
X35790974Y30198448D01*
X35802956Y30178457D01*
X35812921Y30157387D01*
X35820773Y30135443D01*
X35826437Y30112834D01*
X35829856Y30089779D01*
X35831000Y30066500D01*
X35831000Y29491500D01*
X35829856Y29468221D01*
X35826437Y29445166D01*
X35820773Y29422557D01*
X35812921Y29400613D01*
X35802956Y29379543D01*
X35790974Y29359552D01*
X35777090Y29340832D01*
X35761438Y29323562D01*
X35744168Y29307910D01*
X35725448Y29294026D01*
X35705457Y29282044D01*
X35684387Y29272079D01*
X35662443Y29264227D01*
X35639834Y29258563D01*
X35616779Y29255144D01*
X35593500Y29254000D01*
X35118500Y29254000D01*
X35095221Y29255144D01*
X35072166Y29258563D01*
X35049557Y29264227D01*
X35027613Y29272079D01*
X35006543Y29282044D01*
X34986552Y29294026D01*
X34967832Y29307910D01*
X34950562Y29323562D01*
X34934910Y29340832D01*
X34921026Y29359552D01*
X34909044Y29379543D01*
X34899079Y29400613D01*
X34891227Y29422557D01*
X34885563Y29445166D01*
X34882144Y29468221D01*
X34881000Y29491500D01*
X34881000Y30066500D01*
X34882144Y30089779D01*
X34885563Y30112834D01*
X34891227Y30135443D01*
X34899079Y30157387D01*
X34909044Y30178457D01*
X34921026Y30198448D01*
X34934910Y30217168D01*
X34950562Y30234438D01*
X34967832Y30250090D01*
X34986552Y30263974D01*
X35006543Y30275956D01*
X35027613Y30285921D01*
X35049557Y30293773D01*
X35072166Y30299437D01*
X35095221Y30302856D01*
X35118500Y30304000D01*
X35593500Y30304000D01*
X35616779Y30302856D01*
G37*
G36*
X35656779Y26727856D02*
G01*
X35679834Y26724437D01*
X35702443Y26718773D01*
X35724387Y26710921D01*
X35745457Y26700956D01*
X35765448Y26688974D01*
X35784168Y26675090D01*
X35801438Y26659438D01*
X35817090Y26642168D01*
X35830974Y26623448D01*
X35842956Y26603457D01*
X35852921Y26582387D01*
X35860773Y26560443D01*
X35866437Y26537834D01*
X35869856Y26514779D01*
X35871000Y26491500D01*
X35871000Y25916500D01*
X35869856Y25893221D01*
X35866437Y25870166D01*
X35860773Y25847557D01*
X35852921Y25825613D01*
X35842956Y25804543D01*
X35830974Y25784552D01*
X35817090Y25765832D01*
X35801438Y25748562D01*
X35784168Y25732910D01*
X35765448Y25719026D01*
X35745457Y25707044D01*
X35724387Y25697079D01*
X35702443Y25689227D01*
X35679834Y25683563D01*
X35656779Y25680144D01*
X35633500Y25679000D01*
X35158500Y25679000D01*
X35135221Y25680144D01*
X35112166Y25683563D01*
X35089557Y25689227D01*
X35067613Y25697079D01*
X35046543Y25707044D01*
X35026552Y25719026D01*
X35007832Y25732910D01*
X34990562Y25748562D01*
X34974910Y25765832D01*
X34961026Y25784552D01*
X34949044Y25804543D01*
X34939079Y25825613D01*
X34931227Y25847557D01*
X34925563Y25870166D01*
X34922144Y25893221D01*
X34921000Y25916500D01*
X34921000Y26491500D01*
X34922144Y26514779D01*
X34925563Y26537834D01*
X34931227Y26560443D01*
X34939079Y26582387D01*
X34949044Y26603457D01*
X34961026Y26623448D01*
X34974910Y26642168D01*
X34990562Y26659438D01*
X35007832Y26675090D01*
X35026552Y26688974D01*
X35046543Y26700956D01*
X35067613Y26710921D01*
X35089557Y26718773D01*
X35112166Y26724437D01*
X35135221Y26727856D01*
X35158500Y26729000D01*
X35633500Y26729000D01*
X35656779Y26727856D01*
G37*
G36*
X35656779Y24977856D02*
G01*
X35679834Y24974437D01*
X35702443Y24968773D01*
X35724387Y24960921D01*
X35745457Y24950956D01*
X35765448Y24938974D01*
X35784168Y24925090D01*
X35801438Y24909438D01*
X35817090Y24892168D01*
X35830974Y24873448D01*
X35842956Y24853457D01*
X35852921Y24832387D01*
X35860773Y24810443D01*
X35866437Y24787834D01*
X35869856Y24764779D01*
X35871000Y24741500D01*
X35871000Y24166500D01*
X35869856Y24143221D01*
X35866437Y24120166D01*
X35860773Y24097557D01*
X35852921Y24075613D01*
X35842956Y24054543D01*
X35830974Y24034552D01*
X35817090Y24015832D01*
X35801438Y23998562D01*
X35784168Y23982910D01*
X35765448Y23969026D01*
X35745457Y23957044D01*
X35724387Y23947079D01*
X35702443Y23939227D01*
X35679834Y23933563D01*
X35656779Y23930144D01*
X35633500Y23929000D01*
X35158500Y23929000D01*
X35135221Y23930144D01*
X35112166Y23933563D01*
X35089557Y23939227D01*
X35067613Y23947079D01*
X35046543Y23957044D01*
X35026552Y23969026D01*
X35007832Y23982910D01*
X34990562Y23998562D01*
X34974910Y24015832D01*
X34961026Y24034552D01*
X34949044Y24054543D01*
X34939079Y24075613D01*
X34931227Y24097557D01*
X34925563Y24120166D01*
X34922144Y24143221D01*
X34921000Y24166500D01*
X34921000Y24741500D01*
X34922144Y24764779D01*
X34925563Y24787834D01*
X34931227Y24810443D01*
X34939079Y24832387D01*
X34949044Y24853457D01*
X34961026Y24873448D01*
X34974910Y24892168D01*
X34990562Y24909438D01*
X35007832Y24925090D01*
X35026552Y24938974D01*
X35046543Y24950956D01*
X35067613Y24960921D01*
X35089557Y24968773D01*
X35112166Y24974437D01*
X35135221Y24977856D01*
X35158500Y24979000D01*
X35633500Y24979000D01*
X35656779Y24977856D01*
G37*
G36*
X28981379Y8963856D02*
G01*
X29004434Y8960437D01*
X29027043Y8954773D01*
X29048987Y8946921D01*
X29070057Y8936956D01*
X29090048Y8924974D01*
X29108768Y8911090D01*
X29126038Y8895438D01*
X29141690Y8878168D01*
X29155574Y8859448D01*
X29167556Y8839457D01*
X29177521Y8818387D01*
X29185373Y8796443D01*
X29191037Y8773834D01*
X29194456Y8750779D01*
X29195600Y8727500D01*
X29195600Y8152500D01*
X29194456Y8129221D01*
X29191037Y8106166D01*
X29185373Y8083557D01*
X29177521Y8061613D01*
X29167556Y8040543D01*
X29155574Y8020552D01*
X29141690Y8001832D01*
X29126038Y7984562D01*
X29108768Y7968910D01*
X29090048Y7955026D01*
X29070057Y7943044D01*
X29048987Y7933079D01*
X29027043Y7925227D01*
X29004434Y7919563D01*
X28981379Y7916144D01*
X28958100Y7915000D01*
X28483100Y7915000D01*
X28459821Y7916144D01*
X28436766Y7919563D01*
X28414157Y7925227D01*
X28392213Y7933079D01*
X28371143Y7943044D01*
X28351152Y7955026D01*
X28332432Y7968910D01*
X28315162Y7984562D01*
X28299510Y8001832D01*
X28285626Y8020552D01*
X28273644Y8040543D01*
X28263679Y8061613D01*
X28255827Y8083557D01*
X28250163Y8106166D01*
X28246744Y8129221D01*
X28245600Y8152500D01*
X28245600Y8727500D01*
X28246744Y8750779D01*
X28250163Y8773834D01*
X28255827Y8796443D01*
X28263679Y8818387D01*
X28273644Y8839457D01*
X28285626Y8859448D01*
X28299510Y8878168D01*
X28315162Y8895438D01*
X28332432Y8911090D01*
X28351152Y8924974D01*
X28371143Y8936956D01*
X28392213Y8946921D01*
X28414157Y8954773D01*
X28436766Y8960437D01*
X28459821Y8963856D01*
X28483100Y8965000D01*
X28958100Y8965000D01*
X28981379Y8963856D01*
G37*
G36*
X28981379Y10713856D02*
G01*
X29004434Y10710437D01*
X29027043Y10704773D01*
X29048987Y10696921D01*
X29070057Y10686956D01*
X29090048Y10674974D01*
X29108768Y10661090D01*
X29126038Y10645438D01*
X29141690Y10628168D01*
X29155574Y10609448D01*
X29167556Y10589457D01*
X29177521Y10568387D01*
X29185373Y10546443D01*
X29191037Y10523834D01*
X29194456Y10500779D01*
X29195600Y10477500D01*
X29195600Y9902500D01*
X29194456Y9879221D01*
X29191037Y9856166D01*
X29185373Y9833557D01*
X29177521Y9811613D01*
X29167556Y9790543D01*
X29155574Y9770552D01*
X29141690Y9751832D01*
X29126038Y9734562D01*
X29108768Y9718910D01*
X29090048Y9705026D01*
X29070057Y9693044D01*
X29048987Y9683079D01*
X29027043Y9675227D01*
X29004434Y9669563D01*
X28981379Y9666144D01*
X28958100Y9665000D01*
X28483100Y9665000D01*
X28459821Y9666144D01*
X28436766Y9669563D01*
X28414157Y9675227D01*
X28392213Y9683079D01*
X28371143Y9693044D01*
X28351152Y9705026D01*
X28332432Y9718910D01*
X28315162Y9734562D01*
X28299510Y9751832D01*
X28285626Y9770552D01*
X28273644Y9790543D01*
X28263679Y9811613D01*
X28255827Y9833557D01*
X28250163Y9856166D01*
X28246744Y9879221D01*
X28245600Y9902500D01*
X28245600Y10477500D01*
X28246744Y10500779D01*
X28250163Y10523834D01*
X28255827Y10546443D01*
X28263679Y10568387D01*
X28273644Y10589457D01*
X28285626Y10609448D01*
X28299510Y10628168D01*
X28315162Y10645438D01*
X28332432Y10661090D01*
X28351152Y10674974D01*
X28371143Y10686956D01*
X28392213Y10696921D01*
X28414157Y10704773D01*
X28436766Y10710437D01*
X28459821Y10713856D01*
X28483100Y10715000D01*
X28958100Y10715000D01*
X28981379Y10713856D01*
G37*
G36*
X27457379Y8963856D02*
G01*
X27480434Y8960437D01*
X27503043Y8954773D01*
X27524987Y8946921D01*
X27546057Y8936956D01*
X27566048Y8924974D01*
X27584768Y8911090D01*
X27602038Y8895438D01*
X27617690Y8878168D01*
X27631574Y8859448D01*
X27643556Y8839457D01*
X27653521Y8818387D01*
X27661373Y8796443D01*
X27667037Y8773834D01*
X27670456Y8750779D01*
X27671600Y8727500D01*
X27671600Y8152500D01*
X27670456Y8129221D01*
X27667037Y8106166D01*
X27661373Y8083557D01*
X27653521Y8061613D01*
X27643556Y8040543D01*
X27631574Y8020552D01*
X27617690Y8001832D01*
X27602038Y7984562D01*
X27584768Y7968910D01*
X27566048Y7955026D01*
X27546057Y7943044D01*
X27524987Y7933079D01*
X27503043Y7925227D01*
X27480434Y7919563D01*
X27457379Y7916144D01*
X27434100Y7915000D01*
X26959100Y7915000D01*
X26935821Y7916144D01*
X26912766Y7919563D01*
X26890157Y7925227D01*
X26868213Y7933079D01*
X26847143Y7943044D01*
X26827152Y7955026D01*
X26808432Y7968910D01*
X26791162Y7984562D01*
X26775510Y8001832D01*
X26761626Y8020552D01*
X26749644Y8040543D01*
X26739679Y8061613D01*
X26731827Y8083557D01*
X26726163Y8106166D01*
X26722744Y8129221D01*
X26721600Y8152500D01*
X26721600Y8727500D01*
X26722744Y8750779D01*
X26726163Y8773834D01*
X26731827Y8796443D01*
X26739679Y8818387D01*
X26749644Y8839457D01*
X26761626Y8859448D01*
X26775510Y8878168D01*
X26791162Y8895438D01*
X26808432Y8911090D01*
X26827152Y8924974D01*
X26847143Y8936956D01*
X26868213Y8946921D01*
X26890157Y8954773D01*
X26912766Y8960437D01*
X26935821Y8963856D01*
X26959100Y8965000D01*
X27434100Y8965000D01*
X27457379Y8963856D01*
G37*
G36*
X27457379Y10713856D02*
G01*
X27480434Y10710437D01*
X27503043Y10704773D01*
X27524987Y10696921D01*
X27546057Y10686956D01*
X27566048Y10674974D01*
X27584768Y10661090D01*
X27602038Y10645438D01*
X27617690Y10628168D01*
X27631574Y10609448D01*
X27643556Y10589457D01*
X27653521Y10568387D01*
X27661373Y10546443D01*
X27667037Y10523834D01*
X27670456Y10500779D01*
X27671600Y10477500D01*
X27671600Y9902500D01*
X27670456Y9879221D01*
X27667037Y9856166D01*
X27661373Y9833557D01*
X27653521Y9811613D01*
X27643556Y9790543D01*
X27631574Y9770552D01*
X27617690Y9751832D01*
X27602038Y9734562D01*
X27584768Y9718910D01*
X27566048Y9705026D01*
X27546057Y9693044D01*
X27524987Y9683079D01*
X27503043Y9675227D01*
X27480434Y9669563D01*
X27457379Y9666144D01*
X27434100Y9665000D01*
X26959100Y9665000D01*
X26935821Y9666144D01*
X26912766Y9669563D01*
X26890157Y9675227D01*
X26868213Y9683079D01*
X26847143Y9693044D01*
X26827152Y9705026D01*
X26808432Y9718910D01*
X26791162Y9734562D01*
X26775510Y9751832D01*
X26761626Y9770552D01*
X26749644Y9790543D01*
X26739679Y9811613D01*
X26731827Y9833557D01*
X26726163Y9856166D01*
X26722744Y9879221D01*
X26721600Y9902500D01*
X26721600Y10477500D01*
X26722744Y10500779D01*
X26726163Y10523834D01*
X26731827Y10546443D01*
X26739679Y10568387D01*
X26749644Y10589457D01*
X26761626Y10609448D01*
X26775510Y10628168D01*
X26791162Y10645438D01*
X26808432Y10661090D01*
X26827152Y10674974D01*
X26847143Y10686956D01*
X26868213Y10696921D01*
X26890157Y10704773D01*
X26912766Y10710437D01*
X26935821Y10713856D01*
X26959100Y10715000D01*
X27434100Y10715000D01*
X27457379Y10713856D01*
G37*
G36*
X23650779Y25518856D02*
G01*
X23673834Y25515437D01*
X23696443Y25509773D01*
X23718387Y25501921D01*
X23739457Y25491956D01*
X23759448Y25479974D01*
X23778168Y25466090D01*
X23795438Y25450438D01*
X23811090Y25433168D01*
X23824974Y25414448D01*
X23836956Y25394457D01*
X23846921Y25373387D01*
X23854773Y25351443D01*
X23860437Y25328834D01*
X23863856Y25305779D01*
X23865000Y25282500D01*
X23865000Y24707500D01*
X23863856Y24684221D01*
X23860437Y24661166D01*
X23854773Y24638557D01*
X23846921Y24616613D01*
X23836956Y24595543D01*
X23824974Y24575552D01*
X23811090Y24556832D01*
X23795438Y24539562D01*
X23778168Y24523910D01*
X23759448Y24510026D01*
X23739457Y24498044D01*
X23718387Y24488079D01*
X23696443Y24480227D01*
X23673834Y24474563D01*
X23650779Y24471144D01*
X23627500Y24470000D01*
X23152500Y24470000D01*
X23129221Y24471144D01*
X23106166Y24474563D01*
X23083557Y24480227D01*
X23061613Y24488079D01*
X23040543Y24498044D01*
X23020552Y24510026D01*
X23001832Y24523910D01*
X22984562Y24539562D01*
X22968910Y24556832D01*
X22955026Y24575552D01*
X22943044Y24595543D01*
X22933079Y24616613D01*
X22925227Y24638557D01*
X22919563Y24661166D01*
X22916144Y24684221D01*
X22915000Y24707500D01*
X22915000Y25282500D01*
X22916144Y25305779D01*
X22919563Y25328834D01*
X22925227Y25351443D01*
X22933079Y25373387D01*
X22943044Y25394457D01*
X22955026Y25414448D01*
X22968910Y25433168D01*
X22984562Y25450438D01*
X23001832Y25466090D01*
X23020552Y25479974D01*
X23040543Y25491956D01*
X23061613Y25501921D01*
X23083557Y25509773D01*
X23106166Y25515437D01*
X23129221Y25518856D01*
X23152500Y25520000D01*
X23627500Y25520000D01*
X23650779Y25518856D01*
G37*
G36*
X23650779Y27268856D02*
G01*
X23673834Y27265437D01*
X23696443Y27259773D01*
X23718387Y27251921D01*
X23739457Y27241956D01*
X23759448Y27229974D01*
X23778168Y27216090D01*
X23795438Y27200438D01*
X23811090Y27183168D01*
X23824974Y27164448D01*
X23836956Y27144457D01*
X23846921Y27123387D01*
X23854773Y27101443D01*
X23860437Y27078834D01*
X23863856Y27055779D01*
X23865000Y27032500D01*
X23865000Y26457500D01*
X23863856Y26434221D01*
X23860437Y26411166D01*
X23854773Y26388557D01*
X23846921Y26366613D01*
X23836956Y26345543D01*
X23824974Y26325552D01*
X23811090Y26306832D01*
X23795438Y26289562D01*
X23778168Y26273910D01*
X23759448Y26260026D01*
X23739457Y26248044D01*
X23718387Y26238079D01*
X23696443Y26230227D01*
X23673834Y26224563D01*
X23650779Y26221144D01*
X23627500Y26220000D01*
X23152500Y26220000D01*
X23129221Y26221144D01*
X23106166Y26224563D01*
X23083557Y26230227D01*
X23061613Y26238079D01*
X23040543Y26248044D01*
X23020552Y26260026D01*
X23001832Y26273910D01*
X22984562Y26289562D01*
X22968910Y26306832D01*
X22955026Y26325552D01*
X22943044Y26345543D01*
X22933079Y26366613D01*
X22925227Y26388557D01*
X22919563Y26411166D01*
X22916144Y26434221D01*
X22915000Y26457500D01*
X22915000Y27032500D01*
X22916144Y27055779D01*
X22919563Y27078834D01*
X22925227Y27101443D01*
X22933079Y27123387D01*
X22943044Y27144457D01*
X22955026Y27164448D01*
X22968910Y27183168D01*
X22984562Y27200438D01*
X23001832Y27216090D01*
X23020552Y27229974D01*
X23040543Y27241956D01*
X23061613Y27251921D01*
X23083557Y27259773D01*
X23106166Y27265437D01*
X23129221Y27268856D01*
X23152500Y27270000D01*
X23627500Y27270000D01*
X23650779Y27268856D01*
G37*
G36*
X26690779Y25528856D02*
G01*
X26713834Y25525437D01*
X26736443Y25519773D01*
X26758387Y25511921D01*
X26779457Y25501956D01*
X26799448Y25489974D01*
X26818168Y25476090D01*
X26835438Y25460438D01*
X26851090Y25443168D01*
X26864974Y25424448D01*
X26876956Y25404457D01*
X26886921Y25383387D01*
X26894773Y25361443D01*
X26900437Y25338834D01*
X26903856Y25315779D01*
X26905000Y25292500D01*
X26905000Y24717500D01*
X26903856Y24694221D01*
X26900437Y24671166D01*
X26894773Y24648557D01*
X26886921Y24626613D01*
X26876956Y24605543D01*
X26864974Y24585552D01*
X26851090Y24566832D01*
X26835438Y24549562D01*
X26818168Y24533910D01*
X26799448Y24520026D01*
X26779457Y24508044D01*
X26758387Y24498079D01*
X26736443Y24490227D01*
X26713834Y24484563D01*
X26690779Y24481144D01*
X26667500Y24480000D01*
X26192500Y24480000D01*
X26169221Y24481144D01*
X26146166Y24484563D01*
X26123557Y24490227D01*
X26101613Y24498079D01*
X26080543Y24508044D01*
X26060552Y24520026D01*
X26041832Y24533910D01*
X26024562Y24549562D01*
X26008910Y24566832D01*
X25995026Y24585552D01*
X25983044Y24605543D01*
X25973079Y24626613D01*
X25965227Y24648557D01*
X25959563Y24671166D01*
X25956144Y24694221D01*
X25955000Y24717500D01*
X25955000Y25292500D01*
X25956144Y25315779D01*
X25959563Y25338834D01*
X25965227Y25361443D01*
X25973079Y25383387D01*
X25983044Y25404457D01*
X25995026Y25424448D01*
X26008910Y25443168D01*
X26024562Y25460438D01*
X26041832Y25476090D01*
X26060552Y25489974D01*
X26080543Y25501956D01*
X26101613Y25511921D01*
X26123557Y25519773D01*
X26146166Y25525437D01*
X26169221Y25528856D01*
X26192500Y25530000D01*
X26667500Y25530000D01*
X26690779Y25528856D01*
G37*
G36*
X26690779Y27278856D02*
G01*
X26713834Y27275437D01*
X26736443Y27269773D01*
X26758387Y27261921D01*
X26779457Y27251956D01*
X26799448Y27239974D01*
X26818168Y27226090D01*
X26835438Y27210438D01*
X26851090Y27193168D01*
X26864974Y27174448D01*
X26876956Y27154457D01*
X26886921Y27133387D01*
X26894773Y27111443D01*
X26900437Y27088834D01*
X26903856Y27065779D01*
X26905000Y27042500D01*
X26905000Y26467500D01*
X26903856Y26444221D01*
X26900437Y26421166D01*
X26894773Y26398557D01*
X26886921Y26376613D01*
X26876956Y26355543D01*
X26864974Y26335552D01*
X26851090Y26316832D01*
X26835438Y26299562D01*
X26818168Y26283910D01*
X26799448Y26270026D01*
X26779457Y26258044D01*
X26758387Y26248079D01*
X26736443Y26240227D01*
X26713834Y26234563D01*
X26690779Y26231144D01*
X26667500Y26230000D01*
X26192500Y26230000D01*
X26169221Y26231144D01*
X26146166Y26234563D01*
X26123557Y26240227D01*
X26101613Y26248079D01*
X26080543Y26258044D01*
X26060552Y26270026D01*
X26041832Y26283910D01*
X26024562Y26299562D01*
X26008910Y26316832D01*
X25995026Y26335552D01*
X25983044Y26355543D01*
X25973079Y26376613D01*
X25965227Y26398557D01*
X25959563Y26421166D01*
X25956144Y26444221D01*
X25955000Y26467500D01*
X25955000Y27042500D01*
X25956144Y27065779D01*
X25959563Y27088834D01*
X25965227Y27111443D01*
X25973079Y27133387D01*
X25983044Y27154457D01*
X25995026Y27174448D01*
X26008910Y27193168D01*
X26024562Y27210438D01*
X26041832Y27226090D01*
X26060552Y27239974D01*
X26080543Y27251956D01*
X26101613Y27261921D01*
X26123557Y27269773D01*
X26146166Y27275437D01*
X26169221Y27278856D01*
X26192500Y27280000D01*
X26667500Y27280000D01*
X26690779Y27278856D01*
G37*
G36*
X25180779Y25518856D02*
G01*
X25203834Y25515437D01*
X25226443Y25509773D01*
X25248387Y25501921D01*
X25269457Y25491956D01*
X25289448Y25479974D01*
X25308168Y25466090D01*
X25325438Y25450438D01*
X25341090Y25433168D01*
X25354974Y25414448D01*
X25366956Y25394457D01*
X25376921Y25373387D01*
X25384773Y25351443D01*
X25390437Y25328834D01*
X25393856Y25305779D01*
X25395000Y25282500D01*
X25395000Y24707500D01*
X25393856Y24684221D01*
X25390437Y24661166D01*
X25384773Y24638557D01*
X25376921Y24616613D01*
X25366956Y24595543D01*
X25354974Y24575552D01*
X25341090Y24556832D01*
X25325438Y24539562D01*
X25308168Y24523910D01*
X25289448Y24510026D01*
X25269457Y24498044D01*
X25248387Y24488079D01*
X25226443Y24480227D01*
X25203834Y24474563D01*
X25180779Y24471144D01*
X25157500Y24470000D01*
X24682500Y24470000D01*
X24659221Y24471144D01*
X24636166Y24474563D01*
X24613557Y24480227D01*
X24591613Y24488079D01*
X24570543Y24498044D01*
X24550552Y24510026D01*
X24531832Y24523910D01*
X24514562Y24539562D01*
X24498910Y24556832D01*
X24485026Y24575552D01*
X24473044Y24595543D01*
X24463079Y24616613D01*
X24455227Y24638557D01*
X24449563Y24661166D01*
X24446144Y24684221D01*
X24445000Y24707500D01*
X24445000Y25282500D01*
X24446144Y25305779D01*
X24449563Y25328834D01*
X24455227Y25351443D01*
X24463079Y25373387D01*
X24473044Y25394457D01*
X24485026Y25414448D01*
X24498910Y25433168D01*
X24514562Y25450438D01*
X24531832Y25466090D01*
X24550552Y25479974D01*
X24570543Y25491956D01*
X24591613Y25501921D01*
X24613557Y25509773D01*
X24636166Y25515437D01*
X24659221Y25518856D01*
X24682500Y25520000D01*
X25157500Y25520000D01*
X25180779Y25518856D01*
G37*
G36*
X25180779Y27268856D02*
G01*
X25203834Y27265437D01*
X25226443Y27259773D01*
X25248387Y27251921D01*
X25269457Y27241956D01*
X25289448Y27229974D01*
X25308168Y27216090D01*
X25325438Y27200438D01*
X25341090Y27183168D01*
X25354974Y27164448D01*
X25366956Y27144457D01*
X25376921Y27123387D01*
X25384773Y27101443D01*
X25390437Y27078834D01*
X25393856Y27055779D01*
X25395000Y27032500D01*
X25395000Y26457500D01*
X25393856Y26434221D01*
X25390437Y26411166D01*
X25384773Y26388557D01*
X25376921Y26366613D01*
X25366956Y26345543D01*
X25354974Y26325552D01*
X25341090Y26306832D01*
X25325438Y26289562D01*
X25308168Y26273910D01*
X25289448Y26260026D01*
X25269457Y26248044D01*
X25248387Y26238079D01*
X25226443Y26230227D01*
X25203834Y26224563D01*
X25180779Y26221144D01*
X25157500Y26220000D01*
X24682500Y26220000D01*
X24659221Y26221144D01*
X24636166Y26224563D01*
X24613557Y26230227D01*
X24591613Y26238079D01*
X24570543Y26248044D01*
X24550552Y26260026D01*
X24531832Y26273910D01*
X24514562Y26289562D01*
X24498910Y26306832D01*
X24485026Y26325552D01*
X24473044Y26345543D01*
X24463079Y26366613D01*
X24455227Y26388557D01*
X24449563Y26411166D01*
X24446144Y26434221D01*
X24445000Y26457500D01*
X24445000Y27032500D01*
X24446144Y27055779D01*
X24449563Y27078834D01*
X24455227Y27101443D01*
X24463079Y27123387D01*
X24473044Y27144457D01*
X24485026Y27164448D01*
X24498910Y27183168D01*
X24514562Y27200438D01*
X24531832Y27216090D01*
X24550552Y27229974D01*
X24570543Y27241956D01*
X24591613Y27251921D01*
X24613557Y27259773D01*
X24636166Y27265437D01*
X24659221Y27268856D01*
X24682500Y27270000D01*
X25157500Y27270000D01*
X25180779Y27268856D01*
G37*
G36*
X39274779Y28521856D02*
G01*
X39297834Y28518437D01*
X39320443Y28512773D01*
X39342387Y28504921D01*
X39363457Y28494956D01*
X39383448Y28482974D01*
X39402168Y28469090D01*
X39419438Y28453438D01*
X39435090Y28436168D01*
X39448974Y28417448D01*
X39460956Y28397457D01*
X39470921Y28376387D01*
X39478773Y28354443D01*
X39484437Y28331834D01*
X39487856Y28308779D01*
X39489000Y28285500D01*
X39489000Y27710500D01*
X39487856Y27687221D01*
X39484437Y27664166D01*
X39478773Y27641557D01*
X39470921Y27619613D01*
X39460956Y27598543D01*
X39448974Y27578552D01*
X39435090Y27559832D01*
X39419438Y27542562D01*
X39402168Y27526910D01*
X39383448Y27513026D01*
X39363457Y27501044D01*
X39342387Y27491079D01*
X39320443Y27483227D01*
X39297834Y27477563D01*
X39274779Y27474144D01*
X39251500Y27473000D01*
X38776500Y27473000D01*
X38753221Y27474144D01*
X38730166Y27477563D01*
X38707557Y27483227D01*
X38685613Y27491079D01*
X38664543Y27501044D01*
X38644552Y27513026D01*
X38625832Y27526910D01*
X38608562Y27542562D01*
X38592910Y27559832D01*
X38579026Y27578552D01*
X38567044Y27598543D01*
X38557079Y27619613D01*
X38549227Y27641557D01*
X38543563Y27664166D01*
X38540144Y27687221D01*
X38539000Y27710500D01*
X38539000Y28285500D01*
X38540144Y28308779D01*
X38543563Y28331834D01*
X38549227Y28354443D01*
X38557079Y28376387D01*
X38567044Y28397457D01*
X38579026Y28417448D01*
X38592910Y28436168D01*
X38608562Y28453438D01*
X38625832Y28469090D01*
X38644552Y28482974D01*
X38664543Y28494956D01*
X38685613Y28504921D01*
X38707557Y28512773D01*
X38730166Y28518437D01*
X38753221Y28521856D01*
X38776500Y28523000D01*
X39251500Y28523000D01*
X39274779Y28521856D01*
G37*
G36*
X39274779Y30271856D02*
G01*
X39297834Y30268437D01*
X39320443Y30262773D01*
X39342387Y30254921D01*
X39363457Y30244956D01*
X39383448Y30232974D01*
X39402168Y30219090D01*
X39419438Y30203438D01*
X39435090Y30186168D01*
X39448974Y30167448D01*
X39460956Y30147457D01*
X39470921Y30126387D01*
X39478773Y30104443D01*
X39484437Y30081834D01*
X39487856Y30058779D01*
X39489000Y30035500D01*
X39489000Y29460500D01*
X39487856Y29437221D01*
X39484437Y29414166D01*
X39478773Y29391557D01*
X39470921Y29369613D01*
X39460956Y29348543D01*
X39448974Y29328552D01*
X39435090Y29309832D01*
X39419438Y29292562D01*
X39402168Y29276910D01*
X39383448Y29263026D01*
X39363457Y29251044D01*
X39342387Y29241079D01*
X39320443Y29233227D01*
X39297834Y29227563D01*
X39274779Y29224144D01*
X39251500Y29223000D01*
X38776500Y29223000D01*
X38753221Y29224144D01*
X38730166Y29227563D01*
X38707557Y29233227D01*
X38685613Y29241079D01*
X38664543Y29251044D01*
X38644552Y29263026D01*
X38625832Y29276910D01*
X38608562Y29292562D01*
X38592910Y29309832D01*
X38579026Y29328552D01*
X38567044Y29348543D01*
X38557079Y29369613D01*
X38549227Y29391557D01*
X38543563Y29414166D01*
X38540144Y29437221D01*
X38539000Y29460500D01*
X38539000Y30035500D01*
X38540144Y30058779D01*
X38543563Y30081834D01*
X38549227Y30104443D01*
X38557079Y30126387D01*
X38567044Y30147457D01*
X38579026Y30167448D01*
X38592910Y30186168D01*
X38608562Y30203438D01*
X38625832Y30219090D01*
X38644552Y30232974D01*
X38664543Y30244956D01*
X38685613Y30254921D01*
X38707557Y30262773D01*
X38730166Y30268437D01*
X38753221Y30271856D01*
X38776500Y30273000D01*
X39251500Y30273000D01*
X39274779Y30271856D01*
G37*
G36*
X28200779Y27306856D02*
G01*
X28223834Y27303437D01*
X28246443Y27297773D01*
X28268387Y27289921D01*
X28289457Y27279956D01*
X28309448Y27267974D01*
X28328168Y27254090D01*
X28345438Y27238438D01*
X28361090Y27221168D01*
X28374974Y27202448D01*
X28386956Y27182457D01*
X28396921Y27161387D01*
X28404773Y27139443D01*
X28410437Y27116834D01*
X28413856Y27093779D01*
X28415000Y27070500D01*
X28415000Y26495500D01*
X28413856Y26472221D01*
X28410437Y26449166D01*
X28404773Y26426557D01*
X28396921Y26404613D01*
X28386956Y26383543D01*
X28374974Y26363552D01*
X28361090Y26344832D01*
X28345438Y26327562D01*
X28328168Y26311910D01*
X28309448Y26298026D01*
X28289457Y26286044D01*
X28268387Y26276079D01*
X28246443Y26268227D01*
X28223834Y26262563D01*
X28200779Y26259144D01*
X28177500Y26258000D01*
X27702500Y26258000D01*
X27679221Y26259144D01*
X27656166Y26262563D01*
X27633557Y26268227D01*
X27611613Y26276079D01*
X27590543Y26286044D01*
X27570552Y26298026D01*
X27551832Y26311910D01*
X27534562Y26327562D01*
X27518910Y26344832D01*
X27505026Y26363552D01*
X27493044Y26383543D01*
X27483079Y26404613D01*
X27475227Y26426557D01*
X27469563Y26449166D01*
X27466144Y26472221D01*
X27465000Y26495500D01*
X27465000Y27070500D01*
X27466144Y27093779D01*
X27469563Y27116834D01*
X27475227Y27139443D01*
X27483079Y27161387D01*
X27493044Y27182457D01*
X27505026Y27202448D01*
X27518910Y27221168D01*
X27534562Y27238438D01*
X27551832Y27254090D01*
X27570552Y27267974D01*
X27590543Y27279956D01*
X27611613Y27289921D01*
X27633557Y27297773D01*
X27656166Y27303437D01*
X27679221Y27306856D01*
X27702500Y27308000D01*
X28177500Y27308000D01*
X28200779Y27306856D01*
G37*
G36*
X28200779Y25556856D02*
G01*
X28223834Y25553437D01*
X28246443Y25547773D01*
X28268387Y25539921D01*
X28289457Y25529956D01*
X28309448Y25517974D01*
X28328168Y25504090D01*
X28345438Y25488438D01*
X28361090Y25471168D01*
X28374974Y25452448D01*
X28386956Y25432457D01*
X28396921Y25411387D01*
X28404773Y25389443D01*
X28410437Y25366834D01*
X28413856Y25343779D01*
X28415000Y25320500D01*
X28415000Y24745500D01*
X28413856Y24722221D01*
X28410437Y24699166D01*
X28404773Y24676557D01*
X28396921Y24654613D01*
X28386956Y24633543D01*
X28374974Y24613552D01*
X28361090Y24594832D01*
X28345438Y24577562D01*
X28328168Y24561910D01*
X28309448Y24548026D01*
X28289457Y24536044D01*
X28268387Y24526079D01*
X28246443Y24518227D01*
X28223834Y24512563D01*
X28200779Y24509144D01*
X28177500Y24508000D01*
X27702500Y24508000D01*
X27679221Y24509144D01*
X27656166Y24512563D01*
X27633557Y24518227D01*
X27611613Y24526079D01*
X27590543Y24536044D01*
X27570552Y24548026D01*
X27551832Y24561910D01*
X27534562Y24577562D01*
X27518910Y24594832D01*
X27505026Y24613552D01*
X27493044Y24633543D01*
X27483079Y24654613D01*
X27475227Y24676557D01*
X27469563Y24699166D01*
X27466144Y24722221D01*
X27465000Y24745500D01*
X27465000Y25320500D01*
X27466144Y25343779D01*
X27469563Y25366834D01*
X27475227Y25389443D01*
X27483079Y25411387D01*
X27493044Y25432457D01*
X27505026Y25452448D01*
X27518910Y25471168D01*
X27534562Y25488438D01*
X27551832Y25504090D01*
X27570552Y25517974D01*
X27590543Y25529956D01*
X27611613Y25539921D01*
X27633557Y25547773D01*
X27656166Y25553437D01*
X27679221Y25556856D01*
X27702500Y25558000D01*
X28177500Y25558000D01*
X28200779Y25556856D01*
G37*
G36*
X39274779Y26682856D02*
G01*
X39297834Y26679437D01*
X39320443Y26673773D01*
X39342387Y26665921D01*
X39363457Y26655956D01*
X39383448Y26643974D01*
X39402168Y26630090D01*
X39419438Y26614438D01*
X39435090Y26597168D01*
X39448974Y26578448D01*
X39460956Y26558457D01*
X39470921Y26537387D01*
X39478773Y26515443D01*
X39484437Y26492834D01*
X39487856Y26469779D01*
X39489000Y26446500D01*
X39489000Y25871500D01*
X39487856Y25848221D01*
X39484437Y25825166D01*
X39478773Y25802557D01*
X39470921Y25780613D01*
X39460956Y25759543D01*
X39448974Y25739552D01*
X39435090Y25720832D01*
X39419438Y25703562D01*
X39402168Y25687910D01*
X39383448Y25674026D01*
X39363457Y25662044D01*
X39342387Y25652079D01*
X39320443Y25644227D01*
X39297834Y25638563D01*
X39274779Y25635144D01*
X39251500Y25634000D01*
X38776500Y25634000D01*
X38753221Y25635144D01*
X38730166Y25638563D01*
X38707557Y25644227D01*
X38685613Y25652079D01*
X38664543Y25662044D01*
X38644552Y25674026D01*
X38625832Y25687910D01*
X38608562Y25703562D01*
X38592910Y25720832D01*
X38579026Y25739552D01*
X38567044Y25759543D01*
X38557079Y25780613D01*
X38549227Y25802557D01*
X38543563Y25825166D01*
X38540144Y25848221D01*
X38539000Y25871500D01*
X38539000Y26446500D01*
X38540144Y26469779D01*
X38543563Y26492834D01*
X38549227Y26515443D01*
X38557079Y26537387D01*
X38567044Y26558457D01*
X38579026Y26578448D01*
X38592910Y26597168D01*
X38608562Y26614438D01*
X38625832Y26630090D01*
X38644552Y26643974D01*
X38664543Y26655956D01*
X38685613Y26665921D01*
X38707557Y26673773D01*
X38730166Y26679437D01*
X38753221Y26682856D01*
X38776500Y26684000D01*
X39251500Y26684000D01*
X39274779Y26682856D01*
G37*
G36*
X39274779Y24932856D02*
G01*
X39297834Y24929437D01*
X39320443Y24923773D01*
X39342387Y24915921D01*
X39363457Y24905956D01*
X39383448Y24893974D01*
X39402168Y24880090D01*
X39419438Y24864438D01*
X39435090Y24847168D01*
X39448974Y24828448D01*
X39460956Y24808457D01*
X39470921Y24787387D01*
X39478773Y24765443D01*
X39484437Y24742834D01*
X39487856Y24719779D01*
X39489000Y24696500D01*
X39489000Y24121500D01*
X39487856Y24098221D01*
X39484437Y24075166D01*
X39478773Y24052557D01*
X39470921Y24030613D01*
X39460956Y24009543D01*
X39448974Y23989552D01*
X39435090Y23970832D01*
X39419438Y23953562D01*
X39402168Y23937910D01*
X39383448Y23924026D01*
X39363457Y23912044D01*
X39342387Y23902079D01*
X39320443Y23894227D01*
X39297834Y23888563D01*
X39274779Y23885144D01*
X39251500Y23884000D01*
X38776500Y23884000D01*
X38753221Y23885144D01*
X38730166Y23888563D01*
X38707557Y23894227D01*
X38685613Y23902079D01*
X38664543Y23912044D01*
X38644552Y23924026D01*
X38625832Y23937910D01*
X38608562Y23953562D01*
X38592910Y23970832D01*
X38579026Y23989552D01*
X38567044Y24009543D01*
X38557079Y24030613D01*
X38549227Y24052557D01*
X38543563Y24075166D01*
X38540144Y24098221D01*
X38539000Y24121500D01*
X38539000Y24696500D01*
X38540144Y24719779D01*
X38543563Y24742834D01*
X38549227Y24765443D01*
X38557079Y24787387D01*
X38567044Y24808457D01*
X38579026Y24828448D01*
X38592910Y24847168D01*
X38608562Y24864438D01*
X38625832Y24880090D01*
X38644552Y24893974D01*
X38664543Y24905956D01*
X38685613Y24915921D01*
X38707557Y24923773D01*
X38730166Y24929437D01*
X38753221Y24932856D01*
X38776500Y24934000D01*
X39251500Y24934000D01*
X39274779Y24932856D01*
G37*
G36*
X21397957Y15813119D02*
G01*
X21422225Y15809519D01*
X21446024Y15803558D01*
X21469123Y15795293D01*
X21491302Y15784803D01*
X21512345Y15772191D01*
X21532051Y15757576D01*
X21550229Y15741100D01*
X21566705Y15722922D01*
X21581320Y15703216D01*
X21593932Y15682173D01*
X21604422Y15659994D01*
X21612687Y15636895D01*
X21618648Y15613096D01*
X21622248Y15588828D01*
X21623452Y15564324D01*
X21623452Y14914322D01*
X21622248Y14889818D01*
X21618648Y14865550D01*
X21612687Y14841751D01*
X21604422Y14818652D01*
X21593932Y14796473D01*
X21581320Y14775430D01*
X21566705Y14755724D01*
X21550229Y14737546D01*
X21532051Y14721070D01*
X21512345Y14706455D01*
X21491302Y14693843D01*
X21469123Y14683353D01*
X21446024Y14675088D01*
X21422225Y14669127D01*
X21397957Y14665527D01*
X21373453Y14664323D01*
X20473451Y14664323D01*
X20448947Y14665527D01*
X20424679Y14669127D01*
X20400880Y14675088D01*
X20377781Y14683353D01*
X20355602Y14693843D01*
X20334559Y14706455D01*
X20314853Y14721070D01*
X20296675Y14737546D01*
X20280199Y14755724D01*
X20265584Y14775430D01*
X20252972Y14796473D01*
X20242482Y14818652D01*
X20234217Y14841751D01*
X20228256Y14865550D01*
X20224656Y14889818D01*
X20223452Y14914322D01*
X20223452Y15564324D01*
X20224656Y15588828D01*
X20228256Y15613096D01*
X20234217Y15636895D01*
X20242482Y15659994D01*
X20252972Y15682173D01*
X20265584Y15703216D01*
X20280199Y15722922D01*
X20296675Y15741100D01*
X20314853Y15757576D01*
X20334559Y15772191D01*
X20355602Y15784803D01*
X20377781Y15795293D01*
X20400880Y15803558D01*
X20424679Y15809519D01*
X20448947Y15813119D01*
X20473451Y15814323D01*
X21373453Y15814323D01*
X21397957Y15813119D01*
G37*
G36*
X21397957Y13763119D02*
G01*
X21422225Y13759519D01*
X21446024Y13753558D01*
X21469123Y13745293D01*
X21491302Y13734803D01*
X21512345Y13722191D01*
X21532051Y13707576D01*
X21550229Y13691100D01*
X21566705Y13672922D01*
X21581320Y13653216D01*
X21593932Y13632173D01*
X21604422Y13609994D01*
X21612687Y13586895D01*
X21618648Y13563096D01*
X21622248Y13538828D01*
X21623452Y13514324D01*
X21623452Y12864322D01*
X21622248Y12839818D01*
X21618648Y12815550D01*
X21612687Y12791751D01*
X21604422Y12768652D01*
X21593932Y12746473D01*
X21581320Y12725430D01*
X21566705Y12705724D01*
X21550229Y12687546D01*
X21532051Y12671070D01*
X21512345Y12656455D01*
X21491302Y12643843D01*
X21469123Y12633353D01*
X21446024Y12625088D01*
X21422225Y12619127D01*
X21397957Y12615527D01*
X21373453Y12614323D01*
X20473451Y12614323D01*
X20448947Y12615527D01*
X20424679Y12619127D01*
X20400880Y12625088D01*
X20377781Y12633353D01*
X20355602Y12643843D01*
X20334559Y12656455D01*
X20314853Y12671070D01*
X20296675Y12687546D01*
X20280199Y12705724D01*
X20265584Y12725430D01*
X20252972Y12746473D01*
X20242482Y12768652D01*
X20234217Y12791751D01*
X20228256Y12815550D01*
X20224656Y12839818D01*
X20223452Y12864322D01*
X20223452Y13514324D01*
X20224656Y13538828D01*
X20228256Y13563096D01*
X20234217Y13586895D01*
X20242482Y13609994D01*
X20252972Y13632173D01*
X20265584Y13653216D01*
X20280199Y13672922D01*
X20296675Y13691100D01*
X20314853Y13707576D01*
X20334559Y13722191D01*
X20355602Y13734803D01*
X20377781Y13745293D01*
X20400880Y13753558D01*
X20424679Y13759519D01*
X20448947Y13763119D01*
X20473451Y13764323D01*
X21373453Y13764323D01*
X21397957Y13763119D01*
G37*
G36*
X23372957Y15813119D02*
G01*
X23397225Y15809519D01*
X23421024Y15803558D01*
X23444123Y15795293D01*
X23466302Y15784803D01*
X23487345Y15772191D01*
X23507051Y15757576D01*
X23525229Y15741100D01*
X23541705Y15722922D01*
X23556320Y15703216D01*
X23568932Y15682173D01*
X23579422Y15659994D01*
X23587687Y15636895D01*
X23593648Y15613096D01*
X23597248Y15588828D01*
X23598452Y15564324D01*
X23598452Y14914322D01*
X23597248Y14889818D01*
X23593648Y14865550D01*
X23587687Y14841751D01*
X23579422Y14818652D01*
X23568932Y14796473D01*
X23556320Y14775430D01*
X23541705Y14755724D01*
X23525229Y14737546D01*
X23507051Y14721070D01*
X23487345Y14706455D01*
X23466302Y14693843D01*
X23444123Y14683353D01*
X23421024Y14675088D01*
X23397225Y14669127D01*
X23372957Y14665527D01*
X23348453Y14664323D01*
X22448451Y14664323D01*
X22423947Y14665527D01*
X22399679Y14669127D01*
X22375880Y14675088D01*
X22352781Y14683353D01*
X22330602Y14693843D01*
X22309559Y14706455D01*
X22289853Y14721070D01*
X22271675Y14737546D01*
X22255199Y14755724D01*
X22240584Y14775430D01*
X22227972Y14796473D01*
X22217482Y14818652D01*
X22209217Y14841751D01*
X22203256Y14865550D01*
X22199656Y14889818D01*
X22198452Y14914322D01*
X22198452Y15564324D01*
X22199656Y15588828D01*
X22203256Y15613096D01*
X22209217Y15636895D01*
X22217482Y15659994D01*
X22227972Y15682173D01*
X22240584Y15703216D01*
X22255199Y15722922D01*
X22271675Y15741100D01*
X22289853Y15757576D01*
X22309559Y15772191D01*
X22330602Y15784803D01*
X22352781Y15795293D01*
X22375880Y15803558D01*
X22399679Y15809519D01*
X22423947Y15813119D01*
X22448451Y15814323D01*
X23348453Y15814323D01*
X23372957Y15813119D01*
G37*
G36*
X23372957Y13763119D02*
G01*
X23397225Y13759519D01*
X23421024Y13753558D01*
X23444123Y13745293D01*
X23466302Y13734803D01*
X23487345Y13722191D01*
X23507051Y13707576D01*
X23525229Y13691100D01*
X23541705Y13672922D01*
X23556320Y13653216D01*
X23568932Y13632173D01*
X23579422Y13609994D01*
X23587687Y13586895D01*
X23593648Y13563096D01*
X23597248Y13538828D01*
X23598452Y13514324D01*
X23598452Y12864322D01*
X23597248Y12839818D01*
X23593648Y12815550D01*
X23587687Y12791751D01*
X23579422Y12768652D01*
X23568932Y12746473D01*
X23556320Y12725430D01*
X23541705Y12705724D01*
X23525229Y12687546D01*
X23507051Y12671070D01*
X23487345Y12656455D01*
X23466302Y12643843D01*
X23444123Y12633353D01*
X23421024Y12625088D01*
X23397225Y12619127D01*
X23372957Y12615527D01*
X23348453Y12614323D01*
X22448451Y12614323D01*
X22423947Y12615527D01*
X22399679Y12619127D01*
X22375880Y12625088D01*
X22352781Y12633353D01*
X22330602Y12643843D01*
X22309559Y12656455D01*
X22289853Y12671070D01*
X22271675Y12687546D01*
X22255199Y12705724D01*
X22240584Y12725430D01*
X22227972Y12746473D01*
X22217482Y12768652D01*
X22209217Y12791751D01*
X22203256Y12815550D01*
X22199656Y12839818D01*
X22198452Y12864322D01*
X22198452Y13514324D01*
X22199656Y13538828D01*
X22203256Y13563096D01*
X22209217Y13586895D01*
X22217482Y13609994D01*
X22227972Y13632173D01*
X22240584Y13653216D01*
X22255199Y13672922D01*
X22271675Y13691100D01*
X22289853Y13707576D01*
X22309559Y13722191D01*
X22330602Y13734803D01*
X22352781Y13745293D01*
X22375880Y13753558D01*
X22399679Y13759519D01*
X22423947Y13763119D01*
X22448451Y13764323D01*
X23348453Y13764323D01*
X23372957Y13763119D01*
G37*
G36*
X21134505Y23768796D02*
G01*
X21158773Y23765196D01*
X21182572Y23759235D01*
X21205671Y23750970D01*
X21227850Y23740480D01*
X21248893Y23727868D01*
X21268599Y23713253D01*
X21286777Y23696777D01*
X21303253Y23678599D01*
X21317868Y23658893D01*
X21330480Y23637850D01*
X21340970Y23615671D01*
X21349235Y23592572D01*
X21355196Y23568773D01*
X21358796Y23544505D01*
X21360000Y23520001D01*
X21360000Y22869999D01*
X21358796Y22845495D01*
X21355196Y22821227D01*
X21349235Y22797428D01*
X21340970Y22774329D01*
X21330480Y22752150D01*
X21317868Y22731107D01*
X21303253Y22711401D01*
X21286777Y22693223D01*
X21268599Y22676747D01*
X21248893Y22662132D01*
X21227850Y22649520D01*
X21205671Y22639030D01*
X21182572Y22630765D01*
X21158773Y22624804D01*
X21134505Y22621204D01*
X21110001Y22620000D01*
X20209999Y22620000D01*
X20185495Y22621204D01*
X20161227Y22624804D01*
X20137428Y22630765D01*
X20114329Y22639030D01*
X20092150Y22649520D01*
X20071107Y22662132D01*
X20051401Y22676747D01*
X20033223Y22693223D01*
X20016747Y22711401D01*
X20002132Y22731107D01*
X19989520Y22752150D01*
X19979030Y22774329D01*
X19970765Y22797428D01*
X19964804Y22821227D01*
X19961204Y22845495D01*
X19960000Y22869999D01*
X19960000Y23520001D01*
X19961204Y23544505D01*
X19964804Y23568773D01*
X19970765Y23592572D01*
X19979030Y23615671D01*
X19989520Y23637850D01*
X20002132Y23658893D01*
X20016747Y23678599D01*
X20033223Y23696777D01*
X20051401Y23713253D01*
X20071107Y23727868D01*
X20092150Y23740480D01*
X20114329Y23750970D01*
X20137428Y23759235D01*
X20161227Y23765196D01*
X20185495Y23768796D01*
X20209999Y23770000D01*
X21110001Y23770000D01*
X21134505Y23768796D01*
G37*
G36*
X21134505Y21718796D02*
G01*
X21158773Y21715196D01*
X21182572Y21709235D01*
X21205671Y21700970D01*
X21227850Y21690480D01*
X21248893Y21677868D01*
X21268599Y21663253D01*
X21286777Y21646777D01*
X21303253Y21628599D01*
X21317868Y21608893D01*
X21330480Y21587850D01*
X21340970Y21565671D01*
X21349235Y21542572D01*
X21355196Y21518773D01*
X21358796Y21494505D01*
X21360000Y21470001D01*
X21360000Y20819999D01*
X21358796Y20795495D01*
X21355196Y20771227D01*
X21349235Y20747428D01*
X21340970Y20724329D01*
X21330480Y20702150D01*
X21317868Y20681107D01*
X21303253Y20661401D01*
X21286777Y20643223D01*
X21268599Y20626747D01*
X21248893Y20612132D01*
X21227850Y20599520D01*
X21205671Y20589030D01*
X21182572Y20580765D01*
X21158773Y20574804D01*
X21134505Y20571204D01*
X21110001Y20570000D01*
X20209999Y20570000D01*
X20185495Y20571204D01*
X20161227Y20574804D01*
X20137428Y20580765D01*
X20114329Y20589030D01*
X20092150Y20599520D01*
X20071107Y20612132D01*
X20051401Y20626747D01*
X20033223Y20643223D01*
X20016747Y20661401D01*
X20002132Y20681107D01*
X19989520Y20702150D01*
X19979030Y20724329D01*
X19970765Y20747428D01*
X19964804Y20771227D01*
X19961204Y20795495D01*
X19960000Y20819999D01*
X19960000Y21470001D01*
X19961204Y21494505D01*
X19964804Y21518773D01*
X19970765Y21542572D01*
X19979030Y21565671D01*
X19989520Y21587850D01*
X20002132Y21608893D01*
X20016747Y21628599D01*
X20033223Y21646777D01*
X20051401Y21663253D01*
X20071107Y21677868D01*
X20092150Y21690480D01*
X20114329Y21700970D01*
X20137428Y21709235D01*
X20161227Y21715196D01*
X20185495Y21718796D01*
X20209999Y21720000D01*
X21110001Y21720000D01*
X21134505Y21718796D01*
G37*
G36*
X25834505Y12988796D02*
G01*
X25858773Y12985196D01*
X25882572Y12979235D01*
X25905671Y12970970D01*
X25927850Y12960480D01*
X25948893Y12947868D01*
X25968599Y12933253D01*
X25986777Y12916777D01*
X26003253Y12898599D01*
X26017868Y12878893D01*
X26030480Y12857850D01*
X26040970Y12835671D01*
X26049235Y12812572D01*
X26055196Y12788773D01*
X26058796Y12764505D01*
X26060000Y12740001D01*
X26060000Y12089999D01*
X26058796Y12065495D01*
X26055196Y12041227D01*
X26049235Y12017428D01*
X26040970Y11994329D01*
X26030480Y11972150D01*
X26017868Y11951107D01*
X26003253Y11931401D01*
X25986777Y11913223D01*
X25968599Y11896747D01*
X25948893Y11882132D01*
X25927850Y11869520D01*
X25905671Y11859030D01*
X25882572Y11850765D01*
X25858773Y11844804D01*
X25834505Y11841204D01*
X25810001Y11840000D01*
X24909999Y11840000D01*
X24885495Y11841204D01*
X24861227Y11844804D01*
X24837428Y11850765D01*
X24814329Y11859030D01*
X24792150Y11869520D01*
X24771107Y11882132D01*
X24751401Y11896747D01*
X24733223Y11913223D01*
X24716747Y11931401D01*
X24702132Y11951107D01*
X24689520Y11972150D01*
X24679030Y11994329D01*
X24670765Y12017428D01*
X24664804Y12041227D01*
X24661204Y12065495D01*
X24660000Y12089999D01*
X24660000Y12740001D01*
X24661204Y12764505D01*
X24664804Y12788773D01*
X24670765Y12812572D01*
X24679030Y12835671D01*
X24689520Y12857850D01*
X24702132Y12878893D01*
X24716747Y12898599D01*
X24733223Y12916777D01*
X24751401Y12933253D01*
X24771107Y12947868D01*
X24792150Y12960480D01*
X24814329Y12970970D01*
X24837428Y12979235D01*
X24861227Y12985196D01*
X24885495Y12988796D01*
X24909999Y12990000D01*
X25810001Y12990000D01*
X25834505Y12988796D01*
G37*
G36*
X25834505Y10938796D02*
G01*
X25858773Y10935196D01*
X25882572Y10929235D01*
X25905671Y10920970D01*
X25927850Y10910480D01*
X25948893Y10897868D01*
X25968599Y10883253D01*
X25986777Y10866777D01*
X26003253Y10848599D01*
X26017868Y10828893D01*
X26030480Y10807850D01*
X26040970Y10785671D01*
X26049235Y10762572D01*
X26055196Y10738773D01*
X26058796Y10714505D01*
X26060000Y10690001D01*
X26060000Y10039999D01*
X26058796Y10015495D01*
X26055196Y9991227D01*
X26049235Y9967428D01*
X26040970Y9944329D01*
X26030480Y9922150D01*
X26017868Y9901107D01*
X26003253Y9881401D01*
X25986777Y9863223D01*
X25968599Y9846747D01*
X25948893Y9832132D01*
X25927850Y9819520D01*
X25905671Y9809030D01*
X25882572Y9800765D01*
X25858773Y9794804D01*
X25834505Y9791204D01*
X25810001Y9790000D01*
X24909999Y9790000D01*
X24885495Y9791204D01*
X24861227Y9794804D01*
X24837428Y9800765D01*
X24814329Y9809030D01*
X24792150Y9819520D01*
X24771107Y9832132D01*
X24751401Y9846747D01*
X24733223Y9863223D01*
X24716747Y9881401D01*
X24702132Y9901107D01*
X24689520Y9922150D01*
X24679030Y9944329D01*
X24670765Y9967428D01*
X24664804Y9991227D01*
X24661204Y10015495D01*
X24660000Y10039999D01*
X24660000Y10690001D01*
X24661204Y10714505D01*
X24664804Y10738773D01*
X24670765Y10762572D01*
X24679030Y10785671D01*
X24689520Y10807850D01*
X24702132Y10828893D01*
X24716747Y10848599D01*
X24733223Y10866777D01*
X24751401Y10883253D01*
X24771107Y10897868D01*
X24792150Y10910480D01*
X24814329Y10920970D01*
X24837428Y10929235D01*
X24861227Y10935196D01*
X24885495Y10938796D01*
X24909999Y10940000D01*
X25810001Y10940000D01*
X25834505Y10938796D01*
G37*
M02*
